<?xml version="1.0" encoding="UTF-8" standalone="no"?>
<!DOCTYPE svg PUBLIC "-//W3C//DTD SVG 1.1//EN"
 "http://www.w3.org/Graphics/SVG/1.1/DTD/svg11.dtd">
<!-- Generated by graphviz version 2.36.0 (20140111.2315)
 -->
<!-- Title: crop Pages: 1 -->
<svg width="362pt" height="47pt"
 viewBox="0.00 0.00 362.00 47.00" xmlns="http://www.w3.org/2000/svg" xmlns:xlink="http://www.w3.org/1999/xlink">
<g id="graph0" class="graph" transform="scale(1 1) rotate(0) translate(4 43)">
<title>crop</title>
<polygon fill="white" stroke="none" points="-4,4 -4,-43 358,-43 358,4 -4,4"/>
<!-- Node24 -->
<g id="node1" class="node"><title>Node24</title>
<polygon fill="#bfbfbf" stroke="black" points="0,-19.5 0,-38.5 36,-38.5 36,-19.5 0,-19.5"/>
<text text-anchor="middle" x="18" y="-26.5" font-family="Helvetica,sans-Serif" font-size="10.00">crop</text>
</g>
<!-- Node25 -->
<g id="node2" class="node"><title>Node25</title>
<g id="a_node2"><a xlink:href="classcaiman_1_1base_1_1movies_1_1movie.html#a6b814991c1e80b06b507789d0c6bee52" target="_top" xlink:title="motion_correct">
<polygon fill="white" stroke="black" points="178.5,-19.5 178.5,-38.5 261.5,-38.5 261.5,-19.5 178.5,-19.5"/>
<text text-anchor="middle" x="220" y="-26.5" font-family="Helvetica,sans-Serif" font-size="10.00">motion_correct</text>
</a>
</g>
</g>
<!-- Node24&#45;&gt;Node25 -->
<g id="edge1" class="edge"><title>Node24&#45;&gt;Node25</title>
<path fill="none" stroke="midnightblue" d="M46.1877,-29C80.239,-29 138.886,-29 178.297,-29"/>
<polygon fill="midnightblue" stroke="midnightblue" points="46.0519,-25.5001 36.0519,-29 46.0519,-32.5001 46.0519,-25.5001"/>
</g>
<!-- Node27 -->
<g id="node4" class="node"><title>Node27</title>
<g id="a_node4"><a xlink:href="classcaiman_1_1base_1_1movies_1_1movie.html#aa607b03e52751c0449b36e7b5a738d3d" target="_top" xlink:title="Apply precomputed shifts to a movie, using subpixels adjustment (cv2.INTER_CUBIC function) ...">
<polygon fill="white" stroke="black" points="72.5,-0.5 72.5,-19.5 141.5,-19.5 141.5,-0.5 72.5,-0.5"/>
<text text-anchor="middle" x="107" y="-7.5" font-family="Helvetica,sans-Serif" font-size="10.00">apply_shifts</text>
</a>
</g>
</g>
<!-- Node24&#45;&gt;Node27 -->
<g id="edge3" class="edge"><title>Node24&#45;&gt;Node27</title>
<path fill="none" stroke="midnightblue" d="M46.0841,-23.0851C54.3786,-21.2736 63.6062,-19.2584 72.2857,-17.3629"/>
<polygon fill="midnightblue" stroke="midnightblue" points="45.2113,-19.6931 36.1884,-25.2462 46.7049,-26.5319 45.2113,-19.6931"/>
</g>
<!-- Node26 -->
<g id="node3" class="node"><title>Node26</title>
<g id="a_node3"><a xlink:href="classcaiman_1_1base_1_1movies_1_1movie.html#aa86d1dcb1864827b0701c996d7956ae0" target="_top" xlink:title="calc_min">
<polygon fill="white" stroke="black" points="298,-19.5 298,-38.5 354,-38.5 354,-19.5 298,-19.5"/>
<text text-anchor="middle" x="326" y="-26.5" font-family="Helvetica,sans-Serif" font-size="10.00">calc_min</text>
</a>
</g>
</g>
<!-- Node25&#45;&gt;Node26 -->
<g id="edge2" class="edge"><title>Node25&#45;&gt;Node26</title>
<path fill="none" stroke="midnightblue" d="M271.66,-29C280.725,-29 289.844,-29 297.915,-29"/>
<polygon fill="midnightblue" stroke="midnightblue" points="271.507,-25.5001 261.507,-29 271.507,-32.5001 271.507,-25.5001"/>
</g>
<!-- Node27&#45;&gt;Node25 -->
<g id="edge4" class="edge"><title>Node27&#45;&gt;Node25</title>
<path fill="none" stroke="midnightblue" d="M151.708,-17.4816C160.526,-18.991 169.76,-20.5716 178.464,-22.0614"/>
<polygon fill="midnightblue" stroke="midnightblue" points="152.052,-13.9896 141.605,-15.7522 150.871,-20.8893 152.052,-13.9896"/>
</g>
</g>
</svg>
