<?xml version="1.0" encoding="UTF-8" standalone="no"?>
<!DOCTYPE svg PUBLIC "-//W3C//DTD SVG 1.1//EN"
 "http://www.w3.org/Graphics/SVG/1.1/DTD/svg11.dtd">
<!-- Generated by graphviz version 2.36.0 (20140111.2315)
 -->
<!-- Title: IPCA Pages: 1 -->
<svg width="164pt" height="66pt"
 viewBox="0.00 0.00 164.00 66.00" xmlns="http://www.w3.org/2000/svg" xmlns:xlink="http://www.w3.org/1999/xlink">
<g id="graph0" class="graph" transform="scale(1 1) rotate(0) translate(4 62)">
<title>IPCA</title>
<polygon fill="white" stroke="none" points="-4,4 -4,-62 160,-62 160,4 -4,4"/>
<!-- Node41 -->
<g id="node1" class="node"><title>Node41</title>
<polygon fill="#bfbfbf" stroke="black" points="0,-19.5 0,-38.5 40,-38.5 40,-19.5 0,-19.5"/>
<text text-anchor="middle" x="20" y="-26.5" font-family="Helvetica,sans-Serif" font-size="10.00">IPCA</text>
</g>
<!-- Node42 -->
<g id="node2" class="node"><title>Node42</title>
<g id="a_node2"><a xlink:href="classcaiman_1_1base_1_1movies_1_1movie.html#aa27bd95cf58bb6ce00bdd8f514177ddb" target="_top" xlink:title="Compute PCA + ICA a la Mukamel 2009. ">
<polygon fill="white" stroke="black" points="81,-38.5 81,-57.5 151,-57.5 151,-38.5 81,-38.5"/>
<text text-anchor="middle" x="116" y="-45.5" font-family="Helvetica,sans-Serif" font-size="10.00">IPCA_stICA</text>
</a>
</g>
</g>
<!-- Node41&#45;&gt;Node42 -->
<g id="edge1" class="edge"><title>Node41&#45;&gt;Node42</title>
<path fill="none" stroke="midnightblue" d="M50.0131,-34.8644C59.7491,-36.8323 70.6977,-39.0453 80.7938,-41.086"/>
<polygon fill="midnightblue" stroke="midnightblue" points="50.5175,-31.3956 40.0223,-32.8449 49.1306,-38.2568 50.5175,-31.3956"/>
</g>
<!-- Node43 -->
<g id="node3" class="node"><title>Node43</title>
<g id="a_node3"><a xlink:href="classcaiman_1_1base_1_1movies_1_1movie.html#afa8e8b6f5fea5be0f6aec3efed371fce" target="_top" xlink:title="Create a denoise version of the movie only using the first &#39;components&#39; components. ">
<polygon fill="white" stroke="black" points="76,-0.5 76,-19.5 156,-19.5 156,-0.5 76,-0.5"/>
<text text-anchor="middle" x="116" y="-7.5" font-family="Helvetica,sans-Serif" font-size="10.00">IPCA_denoise</text>
</a>
</g>
</g>
<!-- Node41&#45;&gt;Node43 -->
<g id="edge2" class="edge"><title>Node41&#45;&gt;Node43</title>
<path fill="none" stroke="midnightblue" d="M49.8479,-23.169C58.0462,-21.5119 67.1151,-19.6789 75.8162,-17.9201"/>
<polygon fill="midnightblue" stroke="midnightblue" points="49.1306,-19.7432 40.0223,-25.1551 50.5175,-26.6044 49.1306,-19.7432"/>
</g>
</g>
</svg>
