<?xml version="1.0" encoding="UTF-8" standalone="no"?>
<!DOCTYPE svg PUBLIC "-//W3C//DTD SVG 1.1//EN"
 "http://www.w3.org/Graphics/SVG/1.1/DTD/svg11.dtd">
<!-- Generated by graphviz version 2.36.0 (20140111.2315)
 -->
<!-- Title: extract_shifts Pages: 1 -->
<svg width="296pt" height="28pt"
 viewBox="0.00 0.00 296.00 28.00" xmlns="http://www.w3.org/2000/svg" xmlns:xlink="http://www.w3.org/1999/xlink">
<g id="graph0" class="graph" transform="scale(1 1) rotate(0) translate(4 24)">
<title>extract_shifts</title>
<polygon fill="white" stroke="none" points="-4,4 -4,-24 292,-24 292,4 -4,4"/>
<!-- Node31 -->
<g id="node1" class="node"><title>Node31</title>
<polygon fill="#bfbfbf" stroke="black" points="0.5,-0.5 0.5,-19.5 75.5,-19.5 75.5,-0.5 0.5,-0.5"/>
<text text-anchor="middle" x="38" y="-7.5" font-family="Helvetica,sans-Serif" font-size="10.00">extract_shifts</text>
</g>
<!-- Node32 -->
<g id="node2" class="node"><title>Node32</title>
<g id="a_node2"><a xlink:href="classcaiman_1_1base_1_1movies_1_1movie.html#a6b814991c1e80b06b507789d0c6bee52" target="_top" xlink:title="motion_correct">
<polygon fill="white" stroke="black" points="112.5,-0.5 112.5,-19.5 195.5,-19.5 195.5,-0.5 112.5,-0.5"/>
<text text-anchor="middle" x="154" y="-7.5" font-family="Helvetica,sans-Serif" font-size="10.00">motion_correct</text>
</a>
</g>
</g>
<!-- Node31&#45;&gt;Node32 -->
<g id="edge1" class="edge"><title>Node31&#45;&gt;Node32</title>
<path fill="none" stroke="midnightblue" d="M85.8429,-10C94.6611,-10 103.814,-10 112.422,-10"/>
<polygon fill="midnightblue" stroke="midnightblue" points="85.6979,-6.5001 75.6978,-10 85.6978,-13.5001 85.6979,-6.5001"/>
</g>
<!-- Node33 -->
<g id="node3" class="node"><title>Node33</title>
<g id="a_node3"><a xlink:href="classcaiman_1_1base_1_1movies_1_1movie.html#aa86d1dcb1864827b0701c996d7956ae0" target="_top" xlink:title="calc_min">
<polygon fill="white" stroke="black" points="232,-0.5 232,-19.5 288,-19.5 288,-0.5 232,-0.5"/>
<text text-anchor="middle" x="260" y="-7.5" font-family="Helvetica,sans-Serif" font-size="10.00">calc_min</text>
</a>
</g>
</g>
<!-- Node32&#45;&gt;Node33 -->
<g id="edge2" class="edge"><title>Node32&#45;&gt;Node33</title>
<path fill="none" stroke="midnightblue" d="M205.66,-10C214.725,-10 223.844,-10 231.915,-10"/>
<polygon fill="midnightblue" stroke="midnightblue" points="205.507,-6.5001 195.507,-10 205.507,-13.5001 205.507,-6.5001"/>
</g>
</g>
</svg>
