<?xml version="1.0" encoding="UTF-8" standalone="no"?>
<!DOCTYPE svg PUBLIC "-//W3C//DTD SVG 1.1//EN"
 "http://www.w3.org/Graphics/SVG/1.1/DTD/svg11.dtd">
<!-- Generated by graphviz version 2.36.0 (20140111.2315)
 -->
<!-- Title: evt_zoom Pages: 1 -->
<svg width="462pt" height="28pt"
 viewBox="0.00 0.00 462.00 28.00" xmlns="http://www.w3.org/2000/svg" xmlns:xlink="http://www.w3.org/1999/xlink">
<g id="graph0" class="graph" transform="scale(1 1) rotate(0) translate(4 24)">
<title>evt_zoom</title>
<polygon fill="white" stroke="none" points="-4,4 -4,-24 458,-24 458,4 -4,4"/>
<!-- Node17 -->
<g id="node1" class="node"><title>Node17</title>
<polygon fill="#bfbfbf" stroke="black" points="0,-0.5 0,-19.5 60,-19.5 60,-0.5 0,-0.5"/>
<text text-anchor="middle" x="30" y="-7.5" font-family="Helvetica,sans-Serif" font-size="10.00">evt_zoom</text>
</g>
<!-- Node18 -->
<g id="node2" class="node"><title>Node18</title>
<g id="a_node2"><a xlink:href="classcaiman_1_1gui_1_1gui_1_1_g_u_i.html#af25f6f83cd7cf2d40b222224a9230542" target="_top" xlink:title="plot_current_traces">
<polygon fill="white" stroke="black" points="96,-0.5 96,-19.5 198,-19.5 198,-0.5 96,-0.5"/>
<text text-anchor="middle" x="147" y="-7.5" font-family="Helvetica,sans-Serif" font-size="10.00">plot_current_traces</text>
</a>
</g>
</g>
<!-- Node17&#45;&gt;Node18 -->
<g id="edge1" class="edge"><title>Node17&#45;&gt;Node18</title>
<path fill="none" stroke="midnightblue" d="M60.0194,-10C67.9479,-10 76.8429,-10 85.8251,-10"/>
<polygon fill="midnightblue" stroke="midnightblue" points="85.9566,-13.5001 95.9566,-10 85.9565,-6.5001 85.9566,-13.5001"/>
</g>
<!-- Node19 -->
<g id="node3" class="node"><title>Node19</title>
<g id="a_node3"><a xlink:href="classcaiman_1_1gui_1_1gui_1_1_g_u_i.html#a06508ecd0b0e41023403958b0d08f995" target="_top" xlink:title="get_current_roi">
<polygon fill="white" stroke="black" points="234,-0.5 234,-19.5 318,-19.5 318,-0.5 234,-0.5"/>
<text text-anchor="middle" x="276" y="-7.5" font-family="Helvetica,sans-Serif" font-size="10.00">get_current_roi</text>
</a>
</g>
</g>
<!-- Node18&#45;&gt;Node19 -->
<g id="edge2" class="edge"><title>Node18&#45;&gt;Node19</title>
<path fill="none" stroke="midnightblue" d="M198.194,-10C206.573,-10 215.277,-10 223.684,-10"/>
<polygon fill="midnightblue" stroke="midnightblue" points="223.75,-13.5001 233.75,-10 223.75,-6.5001 223.75,-13.5001"/>
</g>
<!-- Node20 -->
<g id="node4" class="node"><title>Node20</title>
<g id="a_node4"><a xlink:href="namespacecaiman_1_1gui_1_1gui.html#a919565f7d8a432cb5643d7b66ef2a4d1" target="_top" xlink:title="caiman.gui.gui.isin">
<polygon fill="white" stroke="black" points="354.5,-0.5 354.5,-19.5 453.5,-19.5 453.5,-0.5 354.5,-0.5"/>
<text text-anchor="middle" x="404" y="-7.5" font-family="Helvetica,sans-Serif" font-size="10.00">caiman.gui.gui.isin</text>
</a>
</g>
</g>
<!-- Node19&#45;&gt;Node20 -->
<g id="edge3" class="edge"><title>Node19&#45;&gt;Node20</title>
<path fill="none" stroke="midnightblue" d="M318.257,-10C326.511,-10 335.332,-10 344.049,-10"/>
<polygon fill="midnightblue" stroke="midnightblue" points="344.195,-13.5001 354.195,-10 344.195,-6.5001 344.195,-13.5001"/>
</g>
</g>
</svg>
