<?xml version="1.0" encoding="UTF-8" standalone="no"?>
<!DOCTYPE svg PUBLIC "-//W3C//DTD SVG 1.1//EN"
 "http://www.w3.org/Graphics/SVG/1.1/DTD/svg11.dtd">
<!-- Generated by graphviz version 2.36.0 (20140111.2315)
 -->
<!-- Title: motion_correction_online Pages: 1 -->
<svg width="536pt" height="87pt"
 viewBox="0.00 0.00 536.00 87.00" xmlns="http://www.w3.org/2000/svg" xmlns:xlink="http://www.w3.org/1999/xlink">
<g id="graph0" class="graph" transform="scale(1 1) rotate(0) translate(4 83)">
<title>motion_correction_online</title>
<polygon fill="white" stroke="none" points="-4,4 -4,-83 532,-83 532,4 -4,4"/>
<!-- Node66 -->
<g id="node1" class="node"><title>Node66</title>
<polygon fill="#bfbfbf" stroke="black" points="0,-29.5 0,-48.5 128,-48.5 128,-29.5 0,-29.5"/>
<text text-anchor="middle" x="64" y="-36.5" font-family="Helvetica,sans-Serif" font-size="10.00">motion_correction_online</text>
</g>
<!-- Node67 -->
<g id="node2" class="node"><title>Node67</title>
<g id="a_node2"><a xlink:href="namespacecaiman_1_1motion__correction.html#a178e8317ba3a15bd5e072132ce6fa9f3" target="_top" xlink:title="caiman.motion_correction.motion\l_correct_online">
<polygon fill="white" stroke="black" points="164,-24 164,-54 328,-54 328,-24 164,-24"/>
<text text-anchor="start" x="172" y="-42" font-family="Helvetica,sans-Serif" font-size="10.00">caiman.motion_correction.motion</text>
<text text-anchor="middle" x="246" y="-31" font-family="Helvetica,sans-Serif" font-size="10.00">_correct_online</text>
</a>
</g>
</g>
<!-- Node66&#45;&gt;Node67 -->
<g id="edge1" class="edge"><title>Node66&#45;&gt;Node67</title>
<path fill="none" stroke="midnightblue" d="M128.208,-39C136.508,-39 145.143,-39 153.793,-39"/>
<polygon fill="midnightblue" stroke="midnightblue" points="153.934,-42.5001 163.934,-39 153.934,-35.5001 153.934,-42.5001"/>
</g>
<!-- Node68 -->
<g id="node3" class="node"><title>Node68</title>
<g id="a_node3"><a xlink:href="namespacecaiman_1_1motion__correction.html#a089b96a369b9ee10a01d01e3df54c3bb" target="_top" xlink:title="compute median of 3D array in along axis o by binning values Parameters ">
<polygon fill="white" stroke="black" points="372.5,-49 372.5,-79 519.5,-79 519.5,-49 372.5,-49"/>
<text text-anchor="start" x="380.5" y="-67" font-family="Helvetica,sans-Serif" font-size="10.00">caiman.motion_correction.bin</text>
<text text-anchor="middle" x="446" y="-56" font-family="Helvetica,sans-Serif" font-size="10.00">_median</text>
</a>
</g>
</g>
<!-- Node67&#45;&gt;Node68 -->
<g id="edge2" class="edge"><title>Node67&#45;&gt;Node68</title>
<path fill="none" stroke="midnightblue" d="M328.105,-49.2406C339.308,-50.655 350.826,-52.1093 362.061,-53.5278"/>
<polygon fill="midnightblue" stroke="midnightblue" points="361.922,-57.038 372.281,-54.8183 362.799,-50.0931 361.922,-57.038"/>
</g>
<!-- Node69 -->
<g id="node4" class="node"><title>Node69</title>
<g id="a_node4"><a xlink:href="namespacecaiman_1_1motion__correction.html#acc77134c68d447075e79102eca9649e1" target="_top" xlink:title="caiman.motion_correction.motion\l_correct_iteration">
<polygon fill="white" stroke="black" points="364,-0 364,-30 528,-30 528,-0 364,-0"/>
<text text-anchor="start" x="372" y="-18" font-family="Helvetica,sans-Serif" font-size="10.00">caiman.motion_correction.motion</text>
<text text-anchor="middle" x="446" y="-7" font-family="Helvetica,sans-Serif" font-size="10.00">_correct_iteration</text>
</a>
</g>
</g>
<!-- Node67&#45;&gt;Node69 -->
<g id="edge3" class="edge"><title>Node67&#45;&gt;Node69</title>
<path fill="none" stroke="midnightblue" d="M328.105,-29.169C336.549,-28.1456 345.172,-27.1003 353.719,-26.0644"/>
<polygon fill="midnightblue" stroke="midnightblue" points="354.194,-29.5325 363.7,-24.8545 353.352,-22.5833 354.194,-29.5325"/>
</g>
</g>
</svg>
