<?xml version="1.0" encoding="UTF-8" standalone="no"?>
<!DOCTYPE svg PUBLIC "-//W3C//DTD SVG 1.1//EN"
 "http://www.w3.org/Graphics/SVG/1.1/DTD/svg11.dtd">
<!-- Generated by graphviz version 2.36.0 (20140111.2315)
 -->
<!-- Title: plot_current_traces Pages: 1 -->
<svg width="366pt" height="28pt"
 viewBox="0.00 0.00 366.00 28.00" xmlns="http://www.w3.org/2000/svg" xmlns:xlink="http://www.w3.org/1999/xlink">
<g id="graph0" class="graph" transform="scale(1 1) rotate(0) translate(4 24)">
<title>plot_current_traces</title>
<polygon fill="white" stroke="none" points="-4,4 -4,-24 362,-24 362,4 -4,4"/>
<!-- Node35 -->
<g id="node1" class="node"><title>Node35</title>
<polygon fill="#bfbfbf" stroke="black" points="0,-0.5 0,-19.5 102,-19.5 102,-0.5 0,-0.5"/>
<text text-anchor="middle" x="51" y="-7.5" font-family="Helvetica,sans-Serif" font-size="10.00">plot_current_traces</text>
</g>
<!-- Node36 -->
<g id="node2" class="node"><title>Node36</title>
<g id="a_node2"><a xlink:href="classcaiman_1_1gui_1_1gui_1_1_g_u_i.html#a06508ecd0b0e41023403958b0d08f995" target="_top" xlink:title="get_current_roi">
<polygon fill="white" stroke="black" points="138,-0.5 138,-19.5 222,-19.5 222,-0.5 138,-0.5"/>
<text text-anchor="middle" x="180" y="-7.5" font-family="Helvetica,sans-Serif" font-size="10.00">get_current_roi</text>
</a>
</g>
</g>
<!-- Node35&#45;&gt;Node36 -->
<g id="edge1" class="edge"><title>Node35&#45;&gt;Node36</title>
<path fill="none" stroke="midnightblue" d="M102.194,-10C110.573,-10 119.277,-10 127.684,-10"/>
<polygon fill="midnightblue" stroke="midnightblue" points="127.75,-13.5001 137.75,-10 127.75,-6.5001 127.75,-13.5001"/>
</g>
<!-- Node37 -->
<g id="node3" class="node"><title>Node37</title>
<g id="a_node3"><a xlink:href="namespacecaiman_1_1gui_1_1gui.html#a919565f7d8a432cb5643d7b66ef2a4d1" target="_top" xlink:title="caiman.gui.gui.isin">
<polygon fill="white" stroke="black" points="258.5,-0.5 258.5,-19.5 357.5,-19.5 357.5,-0.5 258.5,-0.5"/>
<text text-anchor="middle" x="308" y="-7.5" font-family="Helvetica,sans-Serif" font-size="10.00">caiman.gui.gui.isin</text>
</a>
</g>
</g>
<!-- Node36&#45;&gt;Node37 -->
<g id="edge2" class="edge"><title>Node36&#45;&gt;Node37</title>
<path fill="none" stroke="midnightblue" d="M222.257,-10C230.511,-10 239.332,-10 248.049,-10"/>
<polygon fill="midnightblue" stroke="midnightblue" points="248.195,-13.5001 258.195,-10 248.195,-6.5001 248.195,-13.5001"/>
</g>
</g>
</svg>
