<?xml version="1.0" encoding="UTF-8" standalone="no"?>
<!DOCTYPE svg PUBLIC "-//W3C//DTD SVG 1.1//EN"
 "http://www.w3.org/Graphics/SVG/1.1/DTD/svg11.dtd">
<!-- Generated by graphviz version 2.36.0 (20140111.2315)
 -->
<!-- Title: timeseries Pages: 1 -->
<svg width="171pt" height="96pt"
 viewBox="0.00 0.00 171.00 96.00" xmlns="http://www.w3.org/2000/svg" xmlns:xlink="http://www.w3.org/1999/xlink">
<g id="graph0" class="graph" transform="scale(1 1) rotate(0) translate(4 92)">
<title>timeseries</title>
<polygon fill="white" stroke="none" points="-4,4 -4,-92 167,-92 167,4 -4,4"/>
<!-- Node2 -->
<g id="node1" class="node"><title>Node2</title>
<polygon fill="#bfbfbf" stroke="black" points="58,-0.5 58,-19.5 120,-19.5 120,-0.5 58,-0.5"/>
<text text-anchor="middle" x="89" y="-7.5" font-family="Helvetica,sans-Serif" font-size="10.00">timeseries</text>
</g>
<!-- Node3 -->
<g id="node2" class="node"><title>Node3</title>
<polygon fill="white" stroke="#bfbfbf" points="0,-68.5 0,-87.5 50,-87.5 50,-68.5 0,-68.5"/>
<text text-anchor="middle" x="25" y="-75.5" font-family="Helvetica,sans-Serif" font-size="10.00">ndarray</text>
</g>
<!-- Node3&#45;&gt;Node2 -->
<g id="edge1" class="edge"><title>Node3&#45;&gt;Node2</title>
<path fill="none" stroke="midnightblue" d="M40.4692,-61.0474C53.0135,-48.1111 70.2298,-30.3567 80.4268,-19.8411"/>
<polygon fill="midnightblue" stroke="midnightblue" points="37.8157,-58.7561 33.3669,-68.3717 42.841,-63.6291 37.8157,-58.7561"/>
</g>
<!-- Node4 -->
<g id="node3" class="node"><title>Node4</title>
<polygon fill="white" stroke="#bfbfbf" points="68.5,-68.5 68.5,-87.5 109.5,-87.5 109.5,-68.5 68.5,-68.5"/>
<text text-anchor="middle" x="89" y="-75.5" font-family="Helvetica,sans-Serif" font-size="10.00">string</text>
</g>
<!-- Node4&#45;&gt;Node2 -->
<g id="edge2" class="edge"><title>Node4&#45;&gt;Node2</title>
<path fill="none" stroke="#9a32cd" stroke-dasharray="5,2" d="M89,-58.0413C89,-45.4724 89,-29.5631 89,-19.8411"/>
<polygon fill="#9a32cd" stroke="#9a32cd" points="85.5001,-58.3716 89,-68.3717 92.5001,-58.3717 85.5001,-58.3716"/>
<text text-anchor="middle" x="107.5" y="-41.5" font-family="Helvetica,sans-Serif" font-size="10.00"> f_name</text>
</g>
<!-- Node5 -->
<g id="node4" class="node"><title>Node5</title>
<polygon fill="white" stroke="#bfbfbf" points="134.5,-68.5 134.5,-87.5 163.5,-87.5 163.5,-68.5 134.5,-68.5"/>
<text text-anchor="middle" x="149" y="-75.5" font-family="Helvetica,sans-Serif" font-size="10.00">int</text>
</g>
<!-- Node5&#45;&gt;Node2 -->
<g id="edge3" class="edge"><title>Node5&#45;&gt;Node2</title>
<path fill="none" stroke="#9a32cd" stroke-dasharray="5,2" d="M140.889,-58.8586C137.249,-51.8837 132.524,-44.1312 127,-38 120.5,-30.7848 111.744,-24.4012 104.275,-19.655"/>
<polygon fill="#9a32cd" stroke="#9a32cd" points="137.916,-60.7527 145.411,-68.2418 144.222,-57.7138 137.916,-60.7527"/>
<text text-anchor="middle" x="147.5" y="-41.5" font-family="Helvetica,sans-Serif" font-size="10.00"> data</text>
</g>
</g>
</svg>
