<?xml version="1.0" encoding="UTF-8" standalone="no"?>
<!DOCTYPE svg PUBLIC "-//W3C//DTD SVG 1.1//EN"
 "http://www.w3.org/Graphics/SVG/1.1/DTD/svg11.dtd">
<!-- Generated by graphviz version 2.36.0 (20140111.2315)
 -->
<!-- Title: get_current_roi Pages: 1 -->
<svg width="326pt" height="28pt"
 viewBox="0.00 0.00 326.00 28.00" xmlns="http://www.w3.org/2000/svg" xmlns:xlink="http://www.w3.org/1999/xlink">
<g id="graph0" class="graph" transform="scale(1 1) rotate(0) translate(4 24)">
<title>get_current_roi</title>
<polygon fill="white" stroke="none" points="-4,4 -4,-24 322,-24 322,4 -4,4"/>
<!-- Node30 -->
<g id="node1" class="node"><title>Node30</title>
<polygon fill="#bfbfbf" stroke="black" points="0,-0.5 0,-19.5 84,-19.5 84,-0.5 0,-0.5"/>
<text text-anchor="middle" x="42" y="-7.5" font-family="Helvetica,sans-Serif" font-size="10.00">get_current_roi</text>
</g>
<!-- Node31 -->
<g id="node2" class="node"><title>Node31</title>
<g id="a_node2"><a xlink:href="classcaiman_1_1gui_1_1gui_1_1_g_u_i.html#af25f6f83cd7cf2d40b222224a9230542" target="_top" xlink:title="plot_current_traces">
<polygon fill="white" stroke="black" points="120,-0.5 120,-19.5 222,-19.5 222,-0.5 120,-0.5"/>
<text text-anchor="middle" x="171" y="-7.5" font-family="Helvetica,sans-Serif" font-size="10.00">plot_current_traces</text>
</a>
</g>
</g>
<!-- Node30&#45;&gt;Node31 -->
<g id="edge1" class="edge"><title>Node30&#45;&gt;Node31</title>
<path fill="none" stroke="midnightblue" d="M94.2602,-10C102.634,-10 111.303,-10 119.655,-10"/>
<polygon fill="midnightblue" stroke="midnightblue" points="94.2333,-6.5001 84.2333,-10 94.2332,-13.5001 94.2333,-6.5001"/>
</g>
<!-- Node32 -->
<g id="node3" class="node"><title>Node32</title>
<g id="a_node3"><a xlink:href="classcaiman_1_1gui_1_1gui_1_1_g_u_i.html#a211940967eecd3ffe6da9a52fb45c242" target="_top" xlink:title="evt_zoom">
<polygon fill="white" stroke="black" points="258,-0.5 258,-19.5 318,-19.5 318,-0.5 258,-0.5"/>
<text text-anchor="middle" x="288" y="-7.5" font-family="Helvetica,sans-Serif" font-size="10.00">evt_zoom</text>
</a>
</g>
</g>
<!-- Node31&#45;&gt;Node32 -->
<g id="edge2" class="edge"><title>Node31&#45;&gt;Node32</title>
<path fill="none" stroke="midnightblue" d="M232.191,-10C241.132,-10 249.986,-10 257.885,-10"/>
<polygon fill="midnightblue" stroke="midnightblue" points="232.106,-6.5001 222.106,-10 232.106,-13.5001 232.106,-6.5001"/>
</g>
</g>
</svg>
