<?xml version="1.0" encoding="UTF-8" standalone="no"?>
<!DOCTYPE svg PUBLIC "-//W3C//DTD SVG 1.1//EN"
 "http://www.w3.org/Graphics/SVG/1.1/DTD/svg11.dtd">
<!-- Generated by graphviz version 2.36.0 (20140111.2315)
 -->
<!-- Title: apply_shifts_online Pages: 1 -->
<svg width="498pt" height="38pt"
 viewBox="0.00 0.00 498.00 38.00" xmlns="http://www.w3.org/2000/svg" xmlns:xlink="http://www.w3.org/1999/xlink">
<g id="graph0" class="graph" transform="scale(1 1) rotate(0) translate(4 34)">
<title>apply_shifts_online</title>
<polygon fill="white" stroke="none" points="-4,4 -4,-34 494,-34 494,4 -4,4"/>
<!-- Node7 -->
<g id="node1" class="node"><title>Node7</title>
<polygon fill="#bfbfbf" stroke="black" points="0,-5.5 0,-24.5 102,-24.5 102,-5.5 0,-5.5"/>
<text text-anchor="middle" x="51" y="-12.5" font-family="Helvetica,sans-Serif" font-size="10.00">apply_shifts_online</text>
</g>
<!-- Node8 -->
<g id="node2" class="node"><title>Node8</title>
<g id="a_node2"><a xlink:href="namespacecaiman_1_1motion__correction.html#af84483b6805cfea4c866952cd5fc801c" target="_top" xlink:title="caiman.motion_correction.apply\l_shift_online">
<polygon fill="white" stroke="black" points="138,-0 138,-30 296,-30 296,-0 138,-0"/>
<text text-anchor="start" x="146" y="-18" font-family="Helvetica,sans-Serif" font-size="10.00">caiman.motion_correction.apply</text>
<text text-anchor="middle" x="217" y="-7" font-family="Helvetica,sans-Serif" font-size="10.00">_shift_online</text>
</a>
</g>
</g>
<!-- Node7&#45;&gt;Node8 -->
<g id="edge1" class="edge"><title>Node7&#45;&gt;Node8</title>
<path fill="none" stroke="midnightblue" d="M102.097,-15C110.221,-15 118.841,-15 127.558,-15"/>
<polygon fill="midnightblue" stroke="midnightblue" points="127.813,-18.5001 137.812,-15 127.812,-11.5001 127.813,-18.5001"/>
</g>
<!-- Node9 -->
<g id="node3" class="node"><title>Node9</title>
<g id="a_node3"><a xlink:href="namespacecaiman_1_1motion__correction.html#a54e0e94e8c54dadcad8bc6688e46c590" target="_top" xlink:title="caiman.motion_correction.apply\l_shift_iteration">
<polygon fill="white" stroke="black" points="332,-0 332,-30 490,-30 490,-0 332,-0"/>
<text text-anchor="start" x="340" y="-18" font-family="Helvetica,sans-Serif" font-size="10.00">caiman.motion_correction.apply</text>
<text text-anchor="middle" x="411" y="-7" font-family="Helvetica,sans-Serif" font-size="10.00">_shift_iteration</text>
</a>
</g>
</g>
<!-- Node8&#45;&gt;Node9 -->
<g id="edge2" class="edge"><title>Node8&#45;&gt;Node9</title>
<path fill="none" stroke="midnightblue" d="M296.094,-15C304.601,-15 313.302,-15 321.918,-15"/>
<polygon fill="midnightblue" stroke="midnightblue" points="321.975,-18.5001 331.975,-15 321.975,-11.5001 321.975,-18.5001"/>
</g>
</g>
</svg>
