<?xml version="1.0" encoding="UTF-8" standalone="no"?>
<!DOCTYPE svg PUBLIC "-//W3C//DTD SVG 1.1//EN"
 "http://www.w3.org/Graphics/SVG/1.1/DTD/svg11.dtd">
<!-- Generated by graphviz version 2.36.0 (20140111.2315)
 -->
<!-- Title: calc_min Pages: 1 -->
<svg width="368pt" height="85pt"
 viewBox="0.00 0.00 368.00 85.00" xmlns="http://www.w3.org/2000/svg" xmlns:xlink="http://www.w3.org/1999/xlink">
<g id="graph0" class="graph" transform="scale(1 1) rotate(0) translate(4 81)">
<title>calc_min</title>
<polygon fill="white" stroke="none" points="-4,4 -4,-81 364,-81 364,4 -4,4"/>
<!-- Node15 -->
<g id="node1" class="node"><title>Node15</title>
<polygon fill="#bfbfbf" stroke="black" points="0,-19.5 0,-38.5 56,-38.5 56,-19.5 0,-19.5"/>
<text text-anchor="middle" x="28" y="-26.5" font-family="Helvetica,sans-Serif" font-size="10.00">calc_min</text>
</g>
<!-- Node16 -->
<g id="node2" class="node"><title>Node16</title>
<g id="a_node2"><a xlink:href="classcaiman_1_1base_1_1movies_1_1movie.html#a6b814991c1e80b06b507789d0c6bee52" target="_top" xlink:title="motion_correct">
<polygon fill="white" stroke="black" points="92.5,-19.5 92.5,-38.5 175.5,-38.5 175.5,-19.5 92.5,-19.5"/>
<text text-anchor="middle" x="134" y="-26.5" font-family="Helvetica,sans-Serif" font-size="10.00">motion_correct</text>
</a>
</g>
</g>
<!-- Node15&#45;&gt;Node16 -->
<g id="edge1" class="edge"><title>Node15&#45;&gt;Node16</title>
<path fill="none" stroke="midnightblue" d="M56.0533,-29C64.0993,-29 73.1895,-29 82.2302,-29"/>
<polygon fill="midnightblue" stroke="midnightblue" points="82.3581,-32.5001 92.358,-29 82.358,-25.5001 82.3581,-32.5001"/>
</g>
<!-- Node17 -->
<g id="node3" class="node"><title>Node17</title>
<g id="a_node3"><a xlink:href="classcaiman_1_1base_1_1movies_1_1movie.html#a187e0ed2f4ef1c7f0a7715a5bc80585e" target="_top" xlink:title="Performs motion corretion using the opencv matchtemplate function. ">
<polygon fill="white" stroke="black" points="212.5,-57.5 212.5,-76.5 287.5,-76.5 287.5,-57.5 212.5,-57.5"/>
<text text-anchor="middle" x="250" y="-64.5" font-family="Helvetica,sans-Serif" font-size="10.00">extract_shifts</text>
</a>
</g>
</g>
<!-- Node16&#45;&gt;Node17 -->
<g id="edge2" class="edge"><title>Node16&#45;&gt;Node17</title>
<path fill="none" stroke="midnightblue" d="M163.767,-38.589C177.943,-43.3144 195.237,-49.0789 210.532,-54.1774"/>
<polygon fill="midnightblue" stroke="midnightblue" points="209.649,-57.5721 220.242,-57.4141 211.862,-50.9313 209.649,-57.5721"/>
</g>
<!-- Node18 -->
<g id="node4" class="node"><title>Node18</title>
<g id="a_node4"><a xlink:href="classcaiman_1_1base_1_1movies_1_1movie.html#aa607b03e52751c0449b36e7b5a738d3d" target="_top" xlink:title="Apply precomputed shifts to a movie, using subpixels adjustment (cv2.INTER_CUBIC function) ...">
<polygon fill="white" stroke="black" points="215.5,-19.5 215.5,-38.5 284.5,-38.5 284.5,-19.5 215.5,-19.5"/>
<text text-anchor="middle" x="250" y="-26.5" font-family="Helvetica,sans-Serif" font-size="10.00">apply_shifts</text>
</a>
</g>
</g>
<!-- Node16&#45;&gt;Node18 -->
<g id="edge3" class="edge"><title>Node16&#45;&gt;Node18</title>
<path fill="none" stroke="midnightblue" d="M175.513,-29C185.101,-29 195.369,-29 205.1,-29"/>
<polygon fill="midnightblue" stroke="midnightblue" points="205.389,-32.5001 215.389,-29 205.389,-25.5001 205.389,-32.5001"/>
</g>
<!-- Node19 -->
<g id="node5" class="node"><title>Node19</title>
<g id="a_node5"><a xlink:href="classcaiman_1_1base_1_1movies_1_1movie.html#a72c8c961677a019b2c4e955e73d39158" target="_top" xlink:title="Crop movie. ">
<polygon fill="white" stroke="black" points="324,-0.5 324,-19.5 360,-19.5 360,-0.5 324,-0.5"/>
<text text-anchor="middle" x="342" y="-7.5" font-family="Helvetica,sans-Serif" font-size="10.00">crop</text>
</a>
</g>
</g>
<!-- Node16&#45;&gt;Node19 -->
<g id="edge5" class="edge"><title>Node16&#45;&gt;Node19</title>
<path fill="none" stroke="midnightblue" d="M166.15,-19.4944C180.04,-15.7301 196.691,-11.8608 212,-10 246.821,-5.76736 287.321,-6.71392 313.517,-8.08659"/>
<polygon fill="midnightblue" stroke="midnightblue" points="313.623,-11.5986 323.81,-8.68712 314.031,-4.61052 313.623,-11.5986"/>
</g>
<!-- Node18&#45;&gt;Node19 -->
<g id="edge4" class="edge"><title>Node18&#45;&gt;Node19</title>
<path fill="none" stroke="midnightblue" d="M284.513,-21.9251C294.244,-19.8707 304.744,-17.6541 314.02,-15.6958"/>
<polygon fill="midnightblue" stroke="midnightblue" points="314.805,-19.1073 323.866,-13.6171 313.359,-12.2582 314.805,-19.1073"/>
</g>
</g>
</svg>
