<?xml version="1.0" encoding="UTF-8" standalone="no"?>
<!DOCTYPE svg PUBLIC "-//W3C//DTD SVG 1.1//EN"
 "http://www.w3.org/Graphics/SVG/1.1/DTD/svg11.dtd">
<!-- Generated by graphviz version 2.36.0 (20140111.2315)
 -->
<!-- Title: motion_correct Pages: 1 -->
<svg width="276pt" height="85pt"
 viewBox="0.00 0.00 276.00 85.00" xmlns="http://www.w3.org/2000/svg" xmlns:xlink="http://www.w3.org/1999/xlink">
<g id="graph0" class="graph" transform="scale(1 1) rotate(0) translate(4 81)">
<title>motion_correct</title>
<polygon fill="white" stroke="none" points="-4,4 -4,-81 272,-81 272,4 -4,4"/>
<!-- Node60 -->
<g id="node1" class="node"><title>Node60</title>
<polygon fill="#bfbfbf" stroke="black" points="0.5,-19.5 0.5,-38.5 83.5,-38.5 83.5,-19.5 0.5,-19.5"/>
<text text-anchor="middle" x="42" y="-26.5" font-family="Helvetica,sans-Serif" font-size="10.00">motion_correct</text>
</g>
<!-- Node61 -->
<g id="node2" class="node"><title>Node61</title>
<g id="a_node2"><a xlink:href="classcaiman_1_1base_1_1movies_1_1movie.html#a187e0ed2f4ef1c7f0a7715a5bc80585e" target="_top" xlink:title="Performs motion corretion using the opencv matchtemplate function. ">
<polygon fill="white" stroke="black" points="120.5,-57.5 120.5,-76.5 195.5,-76.5 195.5,-57.5 120.5,-57.5"/>
<text text-anchor="middle" x="158" y="-64.5" font-family="Helvetica,sans-Serif" font-size="10.00">extract_shifts</text>
</a>
</g>
</g>
<!-- Node60&#45;&gt;Node61 -->
<g id="edge1" class="edge"><title>Node60&#45;&gt;Node61</title>
<path fill="none" stroke="midnightblue" d="M71.767,-38.589C85.9433,-43.3144 103.237,-49.0789 118.532,-54.1774"/>
<polygon fill="midnightblue" stroke="midnightblue" points="117.649,-57.5721 128.242,-57.4141 119.862,-50.9313 117.649,-57.5721"/>
</g>
<!-- Node62 -->
<g id="node3" class="node"><title>Node62</title>
<g id="a_node3"><a xlink:href="classcaiman_1_1base_1_1movies_1_1movie.html#aa607b03e52751c0449b36e7b5a738d3d" target="_top" xlink:title="Apply precomputed shifts to a movie, using subpixels adjustment (cv2.INTER_CUBIC function) ...">
<polygon fill="white" stroke="black" points="123.5,-19.5 123.5,-38.5 192.5,-38.5 192.5,-19.5 123.5,-19.5"/>
<text text-anchor="middle" x="158" y="-26.5" font-family="Helvetica,sans-Serif" font-size="10.00">apply_shifts</text>
</a>
</g>
</g>
<!-- Node60&#45;&gt;Node62 -->
<g id="edge2" class="edge"><title>Node60&#45;&gt;Node62</title>
<path fill="none" stroke="midnightblue" d="M83.5131,-29C93.1008,-29 103.369,-29 113.1,-29"/>
<polygon fill="midnightblue" stroke="midnightblue" points="113.389,-32.5001 123.389,-29 113.389,-25.5001 113.389,-32.5001"/>
</g>
<!-- Node63 -->
<g id="node4" class="node"><title>Node63</title>
<g id="a_node4"><a xlink:href="classcaiman_1_1base_1_1movies_1_1movie.html#a72c8c961677a019b2c4e955e73d39158" target="_top" xlink:title="Crop movie. ">
<polygon fill="white" stroke="black" points="232,-0.5 232,-19.5 268,-19.5 268,-0.5 232,-0.5"/>
<text text-anchor="middle" x="250" y="-7.5" font-family="Helvetica,sans-Serif" font-size="10.00">crop</text>
</a>
</g>
</g>
<!-- Node60&#45;&gt;Node63 -->
<g id="edge4" class="edge"><title>Node60&#45;&gt;Node63</title>
<path fill="none" stroke="midnightblue" d="M74.1499,-19.4944C88.0395,-15.7301 104.691,-11.8608 120,-10 154.821,-5.76736 195.321,-6.71392 221.517,-8.08659"/>
<polygon fill="midnightblue" stroke="midnightblue" points="221.623,-11.5986 231.81,-8.68712 222.031,-4.61052 221.623,-11.5986"/>
</g>
<!-- Node62&#45;&gt;Node63 -->
<g id="edge3" class="edge"><title>Node62&#45;&gt;Node63</title>
<path fill="none" stroke="midnightblue" d="M192.513,-21.9251C202.244,-19.8707 212.744,-17.6541 222.02,-15.6958"/>
<polygon fill="midnightblue" stroke="midnightblue" points="222.805,-19.1073 231.866,-13.6171 221.359,-12.2582 222.805,-19.1073"/>
</g>
</g>
</svg>
