<?xml version="1.0" encoding="UTF-8" standalone="no"?>
<!DOCTYPE svg PUBLIC "-//W3C//DTD SVG 1.1//EN"
 "http://www.w3.org/Graphics/SVG/1.1/DTD/svg11.dtd">
<!-- Generated by graphviz version 2.36.0 (20140111.2315)
 -->
<!-- Title: Graph Legend Pages: 1 -->
<svg width="513pt" height="164pt"
 viewBox="0.00 0.00 513.00 164.00" xmlns="http://www.w3.org/2000/svg" xmlns:xlink="http://www.w3.org/1999/xlink">
<g id="graph0" class="graph" transform="scale(1 1) rotate(0) translate(4 160)">
<title>Graph Legend</title>
<polygon fill="white" stroke="none" points="-4,4 -4,-160 509,-160 509,4 -4,4"/>
<!-- Node9 -->
<g id="node1" class="node"><title>Node9</title>
<polygon fill="#bfbfbf" stroke="black" points="294.25,-19.5 239.75,-19.5 239.75,-0.5 294.25,-0.5 294.25,-19.5"/>
<text text-anchor="middle" x="267" y="-7.5" font-family="Helvetica,sans-Serif" font-size="10.00">Inherited</text>
</g>
<!-- Node10 -->
<g id="node2" class="node"><title>Node10</title>
<g id="a_node2"><a xlink:href="$classPublicBase.html" xlink:title="PublicBase">
<polygon fill="none" stroke="black" points="66.25,-87.5 -0.25,-87.5 -0.25,-68.5 66.25,-68.5 66.25,-87.5"/>
<text text-anchor="middle" x="33" y="-75.5" font-family="Helvetica,sans-Serif" font-size="10.00">PublicBase</text>
</a>
</g>
</g>
<!-- Node10&#45;&gt;Node9 -->
<g id="edge1" class="edge"><title>Node10&#45;&gt;Node9</title>
<path fill="none" stroke="midnightblue" d="M73.2553,-65.6459C120.809,-52.2334 198.627,-30.2847 239.674,-18.7073"/>
<polygon fill="midnightblue" stroke="midnightblue" points="72.2658,-62.2884 63.5914,-68.3717 74.166,-69.0256 72.2658,-62.2884"/>
</g>
<!-- Node11 -->
<g id="node3" class="node"><title>Node11</title>
<g id="a_node3"><a xlink:href="$classTruncated.html" xlink:title="Truncated">
<polygon fill="none" stroke="red" points="64,-155.5 2,-155.5 2,-136.5 64,-136.5 64,-155.5"/>
<text text-anchor="middle" x="33" y="-143.5" font-family="Helvetica,sans-Serif" font-size="10.00">Truncated</text>
</a>
</g>
</g>
<!-- Node11&#45;&gt;Node10 -->
<g id="edge2" class="edge"><title>Node11&#45;&gt;Node10</title>
<path fill="none" stroke="midnightblue" d="M33,-126.041C33,-113.472 33,-97.5631 33,-87.8411"/>
<polygon fill="midnightblue" stroke="midnightblue" points="29.5001,-126.372 33,-136.372 36.5001,-126.372 29.5001,-126.372"/>
</g>
<!-- Node13 -->
<g id="node4" class="node"><title>Node13</title>
<g id="a_node4"><a xlink:href="$classProtectedBase.html" xlink:title="ProtectedBase">
<polygon fill="none" stroke="black" points="167,-87.5 85,-87.5 85,-68.5 167,-68.5 167,-87.5"/>
<text text-anchor="middle" x="126" y="-75.5" font-family="Helvetica,sans-Serif" font-size="10.00">ProtectedBase</text>
</a>
</g>
</g>
<!-- Node13&#45;&gt;Node9 -->
<g id="edge3" class="edge"><title>Node13&#45;&gt;Node9</title>
<path fill="none" stroke="darkgreen" d="M153.699,-64.0346C181.763,-50.898 224.387,-30.9463 248.562,-19.6305"/>
<polygon fill="darkgreen" stroke="darkgreen" points="152.006,-60.9623 144.433,-68.3717 154.974,-67.3021 152.006,-60.9623"/>
</g>
<!-- Node14 -->
<g id="node5" class="node"><title>Node14</title>
<g id="a_node5"><a xlink:href="$classPrivateBase.html" xlink:title="PrivateBase">
<polygon fill="none" stroke="black" points="255,-87.5 185,-87.5 185,-68.5 255,-68.5 255,-87.5"/>
<text text-anchor="middle" x="220" y="-75.5" font-family="Helvetica,sans-Serif" font-size="10.00">PrivateBase</text>
</a>
</g>
</g>
<!-- Node14&#45;&gt;Node9 -->
<g id="edge4" class="edge"><title>Node14&#45;&gt;Node9</title>
<path fill="none" stroke="#8b1a1a" d="M232.15,-59.9377C241.284,-47.112 253.428,-30.0591 260.704,-19.8411"/>
<polygon fill="#8b1a1a" stroke="#8b1a1a" points="229.094,-58.1957 226.144,-68.3717 234.796,-62.2562 229.094,-58.1957"/>
</g>
<!-- Node15 -->
<g id="node6" class="node"><title>Node15</title>
<polygon fill="none" stroke="#bfbfbf" points="357,-87.5 273,-87.5 273,-68.5 357,-68.5 357,-87.5"/>
<text text-anchor="middle" x="315" y="-75.5" font-family="Helvetica,sans-Serif" font-size="10.00">Undocumented</text>
</g>
<!-- Node15&#45;&gt;Node9 -->
<g id="edge5" class="edge"><title>Node15&#45;&gt;Node9</title>
<path fill="none" stroke="midnightblue" d="M302.591,-59.9377C293.263,-47.112 280.861,-30.0591 273.43,-19.8411"/>
<polygon fill="midnightblue" stroke="midnightblue" points="300.012,-62.3429 308.725,-68.3717 305.674,-58.2257 300.012,-62.3429"/>
</g>
<!-- Node16 -->
<g id="node7" class="node"><title>Node16</title>
<g id="a_node7"><a xlink:href="$classTempl.html" xlink:title="Templ&lt; int &gt;">
<polygon fill="none" stroke="black" points="447,-87.5 375,-87.5 375,-68.5 447,-68.5 447,-87.5"/>
<text text-anchor="middle" x="411" y="-75.5" font-family="Helvetica,sans-Serif" font-size="10.00">Templ&lt; int &gt;</text>
</a>
</g>
</g>
<!-- Node16&#45;&gt;Node9 -->
<g id="edge6" class="edge"><title>Node16&#45;&gt;Node9</title>
<path fill="none" stroke="midnightblue" d="M382.712,-64.0346C354.05,-50.898 310.519,-30.9463 285.83,-19.6305"/>
<polygon fill="midnightblue" stroke="midnightblue" points="381.626,-67.3868 392.175,-68.3717 384.542,-61.0233 381.626,-67.3868"/>
</g>
<!-- Node17 -->
<g id="node8" class="node"><title>Node17</title>
<g id="a_node8"><a xlink:href="$classTempl.html" xlink:title="Templ&lt; T &gt;">
<polygon fill="none" stroke="black" points="445,-155.5 377,-155.5 377,-136.5 445,-136.5 445,-155.5"/>
<text text-anchor="middle" x="411" y="-143.5" font-family="Helvetica,sans-Serif" font-size="10.00">Templ&lt; T &gt;</text>
</a>
</g>
</g>
<!-- Node17&#45;&gt;Node16 -->
<g id="edge7" class="edge"><title>Node17&#45;&gt;Node16</title>
<path fill="none" stroke="orange" stroke-dasharray="5,2" d="M411,-126.041C411,-113.472 411,-97.5631 411,-87.8411"/>
<polygon fill="orange" stroke="orange" points="407.5,-126.372 411,-136.372 414.5,-126.372 407.5,-126.372"/>
<text text-anchor="middle" x="425" y="-109.5" font-family="Helvetica,sans-Serif" font-size="10.00">&lt; int &gt;</text>
</g>
<!-- Node18 -->
<g id="node9" class="node"><title>Node18</title>
<g id="a_node9"><a xlink:href="$classUsed.html" xlink:title="Used">
<polygon fill="none" stroke="black" points="505,-87.5 465,-87.5 465,-68.5 505,-68.5 505,-87.5"/>
<text text-anchor="middle" x="485" y="-75.5" font-family="Helvetica,sans-Serif" font-size="10.00">Used</text>
</a>
</g>
</g>
<!-- Node18&#45;&gt;Node9 -->
<g id="edge8" class="edge"><title>Node18&#45;&gt;Node9</title>
<path fill="none" stroke="#9a32cd" stroke-dasharray="5,2" d="M455.017,-67.7152C391.967,-48.4461 329.208,-29.6071 294.25,-19.1438"/>
<polygon fill="#9a32cd" stroke="#9a32cd" points="454.138,-71.1067 464.725,-70.6851 456.186,-64.4129 454.138,-71.1067"/>
<text text-anchor="middle" x="424.5" y="-41.5" font-family="Helvetica,sans-Serif" font-size="10.00">m_usedClass</text>
</g>
</g>
</svg>
