<?xml version="1.0" encoding="UTF-8" standalone="no"?>
<!DOCTYPE svg PUBLIC "-//W3C//DTD SVG 1.1//EN"
 "http://www.w3.org/Graphics/SVG/1.1/DTD/svg11.dtd">
<!-- Generated by graphviz version 2.36.0 (20140111.2315)
 -->
<!-- Title: Graphical Class Hierarchy Pages: 1 -->
<svg width="128pt" height="46pt"
 viewBox="0.00 0.00 128.00 46.00" xmlns="http://www.w3.org/2000/svg" xmlns:xlink="http://www.w3.org/1999/xlink">
<g id="graph0" class="graph" transform="scale(1 1) rotate(0) translate(4 42)">
<title>Graphical Class Hierarchy</title>
<polygon fill="white" stroke="none" points="-4,4 -4,-42 124,-42 124,4 -4,4"/>
<!-- Node0 -->
<g id="node1" class="node"><title>Node0</title>
<g id="a_node1"><a xlink:href="classcaiman_1_1base_1_1movies_1_1movie.html" target="_top" xlink:title="movie">
<polygon fill="white" stroke="black" points="0.5,-0.5 0.5,-19.5 43.5,-19.5 43.5,-0.5 0.5,-0.5"/>
<text text-anchor="middle" x="22" y="-7.5" font-family="Helvetica,sans-Serif" font-size="10.00">movie</text>
</a>
</g>
</g>
<!-- Node0&#45;&gt;Node0 -->
<g id="edge1" class="edge"><title>Node0&#45;&gt;Node0</title>
<path fill="none" stroke="midnightblue" d="M7.63583,-29.7663C8.764,-34.4965 13.5521,-38 22,-38 35.8633,-38 39.8706,-28.5653 34.0221,-19.7571"/>
<polygon fill="midnightblue" stroke="midnightblue" points="11.1074,-30.2915 9.97794,-19.7571 4.29151,-28.6966 11.1074,-30.2915"/>
</g>
<!-- Node2 -->
<g id="node2" class="node"><title>Node2</title>
<g id="a_node2"><a xlink:href="classcaiman_1_1base_1_1traces_1_1trace.html" target="_top" xlink:title="Class representing a trace. ">
<polygon fill="white" stroke="black" points="80.5,-0.5 80.5,-19.5 119.5,-19.5 119.5,-0.5 80.5,-0.5"/>
<text text-anchor="middle" x="100" y="-7.5" font-family="Helvetica,sans-Serif" font-size="10.00">trace</text>
</a>
</g>
</g>
<!-- Node0&#45;&gt;Node2 -->
<g id="edge2" class="edge"><title>Node0&#45;&gt;Node2</title>
<path fill="none" stroke="midnightblue" d="M53.9095,-10C62.8692,-10 72.374,-10 80.3353,-10"/>
<polygon fill="midnightblue" stroke="midnightblue" points="53.7674,-6.5001 43.7673,-10 53.7673,-13.5001 53.7674,-6.5001"/>
</g>
</g>
</svg>
