<?xml version="1.0" encoding="UTF-8" standalone="no"?>
<!DOCTYPE svg PUBLIC "-//W3C//DTD SVG 1.1//EN"
 "http://www.w3.org/Graphics/SVG/1.1/DTD/svg11.dtd">
<!-- Generated by graphviz version 2.36.0 (20140111.2315)
 -->
<!-- Title: Graphical Class Hierarchy Pages: 1 -->
<svg width="168pt" height="142pt"
 viewBox="0.00 0.00 168.00 142.00" xmlns="http://www.w3.org/2000/svg" xmlns:xlink="http://www.w3.org/1999/xlink">
<g id="graph0" class="graph" transform="scale(1 1) rotate(0) translate(4 138)">
<title>Graphical Class Hierarchy</title>
<polygon fill="white" stroke="none" points="-4,4 -4,-138 164,-138 164,4 -4,4"/>
<!-- Node7 -->
<g id="node1" class="node"><title>Node7</title>
<polygon fill="white" stroke="#bfbfbf" points="0.5,-57.5 0.5,-76.5 43.5,-76.5 43.5,-57.5 0.5,-57.5"/>
<text text-anchor="middle" x="22" y="-64.5" font-family="Helvetica,sans-Serif" font-size="10.00">object</text>
</g>
<!-- Node0 -->
<g id="node2" class="node"><title>Node0</title>
<g id="a_node2"><a xlink:href="classcaiman_1_1motion__correction_1_1_motion_correct.html" target="_top" xlink:title="class implementing motion correction operations ">
<polygon fill="white" stroke="black" points="80.5,-114.5 80.5,-133.5 159.5,-133.5 159.5,-114.5 80.5,-114.5"/>
<text text-anchor="middle" x="120" y="-121.5" font-family="Helvetica,sans-Serif" font-size="10.00">MotionCorrect</text>
</a>
</g>
</g>
<!-- Node7&#45;&gt;Node0 -->
<g id="edge1" class="edge"><title>Node7&#45;&gt;Node0</title>
<path fill="none" stroke="midnightblue" d="M44.7539,-82.5034C55.2031,-89.689 68.0303,-98.136 80,-105 85.7495,-108.297 92.1547,-111.573 98.0853,-114.452"/>
<polygon fill="midnightblue" stroke="midnightblue" points="46.4697,-79.433 36.2648,-76.5852 42.4664,-85.1753 46.4697,-79.433"/>
</g>
<!-- Node9 -->
<g id="node3" class="node"><title>Node9</title>
<g id="a_node3"><a xlink:href="classcaiman_1_1source__extraction_1_1cnmf_1_1cnmf_1_1_c_n_m_f.html" target="_top" xlink:title="Source extraction using constrained non&#45;negative matrix factorization. ">
<polygon fill="white" stroke="black" points="97.5,-76.5 97.5,-95.5 142.5,-95.5 142.5,-76.5 97.5,-76.5"/>
<text text-anchor="middle" x="120" y="-83.5" font-family="Helvetica,sans-Serif" font-size="10.00">CNMF</text>
</a>
</g>
</g>
<!-- Node7&#45;&gt;Node9 -->
<g id="edge2" class="edge"><title>Node7&#45;&gt;Node9</title>
<path fill="none" stroke="midnightblue" d="M53.6543,-73.067C67.8284,-75.8723 84.3341,-79.139 97.2105,-81.6875"/>
<polygon fill="midnightblue" stroke="midnightblue" points="54.3198,-69.6309 43.8306,-71.1227 52.9607,-76.4977 54.3198,-69.6309"/>
</g>
<!-- Node10 -->
<g id="node4" class="node"><title>Node10</title>
<g id="a_node4"><a xlink:href="classcaiman_1_1source__extraction_1_1cnmf_1_1cnmf__optional__outputs_1_1_c_n_m_f.html" target="_top" xlink:title="Source extraction using constrained non&#45;negative matrix factorization. ">
<polygon fill="white" stroke="black" points="97.5,-38.5 97.5,-57.5 142.5,-57.5 142.5,-38.5 97.5,-38.5"/>
<text text-anchor="middle" x="120" y="-45.5" font-family="Helvetica,sans-Serif" font-size="10.00">CNMF</text>
</a>
</g>
</g>
<!-- Node7&#45;&gt;Node10 -->
<g id="edge3" class="edge"><title>Node7&#45;&gt;Node10</title>
<path fill="none" stroke="midnightblue" d="M53.6543,-60.933C67.8284,-58.1277 84.3341,-54.861 97.2105,-52.3125"/>
<polygon fill="midnightblue" stroke="midnightblue" points="52.9607,-57.5023 43.8306,-62.8773 54.3198,-64.3691 52.9607,-57.5023"/>
</g>
<!-- Node11 -->
<g id="node5" class="node"><title>Node11</title>
<g id="a_node5"><a xlink:href="classcaiman_1_1tests_1_1comparison_1_1comparison_1_1_comparison.html" target="_top" xlink:title="Comparison It is used for comparison the modification on the CaImAn program. ">
<polygon fill="white" stroke="black" points="85,-0.5 85,-19.5 155,-19.5 155,-0.5 85,-0.5"/>
<text text-anchor="middle" x="120" y="-7.5" font-family="Helvetica,sans-Serif" font-size="10.00">Comparison</text>
</a>
</g>
</g>
<!-- Node7&#45;&gt;Node11 -->
<g id="edge4" class="edge"><title>Node7&#45;&gt;Node11</title>
<path fill="none" stroke="midnightblue" d="M44.7539,-51.4966C55.2031,-44.311 68.0303,-35.864 80,-29 85.7495,-25.7029 92.1547,-22.4275 98.0853,-19.5484"/>
<polygon fill="midnightblue" stroke="midnightblue" points="42.4664,-48.8247 36.2648,-57.4148 46.4697,-54.567 42.4664,-48.8247"/>
</g>
</g>
</svg>
