<?xml version="1.0" encoding="UTF-8" standalone="no"?>
<!DOCTYPE svg PUBLIC "-//W3C//DTD SVG 1.1//EN"
 "http://www.w3.org/Graphics/SVG/1.1/DTD/svg11.dtd">
<!-- Generated by graphviz version 2.36.0 (20140111.2315)
 -->
<!-- Title: apply_shift_iteration Pages: 1 -->
<svg width="448pt" height="126pt"
 viewBox="0.00 0.00 448.00 126.00" xmlns="http://www.w3.org/2000/svg" xmlns:xlink="http://www.w3.org/1999/xlink">
<g id="graph0" class="graph" transform="scale(1 1) rotate(0) translate(4 122)">
<title>apply_shift_iteration</title>
<polygon fill="white" stroke="none" points="-4,4 -4,-122 444,-122 444,4 -4,4"/>
<!-- Node21 -->
<g id="node1" class="node"><title>Node21</title>
<polygon fill="#bfbfbf" stroke="black" points="0.5,-65.5 0.5,-84.5 105.5,-84.5 105.5,-65.5 0.5,-65.5"/>
<text text-anchor="middle" x="53" y="-72.5" font-family="Helvetica,sans-Serif" font-size="10.00">apply_shift_iteration</text>
</g>
<!-- Node22 -->
<g id="node2" class="node"><title>Node22</title>
<g id="a_node2"><a xlink:href="namespacecaiman_1_1motion__correction.html#af84483b6805cfea4c866952cd5fc801c" target="_top" xlink:title="apply_shift_online">
<polygon fill="white" stroke="black" points="142.5,-87.5 142.5,-106.5 239.5,-106.5 239.5,-87.5 142.5,-87.5"/>
<text text-anchor="middle" x="191" y="-94.5" font-family="Helvetica,sans-Serif" font-size="10.00">apply_shift_online</text>
</a>
</g>
</g>
<!-- Node21&#45;&gt;Node22 -->
<g id="edge1" class="edge"><title>Node21&#45;&gt;Node22</title>
<path fill="none" stroke="midnightblue" d="M115.784,-84.9944C124.706,-86.4378 133.773,-87.9044 142.362,-89.2939"/>
<polygon fill="midnightblue" stroke="midnightblue" points="116.234,-81.5219 105.804,-83.38 115.116,-88.4321 116.234,-81.5219"/>
</g>
<!-- Node24 -->
<g id="node4" class="node"><title>Node24</title>
<g id="a_node4"><a xlink:href="namespacecaiman_1_1motion__correction.html#aea060208c09f0e4fb01e6d31b9acf36f" target="_top" xlink:title="perform piecewise rigid motion correction iteration, by 1) dividing the FOV in patches 2) motion corr...">
<polygon fill="white" stroke="black" points="147,-44.5 147,-63.5 235,-63.5 235,-44.5 147,-44.5"/>
<text text-anchor="middle" x="191" y="-51.5" font-family="Helvetica,sans-Serif" font-size="10.00">tile_and_correct</text>
</a>
</g>
</g>
<!-- Node21&#45;&gt;Node24 -->
<g id="edge3" class="edge"><title>Node21&#45;&gt;Node24</title>
<path fill="none" stroke="midnightblue" d="M115.748,-65.4655C126.217,-63.8489 136.886,-62.2015 146.75,-60.6783"/>
<polygon fill="midnightblue" stroke="midnightblue" points="115.152,-62.0158 105.804,-67.0009 116.221,-68.9338 115.152,-62.0158"/>
</g>
<!-- Node23 -->
<g id="node3" class="node"><title>Node23</title>
<g id="a_node3"><a xlink:href="classcaiman_1_1base_1_1movies_1_1movie.html#a05335edb94d8c896c53e006756680dc9" target="_top" xlink:title="caiman.base.movies.movie.apply\l_shifts_online">
<polygon fill="white" stroke="black" points="276,-88 276,-118 440,-118 440,-88 276,-88"/>
<text text-anchor="start" x="284" y="-106" font-family="Helvetica,sans-Serif" font-size="10.00">caiman.base.movies.movie.apply</text>
<text text-anchor="middle" x="358" y="-95" font-family="Helvetica,sans-Serif" font-size="10.00">_shifts_online</text>
</a>
</g>
</g>
<!-- Node22&#45;&gt;Node23 -->
<g id="edge2" class="edge"><title>Node22&#45;&gt;Node23</title>
<path fill="none" stroke="midnightblue" d="M249.788,-99.1014C258.214,-99.4078 267.019,-99.728 275.805,-100.047"/>
<polygon fill="midnightblue" stroke="midnightblue" points="249.845,-95.6013 239.725,-98.7354 249.591,-102.597 249.845,-95.6013"/>
</g>
<!-- Node25 -->
<g id="node5" class="node"><title>Node25</title>
<g id="a_node5"><a xlink:href="namespacecaiman_1_1motion__correction.html#a88ef513cfa324fc8548e4fb46d7a67e5" target="_top" xlink:title="create a matrix that is used to normalize the intersection of the stiched patches ...">
<polygon fill="white" stroke="black" points="302,-39 302,-69 414,-69 414,-39 302,-39"/>
<text text-anchor="start" x="310" y="-57" font-family="Helvetica,sans-Serif" font-size="10.00">create_weight_matrix</text>
<text text-anchor="middle" x="358" y="-46" font-family="Helvetica,sans-Serif" font-size="10.00">_for_blending</text>
</a>
</g>
</g>
<!-- Node24&#45;&gt;Node25 -->
<g id="edge4" class="edge"><title>Node24&#45;&gt;Node25</title>
<path fill="none" stroke="midnightblue" d="M245.413,-47.6376C263.455,-47.1372 283.625,-47.1213 301.803,-47.5899"/>
<polygon fill="midnightblue" stroke="midnightblue" points="245.228,-44.1418 235.352,-47.9767 245.464,-51.1378 245.228,-44.1418"/>
</g>
<!-- Node26 -->
<g id="node6" class="node"><title>Node26</title>
<g id="a_node6"><a xlink:href="namespacecaiman_1_1motion__correction.html#a9c4d6e518f42c395cb58a08d2ff21f45" target="_top" xlink:title="tile_and_correct_wrapper">
<polygon fill="white" stroke="black" points="293.5,-0.5 293.5,-19.5 422.5,-19.5 422.5,-0.5 293.5,-0.5"/>
<text text-anchor="middle" x="358" y="-7.5" font-family="Helvetica,sans-Serif" font-size="10.00">tile_and_correct_wrapper</text>
</a>
</g>
</g>
<!-- Node24&#45;&gt;Node26 -->
<g id="edge6" class="edge"><title>Node24&#45;&gt;Node26</title>
<path fill="none" stroke="midnightblue" d="M232.296,-41.483C246.105,-37.3337 261.682,-32.8063 276,-29 288.284,-25.7343 301.694,-22.4686 314.005,-19.5889"/>
<polygon fill="midnightblue" stroke="midnightblue" points="231.153,-38.1722 222.598,-44.4219 233.183,-44.8714 231.153,-38.1722"/>
</g>
<!-- Node25&#45;&gt;Node24 -->
<g id="edge5" class="edge"><title>Node25&#45;&gt;Node24</title>
<path fill="none" stroke="midnightblue" d="M291.739,-60.6173C272.799,-60.9128 252.591,-60.7148 235.352,-60.0233"/>
<polygon fill="midnightblue" stroke="midnightblue" points="291.877,-64.1153 301.803,-60.4101 291.733,-57.1168 291.877,-64.1153"/>
</g>
</g>
</svg>
