<?xml version="1.0" encoding="UTF-8" standalone="no"?>
<!DOCTYPE svg PUBLIC "-//W3C//DTD SVG 1.1//EN"
 "http://www.w3.org/Graphics/SVG/1.1/DTD/svg11.dtd">
<!-- Generated by graphviz version 2.36.0 (20140111.2315)
 -->
<!-- Title: ICA_PCA Pages: 1 -->
<svg width="230pt" height="77pt"
 viewBox="0.00 0.00 230.00 77.00" xmlns="http://www.w3.org/2000/svg" xmlns:xlink="http://www.w3.org/1999/xlink">
<g id="graph0" class="graph" transform="scale(1 1) rotate(0) translate(4 73)">
<title>ICA_PCA</title>
<polygon fill="white" stroke="none" points="-4,4 -4,-73 226,-73 226,4 -4,4"/>
<!-- Node14 -->
<g id="node1" class="node"><title>Node14</title>
<polygon fill="#bfbfbf" stroke="black" points="0.5,-22.5 0.5,-41.5 59.5,-41.5 59.5,-22.5 0.5,-22.5"/>
<text text-anchor="middle" x="30" y="-29.5" font-family="Helvetica,sans-Serif" font-size="10.00">ICA_PCA</text>
</g>
<!-- Node15 -->
<g id="node2" class="node"><title>Node15</title>
<g id="a_node2"><a xlink:href="namespacecaiman_1_1base_1_1rois.html#af61f5029359cfa66389c5234b9a9ad99" target="_top" xlink:title="caiman.base.rois.extract\lROIsFromPCAICA">
<polygon fill="white" stroke="black" points="96.5,-39 96.5,-69 221.5,-69 221.5,-39 96.5,-39"/>
<text text-anchor="start" x="104.5" y="-57" font-family="Helvetica,sans-Serif" font-size="10.00">caiman.base.rois.extract</text>
<text text-anchor="middle" x="159" y="-46" font-family="Helvetica,sans-Serif" font-size="10.00">ROIsFromPCAICA</text>
</a>
</g>
</g>
<!-- Node14&#45;&gt;Node15 -->
<g id="edge1" class="edge"><title>Node14&#45;&gt;Node15</title>
<path fill="none" stroke="midnightblue" d="M59.5013,-36.9372C67.643,-38.3476 76.901,-39.9514 86.4049,-41.5977"/>
<polygon fill="midnightblue" stroke="midnightblue" points="85.9109,-45.0642 96.3616,-43.3225 87.1057,-38.1669 85.9109,-45.0642"/>
</g>
<!-- Node16 -->
<g id="node3" class="node"><title>Node16</title>
<g id="a_node3"><a xlink:href="namespacecaiman_1_1base_1_1rois.html#ae37bc9f1a4e815bd7d8e44a2334883a2" target="_top" xlink:title="Calculation of the center of mass for spatial components. ">
<polygon fill="white" stroke="black" points="102,-0.5 102,-19.5 216,-19.5 216,-0.5 102,-0.5"/>
<text text-anchor="middle" x="159" y="-7.5" font-family="Helvetica,sans-Serif" font-size="10.00">caiman.base.rois.com</text>
</a>
</g>
</g>
<!-- Node14&#45;&gt;Node16 -->
<g id="edge2" class="edge"><title>Node14&#45;&gt;Node16</title>
<path fill="none" stroke="midnightblue" d="M59.5013,-27.0628C69.557,-25.3208 81.3156,-23.2839 93.1372,-21.2361"/>
<polygon fill="midnightblue" stroke="midnightblue" points="93.7903,-24.6752 103.046,-19.5196 92.5954,-17.7779 93.7903,-24.6752"/>
</g>
</g>
</svg>
