<?xml version="1.0" encoding="UTF-8" standalone="no"?>
<!DOCTYPE svg PUBLIC "-//W3C//DTD SVG 1.1//EN"
 "http://www.w3.org/Graphics/SVG/1.1/DTD/svg11.dtd">
<!-- Generated by graphviz version 2.36.0 (20140111.2315)
 -->
<!-- Title: creatememmap Pages: 1 -->
<svg width="534pt" height="38pt"
 viewBox="0.00 0.00 534.00 38.00" xmlns="http://www.w3.org/2000/svg" xmlns:xlink="http://www.w3.org/1999/xlink">
<g id="graph0" class="graph" transform="scale(1 1) rotate(0) translate(4 34)">
<title>creatememmap</title>
<polygon fill="white" stroke="none" points="-4,4 -4,-34 530,-34 530,4 -4,4"/>
<!-- Node14 -->
<g id="node1" class="node"><title>Node14</title>
<polygon fill="#bfbfbf" stroke="black" points="0,-5.5 0,-24.5 86,-24.5 86,-5.5 0,-5.5"/>
<text text-anchor="middle" x="43" y="-12.5" font-family="Helvetica,sans-Serif" font-size="10.00">creatememmap</text>
</g>
<!-- Node15 -->
<g id="node2" class="node"><title>Node15</title>
<g id="a_node2"><a xlink:href="namespacecaiman_1_1source__extraction_1_1cnmf_1_1spatial.html#ac4b406f52054893ed2518a761921d4f4" target="_top" xlink:title="update spatial footprints and background through Basis Pursuit Denoising ">
<polygon fill="white" stroke="black" points="122,-5.5 122,-24.5 264,-24.5 264,-5.5 122,-5.5"/>
<text text-anchor="middle" x="193" y="-12.5" font-family="Helvetica,sans-Serif" font-size="10.00">update_spatial_components</text>
</a>
</g>
</g>
<!-- Node14&#45;&gt;Node15 -->
<g id="edge1" class="edge"><title>Node14&#45;&gt;Node15</title>
<path fill="none" stroke="midnightblue" d="M96.2701,-15C104.563,-15 113.255,-15 121.877,-15"/>
<polygon fill="midnightblue" stroke="midnightblue" points="96.015,-11.5001 86.015,-15 96.0149,-18.5001 96.015,-11.5001"/>
</g>
<!-- Node16 -->
<g id="node3" class="node"><title>Node16</title>
<g id="a_node3"><a xlink:href="namespacecaiman_1_1source__extraction_1_1cnmf_1_1merging.html#ad08adf2e086a22ef379b10ed3ee36936" target="_top" xlink:title="Merging of spatially overlapping components that have highly correlated temporal activity The correla...">
<polygon fill="white" stroke="black" points="300.5,-0 300.5,-30 525.5,-30 525.5,-0 300.5,-0"/>
<text text-anchor="start" x="308.5" y="-18" font-family="Helvetica,sans-Serif" font-size="10.00">caiman.source_extraction.cnmf.merging.merge</text>
<text text-anchor="middle" x="413" y="-7" font-family="Helvetica,sans-Serif" font-size="10.00">_components</text>
</a>
</g>
</g>
<!-- Node15&#45;&gt;Node16 -->
<g id="edge2" class="edge"><title>Node15&#45;&gt;Node16</title>
<path fill="none" stroke="midnightblue" d="M274.368,-15C282.837,-15 291.553,-15 300.293,-15"/>
<polygon fill="midnightblue" stroke="midnightblue" points="274.177,-11.5001 264.177,-15 274.177,-18.5001 274.177,-11.5001"/>
</g>
</g>
</svg>
