<?xml version="1.0" encoding="UTF-8" standalone="no"?>
<!DOCTYPE svg PUBLIC "-//W3C//DTD SVG 1.1//EN"
 "http://www.w3.org/Graphics/SVG/1.1/DTD/svg11.dtd">
<!-- Generated by graphviz version 2.36.0 (20140111.2315)
 -->
<!-- Title: plot_components Pages: 1 -->
<svg width="332pt" height="28pt"
 viewBox="0.00 0.00 332.00 28.00" xmlns="http://www.w3.org/2000/svg" xmlns:xlink="http://www.w3.org/1999/xlink">
<g id="graph0" class="graph" transform="scale(1 1) rotate(0) translate(4 24)">
<title>plot_components</title>
<polygon fill="white" stroke="none" points="-4,4 -4,-24 328,-24 328,4 -4,4"/>
<!-- Node38 -->
<g id="node1" class="node"><title>Node38</title>
<polygon fill="#bfbfbf" stroke="black" points="0.5,-0.5 0.5,-19.5 93.5,-19.5 93.5,-0.5 0.5,-0.5"/>
<text text-anchor="middle" x="47" y="-7.5" font-family="Helvetica,sans-Serif" font-size="10.00">plot_components</text>
</g>
<!-- Node39 -->
<g id="node2" class="node"><title>Node39</title>
<g id="a_node2"><a xlink:href="namespacecaiman_1_1behavior_1_1behavior.html#a513c5d7fc1e56d74ff55d4f74ee836a3" target="_top" xlink:title="main">
<polygon fill="white" stroke="black" points="130,-0.5 130,-19.5 168,-19.5 168,-0.5 130,-0.5"/>
<text text-anchor="middle" x="149" y="-7.5" font-family="Helvetica,sans-Serif" font-size="10.00">main</text>
</a>
</g>
</g>
<!-- Node38&#45;&gt;Node39 -->
<g id="edge1" class="edge"><title>Node38&#45;&gt;Node39</title>
<path fill="none" stroke="midnightblue" d="M103.809,-10C113.166,-10 122.248,-10 129.72,-10"/>
<polygon fill="midnightblue" stroke="midnightblue" points="103.611,-6.5001 93.6105,-10 103.61,-13.5001 103.611,-6.5001"/>
</g>
<!-- Node40 -->
<g id="node3" class="node"><title>Node40</title>
<g id="a_node3"><a xlink:href="namespacecaiman_1_1behavior_1_1behavior.html#ac7ebff37cde3a2bef4c8613654b60395" target="_top" xlink:title="Normalize the components using the std of the components obtaining using biunary masks. ">
<polygon fill="white" stroke="black" points="204,-0.5 204,-19.5 324,-19.5 324,-0.5 204,-0.5"/>
<text text-anchor="middle" x="264" y="-7.5" font-family="Helvetica,sans-Serif" font-size="10.00">normalize_components</text>
</a>
</g>
</g>
<!-- Node39&#45;&gt;Node40 -->
<g id="edge2" class="edge"><title>Node39&#45;&gt;Node40</title>
<path fill="none" stroke="midnightblue" d="M178.176,-4.0688C186.035,-3.57263 194.879,-3.30196 203.814,-3.25679"/>
<polygon fill="midnightblue" stroke="midnightblue" points="177.838,-0.58465 168.155,-4.88518 178.407,-7.56154 177.838,-0.58465"/>
</g>
<!-- Node40&#45;&gt;Node39 -->
<g id="edge3" class="edge"><title>Node40&#45;&gt;Node39</title>
<path fill="none" stroke="midnightblue" d="M193.55,-16.5899C184.223,-16.3555 175.394,-15.8638 168.155,-15.1148"/>
<polygon fill="midnightblue" stroke="midnightblue" points="193.762,-20.0933 203.814,-16.7432 193.867,-13.0941 193.762,-20.0933"/>
</g>
</g>
</svg>
