<?xml version="1.0" encoding="UTF-8" standalone="no"?>
<!DOCTYPE svg PUBLIC "-//W3C//DTD SVG 1.1//EN"
 "http://www.w3.org/Graphics/SVG/1.1/DTD/svg11.dtd">
<!-- Generated by graphviz version 2.36.0 (20140111.2315)
 -->
<!-- Title: get_contours Pages: 1 -->
<svg width="224pt" height="66pt"
 viewBox="0.00 0.00 224.00 66.00" xmlns="http://www.w3.org/2000/svg" xmlns:xlink="http://www.w3.org/1999/xlink">
<g id="graph0" class="graph" transform="scale(1 1) rotate(0) translate(4 62)">
<title>get_contours</title>
<polygon fill="white" stroke="none" points="-4,4 -4,-62 220,-62 220,4 -4,4"/>
<!-- Node9 -->
<g id="node1" class="node"><title>Node9</title>
<polygon fill="#bfbfbf" stroke="black" points="0,-0.5 0,-19.5 74,-19.5 74,-0.5 0,-0.5"/>
<text text-anchor="middle" x="37" y="-7.5" font-family="Helvetica,sans-Serif" font-size="10.00">get_contours</text>
</g>
<!-- Node10 -->
<g id="node2" class="node"><title>Node10</title>
<g id="a_node2"><a xlink:href="namespacecaiman_1_1utils_1_1visualization.html#a6954f6ef72e703af3959f02b7b4bb6d8" target="_top" xlink:title="Interactive plotting utility for ipython notbook. ">
<polygon fill="white" stroke="black" points="116,-38.5 116,-57.5 210,-57.5 210,-38.5 116,-38.5"/>
<text text-anchor="middle" x="163" y="-45.5" font-family="Helvetica,sans-Serif" font-size="10.00">nb_view_patches</text>
</a>
</g>
</g>
<!-- Node9&#45;&gt;Node10 -->
<g id="edge1" class="edge"><title>Node9&#45;&gt;Node10</title>
<path fill="none" stroke="midnightblue" d="M78.9047,-22.5353C95.7734,-27.7048 115.008,-33.5991 130.72,-38.4141"/>
<polygon fill="midnightblue" stroke="midnightblue" points="79.8771,-19.1727 69.2904,-19.589 77.826,-25.8655 79.8771,-19.1727"/>
</g>
<!-- Node11 -->
<g id="node3" class="node"><title>Node11</title>
<g id="a_node3"><a xlink:href="namespacecaiman_1_1utils_1_1visualization.html#a73c99e5e42d83a663f260f473a80e17c" target="_top" xlink:title="Interactive plotting utility for ipython notbook. ">
<polygon fill="white" stroke="black" points="110.5,-0.5 110.5,-19.5 215.5,-19.5 215.5,-0.5 110.5,-0.5"/>
<text text-anchor="middle" x="163" y="-7.5" font-family="Helvetica,sans-Serif" font-size="10.00">nb_view_patches3d</text>
</a>
</g>
</g>
<!-- Node9&#45;&gt;Node11 -->
<g id="edge2" class="edge"><title>Node9&#45;&gt;Node11</title>
<path fill="none" stroke="midnightblue" d="M84.2957,-3.44626C92.782,-3.22991 101.689,-3.19243 110.321,-3.33382"/>
<polygon fill="midnightblue" stroke="midnightblue" points="84.071,0.0481219 74.1993,-3.79887 84.3154,-6.94761 84.071,0.0481219"/>
</g>
<!-- Node11&#45;&gt;Node9 -->
<g id="edge3" class="edge"><title>Node11&#45;&gt;Node9</title>
<path fill="none" stroke="midnightblue" d="M100.278,-16.7499C91.3457,-16.7538 82.4055,-16.5709 74.1993,-16.2011"/>
<polygon fill="midnightblue" stroke="midnightblue" points="100.35,-20.2496 110.321,-16.6662 100.292,-13.2498 100.35,-20.2496"/>
</g>
</g>
</svg>
