<?xml version="1.0" encoding="UTF-8" standalone="no"?>
<!DOCTYPE svg PUBLIC "-//W3C//DTD SVG 1.1//EN"
 "http://www.w3.org/Graphics/SVG/1.1/DTD/svg11.dtd">
<!-- Generated by graphviz version 2.36.0 (20140111.2315)
 -->
<!-- Title: val_parse Pages: 1 -->
<svg width="326pt" height="28pt"
 viewBox="0.00 0.00 326.00 28.00" xmlns="http://www.w3.org/2000/svg" xmlns:xlink="http://www.w3.org/1999/xlink">
<g id="graph0" class="graph" transform="scale(1 1) rotate(0) translate(4 24)">
<title>val_parse</title>
<polygon fill="white" stroke="none" points="-4,4 -4,-24 322,-24 322,4 -4,4"/>
<!-- Node13 -->
<g id="node1" class="node"><title>Node13</title>
<polygon fill="#bfbfbf" stroke="black" points="0,-0.5 0,-19.5 60,-19.5 60,-0.5 0,-0.5"/>
<text text-anchor="middle" x="30" y="-7.5" font-family="Helvetica,sans-Serif" font-size="10.00">val_parse</text>
</g>
<!-- Node14 -->
<g id="node2" class="node"><title>Node14</title>
<g id="a_node2"><a xlink:href="namespacecaiman_1_1utils_1_1utils.html#acb92eaecdc1f6d8e00bc14c21dceef9a" target="_top" xlink:title="parse image_description field embedded by scanimage from get iamge description ">
<polygon fill="white" stroke="black" points="96,-0.5 96,-19.5 150,-19.5 150,-0.5 96,-0.5"/>
<text text-anchor="middle" x="123" y="-7.5" font-family="Helvetica,sans-Serif" font-size="10.00">si_parse</text>
</a>
</g>
</g>
<!-- Node13&#45;&gt;Node14 -->
<g id="edge1" class="edge"><title>Node13&#45;&gt;Node14</title>
<path fill="none" stroke="midnightblue" d="M70.2847,-10C78.8724,-10 87.7612,-10 95.6962,-10"/>
<polygon fill="midnightblue" stroke="midnightblue" points="70.0432,-6.5001 60.0432,-10 70.0431,-13.5001 70.0432,-6.5001"/>
</g>
<!-- Node15 -->
<g id="node3" class="node"><title>Node15</title>
<g id="a_node3"><a xlink:href="namespacecaiman_1_1utils_1_1utils.html#a58634e5943a08214b6dd54cd6a10110f" target="_top" xlink:title="Given a tif file acquired with Scanimage it returns a dictionary containing the information in the im...">
<polygon fill="white" stroke="black" points="186,-0.5 186,-19.5 318,-19.5 318,-0.5 186,-0.5"/>
<text text-anchor="middle" x="252" y="-7.5" font-family="Helvetica,sans-Serif" font-size="10.00">get_image_description_SI</text>
</a>
</g>
</g>
<!-- Node14&#45;&gt;Node15 -->
<g id="edge2" class="edge"><title>Node14&#45;&gt;Node15</title>
<path fill="none" stroke="midnightblue" d="M160.163,-10C168.253,-10 177.076,-10 185.938,-10"/>
<polygon fill="midnightblue" stroke="midnightblue" points="160.007,-6.5001 150.007,-10 160.007,-13.5001 160.007,-6.5001"/>
</g>
</g>
</svg>
