<?xml version="1.0" encoding="UTF-8" standalone="no"?>
<!DOCTYPE svg PUBLIC "-//W3C//DTD SVG 1.1//EN"
 "http://www.w3.org/Graphics/SVG/1.1/DTD/svg11.dtd">
<!-- Generated by graphviz version 2.36.0 (20140111.2315)
 -->
<!-- Title: nextpow2 Pages: 1 -->
<svg width="1244pt" height="131pt"
 viewBox="0.00 0.00 1244.00 131.00" xmlns="http://www.w3.org/2000/svg" xmlns:xlink="http://www.w3.org/1999/xlink">
<g id="graph0" class="graph" transform="scale(1 1) rotate(0) translate(4 127)">
<title>nextpow2</title>
<polygon fill="white" stroke="none" points="-4,4 -4,-127 1240,-127 1240,4 -4,4"/>
<!-- Node106 -->
<g id="node1" class="node"><title>Node106</title>
<polygon fill="#bfbfbf" stroke="black" points="0.5,-30.5 0.5,-49.5 59.5,-49.5 59.5,-30.5 0.5,-30.5"/>
<text text-anchor="middle" x="30" y="-37.5" font-family="Helvetica,sans-Serif" font-size="10.00">nextpow2</text>
</g>
<!-- Node107 -->
<g id="node2" class="node"><title>Node107</title>
<g id="a_node2"><a xlink:href="namespacecaiman_1_1source__extraction_1_1cnmf_1_1deconvolution.html#a458da977dee6e97910a1b006e899b309" target="_top" xlink:title="axcov">
<polygon fill="white" stroke="black" points="96.5,-30.5 96.5,-49.5 139.5,-49.5 139.5,-30.5 96.5,-30.5"/>
<text text-anchor="middle" x="118" y="-37.5" font-family="Helvetica,sans-Serif" font-size="10.00">axcov</text>
</a>
</g>
</g>
<!-- Node106&#45;&gt;Node107 -->
<g id="edge1" class="edge"><title>Node106&#45;&gt;Node107</title>
<path fill="none" stroke="midnightblue" d="M69.7865,-40C78.953,-40 88.3774,-40 96.3718,-40"/>
<polygon fill="midnightblue" stroke="midnightblue" points="69.6368,-36.5001 59.6368,-40 69.6367,-43.5001 69.6368,-36.5001"/>
</g>
<!-- Node108 -->
<g id="node3" class="node"><title>Node108</title>
<g id="a_node3"><a xlink:href="namespacecaiman_1_1source__extraction_1_1cnmf_1_1deconvolution.html#a7a73db2b3e0e88f4a5f30f80944c1319" target="_top" xlink:title="estimate_time_constant">
<polygon fill="white" stroke="black" points="176,-30.5 176,-49.5 298,-49.5 298,-30.5 176,-30.5"/>
<text text-anchor="middle" x="237" y="-37.5" font-family="Helvetica,sans-Serif" font-size="10.00">estimate_time_constant</text>
</a>
</g>
</g>
<!-- Node107&#45;&gt;Node108 -->
<g id="edge2" class="edge"><title>Node107&#45;&gt;Node108</title>
<path fill="none" stroke="midnightblue" d="M149.683,-40C157.779,-40 166.801,-40 175.875,-40"/>
<polygon fill="midnightblue" stroke="midnightblue" points="149.648,-36.5001 139.648,-40 149.648,-43.5001 149.648,-36.5001"/>
</g>
<!-- Node109 -->
<g id="node4" class="node"><title>Node109</title>
<g id="a_node4"><a xlink:href="namespacecaiman_1_1source__extraction_1_1cnmf_1_1deconvolution.html#a5753e123f06d6f8a5f53e8f1cc50baba" target="_top" xlink:title="Infer the most likely discretized spike train underlying an AR(2) fluorescence trace. ">
<polygon fill="white" stroke="black" points="480.5,-11.5 480.5,-30.5 597.5,-30.5 597.5,-11.5 480.5,-11.5"/>
<text text-anchor="middle" x="539" y="-18.5" font-family="Helvetica,sans-Serif" font-size="10.00">constrained_oasisAR2</text>
</a>
</g>
</g>
<!-- Node108&#45;&gt;Node109 -->
<g id="edge3" class="edge"><title>Node108&#45;&gt;Node109</title>
<path fill="none" stroke="midnightblue" d="M308.559,-35.5313C360.878,-32.2177 431.321,-27.7563 480.294,-24.6547"/>
<polygon fill="midnightblue" stroke="midnightblue" points="308.107,-32.0528 298.349,-36.1779 308.55,-39.0388 308.107,-32.0528"/>
</g>
<!-- Node116 -->
<g id="node11" class="node"><title>Node116</title>
<g id="a_node11"><a xlink:href="namespacecaiman_1_1source__extraction_1_1cnmf_1_1deconvolution.html#a7199190b4f33e4a70dedc9deea7e4c45" target="_top" xlink:title="estimate_parameters">
<polygon fill="white" stroke="black" points="334,-49.5 334,-68.5 444,-68.5 444,-49.5 334,-49.5"/>
<text text-anchor="middle" x="389" y="-56.5" font-family="Helvetica,sans-Serif" font-size="10.00">estimate_parameters</text>
</a>
</g>
</g>
<!-- Node108&#45;&gt;Node116 -->
<g id="edge11" class="edge"><title>Node108&#45;&gt;Node116</title>
<path fill="none" stroke="midnightblue" d="M308.142,-48.8847C316.714,-49.9704 325.37,-51.0669 333.661,-52.1171"/>
<polygon fill="midnightblue" stroke="midnightblue" points="308.507,-45.403 298.146,-47.6185 307.627,-52.3475 308.507,-45.403"/>
</g>
<!-- Node110 -->
<g id="node5" class="node"><title>Node110</title>
<g id="a_node5"><a xlink:href="namespacecaiman_1_1source__extraction_1_1cnmf_1_1deconvolution.html#a0afb63d84485a181bb40f2eefe7b581e" target="_top" xlink:title="Infer the most likely discretized spike train underlying a fluorescence trace. ">
<polygon fill="white" stroke="black" points="634,-49.5 634,-68.5 734,-68.5 734,-49.5 634,-49.5"/>
<text text-anchor="middle" x="684" y="-56.5" font-family="Helvetica,sans-Serif" font-size="10.00">constrained_foopsi</text>
</a>
</g>
</g>
<!-- Node109&#45;&gt;Node110 -->
<g id="edge4" class="edge"><title>Node109&#45;&gt;Node110</title>
<path fill="none" stroke="midnightblue" d="M585.813,-33.1742C605.587,-38.4287 628.384,-44.4866 646.927,-49.4141"/>
<polygon fill="midnightblue" stroke="midnightblue" points="586.648,-29.7747 576.085,-30.589 584.851,-36.5399 586.648,-29.7747"/>
</g>
<!-- Node115 -->
<g id="node10" class="node"><title>Node115</title>
<g id="a_node10"><a xlink:href="namespacecaiman_1_1source__extraction_1_1cnmf_1_1deconvolution.html#affae481e26d5e13bc6f62c6e643b63d5" target="_top" xlink:title="Infer the most likely discretized spike train underlying an AR(2) fluorescence trace. ">
<polygon fill="white" stroke="black" points="664,-11.5 664,-30.5 704,-30.5 704,-11.5 664,-11.5"/>
<text text-anchor="middle" x="684" y="-18.5" font-family="Helvetica,sans-Serif" font-size="10.00">onnls</text>
</a>
</g>
</g>
<!-- Node109&#45;&gt;Node115 -->
<g id="edge9" class="edge"><title>Node109&#45;&gt;Node115</title>
<path fill="none" stroke="midnightblue" d="M607.786,-14.2581C628.354,-14.1683 649.333,-14.8251 663.891,-16.2284"/>
<polygon fill="midnightblue" stroke="midnightblue" points="607.715,-10.7586 597.751,-14.3622 607.787,-17.7582 607.715,-10.7586"/>
</g>
<!-- Node111 -->
<g id="node6" class="node"><title>Node111</title>
<g id="a_node6"><a xlink:href="namespacecaiman_1_1source__extraction_1_1cnmf_1_1merging.html#ad08adf2e086a22ef379b10ed3ee36936" target="_top" xlink:title="Merging of spatially overlapping components that have highly correlated temporal activity The correla...">
<polygon fill="white" stroke="black" points="783.5,-93 783.5,-123 1008.5,-123 1008.5,-93 783.5,-93"/>
<text text-anchor="start" x="791.5" y="-111" font-family="Helvetica,sans-Serif" font-size="10.00">caiman.source_extraction.cnmf.merging.merge</text>
<text text-anchor="middle" x="896" y="-100" font-family="Helvetica,sans-Serif" font-size="10.00">_components</text>
</a>
</g>
</g>
<!-- Node110&#45;&gt;Node111 -->
<g id="edge5" class="edge"><title>Node110&#45;&gt;Node111</title>
<path fill="none" stroke="midnightblue" d="M726.439,-71.3978C740.236,-75.3388 755.725,-79.5626 770,-83 784.523,-86.4971 800.078,-89.8881 815.111,-92.9858"/>
<polygon fill="midnightblue" stroke="midnightblue" points="727.312,-68.0068 716.733,-68.5934 725.368,-74.7318 727.312,-68.0068"/>
</g>
<!-- Node112 -->
<g id="node7" class="node"><title>Node112</title>
<g id="a_node7"><a xlink:href="namespacecaiman_1_1source__extraction_1_1cnmf_1_1temporal.html#a2ede407f1e0d0722f51ddb6e99f48f9f" target="_top" xlink:title="necessary for parallel computation of the function constrained_foopsi ">
<polygon fill="white" stroke="black" points="770.5,-44 770.5,-74 1021.5,-74 1021.5,-44 770.5,-44"/>
<text text-anchor="start" x="778.5" y="-62" font-family="Helvetica,sans-Serif" font-size="10.00">caiman.source_extraction.cnmf.temporal.constrained</text>
<text text-anchor="middle" x="896" y="-51" font-family="Helvetica,sans-Serif" font-size="10.00">_foopsi_parallel</text>
</a>
</g>
</g>
<!-- Node110&#45;&gt;Node112 -->
<g id="edge6" class="edge"><title>Node110&#45;&gt;Node112</title>
<path fill="none" stroke="midnightblue" d="M744.461,-59C752.748,-59 761.505,-59 770.458,-59"/>
<polygon fill="midnightblue" stroke="midnightblue" points="744.236,-55.5001 734.236,-59 744.236,-62.5001 744.236,-55.5001"/>
</g>
<!-- Node113 -->
<g id="node8" class="node"><title>Node113</title>
<g id="a_node8"><a xlink:href="namespacecaiman_1_1tests_1_1test__deconvolution.html#aaebeed7ce9541fa4c56791c67009cdc6" target="_top" xlink:title="caiman.tests.test_deconvolution.foo">
<polygon fill="white" stroke="black" points="808.5,-5.5 808.5,-24.5 983.5,-24.5 983.5,-5.5 808.5,-5.5"/>
<text text-anchor="middle" x="896" y="-12.5" font-family="Helvetica,sans-Serif" font-size="10.00">caiman.tests.test_deconvolution.foo</text>
</a>
</g>
</g>
<!-- Node110&#45;&gt;Node113 -->
<g id="edge7" class="edge"><title>Node110&#45;&gt;Node113</title>
<path fill="none" stroke="midnightblue" d="M723.484,-46.4834C737.956,-42.0939 754.627,-37.4127 770,-34 786.5,-30.3371 804.383,-27.1587 821.325,-24.5048"/>
<polygon fill="midnightblue" stroke="midnightblue" points="722.38,-43.161 713.859,-49.4564 724.446,-49.8492 722.38,-43.161"/>
</g>
<!-- Node114 -->
<g id="node9" class="node"><title>Node114</title>
<g id="a_node9"><a xlink:href="namespacecaiman_1_1tests_1_1test__deconvolution.html#a90f82ae854f8179179664fe34973f11b" target="_top" xlink:title="caiman.tests.test_deconvolution.test\l_oasis">
<polygon fill="white" stroke="black" points="1058,-0 1058,-30 1236,-30 1236,-0 1058,-0"/>
<text text-anchor="start" x="1066" y="-18" font-family="Helvetica,sans-Serif" font-size="10.00">caiman.tests.test_deconvolution.test</text>
<text text-anchor="middle" x="1147" y="-7" font-family="Helvetica,sans-Serif" font-size="10.00">_oasis</text>
</a>
</g>
</g>
<!-- Node113&#45;&gt;Node114 -->
<g id="edge8" class="edge"><title>Node113&#45;&gt;Node114</title>
<path fill="none" stroke="midnightblue" d="M993.975,-15C1015.03,-15 1037.19,-15 1057.89,-15"/>
<polygon fill="midnightblue" stroke="midnightblue" points="993.739,-11.5001 983.739,-15 993.739,-18.5001 993.739,-11.5001"/>
</g>
<!-- Node115&#45;&gt;Node109 -->
<g id="edge10" class="edge"><title>Node115&#45;&gt;Node109</title>
<path fill="none" stroke="midnightblue" d="M653.516,-26.5835C637.411,-27.6023 616.898,-27.9538 597.751,-27.6378"/>
<polygon fill="midnightblue" stroke="midnightblue" points="654.194,-30.0413 663.891,-25.7716 653.648,-23.0626 654.194,-30.0413"/>
</g>
<!-- Node116&#45;&gt;Node109 -->
<g id="edge13" class="edge"><title>Node116&#45;&gt;Node109</title>
<path fill="none" stroke="midnightblue" d="M437.173,-46.8879C457.786,-41.5956 481.609,-35.4787 500.922,-30.5201"/>
<polygon fill="midnightblue" stroke="midnightblue" points="436.162,-43.534 427.347,-49.411 437.903,-50.3141 436.162,-43.534"/>
</g>
<!-- Node116&#45;&gt;Node110 -->
<g id="edge12" class="edge"><title>Node116&#45;&gt;Node110</title>
<path fill="none" stroke="midnightblue" d="M454.235,-59C508.233,-59 584.295,-59 633.623,-59"/>
<polygon fill="midnightblue" stroke="midnightblue" points="454.082,-55.5001 444.082,-59 454.082,-62.5001 454.082,-55.5001"/>
</g>
</g>
</svg>
