<?xml version="1.0" encoding="UTF-8" standalone="no"?>
<!DOCTYPE svg PUBLIC "-//W3C//DTD SVG 1.1//EN"
 "http://www.w3.org/Graphics/SVG/1.1/DTD/svg11.dtd">
<!-- Generated by graphviz version 2.36.0 (20140111.2315)
 -->
<!-- Title: create_weight_matrix_for_blending Pages: 1 -->
<svg width="530pt" height="142pt"
 viewBox="0.00 0.00 530.00 142.00" xmlns="http://www.w3.org/2000/svg" xmlns:xlink="http://www.w3.org/1999/xlink">
<g id="graph0" class="graph" transform="scale(1 1) rotate(0) translate(4 138)">
<title>create_weight_matrix_for_blending</title>
<polygon fill="white" stroke="none" points="-4,4 -4,-138 526,-138 526,4 -4,4"/>
<!-- Node47 -->
<g id="node1" class="node"><title>Node47</title>
<polygon fill="#bfbfbf" stroke="black" points="0,-71 0,-101 112,-101 112,-71 0,-71"/>
<text text-anchor="start" x="8" y="-89" font-family="Helvetica,sans-Serif" font-size="10.00">create_weight_matrix</text>
<text text-anchor="middle" x="56" y="-78" font-family="Helvetica,sans-Serif" font-size="10.00">_for_blending</text>
</g>
<!-- Node48 -->
<g id="node2" class="node"><title>Node48</title>
<g id="a_node2"><a xlink:href="namespacecaiman_1_1motion__correction.html#aef362667b31a29dfcc1a0c35c87f01ad" target="_top" xlink:title="efficiently and lazily slides a window across the image Parameters img:ndarray 2D image that needs to...">
<polygon fill="white" stroke="black" points="283,-114.5 283,-133.5 367,-133.5 367,-114.5 283,-114.5"/>
<text text-anchor="middle" x="325" y="-121.5" font-family="Helvetica,sans-Serif" font-size="10.00">sliding_window</text>
</a>
</g>
</g>
<!-- Node47&#45;&gt;Node48 -->
<g id="edge1" class="edge"><title>Node47&#45;&gt;Node48</title>
<path fill="none" stroke="midnightblue" d="M112.181,-98.4278C123.963,-100.827 136.363,-103.162 148,-105 189.858,-111.613 237.686,-116.614 272.908,-119.822"/>
<polygon fill="midnightblue" stroke="midnightblue" points="272.68,-123.315 282.952,-120.719 273.303,-116.343 272.68,-123.315"/>
</g>
<!-- Node49 -->
<g id="node3" class="node"><title>Node49</title>
<g id="a_node3"><a xlink:href="namespacecaiman_1_1motion__correction.html#aea060208c09f0e4fb01e6d31b9acf36f" target="_top" xlink:title="perform piecewise rigid motion correction iteration, by 1) dividing the FOV in patches 2) motion corr...">
<polygon fill="white" stroke="black" points="148,-76.5 148,-95.5 236,-95.5 236,-76.5 148,-76.5"/>
<text text-anchor="middle" x="192" y="-83.5" font-family="Helvetica,sans-Serif" font-size="10.00">tile_and_correct</text>
</a>
</g>
</g>
<!-- Node47&#45;&gt;Node49 -->
<g id="edge2" class="edge"><title>Node47&#45;&gt;Node49</title>
<path fill="none" stroke="midnightblue" d="M112.277,-79.3427C120.682,-79.2085 129.342,-79.22 137.704,-79.3771"/>
<polygon fill="midnightblue" stroke="midnightblue" points="137.631,-82.8763 147.72,-79.6409 137.815,-75.8787 137.631,-82.8763"/>
</g>
<!-- Node49&#45;&gt;Node47 -->
<g id="edge9" class="edge"><title>Node49&#45;&gt;Node47</title>
<path fill="none" stroke="midnightblue" d="M147.72,-92.3591C139.602,-92.6376 130.952,-92.7673 122.338,-92.7482"/>
<polygon fill="midnightblue" stroke="midnightblue" points="122.308,-89.2478 112.277,-92.6573 122.245,-96.2476 122.308,-89.2478"/>
</g>
<!-- Node49&#45;&gt;Node48 -->
<g id="edge8" class="edge"><title>Node49&#45;&gt;Node48</title>
<path fill="none" stroke="midnightblue" d="M226.057,-95.589C242.813,-100.449 263.358,-106.409 281.297,-111.613"/>
<polygon fill="midnightblue" stroke="midnightblue" points="280.375,-114.99 290.954,-114.414 282.325,-108.267 280.375,-114.99"/>
</g>
<!-- Node50 -->
<g id="node4" class="node"><title>Node50</title>
<g id="a_node4"><a xlink:href="namespacecaiman_1_1motion__correction.html#a0700d66a3a6b2556b1c712daf9c18a9b" target="_top" xlink:title="register_translation">
<polygon fill="white" stroke="black" points="274,-76.5 274,-95.5 376,-95.5 376,-76.5 274,-76.5"/>
<text text-anchor="middle" x="325" y="-83.5" font-family="Helvetica,sans-Serif" font-size="10.00">register_translation</text>
</a>
</g>
</g>
<!-- Node49&#45;&gt;Node50 -->
<g id="edge3" class="edge"><title>Node49&#45;&gt;Node50</title>
<path fill="none" stroke="midnightblue" d="M236.257,-86C245.124,-86 254.607,-86 263.942,-86"/>
<polygon fill="midnightblue" stroke="midnightblue" points="263.977,-89.5001 273.977,-86 263.977,-82.5001 263.977,-89.5001"/>
</g>
<!-- Node53 -->
<g id="node7" class="node"><title>Node53</title>
<g id="a_node7"><a xlink:href="namespacecaiman_1_1motion__correction.html#a54e0e94e8c54dadcad8bc6688e46c590" target="_top" xlink:title="apply_shift_iteration">
<polygon fill="white" stroke="black" points="272.5,-38.5 272.5,-57.5 377.5,-57.5 377.5,-38.5 272.5,-38.5"/>
<text text-anchor="middle" x="325" y="-45.5" font-family="Helvetica,sans-Serif" font-size="10.00">apply_shift_iteration</text>
</a>
</g>
</g>
<!-- Node49&#45;&gt;Node53 -->
<g id="edge6" class="edge"><title>Node49&#45;&gt;Node53</title>
<path fill="none" stroke="midnightblue" d="M226.057,-76.411C242.813,-71.5506 263.358,-65.5909 281.297,-60.3873"/>
<polygon fill="midnightblue" stroke="midnightblue" points="282.325,-63.7334 290.954,-57.5859 280.375,-57.0105 282.325,-63.7334"/>
</g>
<!-- Node54 -->
<g id="node8" class="node"><title>Node54</title>
<g id="a_node8"><a xlink:href="namespacecaiman_1_1motion__correction.html#ad4fabc7e2b2082da438e99a60ca41d96" target="_top" xlink:title="apply_shifts_dft">
<polygon fill="white" stroke="black" points="282,-0.5 282,-19.5 368,-19.5 368,-0.5 282,-0.5"/>
<text text-anchor="middle" x="325" y="-7.5" font-family="Helvetica,sans-Serif" font-size="10.00">apply_shifts_dft</text>
</a>
</g>
</g>
<!-- Node49&#45;&gt;Node54 -->
<g id="edge7" class="edge"><title>Node49&#45;&gt;Node54</title>
<path fill="none" stroke="midnightblue" d="M204.122,-76.4461C218.849,-64.1661 246.003,-42.789 272,-29 275.773,-26.9987 279.803,-25.1197 283.887,-23.3808"/>
<polygon fill="midnightblue" stroke="midnightblue" points="285.423,-26.5366 293.42,-19.5861 282.834,-20.033 285.423,-26.5366"/>
</g>
<!-- Node51 -->
<g id="node5" class="node"><title>Node51</title>
<g id="a_node5"><a xlink:href="namespacecaiman_1_1motion__correction.html#aa339d12f180017a763175f450816f158" target="_top" xlink:title="_upsampled_dft">
<polygon fill="white" stroke="black" points="424,-95.5 424,-114.5 512,-114.5 512,-95.5 424,-95.5"/>
<text text-anchor="middle" x="468" y="-102.5" font-family="Helvetica,sans-Serif" font-size="10.00">_upsampled_dft</text>
</a>
</g>
</g>
<!-- Node50&#45;&gt;Node51 -->
<g id="edge4" class="edge"><title>Node50&#45;&gt;Node51</title>
<path fill="none" stroke="midnightblue" d="M376.108,-92.7522C388.229,-94.3855 401.229,-96.1373 413.499,-97.7907"/>
<polygon fill="midnightblue" stroke="midnightblue" points="413.221,-101.285 423.599,-99.1516 414.156,-94.3474 413.221,-101.285"/>
</g>
<!-- Node52 -->
<g id="node6" class="node"><title>Node52</title>
<g id="a_node6"><a xlink:href="namespacecaiman_1_1motion__correction.html#a09859fe5f2beba321b5397662b26651b" target="_top" xlink:title="_compute_phasediff">
<polygon fill="white" stroke="black" points="414.5,-57.5 414.5,-76.5 521.5,-76.5 521.5,-57.5 414.5,-57.5"/>
<text text-anchor="middle" x="468" y="-64.5" font-family="Helvetica,sans-Serif" font-size="10.00">_compute_phasediff</text>
</a>
</g>
</g>
<!-- Node50&#45;&gt;Node52 -->
<g id="edge5" class="edge"><title>Node50&#45;&gt;Node52</title>
<path fill="none" stroke="midnightblue" d="M376.108,-79.2478C385.177,-78.0259 394.737,-76.7375 404.116,-75.4737"/>
<polygon fill="midnightblue" stroke="midnightblue" points="404.747,-78.9205 414.19,-74.1163 403.812,-71.9832 404.747,-78.9205"/>
</g>
</g>
</svg>
