<?xml version="1.0" encoding="UTF-8" standalone="no"?>
<!DOCTYPE svg PUBLIC "-//W3C//DTD SVG 1.1//EN"
 "http://www.w3.org/Graphics/SVG/1.1/DTD/svg11.dtd">
<!-- Generated by graphviz version 2.36.0 (20140111.2315)
 -->
<!-- Title: estimate_parameters Pages: 1 -->
<svg width="910pt" height="131pt"
 viewBox="0.00 0.00 910.00 131.00" xmlns="http://www.w3.org/2000/svg" xmlns:xlink="http://www.w3.org/1999/xlink">
<g id="graph0" class="graph" transform="scale(1 1) rotate(0) translate(4 127)">
<title>estimate_parameters</title>
<polygon fill="white" stroke="none" points="-4,4 -4,-127 906,-127 906,4 -4,4"/>
<!-- Node71 -->
<g id="node1" class="node"><title>Node71</title>
<polygon fill="#bfbfbf" stroke="black" points="0,-30.5 0,-49.5 110,-49.5 110,-30.5 0,-30.5"/>
<text text-anchor="middle" x="55" y="-37.5" font-family="Helvetica,sans-Serif" font-size="10.00">estimate_parameters</text>
</g>
<!-- Node72 -->
<g id="node2" class="node"><title>Node72</title>
<g id="a_node2"><a xlink:href="namespacecaiman_1_1source__extraction_1_1cnmf_1_1deconvolution.html#a0afb63d84485a181bb40f2eefe7b581e" target="_top" xlink:title="Infer the most likely discretized spike train underlying a fluorescence trace. ">
<polygon fill="white" stroke="black" points="300,-49.5 300,-68.5 400,-68.5 400,-49.5 300,-49.5"/>
<text text-anchor="middle" x="350" y="-56.5" font-family="Helvetica,sans-Serif" font-size="10.00">constrained_foopsi</text>
</a>
</g>
</g>
<!-- Node71&#45;&gt;Node72 -->
<g id="edge1" class="edge"><title>Node71&#45;&gt;Node72</title>
<path fill="none" stroke="midnightblue" d="M120.235,-44.1654C174.233,-47.667 250.295,-52.5993 299.623,-55.7981"/>
<polygon fill="midnightblue" stroke="midnightblue" points="120.288,-40.6616 110.082,-43.507 119.835,-47.6469 120.288,-40.6616"/>
</g>
<!-- Node77 -->
<g id="node7" class="node"><title>Node77</title>
<g id="a_node7"><a xlink:href="namespacecaiman_1_1source__extraction_1_1cnmf_1_1deconvolution.html#a5753e123f06d6f8a5f53e8f1cc50baba" target="_top" xlink:title="Infer the most likely discretized spike train underlying an AR(2) fluorescence trace. ">
<polygon fill="white" stroke="black" points="146.5,-11.5 146.5,-30.5 263.5,-30.5 263.5,-11.5 146.5,-11.5"/>
<text text-anchor="middle" x="205" y="-18.5" font-family="Helvetica,sans-Serif" font-size="10.00">constrained_oasisAR2</text>
</a>
</g>
</g>
<!-- Node71&#45;&gt;Node77 -->
<g id="edge6" class="edge"><title>Node71&#45;&gt;Node77</title>
<path fill="none" stroke="midnightblue" d="M120.294,-31.7461C128.928,-30.6377 137.741,-29.5062 146.253,-28.4135"/>
<polygon fill="midnightblue" stroke="midnightblue" points="119.742,-28.2881 110.269,-33.033 120.634,-35.2311 119.742,-28.2881"/>
</g>
<!-- Node73 -->
<g id="node3" class="node"><title>Node73</title>
<g id="a_node3"><a xlink:href="namespacecaiman_1_1source__extraction_1_1cnmf_1_1merging.html#ad08adf2e086a22ef379b10ed3ee36936" target="_top" xlink:title="Merging of spatially overlapping components that have highly correlated temporal activity The correla...">
<polygon fill="white" stroke="black" points="449.5,-93 449.5,-123 674.5,-123 674.5,-93 449.5,-93"/>
<text text-anchor="start" x="457.5" y="-111" font-family="Helvetica,sans-Serif" font-size="10.00">caiman.source_extraction.cnmf.merging.merge</text>
<text text-anchor="middle" x="562" y="-100" font-family="Helvetica,sans-Serif" font-size="10.00">_components</text>
</a>
</g>
</g>
<!-- Node72&#45;&gt;Node73 -->
<g id="edge2" class="edge"><title>Node72&#45;&gt;Node73</title>
<path fill="none" stroke="midnightblue" d="M392.439,-71.3978C406.236,-75.3388 421.725,-79.5626 436,-83 450.523,-86.4971 466.078,-89.8881 481.111,-92.9858"/>
<polygon fill="midnightblue" stroke="midnightblue" points="393.312,-68.0068 382.733,-68.5934 391.368,-74.7318 393.312,-68.0068"/>
</g>
<!-- Node74 -->
<g id="node4" class="node"><title>Node74</title>
<g id="a_node4"><a xlink:href="namespacecaiman_1_1source__extraction_1_1cnmf_1_1temporal.html#a2ede407f1e0d0722f51ddb6e99f48f9f" target="_top" xlink:title="necessary for parallel computation of the function constrained_foopsi ">
<polygon fill="white" stroke="black" points="436.5,-44 436.5,-74 687.5,-74 687.5,-44 436.5,-44"/>
<text text-anchor="start" x="444.5" y="-62" font-family="Helvetica,sans-Serif" font-size="10.00">caiman.source_extraction.cnmf.temporal.constrained</text>
<text text-anchor="middle" x="562" y="-51" font-family="Helvetica,sans-Serif" font-size="10.00">_foopsi_parallel</text>
</a>
</g>
</g>
<!-- Node72&#45;&gt;Node74 -->
<g id="edge3" class="edge"><title>Node72&#45;&gt;Node74</title>
<path fill="none" stroke="midnightblue" d="M410.461,-59C418.748,-59 427.505,-59 436.458,-59"/>
<polygon fill="midnightblue" stroke="midnightblue" points="410.236,-55.5001 400.236,-59 410.236,-62.5001 410.236,-55.5001"/>
</g>
<!-- Node75 -->
<g id="node5" class="node"><title>Node75</title>
<g id="a_node5"><a xlink:href="namespacecaiman_1_1tests_1_1test__deconvolution.html#aaebeed7ce9541fa4c56791c67009cdc6" target="_top" xlink:title="caiman.tests.test_deconvolution.foo">
<polygon fill="white" stroke="black" points="474.5,-5.5 474.5,-24.5 649.5,-24.5 649.5,-5.5 474.5,-5.5"/>
<text text-anchor="middle" x="562" y="-12.5" font-family="Helvetica,sans-Serif" font-size="10.00">caiman.tests.test_deconvolution.foo</text>
</a>
</g>
</g>
<!-- Node72&#45;&gt;Node75 -->
<g id="edge4" class="edge"><title>Node72&#45;&gt;Node75</title>
<path fill="none" stroke="midnightblue" d="M389.484,-46.4834C403.956,-42.0939 420.627,-37.4127 436,-34 452.5,-30.3371 470.383,-27.1587 487.325,-24.5048"/>
<polygon fill="midnightblue" stroke="midnightblue" points="388.38,-43.161 379.859,-49.4564 390.446,-49.8492 388.38,-43.161"/>
</g>
<!-- Node76 -->
<g id="node6" class="node"><title>Node76</title>
<g id="a_node6"><a xlink:href="namespacecaiman_1_1tests_1_1test__deconvolution.html#a90f82ae854f8179179664fe34973f11b" target="_top" xlink:title="caiman.tests.test_deconvolution.test\l_oasis">
<polygon fill="white" stroke="black" points="724,-0 724,-30 902,-30 902,-0 724,-0"/>
<text text-anchor="start" x="732" y="-18" font-family="Helvetica,sans-Serif" font-size="10.00">caiman.tests.test_deconvolution.test</text>
<text text-anchor="middle" x="813" y="-7" font-family="Helvetica,sans-Serif" font-size="10.00">_oasis</text>
</a>
</g>
</g>
<!-- Node75&#45;&gt;Node76 -->
<g id="edge5" class="edge"><title>Node75&#45;&gt;Node76</title>
<path fill="none" stroke="midnightblue" d="M659.975,-15C681.031,-15 703.193,-15 723.885,-15"/>
<polygon fill="midnightblue" stroke="midnightblue" points="659.739,-11.5001 649.739,-15 659.739,-18.5001 659.739,-11.5001"/>
</g>
<!-- Node77&#45;&gt;Node72 -->
<g id="edge7" class="edge"><title>Node77&#45;&gt;Node72</title>
<path fill="none" stroke="midnightblue" d="M251.813,-33.1742C271.587,-38.4287 294.384,-44.4866 312.927,-49.4141"/>
<polygon fill="midnightblue" stroke="midnightblue" points="252.648,-29.7747 242.085,-30.589 250.851,-36.5399 252.648,-29.7747"/>
</g>
<!-- Node78 -->
<g id="node8" class="node"><title>Node78</title>
<g id="a_node8"><a xlink:href="namespacecaiman_1_1source__extraction_1_1cnmf_1_1deconvolution.html#affae481e26d5e13bc6f62c6e643b63d5" target="_top" xlink:title="Infer the most likely discretized spike train underlying an AR(2) fluorescence trace. ">
<polygon fill="white" stroke="black" points="330,-11.5 330,-30.5 370,-30.5 370,-11.5 330,-11.5"/>
<text text-anchor="middle" x="350" y="-18.5" font-family="Helvetica,sans-Serif" font-size="10.00">onnls</text>
</a>
</g>
</g>
<!-- Node77&#45;&gt;Node78 -->
<g id="edge8" class="edge"><title>Node77&#45;&gt;Node78</title>
<path fill="none" stroke="midnightblue" d="M273.786,-14.2581C294.354,-14.1683 315.333,-14.8251 329.891,-16.2284"/>
<polygon fill="midnightblue" stroke="midnightblue" points="273.715,-10.7586 263.751,-14.3622 273.787,-17.7582 273.715,-10.7586"/>
</g>
<!-- Node78&#45;&gt;Node77 -->
<g id="edge9" class="edge"><title>Node78&#45;&gt;Node77</title>
<path fill="none" stroke="midnightblue" d="M319.516,-26.5835C303.411,-27.6023 282.898,-27.9538 263.751,-27.6378"/>
<polygon fill="midnightblue" stroke="midnightblue" points="320.194,-30.0413 329.891,-25.7716 319.648,-23.0626 320.194,-30.0413"/>
</g>
</g>
</svg>
