<?xml version="1.0" encoding="UTF-8" standalone="no"?>
<!DOCTYPE svg PUBLIC "-//W3C//DTD SVG 1.1//EN"
 "http://www.w3.org/Graphics/SVG/1.1/DTD/svg11.dtd">
<!-- Generated by graphviz version 2.36.0 (20140111.2315)
 -->
<!-- Title: get_image_description_SI Pages: 1 -->
<svg width="326pt" height="28pt"
 viewBox="0.00 0.00 326.00 28.00" xmlns="http://www.w3.org/2000/svg" xmlns:xlink="http://www.w3.org/1999/xlink">
<g id="graph0" class="graph" transform="scale(1 1) rotate(0) translate(4 24)">
<title>get_image_description_SI</title>
<polygon fill="white" stroke="none" points="-4,4 -4,-24 322,-24 322,4 -4,4"/>
<!-- Node4 -->
<g id="node1" class="node"><title>Node4</title>
<polygon fill="#bfbfbf" stroke="black" points="0,-0.5 0,-19.5 132,-19.5 132,-0.5 0,-0.5"/>
<text text-anchor="middle" x="66" y="-7.5" font-family="Helvetica,sans-Serif" font-size="10.00">get_image_description_SI</text>
</g>
<!-- Node5 -->
<g id="node2" class="node"><title>Node5</title>
<g id="a_node2"><a xlink:href="namespacecaiman_1_1utils_1_1utils.html#acb92eaecdc1f6d8e00bc14c21dceef9a" target="_top" xlink:title="parse image_description field embedded by scanimage from get iamge description ">
<polygon fill="white" stroke="black" points="168,-0.5 168,-19.5 222,-19.5 222,-0.5 168,-0.5"/>
<text text-anchor="middle" x="195" y="-7.5" font-family="Helvetica,sans-Serif" font-size="10.00">si_parse</text>
</a>
</g>
</g>
<!-- Node4&#45;&gt;Node5 -->
<g id="edge1" class="edge"><title>Node4&#45;&gt;Node5</title>
<path fill="none" stroke="midnightblue" d="M132.36,-10C141.15,-10 149.892,-10 157.913,-10"/>
<polygon fill="midnightblue" stroke="midnightblue" points="157.984,-13.5001 167.984,-10 157.984,-6.5001 157.984,-13.5001"/>
</g>
<!-- Node6 -->
<g id="node3" class="node"><title>Node6</title>
<g id="a_node3"><a xlink:href="namespacecaiman_1_1utils_1_1utils.html#a2da4278493c8ec9464cd1b2d00f12bf2" target="_top" xlink:title="parse values from si tags into python objects if possible from si parse ">
<polygon fill="white" stroke="black" points="258,-0.5 258,-19.5 318,-19.5 318,-0.5 258,-0.5"/>
<text text-anchor="middle" x="288" y="-7.5" font-family="Helvetica,sans-Serif" font-size="10.00">val_parse</text>
</a>
</g>
</g>
<!-- Node5&#45;&gt;Node6 -->
<g id="edge2" class="edge"><title>Node5&#45;&gt;Node6</title>
<path fill="none" stroke="midnightblue" d="M222.321,-10C230.232,-10 239.091,-10 247.653,-10"/>
<polygon fill="midnightblue" stroke="midnightblue" points="247.867,-13.5001 257.867,-10 247.867,-6.5001 247.867,-13.5001"/>
</g>
</g>
</svg>
