<?xml version="1.0" encoding="UTF-8" standalone="no"?>
<!DOCTYPE svg PUBLIC "-//W3C//DTD SVG 1.1//EN"
 "http://www.w3.org/Graphics/SVG/1.1/DTD/svg11.dtd">
<!-- Generated by graphviz version 2.36.0 (20140111.2315)
 -->
<!-- Title: GetSn Pages: 1 -->
<svg width="1150pt" height="131pt"
 viewBox="0.00 0.00 1150.00 131.00" xmlns="http://www.w3.org/2000/svg" xmlns:xlink="http://www.w3.org/1999/xlink">
<g id="graph0" class="graph" transform="scale(1 1) rotate(0) translate(4 127)">
<title>GetSn</title>
<polygon fill="white" stroke="none" points="-4,4 -4,-127 1146,-127 1146,4 -4,4"/>
<!-- Node95 -->
<g id="node1" class="node"><title>Node95</title>
<polygon fill="#bfbfbf" stroke="black" points="0.5,-30.5 0.5,-49.5 45.5,-49.5 45.5,-30.5 0.5,-30.5"/>
<text text-anchor="middle" x="23" y="-37.5" font-family="Helvetica,sans-Serif" font-size="10.00">GetSn</text>
</g>
<!-- Node96 -->
<g id="node2" class="node"><title>Node96</title>
<g id="a_node2"><a xlink:href="namespacecaiman_1_1source__extraction_1_1cnmf_1_1deconvolution.html#a7199190b4f33e4a70dedc9deea7e4c45" target="_top" xlink:title="estimate_parameters">
<polygon fill="white" stroke="black" points="240,-49.5 240,-68.5 350,-68.5 350,-49.5 240,-49.5"/>
<text text-anchor="middle" x="295" y="-56.5" font-family="Helvetica,sans-Serif" font-size="10.00">estimate_parameters</text>
</a>
</g>
</g>
<!-- Node95&#45;&gt;Node96 -->
<g id="edge1" class="edge"><title>Node95&#45;&gt;Node96</title>
<path fill="none" stroke="midnightblue" d="M55.7558,-42.2347C101.049,-45.422 184.813,-51.3164 239.972,-55.1981"/>
<polygon fill="midnightblue" stroke="midnightblue" points="55.8599,-38.7334 45.6388,-41.5227 55.3684,-45.7162 55.8599,-38.7334"/>
</g>
<!-- Node104 -->
<g id="node10" class="node"><title>Node104</title>
<g id="a_node10"><a xlink:href="namespacecaiman_1_1source__extraction_1_1cnmf_1_1deconvolution.html#a7a73db2b3e0e88f4a5f30f80944c1319" target="_top" xlink:title="estimate_time_constant">
<polygon fill="white" stroke="black" points="82,-11.5 82,-30.5 204,-30.5 204,-11.5 82,-11.5"/>
<text text-anchor="middle" x="143" y="-18.5" font-family="Helvetica,sans-Serif" font-size="10.00">estimate_time_constant</text>
</a>
</g>
</g>
<!-- Node95&#45;&gt;Node104 -->
<g id="edge11" class="edge"><title>Node95&#45;&gt;Node104</title>
<path fill="none" stroke="midnightblue" d="M55.7137,-34.8936C64.1205,-33.5399 73.4751,-32.0337 82.8353,-30.5265"/>
<polygon fill="midnightblue" stroke="midnightblue" points="54.9594,-31.4698 45.643,-36.5151 56.0723,-38.3808 54.9594,-31.4698"/>
</g>
<!-- Node97 -->
<g id="node3" class="node"><title>Node97</title>
<g id="a_node3"><a xlink:href="namespacecaiman_1_1source__extraction_1_1cnmf_1_1deconvolution.html#a0afb63d84485a181bb40f2eefe7b581e" target="_top" xlink:title="Infer the most likely discretized spike train underlying a fluorescence trace. ">
<polygon fill="white" stroke="black" points="540,-49.5 540,-68.5 640,-68.5 640,-49.5 540,-49.5"/>
<text text-anchor="middle" x="590" y="-56.5" font-family="Helvetica,sans-Serif" font-size="10.00">constrained_foopsi</text>
</a>
</g>
</g>
<!-- Node96&#45;&gt;Node97 -->
<g id="edge2" class="edge"><title>Node96&#45;&gt;Node97</title>
<path fill="none" stroke="midnightblue" d="M360.235,-59C414.233,-59 490.295,-59 539.623,-59"/>
<polygon fill="midnightblue" stroke="midnightblue" points="360.082,-55.5001 350.082,-59 360.082,-62.5001 360.082,-55.5001"/>
</g>
<!-- Node102 -->
<g id="node8" class="node"><title>Node102</title>
<g id="a_node8"><a xlink:href="namespacecaiman_1_1source__extraction_1_1cnmf_1_1deconvolution.html#a5753e123f06d6f8a5f53e8f1cc50baba" target="_top" xlink:title="Infer the most likely discretized spike train underlying an AR(2) fluorescence trace. ">
<polygon fill="white" stroke="black" points="386.5,-11.5 386.5,-30.5 503.5,-30.5 503.5,-11.5 386.5,-11.5"/>
<text text-anchor="middle" x="445" y="-18.5" font-family="Helvetica,sans-Serif" font-size="10.00">constrained_oasisAR2</text>
</a>
</g>
</g>
<!-- Node96&#45;&gt;Node102 -->
<g id="edge7" class="edge"><title>Node96&#45;&gt;Node102</title>
<path fill="none" stroke="midnightblue" d="M343.173,-46.8879C363.786,-41.5956 387.609,-35.4787 406.922,-30.5201"/>
<polygon fill="midnightblue" stroke="midnightblue" points="342.162,-43.534 333.347,-49.411 343.903,-50.3141 342.162,-43.534"/>
</g>
<!-- Node98 -->
<g id="node4" class="node"><title>Node98</title>
<g id="a_node4"><a xlink:href="namespacecaiman_1_1source__extraction_1_1cnmf_1_1merging.html#ad08adf2e086a22ef379b10ed3ee36936" target="_top" xlink:title="Merging of spatially overlapping components that have highly correlated temporal activity The correla...">
<polygon fill="white" stroke="black" points="689.5,-93 689.5,-123 914.5,-123 914.5,-93 689.5,-93"/>
<text text-anchor="start" x="697.5" y="-111" font-family="Helvetica,sans-Serif" font-size="10.00">caiman.source_extraction.cnmf.merging.merge</text>
<text text-anchor="middle" x="802" y="-100" font-family="Helvetica,sans-Serif" font-size="10.00">_components</text>
</a>
</g>
</g>
<!-- Node97&#45;&gt;Node98 -->
<g id="edge3" class="edge"><title>Node97&#45;&gt;Node98</title>
<path fill="none" stroke="midnightblue" d="M632.439,-71.3978C646.236,-75.3388 661.725,-79.5626 676,-83 690.523,-86.4971 706.078,-89.8881 721.111,-92.9858"/>
<polygon fill="midnightblue" stroke="midnightblue" points="633.312,-68.0068 622.733,-68.5934 631.368,-74.7318 633.312,-68.0068"/>
</g>
<!-- Node99 -->
<g id="node5" class="node"><title>Node99</title>
<g id="a_node5"><a xlink:href="namespacecaiman_1_1source__extraction_1_1cnmf_1_1temporal.html#a2ede407f1e0d0722f51ddb6e99f48f9f" target="_top" xlink:title="necessary for parallel computation of the function constrained_foopsi ">
<polygon fill="white" stroke="black" points="676.5,-44 676.5,-74 927.5,-74 927.5,-44 676.5,-44"/>
<text text-anchor="start" x="684.5" y="-62" font-family="Helvetica,sans-Serif" font-size="10.00">caiman.source_extraction.cnmf.temporal.constrained</text>
<text text-anchor="middle" x="802" y="-51" font-family="Helvetica,sans-Serif" font-size="10.00">_foopsi_parallel</text>
</a>
</g>
</g>
<!-- Node97&#45;&gt;Node99 -->
<g id="edge4" class="edge"><title>Node97&#45;&gt;Node99</title>
<path fill="none" stroke="midnightblue" d="M650.461,-59C658.748,-59 667.505,-59 676.458,-59"/>
<polygon fill="midnightblue" stroke="midnightblue" points="650.236,-55.5001 640.236,-59 650.236,-62.5001 650.236,-55.5001"/>
</g>
<!-- Node100 -->
<g id="node6" class="node"><title>Node100</title>
<g id="a_node6"><a xlink:href="namespacecaiman_1_1tests_1_1test__deconvolution.html#aaebeed7ce9541fa4c56791c67009cdc6" target="_top" xlink:title="caiman.tests.test_deconvolution.foo">
<polygon fill="white" stroke="black" points="714.5,-5.5 714.5,-24.5 889.5,-24.5 889.5,-5.5 714.5,-5.5"/>
<text text-anchor="middle" x="802" y="-12.5" font-family="Helvetica,sans-Serif" font-size="10.00">caiman.tests.test_deconvolution.foo</text>
</a>
</g>
</g>
<!-- Node97&#45;&gt;Node100 -->
<g id="edge5" class="edge"><title>Node97&#45;&gt;Node100</title>
<path fill="none" stroke="midnightblue" d="M629.484,-46.4834C643.956,-42.0939 660.627,-37.4127 676,-34 692.5,-30.3371 710.383,-27.1587 727.325,-24.5048"/>
<polygon fill="midnightblue" stroke="midnightblue" points="628.38,-43.161 619.859,-49.4564 630.446,-49.8492 628.38,-43.161"/>
</g>
<!-- Node101 -->
<g id="node7" class="node"><title>Node101</title>
<g id="a_node7"><a xlink:href="namespacecaiman_1_1tests_1_1test__deconvolution.html#a90f82ae854f8179179664fe34973f11b" target="_top" xlink:title="caiman.tests.test_deconvolution.test\l_oasis">
<polygon fill="white" stroke="black" points="964,-0 964,-30 1142,-30 1142,-0 964,-0"/>
<text text-anchor="start" x="972" y="-18" font-family="Helvetica,sans-Serif" font-size="10.00">caiman.tests.test_deconvolution.test</text>
<text text-anchor="middle" x="1053" y="-7" font-family="Helvetica,sans-Serif" font-size="10.00">_oasis</text>
</a>
</g>
</g>
<!-- Node100&#45;&gt;Node101 -->
<g id="edge6" class="edge"><title>Node100&#45;&gt;Node101</title>
<path fill="none" stroke="midnightblue" d="M899.975,-15C921.031,-15 943.193,-15 963.885,-15"/>
<polygon fill="midnightblue" stroke="midnightblue" points="899.739,-11.5001 889.739,-15 899.739,-18.5001 899.739,-11.5001"/>
</g>
<!-- Node102&#45;&gt;Node97 -->
<g id="edge8" class="edge"><title>Node102&#45;&gt;Node97</title>
<path fill="none" stroke="midnightblue" d="M491.813,-33.1742C511.587,-38.4287 534.384,-44.4866 552.927,-49.4141"/>
<polygon fill="midnightblue" stroke="midnightblue" points="492.648,-29.7747 482.085,-30.589 490.851,-36.5399 492.648,-29.7747"/>
</g>
<!-- Node103 -->
<g id="node9" class="node"><title>Node103</title>
<g id="a_node9"><a xlink:href="namespacecaiman_1_1source__extraction_1_1cnmf_1_1deconvolution.html#affae481e26d5e13bc6f62c6e643b63d5" target="_top" xlink:title="Infer the most likely discretized spike train underlying an AR(2) fluorescence trace. ">
<polygon fill="white" stroke="black" points="570,-11.5 570,-30.5 610,-30.5 610,-11.5 570,-11.5"/>
<text text-anchor="middle" x="590" y="-18.5" font-family="Helvetica,sans-Serif" font-size="10.00">onnls</text>
</a>
</g>
</g>
<!-- Node102&#45;&gt;Node103 -->
<g id="edge9" class="edge"><title>Node102&#45;&gt;Node103</title>
<path fill="none" stroke="midnightblue" d="M513.786,-14.2581C534.354,-14.1683 555.333,-14.8251 569.891,-16.2284"/>
<polygon fill="midnightblue" stroke="midnightblue" points="513.715,-10.7586 503.751,-14.3622 513.787,-17.7582 513.715,-10.7586"/>
</g>
<!-- Node103&#45;&gt;Node102 -->
<g id="edge10" class="edge"><title>Node103&#45;&gt;Node102</title>
<path fill="none" stroke="midnightblue" d="M559.516,-26.5835C543.411,-27.6023 522.898,-27.9538 503.751,-27.6378"/>
<polygon fill="midnightblue" stroke="midnightblue" points="560.194,-30.0413 569.891,-25.7716 559.648,-23.0626 560.194,-30.0413"/>
</g>
<!-- Node104&#45;&gt;Node96 -->
<g id="edge13" class="edge"><title>Node104&#45;&gt;Node96</title>
<path fill="none" stroke="midnightblue" d="M191.811,-33.1121C212.702,-38.4044 236.847,-44.5213 256.421,-49.4799"/>
<polygon fill="midnightblue" stroke="midnightblue" points="192.405,-29.652 181.851,-30.589 190.686,-36.4377 192.405,-29.652"/>
</g>
<!-- Node104&#45;&gt;Node102 -->
<g id="edge12" class="edge"><title>Node104&#45;&gt;Node102</title>
<path fill="none" stroke="midnightblue" d="M214.559,-21C266.878,-21 337.321,-21 386.294,-21"/>
<polygon fill="midnightblue" stroke="midnightblue" points="214.349,-17.5001 204.349,-21 214.349,-24.5001 214.349,-17.5001"/>
</g>
</g>
</svg>
