<?xml version="1.0" encoding="UTF-8" standalone="no"?>
<!DOCTYPE svg PUBLIC "-//W3C//DTD SVG 1.1//EN"
 "http://www.w3.org/Graphics/SVG/1.1/DTD/svg11.dtd">
<!-- Generated by graphviz version 2.36.0 (20140111.2315)
 -->
<!-- Title: estimate_time_constant Pages: 1 -->
<svg width="1068pt" height="131pt"
 viewBox="0.00 0.00 1068.00 131.00" xmlns="http://www.w3.org/2000/svg" xmlns:xlink="http://www.w3.org/1999/xlink">
<g id="graph0" class="graph" transform="scale(1 1) rotate(0) translate(4 127)">
<title>estimate_time_constant</title>
<polygon fill="white" stroke="none" points="-4,4 -4,-127 1064,-127 1064,4 -4,4"/>
<!-- Node83 -->
<g id="node1" class="node"><title>Node83</title>
<polygon fill="#bfbfbf" stroke="black" points="0,-30.5 0,-49.5 122,-49.5 122,-30.5 0,-30.5"/>
<text text-anchor="middle" x="61" y="-37.5" font-family="Helvetica,sans-Serif" font-size="10.00">estimate_time_constant</text>
</g>
<!-- Node84 -->
<g id="node2" class="node"><title>Node84</title>
<g id="a_node2"><a xlink:href="namespacecaiman_1_1source__extraction_1_1cnmf_1_1deconvolution.html#a5753e123f06d6f8a5f53e8f1cc50baba" target="_top" xlink:title="Infer the most likely discretized spike train underlying an AR(2) fluorescence trace. ">
<polygon fill="white" stroke="black" points="304.5,-11.5 304.5,-30.5 421.5,-30.5 421.5,-11.5 304.5,-11.5"/>
<text text-anchor="middle" x="363" y="-18.5" font-family="Helvetica,sans-Serif" font-size="10.00">constrained_oasisAR2</text>
</a>
</g>
</g>
<!-- Node83&#45;&gt;Node84 -->
<g id="edge1" class="edge"><title>Node83&#45;&gt;Node84</title>
<path fill="none" stroke="midnightblue" d="M132.559,-35.5313C184.878,-32.2177 255.321,-27.7563 304.294,-24.6547"/>
<polygon fill="midnightblue" stroke="midnightblue" points="132.107,-32.0528 122.349,-36.1779 132.55,-39.0388 132.107,-32.0528"/>
</g>
<!-- Node91 -->
<g id="node9" class="node"><title>Node91</title>
<g id="a_node9"><a xlink:href="namespacecaiman_1_1source__extraction_1_1cnmf_1_1deconvolution.html#a7199190b4f33e4a70dedc9deea7e4c45" target="_top" xlink:title="estimate_parameters">
<polygon fill="white" stroke="black" points="158,-49.5 158,-68.5 268,-68.5 268,-49.5 158,-49.5"/>
<text text-anchor="middle" x="213" y="-56.5" font-family="Helvetica,sans-Serif" font-size="10.00">estimate_parameters</text>
</a>
</g>
</g>
<!-- Node83&#45;&gt;Node91 -->
<g id="edge9" class="edge"><title>Node83&#45;&gt;Node91</title>
<path fill="none" stroke="midnightblue" d="M132.142,-48.8847C140.714,-49.9704 149.37,-51.0669 157.661,-52.1171"/>
<polygon fill="midnightblue" stroke="midnightblue" points="132.507,-45.403 122.146,-47.6185 131.627,-52.3475 132.507,-45.403"/>
</g>
<!-- Node85 -->
<g id="node3" class="node"><title>Node85</title>
<g id="a_node3"><a xlink:href="namespacecaiman_1_1source__extraction_1_1cnmf_1_1deconvolution.html#a0afb63d84485a181bb40f2eefe7b581e" target="_top" xlink:title="Infer the most likely discretized spike train underlying a fluorescence trace. ">
<polygon fill="white" stroke="black" points="458,-49.5 458,-68.5 558,-68.5 558,-49.5 458,-49.5"/>
<text text-anchor="middle" x="508" y="-56.5" font-family="Helvetica,sans-Serif" font-size="10.00">constrained_foopsi</text>
</a>
</g>
</g>
<!-- Node84&#45;&gt;Node85 -->
<g id="edge2" class="edge"><title>Node84&#45;&gt;Node85</title>
<path fill="none" stroke="midnightblue" d="M409.813,-33.1742C429.587,-38.4287 452.384,-44.4866 470.927,-49.4141"/>
<polygon fill="midnightblue" stroke="midnightblue" points="410.648,-29.7747 400.085,-30.589 408.851,-36.5399 410.648,-29.7747"/>
</g>
<!-- Node90 -->
<g id="node8" class="node"><title>Node90</title>
<g id="a_node8"><a xlink:href="namespacecaiman_1_1source__extraction_1_1cnmf_1_1deconvolution.html#affae481e26d5e13bc6f62c6e643b63d5" target="_top" xlink:title="Infer the most likely discretized spike train underlying an AR(2) fluorescence trace. ">
<polygon fill="white" stroke="black" points="488,-11.5 488,-30.5 528,-30.5 528,-11.5 488,-11.5"/>
<text text-anchor="middle" x="508" y="-18.5" font-family="Helvetica,sans-Serif" font-size="10.00">onnls</text>
</a>
</g>
</g>
<!-- Node84&#45;&gt;Node90 -->
<g id="edge7" class="edge"><title>Node84&#45;&gt;Node90</title>
<path fill="none" stroke="midnightblue" d="M431.786,-14.2581C452.354,-14.1683 473.333,-14.8251 487.891,-16.2284"/>
<polygon fill="midnightblue" stroke="midnightblue" points="431.715,-10.7586 421.751,-14.3622 431.787,-17.7582 431.715,-10.7586"/>
</g>
<!-- Node86 -->
<g id="node4" class="node"><title>Node86</title>
<g id="a_node4"><a xlink:href="namespacecaiman_1_1source__extraction_1_1cnmf_1_1merging.html#ad08adf2e086a22ef379b10ed3ee36936" target="_top" xlink:title="Merging of spatially overlapping components that have highly correlated temporal activity The correla...">
<polygon fill="white" stroke="black" points="607.5,-93 607.5,-123 832.5,-123 832.5,-93 607.5,-93"/>
<text text-anchor="start" x="615.5" y="-111" font-family="Helvetica,sans-Serif" font-size="10.00">caiman.source_extraction.cnmf.merging.merge</text>
<text text-anchor="middle" x="720" y="-100" font-family="Helvetica,sans-Serif" font-size="10.00">_components</text>
</a>
</g>
</g>
<!-- Node85&#45;&gt;Node86 -->
<g id="edge3" class="edge"><title>Node85&#45;&gt;Node86</title>
<path fill="none" stroke="midnightblue" d="M550.439,-71.3978C564.236,-75.3388 579.725,-79.5626 594,-83 608.523,-86.4971 624.078,-89.8881 639.111,-92.9858"/>
<polygon fill="midnightblue" stroke="midnightblue" points="551.312,-68.0068 540.733,-68.5934 549.368,-74.7318 551.312,-68.0068"/>
</g>
<!-- Node87 -->
<g id="node5" class="node"><title>Node87</title>
<g id="a_node5"><a xlink:href="namespacecaiman_1_1source__extraction_1_1cnmf_1_1temporal.html#a2ede407f1e0d0722f51ddb6e99f48f9f" target="_top" xlink:title="necessary for parallel computation of the function constrained_foopsi ">
<polygon fill="white" stroke="black" points="594.5,-44 594.5,-74 845.5,-74 845.5,-44 594.5,-44"/>
<text text-anchor="start" x="602.5" y="-62" font-family="Helvetica,sans-Serif" font-size="10.00">caiman.source_extraction.cnmf.temporal.constrained</text>
<text text-anchor="middle" x="720" y="-51" font-family="Helvetica,sans-Serif" font-size="10.00">_foopsi_parallel</text>
</a>
</g>
</g>
<!-- Node85&#45;&gt;Node87 -->
<g id="edge4" class="edge"><title>Node85&#45;&gt;Node87</title>
<path fill="none" stroke="midnightblue" d="M568.461,-59C576.748,-59 585.505,-59 594.458,-59"/>
<polygon fill="midnightblue" stroke="midnightblue" points="568.236,-55.5001 558.236,-59 568.236,-62.5001 568.236,-55.5001"/>
</g>
<!-- Node88 -->
<g id="node6" class="node"><title>Node88</title>
<g id="a_node6"><a xlink:href="namespacecaiman_1_1tests_1_1test__deconvolution.html#aaebeed7ce9541fa4c56791c67009cdc6" target="_top" xlink:title="caiman.tests.test_deconvolution.foo">
<polygon fill="white" stroke="black" points="632.5,-5.5 632.5,-24.5 807.5,-24.5 807.5,-5.5 632.5,-5.5"/>
<text text-anchor="middle" x="720" y="-12.5" font-family="Helvetica,sans-Serif" font-size="10.00">caiman.tests.test_deconvolution.foo</text>
</a>
</g>
</g>
<!-- Node85&#45;&gt;Node88 -->
<g id="edge5" class="edge"><title>Node85&#45;&gt;Node88</title>
<path fill="none" stroke="midnightblue" d="M547.484,-46.4834C561.956,-42.0939 578.627,-37.4127 594,-34 610.5,-30.3371 628.383,-27.1587 645.325,-24.5048"/>
<polygon fill="midnightblue" stroke="midnightblue" points="546.38,-43.161 537.859,-49.4564 548.446,-49.8492 546.38,-43.161"/>
</g>
<!-- Node89 -->
<g id="node7" class="node"><title>Node89</title>
<g id="a_node7"><a xlink:href="namespacecaiman_1_1tests_1_1test__deconvolution.html#a90f82ae854f8179179664fe34973f11b" target="_top" xlink:title="caiman.tests.test_deconvolution.test\l_oasis">
<polygon fill="white" stroke="black" points="882,-0 882,-30 1060,-30 1060,-0 882,-0"/>
<text text-anchor="start" x="890" y="-18" font-family="Helvetica,sans-Serif" font-size="10.00">caiman.tests.test_deconvolution.test</text>
<text text-anchor="middle" x="971" y="-7" font-family="Helvetica,sans-Serif" font-size="10.00">_oasis</text>
</a>
</g>
</g>
<!-- Node88&#45;&gt;Node89 -->
<g id="edge6" class="edge"><title>Node88&#45;&gt;Node89</title>
<path fill="none" stroke="midnightblue" d="M817.975,-15C839.031,-15 861.193,-15 881.885,-15"/>
<polygon fill="midnightblue" stroke="midnightblue" points="817.739,-11.5001 807.739,-15 817.739,-18.5001 817.739,-11.5001"/>
</g>
<!-- Node90&#45;&gt;Node84 -->
<g id="edge8" class="edge"><title>Node90&#45;&gt;Node84</title>
<path fill="none" stroke="midnightblue" d="M477.516,-26.5835C461.411,-27.6023 440.898,-27.9538 421.751,-27.6378"/>
<polygon fill="midnightblue" stroke="midnightblue" points="478.194,-30.0413 487.891,-25.7716 477.648,-23.0626 478.194,-30.0413"/>
</g>
<!-- Node91&#45;&gt;Node84 -->
<g id="edge11" class="edge"><title>Node91&#45;&gt;Node84</title>
<path fill="none" stroke="midnightblue" d="M261.173,-46.8879C281.786,-41.5956 305.609,-35.4787 324.922,-30.5201"/>
<polygon fill="midnightblue" stroke="midnightblue" points="260.162,-43.534 251.347,-49.411 261.903,-50.3141 260.162,-43.534"/>
</g>
<!-- Node91&#45;&gt;Node85 -->
<g id="edge10" class="edge"><title>Node91&#45;&gt;Node85</title>
<path fill="none" stroke="midnightblue" d="M278.235,-59C332.233,-59 408.295,-59 457.623,-59"/>
<polygon fill="midnightblue" stroke="midnightblue" points="278.082,-55.5001 268.082,-59 278.082,-62.5001 278.082,-55.5001"/>
</g>
</g>
</svg>
