<?xml version="1.0" encoding="UTF-8" standalone="no"?>
<!DOCTYPE svg PUBLIC "-//W3C//DTD SVG 1.1//EN"
 "http://www.w3.org/Graphics/SVG/1.1/DTD/svg11.dtd">
<!-- Generated by graphviz version 2.36.0 (20140111.2315)
 -->
<!-- Title: isin Pages: 1 -->
<svg width="534pt" height="38pt"
 viewBox="0.00 0.00 534.00 38.00" xmlns="http://www.w3.org/2000/svg" xmlns:xlink="http://www.w3.org/1999/xlink">
<g id="graph0" class="graph" transform="scale(1 1) rotate(0) translate(4 34)">
<title>isin</title>
<polygon fill="white" stroke="none" points="-4,4 -4,-34 530,-34 530,4 -4,4"/>
<!-- Node1 -->
<g id="node1" class="node"><title>Node1</title>
<polygon fill="#bfbfbf" stroke="black" points="0,-5.5 0,-24.5 32,-24.5 32,-5.5 0,-5.5"/>
<text text-anchor="middle" x="16" y="-12.5" font-family="Helvetica,sans-Serif" font-size="10.00">isin</text>
</g>
<!-- Node2 -->
<g id="node2" class="node"><title>Node2</title>
<g id="a_node2"><a xlink:href="classcaiman_1_1gui_1_1gui_1_1_g_u_i.html#a06508ecd0b0e41023403958b0d08f995" target="_top" xlink:title="caiman.gui.gui.GUI.get\l_current_roi">
<polygon fill="white" stroke="black" points="68,-0 68,-30 186,-30 186,-0 68,-0"/>
<text text-anchor="start" x="76" y="-18" font-family="Helvetica,sans-Serif" font-size="10.00">caiman.gui.gui.GUI.get</text>
<text text-anchor="middle" x="127" y="-7" font-family="Helvetica,sans-Serif" font-size="10.00">_current_roi</text>
</a>
</g>
</g>
<!-- Node1&#45;&gt;Node2 -->
<g id="edge1" class="edge"><title>Node1&#45;&gt;Node2</title>
<path fill="none" stroke="midnightblue" d="M42.2064,-15C49.9109,-15 58.7267,-15 67.6807,-15"/>
<polygon fill="midnightblue" stroke="midnightblue" points="42.156,-11.5001 32.156,-15 42.1559,-18.5001 42.156,-11.5001"/>
</g>
<!-- Node3 -->
<g id="node3" class="node"><title>Node3</title>
<g id="a_node3"><a xlink:href="classcaiman_1_1gui_1_1gui_1_1_g_u_i.html#af25f6f83cd7cf2d40b222224a9230542" target="_top" xlink:title="caiman.gui.gui.GUI.plot\l_current_traces">
<polygon fill="white" stroke="black" points="222,-0 222,-30 342,-30 342,-0 222,-0"/>
<text text-anchor="start" x="230" y="-18" font-family="Helvetica,sans-Serif" font-size="10.00">caiman.gui.gui.GUI.plot</text>
<text text-anchor="middle" x="282" y="-7" font-family="Helvetica,sans-Serif" font-size="10.00">_current_traces</text>
</a>
</g>
</g>
<!-- Node2&#45;&gt;Node3 -->
<g id="edge2" class="edge"><title>Node2&#45;&gt;Node3</title>
<path fill="none" stroke="midnightblue" d="M196.507,-15C204.969,-15 213.563,-15 221.868,-15"/>
<polygon fill="midnightblue" stroke="midnightblue" points="196.279,-11.5001 186.279,-15 196.279,-18.5001 196.279,-11.5001"/>
</g>
<!-- Node4 -->
<g id="node4" class="node"><title>Node4</title>
<g id="a_node4"><a xlink:href="classcaiman_1_1gui_1_1gui_1_1_g_u_i.html#a211940967eecd3ffe6da9a52fb45c242" target="_top" xlink:title="caiman.gui.gui.GUI.evt_zoom">
<polygon fill="white" stroke="black" points="378,-5.5 378,-24.5 526,-24.5 526,-5.5 378,-5.5"/>
<text text-anchor="middle" x="452" y="-12.5" font-family="Helvetica,sans-Serif" font-size="10.00">caiman.gui.gui.GUI.evt_zoom</text>
</a>
</g>
</g>
<!-- Node3&#45;&gt;Node4 -->
<g id="edge3" class="edge"><title>Node3&#45;&gt;Node4</title>
<path fill="none" stroke="midnightblue" d="M352.373,-15C360.789,-15 369.407,-15 377.876,-15"/>
<polygon fill="midnightblue" stroke="midnightblue" points="352.231,-11.5001 342.231,-15 352.23,-18.5001 352.231,-11.5001"/>
</g>
</g>
</svg>
