<?xml version="1.0" encoding="UTF-8" standalone="no"?>
<!DOCTYPE svg PUBLIC "-//W3C//DTD SVG 1.1//EN"
 "http://www.w3.org/Graphics/SVG/1.1/DTD/svg11.dtd">
<!-- Generated by graphviz version 2.36.0 (20140111.2315)
 -->
<!-- Title: update_spatial_components Pages: 1 -->
<svg width="412pt" height="77pt"
 viewBox="0.00 0.00 412.00 77.00" xmlns="http://www.w3.org/2000/svg" xmlns:xlink="http://www.w3.org/1999/xlink">
<g id="graph0" class="graph" transform="scale(1 1) rotate(0) translate(4 73)">
<title>update_spatial_components</title>
<polygon fill="white" stroke="none" points="-4,4 -4,-73 408,-73 408,4 -4,4"/>
<!-- Node45 -->
<g id="node1" class="node"><title>Node45</title>
<polygon fill="#bfbfbf" stroke="black" points="0,-22.5 0,-41.5 142,-41.5 142,-22.5 0,-22.5"/>
<text text-anchor="middle" x="71" y="-29.5" font-family="Helvetica,sans-Serif" font-size="10.00">update_spatial_components</text>
</g>
<!-- Node46 -->
<g id="node2" class="node"><title>Node46</title>
<g id="a_node2"><a xlink:href="namespacecaiman_1_1source__extraction_1_1cnmf_1_1merging.html#ad08adf2e086a22ef379b10ed3ee36936" target="_top" xlink:title="Merging of spatially overlapping components that have highly correlated temporal activity The correla...">
<polygon fill="white" stroke="black" points="178.5,-39 178.5,-69 403.5,-69 403.5,-39 178.5,-39"/>
<text text-anchor="start" x="186.5" y="-57" font-family="Helvetica,sans-Serif" font-size="10.00">caiman.source_extraction.cnmf.merging.merge</text>
<text text-anchor="middle" x="291" y="-46" font-family="Helvetica,sans-Serif" font-size="10.00">_components</text>
</a>
</g>
</g>
<!-- Node45&#45;&gt;Node46 -->
<g id="edge1" class="edge"><title>Node45&#45;&gt;Node46</title>
<path fill="none" stroke="midnightblue" d="M152.368,-40.1105C160.837,-40.9652 169.553,-41.8448 178.293,-42.7269"/>
<polygon fill="midnightblue" stroke="midnightblue" points="152.477,-36.6039 142.177,-39.082 151.775,-43.5685 152.477,-36.6039"/>
</g>
<!-- Node47 -->
<g id="node3" class="node"><title>Node47</title>
<g id="a_node3"><a xlink:href="namespacecaiman_1_1source__extraction_1_1cnmf_1_1spatial.html#adbbc80bf3821229671c7f77648016071" target="_top" xlink:title="basis_denoising">
<polygon fill="white" stroke="black" points="247,-0.5 247,-19.5 335,-19.5 335,-0.5 247,-0.5"/>
<text text-anchor="middle" x="291" y="-7.5" font-family="Helvetica,sans-Serif" font-size="10.00">basis_denoising</text>
</a>
</g>
</g>
<!-- Node45&#45;&gt;Node47 -->
<g id="edge2" class="edge"><title>Node45&#45;&gt;Node47</title>
<path fill="none" stroke="midnightblue" d="M152.433,-23.8829C184.452,-20.6516 220.01,-17.0632 246.953,-14.3442"/>
<polygon fill="midnightblue" stroke="midnightblue" points="151.775,-20.4315 142.177,-24.918 152.477,-27.3961 151.775,-20.4315"/>
</g>
</g>
</svg>
