<?xml version="1.0" encoding="UTF-8" standalone="no"?>
<!DOCTYPE svg PUBLIC "-//W3C//DTD SVG 1.1//EN"
 "http://www.w3.org/Graphics/SVG/1.1/DTD/svg11.dtd">
<!-- Generated by graphviz version 2.36.0 (20140111.2315)
 -->
<!-- Title: manually_refine_components Pages: 1 -->
<svg width="414pt" height="28pt"
 viewBox="0.00 0.00 414.00 28.00" xmlns="http://www.w3.org/2000/svg" xmlns:xlink="http://www.w3.org/1999/xlink">
<g id="graph0" class="graph" transform="scale(1 1) rotate(0) translate(4 24)">
<title>manually_refine_components</title>
<polygon fill="white" stroke="none" points="-4,4 -4,-24 410,-24 410,4 -4,4"/>
<!-- Node24 -->
<g id="node1" class="node"><title>Node24</title>
<polygon fill="#bfbfbf" stroke="black" points="0.5,-0.5 0.5,-19.5 147.5,-19.5 147.5,-0.5 0.5,-0.5"/>
<text text-anchor="middle" x="74" y="-7.5" font-family="Helvetica,sans-Serif" font-size="10.00">manually_refine_components</text>
</g>
<!-- Node25 -->
<g id="node2" class="node"><title>Node25</title>
<g id="a_node2"><a xlink:href="namespacecaiman_1_1source__extraction_1_1cnmf_1_1utilities.html#a280d064e1a9888eca4b375647d031491" target="_top" xlink:title="Compute DFF function from cnmf output. ">
<polygon fill="white" stroke="black" points="184.5,-0.5 184.5,-19.5 261.5,-19.5 261.5,-0.5 184.5,-0.5"/>
<text text-anchor="middle" x="223" y="-7.5" font-family="Helvetica,sans-Serif" font-size="10.00">extract_DF_F</text>
</a>
</g>
</g>
<!-- Node24&#45;&gt;Node25 -->
<g id="edge1" class="edge"><title>Node24&#45;&gt;Node25</title>
<path fill="none" stroke="midnightblue" d="M157.762,-10C167.046,-10 176.129,-10 184.406,-10"/>
<polygon fill="midnightblue" stroke="midnightblue" points="157.639,-6.5001 147.639,-10 157.639,-13.5001 157.639,-6.5001"/>
</g>
<!-- Node26 -->
<g id="node3" class="node"><title>Node26</title>
<g id="a_node3"><a xlink:href="namespacecaiman_1_1source__extraction_1_1cnmf_1_1utilities.html#aea3aa78c7c153170012079014e1f4895" target="_top" xlink:title="computeDFF_traces">
<polygon fill="white" stroke="black" points="298.5,-0.5 298.5,-19.5 405.5,-19.5 405.5,-0.5 298.5,-0.5"/>
<text text-anchor="middle" x="352" y="-7.5" font-family="Helvetica,sans-Serif" font-size="10.00">computeDFF_traces</text>
</a>
</g>
</g>
<!-- Node25&#45;&gt;Node26 -->
<g id="edge2" class="edge"><title>Node25&#45;&gt;Node26</title>
<path fill="none" stroke="midnightblue" d="M271.941,-10C280.487,-10 289.434,-10 298.109,-10"/>
<polygon fill="midnightblue" stroke="midnightblue" points="271.76,-6.5001 261.76,-10 271.76,-13.5001 271.76,-6.5001"/>
</g>
</g>
</svg>
