<?xml version="1.0" encoding="UTF-8" standalone="no"?>
<!DOCTYPE svg PUBLIC "-//W3C//DTD SVG 1.1//EN"
 "http://www.w3.org/Graphics/SVG/1.1/DTD/svg11.dtd">
<!-- Generated by graphviz version 2.36.0 (20140111.2315)
 -->
<!-- Title: merge_components Pages: 1 -->
<svg width="1912pt" height="434pt"
 viewBox="0.00 0.00 1912.00 433.70" xmlns="http://www.w3.org/2000/svg" xmlns:xlink="http://www.w3.org/1999/xlink">
<g id="graph0" class="graph" transform="scale(1 1) rotate(0) translate(4 429.7)">
<title>merge_components</title>
<polygon fill="white" stroke="none" points="-4,4 -4,-429.7 1908,-429.7 1908,4 -4,4"/>
<!-- Node0 -->
<g id="node1" class="node"><title>Node0</title>
<polygon fill="#bfbfbf" stroke="black" points="0.5,-193.5 0.5,-212.5 105.5,-212.5 105.5,-193.5 0.5,-193.5"/>
<text text-anchor="middle" x="53" y="-200.5" font-family="Helvetica,sans-Serif" font-size="10.00">merge_components</text>
</g>
<!-- Node1 -->
<g id="node2" class="node"><title>Node1</title>
<g id="a_node2"><a xlink:href="namespacecaiman_1_1source__extraction_1_1cnmf_1_1deconvolution.html#a0afb63d84485a181bb40f2eefe7b581e" target="_top" xlink:title="Infer the most likely discretized spike train underlying a fluorescence trace. ">
<polygon fill="white" stroke="black" points="142,-323 142,-353 416,-353 416,-323 142,-323"/>
<text text-anchor="start" x="150" y="-341" font-family="Helvetica,sans-Serif" font-size="10.00">caiman.source_extraction.cnmf.deconvolution.constrained</text>
<text text-anchor="middle" x="279" y="-330" font-family="Helvetica,sans-Serif" font-size="10.00">_foopsi</text>
</a>
</g>
</g>
<!-- Node0&#45;&gt;Node1 -->
<g id="edge1" class="edge"><title>Node0&#45;&gt;Node1</title>
<path fill="none" stroke="midnightblue" d="M70.1095,-212.709C106.468,-234.621 195.527,-288.295 244.454,-317.783"/>
<polygon fill="midnightblue" stroke="midnightblue" points="242.73,-320.83 253.101,-322.994 246.343,-314.835 242.73,-320.83"/>
</g>
<!-- Node12 -->
<g id="node13" class="node"><title>Node12</title>
<g id="a_node13"><a xlink:href="namespacecaiman_1_1source__extraction_1_1cnmf_1_1temporal.html#ae56ee735c5b8f6fdaca8baaee1371d58" target="_top" xlink:title="Update temporal components and background given spatial components using a block coordinate descent a...">
<polygon fill="white" stroke="black" points="164,-188 164,-218 394,-218 394,-188 164,-188"/>
<text text-anchor="start" x="172" y="-206" font-family="Helvetica,sans-Serif" font-size="10.00">caiman.source_extraction.cnmf.temporal.update</text>
<text text-anchor="middle" x="279" y="-195" font-family="Helvetica,sans-Serif" font-size="10.00">_temporal_components</text>
</a>
</g>
</g>
<!-- Node0&#45;&gt;Node12 -->
<g id="edge16" class="edge"><title>Node0&#45;&gt;Node12</title>
<path fill="none" stroke="midnightblue" d="M105.671,-203C120.116,-203 136.469,-203 153.208,-203"/>
<polygon fill="midnightblue" stroke="midnightblue" points="153.667,-206.5 163.667,-203 153.667,-199.5 153.667,-206.5"/>
</g>
<!-- Node17 -->
<g id="node18" class="node"><title>Node17</title>
<g id="a_node18"><a xlink:href="namespacecaiman_1_1source__extraction_1_1cnmf_1_1spatial.html#ac4b406f52054893ed2518a761921d4f4" target="_top" xlink:title="update spatial footprints and background through Basis Pursuit Denoising ">
<polygon fill="white" stroke="black" points="169,-120 169,-150 389,-150 389,-120 169,-120"/>
<text text-anchor="start" x="177" y="-138" font-family="Helvetica,sans-Serif" font-size="10.00">caiman.source_extraction.cnmf.spatial.update</text>
<text text-anchor="middle" x="279" y="-127" font-family="Helvetica,sans-Serif" font-size="10.00">_spatial_components</text>
</a>
</g>
</g>
<!-- Node0&#45;&gt;Node17 -->
<g id="edge21" class="edge"><title>Node0&#45;&gt;Node17</title>
<path fill="none" stroke="midnightblue" d="M85.6186,-193.401C120.078,-182.941 175.995,-165.966 218.685,-153.006"/>
<polygon fill="midnightblue" stroke="midnightblue" points="219.852,-156.31 228.404,-150.056 217.819,-149.612 219.852,-156.31"/>
</g>
<!-- Node2 -->
<g id="node3" class="node"><title>Node2</title>
<g id="a_node3"><a xlink:href="namespacecaiman_1_1source__extraction_1_1cnmf_1_1deconvolution.html#a7199190b4f33e4a70dedc9deea7e4c45" target="_top" xlink:title="caiman.source_extraction.cnmf.deconvolution.estimate\l_parameters">
<polygon fill="white" stroke="black" points="762,-360 762,-390 1022,-390 1022,-360 762,-360"/>
<text text-anchor="start" x="770" y="-378" font-family="Helvetica,sans-Serif" font-size="10.00">caiman.source_extraction.cnmf.deconvolution.estimate</text>
<text text-anchor="middle" x="892" y="-367" font-family="Helvetica,sans-Serif" font-size="10.00">_parameters</text>
</a>
</g>
</g>
<!-- Node1&#45;&gt;Node2 -->
<g id="edge2" class="edge"><title>Node1&#45;&gt;Node2</title>
<path fill="none" stroke="midnightblue" d="M306.316,-353.142C339.16,-371.086 397.642,-399.942 452,-411 571.334,-435.276 604.924,-424.055 726,-411 759.392,-407.4 795.938,-399.813 826.129,-392.529"/>
<polygon fill="midnightblue" stroke="midnightblue" points="827.234,-395.861 836.11,-390.076 825.564,-389.064 827.234,-395.861"/>
</g>
<!-- Node7 -->
<g id="node8" class="node"><title>Node7</title>
<g id="a_node8"><a xlink:href="namespacecaiman_1_1source__extraction_1_1cnmf_1_1deconvolution.html#a04aa84702e9977187b4ac0ba95891fb6" target="_top" xlink:title="Solve the deconvolution problem using cvxopt and picos packages. ">
<polygon fill="white" stroke="black" points="463.5,-372 463.5,-402 714.5,-402 714.5,-372 463.5,-372"/>
<text text-anchor="start" x="471.5" y="-390" font-family="Helvetica,sans-Serif" font-size="10.00">caiman.source_extraction.cnmf.deconvolution.cvxopt</text>
<text text-anchor="middle" x="589" y="-379" font-family="Helvetica,sans-Serif" font-size="10.00">_foopsi</text>
</a>
</g>
</g>
<!-- Node1&#45;&gt;Node7 -->
<g id="edge8" class="edge"><title>Node1&#45;&gt;Node7</title>
<path fill="none" stroke="midnightblue" d="M374.503,-353.035C408.945,-358.514 448.079,-364.74 483.351,-370.351"/>
<polygon fill="midnightblue" stroke="midnightblue" points="483.25,-373.879 493.675,-371.994 484.35,-366.966 483.25,-373.879"/>
</g>
<!-- Node8 -->
<g id="node9" class="node"><title>Node8</title>
<g id="a_node9"><a xlink:href="namespacecaiman_1_1source__extraction_1_1cnmf_1_1deconvolution.html#a0dd508a8cc717626fa4c45d0a5c08bfd" target="_top" xlink:title="Solves the deconvolution problem using the cvxpy package and the ECOS/SCS library. ">
<polygon fill="white" stroke="black" points="465,-323 465,-353 713,-353 713,-323 465,-323"/>
<text text-anchor="start" x="473" y="-341" font-family="Helvetica,sans-Serif" font-size="10.00">caiman.source_extraction.cnmf.deconvolution.cvxpy</text>
<text text-anchor="middle" x="589" y="-330" font-family="Helvetica,sans-Serif" font-size="10.00">_foopsi</text>
</a>
</g>
</g>
<!-- Node1&#45;&gt;Node8 -->
<g id="edge9" class="edge"><title>Node1&#45;&gt;Node8</title>
<path fill="none" stroke="midnightblue" d="M416.438,-338C429.135,-338 441.993,-338 454.661,-338"/>
<polygon fill="midnightblue" stroke="midnightblue" points="454.773,-341.5 464.773,-338 454.773,-334.5 454.773,-341.5"/>
</g>
<!-- Node9 -->
<g id="node10" class="node"><title>Node9</title>
<g id="a_node10"><a xlink:href="namespacecaiman_1_1source__extraction_1_1cnmf_1_1deconvolution.html#a5753e123f06d6f8a5f53e8f1cc50baba" target="_top" xlink:title="Infer the most likely discretized spike train underlying an AR(2) fluorescence trace. ">
<polygon fill="white" stroke="black" points="452,-274 452,-304 726,-304 726,-274 452,-274"/>
<text text-anchor="start" x="460" y="-292" font-family="Helvetica,sans-Serif" font-size="10.00">caiman.source_extraction.cnmf.deconvolution.constrained</text>
<text text-anchor="middle" x="589" y="-281" font-family="Helvetica,sans-Serif" font-size="10.00">_oasisAR2</text>
</a>
</g>
</g>
<!-- Node1&#45;&gt;Node9 -->
<g id="edge10" class="edge"><title>Node1&#45;&gt;Node9</title>
<path fill="none" stroke="midnightblue" d="M374.503,-322.965C408.945,-317.486 448.079,-311.26 483.351,-305.649"/>
<polygon fill="midnightblue" stroke="midnightblue" points="484.35,-309.034 493.675,-304.006 483.25,-302.121 484.35,-309.034"/>
</g>
<!-- Node3 -->
<g id="node4" class="node"><title>Node3</title>
<g id="a_node4"><a xlink:href="namespacecaiman_1_1source__extraction_1_1cnmf_1_1deconvolution.html#a16b9a254776edd0d9093ee35b1ef17a2" target="_top" xlink:title="caiman.source_extraction.cnmf.deconvolution.\lGetSn">
<polygon fill="white" stroke="black" points="1367,-360 1367,-390 1589,-390 1589,-360 1367,-360"/>
<text text-anchor="start" x="1375" y="-378" font-family="Helvetica,sans-Serif" font-size="10.00">caiman.source_extraction.cnmf.deconvolution.</text>
<text text-anchor="middle" x="1478" y="-367" font-family="Helvetica,sans-Serif" font-size="10.00">GetSn</text>
</a>
</g>
</g>
<!-- Node2&#45;&gt;Node3 -->
<g id="edge3" class="edge"><title>Node2&#45;&gt;Node3</title>
<path fill="none" stroke="midnightblue" d="M1022.25,-375C1122.03,-375 1259.06,-375 1356.56,-375"/>
<polygon fill="midnightblue" stroke="midnightblue" points="1356.75,-378.5 1366.75,-375 1356.75,-371.5 1356.75,-378.5"/>
</g>
<!-- Node4 -->
<g id="node5" class="node"><title>Node4</title>
<g id="a_node5"><a xlink:href="namespacecaiman_1_1source__extraction_1_1cnmf_1_1deconvolution.html#a7a73db2b3e0e88f4a5f30f80944c1319" target="_top" xlink:title="caiman.source_extraction.cnmf.deconvolution.estimate\l_time_constant">
<polygon fill="white" stroke="black" points="1058,-316 1058,-346 1318,-346 1318,-316 1058,-316"/>
<text text-anchor="start" x="1066" y="-334" font-family="Helvetica,sans-Serif" font-size="10.00">caiman.source_extraction.cnmf.deconvolution.estimate</text>
<text text-anchor="middle" x="1188" y="-323" font-family="Helvetica,sans-Serif" font-size="10.00">_time_constant</text>
</a>
</g>
</g>
<!-- Node2&#45;&gt;Node4 -->
<g id="edge4" class="edge"><title>Node2&#45;&gt;Node4</title>
<path fill="none" stroke="midnightblue" d="M993.356,-359.981C1020.17,-355.968 1049.3,-351.609 1076.62,-347.519"/>
<polygon fill="midnightblue" stroke="midnightblue" points="1077.23,-350.968 1086.6,-346.026 1076.19,-344.045 1077.23,-350.968"/>
</g>
<!-- Node4&#45;&gt;Node3 -->
<g id="edge5" class="edge"><title>Node4&#45;&gt;Node3</title>
<path fill="none" stroke="midnightblue" d="M1287.31,-346.019C1313.46,-350.015 1341.86,-354.353 1368.52,-358.427"/>
<polygon fill="midnightblue" stroke="midnightblue" points="1368.23,-361.923 1378.65,-359.974 1369.29,-355.004 1368.23,-361.923"/>
</g>
<!-- Node5 -->
<g id="node6" class="node"><title>Node5</title>
<g id="a_node6"><a xlink:href="namespacecaiman_1_1source__extraction_1_1cnmf_1_1deconvolution.html#a458da977dee6e97910a1b006e899b309" target="_top" xlink:title="caiman.source_extraction.cnmf.deconvolution.axcov">
<polygon fill="white" stroke="black" points="1354,-321.5 1354,-340.5 1602,-340.5 1602,-321.5 1354,-321.5"/>
<text text-anchor="middle" x="1478" y="-328.5" font-family="Helvetica,sans-Serif" font-size="10.00">caiman.source_extraction.cnmf.deconvolution.axcov</text>
</a>
</g>
</g>
<!-- Node4&#45;&gt;Node5 -->
<g id="edge6" class="edge"><title>Node4&#45;&gt;Node5</title>
<path fill="none" stroke="midnightblue" d="M1318.26,-331C1326.66,-331 1335.12,-331 1343.54,-331"/>
<polygon fill="midnightblue" stroke="midnightblue" points="1343.78,-334.5 1353.78,-331 1343.78,-327.5 1343.78,-334.5"/>
</g>
<!-- Node6 -->
<g id="node7" class="node"><title>Node6</title>
<g id="a_node7"><a xlink:href="namespacecaiman_1_1source__extraction_1_1cnmf_1_1deconvolution.html#a8d83696f273bd0121651cf48a6b899ae" target="_top" xlink:title="caiman.source_extraction.cnmf.deconvolution.nextpow2">
<polygon fill="white" stroke="black" points="1638.5,-321.5 1638.5,-340.5 1903.5,-340.5 1903.5,-321.5 1638.5,-321.5"/>
<text text-anchor="middle" x="1771" y="-328.5" font-family="Helvetica,sans-Serif" font-size="10.00">caiman.source_extraction.cnmf.deconvolution.nextpow2</text>
</a>
</g>
</g>
<!-- Node5&#45;&gt;Node6 -->
<g id="edge7" class="edge"><title>Node5&#45;&gt;Node6</title>
<path fill="none" stroke="midnightblue" d="M1602.41,-331C1610.98,-331 1619.66,-331 1628.32,-331"/>
<polygon fill="midnightblue" stroke="midnightblue" points="1628.47,-334.5 1638.47,-331 1628.47,-327.5 1628.47,-334.5"/>
</g>
<!-- Node9&#45;&gt;Node2 -->
<g id="edge15" class="edge"><title>Node9&#45;&gt;Node2</title>
<path fill="none" stroke="midnightblue" d="M699.93,-304.089C708.935,-306.856 717.74,-310.129 726,-314 744.859,-322.838 743.387,-334.655 762,-344 772.11,-349.076 783.089,-353.345 794.231,-356.93"/>
<polygon fill="midnightblue" stroke="midnightblue" points="793.461,-360.354 804.046,-359.908 795.493,-353.655 793.461,-360.354"/>
</g>
<!-- Node9&#45;&gt;Node4 -->
<g id="edge11" class="edge"><title>Node9&#45;&gt;Node4</title>
<path fill="none" stroke="midnightblue" d="M718.597,-304C733.225,-305.47 747.927,-306.843 762,-308 857.182,-315.827 964.584,-321.613 1047.61,-325.424"/>
<polygon fill="midnightblue" stroke="midnightblue" points="1047.46,-328.921 1057.61,-325.879 1047.78,-321.928 1047.46,-328.921"/>
</g>
<!-- Node10 -->
<g id="node11" class="node"><title>Node10</title>
<g id="a_node11"><a xlink:href="namespacecaiman_1_1source__extraction_1_1cnmf_1_1deconvolution.html#affae481e26d5e13bc6f62c6e643b63d5" target="_top" xlink:title="Infer the most likely discretized spike train underlying an AR(2) fluorescence trace. ">
<polygon fill="white" stroke="black" points="769,-279.5 769,-298.5 1015,-298.5 1015,-279.5 769,-279.5"/>
<text text-anchor="middle" x="892" y="-286.5" font-family="Helvetica,sans-Serif" font-size="10.00">caiman.source_extraction.cnmf.deconvolution.onnls</text>
</a>
</g>
</g>
<!-- Node9&#45;&gt;Node10 -->
<g id="edge12" class="edge"><title>Node9&#45;&gt;Node10</title>
<path fill="none" stroke="midnightblue" d="M726.409,-282.276C737.136,-282.236 747.959,-282.242 758.658,-282.294"/>
<polygon fill="midnightblue" stroke="midnightblue" points="758.848,-285.795 768.87,-282.358 758.892,-278.795 758.848,-285.795"/>
</g>
<!-- Node10&#45;&gt;Node9 -->
<g id="edge14" class="edge"><title>Node10&#45;&gt;Node9</title>
<path fill="none" stroke="midnightblue" d="M768.87,-295.642C758.273,-295.724 747.482,-295.759 736.716,-295.748"/>
<polygon fill="midnightblue" stroke="midnightblue" points="736.417,-292.247 726.409,-295.724 736.401,-299.247 736.417,-292.247"/>
</g>
<!-- Node11 -->
<g id="node12" class="node"><title>Node11</title>
<g id="a_node12"><a xlink:href="namespacecaiman_1_1source__extraction_1_1cnmf_1_1deconvolution.html#ad9f9b2ef0aad5c652f86bd8c7ae64bdd" target="_top" xlink:title="caiman.source_extraction.cnmf.deconvolution._nnls">
<polygon fill="white" stroke="black" points="1065,-277.5 1065,-296.5 1311,-296.5 1311,-277.5 1065,-277.5"/>
<text text-anchor="middle" x="1188" y="-284.5" font-family="Helvetica,sans-Serif" font-size="10.00">caiman.source_extraction.cnmf.deconvolution._nnls</text>
</a>
</g>
</g>
<!-- Node10&#45;&gt;Node11 -->
<g id="edge13" class="edge"><title>Node10&#45;&gt;Node11</title>
<path fill="none" stroke="midnightblue" d="M1015.13,-288.169C1028.2,-288.08 1041.55,-287.989 1054.73,-287.9"/>
<polygon fill="midnightblue" stroke="midnightblue" points="1054.8,-291.399 1064.78,-287.831 1054.76,-284.4 1054.8,-291.399"/>
</g>
<!-- Node13 -->
<g id="node14" class="node"><title>Node13</title>
<g id="a_node14"><a xlink:href="namespacecaiman_1_1mmapping.html#aa75ec735ea507b2ce7eb0e0bd33d2ba3" target="_top" xlink:title="Chunk matrix product between matrix and column vectors A memory mapped ndarray pixels x time b time x...">
<polygon fill="white" stroke="black" points="522.5,-176 522.5,-206 655.5,-206 655.5,-176 522.5,-176"/>
<text text-anchor="start" x="530.5" y="-194" font-family="Helvetica,sans-Serif" font-size="10.00">caiman.mmapping.parallel</text>
<text text-anchor="middle" x="589" y="-183" font-family="Helvetica,sans-Serif" font-size="10.00">_dot_product</text>
</a>
</g>
</g>
<!-- Node12&#45;&gt;Node13 -->
<g id="edge17" class="edge"><title>Node12&#45;&gt;Node13</title>
<path fill="none" stroke="midnightblue" d="M394.25,-198.549C433.516,-197.019 476.483,-195.345 511.955,-193.963"/>
<polygon fill="midnightblue" stroke="midnightblue" points="512.374,-197.449 522.23,-193.562 512.102,-190.455 512.374,-197.449"/>
</g>
<!-- Node16 -->
<g id="node17" class="node"><title>Node16</title>
<g id="a_node17"><a xlink:href="namespacecaiman_1_1source__extraction_1_1cnmf_1_1utilities.html#aa1b3d1b8495a6d9dcecf91484544babb" target="_top" xlink:title="Determines the update order of the temporal components given the spatial. ">
<polygon fill="white" stroke="black" points="478,-225 478,-255 700,-255 700,-225 478,-225"/>
<text text-anchor="start" x="486" y="-243" font-family="Helvetica,sans-Serif" font-size="10.00">caiman.source_extraction.cnmf.utilities.update</text>
<text text-anchor="middle" x="589" y="-232" font-family="Helvetica,sans-Serif" font-size="10.00">_order_greedy</text>
</a>
</g>
</g>
<!-- Node12&#45;&gt;Node16 -->
<g id="edge20" class="edge"><title>Node12&#45;&gt;Node16</title>
<path fill="none" stroke="midnightblue" d="M394.25,-216.725C418.25,-219.608 443.632,-222.657 467.84,-225.565"/>
<polygon fill="midnightblue" stroke="midnightblue" points="467.427,-229.041 477.773,-226.758 468.262,-222.091 467.427,-229.041"/>
</g>
<!-- Node14 -->
<g id="node15" class="node"><title>Node14</title>
<g id="a_node15"><a xlink:href="namespacecaiman_1_1mmapping.html#a14d47c076020d7d3adf2599ed3354e4b" target="_top" xlink:title="caiman.mmapping.dot\l_place_holder">
<polygon fill="white" stroke="black" points="834.5,-157 834.5,-187 949.5,-187 949.5,-157 834.5,-157"/>
<text text-anchor="start" x="842.5" y="-175" font-family="Helvetica,sans-Serif" font-size="10.00">caiman.mmapping.dot</text>
<text text-anchor="middle" x="892" y="-164" font-family="Helvetica,sans-Serif" font-size="10.00">_place_holder</text>
</a>
</g>
</g>
<!-- Node13&#45;&gt;Node14 -->
<g id="edge18" class="edge"><title>Node13&#45;&gt;Node14</title>
<path fill="none" stroke="midnightblue" d="M655.684,-186.854C705.528,-183.708 773.801,-179.398 823.972,-176.231"/>
<polygon fill="midnightblue" stroke="midnightblue" points="824.312,-179.717 834.072,-175.593 823.871,-172.73 824.312,-179.717"/>
</g>
<!-- Node15 -->
<g id="node16" class="node"><title>Node15</title>
<g id="a_node16"><a xlink:href="namespacecaiman_1_1mmapping.html#aeb2ed62e4a9028089a2eec09d392707f" target="_top" xlink:title="Load a memory mapped file created by the function save_memmap. ">
<polygon fill="white" stroke="black" points="1128,-91 1128,-121 1248,-121 1248,-91 1128,-91"/>
<text text-anchor="start" x="1136" y="-109" font-family="Helvetica,sans-Serif" font-size="10.00">caiman.mmapping.load</text>
<text text-anchor="middle" x="1188" y="-98" font-family="Helvetica,sans-Serif" font-size="10.00">_memmap</text>
</a>
</g>
</g>
<!-- Node14&#45;&gt;Node15 -->
<g id="edge19" class="edge"><title>Node14&#45;&gt;Node15</title>
<path fill="none" stroke="midnightblue" d="M949.686,-159.275C997.711,-148.493 1066.73,-132.999 1117.97,-121.497"/>
<polygon fill="midnightblue" stroke="midnightblue" points="1118.98,-124.857 1127.97,-119.252 1117.44,-118.027 1118.98,-124.857"/>
</g>
<!-- Node17&#45;&gt;Node13 -->
<g id="edge28" class="edge"><title>Node17&#45;&gt;Node13</title>
<path fill="none" stroke="midnightblue" d="M362.538,-150.007C409.089,-158.471 466.833,-168.97 512.229,-177.223"/>
<polygon fill="midnightblue" stroke="midnightblue" points="511.842,-180.71 522.307,-179.056 513.094,-173.823 511.842,-180.71"/>
</g>
<!-- Node18 -->
<g id="node19" class="node"><title>Node18</title>
<g id="a_node19"><a xlink:href="namespacecaiman_1_1source__extraction_1_1cnmf_1_1spatial.html#a618870d89b38009e6444a12357a31d3d" target="_top" xlink:title="test the shape of each matrix, reshape them, test the number of pixel per process ...">
<polygon fill="white" stroke="black" points="486.5,-137.5 486.5,-156.5 691.5,-156.5 691.5,-137.5 486.5,-137.5"/>
<text text-anchor="middle" x="589" y="-144.5" font-family="Helvetica,sans-Serif" font-size="10.00">caiman.source_extraction.cnmf.spatial.test</text>
</a>
</g>
</g>
<!-- Node17&#45;&gt;Node18 -->
<g id="edge22" class="edge"><title>Node17&#45;&gt;Node18</title>
<path fill="none" stroke="midnightblue" d="M389.023,-139.248C417.227,-140.347 447.638,-141.531 475.993,-142.636"/>
<polygon fill="midnightblue" stroke="midnightblue" points="476.21,-146.147 486.338,-143.039 476.482,-139.152 476.21,-146.147"/>
</g>
<!-- Node19 -->
<g id="node20" class="node"><title>Node19</title>
<g id="a_node20"><a xlink:href="namespacecaiman_1_1source__extraction_1_1cnmf_1_1spatial.html#aecc215caf3e87682f452e93ca491a477" target="_top" xlink:title="compute the indices of the distance from the cm to search for the spatial component (calling determin...">
<polygon fill="white" stroke="black" points="471.5,-88 471.5,-118 706.5,-118 706.5,-88 471.5,-88"/>
<text text-anchor="start" x="479.5" y="-106" font-family="Helvetica,sans-Serif" font-size="10.00">caiman.source_extraction.cnmf.spatial.computing</text>
<text text-anchor="middle" x="589" y="-95" font-family="Helvetica,sans-Serif" font-size="10.00">_indicator</text>
</a>
</g>
</g>
<!-- Node17&#45;&gt;Node19 -->
<g id="edge23" class="edge"><title>Node17&#45;&gt;Node19</title>
<path fill="none" stroke="midnightblue" d="M389.023,-123.673C412.341,-121.25 437.168,-118.671 461.094,-116.185"/>
<polygon fill="midnightblue" stroke="midnightblue" points="461.701,-119.641 471.286,-115.126 460.977,-112.678 461.701,-119.641"/>
</g>
<!-- Node21 -->
<g id="node22" class="node"><title>Node21</title>
<g id="a_node22"><a xlink:href="namespacecaiman_1_1source__extraction_1_1cnmf_1_1spatial.html#a894e2773dd1e79c2efac3c759ff2fe9c" target="_top" xlink:title="memmap the C and Y objects in parallel ">
<polygon fill="white" stroke="black" points="762.5,-49.5 762.5,-68.5 1021.5,-68.5 1021.5,-49.5 762.5,-49.5"/>
<text text-anchor="middle" x="892" y="-56.5" font-family="Helvetica,sans-Serif" font-size="10.00">caiman.source_extraction.cnmf.spatial.creatememmap</text>
</a>
</g>
</g>
<!-- Node17&#45;&gt;Node21 -->
<g id="edge25" class="edge"><title>Node17&#45;&gt;Node21</title>
<path fill="none" stroke="midnightblue" d="M315.807,-119.891C350.079,-106.215 403.578,-86.8929 452,-78 551.239,-59.7744 665.117,-55.3097 752.016,-55.2517"/>
<polygon fill="midnightblue" stroke="midnightblue" points="752.204,-58.7519 762.209,-55.265 752.213,-51.7519 752.204,-58.7519"/>
</g>
<!-- Node22 -->
<g id="node23" class="node"><title>Node22</title>
<g id="a_node23"><a xlink:href="namespacecaiman_1_1source__extraction_1_1cnmf_1_1spatial.html#a3fa5db8c88b06457233eb35dbcea3588" target="_top" xlink:title="Post&#45;processing of spatial components which includes the following steps. ">
<polygon fill="white" stroke="black" points="474,-0 474,-30 704,-30 704,-0 474,-0"/>
<text text-anchor="start" x="482" y="-18" font-family="Helvetica,sans-Serif" font-size="10.00">caiman.source_extraction.cnmf.spatial.threshold</text>
<text text-anchor="middle" x="589" y="-7" font-family="Helvetica,sans-Serif" font-size="10.00">_components</text>
</a>
</g>
</g>
<!-- Node17&#45;&gt;Node22 -->
<g id="edge27" class="edge"><title>Node17&#45;&gt;Node22</title>
<path fill="none" stroke="midnightblue" d="M303.842,-119.909C336.216,-100.039 396.431,-65.2589 452,-45 465.197,-40.1889 479.408,-36.0164 493.493,-32.4405"/>
<polygon fill="midnightblue" stroke="midnightblue" points="494.33,-35.839 503.21,-30.0597 492.664,-29.0401 494.33,-35.839"/>
</g>
<!-- Node20 -->
<g id="node21" class="node"><title>Node20</title>
<g id="a_node21"><a xlink:href="namespacecaiman_1_1source__extraction_1_1cnmf_1_1spatial.html#aca0edbf4c2cd31fe1a9c228c4099a485" target="_top" xlink:title="compute the indices of the distance from the cm to search for the spatial component ...">
<polygon fill="white" stroke="black" points="775,-88 775,-118 1009,-118 1009,-88 775,-88"/>
<text text-anchor="start" x="783" y="-106" font-family="Helvetica,sans-Serif" font-size="10.00">caiman.source_extraction.cnmf.spatial.determine</text>
<text text-anchor="middle" x="892" y="-95" font-family="Helvetica,sans-Serif" font-size="10.00">_search_location</text>
</a>
</g>
</g>
<!-- Node19&#45;&gt;Node20 -->
<g id="edge24" class="edge"><title>Node19&#45;&gt;Node20</title>
<path fill="none" stroke="midnightblue" d="M706.805,-103C725.716,-103 745.374,-103 764.502,-103"/>
<polygon fill="midnightblue" stroke="midnightblue" points="764.756,-106.5 774.756,-103 764.756,-99.5001 764.756,-106.5"/>
</g>
<!-- Node21&#45;&gt;Node15 -->
<g id="edge26" class="edge"><title>Node21&#45;&gt;Node15</title>
<path fill="none" stroke="midnightblue" d="M959.663,-68.5349C979.716,-71.4795 1001.77,-74.7934 1022,-78 1053.45,-82.9834 1088.2,-88.8308 1117.68,-93.8895"/>
<polygon fill="midnightblue" stroke="midnightblue" points="1117.42,-97.3964 1127.87,-95.6432 1118.6,-90.4978 1117.42,-97.3964"/>
</g>
</g>
</svg>
