<?xml version="1.0" encoding="UTF-8" standalone="no"?>
<!DOCTYPE svg PUBLIC "-//W3C//DTD SVG 1.1//EN"
 "http://www.w3.org/Graphics/SVG/1.1/DTD/svg11.dtd">
<!-- Generated by graphviz version 2.36.0 (20140111.2315)
 -->
<!-- Title: estimate_time_constant Pages: 1 -->
<svg width="306pt" height="28pt"
 viewBox="0.00 0.00 306.00 28.00" xmlns="http://www.w3.org/2000/svg" xmlns:xlink="http://www.w3.org/1999/xlink">
<g id="graph0" class="graph" transform="scale(1 1) rotate(0) translate(4 24)">
<title>estimate_time_constant</title>
<polygon fill="white" stroke="none" points="-4,4 -4,-24 302,-24 302,4 -4,4"/>
<!-- Node5 -->
<g id="node1" class="node"><title>Node5</title>
<polygon fill="#bfbfbf" stroke="black" points="0,-0.5 0,-19.5 122,-19.5 122,-0.5 0,-0.5"/>
<text text-anchor="middle" x="61" y="-7.5" font-family="Helvetica,sans-Serif" font-size="10.00">estimate_time_constant</text>
</g>
<!-- Node6 -->
<g id="node2" class="node"><title>Node6</title>
<g id="a_node2"><a xlink:href="namespacecaiman_1_1source__extraction_1_1cnmf_1_1pre__processing.html#a60941191e5c55d29e33ed6fa698f1844" target="_top" xlink:title="Compute the autocovariance of data at lag = &#45;maxlag:0:maxlag. ">
<polygon fill="white" stroke="black" points="158.5,-0.5 158.5,-19.5 201.5,-19.5 201.5,-0.5 158.5,-0.5"/>
<text text-anchor="middle" x="180" y="-7.5" font-family="Helvetica,sans-Serif" font-size="10.00">axcov</text>
</a>
</g>
</g>
<!-- Node5&#45;&gt;Node6 -->
<g id="edge1" class="edge"><title>Node5&#45;&gt;Node6</title>
<path fill="none" stroke="midnightblue" d="M122.214,-10C131.144,-10 140.022,-10 148.012,-10"/>
<polygon fill="midnightblue" stroke="midnightblue" points="148.281,-13.5001 158.281,-10 148.281,-6.5001 148.281,-13.5001"/>
</g>
<!-- Node7 -->
<g id="node3" class="node"><title>Node7</title>
<g id="a_node3"><a xlink:href="namespacecaiman_1_1source__extraction_1_1cnmf_1_1pre__processing.html#aebcfd66f32d95838dfa847044ee22a2b" target="_top" xlink:title="Find exponent such that 2^exponent is equal to or greater than abs(value). ">
<polygon fill="white" stroke="black" points="238.5,-0.5 238.5,-19.5 297.5,-19.5 297.5,-0.5 238.5,-0.5"/>
<text text-anchor="middle" x="268" y="-7.5" font-family="Helvetica,sans-Serif" font-size="10.00">nextpow2</text>
</a>
</g>
</g>
<!-- Node6&#45;&gt;Node7 -->
<g id="edge2" class="edge"><title>Node6&#45;&gt;Node7</title>
<path fill="none" stroke="midnightblue" d="M201.818,-10C209.764,-10 219.102,-10 228.188,-10"/>
<polygon fill="midnightblue" stroke="midnightblue" points="228.251,-13.5001 238.251,-10 228.251,-6.5001 228.251,-13.5001"/>
</g>
</g>
</svg>
