<?xml version="1.0" encoding="UTF-8" standalone="no"?>
<!DOCTYPE svg PUBLIC "-//W3C//DTD SVG 1.1//EN"
 "http://www.w3.org/Graphics/SVG/1.1/DTD/svg11.dtd">
<!-- Generated by graphviz version 2.36.0 (20140111.2315)
 -->
<!-- Title: select_roi Pages: 1 -->
<svg width="298pt" height="28pt"
 viewBox="0.00 0.00 298.00 28.00" xmlns="http://www.w3.org/2000/svg" xmlns:xlink="http://www.w3.org/1999/xlink">
<g id="graph0" class="graph" transform="scale(1 1) rotate(0) translate(4 24)">
<title>select_roi</title>
<polygon fill="white" stroke="none" points="-4,4 -4,-24 294,-24 294,4 -4,4"/>
<!-- Node42 -->
<g id="node1" class="node"><title>Node42</title>
<polygon fill="#bfbfbf" stroke="black" points="0.5,-0.5 0.5,-19.5 59.5,-19.5 59.5,-0.5 0.5,-0.5"/>
<text text-anchor="middle" x="30" y="-7.5" font-family="Helvetica,sans-Serif" font-size="10.00">select_roi</text>
</g>
<!-- Node43 -->
<g id="node2" class="node"><title>Node43</title>
<g id="a_node2"><a xlink:href="namespacecaiman_1_1behavior_1_1behavior.html#a513c5d7fc1e56d74ff55d4f74ee836a3" target="_top" xlink:title="main">
<polygon fill="white" stroke="black" points="96,-0.5 96,-19.5 134,-19.5 134,-0.5 96,-0.5"/>
<text text-anchor="middle" x="115" y="-7.5" font-family="Helvetica,sans-Serif" font-size="10.00">main</text>
</a>
</g>
</g>
<!-- Node42&#45;&gt;Node43 -->
<g id="edge1" class="edge"><title>Node42&#45;&gt;Node43</title>
<path fill="none" stroke="midnightblue" d="M69.6771,-10C78.7864,-10 88.078,-10 95.7853,-10"/>
<polygon fill="midnightblue" stroke="midnightblue" points="69.5639,-6.5001 59.5639,-10 69.5639,-13.5001 69.5639,-6.5001"/>
</g>
<!-- Node44 -->
<g id="node3" class="node"><title>Node44</title>
<g id="a_node3"><a xlink:href="namespacecaiman_1_1behavior_1_1behavior.html#ac7ebff37cde3a2bef4c8613654b60395" target="_top" xlink:title="Normalize the components using the std of the components obtaining using biunary masks. ">
<polygon fill="white" stroke="black" points="170,-0.5 170,-19.5 290,-19.5 290,-0.5 170,-0.5"/>
<text text-anchor="middle" x="230" y="-7.5" font-family="Helvetica,sans-Serif" font-size="10.00">normalize_components</text>
</a>
</g>
</g>
<!-- Node43&#45;&gt;Node44 -->
<g id="edge2" class="edge"><title>Node43&#45;&gt;Node44</title>
<path fill="none" stroke="midnightblue" d="M144.176,-4.0688C152.035,-3.57263 160.879,-3.30196 169.814,-3.25679"/>
<polygon fill="midnightblue" stroke="midnightblue" points="143.838,-0.58465 134.155,-4.88518 144.407,-7.56154 143.838,-0.58465"/>
</g>
<!-- Node44&#45;&gt;Node43 -->
<g id="edge3" class="edge"><title>Node44&#45;&gt;Node43</title>
<path fill="none" stroke="midnightblue" d="M159.55,-16.5899C150.223,-16.3555 141.394,-15.8638 134.155,-15.1148"/>
<polygon fill="midnightblue" stroke="midnightblue" points="159.762,-20.0933 169.814,-16.7432 159.867,-13.0941 159.762,-20.0933"/>
</g>
</g>
</svg>
