<?xml version="1.0" encoding="UTF-8" standalone="no"?>
<!DOCTYPE svg PUBLIC "-//W3C//DTD SVG 1.1//EN"
 "http://www.w3.org/Graphics/SVG/1.1/DTD/svg11.dtd">
<!-- Generated by graphviz version 2.36.0 (20140111.2315)
 -->
<!-- Title: nb_view_patches3d Pages: 1 -->
<svg width="304pt" height="77pt"
 viewBox="0.00 0.00 304.00 77.00" xmlns="http://www.w3.org/2000/svg" xmlns:xlink="http://www.w3.org/1999/xlink">
<g id="graph0" class="graph" transform="scale(1 1) rotate(0) translate(4 73)">
<title>nb_view_patches3d</title>
<polygon fill="white" stroke="none" points="-4,4 -4,-73 300,-73 300,4 -4,4"/>
<!-- Node31 -->
<g id="node1" class="node"><title>Node31</title>
<polygon fill="#bfbfbf" stroke="black" points="0.5,-0.5 0.5,-19.5 105.5,-19.5 105.5,-0.5 0.5,-0.5"/>
<text text-anchor="middle" x="53" y="-7.5" font-family="Helvetica,sans-Serif" font-size="10.00">nb_view_patches3d</text>
</g>
<!-- Node32 -->
<g id="node2" class="node"><title>Node32</title>
<g id="a_node2"><a xlink:href="namespacecaiman_1_1summary__images.html#ae17ab7076653cb3f5db43612a005c646" target="_top" xlink:title="Computes the correlation image for the input dataset Y. ">
<polygon fill="white" stroke="black" points="142,-39 142,-69 296,-69 296,-39 142,-39"/>
<text text-anchor="start" x="150" y="-57" font-family="Helvetica,sans-Serif" font-size="10.00">caiman.summary_images.local</text>
<text text-anchor="middle" x="219" y="-46" font-family="Helvetica,sans-Serif" font-size="10.00">_correlations</text>
</a>
</g>
</g>
<!-- Node31&#45;&gt;Node32 -->
<g id="edge1" class="edge"><title>Node31&#45;&gt;Node32</title>
<path fill="none" stroke="midnightblue" d="M89.5856,-19.5473C107.885,-24.457 130.783,-30.6004 152.156,-36.3347"/>
<polygon fill="midnightblue" stroke="midnightblue" points="151.282,-39.7237 161.847,-38.9346 153.096,-32.9628 151.282,-39.7237"/>
</g>
<!-- Node33 -->
<g id="node3" class="node"><title>Node33</title>
<g id="a_node3"><a xlink:href="namespacecaiman_1_1utils_1_1visualization.html#a16b7fa13b839c4162b7c08d924c31358" target="_top" xlink:title="Gets contour of spatial components and returns their coordinates. ">
<polygon fill="white" stroke="black" points="182,-0.5 182,-19.5 256,-19.5 256,-0.5 182,-0.5"/>
<text text-anchor="middle" x="219" y="-7.5" font-family="Helvetica,sans-Serif" font-size="10.00">get_contours</text>
</a>
</g>
</g>
<!-- Node31&#45;&gt;Node33 -->
<g id="edge2" class="edge"><title>Node31&#45;&gt;Node33</title>
<path fill="none" stroke="midnightblue" d="M105.891,-3.67188C127.004,-3.05393 151.21,-3.11484 171.713,-3.85462"/>
<polygon fill="midnightblue" stroke="midnightblue" points="171.614,-7.3535 181.756,-4.28771 171.916,-0.360003 171.614,-7.3535"/>
</g>
<!-- Node33&#45;&gt;Node31 -->
<g id="edge3" class="edge"><title>Node33&#45;&gt;Node31</title>
<path fill="none" stroke="midnightblue" d="M181.756,-15.7123C162.436,-16.6947 138.132,-16.9796 115.922,-16.5668"/>
<polygon fill="midnightblue" stroke="midnightblue" points="115.971,-13.0671 105.891,-16.3281 115.804,-20.0651 115.971,-13.0671"/>
</g>
</g>
</svg>
