<?xml version="1.0" encoding="UTF-8" standalone="no"?>
<!DOCTYPE svg PUBLIC "-//W3C//DTD SVG 1.1//EN"
 "http://www.w3.org/Graphics/SVG/1.1/DTD/svg11.dtd">
<!-- Generated by graphviz version 2.36.0 (20140111.2315)
 -->
<!-- Title: compute_optical_flow Pages: 1 -->
<svg width="472pt" height="66pt"
 viewBox="0.00 0.00 472.00 66.00" xmlns="http://www.w3.org/2000/svg" xmlns:xlink="http://www.w3.org/1999/xlink">
<g id="graph0" class="graph" transform="scale(1 1) rotate(0) translate(4 62)">
<title>compute_optical_flow</title>
<polygon fill="white" stroke="none" points="-4,4 -4,-62 468,-62 468,4 -4,4"/>
<!-- Node1 -->
<g id="node1" class="node"><title>Node1</title>
<polygon fill="#bfbfbf" stroke="black" points="0.5,-19.5 0.5,-38.5 113.5,-38.5 113.5,-19.5 0.5,-19.5"/>
<text text-anchor="middle" x="57" y="-26.5" font-family="Helvetica,sans-Serif" font-size="10.00">compute_optical_flow</text>
</g>
<!-- Node2 -->
<g id="node2" class="node"><title>Node2</title>
<g id="a_node2"><a xlink:href="namespacecaiman_1_1behavior_1_1behavior.html#a205588c7095003500c58a6b2f1effd09" target="_top" xlink:title="extract_motor_components_OF">
<polygon fill="white" stroke="black" points="150.5,-38.5 150.5,-57.5 307.5,-57.5 307.5,-38.5 150.5,-38.5"/>
<text text-anchor="middle" x="229" y="-45.5" font-family="Helvetica,sans-Serif" font-size="10.00">extract_motor_components_OF</text>
</a>
</g>
</g>
<!-- Node1&#45;&gt;Node2 -->
<g id="edge1" class="edge"><title>Node1&#45;&gt;Node2</title>
<path fill="none" stroke="midnightblue" d="M123.728,-36.3461C132.433,-37.3189 141.421,-38.3236 150.303,-39.3162"/>
<polygon fill="midnightblue" stroke="midnightblue" points="123.991,-32.8538 113.664,-35.2213 123.214,-39.8105 123.991,-32.8538"/>
</g>
<!-- Node3 -->
<g id="node3" class="node"><title>Node3</title>
<g id="a_node3"><a xlink:href="namespacecaiman_1_1behavior_1_1behavior.html#a513c5d7fc1e56d74ff55d4f74ee836a3" target="_top" xlink:title="main">
<polygon fill="white" stroke="black" points="210,-0.5 210,-19.5 248,-19.5 248,-0.5 210,-0.5"/>
<text text-anchor="middle" x="229" y="-7.5" font-family="Helvetica,sans-Serif" font-size="10.00">main</text>
</a>
</g>
</g>
<!-- Node1&#45;&gt;Node3 -->
<g id="edge2" class="edge"><title>Node1&#45;&gt;Node3</title>
<path fill="none" stroke="midnightblue" d="M124,-21.6235C154.954,-18.164 189.45,-14.3085 209.908,-12.0221"/>
<polygon fill="midnightblue" stroke="midnightblue" points="123.214,-18.1895 113.664,-22.7787 123.991,-25.1462 123.214,-18.1895"/>
</g>
<!-- Node4 -->
<g id="node4" class="node"><title>Node4</title>
<g id="a_node4"><a xlink:href="namespacecaiman_1_1behavior_1_1behavior.html#ac7ebff37cde3a2bef4c8613654b60395" target="_top" xlink:title="Normalize the components using the std of the components obtaining using biunary masks. ">
<polygon fill="white" stroke="black" points="344,-0.5 344,-19.5 464,-19.5 464,-0.5 344,-0.5"/>
<text text-anchor="middle" x="404" y="-7.5" font-family="Helvetica,sans-Serif" font-size="10.00">normalize_components</text>
</a>
</g>
</g>
<!-- Node3&#45;&gt;Node4 -->
<g id="edge3" class="edge"><title>Node3&#45;&gt;Node4</title>
<path fill="none" stroke="midnightblue" d="M258.333,-4.84915C281.449,-3.31508 314.891,-2.88474 343.8,-3.55812"/>
<polygon fill="midnightblue" stroke="midnightblue" points="257.876,-1.37447 248.187,-5.66105 258.434,-8.35217 257.876,-1.37447"/>
</g>
<!-- Node4&#45;&gt;Node3 -->
<g id="edge4" class="edge"><title>Node4&#45;&gt;Node3</title>
<path fill="none" stroke="midnightblue" d="M333.433,-16.6337C302.45,-17.0642 268.452,-16.2993 248.187,-14.3389"/>
<polygon fill="midnightblue" stroke="midnightblue" points="333.866,-20.1264 343.8,-16.4419 333.737,-13.1276 333.866,-20.1264"/>
</g>
</g>
</svg>
