<?xml version="1.0" encoding="UTF-8" standalone="no"?>
<!DOCTYPE svg PUBLIC "-//W3C//DTD SVG 1.1//EN"
 "http://www.w3.org/Graphics/SVG/1.1/DTD/svg11.dtd">
<!-- Generated by graphviz version 2.36.0 (20140111.2315)
 -->
<!-- Title: motion_correct_iteration Pages: 1 -->
<svg width="490pt" height="87pt"
 viewBox="0.00 0.00 490.00 87.00" xmlns="http://www.w3.org/2000/svg" xmlns:xlink="http://www.w3.org/1999/xlink">
<g id="graph0" class="graph" transform="scale(1 1) rotate(0) translate(4 83)">
<title>motion_correct_iteration</title>
<polygon fill="white" stroke="none" points="-4,4 -4,-83 486,-83 486,4 -4,4"/>
<!-- Node69 -->
<g id="node1" class="node"><title>Node69</title>
<polygon fill="#bfbfbf" stroke="black" points="0,-29.5 0,-48.5 124,-48.5 124,-29.5 0,-29.5"/>
<text text-anchor="middle" x="62" y="-36.5" font-family="Helvetica,sans-Serif" font-size="10.00">motion_correct_iteration</text>
</g>
<!-- Node70 -->
<g id="node2" class="node"><title>Node70</title>
<g id="a_node2"><a xlink:href="namespacecaiman_1_1motion__correction.html#a178e8317ba3a15bd5e072132ce6fa9f3" target="_top" xlink:title="motion_correct_online">
<polygon fill="white" stroke="black" points="160.5,-29.5 160.5,-48.5 275.5,-48.5 275.5,-29.5 160.5,-29.5"/>
<text text-anchor="middle" x="218" y="-36.5" font-family="Helvetica,sans-Serif" font-size="10.00">motion_correct_online</text>
</a>
</g>
</g>
<!-- Node69&#45;&gt;Node70 -->
<g id="edge1" class="edge"><title>Node69&#45;&gt;Node70</title>
<path fill="none" stroke="midnightblue" d="M134.454,-39C143.158,-39 151.957,-39 160.403,-39"/>
<polygon fill="midnightblue" stroke="midnightblue" points="134.307,-35.5001 124.307,-39 134.307,-42.5001 134.307,-35.5001"/>
</g>
<!-- Node71 -->
<g id="node3" class="node"><title>Node71</title>
<g id="a_node3"><a xlink:href="namespacecaiman_1_1motion__correction.html#aef9c5f795aeb47c5b86066492953fc4f" target="_top" xlink:title="motion_correct_online\l_multifile">
<polygon fill="white" stroke="black" points="339.5,-49 339.5,-79 454.5,-79 454.5,-49 339.5,-49"/>
<text text-anchor="start" x="347.5" y="-67" font-family="Helvetica,sans-Serif" font-size="10.00">motion_correct_online</text>
<text text-anchor="middle" x="397" y="-56" font-family="Helvetica,sans-Serif" font-size="10.00">_multifile</text>
</a>
</g>
</g>
<!-- Node70&#45;&gt;Node71 -->
<g id="edge2" class="edge"><title>Node70&#45;&gt;Node71</title>
<path fill="none" stroke="midnightblue" d="M286.159,-48.4858C303.723,-50.9666 322.48,-53.6158 339.431,-56.0101"/>
<polygon fill="midnightblue" stroke="midnightblue" points="286.369,-44.9808 275.978,-47.0478 285.39,-51.912 286.369,-44.9808"/>
</g>
<!-- Node72 -->
<g id="node4" class="node"><title>Node72</title>
<g id="a_node4"><a xlink:href="classcaiman_1_1base_1_1movies_1_1movie.html#a9ea3b23aad7b04c484259dc0f2117aed" target="_top" xlink:title="caiman.base.movies.movie.motion\l_correction_online">
<polygon fill="white" stroke="black" points="312,-0 312,-30 482,-30 482,-0 312,-0"/>
<text text-anchor="start" x="320" y="-18" font-family="Helvetica,sans-Serif" font-size="10.00">caiman.base.movies.movie.motion</text>
<text text-anchor="middle" x="397" y="-7" font-family="Helvetica,sans-Serif" font-size="10.00">_correction_online</text>
</a>
</g>
</g>
<!-- Node70&#45;&gt;Node72 -->
<g id="edge3" class="edge"><title>Node70&#45;&gt;Node72</title>
<path fill="none" stroke="midnightblue" d="M286.061,-29.907C294.457,-28.7686 303.126,-27.593 311.742,-26.4248"/>
<polygon fill="midnightblue" stroke="midnightblue" points="285.417,-26.4622 275.978,-31.2741 286.358,-33.3987 285.417,-26.4622"/>
</g>
</g>
</svg>
