<?xml version="1.0" encoding="UTF-8" standalone="no"?>
<!DOCTYPE svg PUBLIC "-//W3C//DTD SVG 1.1//EN"
 "http://www.w3.org/Graphics/SVG/1.1/DTD/svg11.dtd">
<!-- Generated by graphviz version 2.36.0 (20140111.2315)
 -->
<!-- Title: nb_view_patches3d Pages: 1 -->
<svg width="354pt" height="28pt"
 viewBox="0.00 0.00 354.00 28.00" xmlns="http://www.w3.org/2000/svg" xmlns:xlink="http://www.w3.org/1999/xlink">
<g id="graph0" class="graph" transform="scale(1 1) rotate(0) translate(4 24)">
<title>nb_view_patches3d</title>
<polygon fill="white" stroke="none" points="-4,4 -4,-24 350,-24 350,4 -4,4"/>
<!-- Node34 -->
<g id="node1" class="node"><title>Node34</title>
<polygon fill="#bfbfbf" stroke="black" points="0.5,-0.5 0.5,-19.5 105.5,-19.5 105.5,-0.5 0.5,-0.5"/>
<text text-anchor="middle" x="53" y="-7.5" font-family="Helvetica,sans-Serif" font-size="10.00">nb_view_patches3d</text>
</g>
<!-- Node35 -->
<g id="node2" class="node"><title>Node35</title>
<g id="a_node2"><a xlink:href="namespacecaiman_1_1utils_1_1visualization.html#a16b7fa13b839c4162b7c08d924c31358" target="_top" xlink:title="Gets contour of spatial components and returns their coordinates. ">
<polygon fill="white" stroke="black" points="142,-0.5 142,-19.5 216,-19.5 216,-0.5 142,-0.5"/>
<text text-anchor="middle" x="179" y="-7.5" font-family="Helvetica,sans-Serif" font-size="10.00">get_contours</text>
</a>
</g>
</g>
<!-- Node34&#45;&gt;Node35 -->
<g id="edge1" class="edge"><title>Node34&#45;&gt;Node35</title>
<path fill="none" stroke="midnightblue" d="M115.639,-3.2501C124.65,-3.24502 133.671,-3.43007 141.941,-3.80523"/>
<polygon fill="midnightblue" stroke="midnightblue" points="115.48,0.248764 105.51,-3.33662 115.539,-6.75098 115.48,0.248764"/>
</g>
<!-- Node35&#45;&gt;Node34 -->
<g id="edge3" class="edge"><title>Node35&#45;&gt;Node34</title>
<path fill="none" stroke="midnightblue" d="M131.762,-16.5523C123.203,-16.7713 114.214,-16.8084 105.51,-16.6634"/>
<polygon fill="midnightblue" stroke="midnightblue" points="132.07,-20.0437 141.941,-16.1948 131.825,-13.048 132.07,-20.0437"/>
</g>
<!-- Node36 -->
<g id="node3" class="node"><title>Node36</title>
<g id="a_node3"><a xlink:href="namespacecaiman_1_1utils_1_1visualization.html#a6954f6ef72e703af3959f02b7b4bb6d8" target="_top" xlink:title="Interactive plotting utility for ipython notbook. ">
<polygon fill="white" stroke="black" points="252,-0.5 252,-19.5 346,-19.5 346,-0.5 252,-0.5"/>
<text text-anchor="middle" x="299" y="-7.5" font-family="Helvetica,sans-Serif" font-size="10.00">nb_view_patches</text>
</a>
</g>
</g>
<!-- Node35&#45;&gt;Node36 -->
<g id="edge2" class="edge"><title>Node35&#45;&gt;Node36</title>
<path fill="none" stroke="midnightblue" d="M226.083,-10C234.503,-10 243.292,-10 251.718,-10"/>
<polygon fill="midnightblue" stroke="midnightblue" points="226.045,-6.5001 216.045,-10 226.045,-13.5001 226.045,-6.5001"/>
</g>
</g>
</svg>
