<?xml version="1.0" encoding="UTF-8" standalone="no"?>
<!DOCTYPE svg PUBLIC "-//W3C//DTD SVG 1.1//EN"
 "http://www.w3.org/Graphics/SVG/1.1/DTD/svg11.dtd">
<!-- Generated by graphviz version 2.36.0 (20140111.2315)
 -->
<!-- Title: loadmat_sbx Pages: 1 -->
<svg width="274pt" height="28pt"
 viewBox="0.00 0.00 274.00 28.00" xmlns="http://www.w3.org/2000/svg" xmlns:xlink="http://www.w3.org/1999/xlink">
<g id="graph0" class="graph" transform="scale(1 1) rotate(0) translate(4 24)">
<title>loadmat_sbx</title>
<polygon fill="white" stroke="none" points="-4,4 -4,-24 270,-24 270,4 -4,4"/>
<!-- Node38 -->
<g id="node1" class="node"><title>Node38</title>
<polygon fill="#bfbfbf" stroke="black" points="0.5,-0.5 0.5,-19.5 73.5,-19.5 73.5,-0.5 0.5,-0.5"/>
<text text-anchor="middle" x="37" y="-7.5" font-family="Helvetica,sans-Serif" font-size="10.00">loadmat_sbx</text>
</g>
<!-- Node39 -->
<g id="node2" class="node"><title>Node39</title>
<g id="a_node2"><a xlink:href="namespacecaiman_1_1base_1_1movies.html#abb80862aafd574c59a95c0b24268be69" target="_top" xlink:title="_check_keys">
<polygon fill="white" stroke="black" points="110,-0.5 110,-19.5 184,-19.5 184,-0.5 110,-0.5"/>
<text text-anchor="middle" x="147" y="-7.5" font-family="Helvetica,sans-Serif" font-size="10.00">_check_keys</text>
</a>
</g>
</g>
<!-- Node38&#45;&gt;Node39 -->
<g id="edge1" class="edge"><title>Node38&#45;&gt;Node39</title>
<path fill="none" stroke="midnightblue" d="M73.6626,-10C81.9648,-10 90.9233,-10 99.6134,-10"/>
<polygon fill="midnightblue" stroke="midnightblue" points="99.6361,-13.5001 109.636,-10 99.636,-6.5001 99.6361,-13.5001"/>
</g>
<!-- Node40 -->
<g id="node3" class="node"><title>Node40</title>
<g id="a_node3"><a xlink:href="namespacecaiman_1_1base_1_1movies.html#a3678b9e2ae337ad61ebe7630c5e08ead" target="_top" xlink:title="A recursive function which constructs from matobjects nested dictionaries. ">
<polygon fill="white" stroke="black" points="220,-0.5 220,-19.5 266,-19.5 266,-0.5 220,-0.5"/>
<text text-anchor="middle" x="243" y="-7.5" font-family="Helvetica,sans-Serif" font-size="10.00">_todict</text>
</a>
</g>
</g>
<!-- Node39&#45;&gt;Node40 -->
<g id="edge2" class="edge"><title>Node39&#45;&gt;Node40</title>
<path fill="none" stroke="midnightblue" d="M184.074,-10C192.52,-10 201.464,-10 209.731,-10"/>
<polygon fill="midnightblue" stroke="midnightblue" points="209.753,-13.5001 219.753,-10 209.753,-6.5001 209.753,-13.5001"/>
</g>
</g>
</svg>
