<?xml version="1.0" encoding="UTF-8" standalone="no"?>
<!DOCTYPE svg PUBLIC "-//W3C//DTD SVG 1.1//EN"
 "http://www.w3.org/Graphics/SVG/1.1/DTD/svg11.dtd">
<!-- Generated by graphviz version 2.36.0 (20140111.2315)
 -->
<!-- Title: normalize_components Pages: 1 -->
<svg width="352pt" height="142pt"
 viewBox="0.00 0.00 352.00 142.00" xmlns="http://www.w3.org/2000/svg" xmlns:xlink="http://www.w3.org/1999/xlink">
<g id="graph0" class="graph" transform="scale(1 1) rotate(0) translate(4 138)">
<title>normalize_components</title>
<polygon fill="white" stroke="none" points="-4,4 -4,-138 348,-138 348,4 -4,4"/>
<!-- Node29 -->
<g id="node1" class="node"><title>Node29</title>
<polygon fill="#bfbfbf" stroke="black" points="0,-57.5 0,-76.5 120,-76.5 120,-57.5 0,-57.5"/>
<text text-anchor="middle" x="60" y="-64.5" font-family="Helvetica,sans-Serif" font-size="10.00">normalize_components</text>
</g>
<!-- Node30 -->
<g id="node2" class="node"><title>Node30</title>
<g id="a_node2"><a xlink:href="namespacecaiman_1_1behavior_1_1behavior.html#a513c5d7fc1e56d74ff55d4f74ee836a3" target="_top" xlink:title="main">
<polygon fill="white" stroke="black" points="156,-57.5 156,-76.5 194,-76.5 194,-57.5 156,-57.5"/>
<text text-anchor="middle" x="175" y="-64.5" font-family="Helvetica,sans-Serif" font-size="10.00">main</text>
</a>
</g>
</g>
<!-- Node29&#45;&gt;Node30 -->
<g id="edge1" class="edge"><title>Node29&#45;&gt;Node30</title>
<path fill="none" stroke="midnightblue" d="M120.148,-60.2566C129.105,-60.3012 137.974,-60.5725 145.851,-61.0705"/>
<polygon fill="midnightblue" stroke="midnightblue" points="145.64,-64.5649 155.892,-61.89 146.21,-57.5881 145.64,-64.5649"/>
</g>
<!-- Node30&#45;&gt;Node29 -->
<g id="edge5" class="edge"><title>Node30&#45;&gt;Node29</title>
<path fill="none" stroke="midnightblue" d="M155.892,-72.11C148.641,-72.862 139.79,-73.3554 130.438,-73.5902"/>
<polygon fill="midnightblue" stroke="midnightblue" points="130.094,-70.0948 120.148,-73.7434 130.199,-77.094 130.094,-70.0948"/>
</g>
<!-- Node31 -->
<g id="node3" class="node"><title>Node31</title>
<g id="a_node3"><a xlink:href="namespacecaiman_1_1behavior_1_1behavior.html#ac24ea957986e39f33ac3ceb78ed989d1" target="_top" xlink:title="Create a mask from a the convex polygon enclosed between selected points. ">
<polygon fill="white" stroke="black" points="257.5,-114.5 257.5,-133.5 316.5,-133.5 316.5,-114.5 257.5,-114.5"/>
<text text-anchor="middle" x="287" y="-121.5" font-family="Helvetica,sans-Serif" font-size="10.00">select_roi</text>
</a>
</g>
</g>
<!-- Node30&#45;&gt;Node31 -->
<g id="edge2" class="edge"><title>Node30&#45;&gt;Node31</title>
<path fill="none" stroke="midnightblue" d="M187.804,-76.8105C198.341,-85.1898 214.466,-97.1062 230,-105 235.646,-107.869 241.823,-110.459 247.946,-112.737"/>
<polygon fill="midnightblue" stroke="midnightblue" points="246.847,-116.06 257.442,-116.056 249.157,-109.452 246.847,-116.06"/>
</g>
<!-- Node32 -->
<g id="node4" class="node"><title>Node32</title>
<g id="a_node4"><a xlink:href="namespacecaiman_1_1behavior_1_1behavior.html#a8f9ed50a7ba21081b068bf7967f74e09" target="_top" xlink:title="This function compute the optical flow of behavioral movies using the opencv cv2.calcOpticalFlowFarne...">
<polygon fill="white" stroke="black" points="230.5,-76.5 230.5,-95.5 343.5,-95.5 343.5,-76.5 230.5,-76.5"/>
<text text-anchor="middle" x="287" y="-83.5" font-family="Helvetica,sans-Serif" font-size="10.00">compute_optical_flow</text>
</a>
</g>
</g>
<!-- Node30&#45;&gt;Node32 -->
<g id="edge3" class="edge"><title>Node30&#45;&gt;Node32</title>
<path fill="none" stroke="midnightblue" d="M194.164,-70.1375C201.761,-71.4497 211.094,-73.0617 220.869,-74.7501"/>
<polygon fill="midnightblue" stroke="midnightblue" points="220.293,-78.2024 230.743,-76.4556 221.485,-71.3046 220.293,-78.2024"/>
</g>
<!-- Node33 -->
<g id="node5" class="node"><title>Node33</title>
<g id="a_node5"><a xlink:href="namespacecaiman_1_1behavior_1_1behavior.html#ab7ca16e11cc59cf634fcdd9a2c6848f6" target="_top" xlink:title="From optical flow images can extract spatial and temporal components. ">
<polygon fill="white" stroke="black" points="233.5,-38.5 233.5,-57.5 340.5,-57.5 340.5,-38.5 233.5,-38.5"/>
<text text-anchor="middle" x="287" y="-45.5" font-family="Helvetica,sans-Serif" font-size="10.00">extract_components</text>
</a>
</g>
</g>
<!-- Node30&#45;&gt;Node33 -->
<g id="edge4" class="edge"><title>Node30&#45;&gt;Node33</title>
<path fill="none" stroke="midnightblue" d="M194.164,-63.8625C202.303,-62.4568 212.433,-60.707 222.966,-58.8878"/>
<polygon fill="midnightblue" stroke="midnightblue" points="223.876,-62.2824 233.135,-57.1313 222.685,-55.3845 223.876,-62.2824"/>
</g>
<!-- Node34 -->
<g id="node6" class="node"><title>Node34</title>
<g id="a_node6"><a xlink:href="namespacecaiman_1_1behavior_1_1behavior.html#abd4cdefdebaf9128bc642c37c14eeec1" target="_top" xlink:title="%% single featureflow,. ">
<polygon fill="white" stroke="black" points="240.5,-0.5 240.5,-19.5 333.5,-19.5 333.5,-0.5 240.5,-0.5"/>
<text text-anchor="middle" x="287" y="-7.5" font-family="Helvetica,sans-Serif" font-size="10.00">plot_components</text>
</a>
</g>
</g>
<!-- Node30&#45;&gt;Node34 -->
<g id="edge6" class="edge"><title>Node30&#45;&gt;Node34</title>
<path fill="none" stroke="midnightblue" d="M187.804,-57.1895C198.341,-48.8102 214.466,-36.8938 230,-29 234.239,-26.846 238.777,-24.8495 243.367,-23.0241"/>
<polygon fill="midnightblue" stroke="midnightblue" points="244.63,-26.2885 252.783,-19.5216 242.19,-19.7277 244.63,-26.2885"/>
</g>
</g>
</svg>
