<?xml version="1.0" encoding="UTF-8" standalone="no"?>
<!DOCTYPE svg PUBLIC "-//W3C//DTD SVG 1.1//EN"
 "http://www.w3.org/Graphics/SVG/1.1/DTD/svg11.dtd">
<!-- Generated by graphviz version 2.36.0 (20140111.2315)
 -->
<!-- Title: nb_imshow Pages: 1 -->
<svg width="464pt" height="47pt"
 viewBox="0.00 0.00 464.00 47.00" xmlns="http://www.w3.org/2000/svg" xmlns:xlink="http://www.w3.org/1999/xlink">
<g id="graph0" class="graph" transform="scale(1 1) rotate(0) translate(4 43)">
<title>nb_imshow</title>
<polygon fill="white" stroke="none" points="-4,4 -4,-43 460,-43 460,4 -4,4"/>
<!-- Node14 -->
<g id="node1" class="node"><title>Node14</title>
<polygon fill="#bfbfbf" stroke="black" points="0.5,-19.5 0.5,-38.5 67.5,-38.5 67.5,-19.5 0.5,-19.5"/>
<text text-anchor="middle" x="34" y="-26.5" font-family="Helvetica,sans-Serif" font-size="10.00">nb_imshow</text>
</g>
<!-- Node15 -->
<g id="node2" class="node"><title>Node15</title>
<g id="a_node2"><a xlink:href="namespacecaiman_1_1utils_1_1visualization.html#aa6b9002875d7d86524868e7d795a4f3f" target="_top" xlink:title="Interactive Equivalent of plot_contours for ipython notebook. ">
<polygon fill="white" stroke="black" points="104,-19.5 104,-38.5 192,-38.5 192,-19.5 104,-19.5"/>
<text text-anchor="middle" x="148" y="-26.5" font-family="Helvetica,sans-Serif" font-size="10.00">nb_plot_contour</text>
</a>
</g>
</g>
<!-- Node14&#45;&gt;Node15 -->
<g id="edge1" class="edge"><title>Node14&#45;&gt;Node15</title>
<path fill="none" stroke="midnightblue" d="M67.6961,-22.7989C75.771,-22.3961 84.6328,-22.215 93.4151,-22.2556"/>
<polygon fill="midnightblue" stroke="midnightblue" points="93.5864,-25.7584 103.637,-22.4051 93.6888,-18.7591 93.5864,-25.7584"/>
</g>
<!-- Node15&#45;&gt;Node14 -->
<g id="edge2" class="edge"><title>Node15&#45;&gt;Node14</title>
<path fill="none" stroke="midnightblue" d="M103.637,-35.5949C95.1422,-35.8067 86.2387,-35.8016 77.7641,-35.5796"/>
<polygon fill="midnightblue" stroke="midnightblue" points="77.8206,-32.0793 67.6961,-35.2011 77.5576,-39.0744 77.8206,-32.0793"/>
</g>
<!-- Node16 -->
<g id="node3" class="node"><title>Node16</title>
<g id="a_node3"><a xlink:href="namespacecaiman_1_1base_1_1rois.html#ae37bc9f1a4e815bd7d8e44a2334883a2" target="_top" xlink:title="Calculation of the center of mass for spatial components. ">
<polygon fill="white" stroke="black" points="342,-19.5 342,-38.5 456,-38.5 456,-19.5 342,-19.5"/>
<text text-anchor="middle" x="399" y="-26.5" font-family="Helvetica,sans-Serif" font-size="10.00">caiman.base.rois.com</text>
</a>
</g>
</g>
<!-- Node15&#45;&gt;Node16 -->
<g id="edge3" class="edge"><title>Node15&#45;&gt;Node16</title>
<path fill="none" stroke="midnightblue" d="M192.088,-29C230.57,-29 287.531,-29 331.795,-29"/>
<polygon fill="midnightblue" stroke="midnightblue" points="331.893,-32.5001 341.893,-29 331.893,-25.5001 331.893,-32.5001"/>
</g>
<!-- Node17 -->
<g id="node4" class="node"><title>Node17</title>
<g id="a_node4"><a xlink:href="namespacecaiman_1_1utils_1_1visualization.html#ad48f24a70009a82e7a8cafa02e283a0e" target="_top" xlink:title="Plots contour of spatial components against a background image and returns their coordinates. ">
<polygon fill="white" stroke="black" points="228.5,-0.5 228.5,-19.5 305.5,-19.5 305.5,-0.5 228.5,-0.5"/>
<text text-anchor="middle" x="267" y="-7.5" font-family="Helvetica,sans-Serif" font-size="10.00">plot_contours</text>
</a>
</g>
</g>
<!-- Node15&#45;&gt;Node17 -->
<g id="edge4" class="edge"><title>Node15&#45;&gt;Node17</title>
<path fill="none" stroke="midnightblue" d="M192.234,-21.9791C200.749,-20.5963 209.729,-19.1381 218.379,-17.7333"/>
<polygon fill="midnightblue" stroke="midnightblue" points="219.026,-21.1743 228.335,-16.1165 217.903,-14.2648 219.026,-21.1743"/>
</g>
<!-- Node17&#45;&gt;Node16 -->
<g id="edge5" class="edge"><title>Node17&#45;&gt;Node16</title>
<path fill="none" stroke="midnightblue" d="M305.601,-15.4956C313.774,-16.69 322.654,-17.9879 331.57,-19.2909"/>
<polygon fill="midnightblue" stroke="midnightblue" points="331.214,-22.7761 341.615,-20.7591 332.226,-15.8497 331.214,-22.7761"/>
</g>
</g>
</svg>
