<?xml version="1.0" encoding="UTF-8" standalone="no"?>
<!DOCTYPE svg PUBLIC "-//W3C//DTD SVG 1.1//EN"
 "http://www.w3.org/Graphics/SVG/1.1/DTD/svg11.dtd">
<!-- Generated by graphviz version 2.36.0 (20140111.2315)
 -->
<!-- Title: constrained_foopsi Pages: 1 -->
<svg width="610pt" height="131pt"
 viewBox="0.00 0.00 610.00 131.00" xmlns="http://www.w3.org/2000/svg" xmlns:xlink="http://www.w3.org/1999/xlink">
<g id="graph0" class="graph" transform="scale(1 1) rotate(0) translate(4 127)">
<title>constrained_foopsi</title>
<polygon fill="white" stroke="none" points="-4,4 -4,-127 606,-127 606,4 -4,4"/>
<!-- Node32 -->
<g id="node1" class="node"><title>Node32</title>
<polygon fill="#bfbfbf" stroke="black" points="0,-49.5 0,-68.5 100,-68.5 100,-49.5 0,-49.5"/>
<text text-anchor="middle" x="50" y="-56.5" font-family="Helvetica,sans-Serif" font-size="10.00">constrained_foopsi</text>
</g>
<!-- Node33 -->
<g id="node2" class="node"><title>Node33</title>
<g id="a_node2"><a xlink:href="namespacecaiman_1_1source__extraction_1_1cnmf_1_1merging.html#ad08adf2e086a22ef379b10ed3ee36936" target="_top" xlink:title="Merging of spatially overlapping components that have highly correlated temporal activity The correla...">
<polygon fill="white" stroke="black" points="149.5,-93 149.5,-123 374.5,-123 374.5,-93 149.5,-93"/>
<text text-anchor="start" x="157.5" y="-111" font-family="Helvetica,sans-Serif" font-size="10.00">caiman.source_extraction.cnmf.merging.merge</text>
<text text-anchor="middle" x="262" y="-100" font-family="Helvetica,sans-Serif" font-size="10.00">_components</text>
</a>
</g>
</g>
<!-- Node32&#45;&gt;Node33 -->
<g id="edge1" class="edge"><title>Node32&#45;&gt;Node33</title>
<path fill="none" stroke="midnightblue" d="M92.4388,-71.3978C106.236,-75.3388 121.725,-79.5626 136,-83 150.523,-86.4971 166.078,-89.8881 181.111,-92.9858"/>
<polygon fill="midnightblue" stroke="midnightblue" points="93.3116,-68.0068 82.733,-68.5934 91.3684,-74.7318 93.3116,-68.0068"/>
</g>
<!-- Node34 -->
<g id="node3" class="node"><title>Node34</title>
<g id="a_node3"><a xlink:href="namespacecaiman_1_1source__extraction_1_1cnmf_1_1temporal.html#a2ede407f1e0d0722f51ddb6e99f48f9f" target="_top" xlink:title="necessary for parallel computation of the function constrained_foopsi ">
<polygon fill="white" stroke="black" points="136.5,-44 136.5,-74 387.5,-74 387.5,-44 136.5,-44"/>
<text text-anchor="start" x="144.5" y="-62" font-family="Helvetica,sans-Serif" font-size="10.00">caiman.source_extraction.cnmf.temporal.constrained</text>
<text text-anchor="middle" x="262" y="-51" font-family="Helvetica,sans-Serif" font-size="10.00">_foopsi_parallel</text>
</a>
</g>
</g>
<!-- Node32&#45;&gt;Node34 -->
<g id="edge2" class="edge"><title>Node32&#45;&gt;Node34</title>
<path fill="none" stroke="midnightblue" d="M110.461,-59C118.748,-59 127.505,-59 136.458,-59"/>
<polygon fill="midnightblue" stroke="midnightblue" points="110.236,-55.5001 100.236,-59 110.236,-62.5001 110.236,-55.5001"/>
</g>
<!-- Node35 -->
<g id="node4" class="node"><title>Node35</title>
<g id="a_node4"><a xlink:href="namespacecaiman_1_1tests_1_1test__deconvolution.html#aaebeed7ce9541fa4c56791c67009cdc6" target="_top" xlink:title="caiman.tests.test_deconvolution.foo">
<polygon fill="white" stroke="black" points="174.5,-5.5 174.5,-24.5 349.5,-24.5 349.5,-5.5 174.5,-5.5"/>
<text text-anchor="middle" x="262" y="-12.5" font-family="Helvetica,sans-Serif" font-size="10.00">caiman.tests.test_deconvolution.foo</text>
</a>
</g>
</g>
<!-- Node32&#45;&gt;Node35 -->
<g id="edge3" class="edge"><title>Node32&#45;&gt;Node35</title>
<path fill="none" stroke="midnightblue" d="M91.3239,-46.5757C105.373,-42.5243 121.299,-38.2399 136,-35 154.136,-31.0031 173.918,-27.4657 192.284,-24.52"/>
<polygon fill="midnightblue" stroke="midnightblue" points="90.0802,-43.293 81.4697,-49.4663 92.0506,-50.01 90.0802,-43.293"/>
</g>
<!-- Node36 -->
<g id="node5" class="node"><title>Node36</title>
<g id="a_node5"><a xlink:href="namespacecaiman_1_1tests_1_1test__deconvolution.html#a90f82ae854f8179179664fe34973f11b" target="_top" xlink:title="caiman.tests.test_deconvolution.test\l_oasis">
<polygon fill="white" stroke="black" points="424,-0 424,-30 602,-30 602,-0 424,-0"/>
<text text-anchor="start" x="432" y="-18" font-family="Helvetica,sans-Serif" font-size="10.00">caiman.tests.test_deconvolution.test</text>
<text text-anchor="middle" x="513" y="-7" font-family="Helvetica,sans-Serif" font-size="10.00">_oasis</text>
</a>
</g>
</g>
<!-- Node35&#45;&gt;Node36 -->
<g id="edge4" class="edge"><title>Node35&#45;&gt;Node36</title>
<path fill="none" stroke="midnightblue" d="M359.975,-15C381.031,-15 403.193,-15 423.885,-15"/>
<polygon fill="midnightblue" stroke="midnightblue" points="359.739,-11.5001 349.739,-15 359.739,-18.5001 359.739,-11.5001"/>
</g>
</g>
</svg>
