<?xml version="1.0" encoding="UTF-8" standalone="no"?>
<!DOCTYPE svg PUBLIC "-//W3C//DTD SVG 1.1//EN"
 "http://www.w3.org/Graphics/SVG/1.1/DTD/svg11.dtd">
<!-- Generated by graphviz version 2.36.0 (20140111.2315)
 -->
<!-- Title: tile_and_correct_wrapper Pages: 1 -->
<svg width="612pt" height="210pt"
 viewBox="0.00 0.00 612.00 210.00" xmlns="http://www.w3.org/2000/svg" xmlns:xlink="http://www.w3.org/1999/xlink">
<g id="graph0" class="graph" transform="scale(1 1) rotate(0) translate(4 206)">
<title>tile_and_correct_wrapper</title>
<polygon fill="white" stroke="none" points="-4,4 -4,-206 608,-206 608,4 -4,4"/>
<!-- Node118 -->
<g id="node1" class="node"><title>Node118</title>
<polygon fill="#bfbfbf" stroke="black" points="0.5,-49.5 0.5,-68.5 129.5,-68.5 129.5,-49.5 0.5,-49.5"/>
<text text-anchor="middle" x="65" y="-56.5" font-family="Helvetica,sans-Serif" font-size="10.00">tile_and_correct_wrapper</text>
</g>
<!-- Node119 -->
<g id="node2" class="node"><title>Node119</title>
<g id="a_node2"><a xlink:href="namespacecaiman_1_1motion__correction.html#aea060208c09f0e4fb01e6d31b9acf36f" target="_top" xlink:title="perform piecewise rigid motion correction iteration, by 1) dividing the FOV in patches 2) motion corr...">
<polygon fill="white" stroke="black" points="195,-68.5 195,-87.5 283,-87.5 283,-68.5 195,-68.5"/>
<text text-anchor="middle" x="239" y="-75.5" font-family="Helvetica,sans-Serif" font-size="10.00">tile_and_correct</text>
</a>
</g>
</g>
<!-- Node118&#45;&gt;Node119 -->
<g id="edge1" class="edge"><title>Node118&#45;&gt;Node119</title>
<path fill="none" stroke="midnightblue" d="M129.558,-66.0209C147.717,-68.0269 167.311,-70.1914 184.783,-72.1213"/>
<polygon fill="midnightblue" stroke="midnightblue" points="184.474,-75.6084 194.797,-73.2276 185.242,-68.6507 184.474,-75.6084"/>
</g>
<!-- Node127 -->
<g id="node10" class="node"><title>Node127</title>
<g id="a_node10"><a xlink:href="namespacecaiman_1_1motion__correction.html#a0609d5c64bb9cae41d945bbc89535d2a" target="_top" xlink:title="motion_correction_piecewise">
<polygon fill="white" stroke="black" points="166.5,-30.5 166.5,-49.5 311.5,-49.5 311.5,-30.5 166.5,-30.5"/>
<text text-anchor="middle" x="239" y="-37.5" font-family="Helvetica,sans-Serif" font-size="10.00">motion_correction_piecewise</text>
</a>
</g>
</g>
<!-- Node118&#45;&gt;Node127 -->
<g id="edge11" class="edge"><title>Node118&#45;&gt;Node127</title>
<path fill="none" stroke="midnightblue" d="M129.558,-51.9791C138.249,-51.019 147.269,-50.0226 156.227,-49.033"/>
<polygon fill="midnightblue" stroke="midnightblue" points="156.74,-52.4978 166.295,-47.9209 155.971,-45.5401 156.74,-52.4978"/>
</g>
<!-- Node120 -->
<g id="node3" class="node"><title>Node120</title>
<g id="a_node3"><a xlink:href="namespacecaiman_1_1motion__correction.html#a0700d66a3a6b2556b1c712daf9c18a9b" target="_top" xlink:title="register_translation">
<polygon fill="white" stroke="black" points="353,-163.5 353,-182.5 455,-182.5 455,-163.5 353,-163.5"/>
<text text-anchor="middle" x="404" y="-170.5" font-family="Helvetica,sans-Serif" font-size="10.00">register_translation</text>
</a>
</g>
</g>
<!-- Node119&#45;&gt;Node120 -->
<g id="edge2" class="edge"><title>Node119&#45;&gt;Node120</title>
<path fill="none" stroke="midnightblue" d="M251.293,-87.5827C270.226,-103.258 310.036,-134.576 348,-154 352.056,-156.075 356.389,-158.008 360.776,-159.786"/>
<polygon fill="midnightblue" stroke="midnightblue" points="359.789,-163.155 370.381,-163.422 362.268,-156.608 359.789,-163.155"/>
</g>
<!-- Node123 -->
<g id="node6" class="node"><title>Node123</title>
<g id="a_node6"><a xlink:href="namespacecaiman_1_1motion__correction.html#a54e0e94e8c54dadcad8bc6688e46c590" target="_top" xlink:title="apply_shift_iteration">
<polygon fill="white" stroke="black" points="351.5,-125.5 351.5,-144.5 456.5,-144.5 456.5,-125.5 351.5,-125.5"/>
<text text-anchor="middle" x="404" y="-132.5" font-family="Helvetica,sans-Serif" font-size="10.00">apply_shift_iteration</text>
</a>
</g>
</g>
<!-- Node119&#45;&gt;Node123 -->
<g id="edge5" class="edge"><title>Node119&#45;&gt;Node123</title>
<path fill="none" stroke="midnightblue" d="M267.059,-87.569C288.895,-95.279 320.41,-106.381 348,-116 353.683,-117.981 359.7,-120.07 365.587,-122.108"/>
<polygon fill="midnightblue" stroke="midnightblue" points="364.697,-125.503 375.292,-125.462 366.984,-118.887 364.697,-125.503"/>
</g>
<!-- Node124 -->
<g id="node7" class="node"><title>Node124</title>
<g id="a_node7"><a xlink:href="namespacecaiman_1_1motion__correction.html#ad4fabc7e2b2082da438e99a60ca41d96" target="_top" xlink:title="apply_shifts_dft">
<polygon fill="white" stroke="black" points="361,-87.5 361,-106.5 447,-106.5 447,-87.5 361,-87.5"/>
<text text-anchor="middle" x="404" y="-94.5" font-family="Helvetica,sans-Serif" font-size="10.00">apply_shifts_dft</text>
</a>
</g>
</g>
<!-- Node119&#45;&gt;Node124 -->
<g id="edge6" class="edge"><title>Node119&#45;&gt;Node124</title>
<path fill="none" stroke="midnightblue" d="M283.253,-83.0418C304.015,-85.4619 329.061,-88.3813 350.867,-90.9232"/>
<polygon fill="midnightblue" stroke="midnightblue" points="350.617,-94.4176 360.955,-92.099 351.427,-87.4647 350.617,-94.4176"/>
</g>
<!-- Node125 -->
<g id="node8" class="node"><title>Node125</title>
<g id="a_node8"><a xlink:href="namespacecaiman_1_1motion__correction.html#aef362667b31a29dfcc1a0c35c87f01ad" target="_top" xlink:title="efficiently and lazily slides a window across the image Parameters img:ndarray 2D image that needs to...">
<polygon fill="white" stroke="black" points="508,-27.5 508,-46.5 592,-46.5 592,-27.5 508,-27.5"/>
<text text-anchor="middle" x="550" y="-34.5" font-family="Helvetica,sans-Serif" font-size="10.00">sliding_window</text>
</a>
</g>
</g>
<!-- Node119&#45;&gt;Node125 -->
<g id="edge7" class="edge"><title>Node119&#45;&gt;Node125</title>
<path fill="none" stroke="midnightblue" d="M283.29,-72.256C339.658,-64.7768 438.038,-51.7231 497.973,-43.7706"/>
<polygon fill="midnightblue" stroke="midnightblue" points="498.52,-47.2287 507.973,-42.4437 497.599,-40.2896 498.52,-47.2287"/>
</g>
<!-- Node126 -->
<g id="node9" class="node"><title>Node126</title>
<g id="a_node9"><a xlink:href="namespacecaiman_1_1motion__correction.html#a88ef513cfa324fc8548e4fb46d7a67e5" target="_top" xlink:title="create a matrix that is used to normalize the intersection of the stiched patches ...">
<polygon fill="white" stroke="black" points="348,-0 348,-30 460,-30 460,-0 348,-0"/>
<text text-anchor="start" x="356" y="-18" font-family="Helvetica,sans-Serif" font-size="10.00">create_weight_matrix</text>
<text text-anchor="middle" x="404" y="-7" font-family="Helvetica,sans-Serif" font-size="10.00">_for_blending</text>
</a>
</g>
</g>
<!-- Node119&#45;&gt;Node126 -->
<g id="edge8" class="edge"><title>Node119&#45;&gt;Node126</title>
<path fill="none" stroke="midnightblue" d="M254.048,-68.4149C268.742,-62.9429 292.357,-57.2638 312,-50 324.208,-45.4856 336.981,-39.8936 348.967,-34.4462"/>
<polygon fill="midnightblue" stroke="midnightblue" points="350.751,-37.4788 358.384,-30.1319 347.835,-31.1148 350.751,-37.4788"/>
</g>
<!-- Node121 -->
<g id="node4" class="node"><title>Node121</title>
<g id="a_node4"><a xlink:href="namespacecaiman_1_1motion__correction.html#aa339d12f180017a763175f450816f158" target="_top" xlink:title="_upsampled_dft">
<polygon fill="white" stroke="black" points="506,-182.5 506,-201.5 594,-201.5 594,-182.5 506,-182.5"/>
<text text-anchor="middle" x="550" y="-189.5" font-family="Helvetica,sans-Serif" font-size="10.00">_upsampled_dft</text>
</a>
</g>
</g>
<!-- Node120&#45;&gt;Node121 -->
<g id="edge3" class="edge"><title>Node120&#45;&gt;Node121</title>
<path fill="none" stroke="midnightblue" d="M455.364,-179.645C468.291,-181.351 482.245,-183.192 495.332,-184.919"/>
<polygon fill="midnightblue" stroke="midnightblue" points="495.234,-188.436 505.606,-186.274 496.15,-181.496 495.234,-188.436"/>
</g>
<!-- Node122 -->
<g id="node5" class="node"><title>Node122</title>
<g id="a_node5"><a xlink:href="namespacecaiman_1_1motion__correction.html#a09859fe5f2beba321b5397662b26651b" target="_top" xlink:title="_compute_phasediff">
<polygon fill="white" stroke="black" points="496.5,-144.5 496.5,-163.5 603.5,-163.5 603.5,-144.5 496.5,-144.5"/>
<text text-anchor="middle" x="550" y="-151.5" font-family="Helvetica,sans-Serif" font-size="10.00">_compute_phasediff</text>
</a>
</g>
</g>
<!-- Node120&#45;&gt;Node122 -->
<g id="edge4" class="edge"><title>Node120&#45;&gt;Node122</title>
<path fill="none" stroke="midnightblue" d="M455.364,-166.355C465.34,-165.038 475.927,-163.642 486.255,-162.279"/>
<polygon fill="midnightblue" stroke="midnightblue" points="487.009,-165.71 496.465,-160.932 486.093,-158.77 487.009,-165.71"/>
</g>
<!-- Node126&#45;&gt;Node119 -->
<g id="edge10" class="edge"><title>Node126&#45;&gt;Node119</title>
<path fill="none" stroke="midnightblue" d="M387.618,-30.0725C369.837,-42.2084 339.487,-57.8358 312,-68 305.952,-70.2363 299.528,-72.3224 293.104,-74.1654"/>
<polygon fill="midnightblue" stroke="midnightblue" points="291.821,-70.8855 283.063,-76.8481 293.627,-77.6483 291.821,-70.8855"/>
</g>
<!-- Node126&#45;&gt;Node125 -->
<g id="edge9" class="edge"><title>Node126&#45;&gt;Node125</title>
<path fill="none" stroke="midnightblue" d="M460.262,-23.4429C472.655,-25.3362 485.748,-27.3365 497.96,-29.2023"/>
<polygon fill="midnightblue" stroke="midnightblue" points="497.562,-32.682 507.976,-30.7325 498.62,-25.7623 497.562,-32.682"/>
</g>
</g>
</svg>
