<?xml version="1.0" encoding="UTF-8" standalone="no"?>
<!DOCTYPE svg PUBLIC "-//W3C//DTD SVG 1.1//EN"
 "http://www.w3.org/Graphics/SVG/1.1/DTD/svg11.dtd">
<!-- Generated by graphviz version 2.36.0 (20140111.2315)
 -->
<!-- Title: computeDFF_traces Pages: 1 -->
<svg width="722pt" height="77pt"
 viewBox="0.00 0.00 722.00 77.00" xmlns="http://www.w3.org/2000/svg" xmlns:xlink="http://www.w3.org/1999/xlink">
<g id="graph0" class="graph" transform="scale(1 1) rotate(0) translate(4 73)">
<title>computeDFF_traces</title>
<polygon fill="white" stroke="none" points="-4,4 -4,-73 718,-73 718,4 -4,4"/>
<!-- Node6 -->
<g id="node1" class="node"><title>Node6</title>
<polygon fill="#bfbfbf" stroke="black" points="0.5,-22.5 0.5,-41.5 107.5,-41.5 107.5,-22.5 0.5,-22.5"/>
<text text-anchor="middle" x="54" y="-29.5" font-family="Helvetica,sans-Serif" font-size="10.00">computeDFF_traces</text>
</g>
<!-- Node7 -->
<g id="node2" class="node"><title>Node7</title>
<g id="a_node2"><a xlink:href="namespacecaiman_1_1source__extraction_1_1cnmf_1_1utilities.html#a280d064e1a9888eca4b375647d031491" target="_top" xlink:title="Compute DFF function from cnmf output. ">
<polygon fill="white" stroke="black" points="144.5,-22.5 144.5,-41.5 221.5,-41.5 221.5,-22.5 144.5,-22.5"/>
<text text-anchor="middle" x="183" y="-29.5" font-family="Helvetica,sans-Serif" font-size="10.00">extract_DF_F</text>
</a>
</g>
</g>
<!-- Node6&#45;&gt;Node7 -->
<g id="edge1" class="edge"><title>Node6&#45;&gt;Node7</title>
<path fill="none" stroke="midnightblue" d="M107.756,-32C116.477,-32 125.477,-32 134.071,-32"/>
<polygon fill="midnightblue" stroke="midnightblue" points="134.307,-35.5001 144.307,-32 134.307,-28.5001 134.307,-35.5001"/>
</g>
<!-- Node8 -->
<g id="node3" class="node"><title>Node8</title>
<g id="a_node3"><a xlink:href="namespacecaiman_1_1mmapping.html#aa75ec735ea507b2ce7eb0e0bd33d2ba3" target="_top" xlink:title="Chunk matrix product between matrix and column vectors A memory mapped ndarray pixels x time b time x...">
<polygon fill="white" stroke="black" points="265.5,-39 265.5,-69 398.5,-69 398.5,-39 265.5,-39"/>
<text text-anchor="start" x="273.5" y="-57" font-family="Helvetica,sans-Serif" font-size="10.00">caiman.mmapping.parallel</text>
<text text-anchor="middle" x="332" y="-46" font-family="Helvetica,sans-Serif" font-size="10.00">_dot_product</text>
</a>
</g>
</g>
<!-- Node7&#45;&gt;Node8 -->
<g id="edge2" class="edge"><title>Node7&#45;&gt;Node8</title>
<path fill="none" stroke="midnightblue" d="M221.856,-37.6655C232.12,-39.2017 243.608,-40.9209 255.172,-42.6517"/>
<polygon fill="midnightblue" stroke="midnightblue" points="254.918,-46.1525 265.326,-44.1713 255.954,-39.2296 254.918,-46.1525"/>
</g>
<!-- Node11 -->
<g id="node6" class="node"><title>Node11</title>
<g id="a_node6"><a xlink:href="namespacecaiman_1_1source__extraction_1_1cnmf_1_1utilities.html#ad671b2e9120b3437304b3149d174f625" target="_top" xlink:title="Plots contour of spatial components. ">
<polygon fill="white" stroke="black" points="258.5,-0.5 258.5,-19.5 405.5,-19.5 405.5,-0.5 258.5,-0.5"/>
<text text-anchor="middle" x="332" y="-7.5" font-family="Helvetica,sans-Serif" font-size="10.00">manually_refine_components</text>
</a>
</g>
</g>
<!-- Node7&#45;&gt;Node11 -->
<g id="edge5" class="edge"><title>Node7&#45;&gt;Node11</title>
<path fill="none" stroke="midnightblue" d="M221.856,-26.3345C232.689,-24.7132 244.885,-22.888 257.096,-21.0605"/>
<polygon fill="midnightblue" stroke="midnightblue" points="257.955,-24.471 267.327,-19.5293 256.919,-17.5481 257.955,-24.471"/>
</g>
<!-- Node9 -->
<g id="node4" class="node"><title>Node9</title>
<g id="a_node4"><a xlink:href="namespacecaiman_1_1mmapping.html#a14d47c076020d7d3adf2599ed3354e4b" target="_top" xlink:title="caiman.mmapping.dot\l_place_holder">
<polygon fill="white" stroke="black" points="442.5,-39 442.5,-69 557.5,-69 557.5,-39 442.5,-39"/>
<text text-anchor="start" x="450.5" y="-57" font-family="Helvetica,sans-Serif" font-size="10.00">caiman.mmapping.dot</text>
<text text-anchor="middle" x="500" y="-46" font-family="Helvetica,sans-Serif" font-size="10.00">_place_holder</text>
</a>
</g>
</g>
<!-- Node8&#45;&gt;Node9 -->
<g id="edge3" class="edge"><title>Node8&#45;&gt;Node9</title>
<path fill="none" stroke="midnightblue" d="M398.608,-54C409.709,-54 421.245,-54 432.373,-54"/>
<polygon fill="midnightblue" stroke="midnightblue" points="432.452,-57.5001 442.452,-54 432.452,-50.5001 432.452,-57.5001"/>
</g>
<!-- Node10 -->
<g id="node5" class="node"><title>Node10</title>
<g id="a_node5"><a xlink:href="namespacecaiman_1_1mmapping.html#aeb2ed62e4a9028089a2eec09d392707f" target="_top" xlink:title="Load a memory mapped file created by the function save_memmap. ">
<polygon fill="white" stroke="black" points="594,-39 594,-69 714,-69 714,-39 594,-39"/>
<text text-anchor="start" x="602" y="-57" font-family="Helvetica,sans-Serif" font-size="10.00">caiman.mmapping.load</text>
<text text-anchor="middle" x="654" y="-46" font-family="Helvetica,sans-Serif" font-size="10.00">_memmap</text>
</a>
</g>
</g>
<!-- Node9&#45;&gt;Node10 -->
<g id="edge4" class="edge"><title>Node9&#45;&gt;Node10</title>
<path fill="none" stroke="midnightblue" d="M557.599,-54C566.093,-54 574.932,-54 583.654,-54"/>
<polygon fill="midnightblue" stroke="midnightblue" points="583.811,-57.5001 593.811,-54 583.811,-50.5001 583.811,-57.5001"/>
</g>
<!-- Node12 -->
<g id="node7" class="node"><title>Node12</title>
<g id="a_node7"><a xlink:href="namespacecaiman_1_1base_1_1rois.html#ae37bc9f1a4e815bd7d8e44a2334883a2" target="_top" xlink:title="Calculation of the center of mass for spatial components. ">
<polygon fill="white" stroke="black" points="443,-0.5 443,-19.5 557,-19.5 557,-0.5 443,-0.5"/>
<text text-anchor="middle" x="500" y="-7.5" font-family="Helvetica,sans-Serif" font-size="10.00">caiman.base.rois.com</text>
</a>
</g>
</g>
<!-- Node11&#45;&gt;Node12 -->
<g id="edge6" class="edge"><title>Node11&#45;&gt;Node12</title>
<path fill="none" stroke="midnightblue" d="M405.81,-10C414.764,-10 423.878,-10 432.727,-10"/>
<polygon fill="midnightblue" stroke="midnightblue" points="432.969,-13.5001 442.969,-10 432.969,-6.5001 432.969,-13.5001"/>
</g>
</g>
</svg>
