<?xml version="1.0" encoding="UTF-8" standalone="no"?>
<!DOCTYPE svg PUBLIC "-//W3C//DTD SVG 1.1//EN"
 "http://www.w3.org/Graphics/SVG/1.1/DTD/svg11.dtd">
<!-- Generated by graphviz version 2.36.0 (20140111.2315)
 -->
<!-- Title: imblur Pages: 1 -->
<svg width="422pt" height="77pt"
 viewBox="0.00 0.00 422.00 77.00" xmlns="http://www.w3.org/2000/svg" xmlns:xlink="http://www.w3.org/1999/xlink">
<g id="graph0" class="graph" transform="scale(1 1) rotate(0) translate(4 73)">
<title>imblur</title>
<polygon fill="white" stroke="none" points="-4,4 -4,-73 418,-73 418,4 -4,4"/>
<!-- Node20 -->
<g id="node1" class="node"><title>Node20</title>
<polygon fill="#bfbfbf" stroke="black" points="0,-27.5 0,-46.5 44,-46.5 44,-27.5 0,-27.5"/>
<text text-anchor="middle" x="22" y="-34.5" font-family="Helvetica,sans-Serif" font-size="10.00">imblur</text>
</g>
<!-- Node21 -->
<g id="node2" class="node"><title>Node21</title>
<g id="a_node2"><a xlink:href="namespacecaiman_1_1source__extraction_1_1cnmf_1_1initialization.html#a7dd7bbb01fcb5237fc7d7674b870c9ae" target="_top" xlink:title="Greedy initialization of spatial and temporal components using spatial Gaussian filtering. ">
<polygon fill="white" stroke="black" points="80.5,-27.5 80.5,-46.5 145.5,-46.5 145.5,-27.5 80.5,-27.5"/>
<text text-anchor="middle" x="113" y="-34.5" font-family="Helvetica,sans-Serif" font-size="10.00">greedyROI</text>
</a>
</g>
</g>
<!-- Node20&#45;&gt;Node21 -->
<g id="edge1" class="edge"><title>Node20&#45;&gt;Node21</title>
<path fill="none" stroke="midnightblue" d="M54.2824,-37C62.7018,-37 71.8155,-37 80.2596,-37"/>
<polygon fill="midnightblue" stroke="midnightblue" points="54.0918,-33.5001 44.0918,-37 54.0917,-40.5001 54.0918,-33.5001"/>
</g>
<!-- Node22 -->
<g id="node3" class="node"><title>Node22</title>
<g id="a_node3"><a xlink:href="namespacecaiman_1_1source__extraction_1_1cnmf_1_1initialization.html#ad762ff1c4aefedc408fe609de7cb1ebc" target="_top" xlink:title="Initalize components. ">
<polygon fill="white" stroke="black" points="242,-49.5 242,-68.5 354,-68.5 354,-49.5 242,-49.5"/>
<text text-anchor="middle" x="298" y="-56.5" font-family="Helvetica,sans-Serif" font-size="10.00">initialize_components</text>
</a>
</g>
</g>
<!-- Node21&#45;&gt;Node22 -->
<g id="edge2" class="edge"><title>Node21&#45;&gt;Node22</title>
<path fill="none" stroke="midnightblue" d="M155.958,-42.0441C181.44,-45.1076 214.262,-49.0533 241.83,-52.3676"/>
<polygon fill="midnightblue" stroke="midnightblue" points="156.222,-38.5508 145.876,-40.8321 155.387,-45.5008 156.222,-38.5508"/>
</g>
<!-- Node23 -->
<g id="node4" class="node"><title>Node23</title>
<g id="a_node4"><a xlink:href="namespacecaiman_1_1source__extraction_1_1cnmf_1_1utilities.html#ad671b2e9120b3437304b3149d174f625" target="_top" xlink:title="Plots contour of spatial components against a background image and allows to interactively add novel ...">
<polygon fill="white" stroke="black" points="182.5,-0 182.5,-30 413.5,-30 413.5,-0 182.5,-0"/>
<text text-anchor="start" x="190.5" y="-18" font-family="Helvetica,sans-Serif" font-size="10.00">caiman.source_extraction.cnmf.utilities.manually</text>
<text text-anchor="middle" x="298" y="-7" font-family="Helvetica,sans-Serif" font-size="10.00">_refine_components</text>
</a>
</g>
</g>
<!-- Node21&#45;&gt;Node23 -->
<g id="edge3" class="edge"><title>Node21&#45;&gt;Node23</title>
<path fill="none" stroke="midnightblue" d="M155.834,-31.9707C164.044,-30.9838 173.019,-29.9048 182.338,-28.7846"/>
<polygon fill="midnightblue" stroke="midnightblue" points="155.387,-28.4992 145.876,-33.1679 156.222,-35.4492 155.387,-28.4992"/>
</g>
</g>
</svg>
