<?xml version="1.0" encoding="UTF-8" standalone="no"?>
<!DOCTYPE svg PUBLIC "-//W3C//DTD SVG 1.1//EN"
 "http://www.w3.org/Graphics/SVG/1.1/DTD/svg11.dtd">
<!-- Generated by graphviz version 2.36.0 (20140111.2315)
 -->
<!-- Title: axcov Pages: 1 -->
<svg width="338pt" height="28pt"
 viewBox="0.00 0.00 338.00 28.00" xmlns="http://www.w3.org/2000/svg" xmlns:xlink="http://www.w3.org/1999/xlink">
<g id="graph0" class="graph" transform="scale(1 1) rotate(0) translate(4 24)">
<title>axcov</title>
<polygon fill="white" stroke="none" points="-4,4 -4,-24 334,-24 334,4 -4,4"/>
<!-- Node2 -->
<g id="node1" class="node"><title>Node2</title>
<polygon fill="#bfbfbf" stroke="black" points="0.5,-0.5 0.5,-19.5 43.5,-19.5 43.5,-0.5 0.5,-0.5"/>
<text text-anchor="middle" x="22" y="-7.5" font-family="Helvetica,sans-Serif" font-size="10.00">axcov</text>
</g>
<!-- Node3 -->
<g id="node2" class="node"><title>Node3</title>
<g id="a_node2"><a xlink:href="namespacecaiman_1_1source__extraction_1_1cnmf_1_1pre__processing.html#a1b73b814ed1bd025323df1f86b4e083b" target="_top" xlink:title="estimate_time_constant">
<polygon fill="white" stroke="black" points="80,-0.5 80,-19.5 202,-19.5 202,-0.5 80,-0.5"/>
<text text-anchor="middle" x="141" y="-7.5" font-family="Helvetica,sans-Serif" font-size="10.00">estimate_time_constant</text>
</a>
</g>
</g>
<!-- Node2&#45;&gt;Node3 -->
<g id="edge1" class="edge"><title>Node2&#45;&gt;Node3</title>
<path fill="none" stroke="midnightblue" d="M53.6832,-10C61.7787,-10 70.8006,-10 79.8747,-10"/>
<polygon fill="midnightblue" stroke="midnightblue" points="53.648,-6.5001 43.6479,-10 53.6479,-13.5001 53.648,-6.5001"/>
</g>
<!-- Node4 -->
<g id="node3" class="node"><title>Node4</title>
<g id="a_node3"><a xlink:href="namespacecaiman_1_1source__extraction_1_1cnmf_1_1pre__processing.html#a3e16282450cc890b37ad043d09f385c1" target="_top" xlink:title="Performs the pre&#45;processing operations described above. ">
<polygon fill="white" stroke="black" points="238.5,-0.5 238.5,-19.5 329.5,-19.5 329.5,-0.5 238.5,-0.5"/>
<text text-anchor="middle" x="284" y="-7.5" font-family="Helvetica,sans-Serif" font-size="10.00">preprocess_data</text>
</a>
</g>
</g>
<!-- Node3&#45;&gt;Node4 -->
<g id="edge2" class="edge"><title>Node3&#45;&gt;Node4</title>
<path fill="none" stroke="midnightblue" d="M212.216,-10C221.11,-10 230.011,-10 238.352,-10"/>
<polygon fill="midnightblue" stroke="midnightblue" points="212.206,-6.5001 202.206,-10 212.206,-13.5001 212.206,-6.5001"/>
</g>
</g>
</svg>
