<?xml version="1.0" encoding="UTF-8" standalone="no"?>
<!DOCTYPE svg PUBLIC "-//W3C//DTD SVG 1.1//EN"
 "http://www.w3.org/Graphics/SVG/1.1/DTD/svg11.dtd">
<!-- Generated by graphviz version 2.36.0 (20140111.2315)
 -->
<!-- Title: update_spatial_components Pages: 1 -->
<svg width="632pt" height="153pt"
 viewBox="0.00 0.00 632.00 153.00" xmlns="http://www.w3.org/2000/svg" xmlns:xlink="http://www.w3.org/1999/xlink">
<g id="graph0" class="graph" transform="scale(1 1) rotate(0) translate(4 149)">
<title>update_spatial_components</title>
<polygon fill="white" stroke="none" points="-4,4 -4,-149 628,-149 628,4 -4,4"/>
<!-- Node39 -->
<g id="node1" class="node"><title>Node39</title>
<polygon fill="#bfbfbf" stroke="black" points="0,-68.5 0,-87.5 142,-87.5 142,-68.5 0,-68.5"/>
<text text-anchor="middle" x="71" y="-75.5" font-family="Helvetica,sans-Serif" font-size="10.00">update_spatial_components</text>
</g>
<!-- Node40 -->
<g id="node2" class="node"><title>Node40</title>
<g id="a_node2"><a xlink:href="namespacecaiman_1_1source__extraction_1_1cnmf_1_1spatial.html#aca0edbf4c2cd31fe1a9c228c4099a485" target="_top" xlink:title="restrict search location to subset of pixels ">
<polygon fill="white" stroke="black" points="178.5,-125.5 178.5,-144.5 315.5,-144.5 315.5,-125.5 178.5,-125.5"/>
<text text-anchor="middle" x="247" y="-132.5" font-family="Helvetica,sans-Serif" font-size="10.00">determine_search_location</text>
</a>
</g>
</g>
<!-- Node39&#45;&gt;Node40 -->
<g id="edge1" class="edge"><title>Node39&#45;&gt;Node40</title>
<path fill="none" stroke="midnightblue" d="M101.124,-87.5405C130.232,-97.076 175.159,-111.794 207.262,-122.31"/>
<polygon fill="midnightblue" stroke="midnightblue" points="206.189,-125.641 216.781,-125.428 208.368,-118.989 206.189,-125.641"/>
</g>
<!-- Node41 -->
<g id="node3" class="node"><title>Node41</title>
<g id="a_node3"><a xlink:href="namespacecaiman_1_1mmapping.html#aeb2ed62e4a9028089a2eec09d392707f" target="_top" xlink:title="Load a memory mapped file created by the function save_memmap. ">
<polygon fill="white" stroke="black" points="504,-50 504,-80 624,-80 624,-50 504,-50"/>
<text text-anchor="start" x="512" y="-68" font-family="Helvetica,sans-Serif" font-size="10.00">caiman.mmapping.load</text>
<text text-anchor="middle" x="564" y="-57" font-family="Helvetica,sans-Serif" font-size="10.00">_memmap</text>
</a>
</g>
</g>
<!-- Node39&#45;&gt;Node41 -->
<g id="edge2" class="edge"><title>Node39&#45;&gt;Node41</title>
<path fill="none" stroke="midnightblue" d="M142.22,-78.9772C190.983,-79.4163 257.456,-79.5396 316,-78 376.014,-76.4218 444.144,-72.6902 493.628,-69.6279"/>
<polygon fill="midnightblue" stroke="midnightblue" points="494.132,-73.1033 503.894,-68.9856 493.695,-66.1169 494.132,-73.1033"/>
</g>
<!-- Node42 -->
<g id="node4" class="node"><title>Node42</title>
<g id="a_node4"><a xlink:href="namespacecaiman_1_1source__extraction_1_1cnmf_1_1spatial.html#a3fa5db8c88b06457233eb35dbcea3588" target="_top" xlink:title="threshold_components">
<polygon fill="white" stroke="black" points="188,-49.5 188,-68.5 306,-68.5 306,-49.5 188,-49.5"/>
<text text-anchor="middle" x="247" y="-56.5" font-family="Helvetica,sans-Serif" font-size="10.00">threshold_components</text>
</a>
</g>
</g>
<!-- Node39&#45;&gt;Node42 -->
<g id="edge3" class="edge"><title>Node39&#45;&gt;Node42</title>
<path fill="none" stroke="midnightblue" d="M142.02,-70.3541C153.78,-69.0701 165.969,-67.739 177.685,-66.4597"/>
<polygon fill="midnightblue" stroke="midnightblue" points="178.274,-69.9162 187.835,-65.3513 177.514,-62.9576 178.274,-69.9162"/>
</g>
<!-- Node43 -->
<g id="node5" class="node"><title>Node43</title>
<g id="a_node5"><a xlink:href="namespacecaiman_1_1mmapping.html#aa75ec735ea507b2ce7eb0e0bd33d2ba3" target="_top" xlink:title="Chunk matrix product between matrix and column vectors A memory mapped ndarray pixels x time b time x...">
<polygon fill="white" stroke="black" points="180.5,-0 180.5,-30 313.5,-30 313.5,-0 180.5,-0"/>
<text text-anchor="start" x="188.5" y="-18" font-family="Helvetica,sans-Serif" font-size="10.00">caiman.mmapping.parallel</text>
<text text-anchor="middle" x="247" y="-7" font-family="Helvetica,sans-Serif" font-size="10.00">_dot_product</text>
</a>
</g>
</g>
<!-- Node39&#45;&gt;Node43 -->
<g id="edge4" class="edge"><title>Node39&#45;&gt;Node43</title>
<path fill="none" stroke="midnightblue" d="M98.4269,-68.4317C123.929,-59.198 163.218,-44.9729 194.846,-33.5213"/>
<polygon fill="midnightblue" stroke="midnightblue" points="196.181,-36.7605 204.392,-30.065 193.798,-30.1786 196.181,-36.7605"/>
</g>
<!-- Node44 -->
<g id="node6" class="node"><title>Node44</title>
<g id="a_node6"><a xlink:href="namespacecaiman_1_1mmapping.html#a14d47c076020d7d3adf2599ed3354e4b" target="_top" xlink:title="caiman.mmapping.dot\l_place_holder">
<polygon fill="white" stroke="black" points="352.5,-19 352.5,-49 467.5,-49 467.5,-19 352.5,-19"/>
<text text-anchor="start" x="360.5" y="-37" font-family="Helvetica,sans-Serif" font-size="10.00">caiman.mmapping.dot</text>
<text text-anchor="middle" x="410" y="-26" font-family="Helvetica,sans-Serif" font-size="10.00">_place_holder</text>
</a>
</g>
</g>
<!-- Node43&#45;&gt;Node44 -->
<g id="edge5" class="edge"><title>Node43&#45;&gt;Node44</title>
<path fill="none" stroke="midnightblue" d="M313.949,-22.7828C323.324,-23.8892 332.971,-25.0277 342.359,-26.1355"/>
<polygon fill="midnightblue" stroke="midnightblue" points="342.077,-29.6265 352.419,-27.3227 342.898,-22.6747 342.077,-29.6265"/>
</g>
<!-- Node44&#45;&gt;Node41 -->
<g id="edge6" class="edge"><title>Node44&#45;&gt;Node41</title>
<path fill="none" stroke="midnightblue" d="M467.599,-45.5433C476.185,-47.2943 485.125,-49.1175 493.939,-50.9151"/>
<polygon fill="midnightblue" stroke="midnightblue" points="493.313,-54.3596 503.811,-52.9286 494.712,-47.5008 493.313,-54.3596"/>
</g>
</g>
</svg>
