<?xml version="1.0" encoding="UTF-8" standalone="no"?>
<!DOCTYPE svg PUBLIC "-//W3C//DTD SVG 1.1//EN"
 "http://www.w3.org/Graphics/SVG/1.1/DTD/svg11.dtd">
<!-- Generated by graphviz version 2.36.0 (20140111.2315)
 -->
<!-- Title: regression_ipyparallel Pages: 1 -->
<svg width="390pt" height="153pt"
 viewBox="0.00 0.00 390.00 153.00" xmlns="http://www.w3.org/2000/svg" xmlns:xlink="http://www.w3.org/1999/xlink">
<g id="graph0" class="graph" transform="scale(1 1) rotate(0) translate(4 149)">
<title>regression_ipyparallel</title>
<polygon fill="white" stroke="none" points="-4,4 -4,-149 386,-149 386,4 -4,4"/>
<!-- Node30 -->
<g id="node1" class="node"><title>Node30</title>
<polygon fill="#bfbfbf" stroke="black" points="0,-57.5 0,-76.5 114,-76.5 114,-57.5 0,-57.5"/>
<text text-anchor="middle" x="57" y="-64.5" font-family="Helvetica,sans-Serif" font-size="10.00">regression_ipyparallel</text>
</g>
<!-- Node31 -->
<g id="node2" class="node"><title>Node31</title>
<g id="a_node2"><a xlink:href="namespacecaiman_1_1mmapping.html#aeb2ed62e4a9028089a2eec09d392707f" target="_top" xlink:title="Load a memory mapped file created by the function save_memmap. ">
<polygon fill="white" stroke="black" points="159,-115 159,-145 279,-145 279,-115 159,-115"/>
<text text-anchor="start" x="167" y="-133" font-family="Helvetica,sans-Serif" font-size="10.00">caiman.mmapping.load</text>
<text text-anchor="middle" x="219" y="-122" font-family="Helvetica,sans-Serif" font-size="10.00">_memmap</text>
</a>
</g>
</g>
<!-- Node30&#45;&gt;Node31 -->
<g id="edge1" class="edge"><title>Node30&#45;&gt;Node31</title>
<path fill="none" stroke="midnightblue" d="M80.5846,-76.6194C99.1473,-84.4554 126.173,-95.7036 150,-105 155.405,-107.109 161.07,-109.269 166.725,-111.394"/>
<polygon fill="midnightblue" stroke="midnightblue" points="165.594,-114.708 176.186,-114.922 168.039,-108.149 165.594,-114.708"/>
</g>
<!-- Node32 -->
<g id="node3" class="node"><title>Node32</title>
<g id="a_node3"><a xlink:href="namespacecaiman_1_1source__extraction_1_1cnmf_1_1spatial.html#a6f8a2090fe45b30f032bf6ec1a91c1ce" target="_top" xlink:title="Run LARS for regression problems with LASSO penalty, with optional positivity constraints. ">
<polygon fill="white" stroke="black" points="152.5,-76.5 152.5,-95.5 285.5,-95.5 285.5,-76.5 152.5,-76.5"/>
<text text-anchor="middle" x="219" y="-83.5" font-family="Helvetica,sans-Serif" font-size="10.00">lars_regression_noise_old</text>
</a>
</g>
</g>
<!-- Node30&#45;&gt;Node32 -->
<g id="edge2" class="edge"><title>Node30&#45;&gt;Node32</title>
<path fill="none" stroke="midnightblue" d="M114.41,-73.6987C123.396,-74.7658 132.818,-75.8846 142.164,-76.9944"/>
<polygon fill="midnightblue" stroke="midnightblue" points="141.908,-80.4886 152.251,-78.1923 142.733,-73.5374 141.908,-80.4886"/>
</g>
<!-- Node34 -->
<g id="node5" class="node"><title>Node34</title>
<g id="a_node5"><a xlink:href="namespacecaiman_1_1source__extraction_1_1cnmf_1_1spatial.html#a86e3328b66dc7efa75c0646f02815ab4" target="_top" xlink:title="Nonnegative least square with L0 penalty. ">
<polygon fill="white" stroke="black" points="193,-38.5 193,-57.5 245,-57.5 245,-38.5 193,-38.5"/>
<text text-anchor="middle" x="219" y="-45.5" font-family="Helvetica,sans-Serif" font-size="10.00">nnls_L0</text>
</a>
</g>
</g>
<!-- Node30&#45;&gt;Node34 -->
<g id="edge4" class="edge"><title>Node30&#45;&gt;Node34</title>
<path fill="none" stroke="midnightblue" d="M114.41,-60.3013C137.241,-57.5901 162.888,-54.5445 182.951,-52.1621"/>
<polygon fill="midnightblue" stroke="midnightblue" points="183.371,-55.6369 192.889,-50.982 182.546,-48.6857 183.371,-55.6369"/>
</g>
<!-- Node35 -->
<g id="node6" class="node"><title>Node35</title>
<g id="a_node6"><a xlink:href="namespacecaiman_1_1source__extraction_1_1cnmf_1_1spatial.html#aca0edbf4c2cd31fe1a9c228c4099a485" target="_top" xlink:title="compute the indices of the distance from the cm to search for the spatial component ...">
<polygon fill="white" stroke="black" points="150.5,-0.5 150.5,-19.5 287.5,-19.5 287.5,-0.5 150.5,-0.5"/>
<text text-anchor="middle" x="219" y="-7.5" font-family="Helvetica,sans-Serif" font-size="10.00">determine_search_location</text>
</a>
</g>
</g>
<!-- Node30&#45;&gt;Node35 -->
<g id="edge5" class="edge"><title>Node30&#45;&gt;Node35</title>
<path fill="none" stroke="midnightblue" d="M79.2851,-57.3594C97.7557,-49.1993 125.331,-37.5071 150,-29 156.618,-26.7178 163.667,-24.5083 170.626,-22.4526"/>
<polygon fill="midnightblue" stroke="midnightblue" points="172.051,-25.685 180.696,-19.5603 170.119,-18.957 172.051,-25.685"/>
</g>
<!-- Node33 -->
<g id="node4" class="node"><title>Node33</title>
<g id="a_node4"><a xlink:href="namespacecaiman_1_1source__extraction_1_1cnmf_1_1spatial.html#a14912eb4a48c8e566545bb4392341d04" target="_top" xlink:title="calculate the vectoe to travel along ">
<polygon fill="white" stroke="black" points="324.5,-76.5 324.5,-95.5 381.5,-95.5 381.5,-76.5 324.5,-76.5"/>
<text text-anchor="middle" x="353" y="-83.5" font-family="Helvetica,sans-Serif" font-size="10.00">calcAvec</text>
</a>
</g>
</g>
<!-- Node32&#45;&gt;Node33 -->
<g id="edge3" class="edge"><title>Node32&#45;&gt;Node33</title>
<path fill="none" stroke="midnightblue" d="M285.613,-86C295.473,-86 305.343,-86 314.345,-86"/>
<polygon fill="midnightblue" stroke="midnightblue" points="314.462,-89.5001 324.462,-86 314.462,-82.5001 314.462,-89.5001"/>
</g>
</g>
</svg>
