<?xml version="1.0" encoding="UTF-8" standalone="no"?>
<!DOCTYPE svg PUBLIC "-//W3C//DTD SVG 1.1//EN"
 "http://www.w3.org/Graphics/SVG/1.1/DTD/svg11.dtd">
<!-- Generated by graphviz version 2.36.0 (20140111.2315)
 -->
<!-- Title: nf_match_neurons_in_binary_masks Pages: 1 -->
<svg width="246pt" height="66pt"
 viewBox="0.00 0.00 246.00 66.00" xmlns="http://www.w3.org/2000/svg" xmlns:xlink="http://www.w3.org/1999/xlink">
<g id="graph0" class="graph" transform="scale(1 1) rotate(0) translate(4 62)">
<title>nf_match_neurons_in_binary_masks</title>
<polygon fill="white" stroke="none" points="-4,4 -4,-62 242,-62 242,4 -4,4"/>
<!-- Node36 -->
<g id="node1" class="node"><title>Node36</title>
<polygon fill="#bfbfbf" stroke="black" points="0.5,-14 0.5,-44 113.5,-44 113.5,-14 0.5,-14"/>
<text text-anchor="start" x="8.5" y="-32" font-family="Helvetica,sans-Serif" font-size="10.00">nf_match_neurons_in</text>
<text text-anchor="middle" x="57" y="-21" font-family="Helvetica,sans-Serif" font-size="10.00">_binary_masks</text>
</g>
<!-- Node37 -->
<g id="node2" class="node"><title>Node37</title>
<g id="a_node2"><a xlink:href="namespacecaiman_1_1base_1_1rois.html#adc8128004edb81aefbc6d8ba07557414" target="_top" xlink:title="Compute distance matrix based on an intersection over union metric. ">
<polygon fill="white" stroke="black" points="150,-38.5 150,-57.5 238,-57.5 238,-38.5 150,-38.5"/>
<text text-anchor="middle" x="194" y="-45.5" font-family="Helvetica,sans-Serif" font-size="10.00">distance_masks</text>
</a>
</g>
</g>
<!-- Node36&#45;&gt;Node37 -->
<g id="edge1" class="edge"><title>Node36&#45;&gt;Node37</title>
<path fill="none" stroke="midnightblue" d="M113.689,-36.8377C122.355,-38.0574 131.289,-39.3147 139.895,-40.526"/>
<polygon fill="midnightblue" stroke="midnightblue" points="139.422,-43.9938 149.812,-41.9217 140.398,-37.0621 139.422,-43.9938"/>
</g>
<!-- Node38 -->
<g id="node3" class="node"><title>Node38</title>
<g id="a_node3"><a xlink:href="namespacecaiman_1_1base_1_1rois.html#ad8b7c6d1ce325bba2b0369a7ce7b8c85" target="_top" xlink:title="find_matches">
<polygon fill="white" stroke="black" points="156,-0.5 156,-19.5 232,-19.5 232,-0.5 156,-0.5"/>
<text text-anchor="middle" x="194" y="-7.5" font-family="Helvetica,sans-Serif" font-size="10.00">find_matches</text>
</a>
</g>
</g>
<!-- Node36&#45;&gt;Node38 -->
<g id="edge2" class="edge"><title>Node36&#45;&gt;Node38</title>
<path fill="none" stroke="midnightblue" d="M113.689,-21.1623C124.366,-19.6596 135.45,-18.0997 145.827,-16.6392"/>
<polygon fill="midnightblue" stroke="midnightblue" points="146.512,-20.0773 155.927,-15.2178 145.536,-13.1457 146.512,-20.0773"/>
</g>
</g>
</svg>
