<?xml version="1.0" encoding="UTF-8" standalone="no"?>
<!DOCTYPE svg PUBLIC "-//W3C//DTD SVG 1.1//EN"
 "http://www.w3.org/Graphics/SVG/1.1/DTD/svg11.dtd">
<!-- Generated by graphviz version 2.36.0 (20140111.2315)
 -->
<!-- Title: onnls Pages: 1 -->
<svg width="684pt" height="85pt"
 viewBox="0.00 0.00 684.00 85.00" xmlns="http://www.w3.org/2000/svg" xmlns:xlink="http://www.w3.org/1999/xlink">
<g id="graph0" class="graph" transform="scale(1 1) rotate(0) translate(4 81)">
<title>onnls</title>
<polygon fill="white" stroke="none" points="-4,4 -4,-81 680,-81 680,4 -4,4"/>
<!-- Node117 -->
<g id="node1" class="node"><title>Node117</title>
<polygon fill="#bfbfbf" stroke="black" points="0,-19.5 0,-38.5 40,-38.5 40,-19.5 0,-19.5"/>
<text text-anchor="middle" x="20" y="-26.5" font-family="Helvetica,sans-Serif" font-size="10.00">onnls</text>
</g>
<!-- Node118 -->
<g id="node2" class="node"><title>Node118</title>
<g id="a_node2"><a xlink:href="namespacecaiman_1_1source__extraction_1_1cnmf_1_1deconvolution.html#ad9f9b2ef0aad5c652f86bd8c7ae64bdd" target="_top" xlink:title="_nnls">
<polygon fill="white" stroke="black" points="115,-57.5 115,-76.5 155,-76.5 155,-57.5 115,-57.5"/>
<text text-anchor="middle" x="135" y="-64.5" font-family="Helvetica,sans-Serif" font-size="10.00">_nnls</text>
</a>
</g>
</g>
<!-- Node117&#45;&gt;Node118 -->
<g id="edge1" class="edge"><title>Node117&#45;&gt;Node118</title>
<path fill="none" stroke="midnightblue" d="M40.0646,-35.6702C50.638,-39.3483 64.0315,-43.9727 76,-48 85.5138,-51.2014 95.929,-54.6353 105.276,-57.6912"/>
<polygon fill="midnightblue" stroke="midnightblue" points="104.313,-61.0585 114.905,-60.8299 106.482,-54.4031 104.313,-61.0585"/>
</g>
<!-- Node119 -->
<g id="node3" class="node"><title>Node119</title>
<g id="a_node3"><a xlink:href="namespacecaiman_1_1source__extraction_1_1cnmf_1_1deconvolution.html#a5753e123f06d6f8a5f53e8f1cc50baba" target="_top" xlink:title="Infer the most likely discretized spike train underlying an AR(2) fluorescence trace. ">
<polygon fill="white" stroke="black" points="76.5,-19.5 76.5,-38.5 193.5,-38.5 193.5,-19.5 76.5,-19.5"/>
<text text-anchor="middle" x="135" y="-26.5" font-family="Helvetica,sans-Serif" font-size="10.00">constrained_oasisAR2</text>
</a>
</g>
</g>
<!-- Node117&#45;&gt;Node119 -->
<g id="edge2" class="edge"><title>Node117&#45;&gt;Node119</title>
<path fill="none" stroke="midnightblue" d="M40.1689,-23.783C47.6463,-23.0486 56.7027,-22.578 66.2033,-22.3714"/>
<polygon fill="midnightblue" stroke="midnightblue" points="66.2599,-25.8711 76.2173,-22.2515 66.1761,-18.8716 66.2599,-25.8711"/>
</g>
<!-- Node119&#45;&gt;Node117 -->
<g id="edge7" class="edge"><title>Node119&#45;&gt;Node117</title>
<path fill="none" stroke="midnightblue" d="M76.2173,-35.7485C67.2576,-35.7268 58.3409,-35.4788 50.3691,-35.0043"/>
<polygon fill="midnightblue" stroke="midnightblue" points="50.4086,-31.4971 40.1689,-34.217 49.8699,-38.4763 50.4086,-31.4971"/>
</g>
<!-- Node120 -->
<g id="node4" class="node"><title>Node120</title>
<g id="a_node4"><a xlink:href="namespacecaiman_1_1source__extraction_1_1cnmf_1_1deconvolution.html#a7a73db2b3e0e88f4a5f30f80944c1319" target="_top" xlink:title="estimate_time_constant">
<polygon fill="white" stroke="black" points="376,-38.5 376,-57.5 498,-57.5 498,-38.5 376,-38.5"/>
<text text-anchor="middle" x="437" y="-45.5" font-family="Helvetica,sans-Serif" font-size="10.00">estimate_time_constant</text>
</a>
</g>
</g>
<!-- Node119&#45;&gt;Node120 -->
<g id="edge3" class="edge"><title>Node119&#45;&gt;Node120</title>
<path fill="none" stroke="midnightblue" d="M193.843,-32.6634C242.848,-35.767 313.278,-40.2276 365.561,-43.5389"/>
<polygon fill="midnightblue" stroke="midnightblue" points="365.563,-47.0459 375.764,-44.1851 366.005,-40.0599 365.563,-47.0459"/>
</g>
<!-- Node124 -->
<g id="node8" class="node"><title>Node124</title>
<g id="a_node8"><a xlink:href="namespacecaiman_1_1source__extraction_1_1cnmf_1_1deconvolution.html#a7199190b4f33e4a70dedc9deea7e4c45" target="_top" xlink:title="estimate_parameters">
<polygon fill="white" stroke="black" points="230,-0.5 230,-19.5 340,-19.5 340,-0.5 230,-0.5"/>
<text text-anchor="middle" x="285" y="-7.5" font-family="Helvetica,sans-Serif" font-size="10.00">estimate_parameters</text>
</a>
</g>
</g>
<!-- Node119&#45;&gt;Node124 -->
<g id="edge8" class="edge"><title>Node119&#45;&gt;Node124</title>
<path fill="none" stroke="midnightblue" d="M193.644,-21.5997C202.162,-20.5063 210.983,-19.3738 219.626,-18.2642"/>
<polygon fill="midnightblue" stroke="midnightblue" points="220.189,-21.7208 229.662,-16.9758 219.298,-14.7778 220.189,-21.7208"/>
</g>
<!-- Node121 -->
<g id="node5" class="node"><title>Node121</title>
<g id="a_node5"><a xlink:href="namespacecaiman_1_1source__extraction_1_1cnmf_1_1deconvolution.html#a16b9a254776edd0d9093ee35b1ef17a2" target="_top" xlink:title="GetSn">
<polygon fill="white" stroke="black" points="534.5,-0.5 534.5,-19.5 579.5,-19.5 579.5,-0.5 534.5,-0.5"/>
<text text-anchor="middle" x="557" y="-7.5" font-family="Helvetica,sans-Serif" font-size="10.00">GetSn</text>
</a>
</g>
</g>
<!-- Node120&#45;&gt;Node121 -->
<g id="edge4" class="edge"><title>Node120&#45;&gt;Node121</title>
<path fill="none" stroke="midnightblue" d="M467.776,-38.411C485.127,-32.8236 506.988,-25.7836 524.608,-20.1094"/>
<polygon fill="midnightblue" stroke="midnightblue" points="525.98,-23.3446 534.426,-16.9477 523.834,-16.6815 525.98,-23.3446"/>
</g>
<!-- Node122 -->
<g id="node6" class="node"><title>Node122</title>
<g id="a_node6"><a xlink:href="namespacecaiman_1_1source__extraction_1_1cnmf_1_1deconvolution.html#a458da977dee6e97910a1b006e899b309" target="_top" xlink:title="axcov">
<polygon fill="white" stroke="black" points="535.5,-38.5 535.5,-57.5 578.5,-57.5 578.5,-38.5 535.5,-38.5"/>
<text text-anchor="middle" x="557" y="-45.5" font-family="Helvetica,sans-Serif" font-size="10.00">axcov</text>
</a>
</g>
</g>
<!-- Node120&#45;&gt;Node122 -->
<g id="edge5" class="edge"><title>Node120&#45;&gt;Node122</title>
<path fill="none" stroke="midnightblue" d="M498.037,-48C507.485,-48 516.897,-48 525.304,-48"/>
<polygon fill="midnightblue" stroke="midnightblue" points="525.343,-51.5001 535.343,-48 525.343,-44.5001 525.343,-51.5001"/>
</g>
<!-- Node123 -->
<g id="node7" class="node"><title>Node123</title>
<g id="a_node7"><a xlink:href="namespacecaiman_1_1source__extraction_1_1cnmf_1_1deconvolution.html#a8d83696f273bd0121651cf48a6b899ae" target="_top" xlink:title="nextpow2">
<polygon fill="white" stroke="black" points="616.5,-38.5 616.5,-57.5 675.5,-57.5 675.5,-38.5 616.5,-38.5"/>
<text text-anchor="middle" x="646" y="-45.5" font-family="Helvetica,sans-Serif" font-size="10.00">nextpow2</text>
</a>
</g>
</g>
<!-- Node122&#45;&gt;Node123 -->
<g id="edge6" class="edge"><title>Node122&#45;&gt;Node123</title>
<path fill="none" stroke="midnightblue" d="M578.618,-48C586.884,-48 596.69,-48 606.195,-48"/>
<polygon fill="midnightblue" stroke="midnightblue" points="606.302,-51.5001 616.302,-48 606.302,-44.5001 606.302,-51.5001"/>
</g>
<!-- Node124&#45;&gt;Node120 -->
<g id="edge10" class="edge"><title>Node124&#45;&gt;Node120</title>
<path fill="none" stroke="midnightblue" d="M323.851,-19.589C343.467,-24.5583 367.619,-30.6767 388.479,-35.9613"/>
<polygon fill="midnightblue" stroke="midnightblue" points="387.868,-39.4169 398.421,-38.4799 389.587,-32.6313 387.868,-39.4169"/>
</g>
<!-- Node124&#45;&gt;Node121 -->
<g id="edge9" class="edge"><title>Node124&#45;&gt;Node121</title>
<path fill="none" stroke="midnightblue" d="M340.314,-10C395.486,-10 479.057,-10 524.267,-10"/>
<polygon fill="midnightblue" stroke="midnightblue" points="524.366,-13.5001 534.366,-10 524.366,-6.5001 524.366,-13.5001"/>
</g>
</g>
</svg>
