<?xml version="1.0" encoding="UTF-8" standalone="no"?>
<!DOCTYPE svg PUBLIC "-//W3C//DTD SVG 1.1//EN"
 "http://www.w3.org/Graphics/SVG/1.1/DTD/svg11.dtd">
<!-- Generated by graphviz version 2.36.0 (20140111.2315)
 -->
<!-- Title: preprocess_data Pages: 1 -->
<svg width="440pt" height="104pt"
 viewBox="0.00 0.00 440.00 104.00" xmlns="http://www.w3.org/2000/svg" xmlns:xlink="http://www.w3.org/1999/xlink">
<g id="graph0" class="graph" transform="scale(1 1) rotate(0) translate(4 100)">
<title>preprocess_data</title>
<polygon fill="white" stroke="none" points="-4,4 -4,-100 436,-100 436,4 -4,4"/>
<!-- Node42 -->
<g id="node1" class="node"><title>Node42</title>
<polygon fill="#bfbfbf" stroke="black" points="0.5,-38.5 0.5,-57.5 91.5,-57.5 91.5,-38.5 0.5,-38.5"/>
<text text-anchor="middle" x="46" y="-45.5" font-family="Helvetica,sans-Serif" font-size="10.00">preprocess_data</text>
</g>
<!-- Node43 -->
<g id="node2" class="node"><title>Node43</title>
<g id="a_node2"><a xlink:href="namespacecaiman_1_1source__extraction_1_1cnmf_1_1pre__processing.html#a4f24a28b19a32e01749dc3b71b41f5df" target="_top" xlink:title="interpolate_missing_data">
<polygon fill="white" stroke="black" points="128,-76.5 128,-95.5 256,-95.5 256,-76.5 128,-76.5"/>
<text text-anchor="middle" x="192" y="-83.5" font-family="Helvetica,sans-Serif" font-size="10.00">interpolate_missing_data</text>
</a>
</g>
</g>
<!-- Node42&#45;&gt;Node43 -->
<g id="edge1" class="edge"><title>Node42&#45;&gt;Node43</title>
<path fill="none" stroke="midnightblue" d="M83.3373,-57.589C102.083,-62.5358 125.143,-68.6211 145.107,-73.8892"/>
<polygon fill="midnightblue" stroke="midnightblue" points="144.362,-77.3125 154.924,-76.4799 146.148,-70.5442 144.362,-77.3125"/>
</g>
<!-- Node44 -->
<g id="node3" class="node"><title>Node44</title>
<g id="a_node3"><a xlink:href="namespacecaiman_1_1source__extraction_1_1cnmf_1_1pre__processing.html#ad6085436e00dd246c1798b76d5cd176a" target="_top" xlink:title="parallel version of get_noise_fft. ">
<polygon fill="white" stroke="black" points="136,-38.5 136,-57.5 248,-57.5 248,-38.5 136,-38.5"/>
<text text-anchor="middle" x="192" y="-45.5" font-family="Helvetica,sans-Serif" font-size="10.00">get_noise_fft_parallel</text>
</a>
</g>
</g>
<!-- Node42&#45;&gt;Node44 -->
<g id="edge2" class="edge"><title>Node42&#45;&gt;Node44</title>
<path fill="none" stroke="midnightblue" d="M91.7731,-48C102.565,-48 114.314,-48 125.827,-48"/>
<polygon fill="midnightblue" stroke="midnightblue" points="125.855,-51.5001 135.855,-48 125.855,-44.5001 125.855,-51.5001"/>
</g>
<!-- Node45 -->
<g id="node4" class="node"><title>Node45</title>
<g id="a_node4"><a xlink:href="namespacecaiman_1_1source__extraction_1_1cnmf_1_1pre__processing.html#a1b73b814ed1bd025323df1f86b4e083b" target="_top" xlink:title="estimate_time_constant">
<polygon fill="white" stroke="black" points="131,-0.5 131,-19.5 253,-19.5 253,-0.5 131,-0.5"/>
<text text-anchor="middle" x="192" y="-7.5" font-family="Helvetica,sans-Serif" font-size="10.00">estimate_time_constant</text>
</a>
</g>
</g>
<!-- Node42&#45;&gt;Node45 -->
<g id="edge3" class="edge"><title>Node42&#45;&gt;Node45</title>
<path fill="none" stroke="midnightblue" d="M83.3373,-38.411C102.083,-33.4642 125.143,-27.3789 145.107,-22.1108"/>
<polygon fill="midnightblue" stroke="midnightblue" points="146.148,-25.4558 154.924,-19.5201 144.362,-18.6875 146.148,-25.4558"/>
</g>
<!-- Node46 -->
<g id="node5" class="node"><title>Node46</title>
<g id="a_node5"><a xlink:href="namespacecaiman_1_1source__extraction_1_1cnmf_1_1pre__processing.html#a60941191e5c55d29e33ed6fa698f1844" target="_top" xlink:title="Compute the autocovariance of data at lag = &#45;maxlag:0:maxlag. ">
<polygon fill="white" stroke="black" points="292.5,-0.5 292.5,-19.5 335.5,-19.5 335.5,-0.5 292.5,-0.5"/>
<text text-anchor="middle" x="314" y="-7.5" font-family="Helvetica,sans-Serif" font-size="10.00">axcov</text>
</a>
</g>
</g>
<!-- Node45&#45;&gt;Node46 -->
<g id="edge4" class="edge"><title>Node45&#45;&gt;Node46</title>
<path fill="none" stroke="midnightblue" d="M253.352,-10C263.31,-10 273.255,-10 282.091,-10"/>
<polygon fill="midnightblue" stroke="midnightblue" points="282.243,-13.5001 292.243,-10 282.243,-6.5001 282.243,-13.5001"/>
</g>
<!-- Node47 -->
<g id="node6" class="node"><title>Node47</title>
<g id="a_node6"><a xlink:href="namespacecaiman_1_1source__extraction_1_1cnmf_1_1pre__processing.html#aebcfd66f32d95838dfa847044ee22a2b" target="_top" xlink:title="Find exponent such that 2^exponent is equal to or greater than abs(value). ">
<polygon fill="white" stroke="black" points="372.5,-0.5 372.5,-19.5 431.5,-19.5 431.5,-0.5 372.5,-0.5"/>
<text text-anchor="middle" x="402" y="-7.5" font-family="Helvetica,sans-Serif" font-size="10.00">nextpow2</text>
</a>
</g>
</g>
<!-- Node46&#45;&gt;Node47 -->
<g id="edge5" class="edge"><title>Node46&#45;&gt;Node47</title>
<path fill="none" stroke="midnightblue" d="M335.818,-10C343.764,-10 353.102,-10 362.188,-10"/>
<polygon fill="midnightblue" stroke="midnightblue" points="362.251,-13.5001 372.251,-10 362.251,-6.5001 362.251,-13.5001"/>
</g>
</g>
</svg>
