<?xml version="1.0" encoding="UTF-8" standalone="no"?>
<!DOCTYPE svg PUBLIC "-//W3C//DTD SVG 1.1//EN"
 "http://www.w3.org/Graphics/SVG/1.1/DTD/svg11.dtd">
<!-- Generated by graphviz version 2.36.0 (20140111.2315)
 -->
<!-- Title: distance_masks Pages: 1 -->
<svg width="246pt" height="77pt"
 viewBox="0.00 0.00 246.00 77.00" xmlns="http://www.w3.org/2000/svg" xmlns:xlink="http://www.w3.org/1999/xlink">
<g id="graph0" class="graph" transform="scale(1 1) rotate(0) translate(4 73)">
<title>distance_masks</title>
<polygon fill="white" stroke="none" points="-4,4 -4,-73 242,-73 242,4 -4,4"/>
<!-- Node9 -->
<g id="node1" class="node"><title>Node9</title>
<polygon fill="#bfbfbf" stroke="black" points="0,-27.5 0,-46.5 88,-46.5 88,-27.5 0,-27.5"/>
<text text-anchor="middle" x="44" y="-34.5" font-family="Helvetica,sans-Serif" font-size="10.00">distance_masks</text>
</g>
<!-- Node10 -->
<g id="node2" class="node"><title>Node10</title>
<g id="a_node2"><a xlink:href="namespacecaiman_1_1base_1_1rois.html#a55efa0edbb0867a0fa3a8e86bb1fa407" target="_top" xlink:title="get_distance_from_A">
<polygon fill="white" stroke="black" points="125.5,-49.5 125.5,-68.5 236.5,-68.5 236.5,-49.5 125.5,-49.5"/>
<text text-anchor="middle" x="181" y="-56.5" font-family="Helvetica,sans-Serif" font-size="10.00">get_distance_from_A</text>
</a>
</g>
</g>
<!-- Node9&#45;&gt;Node10 -->
<g id="edge1" class="edge"><title>Node9&#45;&gt;Node10</title>
<path fill="none" stroke="midnightblue" d="M98.0596,-45.6467C107.061,-47.1136 116.421,-48.639 125.46,-50.112"/>
<polygon fill="midnightblue" stroke="midnightblue" points="98.5188,-42.1755 88.086,-44.0214 97.3928,-49.0844 98.5188,-42.1755"/>
</g>
<!-- Node11 -->
<g id="node3" class="node"><title>Node11</title>
<g id="a_node3"><a xlink:href="namespacecaiman_1_1base_1_1rois.html#a110f7c7d62671deddd9e58cc0c873a4c" target="_top" xlink:title="Match neurons expressed as binary masks. ">
<polygon fill="white" stroke="black" points="124.5,-0 124.5,-30 237.5,-30 237.5,-0 124.5,-0"/>
<text text-anchor="start" x="132.5" y="-18" font-family="Helvetica,sans-Serif" font-size="10.00">nf_match_neurons_in</text>
<text text-anchor="middle" x="181" y="-7" font-family="Helvetica,sans-Serif" font-size="10.00">_binary_masks</text>
</a>
</g>
</g>
<!-- Node9&#45;&gt;Node11 -->
<g id="edge2" class="edge"><title>Node9&#45;&gt;Node11</title>
<path fill="none" stroke="midnightblue" d="M98.0784,-28.3502C106.752,-26.9367 115.759,-25.4689 124.489,-24.0462"/>
<polygon fill="midnightblue" stroke="midnightblue" points="97.3928,-24.9156 88.086,-29.9786 98.5188,-31.8245 97.3928,-24.9156"/>
</g>
</g>
</svg>
