<?xml version="1.0" encoding="UTF-8" standalone="no"?>
<!DOCTYPE svg PUBLIC "-//W3C//DTD SVG 1.1//EN"
 "http://www.w3.org/Graphics/SVG/1.1/DTD/svg11.dtd">
<!-- Generated by graphviz version 2.36.0 (20140111.2315)
 -->
<!-- Title: tile_and_correct Pages: 1 -->
<svg width="262pt" height="77pt"
 viewBox="0.00 0.00 262.00 77.00" xmlns="http://www.w3.org/2000/svg" xmlns:xlink="http://www.w3.org/1999/xlink">
<g id="graph0" class="graph" transform="scale(1 1) rotate(0) translate(4 73)">
<title>tile_and_correct</title>
<polygon fill="white" stroke="none" points="-4,4 -4,-73 258,-73 258,4 -4,4"/>
<!-- Node115 -->
<g id="node1" class="node"><title>Node115</title>
<polygon fill="#bfbfbf" stroke="black" points="0,-44.5 0,-63.5 88,-63.5 88,-44.5 0,-44.5"/>
<text text-anchor="middle" x="44" y="-51.5" font-family="Helvetica,sans-Serif" font-size="10.00">tile_and_correct</text>
</g>
<!-- Node116 -->
<g id="node2" class="node"><title>Node116</title>
<g id="a_node2"><a xlink:href="namespacecaiman_1_1motion__correction.html#a88ef513cfa324fc8548e4fb46d7a67e5" target="_top" xlink:title="create a matrix that is used to normalize the intersection of the stiched patches ...">
<polygon fill="white" stroke="black" points="133,-39 133,-69 245,-69 245,-39 133,-39"/>
<text text-anchor="start" x="141" y="-57" font-family="Helvetica,sans-Serif" font-size="10.00">create_weight_matrix</text>
<text text-anchor="middle" x="189" y="-46" font-family="Helvetica,sans-Serif" font-size="10.00">_for_blending</text>
</a>
</g>
</g>
<!-- Node115&#45;&gt;Node116 -->
<g id="edge1" class="edge"><title>Node115&#45;&gt;Node116</title>
<path fill="none" stroke="midnightblue" d="M98.427,-47.4454C109.696,-47.1969 121.607,-47.1854 132.935,-47.4111"/>
<polygon fill="midnightblue" stroke="midnightblue" points="98.1867,-43.9508 88.2928,-47.7404 98.3904,-50.9479 98.1867,-43.9508"/>
</g>
<!-- Node117 -->
<g id="node3" class="node"><title>Node117</title>
<g id="a_node3"><a xlink:href="namespacecaiman_1_1motion__correction.html#a9c4d6e518f42c395cb58a08d2ff21f45" target="_top" xlink:title="tile_and_correct_wrapper">
<polygon fill="white" stroke="black" points="124.5,-0.5 124.5,-19.5 253.5,-19.5 253.5,-0.5 124.5,-0.5"/>
<text text-anchor="middle" x="189" y="-7.5" font-family="Helvetica,sans-Serif" font-size="10.00">tile_and_correct_wrapper</text>
</a>
</g>
</g>
<!-- Node115&#45;&gt;Node117 -->
<g id="edge3" class="edge"><title>Node115&#45;&gt;Node117</title>
<path fill="none" stroke="midnightblue" d="M85.7175,-41.4715C108.384,-34.4973 136.151,-25.9535 157.032,-19.5287"/>
<polygon fill="midnightblue" stroke="midnightblue" points="84.5573,-38.1665 76.0289,-44.4527 86.616,-44.857 84.5573,-38.1665"/>
</g>
<!-- Node116&#45;&gt;Node115 -->
<g id="edge2" class="edge"><title>Node116&#45;&gt;Node115</title>
<path fill="none" stroke="midnightblue" d="M122.757,-60.727C111.073,-60.8132 99.1649,-60.6574 88.2928,-60.2596"/>
<polygon fill="midnightblue" stroke="midnightblue" points="122.984,-64.2243 132.935,-60.5889 122.889,-57.225 122.984,-64.2243"/>
</g>
</g>
</svg>
