<?xml version="1.0" encoding="UTF-8" standalone="no"?>
<!DOCTYPE svg PUBLIC "-//W3C//DTD SVG 1.1//EN"
 "http://www.w3.org/Graphics/SVG/1.1/DTD/svg11.dtd">
<!-- Generated by graphviz version 2.36.0 (20140111.2315)
 -->
<!-- Title: shell_source Pages: 1 -->
<svg width="552pt" height="95pt"
 viewBox="0.00 0.00 552.00 95.00" xmlns="http://www.w3.org/2000/svg" xmlns:xlink="http://www.w3.org/1999/xlink">
<g id="graph0" class="graph" transform="scale(1 1) rotate(0) translate(4 91)">
<title>shell_source</title>
<polygon fill="white" stroke="none" points="-4,4 -4,-91 548,-91 548,4 -4,4"/>
<!-- Node26 -->
<g id="node1" class="node"><title>Node26</title>
<polygon fill="#bfbfbf" stroke="black" points="0.5,-48.5 0.5,-67.5 73.5,-67.5 73.5,-48.5 0.5,-48.5"/>
<text text-anchor="middle" x="37" y="-55.5" font-family="Helvetica,sans-Serif" font-size="10.00">shell_source</text>
</g>
<!-- Node27 -->
<g id="node2" class="node"><title>Node27</title>
<g id="a_node2"><a xlink:href="namespacecaiman_1_1cluster.html#a36c3cc16b38cc1e90b578cb5952a0ba9" target="_top" xlink:title="programmatically start the ipyparallel server ">
<polygon fill="white" stroke="black" points="110.5,-48.5 110.5,-67.5 179.5,-67.5 179.5,-48.5 110.5,-48.5"/>
<text text-anchor="middle" x="145" y="-55.5" font-family="Helvetica,sans-Serif" font-size="10.00">start_server</text>
</a>
</g>
</g>
<!-- Node26&#45;&gt;Node27 -->
<g id="edge1" class="edge"><title>Node26&#45;&gt;Node27</title>
<path fill="none" stroke="midnightblue" d="M83.5988,-58C92.6231,-58 101.939,-58 110.473,-58"/>
<polygon fill="midnightblue" stroke="midnightblue" points="83.5914,-54.5001 73.5913,-58 83.5913,-61.5001 83.5914,-54.5001"/>
</g>
<!-- Node28 -->
<g id="node3" class="node"><title>Node28</title>
<g id="a_node3"><a xlink:href="namespacecaiman_1_1cluster.html#a1dcb2a098d3e274cb3acd433ddc58953" target="_top" xlink:title="Restart if necessary the pipyparallel cluster, and manages the case of SLURM. ">
<polygon fill="white" stroke="black" points="253,-67.5 253,-86.5 329,-86.5 329,-67.5 253,-67.5"/>
<text text-anchor="middle" x="291" y="-74.5" font-family="Helvetica,sans-Serif" font-size="10.00">setup_cluster</text>
</a>
</g>
</g>
<!-- Node27&#45;&gt;Node28 -->
<g id="edge2" class="edge"><title>Node27&#45;&gt;Node28</title>
<path fill="none" stroke="midnightblue" d="M189.934,-63.7969C210.072,-66.4539 233.683,-69.5692 252.911,-72.1063"/>
<polygon fill="midnightblue" stroke="midnightblue" points="190.134,-60.2929 179.762,-62.4547 189.218,-67.2328 190.134,-60.2929"/>
</g>
<!-- Node29 -->
<g id="node4" class="node"><title>Node29</title>
<g id="a_node4"><a xlink:href="namespacecaiman_1_1tests_1_1test__demo.html#ac5c3950ffe101e5dfa9c5ca2087dfc73" target="_top" xlink:title="caiman.tests.test_demo.demo">
<polygon fill="white" stroke="black" points="216,-29.5 216,-48.5 366,-48.5 366,-29.5 216,-29.5"/>
<text text-anchor="middle" x="291" y="-36.5" font-family="Helvetica,sans-Serif" font-size="10.00">caiman.tests.test_demo.demo</text>
</a>
</g>
</g>
<!-- Node27&#45;&gt;Node29 -->
<g id="edge3" class="edge"><title>Node27&#45;&gt;Node29</title>
<path fill="none" stroke="midnightblue" d="M189.833,-52.2164C198.713,-51.0448 208.271,-49.7836 217.834,-48.522"/>
<polygon fill="midnightblue" stroke="midnightblue" points="189.218,-48.7672 179.762,-53.5453 190.134,-55.7071 189.218,-48.7672"/>
</g>
<!-- Node30 -->
<g id="node5" class="node"><title>Node30</title>
<g id="a_node5"><a xlink:href="namespacecaiman_1_1tests_1_1test__demo.html#a96a59f0aebd7425caeb0e5c4c0286d46" target="_top" xlink:title="caiman.tests.test_demo.test\l_single_thread">
<polygon fill="white" stroke="black" points="402.5,-49 402.5,-79 543.5,-79 543.5,-49 402.5,-49"/>
<text text-anchor="start" x="410.5" y="-67" font-family="Helvetica,sans-Serif" font-size="10.00">caiman.tests.test_demo.test</text>
<text text-anchor="middle" x="473" y="-56" font-family="Helvetica,sans-Serif" font-size="10.00">_single_thread</text>
</a>
</g>
</g>
<!-- Node29&#45;&gt;Node30 -->
<g id="edge4" class="edge"><title>Node29&#45;&gt;Node30</title>
<path fill="none" stroke="midnightblue" d="M370.63,-49.9208C381.217,-51.3913 392.018,-52.8914 402.433,-54.338"/>
<polygon fill="midnightblue" stroke="midnightblue" points="370.95,-46.4318 360.564,-48.5227 369.987,-53.3652 370.95,-46.4318"/>
</g>
<!-- Node31 -->
<g id="node6" class="node"><title>Node31</title>
<g id="a_node6"><a xlink:href="namespacecaiman_1_1tests_1_1test__demo.html#a9b4f91fe22f45c31c9f0d6decc982909" target="_top" xlink:title="caiman.tests.test_demo.test\l_parallel">
<polygon fill="white" stroke="black" points="402.5,-0 402.5,-30 543.5,-30 543.5,-0 402.5,-0"/>
<text text-anchor="start" x="410.5" y="-18" font-family="Helvetica,sans-Serif" font-size="10.00">caiman.tests.test_demo.test</text>
<text text-anchor="middle" x="473" y="-7" font-family="Helvetica,sans-Serif" font-size="10.00">_parallel</text>
</a>
</g>
</g>
<!-- Node29&#45;&gt;Node31 -->
<g id="edge5" class="edge"><title>Node29&#45;&gt;Node31</title>
<path fill="none" stroke="midnightblue" d="M373.431,-28.1426C383.122,-26.8504 392.947,-25.5405 402.45,-24.2733"/>
<polygon fill="midnightblue" stroke="midnightblue" points="372.849,-24.6891 363.399,-29.4801 373.774,-31.6277 372.849,-24.6891"/>
</g>
</g>
</svg>
