<?xml version="1.0" encoding="UTF-8" standalone="no"?>
<!DOCTYPE svg PUBLIC "-//W3C//DTD SVG 1.1//EN"
 "http://www.w3.org/Graphics/SVG/1.1/DTD/svg11.dtd">
<!-- Generated by graphviz version 2.36.0 (20140111.2315)
 -->
<!-- Title: bin_median Pages: 1 -->
<svg width="434pt" height="87pt"
 viewBox="0.00 0.00 434.00 87.00" xmlns="http://www.w3.org/2000/svg" xmlns:xlink="http://www.w3.org/1999/xlink">
<g id="graph0" class="graph" transform="scale(1 1) rotate(0) translate(4 83)">
<title>bin_median</title>
<polygon fill="white" stroke="none" points="-4,4 -4,-83 430,-83 430,4 -4,4"/>
<!-- Node37 -->
<g id="node1" class="node"><title>Node37</title>
<polygon fill="#bfbfbf" stroke="black" points="0,-29.5 0,-48.5 68,-48.5 68,-29.5 0,-29.5"/>
<text text-anchor="middle" x="34" y="-36.5" font-family="Helvetica,sans-Serif" font-size="10.00">bin_median</text>
</g>
<!-- Node38 -->
<g id="node2" class="node"><title>Node38</title>
<g id="a_node2"><a xlink:href="namespacecaiman_1_1motion__correction.html#a178e8317ba3a15bd5e072132ce6fa9f3" target="_top" xlink:title="motion_correct_online">
<polygon fill="white" stroke="black" points="104.5,-29.5 104.5,-48.5 219.5,-48.5 219.5,-29.5 104.5,-29.5"/>
<text text-anchor="middle" x="162" y="-36.5" font-family="Helvetica,sans-Serif" font-size="10.00">motion_correct_online</text>
</a>
</g>
</g>
<!-- Node37&#45;&gt;Node38 -->
<g id="edge1" class="edge"><title>Node37&#45;&gt;Node38</title>
<path fill="none" stroke="midnightblue" d="M78.35,-39C86.6938,-39 95.5486,-39 104.243,-39"/>
<polygon fill="midnightblue" stroke="midnightblue" points="78.1051,-35.5001 68.105,-39 78.105,-42.5001 78.1051,-35.5001"/>
</g>
<!-- Node39 -->
<g id="node3" class="node"><title>Node39</title>
<g id="a_node3"><a xlink:href="namespacecaiman_1_1motion__correction.html#aef9c5f795aeb47c5b86066492953fc4f" target="_top" xlink:title="motion_correct_online\l_multifile">
<polygon fill="white" stroke="black" points="283.5,-49 283.5,-79 398.5,-79 398.5,-49 283.5,-49"/>
<text text-anchor="start" x="291.5" y="-67" font-family="Helvetica,sans-Serif" font-size="10.00">motion_correct_online</text>
<text text-anchor="middle" x="341" y="-56" font-family="Helvetica,sans-Serif" font-size="10.00">_multifile</text>
</a>
</g>
</g>
<!-- Node38&#45;&gt;Node39 -->
<g id="edge2" class="edge"><title>Node38&#45;&gt;Node39</title>
<path fill="none" stroke="midnightblue" d="M230.159,-48.4858C247.723,-50.9666 266.48,-53.6158 283.431,-56.0101"/>
<polygon fill="midnightblue" stroke="midnightblue" points="230.369,-44.9808 219.978,-47.0478 229.39,-51.912 230.369,-44.9808"/>
</g>
<!-- Node40 -->
<g id="node4" class="node"><title>Node40</title>
<g id="a_node4"><a xlink:href="classcaiman_1_1base_1_1movies_1_1movie.html#a9ea3b23aad7b04c484259dc0f2117aed" target="_top" xlink:title="caiman.base.movies.movie.motion\l_correction_online">
<polygon fill="white" stroke="black" points="256,-0 256,-30 426,-30 426,-0 256,-0"/>
<text text-anchor="start" x="264" y="-18" font-family="Helvetica,sans-Serif" font-size="10.00">caiman.base.movies.movie.motion</text>
<text text-anchor="middle" x="341" y="-7" font-family="Helvetica,sans-Serif" font-size="10.00">_correction_online</text>
</a>
</g>
</g>
<!-- Node38&#45;&gt;Node40 -->
<g id="edge3" class="edge"><title>Node38&#45;&gt;Node40</title>
<path fill="none" stroke="midnightblue" d="M230.061,-29.907C238.457,-28.7686 247.126,-27.593 255.742,-26.4248"/>
<polygon fill="midnightblue" stroke="midnightblue" points="229.417,-26.4622 219.978,-31.2741 230.358,-33.3987 229.417,-26.4622"/>
</g>
</g>
</svg>
