<?xml version="1.0" encoding="UTF-8" standalone="no"?>
<!DOCTYPE svg PUBLIC "-//W3C//DTD SVG 1.1//EN"
 "http://www.w3.org/Graphics/SVG/1.1/DTD/svg11.dtd">
<!-- Generated by graphviz version 2.36.0 (20140111.2315)
 -->
<!-- Title: _compute_phasediff Pages: 1 -->
<svg width="544pt" height="110pt"
 viewBox="0.00 0.00 544.00 110.00" xmlns="http://www.w3.org/2000/svg" xmlns:xlink="http://www.w3.org/1999/xlink">
<g id="graph0" class="graph" transform="scale(1 1) rotate(0) translate(4 106)">
<title>_compute_phasediff</title>
<polygon fill="white" stroke="none" points="-4,4 -4,-106 540,-106 540,4 -4,4"/>
<!-- Node6 -->
<g id="node1" class="node"><title>Node6</title>
<polygon fill="#bfbfbf" stroke="black" points="0.5,-63.5 0.5,-82.5 107.5,-82.5 107.5,-63.5 0.5,-63.5"/>
<text text-anchor="middle" x="54" y="-70.5" font-family="Helvetica,sans-Serif" font-size="10.00">_compute_phasediff</text>
</g>
<!-- Node7 -->
<g id="node2" class="node"><title>Node7</title>
<g id="a_node2"><a xlink:href="namespacecaiman_1_1motion__correction.html#a0700d66a3a6b2556b1c712daf9c18a9b" target="_top" xlink:title="register_translation">
<polygon fill="white" stroke="black" points="144,-63.5 144,-82.5 246,-82.5 246,-63.5 144,-63.5"/>
<text text-anchor="middle" x="195" y="-70.5" font-family="Helvetica,sans-Serif" font-size="10.00">register_translation</text>
</a>
</g>
</g>
<!-- Node6&#45;&gt;Node7 -->
<g id="edge1" class="edge"><title>Node6&#45;&gt;Node7</title>
<path fill="none" stroke="midnightblue" d="M117.672,-73C126.38,-73 135.231,-73 143.673,-73"/>
<polygon fill="midnightblue" stroke="midnightblue" points="117.55,-69.5001 107.55,-73 117.55,-76.5001 117.55,-69.5001"/>
</g>
<!-- Node8 -->
<g id="node3" class="node"><title>Node8</title>
<g id="a_node3"><a xlink:href="namespacecaiman_1_1motion__correction.html#a683f5ee23e529946b17f6a87ae45e0a4" target="_top" xlink:title="Compute RMS error metric between src_image and target_image. ">
<polygon fill="white" stroke="black" points="282.5,-82.5 282.5,-101.5 369.5,-101.5 369.5,-82.5 282.5,-82.5"/>
<text text-anchor="middle" x="326" y="-89.5" font-family="Helvetica,sans-Serif" font-size="10.00">_compute_error</text>
</a>
</g>
</g>
<!-- Node7&#45;&gt;Node8 -->
<g id="edge2" class="edge"><title>Node7&#45;&gt;Node8</title>
<path fill="none" stroke="midnightblue" d="M256.395,-81.8954C265.114,-83.1796 273.934,-84.4786 282.213,-85.698"/>
<polygon fill="midnightblue" stroke="midnightblue" points="256.647,-78.3949 246.244,-80.4003 255.627,-85.3202 256.647,-78.3949"/>
</g>
<!-- Node9 -->
<g id="node4" class="node"><title>Node9</title>
<g id="a_node4"><a xlink:href="namespacecaiman_1_1motion__correction.html#aea060208c09f0e4fb01e6d31b9acf36f" target="_top" xlink:title="perform piecewise rigid motion correction iteration, by 1) dividing the FOV in patches 2) motion corr...">
<polygon fill="white" stroke="black" points="282,-44.5 282,-63.5 370,-63.5 370,-44.5 282,-44.5"/>
<text text-anchor="middle" x="326" y="-51.5" font-family="Helvetica,sans-Serif" font-size="10.00">tile_and_correct</text>
</a>
</g>
</g>
<!-- Node7&#45;&gt;Node9 -->
<g id="edge3" class="edge"><title>Node7&#45;&gt;Node9</title>
<path fill="none" stroke="midnightblue" d="M256.273,-64.1225C264.888,-62.8538 273.603,-61.5701 281.801,-60.3626"/>
<polygon fill="midnightblue" stroke="midnightblue" points="255.627,-60.6798 246.244,-65.5997 256.647,-67.6051 255.627,-60.6798"/>
</g>
<!-- Node10 -->
<g id="node5" class="node"><title>Node10</title>
<g id="a_node5"><a xlink:href="namespacecaiman_1_1motion__correction.html#a88ef513cfa324fc8548e4fb46d7a67e5" target="_top" xlink:title="create a matrix that is used to normalize the intersection of the stiched patches ...">
<polygon fill="white" stroke="black" points="415,-39 415,-69 527,-69 527,-39 415,-39"/>
<text text-anchor="start" x="423" y="-57" font-family="Helvetica,sans-Serif" font-size="10.00">create_weight_matrix</text>
<text text-anchor="middle" x="471" y="-46" font-family="Helvetica,sans-Serif" font-size="10.00">_for_blending</text>
</a>
</g>
</g>
<!-- Node9&#45;&gt;Node10 -->
<g id="edge4" class="edge"><title>Node9&#45;&gt;Node10</title>
<path fill="none" stroke="midnightblue" d="M380.427,-47.4454C391.696,-47.1969 403.607,-47.1854 414.935,-47.4111"/>
<polygon fill="midnightblue" stroke="midnightblue" points="380.187,-43.9508 370.293,-47.7404 380.39,-50.9479 380.187,-43.9508"/>
</g>
<!-- Node11 -->
<g id="node6" class="node"><title>Node11</title>
<g id="a_node6"><a xlink:href="namespacecaiman_1_1motion__correction.html#a9c4d6e518f42c395cb58a08d2ff21f45" target="_top" xlink:title="tile_and_correct_wrapper">
<polygon fill="white" stroke="black" points="406.5,-0.5 406.5,-19.5 535.5,-19.5 535.5,-0.5 406.5,-0.5"/>
<text text-anchor="middle" x="471" y="-7.5" font-family="Helvetica,sans-Serif" font-size="10.00">tile_and_correct_wrapper</text>
</a>
</g>
</g>
<!-- Node9&#45;&gt;Node11 -->
<g id="edge6" class="edge"><title>Node9&#45;&gt;Node11</title>
<path fill="none" stroke="midnightblue" d="M367.717,-41.4715C390.384,-34.4973 418.151,-25.9535 439.032,-19.5287"/>
<polygon fill="midnightblue" stroke="midnightblue" points="366.557,-38.1665 358.029,-44.4527 368.616,-44.857 366.557,-38.1665"/>
</g>
<!-- Node10&#45;&gt;Node9 -->
<g id="edge5" class="edge"><title>Node10&#45;&gt;Node9</title>
<path fill="none" stroke="midnightblue" d="M404.757,-60.727C393.073,-60.8132 381.165,-60.6574 370.293,-60.2596"/>
<polygon fill="midnightblue" stroke="midnightblue" points="404.984,-64.2243 414.935,-60.5889 404.889,-57.225 404.984,-64.2243"/>
</g>
</g>
</svg>
