<?xml version="1.0" encoding="UTF-8" standalone="no"?>
<!DOCTYPE svg PUBLIC "-//W3C//DTD SVG 1.1//EN"
 "http://www.w3.org/Graphics/SVG/1.1/DTD/svg11.dtd">
<!-- Generated by graphviz version 2.36.0 (20140111.2315)
 -->
<!-- Title: main Pages: 1 -->
<svg width="202pt" height="180pt"
 viewBox="0.00 0.00 202.00 180.00" xmlns="http://www.w3.org/2000/svg" xmlns:xlink="http://www.w3.org/1999/xlink">
<g id="graph0" class="graph" transform="scale(1 1) rotate(0) translate(4 176)">
<title>main</title>
<polygon fill="white" stroke="none" points="-4,4 -4,-176 198,-176 198,4 -4,4"/>
<!-- Node21 -->
<g id="node1" class="node"><title>Node21</title>
<polygon fill="#bfbfbf" stroke="black" points="0,-57.5 0,-76.5 38,-76.5 38,-57.5 0,-57.5"/>
<text text-anchor="middle" x="19" y="-64.5" font-family="Helvetica,sans-Serif" font-size="10.00">main</text>
</g>
<!-- Node22 -->
<g id="node2" class="node"><title>Node22</title>
<g id="a_node2"><a xlink:href="namespacecaiman_1_1behavior_1_1behavior.html#ac24ea957986e39f33ac3ceb78ed989d1" target="_top" xlink:title="Create a mask from a the convex polygon enclosed between selected points. ">
<polygon fill="white" stroke="black" points="104.5,-152.5 104.5,-171.5 163.5,-171.5 163.5,-152.5 104.5,-152.5"/>
<text text-anchor="middle" x="134" y="-159.5" font-family="Helvetica,sans-Serif" font-size="10.00">select_roi</text>
</a>
</g>
</g>
<!-- Node21&#45;&gt;Node22 -->
<g id="edge1" class="edge"><title>Node21&#45;&gt;Node22</title>
<path fill="none" stroke="midnightblue" d="M24.3328,-76.6887C32.0246,-92.8048 49.5839,-125.112 74,-143 80.0873,-147.46 87.2668,-150.902 94.4833,-153.549"/>
<polygon fill="midnightblue" stroke="midnightblue" points="93.6565,-156.96 104.248,-156.688 95.7985,-150.296 93.6565,-156.96"/>
</g>
<!-- Node23 -->
<g id="node3" class="node"><title>Node23</title>
<g id="a_node3"><a xlink:href="namespacecaiman_1_1behavior_1_1behavior.html#a8f9ed50a7ba21081b068bf7967f74e09" target="_top" xlink:title="This function compute the optical flow of behavioral movies using the opencv cv2.calcOpticalFlowFarne...">
<polygon fill="white" stroke="black" points="77.5,-114.5 77.5,-133.5 190.5,-133.5 190.5,-114.5 77.5,-114.5"/>
<text text-anchor="middle" x="134" y="-121.5" font-family="Helvetica,sans-Serif" font-size="10.00">compute_optical_flow</text>
</a>
</g>
</g>
<!-- Node21&#45;&gt;Node23 -->
<g id="edge2" class="edge"><title>Node21&#45;&gt;Node23</title>
<path fill="none" stroke="midnightblue" d="M31.3616,-76.54C41.8679,-84.9733 58.1998,-97.125 74,-105 78.346,-107.166 82.9931,-109.159 87.7001,-110.972"/>
<polygon fill="midnightblue" stroke="midnightblue" points="86.774,-114.358 97.3686,-114.44 89.1375,-107.769 86.774,-114.358"/>
</g>
<!-- Node24 -->
<g id="node4" class="node"><title>Node24</title>
<g id="a_node4"><a xlink:href="namespacecaiman_1_1behavior_1_1behavior.html#ab7ca16e11cc59cf634fcdd9a2c6848f6" target="_top" xlink:title="From optical flow images can extract spatial and temporal components. ">
<polygon fill="white" stroke="black" points="80.5,-76.5 80.5,-95.5 187.5,-95.5 187.5,-76.5 80.5,-76.5"/>
<text text-anchor="middle" x="134" y="-83.5" font-family="Helvetica,sans-Serif" font-size="10.00">extract_components</text>
</a>
</g>
</g>
<!-- Node21&#45;&gt;Node24 -->
<g id="edge3" class="edge"><title>Node21&#45;&gt;Node24</title>
<path fill="none" stroke="midnightblue" d="M38.1554,-70.0527C47.1236,-71.5606 58.5323,-73.4789 70.3041,-75.4582"/>
<polygon fill="midnightblue" stroke="midnightblue" points="69.7903,-78.9209 80.2323,-77.1276 70.9511,-72.0178 69.7903,-78.9209"/>
</g>
<!-- Node25 -->
<g id="node5" class="node"><title>Node25</title>
<g id="a_node5"><a xlink:href="namespacecaiman_1_1behavior_1_1behavior.html#ac7ebff37cde3a2bef4c8613654b60395" target="_top" xlink:title="Normalize the components using the std of the components obtaining using biunary masks. ">
<polygon fill="white" stroke="black" points="74,-38.5 74,-57.5 194,-57.5 194,-38.5 74,-38.5"/>
<text text-anchor="middle" x="134" y="-45.5" font-family="Helvetica,sans-Serif" font-size="10.00">normalize_components</text>
</a>
</g>
</g>
<!-- Node21&#45;&gt;Node25 -->
<g id="edge4" class="edge"><title>Node21&#45;&gt;Node25</title>
<path fill="none" stroke="midnightblue" d="M38.1554,-58.8325C45.4713,-56.8454 54.4113,-54.8481 63.8476,-53.0301"/>
<polygon fill="midnightblue" stroke="midnightblue" points="64.606,-56.4496 73.8137,-51.2085 63.3473,-49.5637 64.606,-56.4496"/>
</g>
<!-- Node26 -->
<g id="node6" class="node"><title>Node26</title>
<g id="a_node6"><a xlink:href="namespacecaiman_1_1behavior_1_1behavior.html#abd4cdefdebaf9128bc642c37c14eeec1" target="_top" xlink:title="%% single featureflow,. ">
<polygon fill="white" stroke="black" points="87.5,-0.5 87.5,-19.5 180.5,-19.5 180.5,-0.5 87.5,-0.5"/>
<text text-anchor="middle" x="134" y="-7.5" font-family="Helvetica,sans-Serif" font-size="10.00">plot_components</text>
</a>
</g>
</g>
<!-- Node21&#45;&gt;Node26 -->
<g id="edge6" class="edge"><title>Node21&#45;&gt;Node26</title>
<path fill="none" stroke="midnightblue" d="M31.3616,-57.46C41.8679,-49.0267 58.1998,-36.875 74,-29 78.346,-26.8339 82.9931,-24.841 87.7001,-23.0277"/>
<polygon fill="midnightblue" stroke="midnightblue" points="89.1375,-26.2306 97.3686,-19.5597 86.774,-19.6416 89.1375,-26.2306"/>
</g>
<!-- Node25&#45;&gt;Node21 -->
<g id="edge5" class="edge"><title>Node25&#45;&gt;Node21</title>
<path fill="none" stroke="midnightblue" d="M109.391,-57.5778C91.5815,-61.9767 67.0826,-66.2049 48.2355,-68.1874"/>
<polygon fill="midnightblue" stroke="midnightblue" points="47.8153,-64.7106 38.1554,-69.0621 48.4206,-71.6844 47.8153,-64.7106"/>
</g>
</g>
</svg>
