<?xml version="1.0" encoding="UTF-8" standalone="no"?>
<!DOCTYPE svg PUBLIC "-//W3C//DTD SVG 1.1//EN"
 "http://www.w3.org/Graphics/SVG/1.1/DTD/svg11.dtd">
<!-- Generated by graphviz version 2.36.0 (20140111.2315)
 -->
<!-- Title: setup_cluster Pages: 1 -->
<svg width="300pt" height="66pt"
 viewBox="0.00 0.00 300.00 66.00" xmlns="http://www.w3.org/2000/svg" xmlns:xlink="http://www.w3.org/1999/xlink">
<g id="graph0" class="graph" transform="scale(1 1) rotate(0) translate(4 62)">
<title>setup_cluster</title>
<polygon fill="white" stroke="none" points="-4,4 -4,-62 296,-62 296,4 -4,4"/>
<!-- Node20 -->
<g id="node1" class="node"><title>Node20</title>
<polygon fill="#bfbfbf" stroke="black" points="0,-19.5 0,-38.5 76,-38.5 76,-19.5 0,-19.5"/>
<text text-anchor="middle" x="38" y="-26.5" font-family="Helvetica,sans-Serif" font-size="10.00">setup_cluster</text>
</g>
<!-- Node21 -->
<g id="node2" class="node"><title>Node21</title>
<g id="a_node2"><a xlink:href="namespacecaiman_1_1cluster.html#a224e29488e19814e85b50e1afd812a7d" target="_top" xlink:title="stop_server">
<polygon fill="white" stroke="black" points="112.5,-38.5 112.5,-57.5 181.5,-57.5 181.5,-38.5 112.5,-38.5"/>
<text text-anchor="middle" x="147" y="-45.5" font-family="Helvetica,sans-Serif" font-size="10.00">stop_server</text>
</a>
</g>
</g>
<!-- Node20&#45;&gt;Node21 -->
<g id="edge1" class="edge"><title>Node20&#45;&gt;Node21</title>
<path fill="none" stroke="midnightblue" d="M76.1231,-35.592C84.5395,-37.0865 93.5544,-38.6872 102.217,-40.2255"/>
<polygon fill="midnightblue" stroke="midnightblue" points="101.711,-43.6902 112.169,-41.9926 102.935,-36.798 101.711,-43.6902"/>
</g>
<!-- Node22 -->
<g id="node3" class="node"><title>Node22</title>
<g id="a_node3"><a xlink:href="namespacecaiman_1_1cluster.html#a36c3cc16b38cc1e90b578cb5952a0ba9" target="_top" xlink:title="programmatically start the ipyparallel server ">
<polygon fill="white" stroke="black" points="112.5,-0.5 112.5,-19.5 181.5,-19.5 181.5,-0.5 112.5,-0.5"/>
<text text-anchor="middle" x="147" y="-7.5" font-family="Helvetica,sans-Serif" font-size="10.00">start_server</text>
</a>
</g>
</g>
<!-- Node20&#45;&gt;Node22 -->
<g id="edge2" class="edge"><title>Node20&#45;&gt;Node22</title>
<path fill="none" stroke="midnightblue" d="M76.1231,-22.408C84.5395,-20.9135 93.5544,-19.3128 102.217,-17.7745"/>
<polygon fill="midnightblue" stroke="midnightblue" points="102.935,-21.202 112.169,-16.0074 101.711,-14.3098 102.935,-21.202"/>
</g>
<!-- Node23 -->
<g id="node4" class="node"><title>Node23</title>
<g id="a_node4"><a xlink:href="namespacecaiman_1_1cluster.html#aa2ca4c63a4bfd3dc43f9a93bd0fb7525" target="_top" xlink:title="Sometime you want to emulate the action of &quot;source&quot; in bash, settings some environment variables...">
<polygon fill="white" stroke="black" points="218.5,-0.5 218.5,-19.5 291.5,-19.5 291.5,-0.5 218.5,-0.5"/>
<text text-anchor="middle" x="255" y="-7.5" font-family="Helvetica,sans-Serif" font-size="10.00">shell_source</text>
</a>
</g>
</g>
<!-- Node22&#45;&gt;Node23 -->
<g id="edge3" class="edge"><title>Node22&#45;&gt;Node23</title>
<path fill="none" stroke="midnightblue" d="M181.539,-10C190.088,-10 199.422,-10 208.461,-10"/>
<polygon fill="midnightblue" stroke="midnightblue" points="208.482,-13.5001 218.482,-10 208.482,-6.5001 208.482,-13.5001"/>
</g>
</g>
</svg>
