<?xml version="1.0" encoding="UTF-8" standalone="no"?>
<!DOCTYPE svg PUBLIC "-//W3C//DTD SVG 1.1//EN"
 "http://www.w3.org/Graphics/SVG/1.1/DTD/svg11.dtd">
<!-- Generated by graphviz version 2.36.0 (20140111.2315)
 -->
<!-- Title: load Pages: 1 -->
<svg width="178pt" height="28pt"
 viewBox="0.00 0.00 178.00 28.00" xmlns="http://www.w3.org/2000/svg" xmlns:xlink="http://www.w3.org/1999/xlink">
<g id="graph0" class="graph" transform="scale(1 1) rotate(0) translate(4 24)">
<title>load</title>
<polygon fill="white" stroke="none" points="-4,4 -4,-24 174,-24 174,4 -4,4"/>
<!-- Node26 -->
<g id="node1" class="node"><title>Node26</title>
<polygon fill="#bfbfbf" stroke="black" points="0.5,-0.5 0.5,-19.5 35.5,-19.5 35.5,-0.5 0.5,-0.5"/>
<text text-anchor="middle" x="18" y="-7.5" font-family="Helvetica,sans-Serif" font-size="10.00">load</text>
</g>
<!-- Node27 -->
<g id="node2" class="node"><title>Node27</title>
<g id="a_node2"><a xlink:href="namespacecaiman_1_1base_1_1movies.html#a5a35758b31edb4a9b2105a058a0882a6" target="_top" xlink:title="load movies from list of file names ">
<polygon fill="white" stroke="black" points="72.5,-0.5 72.5,-19.5 169.5,-19.5 169.5,-0.5 72.5,-0.5"/>
<text text-anchor="middle" x="121" y="-7.5" font-family="Helvetica,sans-Serif" font-size="10.00">load_movie_chain</text>
</a>
</g>
</g>
<!-- Node26&#45;&gt;Node27 -->
<g id="edge1" class="edge"><title>Node26&#45;&gt;Node27</title>
<path fill="none" stroke="midnightblue" d="M45.7227,-3.96461C53.9147,-3.43333 63.1884,-3.19829 72.3374,-3.25948"/>
<polygon fill="midnightblue" stroke="midnightblue" points="45.3391,-0.484627 35.6781,-4.83368 45.9426,-7.45857 45.3391,-0.484627"/>
</g>
<!-- Node27&#45;&gt;Node26 -->
<g id="edge2" class="edge"><title>Node27&#45;&gt;Node26</title>
<path fill="none" stroke="midnightblue" d="M62.1705,-16.6864C52.483,-16.5172 43.1632,-16.0105 35.6781,-15.1663"/>
<polygon fill="midnightblue" stroke="midnightblue" points="62.3189,-20.1871 72.3374,-16.7405 62.3563,-13.1872 62.3189,-20.1871"/>
</g>
</g>
</svg>
