<?xml version="1.0" encoding="UTF-8" standalone="no"?>
<!DOCTYPE svg PUBLIC "-//W3C//DTD SVG 1.1//EN"
 "http://www.w3.org/Graphics/SVG/1.1/DTD/svg11.dtd">
<!-- Generated by graphviz version 2.36.0 (20140111.2315)
 -->
<!-- Title: sbxreadskip Pages: 1 -->
<svg width="380pt" height="28pt"
 viewBox="0.00 0.00 380.00 28.00" xmlns="http://www.w3.org/2000/svg" xmlns:xlink="http://www.w3.org/1999/xlink">
<g id="graph0" class="graph" transform="scale(1 1) rotate(0) translate(4 24)">
<title>sbxreadskip</title>
<polygon fill="white" stroke="none" points="-4,4 -4,-24 376,-24 376,4 -4,4"/>
<!-- Node54 -->
<g id="node1" class="node"><title>Node54</title>
<polygon fill="#bfbfbf" stroke="black" points="0,-0.5 0,-19.5 70,-19.5 70,-0.5 0,-0.5"/>
<text text-anchor="middle" x="35" y="-7.5" font-family="Helvetica,sans-Serif" font-size="10.00">sbxreadskip</text>
</g>
<!-- Node55 -->
<g id="node2" class="node"><title>Node55</title>
<g id="a_node2"><a xlink:href="namespacecaiman_1_1base_1_1movies.html#a1dae08ecd6c4b9ef41d5e820eb86604d" target="_top" xlink:title="loadmat_sbx">
<polygon fill="white" stroke="black" points="106.5,-0.5 106.5,-19.5 179.5,-19.5 179.5,-0.5 106.5,-0.5"/>
<text text-anchor="middle" x="143" y="-7.5" font-family="Helvetica,sans-Serif" font-size="10.00">loadmat_sbx</text>
</a>
</g>
</g>
<!-- Node54&#45;&gt;Node55 -->
<g id="edge1" class="edge"><title>Node54&#45;&gt;Node55</title>
<path fill="none" stroke="midnightblue" d="M70.1225,-10C78.4745,-10 87.546,-10 96.3423,-10"/>
<polygon fill="midnightblue" stroke="midnightblue" points="96.4825,-13.5001 106.482,-10 96.4824,-6.5001 96.4825,-13.5001"/>
</g>
<!-- Node56 -->
<g id="node3" class="node"><title>Node56</title>
<g id="a_node3"><a xlink:href="namespacecaiman_1_1base_1_1movies.html#abb80862aafd574c59a95c0b24268be69" target="_top" xlink:title="_check_keys">
<polygon fill="white" stroke="black" points="216,-0.5 216,-19.5 290,-19.5 290,-0.5 216,-0.5"/>
<text text-anchor="middle" x="253" y="-7.5" font-family="Helvetica,sans-Serif" font-size="10.00">_check_keys</text>
</a>
</g>
</g>
<!-- Node55&#45;&gt;Node56 -->
<g id="edge2" class="edge"><title>Node55&#45;&gt;Node56</title>
<path fill="none" stroke="midnightblue" d="M179.663,-10C187.965,-10 196.923,-10 205.613,-10"/>
<polygon fill="midnightblue" stroke="midnightblue" points="205.636,-13.5001 215.636,-10 205.636,-6.5001 205.636,-13.5001"/>
</g>
<!-- Node57 -->
<g id="node4" class="node"><title>Node57</title>
<g id="a_node4"><a xlink:href="namespacecaiman_1_1base_1_1movies.html#a3678b9e2ae337ad61ebe7630c5e08ead" target="_top" xlink:title="A recursive function which constructs from matobjects nested dictionaries. ">
<polygon fill="white" stroke="black" points="326,-0.5 326,-19.5 372,-19.5 372,-0.5 326,-0.5"/>
<text text-anchor="middle" x="349" y="-7.5" font-family="Helvetica,sans-Serif" font-size="10.00">_todict</text>
</a>
</g>
</g>
<!-- Node56&#45;&gt;Node57 -->
<g id="edge3" class="edge"><title>Node56&#45;&gt;Node57</title>
<path fill="none" stroke="midnightblue" d="M290.074,-10C298.52,-10 307.464,-10 315.731,-10"/>
<polygon fill="midnightblue" stroke="midnightblue" points="315.753,-13.5001 325.753,-10 315.753,-6.5001 315.753,-13.5001"/>
</g>
</g>
</svg>
