<?xml version="1.0" encoding="UTF-8" standalone="no"?>
<!DOCTYPE svg PUBLIC "-//W3C//DTD SVG 1.1//EN"
 "http://www.w3.org/Graphics/SVG/1.1/DTD/svg11.dtd">
<!-- Generated by graphviz version 2.36.0 (20140111.2315)
 -->
<!-- Title: constrained_oasisAR2 Pages: 1 -->
<svg width="764pt" height="131pt"
 viewBox="0.00 0.00 764.00 131.00" xmlns="http://www.w3.org/2000/svg" xmlns:xlink="http://www.w3.org/1999/xlink">
<g id="graph0" class="graph" transform="scale(1 1) rotate(0) translate(4 127)">
<title>constrained_oasisAR2</title>
<polygon fill="white" stroke="none" points="-4,4 -4,-127 760,-127 760,4 -4,4"/>
<!-- Node45 -->
<g id="node1" class="node"><title>Node45</title>
<polygon fill="#bfbfbf" stroke="black" points="0.5,-11.5 0.5,-30.5 117.5,-30.5 117.5,-11.5 0.5,-11.5"/>
<text text-anchor="middle" x="59" y="-18.5" font-family="Helvetica,sans-Serif" font-size="10.00">constrained_oasisAR2</text>
</g>
<!-- Node46 -->
<g id="node2" class="node"><title>Node46</title>
<g id="a_node2"><a xlink:href="namespacecaiman_1_1source__extraction_1_1cnmf_1_1deconvolution.html#a0afb63d84485a181bb40f2eefe7b581e" target="_top" xlink:title="Infer the most likely discretized spike train underlying a fluorescence trace. ">
<polygon fill="white" stroke="black" points="154,-49.5 154,-68.5 254,-68.5 254,-49.5 154,-49.5"/>
<text text-anchor="middle" x="204" y="-56.5" font-family="Helvetica,sans-Serif" font-size="10.00">constrained_foopsi</text>
</a>
</g>
</g>
<!-- Node45&#45;&gt;Node46 -->
<g id="edge1" class="edge"><title>Node45&#45;&gt;Node46</title>
<path fill="none" stroke="midnightblue" d="M105.813,-33.1742C125.587,-38.4287 148.384,-44.4866 166.927,-49.4141"/>
<polygon fill="midnightblue" stroke="midnightblue" points="106.648,-29.7747 96.0849,-30.589 104.851,-36.5399 106.648,-29.7747"/>
</g>
<!-- Node51 -->
<g id="node7" class="node"><title>Node51</title>
<g id="a_node7"><a xlink:href="namespacecaiman_1_1source__extraction_1_1cnmf_1_1deconvolution.html#affae481e26d5e13bc6f62c6e643b63d5" target="_top" xlink:title="Infer the most likely discretized spike train underlying an AR(2) fluorescence trace. ">
<polygon fill="white" stroke="black" points="184,-11.5 184,-30.5 224,-30.5 224,-11.5 184,-11.5"/>
<text text-anchor="middle" x="204" y="-18.5" font-family="Helvetica,sans-Serif" font-size="10.00">onnls</text>
</a>
</g>
</g>
<!-- Node45&#45;&gt;Node51 -->
<g id="edge6" class="edge"><title>Node45&#45;&gt;Node51</title>
<path fill="none" stroke="midnightblue" d="M127.786,-14.2581C148.354,-14.1683 169.333,-14.8251 183.891,-16.2284"/>
<polygon fill="midnightblue" stroke="midnightblue" points="127.715,-10.7586 117.751,-14.3622 127.787,-17.7582 127.715,-10.7586"/>
</g>
<!-- Node47 -->
<g id="node3" class="node"><title>Node47</title>
<g id="a_node3"><a xlink:href="namespacecaiman_1_1source__extraction_1_1cnmf_1_1merging.html#ad08adf2e086a22ef379b10ed3ee36936" target="_top" xlink:title="Merging of spatially overlapping components that have highly correlated temporal activity The correla...">
<polygon fill="white" stroke="black" points="303.5,-93 303.5,-123 528.5,-123 528.5,-93 303.5,-93"/>
<text text-anchor="start" x="311.5" y="-111" font-family="Helvetica,sans-Serif" font-size="10.00">caiman.source_extraction.cnmf.merging.merge</text>
<text text-anchor="middle" x="416" y="-100" font-family="Helvetica,sans-Serif" font-size="10.00">_components</text>
</a>
</g>
</g>
<!-- Node46&#45;&gt;Node47 -->
<g id="edge2" class="edge"><title>Node46&#45;&gt;Node47</title>
<path fill="none" stroke="midnightblue" d="M246.439,-71.3978C260.236,-75.3388 275.725,-79.5626 290,-83 304.523,-86.4971 320.078,-89.8881 335.111,-92.9858"/>
<polygon fill="midnightblue" stroke="midnightblue" points="247.312,-68.0068 236.733,-68.5934 245.368,-74.7318 247.312,-68.0068"/>
</g>
<!-- Node48 -->
<g id="node4" class="node"><title>Node48</title>
<g id="a_node4"><a xlink:href="namespacecaiman_1_1source__extraction_1_1cnmf_1_1temporal.html#a2ede407f1e0d0722f51ddb6e99f48f9f" target="_top" xlink:title="necessary for parallel computation of the function constrained_foopsi ">
<polygon fill="white" stroke="black" points="290.5,-44 290.5,-74 541.5,-74 541.5,-44 290.5,-44"/>
<text text-anchor="start" x="298.5" y="-62" font-family="Helvetica,sans-Serif" font-size="10.00">caiman.source_extraction.cnmf.temporal.constrained</text>
<text text-anchor="middle" x="416" y="-51" font-family="Helvetica,sans-Serif" font-size="10.00">_foopsi_parallel</text>
</a>
</g>
</g>
<!-- Node46&#45;&gt;Node48 -->
<g id="edge3" class="edge"><title>Node46&#45;&gt;Node48</title>
<path fill="none" stroke="midnightblue" d="M264.461,-59C272.748,-59 281.505,-59 290.458,-59"/>
<polygon fill="midnightblue" stroke="midnightblue" points="264.236,-55.5001 254.236,-59 264.236,-62.5001 264.236,-55.5001"/>
</g>
<!-- Node49 -->
<g id="node5" class="node"><title>Node49</title>
<g id="a_node5"><a xlink:href="namespacecaiman_1_1tests_1_1test__deconvolution.html#aaebeed7ce9541fa4c56791c67009cdc6" target="_top" xlink:title="caiman.tests.test_deconvolution.foo">
<polygon fill="white" stroke="black" points="328.5,-5.5 328.5,-24.5 503.5,-24.5 503.5,-5.5 328.5,-5.5"/>
<text text-anchor="middle" x="416" y="-12.5" font-family="Helvetica,sans-Serif" font-size="10.00">caiman.tests.test_deconvolution.foo</text>
</a>
</g>
</g>
<!-- Node46&#45;&gt;Node49 -->
<g id="edge4" class="edge"><title>Node46&#45;&gt;Node49</title>
<path fill="none" stroke="midnightblue" d="M245.324,-46.5757C259.373,-42.5243 275.299,-38.2399 290,-35 308.136,-31.0031 327.918,-27.4657 346.284,-24.52"/>
<polygon fill="midnightblue" stroke="midnightblue" points="244.08,-43.293 235.47,-49.4663 246.051,-50.01 244.08,-43.293"/>
</g>
<!-- Node50 -->
<g id="node6" class="node"><title>Node50</title>
<g id="a_node6"><a xlink:href="namespacecaiman_1_1tests_1_1test__deconvolution.html#a90f82ae854f8179179664fe34973f11b" target="_top" xlink:title="caiman.tests.test_deconvolution.test\l_oasis">
<polygon fill="white" stroke="black" points="578,-0 578,-30 756,-30 756,-0 578,-0"/>
<text text-anchor="start" x="586" y="-18" font-family="Helvetica,sans-Serif" font-size="10.00">caiman.tests.test_deconvolution.test</text>
<text text-anchor="middle" x="667" y="-7" font-family="Helvetica,sans-Serif" font-size="10.00">_oasis</text>
</a>
</g>
</g>
<!-- Node49&#45;&gt;Node50 -->
<g id="edge5" class="edge"><title>Node49&#45;&gt;Node50</title>
<path fill="none" stroke="midnightblue" d="M513.975,-15C535.031,-15 557.193,-15 577.885,-15"/>
<polygon fill="midnightblue" stroke="midnightblue" points="513.739,-11.5001 503.739,-15 513.739,-18.5001 513.739,-11.5001"/>
</g>
<!-- Node51&#45;&gt;Node45 -->
<g id="edge7" class="edge"><title>Node51&#45;&gt;Node45</title>
<path fill="none" stroke="midnightblue" d="M173.516,-26.5835C157.411,-27.6023 136.898,-27.9538 117.751,-27.6378"/>
<polygon fill="midnightblue" stroke="midnightblue" points="174.194,-30.0413 183.891,-25.7716 173.648,-23.0626 174.194,-30.0413"/>
</g>
</g>
</svg>
