<?xml version="1.0" encoding="UTF-8" standalone="no"?>
<!DOCTYPE svg PUBLIC "-//W3C//DTD SVG 1.1//EN"
 "http://www.w3.org/Graphics/SVG/1.1/DTD/svg11.dtd">
<!-- Generated by graphviz version 2.36.0 (20140111.2315)
 -->
<!-- Title: basis_denoising Pages: 1 -->
<svg width="756pt" height="153pt"
 viewBox="0.00 0.00 756.00 153.00" xmlns="http://www.w3.org/2000/svg" xmlns:xlink="http://www.w3.org/1999/xlink">
<g id="graph0" class="graph" transform="scale(1 1) rotate(0) translate(4 149)">
<title>basis_denoising</title>
<polygon fill="white" stroke="none" points="-4,4 -4,-149 752,-149 752,4 -4,4"/>
<!-- Node0 -->
<g id="node1" class="node"><title>Node0</title>
<polygon fill="#bfbfbf" stroke="black" points="0,-68.5 0,-87.5 88,-87.5 88,-68.5 0,-68.5"/>
<text text-anchor="middle" x="44" y="-75.5" font-family="Helvetica,sans-Serif" font-size="10.00">basis_denoising</text>
</g>
<!-- Node1 -->
<g id="node2" class="node"><title>Node1</title>
<g id="a_node2"><a xlink:href="namespacecaiman_1_1source__extraction_1_1cnmf_1_1spatial.html#ab7b90a8cbd754f9c03b13cf1709eebd4" target="_top" xlink:title="update spatial footprints and background through Basis Pursuit Denoising ">
<polygon fill="white" stroke="black" points="124,-68.5 124,-87.5 266,-87.5 266,-68.5 124,-68.5"/>
<text text-anchor="middle" x="195" y="-75.5" font-family="Helvetica,sans-Serif" font-size="10.00">update_spatial_components</text>
</a>
</g>
</g>
<!-- Node0&#45;&gt;Node1 -->
<g id="edge1" class="edge"><title>Node0&#45;&gt;Node1</title>
<path fill="none" stroke="midnightblue" d="M88.097,-78C96.1277,-78 104.754,-78 113.492,-78"/>
<polygon fill="midnightblue" stroke="midnightblue" points="113.771,-81.5001 123.771,-78 113.771,-74.5001 113.771,-81.5001"/>
</g>
<!-- Node2 -->
<g id="node3" class="node"><title>Node2</title>
<g id="a_node3"><a xlink:href="namespacecaiman_1_1source__extraction_1_1cnmf_1_1spatial.html#aca0edbf4c2cd31fe1a9c228c4099a485" target="_top" xlink:title="restrict search location to subset of pixels ">
<polygon fill="white" stroke="black" points="302.5,-125.5 302.5,-144.5 439.5,-144.5 439.5,-125.5 302.5,-125.5"/>
<text text-anchor="middle" x="371" y="-132.5" font-family="Helvetica,sans-Serif" font-size="10.00">determine_search_location</text>
</a>
</g>
</g>
<!-- Node1&#45;&gt;Node2 -->
<g id="edge2" class="edge"><title>Node1&#45;&gt;Node2</title>
<path fill="none" stroke="midnightblue" d="M225.124,-87.5405C254.232,-97.076 299.159,-111.794 331.262,-122.31"/>
<polygon fill="midnightblue" stroke="midnightblue" points="330.189,-125.641 340.781,-125.428 332.368,-118.989 330.189,-125.641"/>
</g>
<!-- Node3 -->
<g id="node4" class="node"><title>Node3</title>
<g id="a_node4"><a xlink:href="namespacecaiman_1_1mmapping.html#aeb2ed62e4a9028089a2eec09d392707f" target="_top" xlink:title="Load a memory mapped file created by the function save_memmap. ">
<polygon fill="white" stroke="black" points="628,-50 628,-80 748,-80 748,-50 628,-50"/>
<text text-anchor="start" x="636" y="-68" font-family="Helvetica,sans-Serif" font-size="10.00">caiman.mmapping.load</text>
<text text-anchor="middle" x="688" y="-57" font-family="Helvetica,sans-Serif" font-size="10.00">_memmap</text>
</a>
</g>
</g>
<!-- Node1&#45;&gt;Node3 -->
<g id="edge3" class="edge"><title>Node1&#45;&gt;Node3</title>
<path fill="none" stroke="midnightblue" d="M266.22,-78.9772C314.983,-79.4163 381.456,-79.5396 440,-78 500.014,-76.4218 568.144,-72.6902 617.628,-69.6279"/>
<polygon fill="midnightblue" stroke="midnightblue" points="618.132,-73.1033 627.894,-68.9856 617.695,-66.1169 618.132,-73.1033"/>
</g>
<!-- Node4 -->
<g id="node5" class="node"><title>Node4</title>
<g id="a_node5"><a xlink:href="namespacecaiman_1_1source__extraction_1_1cnmf_1_1spatial.html#a3fa5db8c88b06457233eb35dbcea3588" target="_top" xlink:title="threshold_components">
<polygon fill="white" stroke="black" points="312,-49.5 312,-68.5 430,-68.5 430,-49.5 312,-49.5"/>
<text text-anchor="middle" x="371" y="-56.5" font-family="Helvetica,sans-Serif" font-size="10.00">threshold_components</text>
</a>
</g>
</g>
<!-- Node1&#45;&gt;Node4 -->
<g id="edge4" class="edge"><title>Node1&#45;&gt;Node4</title>
<path fill="none" stroke="midnightblue" d="M266.02,-70.3541C277.78,-69.0701 289.969,-67.739 301.685,-66.4597"/>
<polygon fill="midnightblue" stroke="midnightblue" points="302.274,-69.9162 311.835,-65.3513 301.514,-62.9576 302.274,-69.9162"/>
</g>
<!-- Node5 -->
<g id="node6" class="node"><title>Node5</title>
<g id="a_node6"><a xlink:href="namespacecaiman_1_1mmapping.html#aa75ec735ea507b2ce7eb0e0bd33d2ba3" target="_top" xlink:title="Chunk matrix product between matrix and column vectors A memory mapped ndarray pixels x time b time x...">
<polygon fill="white" stroke="black" points="304.5,-0 304.5,-30 437.5,-30 437.5,-0 304.5,-0"/>
<text text-anchor="start" x="312.5" y="-18" font-family="Helvetica,sans-Serif" font-size="10.00">caiman.mmapping.parallel</text>
<text text-anchor="middle" x="371" y="-7" font-family="Helvetica,sans-Serif" font-size="10.00">_dot_product</text>
</a>
</g>
</g>
<!-- Node1&#45;&gt;Node5 -->
<g id="edge5" class="edge"><title>Node1&#45;&gt;Node5</title>
<path fill="none" stroke="midnightblue" d="M222.427,-68.4317C247.929,-59.198 287.218,-44.9729 318.846,-33.5213"/>
<polygon fill="midnightblue" stroke="midnightblue" points="320.181,-36.7605 328.392,-30.065 317.798,-30.1786 320.181,-36.7605"/>
</g>
<!-- Node6 -->
<g id="node7" class="node"><title>Node6</title>
<g id="a_node7"><a xlink:href="namespacecaiman_1_1mmapping.html#a14d47c076020d7d3adf2599ed3354e4b" target="_top" xlink:title="caiman.mmapping.dot\l_place_holder">
<polygon fill="white" stroke="black" points="476.5,-19 476.5,-49 591.5,-49 591.5,-19 476.5,-19"/>
<text text-anchor="start" x="484.5" y="-37" font-family="Helvetica,sans-Serif" font-size="10.00">caiman.mmapping.dot</text>
<text text-anchor="middle" x="534" y="-26" font-family="Helvetica,sans-Serif" font-size="10.00">_place_holder</text>
</a>
</g>
</g>
<!-- Node5&#45;&gt;Node6 -->
<g id="edge6" class="edge"><title>Node5&#45;&gt;Node6</title>
<path fill="none" stroke="midnightblue" d="M437.949,-22.7828C447.324,-23.8892 456.971,-25.0277 466.359,-26.1355"/>
<polygon fill="midnightblue" stroke="midnightblue" points="466.077,-29.6265 476.419,-27.3227 466.898,-22.6747 466.077,-29.6265"/>
</g>
<!-- Node6&#45;&gt;Node3 -->
<g id="edge7" class="edge"><title>Node6&#45;&gt;Node3</title>
<path fill="none" stroke="midnightblue" d="M591.599,-45.5433C600.185,-47.2943 609.125,-49.1175 617.939,-50.9151"/>
<polygon fill="midnightblue" stroke="midnightblue" points="617.313,-54.3596 627.811,-52.9286 618.712,-47.5008 617.313,-54.3596"/>
</g>
</g>
</svg>
