<?xml version="1.0" encoding="UTF-8" standalone="no"?>
<!DOCTYPE svg PUBLIC "-//W3C//DTD SVG 1.1//EN"
 "http://www.w3.org/Graphics/SVG/1.1/DTD/svg11.dtd">
<!-- Generated by graphviz version 2.36.0 (20140111.2315)
 -->
<!-- Title: normalize_components Pages: 1 -->
<svg width="202pt" height="28pt"
 viewBox="0.00 0.00 202.00 28.00" xmlns="http://www.w3.org/2000/svg" xmlns:xlink="http://www.w3.org/1999/xlink">
<g id="graph0" class="graph" transform="scale(1 1) rotate(0) translate(4 24)">
<title>normalize_components</title>
<polygon fill="white" stroke="none" points="-4,4 -4,-24 198,-24 198,4 -4,4"/>
<!-- Node35 -->
<g id="node1" class="node"><title>Node35</title>
<polygon fill="#bfbfbf" stroke="black" points="0,-0.5 0,-19.5 120,-19.5 120,-0.5 0,-0.5"/>
<text text-anchor="middle" x="60" y="-7.5" font-family="Helvetica,sans-Serif" font-size="10.00">normalize_components</text>
</g>
<!-- Node36 -->
<g id="node2" class="node"><title>Node36</title>
<g id="a_node2"><a xlink:href="namespacecaiman_1_1behavior_1_1behavior.html#a513c5d7fc1e56d74ff55d4f74ee836a3" target="_top" xlink:title="main">
<polygon fill="white" stroke="black" points="156,-0.5 156,-19.5 194,-19.5 194,-0.5 156,-0.5"/>
<text text-anchor="middle" x="175" y="-7.5" font-family="Helvetica,sans-Serif" font-size="10.00">main</text>
</a>
</g>
</g>
<!-- Node35&#45;&gt;Node36 -->
<g id="edge1" class="edge"><title>Node35&#45;&gt;Node36</title>
<path fill="none" stroke="midnightblue" d="M130.438,-3.40984C139.79,-3.64461 148.641,-4.13801 155.892,-4.89005"/>
<polygon fill="midnightblue" stroke="midnightblue" points="130.199,0.0940289 120.148,-3.25659 130.094,-6.9052 130.199,0.0940289"/>
</g>
<!-- Node36&#45;&gt;Node35 -->
<g id="edge2" class="edge"><title>Node36&#45;&gt;Node35</title>
<path fill="none" stroke="midnightblue" d="M145.851,-15.9295C137.974,-16.4275 129.105,-16.6988 120.148,-16.7434"/>
<polygon fill="midnightblue" stroke="midnightblue" points="146.21,-19.4119 155.892,-15.11 145.64,-12.4351 146.21,-19.4119"/>
</g>
</g>
</svg>
