<?xml version="1.0" encoding="UTF-8" standalone="no"?>
<!DOCTYPE svg PUBLIC "-//W3C//DTD SVG 1.1//EN"
 "http://www.w3.org/Graphics/SVG/1.1/DTD/svg11.dtd">
<!-- Generated by graphviz version 2.36.0 (20140111.2315)
 -->
<!-- Title: axcov Pages: 1 -->
<svg width="1148pt" height="131pt"
 viewBox="0.00 0.00 1148.00 131.00" xmlns="http://www.w3.org/2000/svg" xmlns:xlink="http://www.w3.org/1999/xlink">
<g id="graph0" class="graph" transform="scale(1 1) rotate(0) translate(4 127)">
<title>axcov</title>
<polygon fill="white" stroke="none" points="-4,4 -4,-127 1144,-127 1144,4 -4,4"/>
<!-- Node11 -->
<g id="node1" class="node"><title>Node11</title>
<polygon fill="#bfbfbf" stroke="black" points="0.5,-30.5 0.5,-49.5 43.5,-49.5 43.5,-30.5 0.5,-30.5"/>
<text text-anchor="middle" x="22" y="-37.5" font-family="Helvetica,sans-Serif" font-size="10.00">axcov</text>
</g>
<!-- Node12 -->
<g id="node2" class="node"><title>Node12</title>
<g id="a_node2"><a xlink:href="namespacecaiman_1_1source__extraction_1_1cnmf_1_1deconvolution.html#a7a73db2b3e0e88f4a5f30f80944c1319" target="_top" xlink:title="estimate_time_constant">
<polygon fill="white" stroke="black" points="80,-30.5 80,-49.5 202,-49.5 202,-30.5 80,-30.5"/>
<text text-anchor="middle" x="141" y="-37.5" font-family="Helvetica,sans-Serif" font-size="10.00">estimate_time_constant</text>
</a>
</g>
</g>
<!-- Node11&#45;&gt;Node12 -->
<g id="edge1" class="edge"><title>Node11&#45;&gt;Node12</title>
<path fill="none" stroke="midnightblue" d="M53.6832,-40C61.7787,-40 70.8006,-40 79.8747,-40"/>
<polygon fill="midnightblue" stroke="midnightblue" points="53.648,-36.5001 43.6479,-40 53.6479,-43.5001 53.648,-36.5001"/>
</g>
<!-- Node13 -->
<g id="node3" class="node"><title>Node13</title>
<g id="a_node3"><a xlink:href="namespacecaiman_1_1source__extraction_1_1cnmf_1_1deconvolution.html#a5753e123f06d6f8a5f53e8f1cc50baba" target="_top" xlink:title="Infer the most likely discretized spike train underlying an AR(2) fluorescence trace. ">
<polygon fill="white" stroke="black" points="384.5,-11.5 384.5,-30.5 501.5,-30.5 501.5,-11.5 384.5,-11.5"/>
<text text-anchor="middle" x="443" y="-18.5" font-family="Helvetica,sans-Serif" font-size="10.00">constrained_oasisAR2</text>
</a>
</g>
</g>
<!-- Node12&#45;&gt;Node13 -->
<g id="edge2" class="edge"><title>Node12&#45;&gt;Node13</title>
<path fill="none" stroke="midnightblue" d="M212.559,-35.5313C264.878,-32.2177 335.321,-27.7563 384.294,-24.6547"/>
<polygon fill="midnightblue" stroke="midnightblue" points="212.107,-32.0528 202.349,-36.1779 212.55,-39.0388 212.107,-32.0528"/>
</g>
<!-- Node20 -->
<g id="node10" class="node"><title>Node20</title>
<g id="a_node10"><a xlink:href="namespacecaiman_1_1source__extraction_1_1cnmf_1_1deconvolution.html#a7199190b4f33e4a70dedc9deea7e4c45" target="_top" xlink:title="estimate_parameters">
<polygon fill="white" stroke="black" points="238,-49.5 238,-68.5 348,-68.5 348,-49.5 238,-49.5"/>
<text text-anchor="middle" x="293" y="-56.5" font-family="Helvetica,sans-Serif" font-size="10.00">estimate_parameters</text>
</a>
</g>
</g>
<!-- Node12&#45;&gt;Node20 -->
<g id="edge10" class="edge"><title>Node12&#45;&gt;Node20</title>
<path fill="none" stroke="midnightblue" d="M212.142,-48.8847C220.714,-49.9704 229.37,-51.0669 237.661,-52.1171"/>
<polygon fill="midnightblue" stroke="midnightblue" points="212.507,-45.403 202.146,-47.6185 211.627,-52.3475 212.507,-45.403"/>
</g>
<!-- Node14 -->
<g id="node4" class="node"><title>Node14</title>
<g id="a_node4"><a xlink:href="namespacecaiman_1_1source__extraction_1_1cnmf_1_1deconvolution.html#a0afb63d84485a181bb40f2eefe7b581e" target="_top" xlink:title="Infer the most likely discretized spike train underlying a fluorescence trace. ">
<polygon fill="white" stroke="black" points="538,-49.5 538,-68.5 638,-68.5 638,-49.5 538,-49.5"/>
<text text-anchor="middle" x="588" y="-56.5" font-family="Helvetica,sans-Serif" font-size="10.00">constrained_foopsi</text>
</a>
</g>
</g>
<!-- Node13&#45;&gt;Node14 -->
<g id="edge3" class="edge"><title>Node13&#45;&gt;Node14</title>
<path fill="none" stroke="midnightblue" d="M489.813,-33.1742C509.587,-38.4287 532.384,-44.4866 550.927,-49.4141"/>
<polygon fill="midnightblue" stroke="midnightblue" points="490.648,-29.7747 480.085,-30.589 488.851,-36.5399 490.648,-29.7747"/>
</g>
<!-- Node19 -->
<g id="node9" class="node"><title>Node19</title>
<g id="a_node9"><a xlink:href="namespacecaiman_1_1source__extraction_1_1cnmf_1_1deconvolution.html#affae481e26d5e13bc6f62c6e643b63d5" target="_top" xlink:title="Infer the most likely discretized spike train underlying an AR(2) fluorescence trace. ">
<polygon fill="white" stroke="black" points="568,-11.5 568,-30.5 608,-30.5 608,-11.5 568,-11.5"/>
<text text-anchor="middle" x="588" y="-18.5" font-family="Helvetica,sans-Serif" font-size="10.00">onnls</text>
</a>
</g>
</g>
<!-- Node13&#45;&gt;Node19 -->
<g id="edge8" class="edge"><title>Node13&#45;&gt;Node19</title>
<path fill="none" stroke="midnightblue" d="M511.786,-14.2581C532.354,-14.1683 553.333,-14.8251 567.891,-16.2284"/>
<polygon fill="midnightblue" stroke="midnightblue" points="511.715,-10.7586 501.751,-14.3622 511.787,-17.7582 511.715,-10.7586"/>
</g>
<!-- Node15 -->
<g id="node5" class="node"><title>Node15</title>
<g id="a_node5"><a xlink:href="namespacecaiman_1_1source__extraction_1_1cnmf_1_1merging.html#ad08adf2e086a22ef379b10ed3ee36936" target="_top" xlink:title="Merging of spatially overlapping components that have highly correlated temporal activity The correla...">
<polygon fill="white" stroke="black" points="687.5,-93 687.5,-123 912.5,-123 912.5,-93 687.5,-93"/>
<text text-anchor="start" x="695.5" y="-111" font-family="Helvetica,sans-Serif" font-size="10.00">caiman.source_extraction.cnmf.merging.merge</text>
<text text-anchor="middle" x="800" y="-100" font-family="Helvetica,sans-Serif" font-size="10.00">_components</text>
</a>
</g>
</g>
<!-- Node14&#45;&gt;Node15 -->
<g id="edge4" class="edge"><title>Node14&#45;&gt;Node15</title>
<path fill="none" stroke="midnightblue" d="M630.439,-71.3978C644.236,-75.3388 659.725,-79.5626 674,-83 688.523,-86.4971 704.078,-89.8881 719.111,-92.9858"/>
<polygon fill="midnightblue" stroke="midnightblue" points="631.312,-68.0068 620.733,-68.5934 629.368,-74.7318 631.312,-68.0068"/>
</g>
<!-- Node16 -->
<g id="node6" class="node"><title>Node16</title>
<g id="a_node6"><a xlink:href="namespacecaiman_1_1source__extraction_1_1cnmf_1_1temporal.html#a2ede407f1e0d0722f51ddb6e99f48f9f" target="_top" xlink:title="necessary for parallel computation of the function constrained_foopsi ">
<polygon fill="white" stroke="black" points="674.5,-44 674.5,-74 925.5,-74 925.5,-44 674.5,-44"/>
<text text-anchor="start" x="682.5" y="-62" font-family="Helvetica,sans-Serif" font-size="10.00">caiman.source_extraction.cnmf.temporal.constrained</text>
<text text-anchor="middle" x="800" y="-51" font-family="Helvetica,sans-Serif" font-size="10.00">_foopsi_parallel</text>
</a>
</g>
</g>
<!-- Node14&#45;&gt;Node16 -->
<g id="edge5" class="edge"><title>Node14&#45;&gt;Node16</title>
<path fill="none" stroke="midnightblue" d="M648.461,-59C656.748,-59 665.505,-59 674.458,-59"/>
<polygon fill="midnightblue" stroke="midnightblue" points="648.236,-55.5001 638.236,-59 648.236,-62.5001 648.236,-55.5001"/>
</g>
<!-- Node17 -->
<g id="node7" class="node"><title>Node17</title>
<g id="a_node7"><a xlink:href="namespacecaiman_1_1tests_1_1test__deconvolution.html#aaebeed7ce9541fa4c56791c67009cdc6" target="_top" xlink:title="caiman.tests.test_deconvolution.foo">
<polygon fill="white" stroke="black" points="712.5,-5.5 712.5,-24.5 887.5,-24.5 887.5,-5.5 712.5,-5.5"/>
<text text-anchor="middle" x="800" y="-12.5" font-family="Helvetica,sans-Serif" font-size="10.00">caiman.tests.test_deconvolution.foo</text>
</a>
</g>
</g>
<!-- Node14&#45;&gt;Node17 -->
<g id="edge6" class="edge"><title>Node14&#45;&gt;Node17</title>
<path fill="none" stroke="midnightblue" d="M627.484,-46.4834C641.956,-42.0939 658.627,-37.4127 674,-34 690.5,-30.3371 708.383,-27.1587 725.325,-24.5048"/>
<polygon fill="midnightblue" stroke="midnightblue" points="626.38,-43.161 617.859,-49.4564 628.446,-49.8492 626.38,-43.161"/>
</g>
<!-- Node18 -->
<g id="node8" class="node"><title>Node18</title>
<g id="a_node8"><a xlink:href="namespacecaiman_1_1tests_1_1test__deconvolution.html#a90f82ae854f8179179664fe34973f11b" target="_top" xlink:title="caiman.tests.test_deconvolution.test\l_oasis">
<polygon fill="white" stroke="black" points="962,-0 962,-30 1140,-30 1140,-0 962,-0"/>
<text text-anchor="start" x="970" y="-18" font-family="Helvetica,sans-Serif" font-size="10.00">caiman.tests.test_deconvolution.test</text>
<text text-anchor="middle" x="1051" y="-7" font-family="Helvetica,sans-Serif" font-size="10.00">_oasis</text>
</a>
</g>
</g>
<!-- Node17&#45;&gt;Node18 -->
<g id="edge7" class="edge"><title>Node17&#45;&gt;Node18</title>
<path fill="none" stroke="midnightblue" d="M897.975,-15C919.031,-15 941.193,-15 961.885,-15"/>
<polygon fill="midnightblue" stroke="midnightblue" points="897.739,-11.5001 887.739,-15 897.739,-18.5001 897.739,-11.5001"/>
</g>
<!-- Node19&#45;&gt;Node13 -->
<g id="edge9" class="edge"><title>Node19&#45;&gt;Node13</title>
<path fill="none" stroke="midnightblue" d="M557.516,-26.5835C541.411,-27.6023 520.898,-27.9538 501.751,-27.6378"/>
<polygon fill="midnightblue" stroke="midnightblue" points="558.194,-30.0413 567.891,-25.7716 557.648,-23.0626 558.194,-30.0413"/>
</g>
<!-- Node20&#45;&gt;Node13 -->
<g id="edge12" class="edge"><title>Node20&#45;&gt;Node13</title>
<path fill="none" stroke="midnightblue" d="M341.173,-46.8879C361.786,-41.5956 385.609,-35.4787 404.922,-30.5201"/>
<polygon fill="midnightblue" stroke="midnightblue" points="340.162,-43.534 331.347,-49.411 341.903,-50.3141 340.162,-43.534"/>
</g>
<!-- Node20&#45;&gt;Node14 -->
<g id="edge11" class="edge"><title>Node20&#45;&gt;Node14</title>
<path fill="none" stroke="midnightblue" d="M358.235,-59C412.233,-59 488.295,-59 537.623,-59"/>
<polygon fill="midnightblue" stroke="midnightblue" points="358.082,-55.5001 348.082,-59 358.082,-62.5001 358.082,-55.5001"/>
</g>
</g>
</svg>
