<?xml version="1.0" encoding="UTF-8" standalone="no"?>
<!DOCTYPE svg PUBLIC "-//W3C//DTD SVG 1.1//EN"
 "http://www.w3.org/Graphics/SVG/1.1/DTD/svg11.dtd">
<!-- Generated by graphviz version 2.36.0 (20140111.2315)
 -->
<!-- Title: _hsm Pages: 1 -->
<svg width="1080pt" height="87pt"
 viewBox="0.00 0.00 1080.00 87.00" xmlns="http://www.w3.org/2000/svg" xmlns:xlink="http://www.w3.org/1999/xlink">
<g id="graph0" class="graph" transform="scale(1 1) rotate(0) translate(4 83)">
<title>_hsm</title>
<polygon fill="white" stroke="none" points="-4,4 -4,-83 1076,-83 1076,4 -4,4"/>
<!-- Node1 -->
<g id="node1" class="node"><title>Node1</title>
<polygon fill="#bfbfbf" stroke="black" points="0.5,-29.5 0.5,-48.5 41.5,-48.5 41.5,-29.5 0.5,-29.5"/>
<text text-anchor="middle" x="21" y="-36.5" font-family="Helvetica,sans-Serif" font-size="10.00">_hsm</text>
</g>
<!-- Node2 -->
<g id="node2" class="node"><title>Node2</title>
<g id="a_node2"><a xlink:href="namespacecaiman_1_1utils_1_1stats.html#ad89811d5260ec000aff655f547770d16" target="_top" xlink:title="Robust estimator of the mode of a data set using the half&#45;sample mode. ">
<polygon fill="white" stroke="black" points="78.5,-48.5 78.5,-67.5 175.5,-67.5 175.5,-48.5 78.5,-48.5"/>
<text text-anchor="middle" x="127" y="-55.5" font-family="Helvetica,sans-Serif" font-size="10.00">mode_robust_fast</text>
</a>
</g>
</g>
<!-- Node1&#45;&gt;Node2 -->
<g id="edge1" class="edge"><title>Node1&#45;&gt;Node2</title>
<path fill="none" stroke="midnightblue" d="M51.5762,-44.4034C59.9565,-45.9344 69.2978,-47.6409 78.4536,-49.3136"/>
<polygon fill="midnightblue" stroke="midnightblue" points="52.0278,-40.928 41.5616,-42.5738 50.7697,-47.814 52.0278,-40.928"/>
</g>
<!-- Node8 -->
<g id="node8" class="node"><title>Node8</title>
<g id="a_node8"><a xlink:href="namespacecaiman_1_1utils_1_1stats.html#ad63c9de399766045f2623d9ec6653709" target="_top" xlink:title="Robust estimator of the mode of a data set using the half&#45;sample mode. ">
<polygon fill="white" stroke="black" points="89.5,-10.5 89.5,-29.5 164.5,-29.5 164.5,-10.5 89.5,-10.5"/>
<text text-anchor="middle" x="127" y="-17.5" font-family="Helvetica,sans-Serif" font-size="10.00">mode_robust</text>
</a>
</g>
</g>
<!-- Node1&#45;&gt;Node8 -->
<g id="edge7" class="edge"><title>Node1&#45;&gt;Node8</title>
<path fill="none" stroke="midnightblue" d="M51.6956,-33.5748C63.3966,-31.4372 76.9567,-28.9598 89.2649,-26.7112"/>
<polygon fill="midnightblue" stroke="midnightblue" points="50.7697,-30.186 41.5616,-35.4262 52.0278,-37.072 50.7697,-30.186"/>
</g>
<!-- Node3 -->
<g id="node3" class="node"><title>Node3</title>
<g id="a_node3"><a xlink:href="namespacecaiman_1_1components__evaluation.html#a115ea8d0f9c41cb31cb7fe05535f65f7" target="_top" xlink:title="estimate the noise in the traces under assumption that signals are sparse and only positive...">
<polygon fill="white" stroke="black" points="212,-49 212,-79 410,-79 410,-49 212,-49"/>
<text text-anchor="start" x="220" y="-67" font-family="Helvetica,sans-Serif" font-size="10.00">caiman.components_evaluation.estimate</text>
<text text-anchor="middle" x="311" y="-56" font-family="Helvetica,sans-Serif" font-size="10.00">_noise_mode</text>
</a>
</g>
</g>
<!-- Node2&#45;&gt;Node3 -->
<g id="edge2" class="edge"><title>Node2&#45;&gt;Node3</title>
<path fill="none" stroke="midnightblue" d="M186.035,-59.9132C194.297,-60.1856 202.978,-60.4718 211.75,-60.761"/>
<polygon fill="midnightblue" stroke="midnightblue" points="185.928,-56.4079 175.818,-59.5764 185.698,-63.4041 185.928,-56.4079"/>
</g>
<!-- Node4 -->
<g id="node4" class="node"><title>Node4</title>
<g id="a_node4"><a xlink:href="namespacecaiman_1_1components__evaluation.html#a967e8c445c84976814609f9c120153a2" target="_top" xlink:title="caiman.components_evaluation.compute\l_event_exceptionality">
<polygon fill="white" stroke="black" points="212,-0 212,-30 410,-30 410,-0 212,-0"/>
<text text-anchor="start" x="220" y="-18" font-family="Helvetica,sans-Serif" font-size="10.00">caiman.components_evaluation.compute</text>
<text text-anchor="middle" x="311" y="-7" font-family="Helvetica,sans-Serif" font-size="10.00">_event_exceptionality</text>
</a>
</g>
</g>
<!-- Node2&#45;&gt;Node4 -->
<g id="edge3" class="edge"><title>Node2&#45;&gt;Node4</title>
<path fill="none" stroke="midnightblue" d="M178.127,-46.1569C199.255,-41.1649 224.095,-35.2962 246.485,-30.0063"/>
<polygon fill="midnightblue" stroke="midnightblue" points="177.319,-42.7513 168.392,-48.4569 178.929,-49.5637 177.319,-42.7513"/>
</g>
<!-- Node5 -->
<g id="node5" class="node"><title>Node5</title>
<g id="a_node5"><a xlink:href="namespacecaiman_1_1components__evaluation.html#ad2a8435be788c8e75130e41f884adb0f" target="_top" xlink:title="Define a metric and order components according to the probabilty if some &quot;exceptional events&quot; (like a...">
<polygon fill="white" stroke="black" points="446,-0 446,-30 644,-30 644,-0 446,-0"/>
<text text-anchor="start" x="454" y="-18" font-family="Helvetica,sans-Serif" font-size="10.00">caiman.components_evaluation.evaluate</text>
<text text-anchor="middle" x="545" y="-7" font-family="Helvetica,sans-Serif" font-size="10.00">_components</text>
</a>
</g>
</g>
<!-- Node4&#45;&gt;Node5 -->
<g id="edge4" class="edge"><title>Node4&#45;&gt;Node5</title>
<path fill="none" stroke="midnightblue" d="M420.119,-15C428.727,-15 437.393,-15 445.926,-15"/>
<polygon fill="midnightblue" stroke="midnightblue" points="420.053,-11.5001 410.053,-15 420.053,-18.5001 420.053,-11.5001"/>
</g>
<!-- Node6 -->
<g id="node6" class="node"><title>Node6</title>
<g id="a_node6"><a xlink:href="namespacecaiman_1_1components__evaluation.html#a57b89e19503abe333d5767d462266e7a" target="_top" xlink:title="caiman.components_evaluation.estimate\l_components_quality">
<polygon fill="white" stroke="black" points="680,-0 680,-30 878,-30 878,-0 680,-0"/>
<text text-anchor="start" x="688" y="-18" font-family="Helvetica,sans-Serif" font-size="10.00">caiman.components_evaluation.estimate</text>
<text text-anchor="middle" x="779" y="-7" font-family="Helvetica,sans-Serif" font-size="10.00">_components_quality</text>
</a>
</g>
</g>
<!-- Node5&#45;&gt;Node6 -->
<g id="edge5" class="edge"><title>Node5&#45;&gt;Node6</title>
<path fill="none" stroke="midnightblue" d="M654.119,-15C662.727,-15 671.393,-15 679.926,-15"/>
<polygon fill="midnightblue" stroke="midnightblue" points="654.053,-11.5001 644.053,-15 654.053,-18.5001 654.053,-11.5001"/>
</g>
<!-- Node7 -->
<g id="node7" class="node"><title>Node7</title>
<g id="a_node7"><a xlink:href="namespacecaiman_1_1tests_1_1comparison_1_1create__gt.html#a6d8adb7810bd5f7de466b0a661a69743" target="_top" xlink:title="the function that will create a groundtruth ">
<polygon fill="white" stroke="black" points="914,-0 914,-30 1072,-30 1072,-0 914,-0"/>
<text text-anchor="start" x="922" y="-18" font-family="Helvetica,sans-Serif" font-size="10.00">caiman.tests.comparison.create</text>
<text text-anchor="middle" x="993" y="-7" font-family="Helvetica,sans-Serif" font-size="10.00">_gt.create</text>
</a>
</g>
</g>
<!-- Node6&#45;&gt;Node7 -->
<g id="edge6" class="edge"><title>Node6&#45;&gt;Node7</title>
<path fill="none" stroke="midnightblue" d="M888.313,-15C896.895,-15 905.457,-15 913.773,-15"/>
<polygon fill="midnightblue" stroke="midnightblue" points="888.243,-11.5001 878.242,-15 888.242,-18.5001 888.243,-11.5001"/>
</g>
<!-- Node8&#45;&gt;Node3 -->
<g id="edge8" class="edge"><title>Node8&#45;&gt;Node3</title>
<path fill="none" stroke="midnightblue" d="M174.691,-31.2879C196.927,-36.6637 223.833,-43.1683 247.776,-48.9567"/>
<polygon fill="midnightblue" stroke="midnightblue" points="175.373,-27.852 164.83,-28.9041 173.728,-34.656 175.373,-27.852"/>
</g>
<!-- Node8&#45;&gt;Node4 -->
<g id="edge9" class="edge"><title>Node8&#45;&gt;Node4</title>
<path fill="none" stroke="midnightblue" d="M174.946,-18.7103C186.366,-18.3965 199.006,-18.0493 211.838,-17.6968"/>
<polygon fill="midnightblue" stroke="midnightblue" points="174.73,-15.2148 164.83,-18.9882 174.923,-22.2121 174.73,-15.2148"/>
</g>
</g>
</svg>
