<?xml version="1.0" encoding="UTF-8" standalone="no"?>
<!DOCTYPE svg PUBLIC "-//W3C//DTD SVG 1.1//EN"
 "http://www.w3.org/Graphics/SVG/1.1/DTD/svg11.dtd">
<!-- Generated by graphviz version 2.36.0 (20140111.2315)
 -->
<!-- Title: dot_place_holder Pages: 1 -->
<svg width="800pt" height="131pt"
 viewBox="0.00 0.00 800.00 131.00" xmlns="http://www.w3.org/2000/svg" xmlns:xlink="http://www.w3.org/1999/xlink">
<g id="graph0" class="graph" transform="scale(1 1) rotate(0) translate(4 127)">
<title>dot_place_holder</title>
<polygon fill="white" stroke="none" points="-4,4 -4,-127 796,-127 796,4 -4,4"/>
<!-- Node2 -->
<g id="node1" class="node"><title>Node2</title>
<polygon fill="#bfbfbf" stroke="black" points="0.5,-49.5 0.5,-68.5 93.5,-68.5 93.5,-49.5 0.5,-49.5"/>
<text text-anchor="middle" x="47" y="-56.5" font-family="Helvetica,sans-Serif" font-size="10.00">dot_place_holder</text>
</g>
<!-- Node3 -->
<g id="node2" class="node"><title>Node3</title>
<g id="a_node2"><a xlink:href="namespacecaiman_1_1mmapping.html#aa75ec735ea507b2ce7eb0e0bd33d2ba3" target="_top" xlink:title="Chunk matrix product between matrix and column vectors A memory mapped ndarray pixels x time b time x...">
<polygon fill="white" stroke="black" points="130.5,-49.5 130.5,-68.5 237.5,-68.5 237.5,-49.5 130.5,-49.5"/>
<text text-anchor="middle" x="184" y="-56.5" font-family="Helvetica,sans-Serif" font-size="10.00">parallel_dot_product</text>
</a>
</g>
</g>
<!-- Node2&#45;&gt;Node3 -->
<g id="edge1" class="edge"><title>Node2&#45;&gt;Node3</title>
<path fill="none" stroke="midnightblue" d="M103.843,-59C112.616,-59 121.66,-59 130.358,-59"/>
<polygon fill="midnightblue" stroke="midnightblue" points="103.705,-55.5001 93.7048,-59 103.705,-62.5001 103.705,-55.5001"/>
</g>
<!-- Node4 -->
<g id="node3" class="node"><title>Node4</title>
<g id="a_node3"><a xlink:href="namespacecaiman_1_1source__extraction_1_1cnmf_1_1spatial.html#ac4b406f52054893ed2518a761921d4f4" target="_top" xlink:title="update spatial footprints and background through Basis Pursuit Denoising ">
<polygon fill="white" stroke="black" points="290,-93 290,-123 510,-123 510,-93 290,-93"/>
<text text-anchor="start" x="298" y="-111" font-family="Helvetica,sans-Serif" font-size="10.00">caiman.source_extraction.cnmf.spatial.update</text>
<text text-anchor="middle" x="400" y="-100" font-family="Helvetica,sans-Serif" font-size="10.00">_spatial_components</text>
</a>
</g>
</g>
<!-- Node3&#45;&gt;Node4 -->
<g id="edge2" class="edge"><title>Node3&#45;&gt;Node4</title>
<path fill="none" stroke="midnightblue" d="M228.001,-71.2101C242.555,-75.1786 258.936,-79.4665 274,-83 288.759,-86.462 304.57,-89.8612 319.812,-92.9834"/>
<polygon fill="midnightblue" stroke="midnightblue" points="228.826,-67.8071 218.256,-68.527 226.968,-74.556 228.826,-67.8071"/>
</g>
<!-- Node6 -->
<g id="node5" class="node"><title>Node6</title>
<g id="a_node5"><a xlink:href="namespacecaiman_1_1source__extraction_1_1cnmf_1_1temporal.html#ae56ee735c5b8f6fdaca8baaee1371d58" target="_top" xlink:title="Update temporal components and background given spatial components using a block coordinate descent a...">
<polygon fill="white" stroke="black" points="285,-44 285,-74 515,-74 515,-44 285,-44"/>
<text text-anchor="start" x="293" y="-62" font-family="Helvetica,sans-Serif" font-size="10.00">caiman.source_extraction.cnmf.temporal.update</text>
<text text-anchor="middle" x="400" y="-51" font-family="Helvetica,sans-Serif" font-size="10.00">_temporal_components</text>
</a>
</g>
</g>
<!-- Node3&#45;&gt;Node6 -->
<g id="edge4" class="edge"><title>Node3&#45;&gt;Node6</title>
<path fill="none" stroke="midnightblue" d="M247.726,-59C259.496,-59 272.134,-59 284.908,-59"/>
<polygon fill="midnightblue" stroke="midnightblue" points="247.624,-55.5001 237.624,-59 247.624,-62.5001 247.624,-55.5001"/>
</g>
<!-- Node7 -->
<g id="node6" class="node"><title>Node7</title>
<g id="a_node6"><a xlink:href="namespacecaiman_1_1source__extraction_1_1cnmf_1_1utilities.html#a280d064e1a9888eca4b375647d031491" target="_top" xlink:title="Compute DFF function from cnmf output. ">
<polygon fill="white" stroke="black" points="274,-5.5 274,-24.5 526,-24.5 526,-5.5 274,-5.5"/>
<text text-anchor="middle" x="400" y="-12.5" font-family="Helvetica,sans-Serif" font-size="10.00">caiman.source_extraction.cnmf.utilities.extract_DF_F</text>
</a>
</g>
</g>
<!-- Node3&#45;&gt;Node7 -->
<g id="edge6" class="edge"><title>Node3&#45;&gt;Node7</title>
<path fill="none" stroke="midnightblue" d="M225.26,-46.5586C240.434,-42.1691 257.913,-37.4683 274,-34 290.737,-30.3916 308.879,-27.2182 326.016,-24.5498"/>
<polygon fill="midnightblue" stroke="midnightblue" points="224.265,-43.2029 215.658,-49.382 226.24,-49.9185 224.265,-43.2029"/>
</g>
<!-- Node5 -->
<g id="node4" class="node"><title>Node5</title>
<g id="a_node4"><a xlink:href="namespacecaiman_1_1source__extraction_1_1cnmf_1_1merging.html#ad08adf2e086a22ef379b10ed3ee36936" target="_top" xlink:title="Merging of spatially overlapping components that have highly correlated temporal activity The correla...">
<polygon fill="white" stroke="black" points="564.5,-71 564.5,-101 789.5,-101 789.5,-71 564.5,-71"/>
<text text-anchor="start" x="572.5" y="-89" font-family="Helvetica,sans-Serif" font-size="10.00">caiman.source_extraction.cnmf.merging.merge</text>
<text text-anchor="middle" x="677" y="-78" font-family="Helvetica,sans-Serif" font-size="10.00">_components</text>
</a>
</g>
</g>
<!-- Node4&#45;&gt;Node5 -->
<g id="edge3" class="edge"><title>Node4&#45;&gt;Node5</title>
<path fill="none" stroke="midnightblue" d="M520.182,-98.4654C534.848,-97.2921 549.797,-96.0962 564.346,-94.9323"/>
<polygon fill="midnightblue" stroke="midnightblue" points="519.771,-94.987 510.082,-99.2734 520.33,-101.965 519.771,-94.987"/>
</g>
<!-- Node6&#45;&gt;Node5 -->
<g id="edge5" class="edge"><title>Node6&#45;&gt;Node5</title>
<path fill="none" stroke="midnightblue" d="M525.559,-71.2294C538.483,-72.4983 551.56,-73.7823 564.33,-75.036"/>
<polygon fill="midnightblue" stroke="midnightblue" points="525.53,-67.7098 515.236,-70.2159 524.846,-74.6763 525.53,-67.7098"/>
</g>
<!-- Node8 -->
<g id="node7" class="node"><title>Node8</title>
<g id="a_node7"><a xlink:href="namespacecaiman_1_1source__extraction_1_1cnmf_1_1utilities.html#aea3aa78c7c153170012079014e1f4895" target="_top" xlink:title="caiman.source_extraction.cnmf.utilities.compute\lDFF_traces">
<polygon fill="white" stroke="black" points="562.5,-0 562.5,-30 791.5,-30 791.5,-0 562.5,-0"/>
<text text-anchor="start" x="570.5" y="-18" font-family="Helvetica,sans-Serif" font-size="10.00">caiman.source_extraction.cnmf.utilities.compute</text>
<text text-anchor="middle" x="677" y="-7" font-family="Helvetica,sans-Serif" font-size="10.00">DFF_traces</text>
</a>
</g>
</g>
<!-- Node7&#45;&gt;Node8 -->
<g id="edge7" class="edge"><title>Node7&#45;&gt;Node8</title>
<path fill="none" stroke="midnightblue" d="M536.226,-15C544.925,-15 553.636,-15 562.22,-15"/>
<polygon fill="midnightblue" stroke="midnightblue" points="536.028,-11.5001 526.027,-15 536.027,-18.5001 536.028,-11.5001"/>
</g>
</g>
</svg>
