<?xml version="1.0" encoding="UTF-8" standalone="no"?>
<!DOCTYPE svg PUBLIC "-//W3C//DTD SVG 1.1//EN"
 "http://www.w3.org/Graphics/SVG/1.1/DTD/svg11.dtd">
<!-- Generated by graphviz version 2.36.0 (20140111.2315)
 -->
<!-- Title: greedyROI Pages: 1 -->
<svg width="162pt" height="66pt"
 viewBox="0.00 0.00 162.00 66.00" xmlns="http://www.w3.org/2000/svg" xmlns:xlink="http://www.w3.org/1999/xlink">
<g id="graph0" class="graph" transform="scale(1 1) rotate(0) translate(4 62)">
<title>greedyROI</title>
<polygon fill="white" stroke="none" points="-4,4 -4,-62 158,-62 158,4 -4,4"/>
<!-- Node5 -->
<g id="node1" class="node"><title>Node5</title>
<polygon fill="#bfbfbf" stroke="black" points="0.5,-19.5 0.5,-38.5 65.5,-38.5 65.5,-19.5 0.5,-19.5"/>
<text text-anchor="middle" x="33" y="-26.5" font-family="Helvetica,sans-Serif" font-size="10.00">greedyROI</text>
</g>
<!-- Node6 -->
<g id="node2" class="node"><title>Node6</title>
<g id="a_node2"><a xlink:href="namespacecaiman_1_1source__extraction_1_1cnmf_1_1initialization.html#ac8f4ada67920c28ee00d92af03cb4f8b" target="_top" xlink:title="Spatial filtering with a Gaussian or user defined kernel The parameters are specified in GreedyROI...">
<polygon fill="white" stroke="black" points="106,-38.5 106,-57.5 150,-57.5 150,-38.5 106,-38.5"/>
<text text-anchor="middle" x="128" y="-45.5" font-family="Helvetica,sans-Serif" font-size="10.00">imblur</text>
</a>
</g>
</g>
<!-- Node5&#45;&gt;Node6 -->
<g id="edge1" class="edge"><title>Node5&#45;&gt;Node6</title>
<path fill="none" stroke="midnightblue" d="M65.7452,-35.4856C75.4832,-37.4751 86.1843,-39.6613 95.88,-41.6422"/>
<polygon fill="midnightblue" stroke="midnightblue" points="95.415,-45.1194 105.913,-43.6919 96.8162,-38.261 95.415,-45.1194"/>
</g>
<!-- Node7 -->
<g id="node3" class="node"><title>Node7</title>
<g id="a_node3"><a xlink:href="namespacecaiman_1_1source__extraction_1_1cnmf_1_1initialization.html#a34abf87100936b47d488cefbb9def7e9" target="_top" xlink:title="Fine tuning of components within greedyROI using rank&#45;1 NMF. ">
<polygon fill="white" stroke="black" points="102,-0.5 102,-19.5 154,-19.5 154,-0.5 102,-0.5"/>
<text text-anchor="middle" x="128" y="-7.5" font-family="Helvetica,sans-Serif" font-size="10.00">finetune</text>
</a>
</g>
</g>
<!-- Node5&#45;&gt;Node7 -->
<g id="edge2" class="edge"><title>Node5&#45;&gt;Node7</title>
<path fill="none" stroke="midnightblue" d="M65.7452,-22.5144C74.1249,-20.8024 83.2178,-18.9447 91.7696,-17.1976"/>
<polygon fill="midnightblue" stroke="midnightblue" points="92.7512,-20.5695 101.848,-15.1385 91.35,-13.7111 92.7512,-20.5695"/>
</g>
</g>
</svg>
