<?xml version="1.0" encoding="UTF-8" standalone="no"?>
<!DOCTYPE svg PUBLIC "-//W3C//DTD SVG 1.1//EN"
 "http://www.w3.org/Graphics/SVG/1.1/DTD/svg11.dtd">
<!-- Generated by graphviz version 2.36.0 (20140111.2315)
 -->
<!-- Title: sbxreadskip Pages: 1 -->
<svg width="284pt" height="28pt"
 viewBox="0.00 0.00 284.00 28.00" xmlns="http://www.w3.org/2000/svg" xmlns:xlink="http://www.w3.org/1999/xlink">
<g id="graph0" class="graph" transform="scale(1 1) rotate(0) translate(4 24)">
<title>sbxreadskip</title>
<polygon fill="white" stroke="none" points="-4,4 -4,-24 280,-24 280,4 -4,4"/>
<!-- Node58 -->
<g id="node1" class="node"><title>Node58</title>
<polygon fill="#bfbfbf" stroke="black" points="0,-0.5 0,-19.5 70,-19.5 70,-0.5 0,-0.5"/>
<text text-anchor="middle" x="35" y="-7.5" font-family="Helvetica,sans-Serif" font-size="10.00">sbxreadskip</text>
</g>
<!-- Node59 -->
<g id="node2" class="node"><title>Node59</title>
<g id="a_node2"><a xlink:href="namespacecaiman_1_1base_1_1movies.html#a6d585c260307278135a0b4b09440b313" target="_top" xlink:title="load movie from file. ">
<polygon fill="white" stroke="black" points="106.5,-0.5 106.5,-19.5 141.5,-19.5 141.5,-0.5 106.5,-0.5"/>
<text text-anchor="middle" x="124" y="-7.5" font-family="Helvetica,sans-Serif" font-size="10.00">load</text>
</a>
</g>
</g>
<!-- Node58&#45;&gt;Node59 -->
<g id="edge1" class="edge"><title>Node58&#45;&gt;Node59</title>
<path fill="none" stroke="midnightblue" d="M80.6585,-10C89.8089,-10 98.891,-10 106.283,-10"/>
<polygon fill="midnightblue" stroke="midnightblue" points="80.3847,-6.5001 70.3847,-10 80.3847,-13.5001 80.3847,-6.5001"/>
</g>
<!-- Node60 -->
<g id="node3" class="node"><title>Node60</title>
<g id="a_node3"><a xlink:href="namespacecaiman_1_1base_1_1movies.html#a5a35758b31edb4a9b2105a058a0882a6" target="_top" xlink:title="load movies from list of file names ">
<polygon fill="white" stroke="black" points="178.5,-0.5 178.5,-19.5 275.5,-19.5 275.5,-0.5 178.5,-0.5"/>
<text text-anchor="middle" x="227" y="-7.5" font-family="Helvetica,sans-Serif" font-size="10.00">load_movie_chain</text>
</a>
</g>
</g>
<!-- Node59&#45;&gt;Node60 -->
<g id="edge2" class="edge"><title>Node59&#45;&gt;Node60</title>
<path fill="none" stroke="midnightblue" d="M151.723,-3.96461C159.915,-3.43333 169.188,-3.19829 178.337,-3.25948"/>
<polygon fill="midnightblue" stroke="midnightblue" points="151.339,-0.484627 141.678,-4.83368 151.943,-7.45857 151.339,-0.484627"/>
</g>
<!-- Node60&#45;&gt;Node59 -->
<g id="edge3" class="edge"><title>Node60&#45;&gt;Node59</title>
<path fill="none" stroke="midnightblue" d="M168.17,-16.6864C158.483,-16.5172 149.163,-16.0105 141.678,-15.1663"/>
<polygon fill="midnightblue" stroke="midnightblue" points="168.319,-20.1871 178.337,-16.7405 168.356,-13.1872 168.319,-20.1871"/>
</g>
</g>
</svg>
