<?xml version="1.0" encoding="UTF-8" standalone="no"?>
<!DOCTYPE svg PUBLIC "-//W3C//DTD SVG 1.1//EN"
 "http://www.w3.org/Graphics/SVG/1.1/DTD/svg11.dtd">
<!-- Generated by graphviz version 2.36.0 (20140111.2315)
 -->
<!-- Title: nextpow2 Pages: 1 -->
<svg width="434pt" height="28pt"
 viewBox="0.00 0.00 434.00 28.00" xmlns="http://www.w3.org/2000/svg" xmlns:xlink="http://www.w3.org/1999/xlink">
<g id="graph0" class="graph" transform="scale(1 1) rotate(0) translate(4 24)">
<title>nextpow2</title>
<polygon fill="white" stroke="none" points="-4,4 -4,-24 430,-24 430,4 -4,4"/>
<!-- Node38 -->
<g id="node1" class="node"><title>Node38</title>
<polygon fill="#bfbfbf" stroke="black" points="0.5,-0.5 0.5,-19.5 59.5,-19.5 59.5,-0.5 0.5,-0.5"/>
<text text-anchor="middle" x="30" y="-7.5" font-family="Helvetica,sans-Serif" font-size="10.00">nextpow2</text>
</g>
<!-- Node39 -->
<g id="node2" class="node"><title>Node39</title>
<g id="a_node2"><a xlink:href="namespacecaiman_1_1source__extraction_1_1cnmf_1_1pre__processing.html#a60941191e5c55d29e33ed6fa698f1844" target="_top" xlink:title="Compute the autocovariance of data at lag = &#45;maxlag:0:maxlag. ">
<polygon fill="white" stroke="black" points="96.5,-0.5 96.5,-19.5 139.5,-19.5 139.5,-0.5 96.5,-0.5"/>
<text text-anchor="middle" x="118" y="-7.5" font-family="Helvetica,sans-Serif" font-size="10.00">axcov</text>
</a>
</g>
</g>
<!-- Node38&#45;&gt;Node39 -->
<g id="edge1" class="edge"><title>Node38&#45;&gt;Node39</title>
<path fill="none" stroke="midnightblue" d="M69.7865,-10C78.953,-10 88.3774,-10 96.3718,-10"/>
<polygon fill="midnightblue" stroke="midnightblue" points="69.6368,-6.5001 59.6368,-10 69.6367,-13.5001 69.6368,-6.5001"/>
</g>
<!-- Node40 -->
<g id="node3" class="node"><title>Node40</title>
<g id="a_node3"><a xlink:href="namespacecaiman_1_1source__extraction_1_1cnmf_1_1pre__processing.html#a1b73b814ed1bd025323df1f86b4e083b" target="_top" xlink:title="estimate_time_constant">
<polygon fill="white" stroke="black" points="176,-0.5 176,-19.5 298,-19.5 298,-0.5 176,-0.5"/>
<text text-anchor="middle" x="237" y="-7.5" font-family="Helvetica,sans-Serif" font-size="10.00">estimate_time_constant</text>
</a>
</g>
</g>
<!-- Node39&#45;&gt;Node40 -->
<g id="edge2" class="edge"><title>Node39&#45;&gt;Node40</title>
<path fill="none" stroke="midnightblue" d="M149.683,-10C157.779,-10 166.801,-10 175.875,-10"/>
<polygon fill="midnightblue" stroke="midnightblue" points="149.648,-6.5001 139.648,-10 149.648,-13.5001 149.648,-6.5001"/>
</g>
<!-- Node41 -->
<g id="node4" class="node"><title>Node41</title>
<g id="a_node4"><a xlink:href="namespacecaiman_1_1source__extraction_1_1cnmf_1_1pre__processing.html#a3e16282450cc890b37ad043d09f385c1" target="_top" xlink:title="Performs the pre&#45;processing operations described above. ">
<polygon fill="white" stroke="black" points="334.5,-0.5 334.5,-19.5 425.5,-19.5 425.5,-0.5 334.5,-0.5"/>
<text text-anchor="middle" x="380" y="-7.5" font-family="Helvetica,sans-Serif" font-size="10.00">preprocess_data</text>
</a>
</g>
</g>
<!-- Node40&#45;&gt;Node41 -->
<g id="edge3" class="edge"><title>Node40&#45;&gt;Node41</title>
<path fill="none" stroke="midnightblue" d="M308.216,-10C317.11,-10 326.011,-10 334.352,-10"/>
<polygon fill="midnightblue" stroke="midnightblue" points="308.206,-6.5001 298.206,-10 308.206,-13.5001 308.206,-6.5001"/>
</g>
</g>
</svg>
