<?xml version="1.0" encoding="UTF-8" standalone="no"?>
<!DOCTYPE svg PUBLIC "-//W3C//DTD SVG 1.1//EN"
 "http://www.w3.org/Graphics/SVG/1.1/DTD/svg11.dtd">
<!-- Generated by graphviz version 2.36.0 (20140111.2315)
 -->
<!-- Title: cvxopt_foopsi Pages: 1 -->
<svg width="724pt" height="131pt"
 viewBox="0.00 0.00 724.00 131.00" xmlns="http://www.w3.org/2000/svg" xmlns:xlink="http://www.w3.org/1999/xlink">
<g id="graph0" class="graph" transform="scale(1 1) rotate(0) translate(4 127)">
<title>cvxopt_foopsi</title>
<polygon fill="white" stroke="none" points="-4,4 -4,-127 720,-127 720,4 -4,4"/>
<!-- Node53 -->
<g id="node1" class="node"><title>Node53</title>
<polygon fill="#bfbfbf" stroke="black" points="0,-49.5 0,-68.5 78,-68.5 78,-49.5 0,-49.5"/>
<text text-anchor="middle" x="39" y="-56.5" font-family="Helvetica,sans-Serif" font-size="10.00">cvxopt_foopsi</text>
</g>
<!-- Node54 -->
<g id="node2" class="node"><title>Node54</title>
<g id="a_node2"><a xlink:href="namespacecaiman_1_1source__extraction_1_1cnmf_1_1deconvolution.html#a0afb63d84485a181bb40f2eefe7b581e" target="_top" xlink:title="Infer the most likely discretized spike train underlying a fluorescence trace. ">
<polygon fill="white" stroke="black" points="114,-49.5 114,-68.5 214,-68.5 214,-49.5 114,-49.5"/>
<text text-anchor="middle" x="164" y="-56.5" font-family="Helvetica,sans-Serif" font-size="10.00">constrained_foopsi</text>
</a>
</g>
</g>
<!-- Node53&#45;&gt;Node54 -->
<g id="edge1" class="edge"><title>Node53&#45;&gt;Node54</title>
<path fill="none" stroke="midnightblue" d="M88.2905,-59C96.7048,-59 105.465,-59 113.901,-59"/>
<polygon fill="midnightblue" stroke="midnightblue" points="88.2438,-55.5001 78.2437,-59 88.2437,-62.5001 88.2438,-55.5001"/>
</g>
<!-- Node55 -->
<g id="node3" class="node"><title>Node55</title>
<g id="a_node3"><a xlink:href="namespacecaiman_1_1source__extraction_1_1cnmf_1_1merging.html#ad08adf2e086a22ef379b10ed3ee36936" target="_top" xlink:title="Merging of spatially overlapping components that have highly correlated temporal activity The correla...">
<polygon fill="white" stroke="black" points="263.5,-93 263.5,-123 488.5,-123 488.5,-93 263.5,-93"/>
<text text-anchor="start" x="271.5" y="-111" font-family="Helvetica,sans-Serif" font-size="10.00">caiman.source_extraction.cnmf.merging.merge</text>
<text text-anchor="middle" x="376" y="-100" font-family="Helvetica,sans-Serif" font-size="10.00">_components</text>
</a>
</g>
</g>
<!-- Node54&#45;&gt;Node55 -->
<g id="edge2" class="edge"><title>Node54&#45;&gt;Node55</title>
<path fill="none" stroke="midnightblue" d="M206.439,-71.3978C220.236,-75.3388 235.725,-79.5626 250,-83 264.523,-86.4971 280.078,-89.8881 295.111,-92.9858"/>
<polygon fill="midnightblue" stroke="midnightblue" points="207.312,-68.0068 196.733,-68.5934 205.368,-74.7318 207.312,-68.0068"/>
</g>
<!-- Node56 -->
<g id="node4" class="node"><title>Node56</title>
<g id="a_node4"><a xlink:href="namespacecaiman_1_1source__extraction_1_1cnmf_1_1temporal.html#a2ede407f1e0d0722f51ddb6e99f48f9f" target="_top" xlink:title="necessary for parallel computation of the function constrained_foopsi ">
<polygon fill="white" stroke="black" points="250.5,-44 250.5,-74 501.5,-74 501.5,-44 250.5,-44"/>
<text text-anchor="start" x="258.5" y="-62" font-family="Helvetica,sans-Serif" font-size="10.00">caiman.source_extraction.cnmf.temporal.constrained</text>
<text text-anchor="middle" x="376" y="-51" font-family="Helvetica,sans-Serif" font-size="10.00">_foopsi_parallel</text>
</a>
</g>
</g>
<!-- Node54&#45;&gt;Node56 -->
<g id="edge3" class="edge"><title>Node54&#45;&gt;Node56</title>
<path fill="none" stroke="midnightblue" d="M224.461,-59C232.748,-59 241.505,-59 250.458,-59"/>
<polygon fill="midnightblue" stroke="midnightblue" points="224.236,-55.5001 214.236,-59 224.236,-62.5001 224.236,-55.5001"/>
</g>
<!-- Node57 -->
<g id="node5" class="node"><title>Node57</title>
<g id="a_node5"><a xlink:href="namespacecaiman_1_1tests_1_1test__deconvolution.html#aaebeed7ce9541fa4c56791c67009cdc6" target="_top" xlink:title="caiman.tests.test_deconvolution.foo">
<polygon fill="white" stroke="black" points="288.5,-5.5 288.5,-24.5 463.5,-24.5 463.5,-5.5 288.5,-5.5"/>
<text text-anchor="middle" x="376" y="-12.5" font-family="Helvetica,sans-Serif" font-size="10.00">caiman.tests.test_deconvolution.foo</text>
</a>
</g>
</g>
<!-- Node54&#45;&gt;Node57 -->
<g id="edge4" class="edge"><title>Node54&#45;&gt;Node57</title>
<path fill="none" stroke="midnightblue" d="M205.324,-46.5757C219.373,-42.5243 235.299,-38.2399 250,-35 268.136,-31.0031 287.918,-27.4657 306.284,-24.52"/>
<polygon fill="midnightblue" stroke="midnightblue" points="204.08,-43.293 195.47,-49.4663 206.051,-50.01 204.08,-43.293"/>
</g>
<!-- Node58 -->
<g id="node6" class="node"><title>Node58</title>
<g id="a_node6"><a xlink:href="namespacecaiman_1_1tests_1_1test__deconvolution.html#a90f82ae854f8179179664fe34973f11b" target="_top" xlink:title="caiman.tests.test_deconvolution.test\l_oasis">
<polygon fill="white" stroke="black" points="538,-0 538,-30 716,-30 716,-0 538,-0"/>
<text text-anchor="start" x="546" y="-18" font-family="Helvetica,sans-Serif" font-size="10.00">caiman.tests.test_deconvolution.test</text>
<text text-anchor="middle" x="627" y="-7" font-family="Helvetica,sans-Serif" font-size="10.00">_oasis</text>
</a>
</g>
</g>
<!-- Node57&#45;&gt;Node58 -->
<g id="edge5" class="edge"><title>Node57&#45;&gt;Node58</title>
<path fill="none" stroke="midnightblue" d="M473.975,-15C495.031,-15 517.193,-15 537.885,-15"/>
<polygon fill="midnightblue" stroke="midnightblue" points="473.739,-11.5001 463.739,-15 473.739,-18.5001 473.739,-11.5001"/>
</g>
</g>
</svg>
