<?xml version="1.0" encoding="UTF-8" standalone="no"?>
<!DOCTYPE svg PUBLIC "-//W3C//DTD SVG 1.1//EN"
 "http://www.w3.org/Graphics/SVG/1.1/DTD/svg11.dtd">
<!-- Generated by graphviz version 2.36.0 (20140111.2315)
 -->
<!-- Title: extract_patch_coordinates Pages: 1 -->
<svg width="356pt" height="153pt"
 viewBox="0.00 0.00 356.00 153.00" xmlns="http://www.w3.org/2000/svg" xmlns:xlink="http://www.w3.org/1999/xlink">
<g id="graph0" class="graph" transform="scale(1 1) rotate(0) translate(4 149)">
<title>extract_patch_coordinates</title>
<polygon fill="white" stroke="none" points="-4,4 -4,-149 352,-149 352,4 -4,4"/>
<!-- Node4 -->
<g id="node1" class="node"><title>Node4</title>
<polygon fill="#bfbfbf" stroke="black" points="0,-68.5 0,-87.5 134,-87.5 134,-68.5 0,-68.5"/>
<text text-anchor="middle" x="67" y="-75.5" font-family="Helvetica,sans-Serif" font-size="10.00">extract_patch_coordinates</text>
</g>
<!-- Node5 -->
<g id="node2" class="node"><title>Node5</title>
<g id="a_node2"><a xlink:href="namespacecaiman_1_1cluster.html#a37de3dc274656637965b654ffc856e2f" target="_top" xlink:title="get_patches_from_image">
<polygon fill="white" stroke="black" points="194.5,-125.5 194.5,-144.5 323.5,-144.5 323.5,-125.5 194.5,-125.5"/>
<text text-anchor="middle" x="259" y="-132.5" font-family="Helvetica,sans-Serif" font-size="10.00">get_patches_from_image</text>
</a>
</g>
</g>
<!-- Node4&#45;&gt;Node5 -->
<g id="edge1" class="edge"><title>Node4&#45;&gt;Node5</title>
<path fill="none" stroke="midnightblue" d="M100.265,-91.3806C120.133,-99.2779 146.261,-109.055 170,-116 182.151,-119.555 195.422,-122.763 207.889,-125.487"/>
<polygon fill="midnightblue" stroke="midnightblue" points="101.356,-88.047 90.7722,-87.5615 98.7432,-94.5411 101.356,-88.047"/>
</g>
<!-- Node6 -->
<g id="node3" class="node"><title>Node6</title>
<g id="a_node3"><a xlink:href="namespacecaiman_1_1cluster.html#a3114f02c5f8ee0d53d6c818d3ee69e2c" target="_top" xlink:title="extract_rois_patch">
<polygon fill="white" stroke="black" points="210,-87.5 210,-106.5 308,-106.5 308,-87.5 210,-87.5"/>
<text text-anchor="middle" x="259" y="-94.5" font-family="Helvetica,sans-Serif" font-size="10.00">extract_rois_patch</text>
</a>
</g>
</g>
<!-- Node4&#45;&gt;Node6 -->
<g id="edge2" class="edge"><title>Node4&#45;&gt;Node6</title>
<path fill="none" stroke="midnightblue" d="M144.221,-85.6221C166.319,-87.8319 189.828,-90.1828 209.706,-92.1706"/>
<polygon fill="midnightblue" stroke="midnightblue" points="144.485,-82.1311 134.186,-84.6186 143.788,-89.0964 144.485,-82.1311"/>
</g>
<!-- Node7 -->
<g id="node4" class="node"><title>Node7</title>
<g id="a_node4"><a xlink:href="namespacecaiman_1_1cluster.html#a225b519413ba9700997a06cfa2469ff4" target="_top" xlink:title="apply function to patches in parallel or not ">
<polygon fill="white" stroke="black" points="217,-49.5 217,-68.5 301,-68.5 301,-49.5 217,-49.5"/>
<text text-anchor="middle" x="259" y="-56.5" font-family="Helvetica,sans-Serif" font-size="10.00">apply_to_patch</text>
</a>
</g>
</g>
<!-- Node4&#45;&gt;Node7 -->
<g id="edge3" class="edge"><title>Node4&#45;&gt;Node7</title>
<path fill="none" stroke="midnightblue" d="M144.323,-70.3677C169.137,-67.8863 195.721,-65.2279 216.938,-63.1062"/>
<polygon fill="midnightblue" stroke="midnightblue" points="143.788,-66.9036 134.186,-71.3814 144.485,-73.8689 143.788,-66.9036"/>
</g>
<!-- Node8 -->
<g id="node5" class="node"><title>Node8</title>
<g id="a_node5"><a xlink:href="namespacecaiman_1_1source__extraction_1_1cnmf_1_1map__reduce.html#affc25cb11b12edae4343574054636eee" target="_top" xlink:title="Function that runs CNMF in patches. ">
<polygon fill="white" stroke="black" points="170.5,-0 170.5,-30 347.5,-30 347.5,-0 170.5,-0"/>
<text text-anchor="start" x="178.5" y="-18" font-family="Helvetica,sans-Serif" font-size="10.00">caiman.source_extraction.cnmf.map</text>
<text text-anchor="middle" x="259" y="-7" font-family="Helvetica,sans-Serif" font-size="10.00">_reduce.run_CNMF_patches</text>
</a>
</g>
</g>
<!-- Node4&#45;&gt;Node8 -->
<g id="edge4" class="edge"><title>Node4&#45;&gt;Node8</title>
<path fill="none" stroke="midnightblue" d="M101.613,-64.7071C121.387,-57.0809 146.957,-47.5522 170,-40 180.414,-36.587 191.607,-33.1976 202.403,-30.0671"/>
<polygon fill="midnightblue" stroke="midnightblue" points="100.181,-61.5082 92.1266,-68.3909 102.715,-68.0335 100.181,-61.5082"/>
</g>
</g>
</svg>
