<?xml version="1.0" encoding="UTF-8" standalone="no"?>
<!DOCTYPE svg PUBLIC "-//W3C//DTD SVG 1.1//EN"
 "http://www.w3.org/Graphics/SVG/1.1/DTD/svg11.dtd">
<!-- Generated by graphviz version 2.36.0 (20140111.2315)
 -->
<!-- Title: parallel_dot_product Pages: 1 -->
<svg width="670pt" height="131pt"
 viewBox="0.00 0.00 670.00 131.00" xmlns="http://www.w3.org/2000/svg" xmlns:xlink="http://www.w3.org/1999/xlink">
<g id="graph0" class="graph" transform="scale(1 1) rotate(0) translate(4 127)">
<title>parallel_dot_product</title>
<polygon fill="white" stroke="none" points="-4,4 -4,-127 666,-127 666,4 -4,4"/>
<!-- Node30 -->
<g id="node1" class="node"><title>Node30</title>
<polygon fill="#bfbfbf" stroke="black" points="0.5,-49.5 0.5,-68.5 107.5,-68.5 107.5,-49.5 0.5,-49.5"/>
<text text-anchor="middle" x="54" y="-56.5" font-family="Helvetica,sans-Serif" font-size="10.00">parallel_dot_product</text>
</g>
<!-- Node31 -->
<g id="node2" class="node"><title>Node31</title>
<g id="a_node2"><a xlink:href="namespacecaiman_1_1source__extraction_1_1cnmf_1_1spatial.html#ac4b406f52054893ed2518a761921d4f4" target="_top" xlink:title="update spatial footprints and background through Basis Pursuit Denoising ">
<polygon fill="white" stroke="black" points="160,-93 160,-123 380,-123 380,-93 160,-93"/>
<text text-anchor="start" x="168" y="-111" font-family="Helvetica,sans-Serif" font-size="10.00">caiman.source_extraction.cnmf.spatial.update</text>
<text text-anchor="middle" x="270" y="-100" font-family="Helvetica,sans-Serif" font-size="10.00">_spatial_components</text>
</a>
</g>
</g>
<!-- Node30&#45;&gt;Node31 -->
<g id="edge1" class="edge"><title>Node30&#45;&gt;Node31</title>
<path fill="none" stroke="midnightblue" d="M98.0011,-71.2101C112.555,-75.1786 128.936,-79.4665 144,-83 158.759,-86.462 174.57,-89.8612 189.812,-92.9834"/>
<polygon fill="midnightblue" stroke="midnightblue" points="98.8262,-67.8071 88.2559,-68.527 96.968,-74.556 98.8262,-67.8071"/>
</g>
<!-- Node33 -->
<g id="node4" class="node"><title>Node33</title>
<g id="a_node4"><a xlink:href="namespacecaiman_1_1source__extraction_1_1cnmf_1_1temporal.html#ae56ee735c5b8f6fdaca8baaee1371d58" target="_top" xlink:title="Update temporal components and background given spatial components using a block coordinate descent a...">
<polygon fill="white" stroke="black" points="155,-44 155,-74 385,-74 385,-44 155,-44"/>
<text text-anchor="start" x="163" y="-62" font-family="Helvetica,sans-Serif" font-size="10.00">caiman.source_extraction.cnmf.temporal.update</text>
<text text-anchor="middle" x="270" y="-51" font-family="Helvetica,sans-Serif" font-size="10.00">_temporal_components</text>
</a>
</g>
</g>
<!-- Node30&#45;&gt;Node33 -->
<g id="edge3" class="edge"><title>Node30&#45;&gt;Node33</title>
<path fill="none" stroke="midnightblue" d="M117.726,-59C129.496,-59 142.134,-59 154.908,-59"/>
<polygon fill="midnightblue" stroke="midnightblue" points="117.624,-55.5001 107.624,-59 117.624,-62.5001 117.624,-55.5001"/>
</g>
<!-- Node34 -->
<g id="node5" class="node"><title>Node34</title>
<g id="a_node5"><a xlink:href="namespacecaiman_1_1source__extraction_1_1cnmf_1_1utilities.html#a280d064e1a9888eca4b375647d031491" target="_top" xlink:title="Compute DFF function from cnmf output. ">
<polygon fill="white" stroke="black" points="144,-5.5 144,-24.5 396,-24.5 396,-5.5 144,-5.5"/>
<text text-anchor="middle" x="270" y="-12.5" font-family="Helvetica,sans-Serif" font-size="10.00">caiman.source_extraction.cnmf.utilities.extract_DF_F</text>
</a>
</g>
</g>
<!-- Node30&#45;&gt;Node34 -->
<g id="edge5" class="edge"><title>Node30&#45;&gt;Node34</title>
<path fill="none" stroke="midnightblue" d="M95.2595,-46.5586C110.434,-42.1691 127.913,-37.4683 144,-34 160.737,-30.3916 178.879,-27.2182 196.016,-24.5498"/>
<polygon fill="midnightblue" stroke="midnightblue" points="94.2646,-43.2029 85.6583,-49.382 96.2395,-49.9185 94.2646,-43.2029"/>
</g>
<!-- Node32 -->
<g id="node3" class="node"><title>Node32</title>
<g id="a_node3"><a xlink:href="namespacecaiman_1_1source__extraction_1_1cnmf_1_1merging.html#ad08adf2e086a22ef379b10ed3ee36936" target="_top" xlink:title="Merging of spatially overlapping components that have highly correlated temporal activity The correla...">
<polygon fill="white" stroke="black" points="434.5,-71 434.5,-101 659.5,-101 659.5,-71 434.5,-71"/>
<text text-anchor="start" x="442.5" y="-89" font-family="Helvetica,sans-Serif" font-size="10.00">caiman.source_extraction.cnmf.merging.merge</text>
<text text-anchor="middle" x="547" y="-78" font-family="Helvetica,sans-Serif" font-size="10.00">_components</text>
</a>
</g>
</g>
<!-- Node31&#45;&gt;Node32 -->
<g id="edge2" class="edge"><title>Node31&#45;&gt;Node32</title>
<path fill="none" stroke="midnightblue" d="M390.182,-98.4654C404.848,-97.2921 419.797,-96.0962 434.346,-94.9323"/>
<polygon fill="midnightblue" stroke="midnightblue" points="389.771,-94.987 380.082,-99.2734 390.33,-101.965 389.771,-94.987"/>
</g>
<!-- Node33&#45;&gt;Node32 -->
<g id="edge4" class="edge"><title>Node33&#45;&gt;Node32</title>
<path fill="none" stroke="midnightblue" d="M395.559,-71.2294C408.483,-72.4983 421.56,-73.7823 434.33,-75.036"/>
<polygon fill="midnightblue" stroke="midnightblue" points="395.53,-67.7098 385.236,-70.2159 394.846,-74.6763 395.53,-67.7098"/>
</g>
<!-- Node35 -->
<g id="node6" class="node"><title>Node35</title>
<g id="a_node6"><a xlink:href="namespacecaiman_1_1source__extraction_1_1cnmf_1_1utilities.html#aea3aa78c7c153170012079014e1f4895" target="_top" xlink:title="caiman.source_extraction.cnmf.utilities.compute\lDFF_traces">
<polygon fill="white" stroke="black" points="432.5,-0 432.5,-30 661.5,-30 661.5,-0 432.5,-0"/>
<text text-anchor="start" x="440.5" y="-18" font-family="Helvetica,sans-Serif" font-size="10.00">caiman.source_extraction.cnmf.utilities.compute</text>
<text text-anchor="middle" x="547" y="-7" font-family="Helvetica,sans-Serif" font-size="10.00">DFF_traces</text>
</a>
</g>
</g>
<!-- Node34&#45;&gt;Node35 -->
<g id="edge6" class="edge"><title>Node34&#45;&gt;Node35</title>
<path fill="none" stroke="midnightblue" d="M406.226,-15C414.925,-15 423.636,-15 432.22,-15"/>
<polygon fill="midnightblue" stroke="midnightblue" points="406.028,-11.5001 396.027,-15 406.027,-18.5001 406.028,-11.5001"/>
</g>
</g>
</svg>
