<?xml version="1.0" encoding="UTF-8" standalone="no"?>
<!DOCTYPE svg PUBLIC "-//W3C//DTD SVG 1.1//EN"
 "http://www.w3.org/Graphics/SVG/1.1/DTD/svg11.dtd">
<!-- Generated by graphviz version 2.36.0 (20140111.2315)
 -->
<!-- Title: load Pages: 1 -->
<svg width="502pt" height="153pt"
 viewBox="0.00 0.00 502.00 153.00" xmlns="http://www.w3.org/2000/svg" xmlns:xlink="http://www.w3.org/1999/xlink">
<g id="graph0" class="graph" transform="scale(1 1) rotate(0) translate(4 149)">
<title>load</title>
<polygon fill="white" stroke="none" points="-4,4 -4,-149 498,-149 498,4 -4,4"/>
<!-- Node18 -->
<g id="node1" class="node"><title>Node18</title>
<polygon fill="#bfbfbf" stroke="black" points="0.5,-38.5 0.5,-57.5 35.5,-57.5 35.5,-38.5 0.5,-38.5"/>
<text text-anchor="middle" x="18" y="-45.5" font-family="Helvetica,sans-Serif" font-size="10.00">load</text>
</g>
<!-- Node19 -->
<g id="node2" class="node"><title>Node19</title>
<g id="a_node2"><a xlink:href="namespacecaiman_1_1mmapping.html#aeb2ed62e4a9028089a2eec09d392707f" target="_top" xlink:title="Load a memory mapped file created by the function save_memmap. ">
<polygon fill="white" stroke="black" points="72,-115 72,-145 192,-145 192,-115 72,-115"/>
<text text-anchor="start" x="80" y="-133" font-family="Helvetica,sans-Serif" font-size="10.00">caiman.mmapping.load</text>
<text text-anchor="middle" x="132" y="-122" font-family="Helvetica,sans-Serif" font-size="10.00">_memmap</text>
</a>
</g>
</g>
<!-- Node18&#45;&gt;Node19 -->
<g id="edge1" class="edge"><title>Node18&#45;&gt;Node19</title>
<path fill="none" stroke="midnightblue" d="M25.9033,-57.6447C35.1804,-70.023 52.7455,-91.5062 72,-105 74.642,-106.852 77.4425,-108.604 80.3317,-110.257"/>
<polygon fill="midnightblue" stroke="midnightblue" points="78.7153,-113.362 89.1958,-114.914 81.9709,-107.165 78.7153,-113.362"/>
</g>
<!-- Node20 -->
<g id="node3" class="node"><title>Node20</title>
<g id="a_node3"><a xlink:href="namespacecaiman_1_1base_1_1movies.html#ad9b115e435b36308da1248112f09f0db" target="_top" xlink:title="Input filename should be full path excluding .sbx. ">
<polygon fill="white" stroke="black" points="97,-76.5 97,-95.5 167,-95.5 167,-76.5 97,-76.5"/>
<text text-anchor="middle" x="132" y="-83.5" font-family="Helvetica,sans-Serif" font-size="10.00">sbxreadskip</text>
</a>
</g>
</g>
<!-- Node18&#45;&gt;Node20 -->
<g id="edge2" class="edge"><title>Node18&#45;&gt;Node20</title>
<path fill="none" stroke="midnightblue" d="M35.6604,-54.1302C46.0753,-57.9232 59.7847,-62.8448 72,-67 78.084,-69.0695 84.5402,-71.2075 90.8638,-73.2693"/>
<polygon fill="midnightblue" stroke="midnightblue" points="90.0274,-76.6772 100.619,-76.4258 92.1824,-70.0172 90.0274,-76.6772"/>
</g>
<!-- Node24 -->
<g id="node7" class="node"><title>Node24</title>
<g id="a_node7"><a xlink:href="namespacecaiman_1_1base_1_1movies.html#ad72bfc8cc5386d4470caa0be723598e9" target="_top" xlink:title="Input filename should be full path excluding .sbx. ">
<polygon fill="white" stroke="black" points="106,-38.5 106,-57.5 158,-57.5 158,-38.5 106,-38.5"/>
<text text-anchor="middle" x="132" y="-45.5" font-family="Helvetica,sans-Serif" font-size="10.00">sbxread</text>
</a>
</g>
</g>
<!-- Node18&#45;&gt;Node24 -->
<g id="edge6" class="edge"><title>Node18&#45;&gt;Node24</title>
<path fill="none" stroke="midnightblue" d="M35.526,-48C51.2783,-48 75.509,-48 95.6175,-48"/>
<polygon fill="midnightblue" stroke="midnightblue" points="95.6904,-51.5001 105.69,-48 95.6904,-44.5001 95.6904,-51.5001"/>
</g>
<!-- Node25 -->
<g id="node8" class="node"><title>Node25</title>
<g id="a_node8"><a xlink:href="namespacecaiman_1_1base_1_1movies.html#a5a35758b31edb4a9b2105a058a0882a6" target="_top" xlink:title="load movies from list of file names ">
<polygon fill="white" stroke="black" points="83.5,-0.5 83.5,-19.5 180.5,-19.5 180.5,-0.5 83.5,-0.5"/>
<text text-anchor="middle" x="132" y="-7.5" font-family="Helvetica,sans-Serif" font-size="10.00">load_movie_chain</text>
</a>
</g>
</g>
<!-- Node18&#45;&gt;Node25 -->
<g id="edge8" class="edge"><title>Node18&#45;&gt;Node25</title>
<path fill="none" stroke="midnightblue" d="M27.5989,-38.4553C38.0583,-31.9741 56.2681,-25.3514 72,-20 72.5731,-19.8051 73.1494,-19.6095 73.7287,-19.4136"/>
<polygon fill="midnightblue" stroke="midnightblue" points="74.9085,-22.7099 83.298,-16.2394 72.7045,-16.0658 74.9085,-22.7099"/>
</g>
<!-- Node21 -->
<g id="node4" class="node"><title>Node21</title>
<g id="a_node4"><a xlink:href="namespacecaiman_1_1base_1_1movies.html#a1dae08ecd6c4b9ef41d5e820eb86604d" target="_top" xlink:title="loadmat_sbx">
<polygon fill="white" stroke="black" points="228.5,-57.5 228.5,-76.5 301.5,-76.5 301.5,-57.5 228.5,-57.5"/>
<text text-anchor="middle" x="265" y="-64.5" font-family="Helvetica,sans-Serif" font-size="10.00">loadmat_sbx</text>
</a>
</g>
</g>
<!-- Node20&#45;&gt;Node21 -->
<g id="edge3" class="edge"><title>Node20&#45;&gt;Node21</title>
<path fill="none" stroke="midnightblue" d="M167.077,-81.0576C182.646,-78.7994 201.32,-76.091 218.103,-73.6569"/>
<polygon fill="midnightblue" stroke="midnightblue" points="218.869,-77.0824 228.263,-72.1832 217.864,-70.1549 218.869,-77.0824"/>
</g>
<!-- Node22 -->
<g id="node5" class="node"><title>Node22</title>
<g id="a_node5"><a xlink:href="namespacecaiman_1_1base_1_1movies.html#abb80862aafd574c59a95c0b24268be69" target="_top" xlink:title="_check_keys">
<polygon fill="white" stroke="black" points="338,-57.5 338,-76.5 412,-76.5 412,-57.5 338,-57.5"/>
<text text-anchor="middle" x="375" y="-64.5" font-family="Helvetica,sans-Serif" font-size="10.00">_check_keys</text>
</a>
</g>
</g>
<!-- Node21&#45;&gt;Node22 -->
<g id="edge4" class="edge"><title>Node21&#45;&gt;Node22</title>
<path fill="none" stroke="midnightblue" d="M301.663,-67C309.965,-67 318.923,-67 327.613,-67"/>
<polygon fill="midnightblue" stroke="midnightblue" points="327.636,-70.5001 337.636,-67 327.636,-63.5001 327.636,-70.5001"/>
</g>
<!-- Node23 -->
<g id="node6" class="node"><title>Node23</title>
<g id="a_node6"><a xlink:href="namespacecaiman_1_1base_1_1movies.html#a3678b9e2ae337ad61ebe7630c5e08ead" target="_top" xlink:title="A recursive function which constructs from matobjects nested dictionaries. ">
<polygon fill="white" stroke="black" points="448,-57.5 448,-76.5 494,-76.5 494,-57.5 448,-57.5"/>
<text text-anchor="middle" x="471" y="-64.5" font-family="Helvetica,sans-Serif" font-size="10.00">_todict</text>
</a>
</g>
</g>
<!-- Node22&#45;&gt;Node23 -->
<g id="edge5" class="edge"><title>Node22&#45;&gt;Node23</title>
<path fill="none" stroke="midnightblue" d="M412.074,-67C420.52,-67 429.464,-67 437.731,-67"/>
<polygon fill="midnightblue" stroke="midnightblue" points="437.753,-70.5001 447.753,-67 437.753,-63.5001 437.753,-70.5001"/>
</g>
<!-- Node24&#45;&gt;Node21 -->
<g id="edge7" class="edge"><title>Node24&#45;&gt;Node21</title>
<path fill="none" stroke="midnightblue" d="M158.258,-51.6634C175.304,-54.1357 198.286,-57.469 218.471,-60.3966"/>
<polygon fill="midnightblue" stroke="midnightblue" points="218.021,-63.8678 228.42,-61.8395 219.026,-56.9403 218.021,-63.8678"/>
</g>
<!-- Node25&#45;&gt;Node18 -->
<g id="edge9" class="edge"><title>Node25&#45;&gt;Node18</title>
<path fill="none" stroke="midnightblue" d="M120.945,-19.5844C109.176,-25.8147 89.1155,-32.178 72,-38 63.3157,-40.9541 53.8762,-44.2956 45.4022,-46.9001"/>
<polygon fill="midnightblue" stroke="midnightblue" points="44.3415,-43.5625 35.6604,-49.636 46.2343,-50.3018 44.3415,-43.5625"/>
</g>
</g>
</svg>
