<?xml version="1.0" encoding="UTF-8" standalone="no"?>
<!DOCTYPE svg PUBLIC "-//W3C//DTD SVG 1.1//EN"
 "http://www.w3.org/Graphics/SVG/1.1/DTD/svg11.dtd">
<!-- Generated by graphviz version 2.36.0 (20140111.2315)
 -->
<!-- Title: update_spatial_components Pages: 1 -->
<svg width="650pt" height="191pt"
 viewBox="0.00 0.00 650.00 191.00" xmlns="http://www.w3.org/2000/svg" xmlns:xlink="http://www.w3.org/1999/xlink">
<g id="graph0" class="graph" transform="scale(1 1) rotate(0) translate(4 187)">
<title>update_spatial_components</title>
<polygon fill="white" stroke="none" points="-4,4 -4,-187 646,-187 646,4 -4,4"/>
<!-- Node48 -->
<g id="node1" class="node"><title>Node48</title>
<polygon fill="#bfbfbf" stroke="black" points="0,-87.5 0,-106.5 142,-106.5 142,-87.5 0,-87.5"/>
<text text-anchor="middle" x="71" y="-94.5" font-family="Helvetica,sans-Serif" font-size="10.00">update_spatial_components</text>
</g>
<!-- Node49 -->
<g id="node2" class="node"><title>Node49</title>
<g id="a_node2"><a xlink:href="namespacecaiman_1_1source__extraction_1_1cnmf_1_1spatial.html#a618870d89b38009e6444a12357a31d3d" target="_top" xlink:title="test the shape of each matrix, reshape them, test the number of pixel per process ...">
<polygon fill="white" stroke="black" points="228.5,-163.5 228.5,-182.5 261.5,-182.5 261.5,-163.5 228.5,-163.5"/>
<text text-anchor="middle" x="245" y="-170.5" font-family="Helvetica,sans-Serif" font-size="10.00">test</text>
</a>
</g>
</g>
<!-- Node48&#45;&gt;Node49 -->
<g id="edge1" class="edge"><title>Node48&#45;&gt;Node49</title>
<path fill="none" stroke="midnightblue" d="M87.2959,-106.576C107.461,-118.881 144.33,-140.284 178,-154 191.113,-159.342 206.262,-163.816 218.737,-167.078"/>
<polygon fill="midnightblue" stroke="midnightblue" points="217.932,-170.485 228.483,-169.526 219.637,-163.696 217.932,-170.485"/>
</g>
<!-- Node50 -->
<g id="node3" class="node"><title>Node50</title>
<g id="a_node3"><a xlink:href="namespacecaiman_1_1source__extraction_1_1cnmf_1_1spatial.html#aecc215caf3e87682f452e93ca491a477" target="_top" xlink:title="compute the indices of the distance from the cm to search for the spatial component (calling determin...">
<polygon fill="white" stroke="black" points="192,-125.5 192,-144.5 298,-144.5 298,-125.5 192,-125.5"/>
<text text-anchor="middle" x="245" y="-132.5" font-family="Helvetica,sans-Serif" font-size="10.00">computing_indicator</text>
</a>
</g>
</g>
<!-- Node48&#45;&gt;Node50 -->
<g id="edge2" class="edge"><title>Node48&#45;&gt;Node50</title>
<path fill="none" stroke="midnightblue" d="M115.403,-106.589C138.407,-111.671 166.851,-117.955 191.134,-123.32"/>
<polygon fill="midnightblue" stroke="midnightblue" points="190.39,-126.74 200.909,-125.48 191.9,-119.905 190.39,-126.74"/>
</g>
<!-- Node52 -->
<g id="node5" class="node"><title>Node52</title>
<g id="a_node5"><a xlink:href="namespacecaiman_1_1source__extraction_1_1cnmf_1_1spatial.html#a894e2773dd1e79c2efac3c759ff2fe9c" target="_top" xlink:title="memmap the C and Y objects in parallel ">
<polygon fill="white" stroke="black" points="374,-78.5 374,-97.5 460,-97.5 460,-78.5 374,-78.5"/>
<text text-anchor="middle" x="417" y="-85.5" font-family="Helvetica,sans-Serif" font-size="10.00">creatememmap</text>
</a>
</g>
</g>
<!-- Node48&#45;&gt;Node52 -->
<g id="edge4" class="edge"><title>Node48&#45;&gt;Node52</title>
<path fill="none" stroke="midnightblue" d="M142.028,-95.1679C207.631,-93.4515 304.21,-90.9247 363.447,-89.3749"/>
<polygon fill="midnightblue" stroke="midnightblue" points="363.794,-92.8671 373.699,-89.1067 363.611,-85.8695 363.794,-92.8671"/>
</g>
<!-- Node54 -->
<g id="node7" class="node"><title>Node54</title>
<g id="a_node7"><a xlink:href="namespacecaiman_1_1source__extraction_1_1cnmf_1_1spatial.html#a3fa5db8c88b06457233eb35dbcea3588" target="_top" xlink:title="Post&#45;processing of spatial components which includes the following steps. ">
<polygon fill="white" stroke="black" points="186,-49.5 186,-68.5 304,-68.5 304,-49.5 186,-49.5"/>
<text text-anchor="middle" x="245" y="-56.5" font-family="Helvetica,sans-Serif" font-size="10.00">threshold_components</text>
</a>
</g>
</g>
<!-- Node48&#45;&gt;Node54 -->
<g id="edge6" class="edge"><title>Node48&#45;&gt;Node54</title>
<path fill="none" stroke="midnightblue" d="M115.403,-87.411C138.407,-82.3287 166.851,-76.0446 191.134,-70.6797"/>
<polygon fill="midnightblue" stroke="midnightblue" points="191.9,-74.095 200.909,-68.5201 190.39,-67.2598 191.9,-74.095"/>
</g>
<!-- Node55 -->
<g id="node8" class="node"><title>Node55</title>
<g id="a_node8"><a xlink:href="namespacecaiman_1_1mmapping.html#aa75ec735ea507b2ce7eb0e0bd33d2ba3" target="_top" xlink:title="Chunk matrix product between matrix and column vectors A memory mapped ndarray pixels x time b time x...">
<polygon fill="white" stroke="black" points="178.5,-0 178.5,-30 311.5,-30 311.5,-0 178.5,-0"/>
<text text-anchor="start" x="186.5" y="-18" font-family="Helvetica,sans-Serif" font-size="10.00">caiman.mmapping.parallel</text>
<text text-anchor="middle" x="245" y="-7" font-family="Helvetica,sans-Serif" font-size="10.00">_dot_product</text>
</a>
</g>
</g>
<!-- Node48&#45;&gt;Node55 -->
<g id="edge7" class="edge"><title>Node48&#45;&gt;Node55</title>
<path fill="none" stroke="midnightblue" d="M88.1859,-87.4317C108.69,-75.514 145.299,-54.9078 178,-40 182.62,-37.8939 187.473,-35.8146 192.364,-33.8086"/>
<polygon fill="midnightblue" stroke="midnightblue" points="193.775,-37.014 201.762,-30.0536 191.177,-30.5137 193.775,-37.014"/>
</g>
<!-- Node51 -->
<g id="node4" class="node"><title>Node51</title>
<g id="a_node4"><a xlink:href="namespacecaiman_1_1source__extraction_1_1cnmf_1_1spatial.html#aca0edbf4c2cd31fe1a9c228c4099a485" target="_top" xlink:title="compute the indices of the distance from the cm to search for the spatial component ...">
<polygon fill="white" stroke="black" points="348.5,-125.5 348.5,-144.5 485.5,-144.5 485.5,-125.5 348.5,-125.5"/>
<text text-anchor="middle" x="417" y="-132.5" font-family="Helvetica,sans-Serif" font-size="10.00">determine_search_location</text>
</a>
</g>
</g>
<!-- Node50&#45;&gt;Node51 -->
<g id="edge3" class="edge"><title>Node50&#45;&gt;Node51</title>
<path fill="none" stroke="midnightblue" d="M298.393,-135C310.987,-135 324.707,-135 338.184,-135"/>
<polygon fill="midnightblue" stroke="midnightblue" points="338.42,-138.5 348.42,-135 338.42,-131.5 338.42,-138.5"/>
</g>
<!-- Node53 -->
<g id="node6" class="node"><title>Node53</title>
<g id="a_node6"><a xlink:href="namespacecaiman_1_1mmapping.html#aeb2ed62e4a9028089a2eec09d392707f" target="_top" xlink:title="Load a memory mapped file created by the function save_memmap. ">
<polygon fill="white" stroke="black" points="522,-41 522,-71 642,-71 642,-41 522,-41"/>
<text text-anchor="start" x="530" y="-59" font-family="Helvetica,sans-Serif" font-size="10.00">caiman.mmapping.load</text>
<text text-anchor="middle" x="582" y="-48" font-family="Helvetica,sans-Serif" font-size="10.00">_memmap</text>
</a>
</g>
</g>
<!-- Node52&#45;&gt;Node53 -->
<g id="edge5" class="edge"><title>Node52&#45;&gt;Node53</title>
<path fill="none" stroke="midnightblue" d="M460.401,-79.6759C476.093,-76.5953 494.318,-73.0172 511.775,-69.5901"/>
<polygon fill="midnightblue" stroke="midnightblue" points="512.801,-72.9556 521.94,-67.5946 511.453,-66.0867 512.801,-72.9556"/>
</g>
<!-- Node56 -->
<g id="node9" class="node"><title>Node56</title>
<g id="a_node9"><a xlink:href="namespacecaiman_1_1mmapping.html#a14d47c076020d7d3adf2599ed3354e4b" target="_top" xlink:title="caiman.mmapping.dot\l_place_holder">
<polygon fill="white" stroke="black" points="359.5,-10 359.5,-40 474.5,-40 474.5,-10 359.5,-10"/>
<text text-anchor="start" x="367.5" y="-28" font-family="Helvetica,sans-Serif" font-size="10.00">caiman.mmapping.dot</text>
<text text-anchor="middle" x="417" y="-17" font-family="Helvetica,sans-Serif" font-size="10.00">_place_holder</text>
</a>
</g>
</g>
<!-- Node55&#45;&gt;Node56 -->
<g id="edge8" class="edge"><title>Node55&#45;&gt;Node56</title>
<path fill="none" stroke="midnightblue" d="M311.726,-18.8663C323.99,-19.5876 336.818,-20.3422 349.115,-21.0656"/>
<polygon fill="midnightblue" stroke="midnightblue" points="349.108,-24.5711 359.296,-21.6645 349.519,-17.5832 349.108,-24.5711"/>
</g>
<!-- Node56&#45;&gt;Node53 -->
<g id="edge9" class="edge"><title>Node56&#45;&gt;Node53</title>
<path fill="none" stroke="midnightblue" d="M474.552,-35.7553C486.596,-38.0459 499.444,-40.4894 511.897,-42.8578"/>
<polygon fill="midnightblue" stroke="midnightblue" points="511.299,-46.3066 521.777,-44.7367 512.607,-39.4299 511.299,-46.3066"/>
</g>
</g>
</svg>
