<?xml version="1.0" encoding="UTF-8" standalone="no"?>
<!DOCTYPE svg PUBLIC "-//W3C//DTD SVG 1.1//EN"
 "http://www.w3.org/Graphics/SVG/1.1/DTD/svg11.dtd">
<!-- Generated by graphviz version 2.36.0 (20140111.2315)
 -->
<!-- Title: start_server Pages: 1 -->
<svg width="442pt" height="95pt"
 viewBox="0.00 0.00 442.00 95.00" xmlns="http://www.w3.org/2000/svg" xmlns:xlink="http://www.w3.org/1999/xlink">
<g id="graph0" class="graph" transform="scale(1 1) rotate(0) translate(4 91)">
<title>start_server</title>
<polygon fill="white" stroke="none" points="-4,4 -4,-91 438,-91 438,4 -4,4"/>
<!-- Node34 -->
<g id="node1" class="node"><title>Node34</title>
<polygon fill="#bfbfbf" stroke="black" points="0.5,-48.5 0.5,-67.5 69.5,-67.5 69.5,-48.5 0.5,-48.5"/>
<text text-anchor="middle" x="35" y="-55.5" font-family="Helvetica,sans-Serif" font-size="10.00">start_server</text>
</g>
<!-- Node35 -->
<g id="node2" class="node"><title>Node35</title>
<g id="a_node2"><a xlink:href="namespacecaiman_1_1cluster.html#a1dcb2a098d3e274cb3acd433ddc58953" target="_top" xlink:title="Restart if necessary the pipyparallel cluster, and manages the case of SLURM. ">
<polygon fill="white" stroke="black" points="143,-67.5 143,-86.5 219,-86.5 219,-67.5 143,-67.5"/>
<text text-anchor="middle" x="181" y="-74.5" font-family="Helvetica,sans-Serif" font-size="10.00">setup_cluster</text>
</a>
</g>
</g>
<!-- Node34&#45;&gt;Node35 -->
<g id="edge1" class="edge"><title>Node34&#45;&gt;Node35</title>
<path fill="none" stroke="midnightblue" d="M79.9342,-63.7969C100.072,-66.4539 123.683,-69.5692 142.911,-72.1063"/>
<polygon fill="midnightblue" stroke="midnightblue" points="80.1335,-60.2929 69.7616,-62.4547 79.2178,-67.2328 80.1335,-60.2929"/>
</g>
<!-- Node36 -->
<g id="node3" class="node"><title>Node36</title>
<g id="a_node3"><a xlink:href="namespacecaiman_1_1tests_1_1test__demo.html#ac5c3950ffe101e5dfa9c5ca2087dfc73" target="_top" xlink:title="caiman.tests.test_demo.demo">
<polygon fill="white" stroke="black" points="106,-29.5 106,-48.5 256,-48.5 256,-29.5 106,-29.5"/>
<text text-anchor="middle" x="181" y="-36.5" font-family="Helvetica,sans-Serif" font-size="10.00">caiman.tests.test_demo.demo</text>
</a>
</g>
</g>
<!-- Node34&#45;&gt;Node36 -->
<g id="edge2" class="edge"><title>Node34&#45;&gt;Node36</title>
<path fill="none" stroke="midnightblue" d="M79.8335,-52.2164C88.7132,-51.0448 98.2714,-49.7836 107.834,-48.522"/>
<polygon fill="midnightblue" stroke="midnightblue" points="79.2178,-48.7672 69.7616,-53.5453 80.1335,-55.7071 79.2178,-48.7672"/>
</g>
<!-- Node37 -->
<g id="node4" class="node"><title>Node37</title>
<g id="a_node4"><a xlink:href="namespacecaiman_1_1tests_1_1test__demo.html#a96a59f0aebd7425caeb0e5c4c0286d46" target="_top" xlink:title="caiman.tests.test_demo.test\l_single_thread">
<polygon fill="white" stroke="black" points="292.5,-49 292.5,-79 433.5,-79 433.5,-49 292.5,-49"/>
<text text-anchor="start" x="300.5" y="-67" font-family="Helvetica,sans-Serif" font-size="10.00">caiman.tests.test_demo.test</text>
<text text-anchor="middle" x="363" y="-56" font-family="Helvetica,sans-Serif" font-size="10.00">_single_thread</text>
</a>
</g>
</g>
<!-- Node36&#45;&gt;Node37 -->
<g id="edge3" class="edge"><title>Node36&#45;&gt;Node37</title>
<path fill="none" stroke="midnightblue" d="M260.63,-49.9208C271.217,-51.3913 282.018,-52.8914 292.433,-54.338"/>
<polygon fill="midnightblue" stroke="midnightblue" points="260.95,-46.4318 250.564,-48.5227 259.987,-53.3652 260.95,-46.4318"/>
</g>
<!-- Node38 -->
<g id="node5" class="node"><title>Node38</title>
<g id="a_node5"><a xlink:href="namespacecaiman_1_1tests_1_1test__demo.html#a9b4f91fe22f45c31c9f0d6decc982909" target="_top" xlink:title="caiman.tests.test_demo.test\l_parallel">
<polygon fill="white" stroke="black" points="292.5,-0 292.5,-30 433.5,-30 433.5,-0 292.5,-0"/>
<text text-anchor="start" x="300.5" y="-18" font-family="Helvetica,sans-Serif" font-size="10.00">caiman.tests.test_demo.test</text>
<text text-anchor="middle" x="363" y="-7" font-family="Helvetica,sans-Serif" font-size="10.00">_parallel</text>
</a>
</g>
</g>
<!-- Node36&#45;&gt;Node38 -->
<g id="edge4" class="edge"><title>Node36&#45;&gt;Node38</title>
<path fill="none" stroke="midnightblue" d="M263.431,-28.1426C273.122,-26.8504 282.947,-25.5405 292.45,-24.2733"/>
<polygon fill="midnightblue" stroke="midnightblue" points="262.849,-24.6891 253.399,-29.4801 263.774,-31.6277 262.849,-24.6891"/>
</g>
</g>
</svg>
