<?xml version="1.0" encoding="UTF-8" standalone="no"?>
<!DOCTYPE svg PUBLIC "-//W3C//DTD SVG 1.1//EN"
 "http://www.w3.org/Graphics/SVG/1.1/DTD/svg11.dtd">
<!-- Generated by graphviz version 2.36.0 (20140111.2315)
 -->
<!-- Title: nb_plot_contour Pages: 1 -->
<svg width="200pt" height="28pt"
 viewBox="0.00 0.00 200.00 28.00" xmlns="http://www.w3.org/2000/svg" xmlns:xlink="http://www.w3.org/1999/xlink">
<g id="graph0" class="graph" transform="scale(1 1) rotate(0) translate(4 24)">
<title>nb_plot_contour</title>
<polygon fill="white" stroke="none" points="-4,4 -4,-24 196,-24 196,4 -4,4"/>
<!-- Node24 -->
<g id="node1" class="node"><title>Node24</title>
<polygon fill="#bfbfbf" stroke="black" points="0,-0.5 0,-19.5 88,-19.5 88,-0.5 0,-0.5"/>
<text text-anchor="middle" x="44" y="-7.5" font-family="Helvetica,sans-Serif" font-size="10.00">nb_plot_contour</text>
</g>
<!-- Node25 -->
<g id="node2" class="node"><title>Node25</title>
<g id="a_node2"><a xlink:href="namespacecaiman_1_1utils_1_1visualization.html#ac95a3a5e8c3bee95392831c57548fc04" target="_top" xlink:title="Interactive equivalent of imshow for ipython notebook. ">
<polygon fill="white" stroke="black" points="124.5,-0.5 124.5,-19.5 191.5,-19.5 191.5,-0.5 124.5,-0.5"/>
<text text-anchor="middle" x="158" y="-7.5" font-family="Helvetica,sans-Serif" font-size="10.00">nb_imshow</text>
</a>
</g>
</g>
<!-- Node24&#45;&gt;Node25 -->
<g id="edge1" class="edge"><title>Node24&#45;&gt;Node25</title>
<path fill="none" stroke="midnightblue" d="M98.5192,-3.25589C107.299,-3.21417 116.16,-3.39405 124.237,-3.79553"/>
<polygon fill="midnightblue" stroke="midnightblue" points="98.2494,0.240605 88.3021,-3.40666 98.3527,-6.75863 98.2494,0.240605"/>
</g>
<!-- Node25&#45;&gt;Node24 -->
<g id="edge2" class="edge"><title>Node25&#45;&gt;Node24</title>
<path fill="none" stroke="midnightblue" d="M114.168,-16.5813C105.693,-16.8021 96.7921,-16.8061 88.3021,-16.5933"/>
<polygon fill="midnightblue" stroke="midnightblue" points="114.375,-20.0761 124.237,-16.2045 114.113,-13.081 114.375,-20.0761"/>
</g>
</g>
</svg>
