<?xml version="1.0" encoding="UTF-8" standalone="no"?>
<!DOCTYPE svg PUBLIC "-//W3C//DTD SVG 1.1//EN"
 "http://www.w3.org/Graphics/SVG/1.1/DTD/svg11.dtd">
<!-- Generated by graphviz version 2.36.0 (20140111.2315)
 -->
<!-- Title: nb_plot_contour Pages: 1 -->
<svg width="360pt" height="104pt"
 viewBox="0.00 0.00 360.00 104.00" xmlns="http://www.w3.org/2000/svg" xmlns:xlink="http://www.w3.org/1999/xlink">
<g id="graph0" class="graph" transform="scale(1 1) rotate(0) translate(4 100)">
<title>nb_plot_contour</title>
<polygon fill="white" stroke="none" points="-4,4 -4,-100 356,-100 356,4 -4,4"/>
<!-- Node20 -->
<g id="node1" class="node"><title>Node20</title>
<polygon fill="#bfbfbf" stroke="black" points="0,-57.5 0,-76.5 88,-76.5 88,-57.5 0,-57.5"/>
<text text-anchor="middle" x="44" y="-64.5" font-family="Helvetica,sans-Serif" font-size="10.00">nb_plot_contour</text>
</g>
<!-- Node21 -->
<g id="node2" class="node"><title>Node21</title>
<g id="a_node2"><a xlink:href="namespacecaiman_1_1utils_1_1visualization.html#ac95a3a5e8c3bee95392831c57548fc04" target="_top" xlink:title="Interactive equivalent of imshow for ipython notebook. ">
<polygon fill="white" stroke="black" points="129.5,-76.5 129.5,-95.5 196.5,-95.5 196.5,-76.5 129.5,-76.5"/>
<text text-anchor="middle" x="163" y="-83.5" font-family="Helvetica,sans-Serif" font-size="10.00">nb_imshow</text>
</a>
</g>
</g>
<!-- Node20&#45;&gt;Node21 -->
<g id="edge1" class="edge"><title>Node20&#45;&gt;Node21</title>
<path fill="none" stroke="midnightblue" d="M88.2341,-67.4795C101.253,-69.2304 115.357,-71.6321 127.711,-74.2243"/>
<polygon fill="midnightblue" stroke="midnightblue" points="127.093,-77.6723 137.615,-76.4365 128.619,-70.8407 127.093,-77.6723"/>
</g>
<!-- Node22 -->
<g id="node3" class="node"><title>Node22</title>
<g id="a_node3"><a xlink:href="namespacecaiman_1_1base_1_1rois.html#ae37bc9f1a4e815bd7d8e44a2334883a2" target="_top" xlink:title="Calculation of the center of mass for spatial components. ">
<polygon fill="white" stroke="black" points="238,-19.5 238,-38.5 352,-38.5 352,-19.5 238,-19.5"/>
<text text-anchor="middle" x="295" y="-26.5" font-family="Helvetica,sans-Serif" font-size="10.00">caiman.base.rois.com</text>
</a>
</g>
</g>
<!-- Node20&#45;&gt;Node22 -->
<g id="edge3" class="edge"><title>Node20&#45;&gt;Node22</title>
<path fill="none" stroke="midnightblue" d="M88.0882,-60.4243C126.57,-54.5515 183.531,-45.8587 227.795,-39.1036"/>
<polygon fill="midnightblue" stroke="midnightblue" points="228.535,-42.5312 237.893,-37.5625 227.479,-35.6113 228.535,-42.5312"/>
</g>
<!-- Node23 -->
<g id="node4" class="node"><title>Node23</title>
<g id="a_node4"><a xlink:href="namespacecaiman_1_1utils_1_1visualization.html#ad48f24a70009a82e7a8cafa02e283a0e" target="_top" xlink:title="Plots contour of spatial components against a background image and returns their coordinates. ">
<polygon fill="white" stroke="black" points="124.5,-0.5 124.5,-19.5 201.5,-19.5 201.5,-0.5 124.5,-0.5"/>
<text text-anchor="middle" x="163" y="-7.5" font-family="Helvetica,sans-Serif" font-size="10.00">plot_contours</text>
</a>
</g>
</g>
<!-- Node20&#45;&gt;Node23 -->
<g id="edge4" class="edge"><title>Node20&#45;&gt;Node23</title>
<path fill="none" stroke="midnightblue" d="M64.5832,-57.4595C83.3123,-48.335 111.781,-34.4656 133.114,-24.0726"/>
<polygon fill="midnightblue" stroke="midnightblue" points="134.896,-27.0979 142.353,-19.5716 131.83,-20.8049 134.896,-27.0979"/>
</g>
<!-- Node21&#45;&gt;Node20 -->
<g id="edge2" class="edge"><title>Node21&#45;&gt;Node20</title>
<path fill="none" stroke="midnightblue" d="M129.356,-86.8249C113.718,-85.0914 94.9956,-82.0761 79.1657,-78.7499"/>
<polygon fill="midnightblue" stroke="midnightblue" points="79.7654,-75.2976 69.2425,-76.5295 78.2369,-82.1287 79.7654,-75.2976"/>
</g>
<!-- Node23&#45;&gt;Node22 -->
<g id="edge5" class="edge"><title>Node23&#45;&gt;Node22</title>
<path fill="none" stroke="midnightblue" d="M201.601,-15.4956C209.774,-16.69 218.654,-17.9879 227.57,-19.2909"/>
<polygon fill="midnightblue" stroke="midnightblue" points="227.214,-22.7761 237.615,-20.7591 228.226,-15.8497 227.214,-22.7761"/>
</g>
</g>
</svg>
