<?xml version="1.0" encoding="UTF-8" standalone="no"?>
<!DOCTYPE svg PUBLIC "-//W3C//DTD SVG 1.1//EN"
 "http://www.w3.org/Graphics/SVG/1.1/DTD/svg11.dtd">
<!-- Generated by graphviz version 2.36.0 (20140111.2315)
 -->
<!-- Title: com Pages: 1 -->
<svg width="866pt" height="126pt"
 viewBox="0.00 0.00 866.00 126.00" xmlns="http://www.w3.org/2000/svg" xmlns:xlink="http://www.w3.org/1999/xlink">
<g id="graph0" class="graph" transform="scale(1 1) rotate(0) translate(4 122)">
<title>com</title>
<polygon fill="white" stroke="none" points="-4,4 -4,-122 862,-122 862,4 -4,4"/>
<!-- Node1 -->
<g id="node1" class="node"><title>Node1</title>
<polygon fill="#bfbfbf" stroke="black" points="0.5,-49.5 0.5,-68.5 35.5,-68.5 35.5,-49.5 0.5,-49.5"/>
<text text-anchor="middle" x="18" y="-56.5" font-family="Helvetica,sans-Serif" font-size="10.00">com</text>
</g>
<!-- Node2 -->
<g id="node2" class="node"><title>Node2</title>
<g id="a_node2"><a xlink:href="namespacecaiman_1_1source__extraction_1_1cnmf_1_1utilities.html#ad671b2e9120b3437304b3149d174f625" target="_top" xlink:title="Plots contour of spatial components. ">
<polygon fill="white" stroke="black" points="72.5,-88 72.5,-118 303.5,-118 303.5,-88 72.5,-88"/>
<text text-anchor="start" x="80.5" y="-106" font-family="Helvetica,sans-Serif" font-size="10.00">caiman.source_extraction.cnmf.utilities.manually</text>
<text text-anchor="middle" x="188" y="-95" font-family="Helvetica,sans-Serif" font-size="10.00">_refine_components</text>
</a>
</g>
</g>
<!-- Node1&#45;&gt;Node2 -->
<g id="edge1" class="edge"><title>Node1&#45;&gt;Node2</title>
<path fill="none" stroke="midnightblue" d="M45.4575,-66.0058C53.9344,-68.2459 63.3616,-70.7323 72,-73 90.5603,-77.8722 110.812,-83.1637 129.077,-87.9268"/>
<polygon fill="midnightblue" stroke="midnightblue" points="46.2683,-62.6 35.7058,-63.4269 44.4786,-69.3674 46.2683,-62.6"/>
</g>
<!-- Node5 -->
<g id="node5" class="node"><title>Node5</title>
<g id="a_node5"><a xlink:href="namespacecaiman_1_1utils_1_1visualization.html#aa6b9002875d7d86524868e7d795a4f3f" target="_top" xlink:title="Interactive Equivalent of plot_contours for ipython notebook. ">
<polygon fill="white" stroke="black" points="396,-20 396,-50 536,-50 536,-20 396,-20"/>
<text text-anchor="start" x="404" y="-38" font-family="Helvetica,sans-Serif" font-size="10.00">caiman.utils.visualization.nb</text>
<text text-anchor="middle" x="466" y="-27" font-family="Helvetica,sans-Serif" font-size="10.00">_plot_contour</text>
</a>
</g>
</g>
<!-- Node1&#45;&gt;Node5 -->
<g id="edge4" class="edge"><title>Node1&#45;&gt;Node5</title>
<path fill="none" stroke="midnightblue" d="M45.9798,-57.5482C114.195,-53.8774 295.25,-44.1345 395.599,-38.7346"/>
<polygon fill="midnightblue" stroke="midnightblue" points="45.4672,-54.0706 35.6697,-58.103 45.8434,-61.0605 45.4672,-54.0706"/>
</g>
<!-- Node7 -->
<g id="node7" class="node"><title>Node7</title>
<g id="a_node7"><a xlink:href="namespacecaiman_1_1utils_1_1visualization.html#ad48f24a70009a82e7a8cafa02e283a0e" target="_top" xlink:title="Plots contour of spatial components against a background image and returns their coordinates. ">
<polygon fill="white" stroke="black" points="115.5,-0 115.5,-30 260.5,-30 260.5,-0 115.5,-0"/>
<text text-anchor="start" x="123.5" y="-18" font-family="Helvetica,sans-Serif" font-size="10.00">caiman.utils.visualization.plot</text>
<text text-anchor="middle" x="188" y="-7" font-family="Helvetica,sans-Serif" font-size="10.00">_contours</text>
</a>
</g>
</g>
<!-- Node1&#45;&gt;Node7 -->
<g id="edge7" class="edge"><title>Node1&#45;&gt;Node7</title>
<path fill="none" stroke="midnightblue" d="M45.4575,-51.9942C53.9344,-49.7541 63.3616,-47.2677 72,-45 90.5603,-40.1278 110.812,-34.8363 129.077,-30.0732"/>
<polygon fill="midnightblue" stroke="midnightblue" points="44.4786,-48.6326 35.7058,-54.5731 46.2683,-55.4 44.4786,-48.6326"/>
</g>
<!-- Node3 -->
<g id="node3" class="node"><title>Node3</title>
<g id="a_node3"><a xlink:href="namespacecaiman_1_1source__extraction_1_1cnmf_1_1utilities.html#a280d064e1a9888eca4b375647d031491" target="_top" xlink:title="Compute DFF function from cnmf output. ">
<polygon fill="white" stroke="black" points="340,-93.5 340,-112.5 592,-112.5 592,-93.5 340,-93.5"/>
<text text-anchor="middle" x="466" y="-100.5" font-family="Helvetica,sans-Serif" font-size="10.00">caiman.source_extraction.cnmf.utilities.extract_DF_F</text>
</a>
</g>
</g>
<!-- Node2&#45;&gt;Node3 -->
<g id="edge2" class="edge"><title>Node2&#45;&gt;Node3</title>
<path fill="none" stroke="midnightblue" d="M313.822,-103C322.522,-103 331.291,-103 339.991,-103"/>
<polygon fill="midnightblue" stroke="midnightblue" points="313.651,-99.5001 303.651,-103 313.651,-106.5 313.651,-99.5001"/>
</g>
<!-- Node4 -->
<g id="node4" class="node"><title>Node4</title>
<g id="a_node4"><a xlink:href="namespacecaiman_1_1source__extraction_1_1cnmf_1_1utilities.html#aea3aa78c7c153170012079014e1f4895" target="_top" xlink:title="caiman.source_extraction.cnmf.utilities.compute\lDFF_traces">
<polygon fill="white" stroke="black" points="628.5,-88 628.5,-118 857.5,-118 857.5,-88 628.5,-88"/>
<text text-anchor="start" x="636.5" y="-106" font-family="Helvetica,sans-Serif" font-size="10.00">caiman.source_extraction.cnmf.utilities.compute</text>
<text text-anchor="middle" x="743" y="-95" font-family="Helvetica,sans-Serif" font-size="10.00">DFF_traces</text>
</a>
</g>
</g>
<!-- Node3&#45;&gt;Node4 -->
<g id="edge3" class="edge"><title>Node3&#45;&gt;Node4</title>
<path fill="none" stroke="midnightblue" d="M602.226,-103C610.925,-103 619.636,-103 628.22,-103"/>
<polygon fill="midnightblue" stroke="midnightblue" points="602.028,-99.5001 592.027,-103 602.027,-106.5 602.028,-99.5001"/>
</g>
<!-- Node6 -->
<g id="node6" class="node"><title>Node6</title>
<g id="a_node6"><a xlink:href="namespacecaiman_1_1utils_1_1visualization.html#ac95a3a5e8c3bee95392831c57548fc04" target="_top" xlink:title="Interactive equivalent of imshow for ipython notebook. ">
<polygon fill="white" stroke="black" points="673,-20 673,-50 813,-50 813,-20 673,-20"/>
<text text-anchor="start" x="681" y="-38" font-family="Helvetica,sans-Serif" font-size="10.00">caiman.utils.visualization.nb</text>
<text text-anchor="middle" x="743" y="-27" font-family="Helvetica,sans-Serif" font-size="10.00">_imshow</text>
</a>
</g>
</g>
<!-- Node5&#45;&gt;Node6 -->
<g id="edge5" class="edge"><title>Node5&#45;&gt;Node6</title>
<path fill="none" stroke="midnightblue" d="M546.043,-28.8243C586.126,-27.9879 634.353,-28.0651 672.932,-29.056"/>
<polygon fill="midnightblue" stroke="midnightblue" points="545.955,-25.3254 536.039,-29.0567 546.118,-32.3235 545.955,-25.3254"/>
</g>
<!-- Node6&#45;&gt;Node5 -->
<g id="edge6" class="edge"><title>Node6&#45;&gt;Node5</title>
<path fill="none" stroke="midnightblue" d="M662.927,-41.1763C622.84,-42.0123 574.614,-41.9346 536.039,-40.9433"/>
<polygon fill="midnightblue" stroke="midnightblue" points="663.016,-44.6752 672.932,-40.944 662.854,-37.6771 663.016,-44.6752"/>
</g>
<!-- Node7&#45;&gt;Node5 -->
<g id="edge8" class="edge"><title>Node7&#45;&gt;Node5</title>
<path fill="none" stroke="midnightblue" d="M271.002,-20.9422C310.78,-23.8246 358.033,-27.2488 395.945,-29.996"/>
<polygon fill="midnightblue" stroke="midnightblue" points="271.022,-17.4345 260.795,-20.2026 270.516,-24.4162 271.022,-17.4345"/>
</g>
</g>
</svg>
