<?xml version="1.0" encoding="UTF-8" standalone="no"?>
<!DOCTYPE svg PUBLIC "-//W3C//DTD SVG 1.1//EN"
 "http://www.w3.org/Graphics/SVG/1.1/DTD/svg11.dtd">
<!-- Generated by graphviz version 2.36.0 (20140111.2315)
 -->
<!-- Title: load_movie_chain Pages: 1 -->
<svg width="636pt" height="115pt"
 viewBox="0.00 0.00 636.00 115.00" xmlns="http://www.w3.org/2000/svg" xmlns:xlink="http://www.w3.org/1999/xlink">
<g id="graph0" class="graph" transform="scale(1 1) rotate(0) translate(4 111)">
<title>load_movie_chain</title>
<polygon fill="white" stroke="none" points="-4,4 -4,-111 632,-111 632,4 -4,4"/>
<!-- Node28 -->
<g id="node1" class="node"><title>Node28</title>
<polygon fill="#bfbfbf" stroke="black" points="0.5,-38.5 0.5,-57.5 97.5,-57.5 97.5,-38.5 0.5,-38.5"/>
<text text-anchor="middle" x="49" y="-45.5" font-family="Helvetica,sans-Serif" font-size="10.00">load_movie_chain</text>
</g>
<!-- Node29 -->
<g id="node2" class="node"><title>Node29</title>
<g id="a_node2"><a xlink:href="namespacecaiman_1_1base_1_1movies.html#a6d585c260307278135a0b4b09440b313" target="_top" xlink:title="load movie from file. ">
<polygon fill="white" stroke="black" points="134.5,-38.5 134.5,-57.5 169.5,-57.5 169.5,-38.5 134.5,-38.5"/>
<text text-anchor="middle" x="152" y="-45.5" font-family="Helvetica,sans-Serif" font-size="10.00">load</text>
</a>
</g>
</g>
<!-- Node28&#45;&gt;Node29 -->
<g id="edge1" class="edge"><title>Node28&#45;&gt;Node29</title>
<path fill="none" stroke="midnightblue" d="M97.5425,-41.2603C106.65,-41.1968 115.886,-41.4269 124.06,-41.9506"/>
<polygon fill="midnightblue" stroke="midnightblue" points="123.833,-45.4439 134.095,-42.8082 124.429,-38.4693 123.833,-45.4439"/>
</g>
<!-- Node29&#45;&gt;Node28 -->
<g id="edge9" class="edge"><title>Node29&#45;&gt;Node28</title>
<path fill="none" stroke="midnightblue" d="M134.095,-53.1918C126.606,-54.0254 117.314,-54.5246 107.666,-54.6892"/>
<polygon fill="midnightblue" stroke="midnightblue" points="107.525,-51.1898 97.5425,-54.7397 107.56,-58.1897 107.525,-51.1898"/>
</g>
<!-- Node30 -->
<g id="node3" class="node"><title>Node30</title>
<g id="a_node3"><a xlink:href="namespacecaiman_1_1mmapping.html#aeb2ed62e4a9028089a2eec09d392707f" target="_top" xlink:title="Load a memory mapped file created by the function save_memmap. ">
<polygon fill="white" stroke="black" points="206,-77 206,-107 326,-107 326,-77 206,-77"/>
<text text-anchor="start" x="214" y="-95" font-family="Helvetica,sans-Serif" font-size="10.00">caiman.mmapping.load</text>
<text text-anchor="middle" x="266" y="-84" font-family="Helvetica,sans-Serif" font-size="10.00">_memmap</text>
</a>
</g>
</g>
<!-- Node29&#45;&gt;Node30 -->
<g id="edge2" class="edge"><title>Node29&#45;&gt;Node30</title>
<path fill="none" stroke="midnightblue" d="M169.526,-54.4924C182.156,-59.4541 200.236,-66.5572 217.272,-73.2499"/>
<polygon fill="midnightblue" stroke="midnightblue" points="216.001,-76.5107 226.588,-76.9096 218.56,-69.9954 216.001,-76.5107"/>
</g>
<!-- Node31 -->
<g id="node4" class="node"><title>Node31</title>
<g id="a_node4"><a xlink:href="namespacecaiman_1_1base_1_1movies.html#ad9b115e435b36308da1248112f09f0db" target="_top" xlink:title="Input filename should be full path excluding .sbx. ">
<polygon fill="white" stroke="black" points="231,-38.5 231,-57.5 301,-57.5 301,-38.5 231,-38.5"/>
<text text-anchor="middle" x="266" y="-45.5" font-family="Helvetica,sans-Serif" font-size="10.00">sbxreadskip</text>
</a>
</g>
</g>
<!-- Node29&#45;&gt;Node31 -->
<g id="edge3" class="edge"><title>Node29&#45;&gt;Node31</title>
<path fill="none" stroke="midnightblue" d="M169.526,-48C183.017,-48 202.728,-48 220.741,-48"/>
<polygon fill="midnightblue" stroke="midnightblue" points="220.807,-51.5001 230.807,-48 220.807,-44.5001 220.807,-51.5001"/>
</g>
<!-- Node35 -->
<g id="node8" class="node"><title>Node35</title>
<g id="a_node8"><a xlink:href="namespacecaiman_1_1base_1_1movies.html#ad72bfc8cc5386d4470caa0be723598e9" target="_top" xlink:title="Input filename should be full path excluding .sbx. ">
<polygon fill="white" stroke="black" points="240,-0.5 240,-19.5 292,-19.5 292,-0.5 240,-0.5"/>
<text text-anchor="middle" x="266" y="-7.5" font-family="Helvetica,sans-Serif" font-size="10.00">sbxread</text>
</a>
</g>
</g>
<!-- Node29&#45;&gt;Node35 -->
<g id="edge7" class="edge"><title>Node29&#45;&gt;Node35</title>
<path fill="none" stroke="midnightblue" d="M169.66,-41.8698C180.075,-38.0768 193.785,-33.1552 206,-29 213.808,-26.344 222.229,-23.5754 230.196,-20.9997"/>
<polygon fill="midnightblue" stroke="midnightblue" points="231.513,-24.2528 239.964,-17.8632 229.373,-17.5879 231.513,-24.2528"/>
</g>
<!-- Node32 -->
<g id="node5" class="node"><title>Node32</title>
<g id="a_node5"><a xlink:href="namespacecaiman_1_1base_1_1movies.html#a1dae08ecd6c4b9ef41d5e820eb86604d" target="_top" xlink:title="loadmat_sbx">
<polygon fill="white" stroke="black" points="362.5,-19.5 362.5,-38.5 435.5,-38.5 435.5,-19.5 362.5,-19.5"/>
<text text-anchor="middle" x="399" y="-26.5" font-family="Helvetica,sans-Serif" font-size="10.00">loadmat_sbx</text>
</a>
</g>
</g>
<!-- Node31&#45;&gt;Node32 -->
<g id="edge4" class="edge"><title>Node31&#45;&gt;Node32</title>
<path fill="none" stroke="midnightblue" d="M301.077,-43.0576C316.646,-40.7994 335.32,-38.091 352.103,-35.6569"/>
<polygon fill="midnightblue" stroke="midnightblue" points="352.869,-39.0824 362.263,-34.1832 351.864,-32.1549 352.869,-39.0824"/>
</g>
<!-- Node33 -->
<g id="node6" class="node"><title>Node33</title>
<g id="a_node6"><a xlink:href="namespacecaiman_1_1base_1_1movies.html#abb80862aafd574c59a95c0b24268be69" target="_top" xlink:title="_check_keys">
<polygon fill="white" stroke="black" points="472,-19.5 472,-38.5 546,-38.5 546,-19.5 472,-19.5"/>
<text text-anchor="middle" x="509" y="-26.5" font-family="Helvetica,sans-Serif" font-size="10.00">_check_keys</text>
</a>
</g>
</g>
<!-- Node32&#45;&gt;Node33 -->
<g id="edge5" class="edge"><title>Node32&#45;&gt;Node33</title>
<path fill="none" stroke="midnightblue" d="M435.663,-29C443.965,-29 452.923,-29 461.613,-29"/>
<polygon fill="midnightblue" stroke="midnightblue" points="461.636,-32.5001 471.636,-29 461.636,-25.5001 461.636,-32.5001"/>
</g>
<!-- Node34 -->
<g id="node7" class="node"><title>Node34</title>
<g id="a_node7"><a xlink:href="namespacecaiman_1_1base_1_1movies.html#a3678b9e2ae337ad61ebe7630c5e08ead" target="_top" xlink:title="A recursive function which constructs from matobjects nested dictionaries. ">
<polygon fill="white" stroke="black" points="582,-19.5 582,-38.5 628,-38.5 628,-19.5 582,-19.5"/>
<text text-anchor="middle" x="605" y="-26.5" font-family="Helvetica,sans-Serif" font-size="10.00">_todict</text>
</a>
</g>
</g>
<!-- Node33&#45;&gt;Node34 -->
<g id="edge6" class="edge"><title>Node33&#45;&gt;Node34</title>
<path fill="none" stroke="midnightblue" d="M546.074,-29C554.52,-29 563.464,-29 571.731,-29"/>
<polygon fill="midnightblue" stroke="midnightblue" points="571.753,-32.5001 581.753,-29 571.753,-25.5001 571.753,-32.5001"/>
</g>
<!-- Node35&#45;&gt;Node32 -->
<g id="edge8" class="edge"><title>Node35&#45;&gt;Node32</title>
<path fill="none" stroke="midnightblue" d="M292.258,-13.6634C309.304,-16.1357 332.286,-19.469 352.471,-22.3966"/>
<polygon fill="midnightblue" stroke="midnightblue" points="352.021,-25.8678 362.42,-23.8395 353.026,-18.9403 352.021,-25.8678"/>
</g>
</g>
</svg>
