<?xml version="1.0" encoding="UTF-8" standalone="no"?>
<!DOCTYPE svg PUBLIC "-//W3C//DTD SVG 1.1//EN"
 "http://www.w3.org/Graphics/SVG/1.1/DTD/svg11.dtd">
<!-- Generated by graphviz version 2.36.0 (20140111.2315)
 -->
<!-- Title: _upsampled_dft Pages: 1 -->
<svg width="542pt" height="129pt"
 viewBox="0.00 0.00 542.00 129.00" xmlns="http://www.w3.org/2000/svg" xmlns:xlink="http://www.w3.org/1999/xlink">
<g id="graph0" class="graph" transform="scale(1 1) rotate(0) translate(4 125)">
<title>_upsampled_dft</title>
<polygon fill="white" stroke="none" points="-4,4 -4,-125 538,-125 538,4 -4,4"/>
<!-- Node13 -->
<g id="node1" class="node"><title>Node13</title>
<polygon fill="#bfbfbf" stroke="black" points="0,-82.5 0,-101.5 88,-101.5 88,-82.5 0,-82.5"/>
<text text-anchor="middle" x="44" y="-89.5" font-family="Helvetica,sans-Serif" font-size="10.00">_upsampled_dft</text>
</g>
<!-- Node14 -->
<g id="node2" class="node"><title>Node14</title>
<g id="a_node2"><a xlink:href="namespacecaiman_1_1motion__correction.html#a7d2c5818773d564a27f831175498ee9a" target="_top" xlink:title="motion correct many movies usingthe ipyparallel cluster Parameters file_names list of strings names o...">
<polygon fill="white" stroke="black" points="124,-101.5 124,-120.5 244,-120.5 244,-101.5 124,-101.5"/>
<text text-anchor="middle" x="184" y="-108.5" font-family="Helvetica,sans-Serif" font-size="10.00">motion_correct_parallel</text>
</a>
</g>
</g>
<!-- Node13&#45;&gt;Node14 -->
<g id="edge1" class="edge"><title>Node13&#45;&gt;Node14</title>
<path fill="none" stroke="midnightblue" d="M98.3211,-99.3413C106.711,-100.496 115.427,-101.696 123.937,-102.868"/>
<polygon fill="midnightblue" stroke="midnightblue" points="98.6694,-95.8563 88.2854,-97.9596 97.7146,-102.791 98.6694,-95.8563"/>
</g>
<!-- Node15 -->
<g id="node3" class="node"><title>Node15</title>
<g id="a_node3"><a xlink:href="namespacecaiman_1_1motion__correction.html#a0700d66a3a6b2556b1c712daf9c18a9b" target="_top" xlink:title="register_translation">
<polygon fill="white" stroke="black" points="133,-63.5 133,-82.5 235,-82.5 235,-63.5 133,-63.5"/>
<text text-anchor="middle" x="184" y="-70.5" font-family="Helvetica,sans-Serif" font-size="10.00">register_translation</text>
</a>
</g>
</g>
<!-- Node13&#45;&gt;Node15 -->
<g id="edge2" class="edge"><title>Node13&#45;&gt;Node15</title>
<path fill="none" stroke="midnightblue" d="M98.4159,-84.6456C109.665,-83.0968 121.498,-81.4677 132.631,-79.9348"/>
<polygon fill="midnightblue" stroke="midnightblue" points="97.7146,-81.2091 88.2854,-86.0404 98.6694,-88.1437 97.7146,-81.2091"/>
</g>
<!-- Node16 -->
<g id="node4" class="node"><title>Node16</title>
<g id="a_node4"><a xlink:href="namespacecaiman_1_1motion__correction.html#a683f5ee23e529946b17f6a87ae45e0a4" target="_top" xlink:title="Compute RMS error metric between src_image and target_image. ">
<polygon fill="white" stroke="black" points="280.5,-82.5 280.5,-101.5 367.5,-101.5 367.5,-82.5 280.5,-82.5"/>
<text text-anchor="middle" x="324" y="-89.5" font-family="Helvetica,sans-Serif" font-size="10.00">_compute_error</text>
</a>
</g>
</g>
<!-- Node15&#45;&gt;Node16 -->
<g id="edge3" class="edge"><title>Node15&#45;&gt;Node16</title>
<path fill="none" stroke="midnightblue" d="M245.426,-81.3195C257.187,-82.9389 269.287,-84.6047 280.328,-86.1249"/>
<polygon fill="midnightblue" stroke="midnightblue" points="245.596,-77.8099 235.212,-79.9132 244.641,-84.7445 245.596,-77.8099"/>
</g>
<!-- Node17 -->
<g id="node5" class="node"><title>Node17</title>
<g id="a_node5"><a xlink:href="namespacecaiman_1_1motion__correction.html#aea060208c09f0e4fb01e6d31b9acf36f" target="_top" xlink:title="perform piecewise rigid motion correction iteration, by 1) dividing the FOV in patches 2) motion corr...">
<polygon fill="white" stroke="black" points="280,-44.5 280,-63.5 368,-63.5 368,-44.5 280,-44.5"/>
<text text-anchor="middle" x="324" y="-51.5" font-family="Helvetica,sans-Serif" font-size="10.00">tile_and_correct</text>
</a>
</g>
</g>
<!-- Node15&#45;&gt;Node17 -->
<g id="edge4" class="edge"><title>Node15&#45;&gt;Node17</title>
<path fill="none" stroke="midnightblue" d="M245.318,-64.6953C256.955,-63.0931 268.927,-61.4448 279.881,-59.9366"/>
<polygon fill="midnightblue" stroke="midnightblue" points="244.641,-61.2555 235.212,-66.0868 245.596,-68.1901 244.641,-61.2555"/>
</g>
<!-- Node18 -->
<g id="node6" class="node"><title>Node18</title>
<g id="a_node6"><a xlink:href="namespacecaiman_1_1motion__correction.html#a88ef513cfa324fc8548e4fb46d7a67e5" target="_top" xlink:title="create a matrix that is used to normalize the intersection of the stiched patches ...">
<polygon fill="white" stroke="black" points="413,-39 413,-69 525,-69 525,-39 413,-39"/>
<text text-anchor="start" x="421" y="-57" font-family="Helvetica,sans-Serif" font-size="10.00">create_weight_matrix</text>
<text text-anchor="middle" x="469" y="-46" font-family="Helvetica,sans-Serif" font-size="10.00">_for_blending</text>
</a>
</g>
</g>
<!-- Node17&#45;&gt;Node18 -->
<g id="edge5" class="edge"><title>Node17&#45;&gt;Node18</title>
<path fill="none" stroke="midnightblue" d="M378.427,-47.4454C389.696,-47.1969 401.607,-47.1854 412.935,-47.4111"/>
<polygon fill="midnightblue" stroke="midnightblue" points="378.187,-43.9508 368.293,-47.7404 378.39,-50.9479 378.187,-43.9508"/>
</g>
<!-- Node19 -->
<g id="node7" class="node"><title>Node19</title>
<g id="a_node7"><a xlink:href="namespacecaiman_1_1motion__correction.html#a9c4d6e518f42c395cb58a08d2ff21f45" target="_top" xlink:title="tile_and_correct_wrapper">
<polygon fill="white" stroke="black" points="404.5,-0.5 404.5,-19.5 533.5,-19.5 533.5,-0.5 404.5,-0.5"/>
<text text-anchor="middle" x="469" y="-7.5" font-family="Helvetica,sans-Serif" font-size="10.00">tile_and_correct_wrapper</text>
</a>
</g>
</g>
<!-- Node17&#45;&gt;Node19 -->
<g id="edge7" class="edge"><title>Node17&#45;&gt;Node19</title>
<path fill="none" stroke="midnightblue" d="M365.717,-41.4715C388.384,-34.4973 416.151,-25.9535 437.032,-19.5287"/>
<polygon fill="midnightblue" stroke="midnightblue" points="364.557,-38.1665 356.029,-44.4527 366.616,-44.857 364.557,-38.1665"/>
</g>
<!-- Node18&#45;&gt;Node17 -->
<g id="edge6" class="edge"><title>Node18&#45;&gt;Node17</title>
<path fill="none" stroke="midnightblue" d="M402.757,-60.727C391.073,-60.8132 379.165,-60.6574 368.293,-60.2596"/>
<polygon fill="midnightblue" stroke="midnightblue" points="402.984,-64.2243 412.935,-60.5889 402.889,-57.225 402.984,-64.2243"/>
</g>
</g>
</svg>
