<?xml version="1.0" encoding="UTF-8" standalone="no"?>
<!DOCTYPE svg PUBLIC "-//W3C//DTD SVG 1.1//EN"
 "http://www.w3.org/Graphics/SVG/1.1/DTD/svg11.dtd">
<!-- Generated by graphviz version 2.36.0 (20140111.2315)
 -->
<!-- Title: main Pages: 1 -->
<svg width="202pt" height="28pt"
 viewBox="0.00 0.00 202.00 28.00" xmlns="http://www.w3.org/2000/svg" xmlns:xlink="http://www.w3.org/1999/xlink">
<g id="graph0" class="graph" transform="scale(1 1) rotate(0) translate(4 24)">
<title>main</title>
<polygon fill="white" stroke="none" points="-4,4 -4,-24 198,-24 198,4 -4,4"/>
<!-- Node27 -->
<g id="node1" class="node"><title>Node27</title>
<polygon fill="#bfbfbf" stroke="black" points="0,-0.5 0,-19.5 38,-19.5 38,-0.5 0,-0.5"/>
<text text-anchor="middle" x="19" y="-7.5" font-family="Helvetica,sans-Serif" font-size="10.00">main</text>
</g>
<!-- Node28 -->
<g id="node2" class="node"><title>Node28</title>
<g id="a_node2"><a xlink:href="namespacecaiman_1_1behavior_1_1behavior.html#ac7ebff37cde3a2bef4c8613654b60395" target="_top" xlink:title="Normalize the components using the std of the components obtaining using biunary masks. ">
<polygon fill="white" stroke="black" points="74,-0.5 74,-19.5 194,-19.5 194,-0.5 74,-0.5"/>
<text text-anchor="middle" x="134" y="-7.5" font-family="Helvetica,sans-Serif" font-size="10.00">normalize_components</text>
</a>
</g>
</g>
<!-- Node27&#45;&gt;Node28 -->
<g id="edge1" class="edge"><title>Node27&#45;&gt;Node28</title>
<path fill="none" stroke="midnightblue" d="M48.1762,-4.0688C56.0347,-3.57263 64.8793,-3.30196 73.8137,-3.25679"/>
<polygon fill="midnightblue" stroke="midnightblue" points="47.8382,-0.58465 38.1554,-4.88518 48.4066,-7.56154 47.8382,-0.58465"/>
</g>
<!-- Node28&#45;&gt;Node27 -->
<g id="edge2" class="edge"><title>Node28&#45;&gt;Node27</title>
<path fill="none" stroke="midnightblue" d="M63.5498,-16.5899C54.2233,-16.3555 45.3943,-15.8638 38.1554,-15.1148"/>
<polygon fill="midnightblue" stroke="midnightblue" points="63.7625,-20.0933 73.8137,-16.7432 63.8671,-13.0941 63.7625,-20.0933"/>
</g>
</g>
</svg>
