<?xml version="1.0" encoding="UTF-8" standalone="no"?>
<!DOCTYPE svg PUBLIC "-//W3C//DTD SVG 1.1//EN"
 "http://www.w3.org/Graphics/SVG/1.1/DTD/svg11.dtd">
<!-- Generated by graphviz version 2.36.0 (20140111.2315)
 -->
<!-- Title: extractROIsFromPCAICA Pages: 1 -->
<svg width="670pt" height="38pt"
 viewBox="0.00 0.00 670.00 38.00" xmlns="http://www.w3.org/2000/svg" xmlns:xlink="http://www.w3.org/1999/xlink">
<g id="graph0" class="graph" transform="scale(1 1) rotate(0) translate(4 34)">
<title>extractROIsFromPCAICA</title>
<polygon fill="white" stroke="none" points="-4,4 -4,-34 666,-34 666,4 -4,4"/>
<!-- Node23 -->
<g id="node1" class="node"><title>Node23</title>
<polygon fill="#bfbfbf" stroke="black" points="0,-5.5 0,-24.5 130,-24.5 130,-5.5 0,-5.5"/>
<text text-anchor="middle" x="65" y="-12.5" font-family="Helvetica,sans-Serif" font-size="10.00">extractROIsFromPCAICA</text>
</g>
<!-- Node24 -->
<g id="node2" class="node"><title>Node24</title>
<g id="a_node2"><a xlink:href="namespacecaiman_1_1source__extraction_1_1cnmf_1_1initialization.html#a88bfdfe3cc85c90317fb6d8d6c09f792" target="_top" xlink:title="Initialization using ICA and PCA. ">
<polygon fill="white" stroke="black" points="166,-0 166,-30 378,-30 378,-0 166,-0"/>
<text text-anchor="start" x="174" y="-18" font-family="Helvetica,sans-Serif" font-size="10.00">caiman.source_extraction.cnmf.initialization.</text>
<text text-anchor="middle" x="272" y="-7" font-family="Helvetica,sans-Serif" font-size="10.00">ICA_PCA</text>
</a>
</g>
</g>
<!-- Node23&#45;&gt;Node24 -->
<g id="edge1" class="edge"><title>Node23&#45;&gt;Node24</title>
<path fill="none" stroke="midnightblue" d="M140.071,-15C148.437,-15 157.077,-15 165.743,-15"/>
<polygon fill="midnightblue" stroke="midnightblue" points="140.02,-11.5001 130.02,-15 140.02,-18.5001 140.02,-11.5001"/>
</g>
<!-- Node25 -->
<g id="node3" class="node"><title>Node25</title>
<g id="a_node3"><a xlink:href="namespacecaiman_1_1source__extraction_1_1cnmf_1_1initialization.html#ad762ff1c4aefedc408fe609de7cb1ebc" target="_top" xlink:title="Initalize components. ">
<polygon fill="white" stroke="black" points="414,-0 414,-30 662,-30 662,-0 414,-0"/>
<text text-anchor="start" x="422" y="-18" font-family="Helvetica,sans-Serif" font-size="10.00">caiman.source_extraction.cnmf.initialization.initialize</text>
<text text-anchor="middle" x="538" y="-7" font-family="Helvetica,sans-Serif" font-size="10.00">_components</text>
</a>
</g>
</g>
<!-- Node24&#45;&gt;Node25 -->
<g id="edge2" class="edge"><title>Node24&#45;&gt;Node25</title>
<path fill="none" stroke="midnightblue" d="M388.109,-15C396.682,-15 405.352,-15 413.97,-15"/>
<polygon fill="midnightblue" stroke="midnightblue" points="388.098,-11.5001 378.098,-15 388.098,-18.5001 388.098,-11.5001"/>
</g>
</g>
</svg>
