<?xml version="1.0" encoding="UTF-8" standalone="no"?>
<!DOCTYPE svg PUBLIC "-//W3C//DTD SVG 1.1//EN"
 "http://www.w3.org/Graphics/SVG/1.1/DTD/svg11.dtd">
<!-- Generated by graphviz version 2.36.0 (20140111.2315)
 -->
<!-- Title: load_movie_chain Pages: 1 -->
<svg width="178pt" height="28pt"
 viewBox="0.00 0.00 178.00 28.00" xmlns="http://www.w3.org/2000/svg" xmlns:xlink="http://www.w3.org/1999/xlink">
<g id="graph0" class="graph" transform="scale(1 1) rotate(0) translate(4 24)">
<title>load_movie_chain</title>
<polygon fill="white" stroke="none" points="-4,4 -4,-24 174,-24 174,4 -4,4"/>
<!-- Node36 -->
<g id="node1" class="node"><title>Node36</title>
<polygon fill="#bfbfbf" stroke="black" points="0.5,-0.5 0.5,-19.5 97.5,-19.5 97.5,-0.5 0.5,-0.5"/>
<text text-anchor="middle" x="49" y="-7.5" font-family="Helvetica,sans-Serif" font-size="10.00">load_movie_chain</text>
</g>
<!-- Node37 -->
<g id="node2" class="node"><title>Node37</title>
<g id="a_node2"><a xlink:href="namespacecaiman_1_1base_1_1movies.html#a6d585c260307278135a0b4b09440b313" target="_top" xlink:title="load movie from file. ">
<polygon fill="white" stroke="black" points="134.5,-0.5 134.5,-19.5 169.5,-19.5 169.5,-0.5 134.5,-0.5"/>
<text text-anchor="middle" x="152" y="-7.5" font-family="Helvetica,sans-Serif" font-size="10.00">load</text>
</a>
</g>
</g>
<!-- Node36&#45;&gt;Node37 -->
<g id="edge1" class="edge"><title>Node36&#45;&gt;Node37</title>
<path fill="none" stroke="midnightblue" d="M107.666,-3.31076C117.314,-3.47539 126.606,-3.97455 134.095,-4.80824"/>
<polygon fill="midnightblue" stroke="midnightblue" points="107.56,0.189708 97.5425,-3.2603 107.525,-6.8102 107.56,0.189708"/>
</g>
<!-- Node37&#45;&gt;Node36 -->
<g id="edge2" class="edge"><title>Node37&#45;&gt;Node36</title>
<path fill="none" stroke="midnightblue" d="M124.06,-16.0494C115.886,-16.5731 106.65,-16.8032 97.5425,-16.7397"/>
<polygon fill="midnightblue" stroke="midnightblue" points="124.429,-19.5307 134.095,-15.1918 123.833,-12.5561 124.429,-19.5307"/>
</g>
</g>
</svg>
