<?xml version="1.0" encoding="UTF-8" standalone="no"?>
<!DOCTYPE svg PUBLIC "-//W3C//DTD SVG 1.1//EN"
 "http://www.w3.org/Graphics/SVG/1.1/DTD/svg11.dtd">
<!-- Generated by graphviz version 2.36.0 (20140111.2315)
 -->
<!-- Title: fft_psd_multithreading Pages: 1 -->
<svg width="380pt" height="77pt"
 viewBox="0.00 0.00 380.00 77.00" xmlns="http://www.w3.org/2000/svg" xmlns:xlink="http://www.w3.org/1999/xlink">
<g id="graph0" class="graph" transform="scale(1 1) rotate(0) translate(4 73)">
<title>fft_psd_multithreading</title>
<polygon fill="white" stroke="none" points="-4,4 -4,-73 376,-73 376,4 -4,4"/>
<!-- Node10 -->
<g id="node1" class="node"><title>Node10</title>
<polygon fill="#bfbfbf" stroke="black" points="0.5,-22.5 0.5,-41.5 115.5,-41.5 115.5,-22.5 0.5,-22.5"/>
<text text-anchor="middle" x="58" y="-29.5" font-family="Helvetica,sans-Serif" font-size="10.00">fft_psd_multithreading</text>
</g>
<!-- Node11 -->
<g id="node2" class="node"><title>Node11</title>
<g id="a_node2"><a xlink:href="namespacecaiman_1_1mmapping.html#aeb2ed62e4a9028089a2eec09d392707f" target="_top" xlink:title="Load a memory mapped file created by the function save_memmap. ">
<polygon fill="white" stroke="black" points="152,-39 152,-69 272,-69 272,-39 152,-39"/>
<text text-anchor="start" x="160" y="-57" font-family="Helvetica,sans-Serif" font-size="10.00">caiman.mmapping.load</text>
<text text-anchor="middle" x="212" y="-46" font-family="Helvetica,sans-Serif" font-size="10.00">_memmap</text>
</a>
</g>
</g>
<!-- Node10&#45;&gt;Node11 -->
<g id="edge1" class="edge"><title>Node10&#45;&gt;Node11</title>
<path fill="none" stroke="midnightblue" d="M115.599,-40.192C124.093,-41.4213 132.932,-42.7007 141.654,-43.9631"/>
<polygon fill="midnightblue" stroke="midnightblue" points="141.413,-47.4646 151.811,-45.4332 142.416,-40.5368 141.413,-47.4646"/>
</g>
<!-- Node12 -->
<g id="node3" class="node"><title>Node12</title>
<g id="a_node3"><a xlink:href="namespacecaiman_1_1source__extraction_1_1cnmf_1_1pre__processing.html#a4ac9105671d13333d3a5ac455d1cc0d5" target="_top" xlink:title="Estimate the noise level for each pixel by averaging the power spectral density. ">
<polygon fill="white" stroke="black" points="175,-0.5 175,-19.5 249,-19.5 249,-0.5 175,-0.5"/>
<text text-anchor="middle" x="212" y="-7.5" font-family="Helvetica,sans-Serif" font-size="10.00">get_noise_fft</text>
</a>
</g>
</g>
<!-- Node10&#45;&gt;Node12 -->
<g id="edge2" class="edge"><title>Node10&#45;&gt;Node12</title>
<path fill="none" stroke="midnightblue" d="M115.599,-23.808C131.647,-21.4853 148.931,-18.9836 164.321,-16.7562"/>
<polygon fill="midnightblue" stroke="midnightblue" points="165.239,-20.1599 174.634,-15.2634 164.236,-13.232 165.239,-20.1599"/>
</g>
<!-- Node13 -->
<g id="node4" class="node"><title>Node13</title>
<g id="a_node4"><a xlink:href="namespacecaiman_1_1source__extraction_1_1cnmf_1_1pre__processing.html#a0f1c3f32c6192896b14b1691f8f4ce2f" target="_top" xlink:title="Averaging the PSD. ">
<polygon fill="white" stroke="black" points="308.5,-0.5 308.5,-19.5 371.5,-19.5 371.5,-0.5 308.5,-0.5"/>
<text text-anchor="middle" x="340" y="-7.5" font-family="Helvetica,sans-Serif" font-size="10.00">mean_psd</text>
</a>
</g>
</g>
<!-- Node12&#45;&gt;Node13 -->
<g id="edge3" class="edge"><title>Node12&#45;&gt;Node13</title>
<path fill="none" stroke="midnightblue" d="M249.107,-10C264.497,-10 282.524,-10 298.378,-10"/>
<polygon fill="midnightblue" stroke="midnightblue" points="298.432,-13.5001 308.432,-10 298.432,-6.5001 298.432,-13.5001"/>
</g>
</g>
</svg>
