<?xml version="1.0" encoding="UTF-8" standalone="no"?>
<!DOCTYPE svg PUBLIC "-//W3C//DTD SVG 1.1//EN"
 "http://www.w3.org/Graphics/SVG/1.1/DTD/svg11.dtd">
<!-- Generated by graphviz version 2.36.0 (20140111.2315)
 -->
<!-- Title: tile_and_correct Pages: 1 -->
<svg width="388pt" height="210pt"
 viewBox="0.00 0.00 388.00 210.00" xmlns="http://www.w3.org/2000/svg" xmlns:xlink="http://www.w3.org/1999/xlink">
<g id="graph0" class="graph" transform="scale(1 1) rotate(0) translate(4 206)">
<title>tile_and_correct</title>
<polygon fill="white" stroke="none" points="-4,4 -4,-206 384,-206 384,4 -4,4"/>
<!-- Node107 -->
<g id="node1" class="node"><title>Node107</title>
<polygon fill="#bfbfbf" stroke="black" points="0,-68.5 0,-87.5 88,-87.5 88,-68.5 0,-68.5"/>
<text text-anchor="middle" x="44" y="-75.5" font-family="Helvetica,sans-Serif" font-size="10.00">tile_and_correct</text>
</g>
<!-- Node108 -->
<g id="node2" class="node"><title>Node108</title>
<g id="a_node2"><a xlink:href="namespacecaiman_1_1motion__correction.html#a0700d66a3a6b2556b1c712daf9c18a9b" target="_top" xlink:title="register_translation">
<polygon fill="white" stroke="black" points="129,-163.5 129,-182.5 231,-182.5 231,-163.5 129,-163.5"/>
<text text-anchor="middle" x="180" y="-170.5" font-family="Helvetica,sans-Serif" font-size="10.00">register_translation</text>
</a>
</g>
</g>
<!-- Node107&#45;&gt;Node108 -->
<g id="edge1" class="edge"><title>Node107&#45;&gt;Node108</title>
<path fill="none" stroke="midnightblue" d="M52.5084,-87.5376C65.4847,-103.431 93.647,-135.418 124,-154 127.345,-156.048 130.941,-157.912 134.635,-159.6"/>
<polygon fill="midnightblue" stroke="midnightblue" points="133.35,-162.857 143.929,-163.441 136.024,-156.387 133.35,-162.857"/>
</g>
<!-- Node111 -->
<g id="node5" class="node"><title>Node111</title>
<g id="a_node5"><a xlink:href="namespacecaiman_1_1motion__correction.html#a54e0e94e8c54dadcad8bc6688e46c590" target="_top" xlink:title="apply_shift_iteration">
<polygon fill="white" stroke="black" points="127.5,-125.5 127.5,-144.5 232.5,-144.5 232.5,-125.5 127.5,-125.5"/>
<text text-anchor="middle" x="180" y="-132.5" font-family="Helvetica,sans-Serif" font-size="10.00">apply_shift_iteration</text>
</a>
</g>
</g>
<!-- Node107&#45;&gt;Node111 -->
<g id="edge4" class="edge"><title>Node107&#45;&gt;Node111</title>
<path fill="none" stroke="midnightblue" d="M63.2428,-87.5193C79.0818,-95.6035 102.749,-107.253 124,-116 129.08,-118.091 134.483,-120.151 139.843,-122.098"/>
<polygon fill="midnightblue" stroke="midnightblue" points="138.77,-125.431 149.365,-125.465 141.104,-118.832 138.77,-125.431"/>
</g>
<!-- Node112 -->
<g id="node6" class="node"><title>Node112</title>
<g id="a_node6"><a xlink:href="namespacecaiman_1_1motion__correction.html#ad4fabc7e2b2082da438e99a60ca41d96" target="_top" xlink:title="apply_shifts_dft">
<polygon fill="white" stroke="black" points="137,-87.5 137,-106.5 223,-106.5 223,-87.5 137,-87.5"/>
<text text-anchor="middle" x="180" y="-94.5" font-family="Helvetica,sans-Serif" font-size="10.00">apply_shifts_dft</text>
</a>
</g>
</g>
<!-- Node107&#45;&gt;Node112 -->
<g id="edge5" class="edge"><title>Node107&#45;&gt;Node112</title>
<path fill="none" stroke="midnightblue" d="M88.136,-84.1163C100.452,-85.8625 114.004,-87.7842 126.799,-89.5984"/>
<polygon fill="midnightblue" stroke="midnightblue" points="126.468,-93.0863 136.86,-91.0249 127.451,-86.1557 126.468,-93.0863"/>
</g>
<!-- Node113 -->
<g id="node7" class="node"><title>Node113</title>
<g id="a_node7"><a xlink:href="namespacecaiman_1_1motion__correction.html#aef362667b31a29dfcc1a0c35c87f01ad" target="_top" xlink:title="efficiently and lazily slides a window across the image Parameters img:ndarray 2D image that needs to...">
<polygon fill="white" stroke="black" points="284,-27.5 284,-46.5 368,-46.5 368,-27.5 284,-27.5"/>
<text text-anchor="middle" x="326" y="-34.5" font-family="Helvetica,sans-Serif" font-size="10.00">sliding_window</text>
</a>
</g>
</g>
<!-- Node107&#45;&gt;Node113 -->
<g id="edge6" class="edge"><title>Node107&#45;&gt;Node113</title>
<path fill="none" stroke="midnightblue" d="M88.1364,-71.6836C138.144,-64.361 220.493,-52.3028 273.728,-44.5077"/>
<polygon fill="midnightblue" stroke="midnightblue" points="274.254,-47.9681 283.642,-43.0561 273.24,-41.0419 274.254,-47.9681"/>
</g>
<!-- Node114 -->
<g id="node8" class="node"><title>Node114</title>
<g id="a_node8"><a xlink:href="namespacecaiman_1_1motion__correction.html#a88ef513cfa324fc8548e4fb46d7a67e5" target="_top" xlink:title="create a matrix that is used to normalize the intersection of the stiched patches ...">
<polygon fill="white" stroke="black" points="124,-0 124,-30 236,-30 236,-0 124,-0"/>
<text text-anchor="start" x="132" y="-18" font-family="Helvetica,sans-Serif" font-size="10.00">create_weight_matrix</text>
<text text-anchor="middle" x="180" y="-7" font-family="Helvetica,sans-Serif" font-size="10.00">_for_blending</text>
</a>
</g>
</g>
<!-- Node107&#45;&gt;Node114 -->
<g id="edge7" class="edge"><title>Node107&#45;&gt;Node114</title>
<path fill="none" stroke="midnightblue" d="M56.8916,-68.3622C71.9995,-59.1173 99.102,-45.5061 123.942,-34.2319"/>
<polygon fill="midnightblue" stroke="midnightblue" points="125.62,-37.3155 133.321,-30.0394 122.763,-30.9249 125.62,-37.3155"/>
</g>
<!-- Node109 -->
<g id="node3" class="node"><title>Node109</title>
<g id="a_node3"><a xlink:href="namespacecaiman_1_1motion__correction.html#aa339d12f180017a763175f450816f158" target="_top" xlink:title="_upsampled_dft">
<polygon fill="white" stroke="black" points="282,-182.5 282,-201.5 370,-201.5 370,-182.5 282,-182.5"/>
<text text-anchor="middle" x="326" y="-189.5" font-family="Helvetica,sans-Serif" font-size="10.00">_upsampled_dft</text>
</a>
</g>
</g>
<!-- Node108&#45;&gt;Node109 -->
<g id="edge2" class="edge"><title>Node108&#45;&gt;Node109</title>
<path fill="none" stroke="midnightblue" d="M231.364,-179.645C244.291,-181.351 258.245,-183.192 271.332,-184.919"/>
<polygon fill="midnightblue" stroke="midnightblue" points="271.234,-188.436 281.606,-186.274 272.15,-181.496 271.234,-188.436"/>
</g>
<!-- Node110 -->
<g id="node4" class="node"><title>Node110</title>
<g id="a_node4"><a xlink:href="namespacecaiman_1_1motion__correction.html#a09859fe5f2beba321b5397662b26651b" target="_top" xlink:title="_compute_phasediff">
<polygon fill="white" stroke="black" points="272.5,-144.5 272.5,-163.5 379.5,-163.5 379.5,-144.5 272.5,-144.5"/>
<text text-anchor="middle" x="326" y="-151.5" font-family="Helvetica,sans-Serif" font-size="10.00">_compute_phasediff</text>
</a>
</g>
</g>
<!-- Node108&#45;&gt;Node110 -->
<g id="edge3" class="edge"><title>Node108&#45;&gt;Node110</title>
<path fill="none" stroke="midnightblue" d="M231.364,-166.355C241.34,-165.038 251.927,-163.642 262.255,-162.279"/>
<polygon fill="midnightblue" stroke="midnightblue" points="263.009,-165.71 272.465,-160.932 262.093,-158.77 263.009,-165.71"/>
</g>
<!-- Node114&#45;&gt;Node107 -->
<g id="edge9" class="edge"><title>Node114&#45;&gt;Node107</title>
<path fill="none" stroke="midnightblue" d="M157.835,-30.0332C138.936,-40.5946 110.69,-54.2869 87.1874,-64.4861"/>
<polygon fill="midnightblue" stroke="midnightblue" points="85.6136,-61.352 77.7801,-68.4855 88.3523,-67.794 85.6136,-61.352"/>
</g>
<!-- Node114&#45;&gt;Node113 -->
<g id="edge8" class="edge"><title>Node114&#45;&gt;Node113</title>
<path fill="none" stroke="midnightblue" d="M236.262,-23.4429C248.655,-25.3362 261.748,-27.3365 273.96,-29.2023"/>
<polygon fill="midnightblue" stroke="midnightblue" points="273.562,-32.682 283.976,-30.7325 274.62,-25.7623 273.562,-32.682"/>
</g>
</g>
</svg>
