<?xml version="1.0" encoding="UTF-8" standalone="no"?>
<!DOCTYPE svg PUBLIC "-//W3C//DTD SVG 1.1//EN"
 "http://www.w3.org/Graphics/SVG/1.1/DTD/svg11.dtd">
<!-- Generated by graphviz version 2.36.0 (20140111.2315)
 -->
<!-- Title: motion_correct_online Pages: 1 -->
<svg width="330pt" height="87pt"
 viewBox="0.00 0.00 330.00 87.00" xmlns="http://www.w3.org/2000/svg" xmlns:xlink="http://www.w3.org/1999/xlink">
<g id="graph0" class="graph" transform="scale(1 1) rotate(0) translate(4 83)">
<title>motion_correct_online</title>
<polygon fill="white" stroke="none" points="-4,4 -4,-83 326,-83 326,4 -4,4"/>
<!-- Node76 -->
<g id="node1" class="node"><title>Node76</title>
<polygon fill="#bfbfbf" stroke="black" points="0.5,-29.5 0.5,-48.5 115.5,-48.5 115.5,-29.5 0.5,-29.5"/>
<text text-anchor="middle" x="58" y="-36.5" font-family="Helvetica,sans-Serif" font-size="10.00">motion_correct_online</text>
</g>
<!-- Node77 -->
<g id="node2" class="node"><title>Node77</title>
<g id="a_node2"><a xlink:href="namespacecaiman_1_1motion__correction.html#aef9c5f795aeb47c5b86066492953fc4f" target="_top" xlink:title="motion_correct_online\l_multifile">
<polygon fill="white" stroke="black" points="179.5,-49 179.5,-79 294.5,-79 294.5,-49 179.5,-49"/>
<text text-anchor="start" x="187.5" y="-67" font-family="Helvetica,sans-Serif" font-size="10.00">motion_correct_online</text>
<text text-anchor="middle" x="237" y="-56" font-family="Helvetica,sans-Serif" font-size="10.00">_multifile</text>
</a>
</g>
</g>
<!-- Node76&#45;&gt;Node77 -->
<g id="edge1" class="edge"><title>Node76&#45;&gt;Node77</title>
<path fill="none" stroke="midnightblue" d="M126.159,-48.4858C143.723,-50.9666 162.48,-53.6158 179.431,-56.0101"/>
<polygon fill="midnightblue" stroke="midnightblue" points="126.369,-44.9808 115.978,-47.0478 125.39,-51.912 126.369,-44.9808"/>
</g>
<!-- Node78 -->
<g id="node3" class="node"><title>Node78</title>
<g id="a_node3"><a xlink:href="classcaiman_1_1base_1_1movies_1_1movie.html#a9ea3b23aad7b04c484259dc0f2117aed" target="_top" xlink:title="caiman.base.movies.movie.motion\l_correction_online">
<polygon fill="white" stroke="black" points="152,-0 152,-30 322,-30 322,-0 152,-0"/>
<text text-anchor="start" x="160" y="-18" font-family="Helvetica,sans-Serif" font-size="10.00">caiman.base.movies.movie.motion</text>
<text text-anchor="middle" x="237" y="-7" font-family="Helvetica,sans-Serif" font-size="10.00">_correction_online</text>
</a>
</g>
</g>
<!-- Node76&#45;&gt;Node78 -->
<g id="edge2" class="edge"><title>Node76&#45;&gt;Node78</title>
<path fill="none" stroke="midnightblue" d="M126.061,-29.907C134.457,-28.7686 143.126,-27.593 151.742,-26.4248"/>
<polygon fill="midnightblue" stroke="midnightblue" points="125.417,-26.4622 115.978,-31.2741 126.358,-33.3987 125.417,-26.4622"/>
</g>
</g>
</svg>
