<?xml version="1.0" encoding="UTF-8" standalone="no"?>
<!DOCTYPE svg PUBLIC "-//W3C//DTD SVG 1.1//EN"
 "http://www.w3.org/Graphics/SVG/1.1/DTD/svg11.dtd">
<!-- Generated by graphviz version 2.36.0 (20140111.2315)
 -->
<!-- Title: load_memmap Pages: 1 -->
<svg width="1214pt" height="384pt"
 viewBox="0.00 0.00 1214.00 384.47" xmlns="http://www.w3.org/2000/svg" xmlns:xlink="http://www.w3.org/1999/xlink">
<g id="graph0" class="graph" transform="scale(1 1) rotate(0) translate(4 380.469)">
<title>load_memmap</title>
<polygon fill="white" stroke="none" points="-4,4 -4,-380.469 1210,-380.469 1210,4 -4,4"/>
<!-- Node10 -->
<g id="node1" class="node"><title>Node10</title>
<polygon fill="#bfbfbf" stroke="black" points="0.5,-182.969 0.5,-201.969 83.5,-201.969 83.5,-182.969 0.5,-182.969"/>
<text text-anchor="middle" x="42" y="-189.969" font-family="Helvetica,sans-Serif" font-size="10.00">load_memmap</text>
</g>
<!-- Node11 -->
<g id="node2" class="node"><title>Node11</title>
<g id="a_node2"><a xlink:href="namespacecaiman_1_1cluster.html#a0791f5c2482e1707e24578a03446a69d" target="_top" xlink:title="caiman.cluster.function\l_place_holder">
<polygon fill="white" stroke="black" points="178.5,-346.469 178.5,-376.469 297.5,-376.469 297.5,-346.469 178.5,-346.469"/>
<text text-anchor="start" x="186.5" y="-364.469" font-family="Helvetica,sans-Serif" font-size="10.00">caiman.cluster.function</text>
<text text-anchor="middle" x="238" y="-353.469" font-family="Helvetica,sans-Serif" font-size="10.00">_place_holder</text>
</a>
</g>
</g>
<!-- Node10&#45;&gt;Node11 -->
<g id="edge1" class="edge"><title>Node10&#45;&gt;Node11</title>
<path fill="none" stroke="midnightblue" d="M47.6638,-211.737C56.2965,-243.071 77.8532,-304.751 120,-336.469 136.679,-349.021 158.295,-355.571 178.4,-358.896"/>
<polygon fill="midnightblue" stroke="midnightblue" points="51.0406,-210.816 45.1367,-202.018 44.2659,-212.577 51.0406,-210.816"/>
</g>
<!-- Node12 -->
<g id="node3" class="node"><title>Node12</title>
<g id="a_node3"><a xlink:href="namespacecaiman_1_1source__extraction_1_1cnmf_1_1map__reduce.html#af6abfd3565abe5dcb4298e6c55cac9d1" target="_top" xlink:title="Function that is run for each patches. ">
<polygon fill="white" stroke="black" points="149.5,-297.469 149.5,-327.469 326.5,-327.469 326.5,-297.469 149.5,-297.469"/>
<text text-anchor="start" x="157.5" y="-315.469" font-family="Helvetica,sans-Serif" font-size="10.00">caiman.source_extraction.cnmf.map</text>
<text text-anchor="middle" x="238" y="-304.469" font-family="Helvetica,sans-Serif" font-size="10.00">_reduce.cnmf_patches</text>
</a>
</g>
</g>
<!-- Node10&#45;&gt;Node12 -->
<g id="edge2" class="edge"><title>Node10&#45;&gt;Node12</title>
<path fill="none" stroke="midnightblue" d="M52.8212,-211.053C65.3817,-232.912 89.2384,-268.605 120,-287.469 129.03,-293.007 139.106,-297.33 149.453,-300.703"/>
<polygon fill="midnightblue" stroke="midnightblue" points="55.7664,-209.147 47.8608,-202.093 49.6423,-212.537 55.7664,-209.147"/>
</g>
<!-- Node13 -->
<g id="node4" class="node"><title>Node13</title>
<g id="a_node4"><a xlink:href="namespacecaiman_1_1mmapping.html#a0501b5275136a4c678312e5b2902deb2" target="_top" xlink:title="From small memory mappable files creates a large one. ">
<polygon fill="white" stroke="black" points="185,-258.969 185,-277.969 291,-277.969 291,-258.969 185,-258.969"/>
<text text-anchor="middle" x="238" y="-265.969" font-family="Helvetica,sans-Serif" font-size="10.00">save_memmap_join</text>
</a>
</g>
</g>
<!-- Node10&#45;&gt;Node13 -->
<g id="edge3" class="edge"><title>Node10&#45;&gt;Node13</title>
<path fill="none" stroke="midnightblue" d="M60.701,-209.469C75.3896,-222.554 97.453,-239.96 120,-249.469 140.289,-258.025 164.057,-262.749 184.852,-265.348"/>
<polygon fill="midnightblue" stroke="midnightblue" points="62.6895,-206.543 52.9569,-202.356 57.9544,-211.699 62.6895,-206.543"/>
</g>
<!-- Node14 -->
<g id="node5" class="node"><title>Node14</title>
<g id="a_node5"><a xlink:href="namespacecaiman_1_1mmapping.html#a68a1fd663ff256d832c0355f4f851124" target="_top" xlink:title="save_portion">
<polygon fill="white" stroke="black" points="201,-220.969 201,-239.969 275,-239.969 275,-220.969 201,-220.969"/>
<text text-anchor="middle" x="238" y="-227.969" font-family="Helvetica,sans-Serif" font-size="10.00">save_portion</text>
</a>
</g>
</g>
<!-- Node10&#45;&gt;Node14 -->
<g id="edge4" class="edge"><title>Node10&#45;&gt;Node14</title>
<path fill="none" stroke="midnightblue" d="M89.1784,-204.508C99.2996,-206.966 109.983,-209.423 120,-211.469 146.917,-216.966 177.578,-221.897 200.758,-225.357"/>
<polygon fill="midnightblue" stroke="midnightblue" points="89.838,-201.065 79.2904,-202.064 88.1589,-207.861 89.838,-201.065"/>
</g>
<!-- Node15 -->
<g id="node6" class="node"><title>Node15</title>
<g id="a_node6"><a xlink:href="namespacecaiman_1_1mmapping.html#a14d47c076020d7d3adf2599ed3354e4b" target="_top" xlink:title="dot_place_holder">
<polygon fill="white" stroke="black" points="191.5,-182.969 191.5,-201.969 284.5,-201.969 284.5,-182.969 191.5,-182.969"/>
<text text-anchor="middle" x="238" y="-189.969" font-family="Helvetica,sans-Serif" font-size="10.00">dot_place_holder</text>
</a>
</g>
</g>
<!-- Node10&#45;&gt;Node15 -->
<g id="edge5" class="edge"><title>Node10&#45;&gt;Node15</title>
<path fill="none" stroke="midnightblue" d="M93.994,-192.469C124.173,-192.469 162.084,-192.469 191.289,-192.469"/>
<polygon fill="midnightblue" stroke="midnightblue" points="93.6688,-188.969 83.6688,-192.469 93.6687,-195.969 93.6688,-188.969"/>
</g>
<!-- Node22 -->
<g id="node13" class="node"><title>Node22</title>
<g id="a_node13"><a xlink:href="namespacecaiman_1_1base_1_1movies.html#a6d585c260307278135a0b4b09440b313" target="_top" xlink:title="load movie from file. ">
<polygon fill="white" stroke="black" points="173.5,-144.969 173.5,-163.969 302.5,-163.969 302.5,-144.969 173.5,-144.969"/>
<text text-anchor="middle" x="238" y="-151.969" font-family="Helvetica,sans-Serif" font-size="10.00">caiman.base.movies.load</text>
</a>
</g>
</g>
<!-- Node10&#45;&gt;Node22 -->
<g id="edge13" class="edge"><title>Node10&#45;&gt;Node22</title>
<path fill="none" stroke="midnightblue" d="M89.1784,-180.43C99.2996,-177.972 109.983,-175.514 120,-173.469 137.239,-169.948 156.014,-166.66 173.375,-163.841"/>
<polygon fill="midnightblue" stroke="midnightblue" points="88.1589,-177.077 79.2904,-182.873 89.838,-183.872 88.1589,-177.077"/>
</g>
<!-- Node24 -->
<g id="node15" class="node"><title>Node24</title>
<g id="a_node15"><a xlink:href="namespacecaiman_1_1source__extraction_1_1cnmf_1_1pre__processing.html#a2442af4ba144dd56a99ff21e770306ce" target="_top" xlink:title="helper function to parallelize get_noise_fft ">
<polygon fill="white" stroke="black" points="152,-95.4688 152,-125.469 324,-125.469 324,-95.4688 152,-95.4688"/>
<text text-anchor="start" x="160" y="-113.469" font-family="Helvetica,sans-Serif" font-size="10.00">caiman.source_extraction.cnmf.pre</text>
<text text-anchor="middle" x="238" y="-102.469" font-family="Helvetica,sans-Serif" font-size="10.00">_processing.fft_psd_multithreading</text>
</a>
</g>
</g>
<!-- Node10&#45;&gt;Node24 -->
<g id="edge16" class="edge"><title>Node10&#45;&gt;Node24</title>
<path fill="none" stroke="midnightblue" d="M60.8325,-175.77C75.5958,-162.856 97.6953,-145.533 120,-135.469 130.034,-130.941 140.929,-127.216 151.897,-124.157"/>
<polygon fill="midnightblue" stroke="midnightblue" points="58.1372,-173.487 53.0418,-182.776 62.8178,-178.692 58.1372,-173.487"/>
</g>
<!-- Node25 -->
<g id="node16" class="node"><title>Node25</title>
<g id="a_node16"><a xlink:href="namespacecaiman_1_1source__extraction_1_1cnmf_1_1spatial.html#af3e32db8a5aeabf7269b756732a5e5a1" target="_top" xlink:title="update spatial footprints and background through Basis Pursuit Denoising ">
<polygon fill="white" stroke="black" points="120,-46.4688 120,-76.4688 356,-76.4688 356,-46.4688 120,-46.4688"/>
<text text-anchor="start" x="128" y="-64.4688" font-family="Helvetica,sans-Serif" font-size="10.00">caiman.source_extraction.cnmf.spatial.regression</text>
<text text-anchor="middle" x="238" y="-53.4688" font-family="Helvetica,sans-Serif" font-size="10.00">_ipyparallel</text>
</a>
</g>
</g>
<!-- Node10&#45;&gt;Node25 -->
<g id="edge17" class="edge"><title>Node10&#45;&gt;Node25</title>
<path fill="none" stroke="midnightblue" d="M51.1512,-173.65C62.7441,-149.246 86.3822,-107.239 120,-85.4688 125.308,-82.0312 131.013,-79.072 136.943,-76.5261"/>
<polygon fill="midnightblue" stroke="midnightblue" points="47.8885,-172.369 46.9263,-182.92 54.2582,-175.272 47.8885,-172.369"/>
</g>
<!-- Node26 -->
<g id="node17" class="node"><title>Node26</title>
<g id="a_node17"><a xlink:href="namespacecaiman_1_1source__extraction_1_1cnmf_1_1spatial.html#a894e2773dd1e79c2efac3c759ff2fe9c" target="_top" xlink:title="memmap the C and Y objects in parallel ">
<polygon fill="white" stroke="black" points="392.5,-52.9688 392.5,-71.9688 651.5,-71.9688 651.5,-52.9688 392.5,-52.9688"/>
<text text-anchor="middle" x="522" y="-59.9688" font-family="Helvetica,sans-Serif" font-size="10.00">caiman.source_extraction.cnmf.spatial.creatememmap</text>
</a>
</g>
</g>
<!-- Node10&#45;&gt;Node26 -->
<g id="edge18" class="edge"><title>Node10&#45;&gt;Node26</title>
<path fill="none" stroke="midnightblue" d="M46.0407,-172.513C52.5402,-137.699 71.373,-66.695 120,-36.4688 244.722,41.0576 435.459,-26.4897 499.32,-52.9497"/>
<polygon fill="midnightblue" stroke="midnightblue" points="42.5138,-172.375 44.2841,-182.821 49.4143,-173.551 42.5138,-172.375"/>
</g>
<!-- Node16 -->
<g id="node7" class="node"><title>Node16</title>
<g id="a_node7"><a xlink:href="namespacecaiman_1_1mmapping.html#aa75ec735ea507b2ce7eb0e0bd33d2ba3" target="_top" xlink:title="Chunk matrix product between matrix and column vectors A memory mapped ndarray pixels x time b time x...">
<polygon fill="white" stroke="black" points="468.5,-185.969 468.5,-204.969 575.5,-204.969 575.5,-185.969 468.5,-185.969"/>
<text text-anchor="middle" x="522" y="-192.969" font-family="Helvetica,sans-Serif" font-size="10.00">parallel_dot_product</text>
</a>
</g>
</g>
<!-- Node15&#45;&gt;Node16 -->
<g id="edge6" class="edge"><title>Node15&#45;&gt;Node16</title>
<path fill="none" stroke="midnightblue" d="M294.69,-193.061C345.085,-193.597 418.776,-194.381 468.241,-194.908"/>
<polygon fill="midnightblue" stroke="midnightblue" points="294.658,-189.561 284.622,-192.954 294.584,-196.56 294.658,-189.561"/>
</g>
<!-- Node17 -->
<g id="node8" class="node"><title>Node17</title>
<g id="a_node8"><a xlink:href="namespacecaiman_1_1source__extraction_1_1cnmf_1_1spatial.html#ac4b406f52054893ed2518a761921d4f4" target="_top" xlink:title="update spatial footprints and background through Basis Pursuit Denoising ">
<polygon fill="white" stroke="black" points="704,-109.469 704,-139.469 924,-139.469 924,-109.469 704,-109.469"/>
<text text-anchor="start" x="712" y="-127.469" font-family="Helvetica,sans-Serif" font-size="10.00">caiman.source_extraction.cnmf.spatial.update</text>
<text text-anchor="middle" x="814" y="-116.469" font-family="Helvetica,sans-Serif" font-size="10.00">_spatial_components</text>
</a>
</g>
</g>
<!-- Node16&#45;&gt;Node17 -->
<g id="edge7" class="edge"><title>Node16&#45;&gt;Node17</title>
<path fill="none" stroke="midnightblue" d="M585.815,-191.943C607.421,-189.127 631.355,-184.165 652,-175.469 670.432,-167.705 669.711,-156.562 688,-148.469 695.78,-145.026 704.047,-142.076 712.479,-139.549"/>
<polygon fill="midnightblue" stroke="midnightblue" points="585.271,-188.482 575.747,-193.125 586.087,-195.435 585.271,-188.482"/>
</g>
<!-- Node19 -->
<g id="node10" class="node"><title>Node19</title>
<g id="a_node10"><a xlink:href="namespacecaiman_1_1source__extraction_1_1cnmf_1_1temporal.html#ae56ee735c5b8f6fdaca8baaee1371d58" target="_top" xlink:title="Update temporal components and background given spatial components using a block coordinate descent a...">
<polygon fill="white" stroke="black" points="699,-158.469 699,-188.469 929,-188.469 929,-158.469 699,-158.469"/>
<text text-anchor="start" x="707" y="-176.469" font-family="Helvetica,sans-Serif" font-size="10.00">caiman.source_extraction.cnmf.temporal.update</text>
<text text-anchor="middle" x="814" y="-165.469" font-family="Helvetica,sans-Serif" font-size="10.00">_temporal_components</text>
</a>
</g>
</g>
<!-- Node16&#45;&gt;Node19 -->
<g id="edge9" class="edge"><title>Node16&#45;&gt;Node19</title>
<path fill="none" stroke="midnightblue" d="M585.505,-190.727C618.621,-188.215 660.341,-185.05 698.981,-182.119"/>
<polygon fill="midnightblue" stroke="midnightblue" points="585.223,-187.238 575.517,-191.485 585.753,-194.218 585.223,-187.238"/>
</g>
<!-- Node20 -->
<g id="node11" class="node"><title>Node20</title>
<g id="a_node11"><a xlink:href="namespacecaiman_1_1source__extraction_1_1cnmf_1_1utilities.html#a280d064e1a9888eca4b375647d031491" target="_top" xlink:title="Compute DFF function from cnmf output. ">
<polygon fill="white" stroke="black" points="688,-207.969 688,-226.969 940,-226.969 940,-207.969 688,-207.969"/>
<text text-anchor="middle" x="814" y="-214.969" font-family="Helvetica,sans-Serif" font-size="10.00">caiman.source_extraction.cnmf.utilities.extract_DF_F</text>
</a>
</g>
</g>
<!-- Node16&#45;&gt;Node20 -->
<g id="edge11" class="edge"><title>Node16&#45;&gt;Node20</title>
<path fill="none" stroke="midnightblue" d="M585.804,-200.233C615.75,-202.505 652.68,-205.307 687.997,-207.986"/>
<polygon fill="midnightblue" stroke="midnightblue" points="585.753,-196.719 575.517,-199.453 585.223,-203.699 585.753,-196.719"/>
</g>
<!-- Node18 -->
<g id="node9" class="node"><title>Node18</title>
<g id="a_node9"><a xlink:href="namespacecaiman_1_1source__extraction_1_1cnmf_1_1merging.html#ad08adf2e086a22ef379b10ed3ee36936" target="_top" xlink:title="Merging of spatially overlapping components that have highly correlated temporal activity The correla...">
<polygon fill="white" stroke="black" points="978.5,-131.469 978.5,-161.469 1203.5,-161.469 1203.5,-131.469 978.5,-131.469"/>
<text text-anchor="start" x="986.5" y="-149.469" font-family="Helvetica,sans-Serif" font-size="10.00">caiman.source_extraction.cnmf.merging.merge</text>
<text text-anchor="middle" x="1091" y="-138.469" font-family="Helvetica,sans-Serif" font-size="10.00">_components</text>
</a>
</g>
</g>
<!-- Node17&#45;&gt;Node18 -->
<g id="edge8" class="edge"><title>Node17&#45;&gt;Node18</title>
<path fill="none" stroke="midnightblue" d="M934.182,-134.003C948.848,-135.177 963.797,-136.373 978.346,-137.537"/>
<polygon fill="midnightblue" stroke="midnightblue" points="934.33,-130.504 924.082,-133.195 933.771,-137.482 934.33,-130.504"/>
</g>
<!-- Node19&#45;&gt;Node18 -->
<g id="edge10" class="edge"><title>Node19&#45;&gt;Node18</title>
<path fill="none" stroke="midnightblue" d="M939.559,-161.239C952.483,-159.971 965.56,-158.687 978.33,-157.433"/>
<polygon fill="midnightblue" stroke="midnightblue" points="938.846,-157.793 929.236,-162.253 939.53,-164.759 938.846,-157.793"/>
</g>
<!-- Node21 -->
<g id="node12" class="node"><title>Node21</title>
<g id="a_node12"><a xlink:href="namespacecaiman_1_1source__extraction_1_1cnmf_1_1utilities.html#aea3aa78c7c153170012079014e1f4895" target="_top" xlink:title="caiman.source_extraction.cnmf.utilities.compute\lDFF_traces">
<polygon fill="white" stroke="black" points="976.5,-202.469 976.5,-232.469 1205.5,-232.469 1205.5,-202.469 976.5,-202.469"/>
<text text-anchor="start" x="984.5" y="-220.469" font-family="Helvetica,sans-Serif" font-size="10.00">caiman.source_extraction.cnmf.utilities.compute</text>
<text text-anchor="middle" x="1091" y="-209.469" font-family="Helvetica,sans-Serif" font-size="10.00">DFF_traces</text>
</a>
</g>
</g>
<!-- Node20&#45;&gt;Node21 -->
<g id="edge12" class="edge"><title>Node20&#45;&gt;Node21</title>
<path fill="none" stroke="midnightblue" d="M950.226,-217.469C958.925,-217.469 967.636,-217.469 976.22,-217.469"/>
<polygon fill="midnightblue" stroke="midnightblue" points="950.028,-213.969 940.027,-217.469 950.027,-220.969 950.028,-213.969"/>
</g>
<!-- Node23 -->
<g id="node14" class="node"><title>Node23</title>
<g id="a_node14"><a xlink:href="namespacecaiman_1_1base_1_1movies.html#a5a35758b31edb4a9b2105a058a0882a6" target="_top" xlink:title="load movies from list of file names ">
<polygon fill="white" stroke="black" points="457.5,-136.469 457.5,-166.469 586.5,-166.469 586.5,-136.469 457.5,-136.469"/>
<text text-anchor="start" x="465.5" y="-154.469" font-family="Helvetica,sans-Serif" font-size="10.00">caiman.base.movies.load</text>
<text text-anchor="middle" x="522" y="-143.469" font-family="Helvetica,sans-Serif" font-size="10.00">_movie_chain</text>
</a>
</g>
</g>
<!-- Node22&#45;&gt;Node23 -->
<g id="edge14" class="edge"><title>Node22&#45;&gt;Node23</title>
<path fill="none" stroke="midnightblue" d="M312.879,-147.665C357.671,-146.132 414.25,-145.617 457.106,-146.39"/>
<polygon fill="midnightblue" stroke="midnightblue" points="312.503,-144.176 302.638,-148.041 312.76,-151.171 312.503,-144.176"/>
</g>
<!-- Node23&#45;&gt;Node22 -->
<g id="edge15" class="edge"><title>Node23&#45;&gt;Node22</title>
<path fill="none" stroke="midnightblue" d="M446.854,-158.282C402.015,-159.81 345.439,-160.321 302.638,-159.543"/>
<polygon fill="midnightblue" stroke="midnightblue" points="447.241,-161.77 457.106,-157.907 446.985,-154.775 447.241,-161.77"/>
</g>
<!-- Node26&#45;&gt;Node17 -->
<g id="edge19" class="edge"><title>Node26&#45;&gt;Node17</title>
<path fill="none" stroke="midnightblue" d="M577.606,-74.1432C624.306,-84.1274 691.817,-98.5608 742.576,-109.413"/>
<polygon fill="midnightblue" stroke="midnightblue" points="578.188,-70.6886 567.677,-72.0205 576.724,-77.5339 578.188,-70.6886"/>
</g>
</g>
</svg>
