<?xml version="1.0" encoding="UTF-8" standalone="no"?>
<!DOCTYPE svg PUBLIC "-//W3C//DTD SVG 1.1//EN"
 "http://www.w3.org/Graphics/SVG/1.1/DTD/svg11.dtd">
<!-- Generated by graphviz version 2.36.0 (20140111.2315)
 -->
<!-- Title: apply_shifts_dft Pages: 1 -->
<svg width="384pt" height="77pt"
 viewBox="0.00 0.00 384.00 77.00" xmlns="http://www.w3.org/2000/svg" xmlns:xlink="http://www.w3.org/1999/xlink">
<g id="graph0" class="graph" transform="scale(1 1) rotate(0) translate(4 73)">
<title>apply_shifts_dft</title>
<polygon fill="white" stroke="none" points="-4,4 -4,-73 380,-73 380,4 -4,4"/>
<!-- Node32 -->
<g id="node1" class="node"><title>Node32</title>
<polygon fill="#bfbfbf" stroke="black" points="0,-44.5 0,-63.5 86,-63.5 86,-44.5 0,-44.5"/>
<text text-anchor="middle" x="43" y="-51.5" font-family="Helvetica,sans-Serif" font-size="10.00">apply_shifts_dft</text>
</g>
<!-- Node33 -->
<g id="node2" class="node"><title>Node33</title>
<g id="a_node2"><a xlink:href="namespacecaiman_1_1motion__correction.html#aea060208c09f0e4fb01e6d31b9acf36f" target="_top" xlink:title="perform piecewise rigid motion correction iteration, by 1) dividing the FOV in patches 2) motion corr...">
<polygon fill="white" stroke="black" points="122,-44.5 122,-63.5 210,-63.5 210,-44.5 122,-44.5"/>
<text text-anchor="middle" x="166" y="-51.5" font-family="Helvetica,sans-Serif" font-size="10.00">tile_and_correct</text>
</a>
</g>
</g>
<!-- Node32&#45;&gt;Node33 -->
<g id="edge1" class="edge"><title>Node32&#45;&gt;Node33</title>
<path fill="none" stroke="midnightblue" d="M96.4437,-54C104.866,-54 113.501,-54 121.679,-54"/>
<polygon fill="midnightblue" stroke="midnightblue" points="96.32,-50.5001 86.3199,-54 96.3199,-57.5001 96.32,-50.5001"/>
</g>
<!-- Node34 -->
<g id="node3" class="node"><title>Node34</title>
<g id="a_node3"><a xlink:href="namespacecaiman_1_1motion__correction.html#a88ef513cfa324fc8548e4fb46d7a67e5" target="_top" xlink:title="create a matrix that is used to normalize the intersection of the stiched patches ...">
<polygon fill="white" stroke="black" points="255,-39 255,-69 367,-69 367,-39 255,-39"/>
<text text-anchor="start" x="263" y="-57" font-family="Helvetica,sans-Serif" font-size="10.00">create_weight_matrix</text>
<text text-anchor="middle" x="311" y="-46" font-family="Helvetica,sans-Serif" font-size="10.00">_for_blending</text>
</a>
</g>
</g>
<!-- Node33&#45;&gt;Node34 -->
<g id="edge2" class="edge"><title>Node33&#45;&gt;Node34</title>
<path fill="none" stroke="midnightblue" d="M220.427,-47.4454C231.696,-47.1969 243.607,-47.1854 254.935,-47.4111"/>
<polygon fill="midnightblue" stroke="midnightblue" points="220.187,-43.9508 210.293,-47.7404 220.39,-50.9479 220.187,-43.9508"/>
</g>
<!-- Node35 -->
<g id="node4" class="node"><title>Node35</title>
<g id="a_node4"><a xlink:href="namespacecaiman_1_1motion__correction.html#a9c4d6e518f42c395cb58a08d2ff21f45" target="_top" xlink:title="tile_and_correct_wrapper">
<polygon fill="white" stroke="black" points="246.5,-0.5 246.5,-19.5 375.5,-19.5 375.5,-0.5 246.5,-0.5"/>
<text text-anchor="middle" x="311" y="-7.5" font-family="Helvetica,sans-Serif" font-size="10.00">tile_and_correct_wrapper</text>
</a>
</g>
</g>
<!-- Node33&#45;&gt;Node35 -->
<g id="edge4" class="edge"><title>Node33&#45;&gt;Node35</title>
<path fill="none" stroke="midnightblue" d="M207.717,-41.4715C230.384,-34.4973 258.151,-25.9535 279.032,-19.5287"/>
<polygon fill="midnightblue" stroke="midnightblue" points="206.557,-38.1665 198.029,-44.4527 208.616,-44.857 206.557,-38.1665"/>
</g>
<!-- Node34&#45;&gt;Node33 -->
<g id="edge3" class="edge"><title>Node34&#45;&gt;Node33</title>
<path fill="none" stroke="midnightblue" d="M244.757,-60.727C233.073,-60.8132 221.165,-60.6574 210.293,-60.2596"/>
<polygon fill="midnightblue" stroke="midnightblue" points="244.984,-64.2243 254.935,-60.5889 244.889,-57.225 244.984,-64.2243"/>
</g>
</g>
</svg>
