<?xml version="1.0" encoding="UTF-8" standalone="no"?>
<!DOCTYPE svg PUBLIC "-//W3C//DTD SVG 1.1//EN"
 "http://www.w3.org/Graphics/SVG/1.1/DTD/svg11.dtd">
<!-- Generated by graphviz version 2.36.0 (20140111.2315)
 -->
<!-- Title: get_contours Pages: 1 -->
<svg width="414pt" height="38pt"
 viewBox="0.00 0.00 414.00 38.00" xmlns="http://www.w3.org/2000/svg" xmlns:xlink="http://www.w3.org/1999/xlink">
<g id="graph0" class="graph" transform="scale(1 1) rotate(0) translate(4 34)">
<title>get_contours</title>
<polygon fill="white" stroke="none" points="-4,4 -4,-34 410,-34 410,4 -4,4"/>
<!-- Node6 -->
<g id="node1" class="node"><title>Node6</title>
<polygon fill="#bfbfbf" stroke="black" points="0,-5.5 0,-24.5 74,-24.5 74,-5.5 0,-5.5"/>
<text text-anchor="middle" x="37" y="-12.5" font-family="Helvetica,sans-Serif" font-size="10.00">get_contours</text>
</g>
<!-- Node7 -->
<g id="node2" class="node"><title>Node7</title>
<g id="a_node2"><a xlink:href="namespacecaiman_1_1utils_1_1visualization.html#a73c99e5e42d83a663f260f473a80e17c" target="_top" xlink:title="Interactive plotting utility for ipython notbook. ">
<polygon fill="white" stroke="black" points="110.5,-5.5 110.5,-24.5 215.5,-24.5 215.5,-5.5 110.5,-5.5"/>
<text text-anchor="middle" x="163" y="-12.5" font-family="Helvetica,sans-Serif" font-size="10.00">nb_view_patches3d</text>
</a>
</g>
</g>
<!-- Node6&#45;&gt;Node7 -->
<g id="edge1" class="edge"><title>Node6&#45;&gt;Node7</title>
<path fill="none" stroke="midnightblue" d="M74.1993,-8.79887C82.4055,-8.42912 91.3457,-8.24618 100.278,-8.25006"/>
<polygon fill="midnightblue" stroke="midnightblue" points="100.292,-11.7502 110.321,-8.33382 100.35,-4.75044 100.292,-11.7502"/>
</g>
<!-- Node7&#45;&gt;Node6 -->
<g id="edge3" class="edge"><title>Node7&#45;&gt;Node6</title>
<path fill="none" stroke="midnightblue" d="M110.321,-21.6662C101.689,-21.8076 92.782,-21.7701 84.2957,-21.5537"/>
<polygon fill="midnightblue" stroke="midnightblue" points="84.3154,-18.0524 74.1993,-21.2011 84.071,-25.0481 84.3154,-18.0524"/>
</g>
<!-- Node8 -->
<g id="node3" class="node"><title>Node8</title>
<g id="a_node3"><a xlink:href="namespacecaiman_1_1summary__images.html#ae17ab7076653cb3f5db43612a005c646" target="_top" xlink:title="Computes the correlation image for the input dataset Y. ">
<polygon fill="white" stroke="black" points="252,-0 252,-30 406,-30 406,-0 252,-0"/>
<text text-anchor="start" x="260" y="-18" font-family="Helvetica,sans-Serif" font-size="10.00">caiman.summary_images.local</text>
<text text-anchor="middle" x="329" y="-7" font-family="Helvetica,sans-Serif" font-size="10.00">_correlations</text>
</a>
</g>
</g>
<!-- Node7&#45;&gt;Node8 -->
<g id="edge2" class="edge"><title>Node7&#45;&gt;Node8</title>
<path fill="none" stroke="midnightblue" d="M215.891,-15C224.209,-15 233.007,-15 241.87,-15"/>
<polygon fill="midnightblue" stroke="midnightblue" points="241.881,-18.5001 251.881,-15 241.881,-11.5001 241.881,-18.5001"/>
</g>
</g>
</svg>
