<?xml version="1.0" encoding="UTF-8" standalone="no"?>
<!DOCTYPE svg PUBLIC "-//W3C//DTD SVG 1.1//EN"
 "http://www.w3.org/Graphics/SVG/1.1/DTD/svg11.dtd">
<!-- Generated by graphviz version 2.36.0 (20140111.2315)
 -->
<!-- Title: onnls Pages: 1 -->
<svg width="840pt" height="131pt"
 viewBox="0.00 0.00 840.00 131.00" xmlns="http://www.w3.org/2000/svg" xmlns:xlink="http://www.w3.org/1999/xlink">
<g id="graph0" class="graph" transform="scale(1 1) rotate(0) translate(4 127)">
<title>onnls</title>
<polygon fill="white" stroke="none" points="-4,4 -4,-127 836,-127 836,4 -4,4"/>
<!-- Node125 -->
<g id="node1" class="node"><title>Node125</title>
<polygon fill="#bfbfbf" stroke="black" points="0,-49.5 0,-68.5 40,-68.5 40,-49.5 0,-49.5"/>
<text text-anchor="middle" x="20" y="-56.5" font-family="Helvetica,sans-Serif" font-size="10.00">onnls</text>
</g>
<!-- Node126 -->
<g id="node2" class="node"><title>Node126</title>
<g id="a_node2"><a xlink:href="namespacecaiman_1_1source__extraction_1_1cnmf_1_1deconvolution.html#a5753e123f06d6f8a5f53e8f1cc50baba" target="_top" xlink:title="Infer the most likely discretized spike train underlying an AR(2) fluorescence trace. ">
<polygon fill="white" stroke="black" points="76.5,-49.5 76.5,-68.5 193.5,-68.5 193.5,-49.5 76.5,-49.5"/>
<text text-anchor="middle" x="135" y="-56.5" font-family="Helvetica,sans-Serif" font-size="10.00">constrained_oasisAR2</text>
</a>
</g>
</g>
<!-- Node125&#45;&gt;Node126 -->
<g id="edge1" class="edge"><title>Node125&#45;&gt;Node126</title>
<path fill="none" stroke="midnightblue" d="M50.3691,-52.9957C58.3409,-52.5212 67.2576,-52.2732 76.2173,-52.2515"/>
<polygon fill="midnightblue" stroke="midnightblue" points="49.8699,-49.5237 40.1689,-53.783 50.4086,-56.5029 49.8699,-49.5237"/>
</g>
<!-- Node126&#45;&gt;Node125 -->
<g id="edge7" class="edge"><title>Node126&#45;&gt;Node125</title>
<path fill="none" stroke="midnightblue" d="M66.2033,-65.6286C56.7027,-65.422 47.6463,-64.9514 40.1689,-64.217"/>
<polygon fill="midnightblue" stroke="midnightblue" points="66.1761,-69.1284 76.2173,-65.7485 66.2599,-62.1289 66.1761,-69.1284"/>
</g>
<!-- Node127 -->
<g id="node3" class="node"><title>Node127</title>
<g id="a_node3"><a xlink:href="namespacecaiman_1_1source__extraction_1_1cnmf_1_1deconvolution.html#a0afb63d84485a181bb40f2eefe7b581e" target="_top" xlink:title="Infer the most likely discretized spike train underlying a fluorescence trace. ">
<polygon fill="white" stroke="black" points="230,-49.5 230,-68.5 330,-68.5 330,-49.5 230,-49.5"/>
<text text-anchor="middle" x="280" y="-56.5" font-family="Helvetica,sans-Serif" font-size="10.00">constrained_foopsi</text>
</a>
</g>
</g>
<!-- Node126&#45;&gt;Node127 -->
<g id="edge2" class="edge"><title>Node126&#45;&gt;Node127</title>
<path fill="none" stroke="midnightblue" d="M203.918,-59C212.634,-59 221.42,-59 229.758,-59"/>
<polygon fill="midnightblue" stroke="midnightblue" points="203.751,-55.5001 193.751,-59 203.751,-62.5001 203.751,-55.5001"/>
</g>
<!-- Node128 -->
<g id="node4" class="node"><title>Node128</title>
<g id="a_node4"><a xlink:href="namespacecaiman_1_1source__extraction_1_1cnmf_1_1merging.html#ad08adf2e086a22ef379b10ed3ee36936" target="_top" xlink:title="Merging of spatially overlapping components that have highly correlated temporal activity The correla...">
<polygon fill="white" stroke="black" points="379.5,-93 379.5,-123 604.5,-123 604.5,-93 379.5,-93"/>
<text text-anchor="start" x="387.5" y="-111" font-family="Helvetica,sans-Serif" font-size="10.00">caiman.source_extraction.cnmf.merging.merge</text>
<text text-anchor="middle" x="492" y="-100" font-family="Helvetica,sans-Serif" font-size="10.00">_components</text>
</a>
</g>
</g>
<!-- Node127&#45;&gt;Node128 -->
<g id="edge3" class="edge"><title>Node127&#45;&gt;Node128</title>
<path fill="none" stroke="midnightblue" d="M322.439,-71.3978C336.236,-75.3388 351.725,-79.5626 366,-83 380.523,-86.4971 396.078,-89.8881 411.111,-92.9858"/>
<polygon fill="midnightblue" stroke="midnightblue" points="323.312,-68.0068 312.733,-68.5934 321.368,-74.7318 323.312,-68.0068"/>
</g>
<!-- Node129 -->
<g id="node5" class="node"><title>Node129</title>
<g id="a_node5"><a xlink:href="namespacecaiman_1_1source__extraction_1_1cnmf_1_1temporal.html#a2ede407f1e0d0722f51ddb6e99f48f9f" target="_top" xlink:title="necessary for parallel computation of the function constrained_foopsi ">
<polygon fill="white" stroke="black" points="366.5,-44 366.5,-74 617.5,-74 617.5,-44 366.5,-44"/>
<text text-anchor="start" x="374.5" y="-62" font-family="Helvetica,sans-Serif" font-size="10.00">caiman.source_extraction.cnmf.temporal.constrained</text>
<text text-anchor="middle" x="492" y="-51" font-family="Helvetica,sans-Serif" font-size="10.00">_foopsi_parallel</text>
</a>
</g>
</g>
<!-- Node127&#45;&gt;Node129 -->
<g id="edge4" class="edge"><title>Node127&#45;&gt;Node129</title>
<path fill="none" stroke="midnightblue" d="M340.461,-59C348.748,-59 357.505,-59 366.458,-59"/>
<polygon fill="midnightblue" stroke="midnightblue" points="340.236,-55.5001 330.236,-59 340.236,-62.5001 340.236,-55.5001"/>
</g>
<!-- Node130 -->
<g id="node6" class="node"><title>Node130</title>
<g id="a_node6"><a xlink:href="namespacecaiman_1_1tests_1_1test__deconvolution.html#aaebeed7ce9541fa4c56791c67009cdc6" target="_top" xlink:title="caiman.tests.test_deconvolution.foo">
<polygon fill="white" stroke="black" points="404.5,-5.5 404.5,-24.5 579.5,-24.5 579.5,-5.5 404.5,-5.5"/>
<text text-anchor="middle" x="492" y="-12.5" font-family="Helvetica,sans-Serif" font-size="10.00">caiman.tests.test_deconvolution.foo</text>
</a>
</g>
</g>
<!-- Node127&#45;&gt;Node130 -->
<g id="edge5" class="edge"><title>Node127&#45;&gt;Node130</title>
<path fill="none" stroke="midnightblue" d="M321.324,-46.5757C335.373,-42.5243 351.299,-38.2399 366,-35 384.136,-31.0031 403.918,-27.4657 422.284,-24.52"/>
<polygon fill="midnightblue" stroke="midnightblue" points="320.08,-43.293 311.47,-49.4663 322.051,-50.01 320.08,-43.293"/>
</g>
<!-- Node131 -->
<g id="node7" class="node"><title>Node131</title>
<g id="a_node7"><a xlink:href="namespacecaiman_1_1tests_1_1test__deconvolution.html#a90f82ae854f8179179664fe34973f11b" target="_top" xlink:title="caiman.tests.test_deconvolution.test\l_oasis">
<polygon fill="white" stroke="black" points="654,-0 654,-30 832,-30 832,-0 654,-0"/>
<text text-anchor="start" x="662" y="-18" font-family="Helvetica,sans-Serif" font-size="10.00">caiman.tests.test_deconvolution.test</text>
<text text-anchor="middle" x="743" y="-7" font-family="Helvetica,sans-Serif" font-size="10.00">_oasis</text>
</a>
</g>
</g>
<!-- Node130&#45;&gt;Node131 -->
<g id="edge6" class="edge"><title>Node130&#45;&gt;Node131</title>
<path fill="none" stroke="midnightblue" d="M589.975,-15C611.031,-15 633.193,-15 653.885,-15"/>
<polygon fill="midnightblue" stroke="midnightblue" points="589.739,-11.5001 579.739,-15 589.739,-18.5001 589.739,-11.5001"/>
</g>
</g>
</svg>
