<?xml version="1.0" encoding="UTF-8" standalone="no"?>
<!DOCTYPE svg PUBLIC "-//W3C//DTD SVG 1.1//EN"
 "http://www.w3.org/Graphics/SVG/1.1/DTD/svg11.dtd">
<!-- Generated by graphviz version 2.36.0 (20140111.2315)
 -->
<!-- Title: constrained_foopsi_parallel Pages: 1 -->
<svg width="1906pt" height="157pt"
 viewBox="0.00 0.00 1906.00 156.67" xmlns="http://www.w3.org/2000/svg" xmlns:xlink="http://www.w3.org/1999/xlink">
<g id="graph0" class="graph" transform="scale(1 1) rotate(0) translate(4 152.667)">
<title>constrained_foopsi_parallel</title>
<polygon fill="white" stroke="none" points="-4,4 -4,-152.667 1902,-152.667 1902,4 -4,4"/>
<!-- Node0 -->
<g id="node1" class="node"><title>Node0</title>
<polygon fill="#bfbfbf" stroke="black" points="0,-73 0,-103 100,-103 100,-73 0,-73"/>
<text text-anchor="start" x="8" y="-91" font-family="Helvetica,sans-Serif" font-size="10.00">constrained_foopsi</text>
<text text-anchor="middle" x="50" y="-80" font-family="Helvetica,sans-Serif" font-size="10.00">_parallel</text>
</g>
<!-- Node1 -->
<g id="node2" class="node"><title>Node1</title>
<g id="a_node2"><a xlink:href="namespacecaiman_1_1source__extraction_1_1cnmf_1_1deconvolution.html#a0afb63d84485a181bb40f2eefe7b581e" target="_top" xlink:title="Infer the most likely discretized spike train underlying a fluorescence trace. ">
<polygon fill="white" stroke="black" points="136,-73 136,-103 410,-103 410,-73 136,-73"/>
<text text-anchor="start" x="144" y="-91" font-family="Helvetica,sans-Serif" font-size="10.00">caiman.source_extraction.cnmf.deconvolution.constrained</text>
<text text-anchor="middle" x="273" y="-80" font-family="Helvetica,sans-Serif" font-size="10.00">_foopsi</text>
</a>
</g>
</g>
<!-- Node0&#45;&gt;Node1 -->
<g id="edge1" class="edge"><title>Node0&#45;&gt;Node1</title>
<path fill="none" stroke="midnightblue" d="M100.047,-88C107.993,-88 116.56,-88 125.479,-88"/>
<polygon fill="midnightblue" stroke="midnightblue" points="125.684,-91.5001 135.684,-88 125.684,-84.5001 125.684,-91.5001"/>
</g>
<!-- Node2 -->
<g id="node3" class="node"><title>Node2</title>
<g id="a_node3"><a xlink:href="namespacecaiman_1_1source__extraction_1_1cnmf_1_1deconvolution.html#a7199190b4f33e4a70dedc9deea7e4c45" target="_top" xlink:title="caiman.source_extraction.cnmf.deconvolution.estimate\l_parameters">
<polygon fill="white" stroke="black" points="756,-84 756,-114 1016,-114 1016,-84 756,-84"/>
<text text-anchor="start" x="764" y="-102" font-family="Helvetica,sans-Serif" font-size="10.00">caiman.source_extraction.cnmf.deconvolution.estimate</text>
<text text-anchor="middle" x="886" y="-91" font-family="Helvetica,sans-Serif" font-size="10.00">_parameters</text>
</a>
</g>
</g>
<!-- Node1&#45;&gt;Node2 -->
<g id="edge2" class="edge"><title>Node1&#45;&gt;Node2</title>
<path fill="none" stroke="midnightblue" d="M314.667,-103.052C349.091,-114.947 400.028,-130.579 446,-137 566.607,-153.844 599.001,-150.753 720,-137 754.789,-133.046 792.924,-124.545 823.761,-116.584"/>
<polygon fill="midnightblue" stroke="midnightblue" points="824.72,-119.951 833.502,-114.025 822.941,-113.181 824.72,-119.951"/>
</g>
<!-- Node7 -->
<g id="node8" class="node"><title>Node7</title>
<g id="a_node8"><a xlink:href="namespacecaiman_1_1source__extraction_1_1cnmf_1_1deconvolution.html#a04aa84702e9977187b4ac0ba95891fb6" target="_top" xlink:title="Solve the deconvolution problem using cvxopt and picos packages. ">
<polygon fill="white" stroke="black" points="457.5,-98 457.5,-128 708.5,-128 708.5,-98 457.5,-98"/>
<text text-anchor="start" x="465.5" y="-116" font-family="Helvetica,sans-Serif" font-size="10.00">caiman.source_extraction.cnmf.deconvolution.cvxopt</text>
<text text-anchor="middle" x="583" y="-105" font-family="Helvetica,sans-Serif" font-size="10.00">_foopsi</text>
</a>
</g>
</g>
<!-- Node1&#45;&gt;Node7 -->
<g id="edge8" class="edge"><title>Node1&#45;&gt;Node7</title>
<path fill="none" stroke="midnightblue" d="M410.438,-99.0745C422.632,-100.064 434.975,-101.066 447.155,-102.055"/>
<polygon fill="midnightblue" stroke="midnightblue" points="447.091,-105.561 457.341,-102.882 447.657,-98.5839 447.091,-105.561"/>
</g>
<!-- Node8 -->
<g id="node9" class="node"><title>Node8</title>
<g id="a_node9"><a xlink:href="namespacecaiman_1_1source__extraction_1_1cnmf_1_1deconvolution.html#a0dd508a8cc717626fa4c45d0a5c08bfd" target="_top" xlink:title="Solves the deconvolution problem using the cvxpy package and the ECOS/SCS library. ">
<polygon fill="white" stroke="black" points="459,-49 459,-79 707,-79 707,-49 459,-49"/>
<text text-anchor="start" x="467" y="-67" font-family="Helvetica,sans-Serif" font-size="10.00">caiman.source_extraction.cnmf.deconvolution.cvxpy</text>
<text text-anchor="middle" x="583" y="-56" font-family="Helvetica,sans-Serif" font-size="10.00">_foopsi</text>
</a>
</g>
</g>
<!-- Node1&#45;&gt;Node8 -->
<g id="edge9" class="edge"><title>Node1&#45;&gt;Node8</title>
<path fill="none" stroke="midnightblue" d="M410.438,-77.3684C423.135,-76.3791 435.993,-75.3772 448.661,-74.3901"/>
<polygon fill="midnightblue" stroke="midnightblue" points="449.075,-77.8685 458.773,-73.6021 448.531,-70.8897 449.075,-77.8685"/>
</g>
<!-- Node9 -->
<g id="node10" class="node"><title>Node9</title>
<g id="a_node10"><a xlink:href="namespacecaiman_1_1source__extraction_1_1cnmf_1_1deconvolution.html#a5753e123f06d6f8a5f53e8f1cc50baba" target="_top" xlink:title="Infer the most likely discretized spike train underlying an AR(2) fluorescence trace. ">
<polygon fill="white" stroke="black" points="446,-0 446,-30 720,-30 720,-0 446,-0"/>
<text text-anchor="start" x="454" y="-18" font-family="Helvetica,sans-Serif" font-size="10.00">caiman.source_extraction.cnmf.deconvolution.constrained</text>
<text text-anchor="middle" x="583" y="-7" font-family="Helvetica,sans-Serif" font-size="10.00">_oasisAR2</text>
</a>
</g>
</g>
<!-- Node1&#45;&gt;Node9 -->
<g id="edge10" class="edge"><title>Node1&#45;&gt;Node9</title>
<path fill="none" stroke="midnightblue" d="M321.848,-72.9377C356.169,-62.4858 403.637,-48.7449 446,-39 456.753,-36.5265 468.034,-34.1667 479.307,-31.9597"/>
<polygon fill="midnightblue" stroke="midnightblue" points="480.038,-35.3835 489.198,-30.0605 478.718,-28.5091 480.038,-35.3835"/>
</g>
<!-- Node3 -->
<g id="node4" class="node"><title>Node3</title>
<g id="a_node4"><a xlink:href="namespacecaiman_1_1source__extraction_1_1cnmf_1_1deconvolution.html#a16b9a254776edd0d9093ee35b1ef17a2" target="_top" xlink:title="caiman.source_extraction.cnmf.deconvolution.\lGetSn">
<polygon fill="white" stroke="black" points="1361,-85 1361,-115 1583,-115 1583,-85 1361,-85"/>
<text text-anchor="start" x="1369" y="-103" font-family="Helvetica,sans-Serif" font-size="10.00">caiman.source_extraction.cnmf.deconvolution.</text>
<text text-anchor="middle" x="1472" y="-92" font-family="Helvetica,sans-Serif" font-size="10.00">GetSn</text>
</a>
</g>
</g>
<!-- Node2&#45;&gt;Node3 -->
<g id="edge3" class="edge"><title>Node2&#45;&gt;Node3</title>
<path fill="none" stroke="midnightblue" d="M1016.25,-99.2213C1116.03,-99.3922 1253.06,-99.6268 1350.56,-99.7938"/>
<polygon fill="midnightblue" stroke="midnightblue" points="1350.75,-103.294 1360.75,-99.8112 1350.76,-96.294 1350.75,-103.294"/>
</g>
<!-- Node4 -->
<g id="node5" class="node"><title>Node4</title>
<g id="a_node5"><a xlink:href="namespacecaiman_1_1source__extraction_1_1cnmf_1_1deconvolution.html#a7a73db2b3e0e88f4a5f30f80944c1319" target="_top" xlink:title="caiman.source_extraction.cnmf.deconvolution.estimate\l_time_constant">
<polygon fill="white" stroke="black" points="1052,-41 1052,-71 1312,-71 1312,-41 1052,-41"/>
<text text-anchor="start" x="1060" y="-59" font-family="Helvetica,sans-Serif" font-size="10.00">caiman.source_extraction.cnmf.deconvolution.estimate</text>
<text text-anchor="middle" x="1182" y="-48" font-family="Helvetica,sans-Serif" font-size="10.00">_time_constant</text>
</a>
</g>
</g>
<!-- Node2&#45;&gt;Node4 -->
<g id="edge4" class="edge"><title>Node2&#45;&gt;Node4</title>
<path fill="none" stroke="midnightblue" d="M989.827,-83.9607C1015.12,-80.2619 1042.33,-76.2818 1068.07,-72.5174"/>
<polygon fill="midnightblue" stroke="midnightblue" points="1068.84,-75.9412 1078.23,-71.0308 1067.83,-69.0149 1068.84,-75.9412"/>
</g>
<!-- Node4&#45;&gt;Node3 -->
<g id="edge5" class="edge"><title>Node4&#45;&gt;Node3</title>
<path fill="none" stroke="midnightblue" d="M1281.31,-71.0192C1307.46,-75.0149 1335.86,-79.3532 1362.52,-83.4268"/>
<polygon fill="midnightblue" stroke="midnightblue" points="1362.23,-86.9233 1372.65,-84.9738 1363.29,-80.0036 1362.23,-86.9233"/>
</g>
<!-- Node5 -->
<g id="node6" class="node"><title>Node5</title>
<g id="a_node6"><a xlink:href="namespacecaiman_1_1source__extraction_1_1cnmf_1_1deconvolution.html#a458da977dee6e97910a1b006e899b309" target="_top" xlink:title="caiman.source_extraction.cnmf.deconvolution.axcov">
<polygon fill="white" stroke="black" points="1348,-46.5 1348,-65.5 1596,-65.5 1596,-46.5 1348,-46.5"/>
<text text-anchor="middle" x="1472" y="-53.5" font-family="Helvetica,sans-Serif" font-size="10.00">caiman.source_extraction.cnmf.deconvolution.axcov</text>
</a>
</g>
</g>
<!-- Node4&#45;&gt;Node5 -->
<g id="edge6" class="edge"><title>Node4&#45;&gt;Node5</title>
<path fill="none" stroke="midnightblue" d="M1312.26,-56C1320.66,-56 1329.12,-56 1337.54,-56"/>
<polygon fill="midnightblue" stroke="midnightblue" points="1337.78,-59.5001 1347.78,-56 1337.78,-52.5001 1337.78,-59.5001"/>
</g>
<!-- Node6 -->
<g id="node7" class="node"><title>Node6</title>
<g id="a_node7"><a xlink:href="namespacecaiman_1_1source__extraction_1_1cnmf_1_1deconvolution.html#a8d83696f273bd0121651cf48a6b899ae" target="_top" xlink:title="caiman.source_extraction.cnmf.deconvolution.nextpow2">
<polygon fill="white" stroke="black" points="1632.5,-46.5 1632.5,-65.5 1897.5,-65.5 1897.5,-46.5 1632.5,-46.5"/>
<text text-anchor="middle" x="1765" y="-53.5" font-family="Helvetica,sans-Serif" font-size="10.00">caiman.source_extraction.cnmf.deconvolution.nextpow2</text>
</a>
</g>
</g>
<!-- Node5&#45;&gt;Node6 -->
<g id="edge7" class="edge"><title>Node5&#45;&gt;Node6</title>
<path fill="none" stroke="midnightblue" d="M1596.41,-56C1604.98,-56 1613.66,-56 1622.32,-56"/>
<polygon fill="midnightblue" stroke="midnightblue" points="1622.47,-59.5001 1632.47,-56 1622.47,-52.5001 1622.47,-59.5001"/>
</g>
<!-- Node9&#45;&gt;Node2 -->
<g id="edge15" class="edge"><title>Node9&#45;&gt;Node2</title>
<path fill="none" stroke="midnightblue" d="M695.987,-30.0172C704.267,-32.559 712.36,-35.5293 720,-39 738.706,-47.4975 737.563,-58.9345 756,-68 766.416,-73.1213 777.729,-77.4276 789.183,-81.0413"/>
<polygon fill="midnightblue" stroke="midnightblue" points="788.238,-84.4117 798.821,-83.9166 790.239,-77.7038 788.238,-84.4117"/>
</g>
<!-- Node9&#45;&gt;Node4 -->
<g id="edge11" class="edge"><title>Node9&#45;&gt;Node4</title>
<path fill="none" stroke="midnightblue" d="M712.594,-30.0331C727.222,-31.4971 741.926,-32.8594 756,-34 851.179,-41.7139 958.582,-47.2464 1041.6,-50.8339"/>
<polygon fill="midnightblue" stroke="midnightblue" points="1041.47,-54.3311 1051.61,-51.2618 1041.76,-47.3375 1041.47,-54.3311"/>
</g>
<!-- Node10 -->
<g id="node11" class="node"><title>Node10</title>
<g id="a_node11"><a xlink:href="namespacecaiman_1_1source__extraction_1_1cnmf_1_1deconvolution.html#affae481e26d5e13bc6f62c6e643b63d5" target="_top" xlink:title="Infer the most likely discretized spike train underlying an AR(2) fluorescence trace. ">
<polygon fill="white" stroke="black" points="763,-5.5 763,-24.5 1009,-24.5 1009,-5.5 763,-5.5"/>
<text text-anchor="middle" x="886" y="-12.5" font-family="Helvetica,sans-Serif" font-size="10.00">caiman.source_extraction.cnmf.deconvolution.onnls</text>
</a>
</g>
</g>
<!-- Node9&#45;&gt;Node10 -->
<g id="edge12" class="edge"><title>Node9&#45;&gt;Node10</title>
<path fill="none" stroke="midnightblue" d="M720.409,-8.27637C731.136,-8.23612 741.959,-8.24195 752.658,-8.29386"/>
<polygon fill="midnightblue" stroke="midnightblue" points="752.848,-11.795 762.87,-8.35775 752.892,-4.79516 752.848,-11.795"/>
</g>
<!-- Node10&#45;&gt;Node9 -->
<g id="edge14" class="edge"><title>Node10&#45;&gt;Node9</title>
<path fill="none" stroke="midnightblue" d="M762.87,-21.6423C752.273,-21.7236 741.482,-21.7589 730.716,-21.7481"/>
<polygon fill="midnightblue" stroke="midnightblue" points="730.417,-18.2475 720.409,-21.7236 730.401,-25.2475 730.417,-18.2475"/>
</g>
<!-- Node11 -->
<g id="node12" class="node"><title>Node11</title>
<g id="a_node12"><a xlink:href="namespacecaiman_1_1source__extraction_1_1cnmf_1_1deconvolution.html#ad9f9b2ef0aad5c652f86bd8c7ae64bdd" target="_top" xlink:title="caiman.source_extraction.cnmf.deconvolution._nnls">
<polygon fill="white" stroke="black" points="1059,-2.5 1059,-21.5 1305,-21.5 1305,-2.5 1059,-2.5"/>
<text text-anchor="middle" x="1182" y="-9.5" font-family="Helvetica,sans-Serif" font-size="10.00">caiman.source_extraction.cnmf.deconvolution._nnls</text>
</a>
</g>
</g>
<!-- Node10&#45;&gt;Node11 -->
<g id="edge13" class="edge"><title>Node10&#45;&gt;Node11</title>
<path fill="none" stroke="midnightblue" d="M1009.13,-13.7538C1022.2,-13.6204 1035.55,-13.4842 1048.73,-13.3497"/>
<polygon fill="midnightblue" stroke="midnightblue" points="1048.81,-16.8491 1058.78,-13.2472 1048.74,-9.84947 1048.81,-16.8491"/>
</g>
</g>
</svg>
