<?xml version="1.0" encoding="UTF-8" standalone="no"?>
<!DOCTYPE svg PUBLIC "-//W3C//DTD SVG 1.1//EN"
 "http://www.w3.org/Graphics/SVG/1.1/DTD/svg11.dtd">
<!-- Generated by graphviz version 2.36.0 (20140111.2315)
 -->
<!-- Title: estimate_parameters Pages: 1 -->
<svg width="454pt" height="66pt"
 viewBox="0.00 0.00 454.00 66.00" xmlns="http://www.w3.org/2000/svg" xmlns:xlink="http://www.w3.org/1999/xlink">
<g id="graph0" class="graph" transform="scale(1 1) rotate(0) translate(4 62)">
<title>estimate_parameters</title>
<polygon fill="white" stroke="none" points="-4,4 -4,-62 450,-62 450,4 -4,4"/>
<!-- Node66 -->
<g id="node1" class="node"><title>Node66</title>
<polygon fill="#bfbfbf" stroke="black" points="0,-19.5 0,-38.5 110,-38.5 110,-19.5 0,-19.5"/>
<text text-anchor="middle" x="55" y="-26.5" font-family="Helvetica,sans-Serif" font-size="10.00">estimate_parameters</text>
</g>
<!-- Node67 -->
<g id="node2" class="node"><title>Node67</title>
<g id="a_node2"><a xlink:href="namespacecaiman_1_1source__extraction_1_1cnmf_1_1deconvolution.html#a16b9a254776edd0d9093ee35b1ef17a2" target="_top" xlink:title="GetSn">
<polygon fill="white" stroke="black" points="304.5,-38.5 304.5,-57.5 349.5,-57.5 349.5,-38.5 304.5,-38.5"/>
<text text-anchor="middle" x="327" y="-45.5" font-family="Helvetica,sans-Serif" font-size="10.00">GetSn</text>
</a>
</g>
</g>
<!-- Node66&#45;&gt;Node67 -->
<g id="edge1" class="edge"><title>Node66&#45;&gt;Node67</title>
<path fill="none" stroke="midnightblue" d="M110.314,-32.8221C165.486,-36.7046 249.057,-42.5855 294.267,-45.7669"/>
<polygon fill="midnightblue" stroke="midnightblue" points="294.145,-49.2669 304.366,-46.4776 294.636,-42.2842 294.145,-49.2669"/>
</g>
<!-- Node68 -->
<g id="node3" class="node"><title>Node68</title>
<g id="a_node3"><a xlink:href="namespacecaiman_1_1source__extraction_1_1cnmf_1_1deconvolution.html#a7a73db2b3e0e88f4a5f30f80944c1319" target="_top" xlink:title="estimate_time_constant">
<polygon fill="white" stroke="black" points="146,-0.5 146,-19.5 268,-19.5 268,-0.5 146,-0.5"/>
<text text-anchor="middle" x="207" y="-7.5" font-family="Helvetica,sans-Serif" font-size="10.00">estimate_time_constant</text>
</a>
</g>
</g>
<!-- Node66&#45;&gt;Node68 -->
<g id="edge2" class="edge"><title>Node66&#45;&gt;Node68</title>
<path fill="none" stroke="midnightblue" d="M110.153,-22.1406C118.477,-21.0862 127.173,-19.9848 135.784,-18.894"/>
<polygon fill="midnightblue" stroke="midnightblue" points="136.346,-22.3509 145.827,-17.622 135.466,-15.4064 136.346,-22.3509"/>
</g>
<!-- Node68&#45;&gt;Node67 -->
<g id="edge3" class="edge"><title>Node68&#45;&gt;Node67</title>
<path fill="none" stroke="midnightblue" d="M237.776,-19.589C255.127,-25.1764 276.988,-32.2164 294.608,-37.8906"/>
<polygon fill="midnightblue" stroke="midnightblue" points="293.834,-41.3185 304.426,-41.0523 295.98,-34.6554 293.834,-41.3185"/>
</g>
<!-- Node69 -->
<g id="node4" class="node"><title>Node69</title>
<g id="a_node4"><a xlink:href="namespacecaiman_1_1source__extraction_1_1cnmf_1_1deconvolution.html#a458da977dee6e97910a1b006e899b309" target="_top" xlink:title="axcov">
<polygon fill="white" stroke="black" points="305.5,-0.5 305.5,-19.5 348.5,-19.5 348.5,-0.5 305.5,-0.5"/>
<text text-anchor="middle" x="327" y="-7.5" font-family="Helvetica,sans-Serif" font-size="10.00">axcov</text>
</a>
</g>
</g>
<!-- Node68&#45;&gt;Node69 -->
<g id="edge4" class="edge"><title>Node68&#45;&gt;Node69</title>
<path fill="none" stroke="midnightblue" d="M268.037,-10C277.485,-10 286.897,-10 295.304,-10"/>
<polygon fill="midnightblue" stroke="midnightblue" points="295.343,-13.5001 305.343,-10 295.343,-6.5001 295.343,-13.5001"/>
</g>
<!-- Node70 -->
<g id="node5" class="node"><title>Node70</title>
<g id="a_node5"><a xlink:href="namespacecaiman_1_1source__extraction_1_1cnmf_1_1deconvolution.html#a8d83696f273bd0121651cf48a6b899ae" target="_top" xlink:title="nextpow2">
<polygon fill="white" stroke="black" points="386.5,-0.5 386.5,-19.5 445.5,-19.5 445.5,-0.5 386.5,-0.5"/>
<text text-anchor="middle" x="416" y="-7.5" font-family="Helvetica,sans-Serif" font-size="10.00">nextpow2</text>
</a>
</g>
</g>
<!-- Node69&#45;&gt;Node70 -->
<g id="edge5" class="edge"><title>Node69&#45;&gt;Node70</title>
<path fill="none" stroke="midnightblue" d="M348.618,-10C356.884,-10 366.69,-10 376.195,-10"/>
<polygon fill="midnightblue" stroke="midnightblue" points="376.302,-13.5001 386.302,-10 376.302,-6.5001 376.302,-13.5001"/>
</g>
</g>
</svg>
