<?xml version="1.0" encoding="UTF-8" standalone="no"?>
<!DOCTYPE svg PUBLIC "-//W3C//DTD SVG 1.1//EN"
 "http://www.w3.org/Graphics/SVG/1.1/DTD/svg11.dtd">
<!-- Generated by graphviz version 2.36.0 (20140111.2315)
 -->
<!-- Title: mean_psd Pages: 1 -->
<svg width="334pt" height="66pt"
 viewBox="0.00 0.00 334.00 66.00" xmlns="http://www.w3.org/2000/svg" xmlns:xlink="http://www.w3.org/1999/xlink">
<g id="graph0" class="graph" transform="scale(1 1) rotate(0) translate(4 62)">
<title>mean_psd</title>
<polygon fill="white" stroke="none" points="-4,4 -4,-62 330,-62 330,4 -4,4"/>
<!-- Node33 -->
<g id="node1" class="node"><title>Node33</title>
<polygon fill="#bfbfbf" stroke="black" points="0.5,-19.5 0.5,-38.5 63.5,-38.5 63.5,-19.5 0.5,-19.5"/>
<text text-anchor="middle" x="32" y="-26.5" font-family="Helvetica,sans-Serif" font-size="10.00">mean_psd</text>
</g>
<!-- Node34 -->
<g id="node2" class="node"><title>Node34</title>
<g id="a_node2"><a xlink:href="namespacecaiman_1_1source__extraction_1_1cnmf_1_1pre__processing.html#a4ac9105671d13333d3a5ac455d1cc0d5" target="_top" xlink:title="Estimate the noise level for each pixel by averaging the power spectral density. ">
<polygon fill="white" stroke="black" points="100,-19.5 100,-38.5 174,-38.5 174,-19.5 100,-19.5"/>
<text text-anchor="middle" x="137" y="-26.5" font-family="Helvetica,sans-Serif" font-size="10.00">get_noise_fft</text>
</a>
</g>
</g>
<!-- Node33&#45;&gt;Node34 -->
<g id="edge1" class="edge"><title>Node33&#45;&gt;Node34</title>
<path fill="none" stroke="midnightblue" d="M73.8404,-29C82.4402,-29 91.4547,-29 99.8671,-29"/>
<polygon fill="midnightblue" stroke="midnightblue" points="73.6246,-25.5001 63.6245,-29 73.6245,-32.5001 73.6246,-25.5001"/>
</g>
<!-- Node35 -->
<g id="node3" class="node"><title>Node35</title>
<g id="a_node3"><a xlink:href="namespacecaiman_1_1source__extraction_1_1cnmf_1_1pre__processing.html#a60e1d4914937573be521e9c8d2a7cd31" target="_top" xlink:title="helper function to parallelize get_noise_fft ">
<polygon fill="white" stroke="black" points="226,-38.5 226,-57.5 310,-57.5 310,-38.5 226,-38.5"/>
<text text-anchor="middle" x="268" y="-45.5" font-family="Helvetica,sans-Serif" font-size="10.00">fft_psd_parallel</text>
</a>
</g>
</g>
<!-- Node34&#45;&gt;Node35 -->
<g id="edge2" class="edge"><title>Node34&#45;&gt;Node35</title>
<path fill="none" stroke="midnightblue" d="M184.307,-35.8203C197.773,-37.8037 212.391,-39.9568 225.539,-41.8933"/>
<polygon fill="midnightblue" stroke="midnightblue" points="184.68,-32.3377 174.277,-34.3431 183.66,-39.263 184.68,-32.3377"/>
</g>
<!-- Node36 -->
<g id="node4" class="node"><title>Node36</title>
<g id="a_node4"><a xlink:href="namespacecaiman_1_1source__extraction_1_1cnmf_1_1pre__processing.html#a2442af4ba144dd56a99ff21e770306ce" target="_top" xlink:title="helper function to parallelize get_noise_fft ">
<polygon fill="white" stroke="black" points="210.5,-0.5 210.5,-19.5 325.5,-19.5 325.5,-0.5 210.5,-0.5"/>
<text text-anchor="middle" x="268" y="-7.5" font-family="Helvetica,sans-Serif" font-size="10.00">fft_psd_multithreading</text>
</a>
</g>
</g>
<!-- Node34&#45;&gt;Node36 -->
<g id="edge3" class="edge"><title>Node34&#45;&gt;Node36</title>
<path fill="none" stroke="midnightblue" d="M184.281,-22.1835C192.701,-20.9433 201.572,-19.6367 210.253,-18.3581"/>
<polygon fill="midnightblue" stroke="midnightblue" points="183.66,-18.737 174.277,-23.6569 184.68,-25.6623 183.66,-18.737"/>
</g>
</g>
</svg>
