<?xml version="1.0" encoding="UTF-8" standalone="no"?>
<!DOCTYPE svg PUBLIC "-//W3C//DTD SVG 1.1//EN"
 "http://www.w3.org/Graphics/SVG/1.1/DTD/svg11.dtd">
<!-- Generated by graphviz version 2.36.0 (20140111.2315)
 -->
<!-- Title: extract_DF_F Pages: 1 -->
<svg width="578pt" height="77pt"
 viewBox="0.00 0.00 578.00 77.00" xmlns="http://www.w3.org/2000/svg" xmlns:xlink="http://www.w3.org/1999/xlink">
<g id="graph0" class="graph" transform="scale(1 1) rotate(0) translate(4 73)">
<title>extract_DF_F</title>
<polygon fill="white" stroke="none" points="-4,4 -4,-73 574,-73 574,4 -4,4"/>
<!-- Node14 -->
<g id="node1" class="node"><title>Node14</title>
<polygon fill="#bfbfbf" stroke="black" points="0.5,-22.5 0.5,-41.5 77.5,-41.5 77.5,-22.5 0.5,-22.5"/>
<text text-anchor="middle" x="39" y="-29.5" font-family="Helvetica,sans-Serif" font-size="10.00">extract_DF_F</text>
</g>
<!-- Node15 -->
<g id="node2" class="node"><title>Node15</title>
<g id="a_node2"><a xlink:href="namespacecaiman_1_1mmapping.html#aa75ec735ea507b2ce7eb0e0bd33d2ba3" target="_top" xlink:title="Chunk matrix product between matrix and column vectors A memory mapped ndarray pixels x time b time x...">
<polygon fill="white" stroke="black" points="121.5,-39 121.5,-69 254.5,-69 254.5,-39 121.5,-39"/>
<text text-anchor="start" x="129.5" y="-57" font-family="Helvetica,sans-Serif" font-size="10.00">caiman.mmapping.parallel</text>
<text text-anchor="middle" x="188" y="-46" font-family="Helvetica,sans-Serif" font-size="10.00">_dot_product</text>
</a>
</g>
</g>
<!-- Node14&#45;&gt;Node15 -->
<g id="edge1" class="edge"><title>Node14&#45;&gt;Node15</title>
<path fill="none" stroke="midnightblue" d="M77.8562,-37.6655C88.1202,-39.2017 99.6079,-40.9209 111.172,-42.6517"/>
<polygon fill="midnightblue" stroke="midnightblue" points="110.918,-46.1525 121.326,-44.1713 111.954,-39.2296 110.918,-46.1525"/>
</g>
<!-- Node18 -->
<g id="node5" class="node"><title>Node18</title>
<g id="a_node5"><a xlink:href="namespacecaiman_1_1source__extraction_1_1cnmf_1_1utilities.html#ad671b2e9120b3437304b3149d174f625" target="_top" xlink:title="Plots contour of spatial components. ">
<polygon fill="white" stroke="black" points="114.5,-0.5 114.5,-19.5 261.5,-19.5 261.5,-0.5 114.5,-0.5"/>
<text text-anchor="middle" x="188" y="-7.5" font-family="Helvetica,sans-Serif" font-size="10.00">manually_refine_components</text>
</a>
</g>
</g>
<!-- Node14&#45;&gt;Node18 -->
<g id="edge4" class="edge"><title>Node14&#45;&gt;Node18</title>
<path fill="none" stroke="midnightblue" d="M77.8562,-26.3345C88.6891,-24.7132 100.885,-22.888 113.096,-21.0605"/>
<polygon fill="midnightblue" stroke="midnightblue" points="113.955,-24.471 123.327,-19.5293 112.919,-17.5481 113.955,-24.471"/>
</g>
<!-- Node16 -->
<g id="node3" class="node"><title>Node16</title>
<g id="a_node3"><a xlink:href="namespacecaiman_1_1mmapping.html#a14d47c076020d7d3adf2599ed3354e4b" target="_top" xlink:title="caiman.mmapping.dot\l_place_holder">
<polygon fill="white" stroke="black" points="298.5,-39 298.5,-69 413.5,-69 413.5,-39 298.5,-39"/>
<text text-anchor="start" x="306.5" y="-57" font-family="Helvetica,sans-Serif" font-size="10.00">caiman.mmapping.dot</text>
<text text-anchor="middle" x="356" y="-46" font-family="Helvetica,sans-Serif" font-size="10.00">_place_holder</text>
</a>
</g>
</g>
<!-- Node15&#45;&gt;Node16 -->
<g id="edge2" class="edge"><title>Node15&#45;&gt;Node16</title>
<path fill="none" stroke="midnightblue" d="M254.608,-54C265.709,-54 277.245,-54 288.373,-54"/>
<polygon fill="midnightblue" stroke="midnightblue" points="288.452,-57.5001 298.452,-54 288.452,-50.5001 288.452,-57.5001"/>
</g>
<!-- Node17 -->
<g id="node4" class="node"><title>Node17</title>
<g id="a_node4"><a xlink:href="namespacecaiman_1_1mmapping.html#aeb2ed62e4a9028089a2eec09d392707f" target="_top" xlink:title="Load a memory mapped file created by the function save_memmap. ">
<polygon fill="white" stroke="black" points="450,-39 450,-69 570,-69 570,-39 450,-39"/>
<text text-anchor="start" x="458" y="-57" font-family="Helvetica,sans-Serif" font-size="10.00">caiman.mmapping.load</text>
<text text-anchor="middle" x="510" y="-46" font-family="Helvetica,sans-Serif" font-size="10.00">_memmap</text>
</a>
</g>
</g>
<!-- Node16&#45;&gt;Node17 -->
<g id="edge3" class="edge"><title>Node16&#45;&gt;Node17</title>
<path fill="none" stroke="midnightblue" d="M413.599,-54C422.093,-54 430.932,-54 439.654,-54"/>
<polygon fill="midnightblue" stroke="midnightblue" points="439.811,-57.5001 449.811,-54 439.811,-50.5001 439.811,-57.5001"/>
</g>
<!-- Node19 -->
<g id="node6" class="node"><title>Node19</title>
<g id="a_node6"><a xlink:href="namespacecaiman_1_1base_1_1rois.html#ae37bc9f1a4e815bd7d8e44a2334883a2" target="_top" xlink:title="Calculation of the center of mass for spatial components. ">
<polygon fill="white" stroke="black" points="299,-0.5 299,-19.5 413,-19.5 413,-0.5 299,-0.5"/>
<text text-anchor="middle" x="356" y="-7.5" font-family="Helvetica,sans-Serif" font-size="10.00">caiman.base.rois.com</text>
</a>
</g>
</g>
<!-- Node18&#45;&gt;Node19 -->
<g id="edge5" class="edge"><title>Node18&#45;&gt;Node19</title>
<path fill="none" stroke="midnightblue" d="M261.81,-10C270.764,-10 279.878,-10 288.727,-10"/>
<polygon fill="midnightblue" stroke="midnightblue" points="288.969,-13.5001 298.969,-10 288.969,-6.5001 288.969,-13.5001"/>
</g>
</g>
</svg>
