<?xml version="1.0" encoding="UTF-8" standalone="no"?>
<!DOCTYPE svg PUBLIC "-//W3C//DTD SVG 1.1//EN"
 "http://www.w3.org/Graphics/SVG/1.1/DTD/svg11.dtd">
<!-- Generated by graphviz version 2.36.0 (20140111.2315)
 -->
<!-- Title: sbxread Pages: 1 -->
<svg width="266pt" height="28pt"
 viewBox="0.00 0.00 266.00 28.00" xmlns="http://www.w3.org/2000/svg" xmlns:xlink="http://www.w3.org/1999/xlink">
<g id="graph0" class="graph" transform="scale(1 1) rotate(0) translate(4 24)">
<title>sbxread</title>
<polygon fill="white" stroke="none" points="-4,4 -4,-24 262,-24 262,4 -4,4"/>
<!-- Node51 -->
<g id="node1" class="node"><title>Node51</title>
<polygon fill="#bfbfbf" stroke="black" points="0,-0.5 0,-19.5 52,-19.5 52,-0.5 0,-0.5"/>
<text text-anchor="middle" x="26" y="-7.5" font-family="Helvetica,sans-Serif" font-size="10.00">sbxread</text>
</g>
<!-- Node52 -->
<g id="node2" class="node"><title>Node52</title>
<g id="a_node2"><a xlink:href="namespacecaiman_1_1base_1_1movies.html#a6d585c260307278135a0b4b09440b313" target="_top" xlink:title="load movie from file. ">
<polygon fill="white" stroke="black" points="88.5,-0.5 88.5,-19.5 123.5,-19.5 123.5,-0.5 88.5,-0.5"/>
<text text-anchor="middle" x="106" y="-7.5" font-family="Helvetica,sans-Serif" font-size="10.00">load</text>
</a>
</g>
</g>
<!-- Node51&#45;&gt;Node52 -->
<g id="edge1" class="edge"><title>Node51&#45;&gt;Node52</title>
<path fill="none" stroke="midnightblue" d="M62.375,-10C71.3175,-10 80.5164,-10 88.0692,-10"/>
<polygon fill="midnightblue" stroke="midnightblue" points="62.1091,-6.5001 52.109,-10 62.109,-13.5001 62.1091,-6.5001"/>
</g>
<!-- Node53 -->
<g id="node3" class="node"><title>Node53</title>
<g id="a_node3"><a xlink:href="namespacecaiman_1_1base_1_1movies.html#a5a35758b31edb4a9b2105a058a0882a6" target="_top" xlink:title="load movies from list of file names ">
<polygon fill="white" stroke="black" points="160.5,-0.5 160.5,-19.5 257.5,-19.5 257.5,-0.5 160.5,-0.5"/>
<text text-anchor="middle" x="209" y="-7.5" font-family="Helvetica,sans-Serif" font-size="10.00">load_movie_chain</text>
</a>
</g>
</g>
<!-- Node52&#45;&gt;Node53 -->
<g id="edge2" class="edge"><title>Node52&#45;&gt;Node53</title>
<path fill="none" stroke="midnightblue" d="M133.723,-3.96461C141.915,-3.43333 151.188,-3.19829 160.337,-3.25948"/>
<polygon fill="midnightblue" stroke="midnightblue" points="133.339,-0.484627 123.678,-4.83368 133.943,-7.45857 133.339,-0.484627"/>
</g>
<!-- Node53&#45;&gt;Node52 -->
<g id="edge3" class="edge"><title>Node53&#45;&gt;Node52</title>
<path fill="none" stroke="midnightblue" d="M150.17,-16.6864C140.483,-16.5172 131.163,-16.0105 123.678,-15.1663"/>
<polygon fill="midnightblue" stroke="midnightblue" points="150.319,-20.1871 160.337,-16.7405 150.356,-13.1872 150.319,-20.1871"/>
</g>
</g>
</svg>
