<?xml version="1.0" encoding="UTF-8" standalone="no"?>
<!DOCTYPE svg PUBLIC "-//W3C//DTD SVG 1.1//EN"
 "http://www.w3.org/Graphics/SVG/1.1/DTD/svg11.dtd">
<!-- Generated by graphviz version 2.36.0 (20140111.2315)
 -->
<!-- Title: estimate_time_constant Pages: 1 -->
<svg width="308pt" height="66pt"
 viewBox="0.00 0.00 308.00 66.00" xmlns="http://www.w3.org/2000/svg" xmlns:xlink="http://www.w3.org/1999/xlink">
<g id="graph0" class="graph" transform="scale(1 1) rotate(0) translate(4 62)">
<title>estimate_time_constant</title>
<polygon fill="white" stroke="none" points="-4,4 -4,-62 304,-62 304,4 -4,4"/>
<!-- Node79 -->
<g id="node1" class="node"><title>Node79</title>
<polygon fill="#bfbfbf" stroke="black" points="0,-19.5 0,-38.5 122,-38.5 122,-19.5 0,-19.5"/>
<text text-anchor="middle" x="61" y="-26.5" font-family="Helvetica,sans-Serif" font-size="10.00">estimate_time_constant</text>
</g>
<!-- Node80 -->
<g id="node2" class="node"><title>Node80</title>
<g id="a_node2"><a xlink:href="namespacecaiman_1_1source__extraction_1_1cnmf_1_1deconvolution.html#a16b9a254776edd0d9093ee35b1ef17a2" target="_top" xlink:title="GetSn">
<polygon fill="white" stroke="black" points="158.5,-38.5 158.5,-57.5 203.5,-57.5 203.5,-38.5 158.5,-38.5"/>
<text text-anchor="middle" x="181" y="-45.5" font-family="Helvetica,sans-Serif" font-size="10.00">GetSn</text>
</a>
</g>
</g>
<!-- Node79&#45;&gt;Node80 -->
<g id="edge1" class="edge"><title>Node79&#45;&gt;Node80</title>
<path fill="none" stroke="midnightblue" d="M121.346,-38.5557C130.627,-40.0501 139.897,-41.5427 148.236,-42.8855"/>
<polygon fill="midnightblue" stroke="midnightblue" points="147.804,-46.3609 158.233,-44.4952 148.917,-39.4499 147.804,-46.3609"/>
</g>
<!-- Node81 -->
<g id="node3" class="node"><title>Node81</title>
<g id="a_node3"><a xlink:href="namespacecaiman_1_1source__extraction_1_1cnmf_1_1deconvolution.html#a458da977dee6e97910a1b006e899b309" target="_top" xlink:title="axcov">
<polygon fill="white" stroke="black" points="159.5,-0.5 159.5,-19.5 202.5,-19.5 202.5,-0.5 159.5,-0.5"/>
<text text-anchor="middle" x="181" y="-7.5" font-family="Helvetica,sans-Serif" font-size="10.00">axcov</text>
</a>
</g>
</g>
<!-- Node79&#45;&gt;Node81 -->
<g id="edge2" class="edge"><title>Node79&#45;&gt;Node81</title>
<path fill="none" stroke="midnightblue" d="M121.346,-19.4443C131.056,-17.8807 140.755,-16.3191 149.388,-14.929"/>
<polygon fill="midnightblue" stroke="midnightblue" points="150.004,-18.375 159.32,-13.3298 148.891,-11.464 150.004,-18.375"/>
</g>
<!-- Node82 -->
<g id="node4" class="node"><title>Node82</title>
<g id="a_node4"><a xlink:href="namespacecaiman_1_1source__extraction_1_1cnmf_1_1deconvolution.html#a8d83696f273bd0121651cf48a6b899ae" target="_top" xlink:title="nextpow2">
<polygon fill="white" stroke="black" points="240.5,-0.5 240.5,-19.5 299.5,-19.5 299.5,-0.5 240.5,-0.5"/>
<text text-anchor="middle" x="270" y="-7.5" font-family="Helvetica,sans-Serif" font-size="10.00">nextpow2</text>
</a>
</g>
</g>
<!-- Node81&#45;&gt;Node82 -->
<g id="edge3" class="edge"><title>Node81&#45;&gt;Node82</title>
<path fill="none" stroke="midnightblue" d="M202.618,-10C210.884,-10 220.69,-10 230.195,-10"/>
<polygon fill="midnightblue" stroke="midnightblue" points="230.302,-13.5001 240.302,-10 230.302,-6.5001 230.302,-13.5001"/>
</g>
</g>
</svg>
