<?xml version="1.0" encoding="UTF-8" standalone="no"?>
<!DOCTYPE svg PUBLIC "-//W3C//DTD SVG 1.1//EN"
 "http://www.w3.org/Graphics/SVG/1.1/DTD/svg11.dtd">
<!-- Generated by graphviz version 2.36.0 (20140111.2315)
 -->
<!-- Title: _check_keys Pages: 1 -->
<svg width="504pt" height="104pt"
 viewBox="0.00 0.00 504.00 104.00" xmlns="http://www.w3.org/2000/svg" xmlns:xlink="http://www.w3.org/1999/xlink">
<g id="graph0" class="graph" transform="scale(1 1) rotate(0) translate(4 100)">
<title>_check_keys</title>
<polygon fill="white" stroke="none" points="-4,4 -4,-100 500,-100 500,4 -4,4"/>
<!-- Node2 -->
<g id="node1" class="node"><title>Node2</title>
<polygon fill="#bfbfbf" stroke="black" points="0,-38.5 0,-57.5 74,-57.5 74,-38.5 0,-38.5"/>
<text text-anchor="middle" x="37" y="-45.5" font-family="Helvetica,sans-Serif" font-size="10.00">_check_keys</text>
</g>
<!-- Node3 -->
<g id="node2" class="node"><title>Node3</title>
<g id="a_node2"><a xlink:href="namespacecaiman_1_1base_1_1movies.html#a1dae08ecd6c4b9ef41d5e820eb86604d" target="_top" xlink:title="loadmat_sbx">
<polygon fill="white" stroke="black" points="110.5,-38.5 110.5,-57.5 183.5,-57.5 183.5,-38.5 110.5,-38.5"/>
<text text-anchor="middle" x="147" y="-45.5" font-family="Helvetica,sans-Serif" font-size="10.00">loadmat_sbx</text>
</a>
</g>
</g>
<!-- Node2&#45;&gt;Node3 -->
<g id="edge1" class="edge"><title>Node2&#45;&gt;Node3</title>
<path fill="none" stroke="midnightblue" d="M84.3243,-48C93.0498,-48 102.048,-48 110.383,-48"/>
<polygon fill="midnightblue" stroke="midnightblue" points="84.2629,-44.5001 74.2629,-48 84.2628,-51.5001 84.2629,-44.5001"/>
</g>
<!-- Node4 -->
<g id="node3" class="node"><title>Node4</title>
<g id="a_node3"><a xlink:href="namespacecaiman_1_1base_1_1movies.html#ad72bfc8cc5386d4470caa0be723598e9" target="_top" xlink:title="Input filename should be full path excluding .sbx. ">
<polygon fill="white" stroke="black" points="229,-76.5 229,-95.5 281,-95.5 281,-76.5 229,-76.5"/>
<text text-anchor="middle" x="255" y="-83.5" font-family="Helvetica,sans-Serif" font-size="10.00">sbxread</text>
</a>
</g>
</g>
<!-- Node3&#45;&gt;Node4 -->
<g id="edge2" class="edge"><title>Node3&#45;&gt;Node4</title>
<path fill="none" stroke="midnightblue" d="M184.483,-61.0789C199.062,-66.3053 215.494,-72.1958 228.72,-76.9373"/>
<polygon fill="midnightblue" stroke="midnightblue" points="185.343,-57.669 174.748,-57.589 182.981,-64.2584 185.343,-57.669"/>
</g>
<!-- Node7 -->
<g id="node6" class="node"><title>Node7</title>
<g id="a_node6"><a xlink:href="namespacecaiman_1_1base_1_1movies.html#ad9b115e435b36308da1248112f09f0db" target="_top" xlink:title="Input filename should be full path excluding .sbx. ">
<polygon fill="white" stroke="black" points="220,-38.5 220,-57.5 290,-57.5 290,-38.5 220,-38.5"/>
<text text-anchor="middle" x="255" y="-45.5" font-family="Helvetica,sans-Serif" font-size="10.00">sbxreadskip</text>
</a>
</g>
</g>
<!-- Node3&#45;&gt;Node7 -->
<g id="edge6" class="edge"><title>Node3&#45;&gt;Node7</title>
<path fill="none" stroke="midnightblue" d="M193.678,-48C202.427,-48 211.447,-48 219.76,-48"/>
<polygon fill="midnightblue" stroke="midnightblue" points="193.591,-44.5001 183.591,-48 193.591,-51.5001 193.591,-44.5001"/>
</g>
<!-- Node8 -->
<g id="node7" class="node"><title>Node8</title>
<g id="a_node7"><a xlink:href="namespacecaiman_1_1base_1_1movies.html#ade25f5174c4fa7d04d35b42a01f15803" target="_top" xlink:title="Input filename should be full path excluding .sbx. ">
<polygon fill="white" stroke="black" points="225.5,-0.5 225.5,-19.5 284.5,-19.5 284.5,-0.5 225.5,-0.5"/>
<text text-anchor="middle" x="255" y="-7.5" font-family="Helvetica,sans-Serif" font-size="10.00">sbxshape</text>
</a>
</g>
</g>
<!-- Node3&#45;&gt;Node8 -->
<g id="edge8" class="edge"><title>Node3&#45;&gt;Node8</title>
<path fill="none" stroke="midnightblue" d="M184.184,-35.0282C198.307,-29.9656 214.206,-24.2659 227.26,-19.5859"/>
<polygon fill="midnightblue" stroke="midnightblue" points="182.981,-31.7416 174.748,-38.411 185.343,-38.331 182.981,-31.7416"/>
</g>
<!-- Node5 -->
<g id="node4" class="node"><title>Node5</title>
<g id="a_node4"><a xlink:href="namespacecaiman_1_1base_1_1movies.html#a6d585c260307278135a0b4b09440b313" target="_top" xlink:title="load movie from file. ">
<polygon fill="white" stroke="black" points="326.5,-57.5 326.5,-76.5 361.5,-76.5 361.5,-57.5 326.5,-57.5"/>
<text text-anchor="middle" x="344" y="-64.5" font-family="Helvetica,sans-Serif" font-size="10.00">load</text>
</a>
</g>
</g>
<!-- Node4&#45;&gt;Node5 -->
<g id="edge3" class="edge"><title>Node4&#45;&gt;Node5</title>
<path fill="none" stroke="midnightblue" d="M291.107,-78.3329C303.306,-75.6688 316.421,-72.8047 326.414,-70.6223"/>
<polygon fill="midnightblue" stroke="midnightblue" points="290.187,-74.9513 281.164,-80.5044 291.681,-81.7901 290.187,-74.9513"/>
</g>
<!-- Node6 -->
<g id="node5" class="node"><title>Node6</title>
<g id="a_node5"><a xlink:href="namespacecaiman_1_1base_1_1movies.html#a5a35758b31edb4a9b2105a058a0882a6" target="_top" xlink:title="load movies from list of file names ">
<polygon fill="white" stroke="black" points="398.5,-57.5 398.5,-76.5 495.5,-76.5 495.5,-57.5 398.5,-57.5"/>
<text text-anchor="middle" x="447" y="-64.5" font-family="Helvetica,sans-Serif" font-size="10.00">load_movie_chain</text>
</a>
</g>
</g>
<!-- Node5&#45;&gt;Node6 -->
<g id="edge4" class="edge"><title>Node5&#45;&gt;Node6</title>
<path fill="none" stroke="midnightblue" d="M371.723,-60.9646C379.915,-60.4333 389.188,-60.1983 398.337,-60.2595"/>
<polygon fill="midnightblue" stroke="midnightblue" points="371.339,-57.4846 361.678,-61.8337 371.943,-64.4586 371.339,-57.4846"/>
</g>
<!-- Node6&#45;&gt;Node5 -->
<g id="edge5" class="edge"><title>Node6&#45;&gt;Node5</title>
<path fill="none" stroke="midnightblue" d="M388.17,-73.6864C378.483,-73.5172 369.163,-73.0105 361.678,-72.1663"/>
<polygon fill="midnightblue" stroke="midnightblue" points="388.319,-77.1871 398.337,-73.7405 388.356,-70.1872 388.319,-77.1871"/>
</g>
<!-- Node7&#45;&gt;Node5 -->
<g id="edge7" class="edge"><title>Node7&#45;&gt;Node5</title>
<path fill="none" stroke="midnightblue" d="M300.363,-57.6885C309.613,-59.7087 318.811,-61.7174 326.283,-63.3493"/>
<polygon fill="midnightblue" stroke="midnightblue" points="300.901,-54.2236 290.385,-55.5093 299.408,-61.0624 300.901,-54.2236"/>
</g>
</g>
</svg>
