<?xml version="1.0" encoding="UTF-8" standalone="no"?>
<!DOCTYPE svg PUBLIC "-//W3C//DTD SVG 1.1//EN"
 "http://www.w3.org/Graphics/SVG/1.1/DTD/svg11.dtd">
<!-- Generated by graphviz version 2.36.0 (20140111.2315)
 -->
<!-- Title: nb_view_patches Pages: 1 -->
<svg width="544pt" height="38pt"
 viewBox="0.00 0.00 544.00 38.00" xmlns="http://www.w3.org/2000/svg" xmlns:xlink="http://www.w3.org/1999/xlink">
<g id="graph0" class="graph" transform="scale(1 1) rotate(0) translate(4 34)">
<title>nb_view_patches</title>
<polygon fill="white" stroke="none" points="-4,4 -4,-34 540,-34 540,4 -4,4"/>
<!-- Node26 -->
<g id="node1" class="node"><title>Node26</title>
<polygon fill="#bfbfbf" stroke="black" points="0,-5.5 0,-24.5 94,-24.5 94,-5.5 0,-5.5"/>
<text text-anchor="middle" x="47" y="-12.5" font-family="Helvetica,sans-Serif" font-size="10.00">nb_view_patches</text>
</g>
<!-- Node27 -->
<g id="node2" class="node"><title>Node27</title>
<g id="a_node2"><a xlink:href="namespacecaiman_1_1utils_1_1visualization.html#a16b7fa13b839c4162b7c08d924c31358" target="_top" xlink:title="Gets contour of spatial components and returns their coordinates. ">
<polygon fill="white" stroke="black" points="130,-5.5 130,-24.5 204,-24.5 204,-5.5 130,-5.5"/>
<text text-anchor="middle" x="167" y="-12.5" font-family="Helvetica,sans-Serif" font-size="10.00">get_contours</text>
</a>
</g>
</g>
<!-- Node26&#45;&gt;Node27 -->
<g id="edge1" class="edge"><title>Node26&#45;&gt;Node27</title>
<path fill="none" stroke="midnightblue" d="M94.298,-15C102.561,-15 111.172,-15 119.442,-15"/>
<polygon fill="midnightblue" stroke="midnightblue" points="119.682,-18.5001 129.682,-15 119.682,-11.5001 119.682,-18.5001"/>
</g>
<!-- Node28 -->
<g id="node3" class="node"><title>Node28</title>
<g id="a_node3"><a xlink:href="namespacecaiman_1_1utils_1_1visualization.html#a73c99e5e42d83a663f260f473a80e17c" target="_top" xlink:title="Interactive plotting utility for ipython notbook. ">
<polygon fill="white" stroke="black" points="240.5,-5.5 240.5,-24.5 345.5,-24.5 345.5,-5.5 240.5,-5.5"/>
<text text-anchor="middle" x="293" y="-12.5" font-family="Helvetica,sans-Serif" font-size="10.00">nb_view_patches3d</text>
</a>
</g>
</g>
<!-- Node27&#45;&gt;Node28 -->
<g id="edge2" class="edge"><title>Node27&#45;&gt;Node28</title>
<path fill="none" stroke="midnightblue" d="M204.199,-8.79887C212.406,-8.42912 221.346,-8.24618 230.278,-8.25006"/>
<polygon fill="midnightblue" stroke="midnightblue" points="230.292,-11.7502 240.321,-8.33382 230.35,-4.75044 230.292,-11.7502"/>
</g>
<!-- Node28&#45;&gt;Node27 -->
<g id="edge4" class="edge"><title>Node28&#45;&gt;Node27</title>
<path fill="none" stroke="midnightblue" d="M240.321,-21.6662C231.689,-21.8076 222.782,-21.7701 214.296,-21.5537"/>
<polygon fill="midnightblue" stroke="midnightblue" points="214.315,-18.0524 204.199,-21.2011 214.071,-25.0481 214.315,-18.0524"/>
</g>
<!-- Node29 -->
<g id="node4" class="node"><title>Node29</title>
<g id="a_node4"><a xlink:href="namespacecaiman_1_1summary__images.html#ae17ab7076653cb3f5db43612a005c646" target="_top" xlink:title="Computes the correlation image for the input dataset Y. ">
<polygon fill="white" stroke="black" points="382,-0 382,-30 536,-30 536,-0 382,-0"/>
<text text-anchor="start" x="390" y="-18" font-family="Helvetica,sans-Serif" font-size="10.00">caiman.summary_images.local</text>
<text text-anchor="middle" x="459" y="-7" font-family="Helvetica,sans-Serif" font-size="10.00">_correlations</text>
</a>
</g>
</g>
<!-- Node28&#45;&gt;Node29 -->
<g id="edge3" class="edge"><title>Node28&#45;&gt;Node29</title>
<path fill="none" stroke="midnightblue" d="M345.891,-15C354.209,-15 363.007,-15 371.87,-15"/>
<polygon fill="midnightblue" stroke="midnightblue" points="371.881,-18.5001 381.881,-15 371.881,-11.5001 371.881,-18.5001"/>
</g>
</g>
</svg>
