<?xml version="1.0" encoding="UTF-8" standalone="no"?>
<!DOCTYPE svg PUBLIC "-//W3C//DTD SVG 1.1//EN"
 "http://www.w3.org/Graphics/SVG/1.1/DTD/svg11.dtd">
<!-- Generated by graphviz version 2.36.0 (20140111.2315)
 -->
<!-- Title: local_correlations Pages: 1 -->
<svg width="634pt" height="38pt"
 viewBox="0.00 0.00 634.00 38.00" xmlns="http://www.w3.org/2000/svg" xmlns:xlink="http://www.w3.org/1999/xlink">
<g id="graph0" class="graph" transform="scale(1 1) rotate(0) translate(4 34)">
<title>local_correlations</title>
<polygon fill="white" stroke="none" points="-4,4 -4,-34 630,-34 630,4 -4,4"/>
<!-- Node1 -->
<g id="node1" class="node"><title>Node1</title>
<polygon fill="#bfbfbf" stroke="black" points="0,-5.5 0,-24.5 94,-24.5 94,-5.5 0,-5.5"/>
<text text-anchor="middle" x="47" y="-12.5" font-family="Helvetica,sans-Serif" font-size="10.00">local_correlations</text>
</g>
<!-- Node2 -->
<g id="node2" class="node"><title>Node2</title>
<g id="a_node2"><a xlink:href="namespacecaiman_1_1utils_1_1visualization.html#a73c99e5e42d83a663f260f473a80e17c" target="_top" xlink:title="Interactive plotting utility for ipython notbook. ">
<polygon fill="white" stroke="black" points="130,-0 130,-30 270,-30 270,-0 130,-0"/>
<text text-anchor="start" x="138" y="-18" font-family="Helvetica,sans-Serif" font-size="10.00">caiman.utils.visualization.nb</text>
<text text-anchor="middle" x="200" y="-7" font-family="Helvetica,sans-Serif" font-size="10.00">_view_patches3d</text>
</a>
</g>
</g>
<!-- Node1&#45;&gt;Node2 -->
<g id="edge1" class="edge"><title>Node1&#45;&gt;Node2</title>
<path fill="none" stroke="midnightblue" d="M104.132,-15C112.499,-15 121.207,-15 129.804,-15"/>
<polygon fill="midnightblue" stroke="midnightblue" points="104.125,-11.5001 94.1255,-15 104.125,-18.5001 104.125,-11.5001"/>
</g>
<!-- Node3 -->
<g id="node3" class="node"><title>Node3</title>
<g id="a_node3"><a xlink:href="namespacecaiman_1_1utils_1_1visualization.html#a16b7fa13b839c4162b7c08d924c31358" target="_top" xlink:title="Gets contour of spatial components and returns their coordinates. ">
<polygon fill="white" stroke="black" points="306.5,-0 306.5,-30 449.5,-30 449.5,-0 306.5,-0"/>
<text text-anchor="start" x="314.5" y="-18" font-family="Helvetica,sans-Serif" font-size="10.00">caiman.utils.visualization.get</text>
<text text-anchor="middle" x="378" y="-7" font-family="Helvetica,sans-Serif" font-size="10.00">_contours</text>
</a>
</g>
</g>
<!-- Node2&#45;&gt;Node3 -->
<g id="edge2" class="edge"><title>Node2&#45;&gt;Node3</title>
<path fill="none" stroke="midnightblue" d="M280.226,-8.27991C288.953,-8.22023 297.796,-8.24986 306.408,-8.36879"/>
<polygon fill="midnightblue" stroke="midnightblue" points="280.016,-4.7819 270.055,-8.391 280.092,-11.7815 280.016,-4.7819"/>
</g>
<!-- Node3&#45;&gt;Node2 -->
<g id="edge4" class="edge"><title>Node3&#45;&gt;Node2</title>
<path fill="none" stroke="midnightblue" d="M296.213,-21.7298C287.473,-21.7788 278.638,-21.7386 270.055,-21.609"/>
<polygon fill="midnightblue" stroke="midnightblue" points="296.443,-25.2278 306.408,-21.6312 296.375,-18.2282 296.443,-25.2278"/>
</g>
<!-- Node4 -->
<g id="node4" class="node"><title>Node4</title>
<g id="a_node4"><a xlink:href="namespacecaiman_1_1utils_1_1visualization.html#a6954f6ef72e703af3959f02b7b4bb6d8" target="_top" xlink:title="Interactive plotting utility for ipython notbook. ">
<polygon fill="white" stroke="black" points="486,-0 486,-30 626,-30 626,-0 486,-0"/>
<text text-anchor="start" x="494" y="-18" font-family="Helvetica,sans-Serif" font-size="10.00">caiman.utils.visualization.nb</text>
<text text-anchor="middle" x="556" y="-7" font-family="Helvetica,sans-Serif" font-size="10.00">_view_patches</text>
</a>
</g>
</g>
<!-- Node3&#45;&gt;Node4 -->
<g id="edge3" class="edge"><title>Node3&#45;&gt;Node4</title>
<path fill="none" stroke="midnightblue" d="M459.744,-15C468.463,-15 477.279,-15 485.845,-15"/>
<polygon fill="midnightblue" stroke="midnightblue" points="459.572,-11.5001 449.572,-15 459.572,-18.5001 459.572,-11.5001"/>
</g>
</g>
</svg>
