<?xml version="1.0" encoding="UTF-8" standalone="no"?>
<!DOCTYPE svg PUBLIC "-//W3C//DTD SVG 1.1//EN"
 "http://www.w3.org/Graphics/SVG/1.1/DTD/svg11.dtd">
<!-- Generated by graphviz version 2.36.0 (20140111.2315)
 -->
<!-- Title: constrained_foopsi Pages: 1 -->
<svg width="744pt" height="119pt"
 viewBox="0.00 0.00 744.00 118.78" xmlns="http://www.w3.org/2000/svg" xmlns:xlink="http://www.w3.org/1999/xlink">
<g id="graph0" class="graph" transform="scale(1 1) rotate(0) translate(4 114.783)">
<title>constrained_foopsi</title>
<polygon fill="white" stroke="none" points="-4,4 -4,-114.783 740,-114.783 740,4 -4,4"/>
<!-- Node21 -->
<g id="node1" class="node"><title>Node21</title>
<polygon fill="#bfbfbf" stroke="black" points="0,-57.5 0,-76.5 100,-76.5 100,-57.5 0,-57.5"/>
<text text-anchor="middle" x="50" y="-64.5" font-family="Helvetica,sans-Serif" font-size="10.00">constrained_foopsi</text>
</g>
<!-- Node22 -->
<g id="node2" class="node"><title>Node22</title>
<g id="a_node2"><a xlink:href="namespacecaiman_1_1source__extraction_1_1cnmf_1_1deconvolution.html#a7199190b4f33e4a70dedc9deea7e4c45" target="_top" xlink:title="estimate_parameters">
<polygon fill="white" stroke="black" points="290,-76.5 290,-95.5 400,-95.5 400,-76.5 290,-76.5"/>
<text text-anchor="middle" x="345" y="-83.5" font-family="Helvetica,sans-Serif" font-size="10.00">estimate_parameters</text>
</a>
</g>
</g>
<!-- Node21&#45;&gt;Node22 -->
<g id="edge1" class="edge"><title>Node21&#45;&gt;Node22</title>
<path fill="none" stroke="midnightblue" d="M66.9136,-76.5717C83.4904,-85.9398 110.548,-99.5697 136,-105 191.368,-116.813 256.565,-107.15 299.009,-97.8129"/>
<polygon fill="midnightblue" stroke="midnightblue" points="300.058,-101.164 309.025,-95.5221 298.497,-94.3397 300.058,-101.164"/>
</g>
<!-- Node27 -->
<g id="node7" class="node"><title>Node27</title>
<g id="a_node7"><a xlink:href="namespacecaiman_1_1source__extraction_1_1cnmf_1_1deconvolution.html#a04aa84702e9977187b4ac0ba95891fb6" target="_top" xlink:title="Solve the deconvolution problem using cvxopt and picos packages. ">
<polygon fill="white" stroke="black" points="156,-76.5 156,-95.5 234,-95.5 234,-76.5 156,-76.5"/>
<text text-anchor="middle" x="195" y="-83.5" font-family="Helvetica,sans-Serif" font-size="10.00">cvxopt_foopsi</text>
</a>
</g>
</g>
<!-- Node21&#45;&gt;Node27 -->
<g id="edge7" class="edge"><title>Node21&#45;&gt;Node27</title>
<path fill="none" stroke="midnightblue" d="M100.212,-73.5387C115.048,-75.5098 131.305,-77.6699 146.057,-79.6299"/>
<polygon fill="midnightblue" stroke="midnightblue" points="145.619,-83.1024 155.993,-80.9501 146.541,-76.1634 145.619,-83.1024"/>
</g>
<!-- Node28 -->
<g id="node8" class="node"><title>Node28</title>
<g id="a_node8"><a xlink:href="namespacecaiman_1_1source__extraction_1_1cnmf_1_1deconvolution.html#a0dd508a8cc717626fa4c45d0a5c08bfd" target="_top" xlink:title="Solves the deconvolution problem using the cvxpy package and the ECOS/SCS library. ">
<polygon fill="white" stroke="black" points="158,-38.5 158,-57.5 232,-57.5 232,-38.5 158,-38.5"/>
<text text-anchor="middle" x="195" y="-45.5" font-family="Helvetica,sans-Serif" font-size="10.00">cvxpy_foopsi</text>
</a>
</g>
</g>
<!-- Node21&#45;&gt;Node28 -->
<g id="edge8" class="edge"><title>Node21&#45;&gt;Node28</title>
<path fill="none" stroke="midnightblue" d="M100.212,-60.4613C115.573,-58.4204 132.458,-56.1769 147.617,-54.1627"/>
<polygon fill="midnightblue" stroke="midnightblue" points="148.345,-57.5969 157.797,-52.8102 147.423,-50.6579 148.345,-57.5969"/>
</g>
<!-- Node29 -->
<g id="node9" class="node"><title>Node29</title>
<g id="a_node9"><a xlink:href="namespacecaiman_1_1source__extraction_1_1cnmf_1_1deconvolution.html#a5753e123f06d6f8a5f53e8f1cc50baba" target="_top" xlink:title="Infer the most likely discretized spike train underlying an AR(2) fluorescence trace. ">
<polygon fill="white" stroke="black" points="136.5,-0.5 136.5,-19.5 253.5,-19.5 253.5,-0.5 136.5,-0.5"/>
<text text-anchor="middle" x="195" y="-7.5" font-family="Helvetica,sans-Serif" font-size="10.00">constrained_oasisAR2</text>
</a>
</g>
</g>
<!-- Node21&#45;&gt;Node29 -->
<g id="edge9" class="edge"><title>Node21&#45;&gt;Node29</title>
<path fill="none" stroke="midnightblue" d="M71.0169,-57.3424C88.0861,-49.2789 113.381,-37.7338 136,-29 141.509,-26.8728 147.369,-24.7712 153.165,-22.785"/>
<polygon fill="midnightblue" stroke="midnightblue" points="154.413,-26.0582 162.786,-19.567 152.193,-19.4196 154.413,-26.0582"/>
</g>
<!-- Node23 -->
<g id="node3" class="node"><title>Node23</title>
<g id="a_node3"><a xlink:href="namespacecaiman_1_1source__extraction_1_1cnmf_1_1deconvolution.html#a16b9a254776edd0d9093ee35b1ef17a2" target="_top" xlink:title="GetSn">
<polygon fill="white" stroke="black" points="594.5,-76.5 594.5,-95.5 639.5,-95.5 639.5,-76.5 594.5,-76.5"/>
<text text-anchor="middle" x="617" y="-83.5" font-family="Helvetica,sans-Serif" font-size="10.00">GetSn</text>
</a>
</g>
</g>
<!-- Node22&#45;&gt;Node23 -->
<g id="edge2" class="edge"><title>Node22&#45;&gt;Node23</title>
<path fill="none" stroke="midnightblue" d="M400.314,-86C455.486,-86 539.057,-86 584.267,-86"/>
<polygon fill="midnightblue" stroke="midnightblue" points="584.366,-89.5001 594.366,-86 584.366,-82.5001 584.366,-89.5001"/>
</g>
<!-- Node24 -->
<g id="node4" class="node"><title>Node24</title>
<g id="a_node4"><a xlink:href="namespacecaiman_1_1source__extraction_1_1cnmf_1_1deconvolution.html#a7a73db2b3e0e88f4a5f30f80944c1319" target="_top" xlink:title="estimate_time_constant">
<polygon fill="white" stroke="black" points="436,-38.5 436,-57.5 558,-57.5 558,-38.5 436,-38.5"/>
<text text-anchor="middle" x="497" y="-45.5" font-family="Helvetica,sans-Serif" font-size="10.00">estimate_time_constant</text>
</a>
</g>
</g>
<!-- Node22&#45;&gt;Node24 -->
<g id="edge3" class="edge"><title>Node22&#45;&gt;Node24</title>
<path fill="none" stroke="midnightblue" d="M383.851,-76.411C403.467,-71.4417 427.619,-65.3233 448.479,-60.0387"/>
<polygon fill="midnightblue" stroke="midnightblue" points="449.587,-63.3687 458.421,-57.5201 447.868,-56.5831 449.587,-63.3687"/>
</g>
<!-- Node24&#45;&gt;Node23 -->
<g id="edge4" class="edge"><title>Node24&#45;&gt;Node23</title>
<path fill="none" stroke="midnightblue" d="M527.776,-57.589C545.127,-63.1764 566.988,-70.2164 584.608,-75.8906"/>
<polygon fill="midnightblue" stroke="midnightblue" points="583.834,-79.3185 594.426,-79.0523 585.98,-72.6554 583.834,-79.3185"/>
</g>
<!-- Node25 -->
<g id="node5" class="node"><title>Node25</title>
<g id="a_node5"><a xlink:href="namespacecaiman_1_1source__extraction_1_1cnmf_1_1deconvolution.html#a458da977dee6e97910a1b006e899b309" target="_top" xlink:title="axcov">
<polygon fill="white" stroke="black" points="595.5,-38.5 595.5,-57.5 638.5,-57.5 638.5,-38.5 595.5,-38.5"/>
<text text-anchor="middle" x="617" y="-45.5" font-family="Helvetica,sans-Serif" font-size="10.00">axcov</text>
</a>
</g>
</g>
<!-- Node24&#45;&gt;Node25 -->
<g id="edge5" class="edge"><title>Node24&#45;&gt;Node25</title>
<path fill="none" stroke="midnightblue" d="M558.037,-48C567.485,-48 576.897,-48 585.304,-48"/>
<polygon fill="midnightblue" stroke="midnightblue" points="585.343,-51.5001 595.343,-48 585.343,-44.5001 585.343,-51.5001"/>
</g>
<!-- Node26 -->
<g id="node6" class="node"><title>Node26</title>
<g id="a_node6"><a xlink:href="namespacecaiman_1_1source__extraction_1_1cnmf_1_1deconvolution.html#a8d83696f273bd0121651cf48a6b899ae" target="_top" xlink:title="nextpow2">
<polygon fill="white" stroke="black" points="676.5,-38.5 676.5,-57.5 735.5,-57.5 735.5,-38.5 676.5,-38.5"/>
<text text-anchor="middle" x="706" y="-45.5" font-family="Helvetica,sans-Serif" font-size="10.00">nextpow2</text>
</a>
</g>
</g>
<!-- Node25&#45;&gt;Node26 -->
<g id="edge6" class="edge"><title>Node25&#45;&gt;Node26</title>
<path fill="none" stroke="midnightblue" d="M638.618,-48C646.884,-48 656.69,-48 666.195,-48"/>
<polygon fill="midnightblue" stroke="midnightblue" points="666.302,-51.5001 676.302,-48 666.302,-44.5001 666.302,-51.5001"/>
</g>
<!-- Node29&#45;&gt;Node22 -->
<g id="edge14" class="edge"><title>Node29&#45;&gt;Node22</title>
<path fill="none" stroke="midnightblue" d="M233.223,-19.5844C240.36,-22.1376 247.598,-25.2551 254,-29 272.735,-39.9588 271.846,-50.1035 290,-62 295.765,-65.778 302.224,-69.226 308.615,-72.2571"/>
<polygon fill="midnightblue" stroke="midnightblue" points="307.284,-75.496 317.841,-76.3894 310.146,-69.1075 307.284,-75.496"/>
</g>
<!-- Node29&#45;&gt;Node24 -->
<g id="edge10" class="edge"><title>Node29&#45;&gt;Node24</title>
<path fill="none" stroke="midnightblue" d="M238.413,-19.5797C254.502,-22.9481 273.033,-26.5101 290,-29 334.948,-35.596 385.77,-40.3124 425.688,-43.3963"/>
<polygon fill="midnightblue" stroke="midnightblue" points="425.618,-46.9009 435.854,-44.1647 426.146,-39.9208 425.618,-46.9009"/>
</g>
<!-- Node30 -->
<g id="node10" class="node"><title>Node30</title>
<g id="a_node10"><a xlink:href="namespacecaiman_1_1source__extraction_1_1cnmf_1_1deconvolution.html#affae481e26d5e13bc6f62c6e643b63d5" target="_top" xlink:title="Infer the most likely discretized spike train underlying an AR(2) fluorescence trace. ">
<polygon fill="white" stroke="black" points="325,-0.5 325,-19.5 365,-19.5 365,-0.5 325,-0.5"/>
<text text-anchor="middle" x="345" y="-7.5" font-family="Helvetica,sans-Serif" font-size="10.00">onnls</text>
</a>
</g>
</g>
<!-- Node29&#45;&gt;Node30 -->
<g id="edge11" class="edge"><title>Node29&#45;&gt;Node30</title>
<path fill="none" stroke="midnightblue" d="M253.644,-3.39873C274.481,-3.01409 297.138,-3.37551 314.552,-4.48299"/>
<polygon fill="midnightblue" stroke="midnightblue" points="314.413,-7.98262 324.654,-5.26896 314.956,-1.00372 314.413,-7.98262"/>
</g>
<!-- Node30&#45;&gt;Node29 -->
<g id="edge13" class="edge"><title>Node30&#45;&gt;Node29</title>
<path fill="none" stroke="midnightblue" d="M324.654,-14.731C309.016,-16.215 286.021,-16.881 263.781,-16.7288"/>
<polygon fill="midnightblue" stroke="midnightblue" points="263.688,-13.2274 253.644,-16.6013 263.6,-20.2269 263.688,-13.2274"/>
</g>
<!-- Node31 -->
<g id="node11" class="node"><title>Node31</title>
<g id="a_node11"><a xlink:href="namespacecaiman_1_1source__extraction_1_1cnmf_1_1deconvolution.html#ad9f9b2ef0aad5c652f86bd8c7ae64bdd" target="_top" xlink:title="_nnls">
<polygon fill="white" stroke="black" points="477,-0.5 477,-19.5 517,-19.5 517,-0.5 477,-0.5"/>
<text text-anchor="middle" x="497" y="-7.5" font-family="Helvetica,sans-Serif" font-size="10.00">_nnls</text>
</a>
</g>
</g>
<!-- Node30&#45;&gt;Node31 -->
<g id="edge12" class="edge"><title>Node30&#45;&gt;Node31</title>
<path fill="none" stroke="midnightblue" d="M365.303,-10C390.955,-10 436.52,-10 466.498,-10"/>
<polygon fill="midnightblue" stroke="midnightblue" points="466.771,-13.5001 476.771,-10 466.771,-6.5001 466.771,-13.5001"/>
</g>
</g>
</svg>
