<?xml version="1.0" encoding="UTF-8" standalone="no"?>
<!DOCTYPE svg PUBLIC "-//W3C//DTD SVG 1.1//EN"
 "http://www.w3.org/Graphics/SVG/1.1/DTD/svg11.dtd">
<!-- Generated by graphviz version 2.36.0 (20140111.2315)
 -->
<!-- Title: _nnls Pages: 1 -->
<svg width="916pt" height="131pt"
 viewBox="0.00 0.00 916.00 131.00" xmlns="http://www.w3.org/2000/svg" xmlns:xlink="http://www.w3.org/1999/xlink">
<g id="graph0" class="graph" transform="scale(1 1) rotate(0) translate(4 127)">
<title>_nnls</title>
<polygon fill="white" stroke="none" points="-4,4 -4,-127 912,-127 912,4 -4,4"/>
<!-- Node1 -->
<g id="node1" class="node"><title>Node1</title>
<polygon fill="#bfbfbf" stroke="black" points="0,-49.5 0,-68.5 40,-68.5 40,-49.5 0,-49.5"/>
<text text-anchor="middle" x="20" y="-56.5" font-family="Helvetica,sans-Serif" font-size="10.00">_nnls</text>
</g>
<!-- Node2 -->
<g id="node2" class="node"><title>Node2</title>
<g id="a_node2"><a xlink:href="namespacecaiman_1_1source__extraction_1_1cnmf_1_1deconvolution.html#affae481e26d5e13bc6f62c6e643b63d5" target="_top" xlink:title="Infer the most likely discretized spike train underlying an AR(2) fluorescence trace. ">
<polygon fill="white" stroke="black" points="76,-49.5 76,-68.5 116,-68.5 116,-49.5 76,-49.5"/>
<text text-anchor="middle" x="96" y="-56.5" font-family="Helvetica,sans-Serif" font-size="10.00">onnls</text>
</a>
</g>
</g>
<!-- Node1&#45;&gt;Node2 -->
<g id="edge1" class="edge"><title>Node1&#45;&gt;Node2</title>
<path fill="none" stroke="midnightblue" d="M50.1256,-59C58.7317,-59 67.9337,-59 75.7505,-59"/>
<polygon fill="midnightblue" stroke="midnightblue" points="50.0569,-55.5001 40.0568,-59 50.0568,-62.5001 50.0569,-55.5001"/>
</g>
<!-- Node3 -->
<g id="node3" class="node"><title>Node3</title>
<g id="a_node3"><a xlink:href="namespacecaiman_1_1source__extraction_1_1cnmf_1_1deconvolution.html#a5753e123f06d6f8a5f53e8f1cc50baba" target="_top" xlink:title="Infer the most likely discretized spike train underlying an AR(2) fluorescence trace. ">
<polygon fill="white" stroke="black" points="152.5,-49.5 152.5,-68.5 269.5,-68.5 269.5,-49.5 152.5,-49.5"/>
<text text-anchor="middle" x="211" y="-56.5" font-family="Helvetica,sans-Serif" font-size="10.00">constrained_oasisAR2</text>
</a>
</g>
</g>
<!-- Node2&#45;&gt;Node3 -->
<g id="edge2" class="edge"><title>Node2&#45;&gt;Node3</title>
<path fill="none" stroke="midnightblue" d="M126.369,-52.9957C134.341,-52.5212 143.258,-52.2732 152.217,-52.2515"/>
<polygon fill="midnightblue" stroke="midnightblue" points="125.87,-49.5237 116.169,-53.783 126.409,-56.5029 125.87,-49.5237"/>
</g>
<!-- Node3&#45;&gt;Node2 -->
<g id="edge8" class="edge"><title>Node3&#45;&gt;Node2</title>
<path fill="none" stroke="midnightblue" d="M142.203,-65.6286C132.703,-65.422 123.646,-64.9514 116.169,-64.217"/>
<polygon fill="midnightblue" stroke="midnightblue" points="142.176,-69.1284 152.217,-65.7485 142.26,-62.1289 142.176,-69.1284"/>
</g>
<!-- Node4 -->
<g id="node4" class="node"><title>Node4</title>
<g id="a_node4"><a xlink:href="namespacecaiman_1_1source__extraction_1_1cnmf_1_1deconvolution.html#a0afb63d84485a181bb40f2eefe7b581e" target="_top" xlink:title="Infer the most likely discretized spike train underlying a fluorescence trace. ">
<polygon fill="white" stroke="black" points="306,-49.5 306,-68.5 406,-68.5 406,-49.5 306,-49.5"/>
<text text-anchor="middle" x="356" y="-56.5" font-family="Helvetica,sans-Serif" font-size="10.00">constrained_foopsi</text>
</a>
</g>
</g>
<!-- Node3&#45;&gt;Node4 -->
<g id="edge3" class="edge"><title>Node3&#45;&gt;Node4</title>
<path fill="none" stroke="midnightblue" d="M279.918,-59C288.634,-59 297.42,-59 305.758,-59"/>
<polygon fill="midnightblue" stroke="midnightblue" points="279.751,-55.5001 269.751,-59 279.751,-62.5001 279.751,-55.5001"/>
</g>
<!-- Node5 -->
<g id="node5" class="node"><title>Node5</title>
<g id="a_node5"><a xlink:href="namespacecaiman_1_1source__extraction_1_1cnmf_1_1merging.html#ad08adf2e086a22ef379b10ed3ee36936" target="_top" xlink:title="Merging of spatially overlapping components that have highly correlated temporal activity The correla...">
<polygon fill="white" stroke="black" points="455.5,-93 455.5,-123 680.5,-123 680.5,-93 455.5,-93"/>
<text text-anchor="start" x="463.5" y="-111" font-family="Helvetica,sans-Serif" font-size="10.00">caiman.source_extraction.cnmf.merging.merge</text>
<text text-anchor="middle" x="568" y="-100" font-family="Helvetica,sans-Serif" font-size="10.00">_components</text>
</a>
</g>
</g>
<!-- Node4&#45;&gt;Node5 -->
<g id="edge4" class="edge"><title>Node4&#45;&gt;Node5</title>
<path fill="none" stroke="midnightblue" d="M398.439,-71.3978C412.236,-75.3388 427.725,-79.5626 442,-83 456.523,-86.4971 472.078,-89.8881 487.111,-92.9858"/>
<polygon fill="midnightblue" stroke="midnightblue" points="399.312,-68.0068 388.733,-68.5934 397.368,-74.7318 399.312,-68.0068"/>
</g>
<!-- Node6 -->
<g id="node6" class="node"><title>Node6</title>
<g id="a_node6"><a xlink:href="namespacecaiman_1_1source__extraction_1_1cnmf_1_1temporal.html#a2ede407f1e0d0722f51ddb6e99f48f9f" target="_top" xlink:title="necessary for parallel computation of the function constrained_foopsi ">
<polygon fill="white" stroke="black" points="442.5,-44 442.5,-74 693.5,-74 693.5,-44 442.5,-44"/>
<text text-anchor="start" x="450.5" y="-62" font-family="Helvetica,sans-Serif" font-size="10.00">caiman.source_extraction.cnmf.temporal.constrained</text>
<text text-anchor="middle" x="568" y="-51" font-family="Helvetica,sans-Serif" font-size="10.00">_foopsi_parallel</text>
</a>
</g>
</g>
<!-- Node4&#45;&gt;Node6 -->
<g id="edge5" class="edge"><title>Node4&#45;&gt;Node6</title>
<path fill="none" stroke="midnightblue" d="M416.461,-59C424.748,-59 433.505,-59 442.458,-59"/>
<polygon fill="midnightblue" stroke="midnightblue" points="416.236,-55.5001 406.236,-59 416.236,-62.5001 416.236,-55.5001"/>
</g>
<!-- Node7 -->
<g id="node7" class="node"><title>Node7</title>
<g id="a_node7"><a xlink:href="namespacecaiman_1_1tests_1_1test__deconvolution.html#aaebeed7ce9541fa4c56791c67009cdc6" target="_top" xlink:title="caiman.tests.test_deconvolution.foo">
<polygon fill="white" stroke="black" points="480.5,-5.5 480.5,-24.5 655.5,-24.5 655.5,-5.5 480.5,-5.5"/>
<text text-anchor="middle" x="568" y="-12.5" font-family="Helvetica,sans-Serif" font-size="10.00">caiman.tests.test_deconvolution.foo</text>
</a>
</g>
</g>
<!-- Node4&#45;&gt;Node7 -->
<g id="edge6" class="edge"><title>Node4&#45;&gt;Node7</title>
<path fill="none" stroke="midnightblue" d="M397.324,-46.5757C411.373,-42.5243 427.299,-38.2399 442,-35 460.136,-31.0031 479.918,-27.4657 498.284,-24.52"/>
<polygon fill="midnightblue" stroke="midnightblue" points="396.08,-43.293 387.47,-49.4663 398.051,-50.01 396.08,-43.293"/>
</g>
<!-- Node8 -->
<g id="node8" class="node"><title>Node8</title>
<g id="a_node8"><a xlink:href="namespacecaiman_1_1tests_1_1test__deconvolution.html#a90f82ae854f8179179664fe34973f11b" target="_top" xlink:title="caiman.tests.test_deconvolution.test\l_oasis">
<polygon fill="white" stroke="black" points="730,-0 730,-30 908,-30 908,-0 730,-0"/>
<text text-anchor="start" x="738" y="-18" font-family="Helvetica,sans-Serif" font-size="10.00">caiman.tests.test_deconvolution.test</text>
<text text-anchor="middle" x="819" y="-7" font-family="Helvetica,sans-Serif" font-size="10.00">_oasis</text>
</a>
</g>
</g>
<!-- Node7&#45;&gt;Node8 -->
<g id="edge7" class="edge"><title>Node7&#45;&gt;Node8</title>
<path fill="none" stroke="midnightblue" d="M665.975,-15C687.031,-15 709.193,-15 729.885,-15"/>
<polygon fill="midnightblue" stroke="midnightblue" points="665.739,-11.5001 655.739,-15 665.739,-18.5001 665.739,-11.5001"/>
</g>
</g>
</svg>
