<?xml version="1.0" encoding="UTF-8" standalone="no"?>
<!DOCTYPE svg PUBLIC "-//W3C//DTD SVG 1.1//EN"
 "http://www.w3.org/Graphics/SVG/1.1/DTD/svg11.dtd">
<!-- Generated by graphviz version 2.36.0 (20140111.2315)
 -->
<!-- Title: fft_psd_parallel Pages: 1 -->
<svg width="302pt" height="28pt"
 viewBox="0.00 0.00 302.00 28.00" xmlns="http://www.w3.org/2000/svg" xmlns:xlink="http://www.w3.org/1999/xlink">
<g id="graph0" class="graph" transform="scale(1 1) rotate(0) translate(4 24)">
<title>fft_psd_parallel</title>
<polygon fill="white" stroke="none" points="-4,4 -4,-24 298,-24 298,4 -4,4"/>
<!-- Node15 -->
<g id="node1" class="node"><title>Node15</title>
<polygon fill="#bfbfbf" stroke="black" points="0,-0.5 0,-19.5 84,-19.5 84,-0.5 0,-0.5"/>
<text text-anchor="middle" x="42" y="-7.5" font-family="Helvetica,sans-Serif" font-size="10.00">fft_psd_parallel</text>
</g>
<!-- Node16 -->
<g id="node2" class="node"><title>Node16</title>
<g id="a_node2"><a xlink:href="namespacecaiman_1_1source__extraction_1_1cnmf_1_1pre__processing.html#a4ac9105671d13333d3a5ac455d1cc0d5" target="_top" xlink:title="Estimate the noise level for each pixel by averaging the power spectral density. ">
<polygon fill="white" stroke="black" points="120,-0.5 120,-19.5 194,-19.5 194,-0.5 120,-0.5"/>
<text text-anchor="middle" x="157" y="-7.5" font-family="Helvetica,sans-Serif" font-size="10.00">get_noise_fft</text>
</a>
</g>
</g>
<!-- Node15&#45;&gt;Node16 -->
<g id="edge1" class="edge"><title>Node15&#45;&gt;Node16</title>
<path fill="none" stroke="midnightblue" d="M84.1153,-10C92.4598,-10 101.289,-10 109.796,-10"/>
<polygon fill="midnightblue" stroke="midnightblue" points="109.959,-13.5001 119.958,-10 109.958,-6.5001 109.959,-13.5001"/>
</g>
<!-- Node17 -->
<g id="node3" class="node"><title>Node17</title>
<g id="a_node3"><a xlink:href="namespacecaiman_1_1source__extraction_1_1cnmf_1_1pre__processing.html#a0f1c3f32c6192896b14b1691f8f4ce2f" target="_top" xlink:title="Averaging the PSD. ">
<polygon fill="white" stroke="black" points="230.5,-0.5 230.5,-19.5 293.5,-19.5 293.5,-0.5 230.5,-0.5"/>
<text text-anchor="middle" x="262" y="-7.5" font-family="Helvetica,sans-Serif" font-size="10.00">mean_psd</text>
</a>
</g>
</g>
<!-- Node16&#45;&gt;Node17 -->
<g id="edge2" class="edge"><title>Node16&#45;&gt;Node17</title>
<path fill="none" stroke="midnightblue" d="M194.024,-10C202.438,-10 211.459,-10 220.068,-10"/>
<polygon fill="midnightblue" stroke="midnightblue" points="220.297,-13.5001 230.297,-10 220.297,-6.5001 220.297,-13.5001"/>
</g>
</g>
</svg>
