<?xml version="1.0" encoding="UTF-8" standalone="no"?>
<!DOCTYPE svg PUBLIC "-//W3C//DTD SVG 1.1//EN"
 "http://www.w3.org/Graphics/SVG/1.1/DTD/svg11.dtd">
<!-- Generated by graphviz version 2.36.0 (20140111.2315)
 -->
<!-- Title: _todict Pages: 1 -->
<svg width="586pt" height="104pt"
 viewBox="0.00 0.00 586.00 104.00" xmlns="http://www.w3.org/2000/svg" xmlns:xlink="http://www.w3.org/1999/xlink">
<g id="graph0" class="graph" transform="scale(1 1) rotate(0) translate(4 100)">
<title>_todict</title>
<polygon fill="white" stroke="none" points="-4,4 -4,-100 582,-100 582,4 -4,4"/>
<!-- Node10 -->
<g id="node1" class="node"><title>Node10</title>
<polygon fill="#bfbfbf" stroke="black" points="0,-38.5 0,-57.5 46,-57.5 46,-38.5 0,-38.5"/>
<text text-anchor="middle" x="23" y="-45.5" font-family="Helvetica,sans-Serif" font-size="10.00">_todict</text>
</g>
<!-- Node11 -->
<g id="node2" class="node"><title>Node11</title>
<g id="a_node2"><a xlink:href="namespacecaiman_1_1base_1_1movies.html#abb80862aafd574c59a95c0b24268be69" target="_top" xlink:title="_check_keys">
<polygon fill="white" stroke="black" points="82,-38.5 82,-57.5 156,-57.5 156,-38.5 82,-38.5"/>
<text text-anchor="middle" x="119" y="-45.5" font-family="Helvetica,sans-Serif" font-size="10.00">_check_keys</text>
</a>
</g>
</g>
<!-- Node10&#45;&gt;Node11 -->
<g id="edge1" class="edge"><title>Node10&#45;&gt;Node11</title>
<path fill="none" stroke="midnightblue" d="M56.2907,-48C64.5507,-48 73.4848,-48 81.9218,-48"/>
<polygon fill="midnightblue" stroke="midnightblue" points="56.2767,-44.5001 46.2767,-48 56.2767,-51.5001 56.2767,-44.5001"/>
</g>
<!-- Node12 -->
<g id="node3" class="node"><title>Node12</title>
<g id="a_node3"><a xlink:href="namespacecaiman_1_1base_1_1movies.html#a1dae08ecd6c4b9ef41d5e820eb86604d" target="_top" xlink:title="loadmat_sbx">
<polygon fill="white" stroke="black" points="192.5,-38.5 192.5,-57.5 265.5,-57.5 265.5,-38.5 192.5,-38.5"/>
<text text-anchor="middle" x="229" y="-45.5" font-family="Helvetica,sans-Serif" font-size="10.00">loadmat_sbx</text>
</a>
</g>
</g>
<!-- Node11&#45;&gt;Node12 -->
<g id="edge2" class="edge"><title>Node11&#45;&gt;Node12</title>
<path fill="none" stroke="midnightblue" d="M166.324,-48C175.05,-48 184.048,-48 192.383,-48"/>
<polygon fill="midnightblue" stroke="midnightblue" points="166.263,-44.5001 156.263,-48 166.263,-51.5001 166.263,-44.5001"/>
</g>
<!-- Node13 -->
<g id="node4" class="node"><title>Node13</title>
<g id="a_node4"><a xlink:href="namespacecaiman_1_1base_1_1movies.html#ad72bfc8cc5386d4470caa0be723598e9" target="_top" xlink:title="Input filename should be full path excluding .sbx. ">
<polygon fill="white" stroke="black" points="311,-76.5 311,-95.5 363,-95.5 363,-76.5 311,-76.5"/>
<text text-anchor="middle" x="337" y="-83.5" font-family="Helvetica,sans-Serif" font-size="10.00">sbxread</text>
</a>
</g>
</g>
<!-- Node12&#45;&gt;Node13 -->
<g id="edge3" class="edge"><title>Node12&#45;&gt;Node13</title>
<path fill="none" stroke="midnightblue" d="M266.483,-61.0789C281.062,-66.3053 297.494,-72.1958 310.72,-76.9373"/>
<polygon fill="midnightblue" stroke="midnightblue" points="267.343,-57.669 256.748,-57.589 264.981,-64.2584 267.343,-57.669"/>
</g>
<!-- Node16 -->
<g id="node7" class="node"><title>Node16</title>
<g id="a_node7"><a xlink:href="namespacecaiman_1_1base_1_1movies.html#ad9b115e435b36308da1248112f09f0db" target="_top" xlink:title="Input filename should be full path excluding .sbx. ">
<polygon fill="white" stroke="black" points="302,-38.5 302,-57.5 372,-57.5 372,-38.5 302,-38.5"/>
<text text-anchor="middle" x="337" y="-45.5" font-family="Helvetica,sans-Serif" font-size="10.00">sbxreadskip</text>
</a>
</g>
</g>
<!-- Node12&#45;&gt;Node16 -->
<g id="edge7" class="edge"><title>Node12&#45;&gt;Node16</title>
<path fill="none" stroke="midnightblue" d="M275.678,-48C284.427,-48 293.447,-48 301.76,-48"/>
<polygon fill="midnightblue" stroke="midnightblue" points="275.591,-44.5001 265.591,-48 275.591,-51.5001 275.591,-44.5001"/>
</g>
<!-- Node17 -->
<g id="node8" class="node"><title>Node17</title>
<g id="a_node8"><a xlink:href="namespacecaiman_1_1base_1_1movies.html#ade25f5174c4fa7d04d35b42a01f15803" target="_top" xlink:title="Input filename should be full path excluding .sbx. ">
<polygon fill="white" stroke="black" points="307.5,-0.5 307.5,-19.5 366.5,-19.5 366.5,-0.5 307.5,-0.5"/>
<text text-anchor="middle" x="337" y="-7.5" font-family="Helvetica,sans-Serif" font-size="10.00">sbxshape</text>
</a>
</g>
</g>
<!-- Node12&#45;&gt;Node17 -->
<g id="edge9" class="edge"><title>Node12&#45;&gt;Node17</title>
<path fill="none" stroke="midnightblue" d="M266.184,-35.0282C280.307,-29.9656 296.206,-24.2659 309.26,-19.5859"/>
<polygon fill="midnightblue" stroke="midnightblue" points="264.981,-31.7416 256.748,-38.411 267.343,-38.331 264.981,-31.7416"/>
</g>
<!-- Node14 -->
<g id="node5" class="node"><title>Node14</title>
<g id="a_node5"><a xlink:href="namespacecaiman_1_1base_1_1movies.html#a6d585c260307278135a0b4b09440b313" target="_top" xlink:title="load movie from file. ">
<polygon fill="white" stroke="black" points="408.5,-57.5 408.5,-76.5 443.5,-76.5 443.5,-57.5 408.5,-57.5"/>
<text text-anchor="middle" x="426" y="-64.5" font-family="Helvetica,sans-Serif" font-size="10.00">load</text>
</a>
</g>
</g>
<!-- Node13&#45;&gt;Node14 -->
<g id="edge4" class="edge"><title>Node13&#45;&gt;Node14</title>
<path fill="none" stroke="midnightblue" d="M373.107,-78.3329C385.306,-75.6688 398.421,-72.8047 408.414,-70.6223"/>
<polygon fill="midnightblue" stroke="midnightblue" points="372.187,-74.9513 363.164,-80.5044 373.681,-81.7901 372.187,-74.9513"/>
</g>
<!-- Node15 -->
<g id="node6" class="node"><title>Node15</title>
<g id="a_node6"><a xlink:href="namespacecaiman_1_1base_1_1movies.html#a5a35758b31edb4a9b2105a058a0882a6" target="_top" xlink:title="load movies from list of file names ">
<polygon fill="white" stroke="black" points="480.5,-57.5 480.5,-76.5 577.5,-76.5 577.5,-57.5 480.5,-57.5"/>
<text text-anchor="middle" x="529" y="-64.5" font-family="Helvetica,sans-Serif" font-size="10.00">load_movie_chain</text>
</a>
</g>
</g>
<!-- Node14&#45;&gt;Node15 -->
<g id="edge5" class="edge"><title>Node14&#45;&gt;Node15</title>
<path fill="none" stroke="midnightblue" d="M453.723,-60.9646C461.915,-60.4333 471.188,-60.1983 480.337,-60.2595"/>
<polygon fill="midnightblue" stroke="midnightblue" points="453.339,-57.4846 443.678,-61.8337 453.943,-64.4586 453.339,-57.4846"/>
</g>
<!-- Node15&#45;&gt;Node14 -->
<g id="edge6" class="edge"><title>Node15&#45;&gt;Node14</title>
<path fill="none" stroke="midnightblue" d="M470.17,-73.6864C460.483,-73.5172 451.163,-73.0105 443.678,-72.1663"/>
<polygon fill="midnightblue" stroke="midnightblue" points="470.319,-77.1871 480.337,-73.7405 470.356,-70.1872 470.319,-77.1871"/>
</g>
<!-- Node16&#45;&gt;Node14 -->
<g id="edge8" class="edge"><title>Node16&#45;&gt;Node14</title>
<path fill="none" stroke="midnightblue" d="M382.363,-57.6885C391.613,-59.7087 400.811,-61.7174 408.283,-63.3493"/>
<polygon fill="midnightblue" stroke="midnightblue" points="382.901,-54.2236 372.385,-55.5093 381.408,-61.0624 382.901,-54.2236"/>
</g>
</g>
</svg>
