<?xml version="1.0" encoding="UTF-8" standalone="no"?>
<!DOCTYPE svg PUBLIC "-//W3C//DTD SVG 1.1//EN"
 "http://www.w3.org/Graphics/SVG/1.1/DTD/svg11.dtd">
<!-- Generated by graphviz version 2.36.0 (20140111.2315)
 -->
<!-- Title: finetune Pages: 1 -->
<svg width="430pt" height="77pt"
 viewBox="0.00 0.00 430.00 77.00" xmlns="http://www.w3.org/2000/svg" xmlns:xlink="http://www.w3.org/1999/xlink">
<g id="graph0" class="graph" transform="scale(1 1) rotate(0) translate(4 73)">
<title>finetune</title>
<polygon fill="white" stroke="none" points="-4,4 -4,-73 426,-73 426,4 -4,4"/>
<!-- Node1 -->
<g id="node1" class="node"><title>Node1</title>
<polygon fill="#bfbfbf" stroke="black" points="0,-27.5 0,-46.5 52,-46.5 52,-27.5 0,-27.5"/>
<text text-anchor="middle" x="26" y="-34.5" font-family="Helvetica,sans-Serif" font-size="10.00">finetune</text>
</g>
<!-- Node2 -->
<g id="node2" class="node"><title>Node2</title>
<g id="a_node2"><a xlink:href="namespacecaiman_1_1source__extraction_1_1cnmf_1_1initialization.html#a7dd7bbb01fcb5237fc7d7674b870c9ae" target="_top" xlink:title="Greedy initialization of spatial and temporal components using spatial Gaussian filtering. ">
<polygon fill="white" stroke="black" points="88.5,-27.5 88.5,-46.5 153.5,-46.5 153.5,-27.5 88.5,-27.5"/>
<text text-anchor="middle" x="121" y="-34.5" font-family="Helvetica,sans-Serif" font-size="10.00">greedyROI</text>
</a>
</g>
</g>
<!-- Node1&#45;&gt;Node2 -->
<g id="edge1" class="edge"><title>Node1&#45;&gt;Node2</title>
<path fill="none" stroke="midnightblue" d="M62.4452,-37C70.9509,-37 79.9804,-37 88.3035,-37"/>
<polygon fill="midnightblue" stroke="midnightblue" points="62.4127,-33.5001 52.4127,-37 62.4126,-40.5001 62.4127,-33.5001"/>
</g>
<!-- Node3 -->
<g id="node3" class="node"><title>Node3</title>
<g id="a_node3"><a xlink:href="namespacecaiman_1_1source__extraction_1_1cnmf_1_1initialization.html#ad762ff1c4aefedc408fe609de7cb1ebc" target="_top" xlink:title="Initalize components. ">
<polygon fill="white" stroke="black" points="250,-49.5 250,-68.5 362,-68.5 362,-49.5 250,-49.5"/>
<text text-anchor="middle" x="306" y="-56.5" font-family="Helvetica,sans-Serif" font-size="10.00">initialize_components</text>
</a>
</g>
</g>
<!-- Node2&#45;&gt;Node3 -->
<g id="edge2" class="edge"><title>Node2&#45;&gt;Node3</title>
<path fill="none" stroke="midnightblue" d="M163.958,-42.0441C189.44,-45.1076 222.262,-49.0533 249.83,-52.3676"/>
<polygon fill="midnightblue" stroke="midnightblue" points="164.222,-38.5508 153.876,-40.8321 163.387,-45.5008 164.222,-38.5508"/>
</g>
<!-- Node4 -->
<g id="node4" class="node"><title>Node4</title>
<g id="a_node4"><a xlink:href="namespacecaiman_1_1source__extraction_1_1cnmf_1_1utilities.html#ad671b2e9120b3437304b3149d174f625" target="_top" xlink:title="Plots contour of spatial components against a background image and allows to interactively add novel ...">
<polygon fill="white" stroke="black" points="190.5,-0 190.5,-30 421.5,-30 421.5,-0 190.5,-0"/>
<text text-anchor="start" x="198.5" y="-18" font-family="Helvetica,sans-Serif" font-size="10.00">caiman.source_extraction.cnmf.utilities.manually</text>
<text text-anchor="middle" x="306" y="-7" font-family="Helvetica,sans-Serif" font-size="10.00">_refine_components</text>
</a>
</g>
</g>
<!-- Node2&#45;&gt;Node4 -->
<g id="edge3" class="edge"><title>Node2&#45;&gt;Node4</title>
<path fill="none" stroke="midnightblue" d="M163.834,-31.9707C172.044,-30.9838 181.019,-29.9048 190.338,-28.7846"/>
<polygon fill="midnightblue" stroke="midnightblue" points="163.387,-28.4992 153.876,-33.1679 164.222,-35.4492 163.387,-28.4992"/>
</g>
</g>
</svg>
