<?xml version="1.0" encoding="UTF-8" standalone="no"?>
<!DOCTYPE svg PUBLIC "-//W3C//DTD SVG 1.1//EN"
 "http://www.w3.org/Graphics/SVG/1.1/DTD/svg11.dtd">
<!-- Generated by graphviz version 2.36.0 (20140111.2315)
 -->
<!-- Title: initialize_components Pages: 1 -->
<svg width="386pt" height="172pt"
 viewBox="0.00 0.00 386.00 172.00" xmlns="http://www.w3.org/2000/svg" xmlns:xlink="http://www.w3.org/1999/xlink">
<g id="graph0" class="graph" transform="scale(1 1) rotate(0) translate(4 168)">
<title>initialize_components</title>
<polygon fill="white" stroke="none" points="-4,4 -4,-168 382,-168 382,4 -4,4"/>
<!-- Node24 -->
<g id="node1" class="node"><title>Node24</title>
<polygon fill="#bfbfbf" stroke="black" points="0,-68.5 0,-87.5 112,-87.5 112,-68.5 0,-68.5"/>
<text text-anchor="middle" x="56" y="-75.5" font-family="Helvetica,sans-Serif" font-size="10.00">initialize_components</text>
</g>
<!-- Node25 -->
<g id="node2" class="node"><title>Node25</title>
<g id="a_node2"><a xlink:href="namespacecaiman_1_1source__extraction_1_1cnmf_1_1initialization.html#a7dd7bbb01fcb5237fc7d7674b870c9ae" target="_top" xlink:title="Greedy initialization of spatial and temporal components using spatial Gaussian filtering. ">
<polygon fill="white" stroke="black" points="149.5,-125.5 149.5,-144.5 214.5,-144.5 214.5,-125.5 149.5,-125.5"/>
<text text-anchor="middle" x="182" y="-132.5" font-family="Helvetica,sans-Serif" font-size="10.00">greedyROI</text>
</a>
</g>
</g>
<!-- Node24&#45;&gt;Node25 -->
<g id="edge1" class="edge"><title>Node24&#45;&gt;Node25</title>
<path fill="none" stroke="midnightblue" d="M77.7548,-87.5405C97.7833,-96.7472 128.321,-110.785 150.995,-121.207"/>
<polygon fill="midnightblue" stroke="midnightblue" points="149.63,-124.432 160.177,-125.428 152.553,-118.072 149.63,-124.432"/>
</g>
<!-- Node28 -->
<g id="node5" class="node"><title>Node28</title>
<g id="a_node5"><a xlink:href="namespacecaiman_1_1source__extraction_1_1cnmf_1_1initialization.html#aaedc4182f94a08193a9a93e9931bbb37" target="_top" xlink:title="Hierarchical alternating least square method for solving NMF problem Y = A*C + b*f. ">
<polygon fill="white" stroke="black" points="164.5,-87.5 164.5,-106.5 199.5,-106.5 199.5,-87.5 164.5,-87.5"/>
<text text-anchor="middle" x="182" y="-94.5" font-family="Helvetica,sans-Serif" font-size="10.00">hals</text>
</a>
</g>
</g>
<!-- Node24&#45;&gt;Node28 -->
<g id="edge4" class="edge"><title>Node24&#45;&gt;Node28</title>
<path fill="none" stroke="midnightblue" d="M112.11,-86.4443C126.718,-88.6827 141.843,-91.0002 154.186,-92.8915"/>
<polygon fill="midnightblue" stroke="midnightblue" points="153.82,-96.3761 164.235,-94.4311 154.88,-89.4568 153.82,-96.3761"/>
</g>
<!-- Node29 -->
<g id="node6" class="node"><title>Node29</title>
<g id="a_node6"><a xlink:href="namespacecaiman_1_1source__extraction_1_1cnmf_1_1initialization.html#a12935eff3707e6c9e0e56b2152a90bd5" target="_top" xlink:title="sparseNMF">
<polygon fill="white" stroke="black" points="148,-49.5 148,-68.5 216,-68.5 216,-49.5 148,-49.5"/>
<text text-anchor="middle" x="182" y="-56.5" font-family="Helvetica,sans-Serif" font-size="10.00">sparseNMF</text>
</a>
</g>
</g>
<!-- Node24&#45;&gt;Node29 -->
<g id="edge5" class="edge"><title>Node24&#45;&gt;Node29</title>
<path fill="none" stroke="midnightblue" d="M112.11,-69.5557C120.661,-68.2456 129.388,-66.9083 137.631,-65.6453"/>
<polygon fill="midnightblue" stroke="midnightblue" points="138.408,-69.0671 147.763,-64.0928 137.348,-62.1479 138.408,-69.0671"/>
</g>
<!-- Node31 -->
<g id="node8" class="node"><title>Node31</title>
<g id="a_node8"><a xlink:href="namespacecaiman_1_1source__extraction_1_1cnmf_1_1initialization.html#a88bfdfe3cc85c90317fb6d8d6c09f792" target="_top" xlink:title="Initialization using ICA and PCA. ">
<polygon fill="white" stroke="black" points="152.5,-11.5 152.5,-30.5 211.5,-30.5 211.5,-11.5 152.5,-11.5"/>
<text text-anchor="middle" x="182" y="-18.5" font-family="Helvetica,sans-Serif" font-size="10.00">ICA_PCA</text>
</a>
</g>
</g>
<!-- Node24&#45;&gt;Node31 -->
<g id="edge7" class="edge"><title>Node24&#45;&gt;Node31</title>
<path fill="none" stroke="midnightblue" d="M77.7548,-68.4595C97.7833,-59.2528 128.321,-45.2153 150.995,-34.7926"/>
<polygon fill="midnightblue" stroke="midnightblue" points="152.553,-37.9284 160.177,-30.5716 149.63,-31.5682 152.553,-37.9284"/>
</g>
<!-- Node26 -->
<g id="node3" class="node"><title>Node26</title>
<g id="a_node3"><a xlink:href="namespacecaiman_1_1source__extraction_1_1cnmf_1_1initialization.html#ac8f4ada67920c28ee00d92af03cb4f8b" target="_top" xlink:title="Spatial filtering with a Gaussian or user defined kernel The parameters are specified in GreedyROI...">
<polygon fill="white" stroke="black" points="293,-144.5 293,-163.5 337,-163.5 337,-144.5 293,-144.5"/>
<text text-anchor="middle" x="315" y="-151.5" font-family="Helvetica,sans-Serif" font-size="10.00">imblur</text>
</a>
</g>
</g>
<!-- Node25&#45;&gt;Node26 -->
<g id="edge2" class="edge"><title>Node25&#45;&gt;Node26</title>
<path fill="none" stroke="midnightblue" d="M214.711,-139.599C235.346,-142.592 262.141,-146.478 282.694,-149.459"/>
<polygon fill="midnightblue" stroke="midnightblue" points="282.408,-152.955 292.807,-150.926 283.413,-146.027 282.408,-152.955"/>
</g>
<!-- Node27 -->
<g id="node4" class="node"><title>Node27</title>
<g id="a_node4"><a xlink:href="namespacecaiman_1_1source__extraction_1_1cnmf_1_1initialization.html#a34abf87100936b47d488cefbb9def7e9" target="_top" xlink:title="Fine tuning of components within greedyROI using rank&#45;1 NMF. ">
<polygon fill="white" stroke="black" points="289,-106.5 289,-125.5 341,-125.5 341,-106.5 289,-106.5"/>
<text text-anchor="middle" x="315" y="-113.5" font-family="Helvetica,sans-Serif" font-size="10.00">finetune</text>
</a>
</g>
</g>
<!-- Node25&#45;&gt;Node27 -->
<g id="edge3" class="edge"><title>Node25&#45;&gt;Node27</title>
<path fill="none" stroke="midnightblue" d="M214.711,-130.401C234.056,-127.595 258.815,-124.004 278.77,-121.11"/>
<polygon fill="midnightblue" stroke="midnightblue" points="279.319,-124.567 288.713,-119.668 278.314,-117.639 279.319,-124.567"/>
</g>
<!-- Node30 -->
<g id="node7" class="node"><title>Node30</title>
<g id="a_node7"><a xlink:href="namespacecaiman_1_1base_1_1rois.html#ae37bc9f1a4e815bd7d8e44a2334883a2" target="_top" xlink:title="Calculation of the center of mass for spatial components. ">
<polygon fill="white" stroke="black" points="258,-49.5 258,-68.5 372,-68.5 372,-49.5 258,-49.5"/>
<text text-anchor="middle" x="315" y="-56.5" font-family="Helvetica,sans-Serif" font-size="10.00">caiman.base.rois.com</text>
</a>
</g>
</g>
<!-- Node29&#45;&gt;Node30 -->
<g id="edge6" class="edge"><title>Node29&#45;&gt;Node30</title>
<path fill="none" stroke="midnightblue" d="M216.057,-59C225.748,-59 236.707,-59 247.696,-59"/>
<polygon fill="midnightblue" stroke="midnightblue" points="247.761,-62.5001 257.761,-59 247.761,-55.5001 247.761,-62.5001"/>
</g>
<!-- Node31&#45;&gt;Node30 -->
<g id="edge9" class="edge"><title>Node31&#45;&gt;Node30</title>
<path fill="none" stroke="midnightblue" d="M211.749,-29.3393C229.274,-34.4229 251.989,-41.012 271.557,-46.6882"/>
<polygon fill="midnightblue" stroke="midnightblue" points="270.586,-50.0508 281.165,-49.4754 272.536,-43.3279 270.586,-50.0508"/>
</g>
<!-- Node32 -->
<g id="node9" class="node"><title>Node32</title>
<g id="a_node9"><a xlink:href="namespacecaiman_1_1base_1_1rois.html#af61f5029359cfa66389c5234b9a9ad99" target="_top" xlink:title="caiman.base.rois.extract\lROIsFromPCAICA">
<polygon fill="white" stroke="black" points="252.5,-0 252.5,-30 377.5,-30 377.5,-0 252.5,-0"/>
<text text-anchor="start" x="260.5" y="-18" font-family="Helvetica,sans-Serif" font-size="10.00">caiman.base.rois.extract</text>
<text text-anchor="middle" x="315" y="-7" font-family="Helvetica,sans-Serif" font-size="10.00">ROIsFromPCAICA</text>
</a>
</g>
</g>
<!-- Node31&#45;&gt;Node32 -->
<g id="edge8" class="edge"><title>Node31&#45;&gt;Node32</title>
<path fill="none" stroke="midnightblue" d="M211.749,-19.6833C220.824,-19.2676 231.29,-18.7882 241.991,-18.2981"/>
<polygon fill="midnightblue" stroke="midnightblue" points="242.455,-21.7806 252.284,-17.8267 242.135,-14.788 242.455,-21.7806"/>
</g>
</g>
</svg>
