<?xml version="1.0" encoding="UTF-8" standalone="no"?>
<!DOCTYPE svg PUBLIC "-//W3C//DTD SVG 1.1//EN"
 "http://www.w3.org/Graphics/SVG/1.1/DTD/svg11.dtd">
<!-- Generated by graphviz version 2.36.0 (20140111.2315)
 -->
<!-- Title: extract_binary_masks_blob Pages: 1 -->
<svg width="296pt" height="50pt"
 viewBox="0.00 0.00 296.00 50.00" xmlns="http://www.w3.org/2000/svg" xmlns:xlink="http://www.w3.org/1999/xlink">
<g id="graph0" class="graph" transform="scale(1 1) rotate(0) translate(4 46)">
<title>extract_binary_masks_blob</title>
<polygon fill="white" stroke="none" points="-4,4 -4,-46 292,-46 292,4 -4,4"/>
<!-- Node13 -->
<g id="node1" class="node"><title>Node13</title>
<polygon fill="#bfbfbf" stroke="black" points="0,-11.5 0,-30.5 138,-30.5 138,-11.5 0,-11.5"/>
<text text-anchor="middle" x="69" y="-18.5" font-family="Helvetica,sans-Serif" font-size="10.00">extract_binary_masks_blob</text>
</g>
<!-- Node14 -->
<g id="node2" class="node"><title>Node14</title>
<g id="a_node2"><a xlink:href="namespacecaiman_1_1base_1_1rois.html#afde6c0bad0f753a9a785404bdfda1000" target="_top" xlink:title="extract_binary_masks\l_blob_parallel_place\l_holder">
<polygon fill="white" stroke="black" points="174,-0.5 174,-41.5 288,-41.5 288,-0.5 174,-0.5"/>
<text text-anchor="start" x="182" y="-29.5" font-family="Helvetica,sans-Serif" font-size="10.00">extract_binary_masks</text>
<text text-anchor="start" x="182" y="-18.5" font-family="Helvetica,sans-Serif" font-size="10.00">_blob_parallel_place</text>
<text text-anchor="middle" x="231" y="-7.5" font-family="Helvetica,sans-Serif" font-size="10.00">_holder</text>
</a>
</g>
</g>
<!-- Node13&#45;&gt;Node14 -->
<g id="edge1" class="edge"><title>Node13&#45;&gt;Node14</title>
<path fill="none" stroke="midnightblue" d="M148.411,-21C157.039,-21 165.691,-21 173.966,-21"/>
<polygon fill="midnightblue" stroke="midnightblue" points="148.319,-17.5001 138.319,-21 148.318,-24.5001 148.319,-17.5001"/>
</g>
</g>
</svg>
