<?xml version="1.0" encoding="UTF-8" standalone="no"?>
<!DOCTYPE svg PUBLIC "-//W3C//DTD SVG 1.1//EN"
 "http://www.w3.org/Graphics/SVG/1.1/DTD/svg11.dtd">
<!-- Generated by graphviz version 2.36.0 (20140111.2315)
 -->
<!-- Title: calcAvec Pages: 1 -->
<svg width="386pt" height="28pt"
 viewBox="0.00 0.00 386.00 28.00" xmlns="http://www.w3.org/2000/svg" xmlns:xlink="http://www.w3.org/1999/xlink">
<g id="graph0" class="graph" transform="scale(1 1) rotate(0) translate(4 24)">
<title>calcAvec</title>
<polygon fill="white" stroke="none" points="-4,4 -4,-24 382,-24 382,4 -4,4"/>
<!-- Node1 -->
<g id="node1" class="node"><title>Node1</title>
<polygon fill="#bfbfbf" stroke="black" points="0.5,-0.5 0.5,-19.5 57.5,-19.5 57.5,-0.5 0.5,-0.5"/>
<text text-anchor="middle" x="29" y="-7.5" font-family="Helvetica,sans-Serif" font-size="10.00">calcAvec</text>
</g>
<!-- Node2 -->
<g id="node2" class="node"><title>Node2</title>
<g id="a_node2"><a xlink:href="namespacecaiman_1_1source__extraction_1_1cnmf_1_1spatial.html#a6f8a2090fe45b30f032bf6ec1a91c1ce" target="_top" xlink:title="Run LARS for regression problems with LASSO penalty, with optional positivity constraints. ">
<polygon fill="white" stroke="black" points="94.5,-0.5 94.5,-19.5 227.5,-19.5 227.5,-0.5 94.5,-0.5"/>
<text text-anchor="middle" x="161" y="-7.5" font-family="Helvetica,sans-Serif" font-size="10.00">lars_regression_noise_old</text>
</a>
</g>
</g>
<!-- Node1&#45;&gt;Node2 -->
<g id="edge1" class="edge"><title>Node1&#45;&gt;Node2</title>
<path fill="none" stroke="midnightblue" d="M67.7677,-10C76.1753,-10 85.325,-10 94.4882,-10"/>
<polygon fill="midnightblue" stroke="midnightblue" points="67.5697,-6.5001 57.5697,-10 67.5696,-13.5001 67.5697,-6.5001"/>
</g>
<!-- Node3 -->
<g id="node3" class="node"><title>Node3</title>
<g id="a_node3"><a xlink:href="namespacecaiman_1_1source__extraction_1_1cnmf_1_1spatial.html#af3e32db8a5aeabf7269b756732a5e5a1" target="_top" xlink:title="update spatial footprints and background through Basis Pursuit Denoising ">
<polygon fill="white" stroke="black" points="264,-0.5 264,-19.5 378,-19.5 378,-0.5 264,-0.5"/>
<text text-anchor="middle" x="321" y="-7.5" font-family="Helvetica,sans-Serif" font-size="10.00">regression_ipyparallel</text>
</a>
</g>
</g>
<!-- Node2&#45;&gt;Node3 -->
<g id="edge2" class="edge"><title>Node2&#45;&gt;Node3</title>
<path fill="none" stroke="midnightblue" d="M237.867,-10C246.627,-10 255.438,-10 263.869,-10"/>
<polygon fill="midnightblue" stroke="midnightblue" points="237.634,-6.5001 227.634,-10 237.634,-13.5001 237.634,-6.5001"/>
</g>
</g>
</svg>
