<?xml version="1.0" encoding="UTF-8" standalone="no"?>
<!DOCTYPE svg PUBLIC "-//W3C//DTD SVG 1.1//EN"
 "http://www.w3.org/Graphics/SVG/1.1/DTD/svg11.dtd">
<!-- Generated by graphviz version 2.36.0 (20140111.2315)
 -->
<!-- Title: sliding_window Pages: 1 -->
<svg width="530pt" height="55pt"
 viewBox="0.00 0.00 530.00 55.00" xmlns="http://www.w3.org/2000/svg" xmlns:xlink="http://www.w3.org/1999/xlink">
<g id="graph0" class="graph" transform="scale(1 1) rotate(0) translate(4 51)">
<title>sliding_window</title>
<polygon fill="white" stroke="none" points="-4,4 -4,-51 526,-51 526,4 -4,4"/>
<!-- Node103 -->
<g id="node1" class="node"><title>Node103</title>
<polygon fill="#bfbfbf" stroke="black" points="0,-0.5 0,-19.5 84,-19.5 84,-0.5 0,-0.5"/>
<text text-anchor="middle" x="42" y="-7.5" font-family="Helvetica,sans-Serif" font-size="10.00">sliding_window</text>
</g>
<!-- Node104 -->
<g id="node2" class="node"><title>Node104</title>
<g id="a_node2"><a xlink:href="namespacecaiman_1_1motion__correction.html#a88ef513cfa324fc8548e4fb46d7a67e5" target="_top" xlink:title="create a matrix that is used to normalize the intersection of the stiched patches ...">
<polygon fill="white" stroke="black" points="120,-17 120,-47 232,-47 232,-17 120,-17"/>
<text text-anchor="start" x="128" y="-35" font-family="Helvetica,sans-Serif" font-size="10.00">create_weight_matrix</text>
<text text-anchor="middle" x="176" y="-24" font-family="Helvetica,sans-Serif" font-size="10.00">_for_blending</text>
</a>
</g>
</g>
<!-- Node103&#45;&gt;Node104 -->
<g id="edge1" class="edge"><title>Node103&#45;&gt;Node104</title>
<path fill="none" stroke="midnightblue" d="M94.1363,-18.5227C102.584,-19.9306 111.374,-21.3956 119.913,-22.8189"/>
<polygon fill="midnightblue" stroke="midnightblue" points="94.4814,-15.032 84.0421,-16.8403 93.3306,-21.9368 94.4814,-15.032"/>
</g>
<!-- Node105 -->
<g id="node3" class="node"><title>Node105</title>
<g id="a_node3"><a xlink:href="namespacecaiman_1_1motion__correction.html#aea060208c09f0e4fb01e6d31b9acf36f" target="_top" xlink:title="perform piecewise rigid motion correction iteration, by 1) dividing the FOV in patches 2) motion corr...">
<polygon fill="white" stroke="black" points="268,-22.5 268,-41.5 356,-41.5 356,-22.5 268,-22.5"/>
<text text-anchor="middle" x="312" y="-29.5" font-family="Helvetica,sans-Serif" font-size="10.00">tile_and_correct</text>
</a>
</g>
</g>
<!-- Node103&#45;&gt;Node105 -->
<g id="edge5" class="edge"><title>Node103&#45;&gt;Node105</title>
<path fill="none" stroke="midnightblue" d="M94.528,-5.09772C132.697,-2.52022 185.865,-1.14679 232,-8 250.574,-10.7591 270.825,-16.979 286.174,-22.3953"/>
<polygon fill="midnightblue" stroke="midnightblue" points="93.898,-1.63422 84.1784,-5.8508 94.406,-8.61576 93.898,-1.63422"/>
</g>
<!-- Node104&#45;&gt;Node105 -->
<g id="edge2" class="edge"><title>Node104&#45;&gt;Node105</title>
<path fill="none" stroke="midnightblue" d="M242.338,-25.2518C250.952,-25.2327 259.602,-25.3624 267.72,-25.6409"/>
<polygon fill="midnightblue" stroke="midnightblue" points="242.245,-21.7524 232.277,-25.3427 242.308,-28.7522 242.245,-21.7524"/>
</g>
<!-- Node105&#45;&gt;Node104 -->
<g id="edge3" class="edge"><title>Node105&#45;&gt;Node104</title>
<path fill="none" stroke="midnightblue" d="M257.704,-38.6229C249.342,-38.78 240.682,-38.7915 232.277,-38.6573"/>
<polygon fill="midnightblue" stroke="midnightblue" points="257.815,-42.1213 267.72,-38.3591 257.631,-35.1237 257.815,-42.1213"/>
</g>
<!-- Node106 -->
<g id="node4" class="node"><title>Node106</title>
<g id="a_node4"><a xlink:href="namespacecaiman_1_1motion__correction.html#a9c4d6e518f42c395cb58a08d2ff21f45" target="_top" xlink:title="tile_and_correct_wrapper">
<polygon fill="white" stroke="black" points="392.5,-22.5 392.5,-41.5 521.5,-41.5 521.5,-22.5 392.5,-22.5"/>
<text text-anchor="middle" x="457" y="-29.5" font-family="Helvetica,sans-Serif" font-size="10.00">tile_and_correct_wrapper</text>
</a>
</g>
</g>
<!-- Node105&#45;&gt;Node106 -->
<g id="edge4" class="edge"><title>Node105&#45;&gt;Node106</title>
<path fill="none" stroke="midnightblue" d="M366.379,-32C374.822,-32 383.627,-32 392.278,-32"/>
<polygon fill="midnightblue" stroke="midnightblue" points="366.293,-28.5001 356.293,-32 366.293,-35.5001 366.293,-28.5001"/>
</g>
</g>
</svg>
