<?xml version="1.0" encoding="UTF-8" standalone="no"?>
<!DOCTYPE svg PUBLIC "-//W3C//DTD SVG 1.1//EN"
 "http://www.w3.org/Graphics/SVG/1.1/DTD/svg11.dtd">
<!-- Generated by graphviz version 2.36.0 (20140111.2315)
 -->
<!-- Title: loadmat_sbx Pages: 1 -->
<svg width="394pt" height="104pt"
 viewBox="0.00 0.00 394.00 104.00" xmlns="http://www.w3.org/2000/svg" xmlns:xlink="http://www.w3.org/1999/xlink">
<g id="graph0" class="graph" transform="scale(1 1) rotate(0) translate(4 100)">
<title>loadmat_sbx</title>
<polygon fill="white" stroke="none" points="-4,4 -4,-100 390,-100 390,4 -4,4"/>
<!-- Node41 -->
<g id="node1" class="node"><title>Node41</title>
<polygon fill="#bfbfbf" stroke="black" points="0.5,-38.5 0.5,-57.5 73.5,-57.5 73.5,-38.5 0.5,-38.5"/>
<text text-anchor="middle" x="37" y="-45.5" font-family="Helvetica,sans-Serif" font-size="10.00">loadmat_sbx</text>
</g>
<!-- Node42 -->
<g id="node2" class="node"><title>Node42</title>
<g id="a_node2"><a xlink:href="namespacecaiman_1_1base_1_1movies.html#ad72bfc8cc5386d4470caa0be723598e9" target="_top" xlink:title="Input filename should be full path excluding .sbx. ">
<polygon fill="white" stroke="black" points="119,-76.5 119,-95.5 171,-95.5 171,-76.5 119,-76.5"/>
<text text-anchor="middle" x="145" y="-83.5" font-family="Helvetica,sans-Serif" font-size="10.00">sbxread</text>
</a>
</g>
</g>
<!-- Node41&#45;&gt;Node42 -->
<g id="edge1" class="edge"><title>Node41&#45;&gt;Node42</title>
<path fill="none" stroke="midnightblue" d="M74.4832,-61.0789C89.0621,-66.3053 105.494,-72.1958 118.72,-76.9373"/>
<polygon fill="midnightblue" stroke="midnightblue" points="75.3428,-57.669 64.7483,-57.589 72.9805,-64.2584 75.3428,-57.669"/>
</g>
<!-- Node45 -->
<g id="node5" class="node"><title>Node45</title>
<g id="a_node5"><a xlink:href="namespacecaiman_1_1base_1_1movies.html#ad9b115e435b36308da1248112f09f0db" target="_top" xlink:title="Input filename should be full path excluding .sbx. ">
<polygon fill="white" stroke="black" points="110,-38.5 110,-57.5 180,-57.5 180,-38.5 110,-38.5"/>
<text text-anchor="middle" x="145" y="-45.5" font-family="Helvetica,sans-Serif" font-size="10.00">sbxreadskip</text>
</a>
</g>
</g>
<!-- Node41&#45;&gt;Node45 -->
<g id="edge5" class="edge"><title>Node41&#45;&gt;Node45</title>
<path fill="none" stroke="midnightblue" d="M83.6782,-48C92.4268,-48 101.447,-48 109.76,-48"/>
<polygon fill="midnightblue" stroke="midnightblue" points="83.5914,-44.5001 73.5913,-48 83.5913,-51.5001 83.5914,-44.5001"/>
</g>
<!-- Node46 -->
<g id="node6" class="node"><title>Node46</title>
<g id="a_node6"><a xlink:href="namespacecaiman_1_1base_1_1movies.html#ade25f5174c4fa7d04d35b42a01f15803" target="_top" xlink:title="Input filename should be full path excluding .sbx. ">
<polygon fill="white" stroke="black" points="115.5,-0.5 115.5,-19.5 174.5,-19.5 174.5,-0.5 115.5,-0.5"/>
<text text-anchor="middle" x="145" y="-7.5" font-family="Helvetica,sans-Serif" font-size="10.00">sbxshape</text>
</a>
</g>
</g>
<!-- Node41&#45;&gt;Node46 -->
<g id="edge7" class="edge"><title>Node41&#45;&gt;Node46</title>
<path fill="none" stroke="midnightblue" d="M74.1845,-35.0282C88.3066,-29.9656 104.206,-24.2659 117.26,-19.5859"/>
<polygon fill="midnightblue" stroke="midnightblue" points="72.9805,-31.7416 64.7483,-38.411 75.3428,-38.331 72.9805,-31.7416"/>
</g>
<!-- Node43 -->
<g id="node3" class="node"><title>Node43</title>
<g id="a_node3"><a xlink:href="namespacecaiman_1_1base_1_1movies.html#a6d585c260307278135a0b4b09440b313" target="_top" xlink:title="load movie from file. ">
<polygon fill="white" stroke="black" points="216.5,-57.5 216.5,-76.5 251.5,-76.5 251.5,-57.5 216.5,-57.5"/>
<text text-anchor="middle" x="234" y="-64.5" font-family="Helvetica,sans-Serif" font-size="10.00">load</text>
</a>
</g>
</g>
<!-- Node42&#45;&gt;Node43 -->
<g id="edge2" class="edge"><title>Node42&#45;&gt;Node43</title>
<path fill="none" stroke="midnightblue" d="M181.107,-78.3329C193.306,-75.6688 206.421,-72.8047 216.414,-70.6223"/>
<polygon fill="midnightblue" stroke="midnightblue" points="180.187,-74.9513 171.164,-80.5044 181.681,-81.7901 180.187,-74.9513"/>
</g>
<!-- Node44 -->
<g id="node4" class="node"><title>Node44</title>
<g id="a_node4"><a xlink:href="namespacecaiman_1_1base_1_1movies.html#a5a35758b31edb4a9b2105a058a0882a6" target="_top" xlink:title="load movies from list of file names ">
<polygon fill="white" stroke="black" points="288.5,-57.5 288.5,-76.5 385.5,-76.5 385.5,-57.5 288.5,-57.5"/>
<text text-anchor="middle" x="337" y="-64.5" font-family="Helvetica,sans-Serif" font-size="10.00">load_movie_chain</text>
</a>
</g>
</g>
<!-- Node43&#45;&gt;Node44 -->
<g id="edge3" class="edge"><title>Node43&#45;&gt;Node44</title>
<path fill="none" stroke="midnightblue" d="M261.723,-60.9646C269.915,-60.4333 279.188,-60.1983 288.337,-60.2595"/>
<polygon fill="midnightblue" stroke="midnightblue" points="261.339,-57.4846 251.678,-61.8337 261.943,-64.4586 261.339,-57.4846"/>
</g>
<!-- Node44&#45;&gt;Node43 -->
<g id="edge4" class="edge"><title>Node44&#45;&gt;Node43</title>
<path fill="none" stroke="midnightblue" d="M278.17,-73.6864C268.483,-73.5172 259.163,-73.0105 251.678,-72.1663"/>
<polygon fill="midnightblue" stroke="midnightblue" points="278.319,-77.1871 288.337,-73.7405 278.356,-70.1872 278.319,-77.1871"/>
</g>
<!-- Node45&#45;&gt;Node43 -->
<g id="edge6" class="edge"><title>Node45&#45;&gt;Node43</title>
<path fill="none" stroke="midnightblue" d="M190.363,-57.6885C199.613,-59.7087 208.811,-61.7174 216.283,-63.3493"/>
<polygon fill="midnightblue" stroke="midnightblue" points="190.901,-54.2236 180.385,-55.5093 189.408,-61.0624 190.901,-54.2236"/>
</g>
</g>
</svg>
