<?xml version="1.0" encoding="UTF-8" standalone="no"?>
<!DOCTYPE svg PUBLIC "-//W3C//DTD SVG 1.1//EN"
 "http://www.w3.org/Graphics/SVG/1.1/DTD/svg11.dtd">
<!-- Generated by graphviz version 2.36.0 (20140111.2315)
 -->
<!-- Title: determine_search_location Pages: 1 -->
<svg width="736pt" height="71pt"
 viewBox="0.00 0.00 736.00 71.00" xmlns="http://www.w3.org/2000/svg" xmlns:xlink="http://www.w3.org/1999/xlink">
<g id="graph0" class="graph" transform="scale(1 1) rotate(0) translate(4 67)">
<title>determine_search_location</title>
<polygon fill="white" stroke="none" points="-4,4 -4,-67 732,-67 732,4 -4,4"/>
<!-- Node18 -->
<g id="node1" class="node"><title>Node18</title>
<polygon fill="#bfbfbf" stroke="black" points="0.5,-24.5 0.5,-43.5 137.5,-43.5 137.5,-24.5 0.5,-24.5"/>
<text text-anchor="middle" x="69" y="-31.5" font-family="Helvetica,sans-Serif" font-size="10.00">determine_search_location</text>
</g>
<!-- Node19 -->
<g id="node2" class="node"><title>Node19</title>
<g id="a_node2"><a xlink:href="namespacecaiman_1_1source__extraction_1_1cnmf_1_1spatial.html#af3e32db8a5aeabf7269b756732a5e5a1" target="_top" xlink:title="update spatial footprints and background through Basis Pursuit Denoising ">
<polygon fill="white" stroke="black" points="174,-43.5 174,-62.5 288,-62.5 288,-43.5 174,-43.5"/>
<text text-anchor="middle" x="231" y="-50.5" font-family="Helvetica,sans-Serif" font-size="10.00">regression_ipyparallel</text>
</a>
</g>
</g>
<!-- Node18&#45;&gt;Node19 -->
<g id="edge1" class="edge"><title>Node18&#45;&gt;Node19</title>
<path fill="none" stroke="midnightblue" d="M147.978,-43.2599C156.636,-44.288 165.325,-45.3198 173.639,-46.3072"/>
<polygon fill="midnightblue" stroke="midnightblue" points="148.197,-39.7614 137.854,-42.0577 147.372,-46.7126 148.197,-39.7614"/>
</g>
<!-- Node20 -->
<g id="node3" class="node"><title>Node20</title>
<g id="a_node3"><a xlink:href="namespacecaiman_1_1source__extraction_1_1cnmf_1_1spatial.html#aecc215caf3e87682f452e93ca491a477" target="_top" xlink:title="compute the indices of the distance from the cm to search for the spatial component (calling determin...">
<polygon fill="white" stroke="black" points="178,-5.5 178,-24.5 284,-24.5 284,-5.5 178,-5.5"/>
<text text-anchor="middle" x="231" y="-12.5" font-family="Helvetica,sans-Serif" font-size="10.00">computing_indicator</text>
</a>
</g>
</g>
<!-- Node18&#45;&gt;Node20 -->
<g id="edge2" class="edge"><title>Node18&#45;&gt;Node20</title>
<path fill="none" stroke="midnightblue" d="M147.882,-24.7515C157.948,-23.5562 168.058,-22.3556 177.575,-21.2254"/>
<polygon fill="midnightblue" stroke="midnightblue" points="147.372,-21.2874 137.854,-25.9423 148.197,-28.2386 147.372,-21.2874"/>
</g>
<!-- Node21 -->
<g id="node4" class="node"><title>Node21</title>
<g id="a_node4"><a xlink:href="namespacecaiman_1_1source__extraction_1_1cnmf_1_1spatial.html#ac4b406f52054893ed2518a761921d4f4" target="_top" xlink:title="update spatial footprints and background through Basis Pursuit Denoising ">
<polygon fill="white" stroke="black" points="324,-5.5 324,-24.5 466,-24.5 466,-5.5 324,-5.5"/>
<text text-anchor="middle" x="395" y="-12.5" font-family="Helvetica,sans-Serif" font-size="10.00">update_spatial_components</text>
</a>
</g>
</g>
<!-- Node20&#45;&gt;Node21 -->
<g id="edge3" class="edge"><title>Node20&#45;&gt;Node21</title>
<path fill="none" stroke="midnightblue" d="M294.449,-15C304.101,-15 314.124,-15 323.929,-15"/>
<polygon fill="midnightblue" stroke="midnightblue" points="294.15,-11.5001 284.15,-15 294.15,-18.5001 294.15,-11.5001"/>
</g>
<!-- Node22 -->
<g id="node5" class="node"><title>Node22</title>
<g id="a_node5"><a xlink:href="namespacecaiman_1_1source__extraction_1_1cnmf_1_1merging.html#ad08adf2e086a22ef379b10ed3ee36936" target="_top" xlink:title="Merging of spatially overlapping components that have highly correlated temporal activity The correla...">
<polygon fill="white" stroke="black" points="502.5,-0 502.5,-30 727.5,-30 727.5,-0 502.5,-0"/>
<text text-anchor="start" x="510.5" y="-18" font-family="Helvetica,sans-Serif" font-size="10.00">caiman.source_extraction.cnmf.merging.merge</text>
<text text-anchor="middle" x="615" y="-7" font-family="Helvetica,sans-Serif" font-size="10.00">_components</text>
</a>
</g>
</g>
<!-- Node21&#45;&gt;Node22 -->
<g id="edge4" class="edge"><title>Node21&#45;&gt;Node22</title>
<path fill="none" stroke="midnightblue" d="M476.368,-15C484.837,-15 493.553,-15 502.293,-15"/>
<polygon fill="midnightblue" stroke="midnightblue" points="476.177,-11.5001 466.177,-15 476.177,-18.5001 476.177,-11.5001"/>
</g>
</g>
</svg>
