<?xml version="1.0" encoding="UTF-8" standalone="no"?>
<!DOCTYPE svg PUBLIC "-//W3C//DTD SVG 1.1//EN"
 "http://www.w3.org/Graphics/SVG/1.1/DTD/svg11.dtd">
<!-- Generated by graphviz version 2.36.0 (20140111.2315)
 -->
<!-- Title: motion_correct_batch_rigid Pages: 1 -->
<svg width="454pt" height="38pt"
 viewBox="0.00 0.00 454.00 38.00" xmlns="http://www.w3.org/2000/svg" xmlns:xlink="http://www.w3.org/1999/xlink">
<g id="graph0" class="graph" transform="scale(1 1) rotate(0) translate(4 34)">
<title>motion_correct_batch_rigid</title>
<polygon fill="white" stroke="none" points="-4,4 -4,-34 450,-34 450,4 -4,4"/>
<!-- Node64 -->
<g id="node1" class="node"><title>Node64</title>
<polygon fill="#bfbfbf" stroke="black" points="0.5,-0 0.5,-30 113.5,-30 113.5,-0 0.5,-0"/>
<text text-anchor="start" x="8.5" y="-18" font-family="Helvetica,sans-Serif" font-size="10.00">motion_correct_batch</text>
<text text-anchor="middle" x="57" y="-7" font-family="Helvetica,sans-Serif" font-size="10.00">_rigid</text>
</g>
<!-- Node65 -->
<g id="node2" class="node"><title>Node65</title>
<g id="a_node2"><a xlink:href="namespacecaiman_1_1motion__correction.html#a29956f4cd15f5c59388862472d370986" target="_top" xlink:title="Function that perform memory efficient hyper parallelized rigid motion corrections while also saving ...">
<polygon fill="white" stroke="black" points="150.5,-0 150.5,-30 263.5,-30 263.5,-0 150.5,-0"/>
<text text-anchor="start" x="158.5" y="-18" font-family="Helvetica,sans-Serif" font-size="10.00">motion_correct_batch</text>
<text text-anchor="middle" x="207" y="-7" font-family="Helvetica,sans-Serif" font-size="10.00">_pwrigid</text>
</a>
</g>
</g>
<!-- Node64&#45;&gt;Node65 -->
<g id="edge1" class="edge"><title>Node64&#45;&gt;Node65</title>
<path fill="none" stroke="midnightblue" d="M113.531,-15C122.138,-15 131.101,-15 139.913,-15"/>
<polygon fill="midnightblue" stroke="midnightblue" points="140.158,-18.5001 150.158,-15 140.158,-11.5001 140.158,-18.5001"/>
</g>
<!-- Node66 -->
<g id="node3" class="node"><title>Node66</title>
<g id="a_node3"><a xlink:href="namespacecaiman_1_1motion__correction.html#a0609d5c64bb9cae41d945bbc89535d2a" target="_top" xlink:title="motion_correction_piecewise">
<polygon fill="white" stroke="black" points="300.5,-5.5 300.5,-24.5 445.5,-24.5 445.5,-5.5 300.5,-5.5"/>
<text text-anchor="middle" x="373" y="-12.5" font-family="Helvetica,sans-Serif" font-size="10.00">motion_correction_piecewise</text>
</a>
</g>
</g>
<!-- Node65&#45;&gt;Node66 -->
<g id="edge2" class="edge"><title>Node65&#45;&gt;Node66</title>
<path fill="none" stroke="midnightblue" d="M263.523,-15C272.097,-15 281.105,-15 290.11,-15"/>
<polygon fill="midnightblue" stroke="midnightblue" points="290.254,-18.5001 300.254,-15 290.254,-11.5001 290.254,-18.5001"/>
</g>
</g>
</svg>
