<?xml version="1.0" encoding="UTF-8" standalone="no"?>
<!DOCTYPE svg PUBLIC "-//W3C//DTD SVG 1.1//EN"
 "http://www.w3.org/Graphics/SVG/1.1/DTD/svg11.dtd">
<!-- Generated by graphviz version 2.36.0 (20140111.2315)
 -->
<!-- Title: nb_imshow Pages: 1 -->
<svg width="200pt" height="28pt"
 viewBox="0.00 0.00 200.00 28.00" xmlns="http://www.w3.org/2000/svg" xmlns:xlink="http://www.w3.org/1999/xlink">
<g id="graph0" class="graph" transform="scale(1 1) rotate(0) translate(4 24)">
<title>nb_imshow</title>
<polygon fill="white" stroke="none" points="-4,4 -4,-24 196,-24 196,4 -4,4"/>
<!-- Node18 -->
<g id="node1" class="node"><title>Node18</title>
<polygon fill="#bfbfbf" stroke="black" points="0.5,-0.5 0.5,-19.5 67.5,-19.5 67.5,-0.5 0.5,-0.5"/>
<text text-anchor="middle" x="34" y="-7.5" font-family="Helvetica,sans-Serif" font-size="10.00">nb_imshow</text>
</g>
<!-- Node19 -->
<g id="node2" class="node"><title>Node19</title>
<g id="a_node2"><a xlink:href="namespacecaiman_1_1utils_1_1visualization.html#aa6b9002875d7d86524868e7d795a4f3f" target="_top" xlink:title="Interactive Equivalent of plot_contours for ipython notebook. ">
<polygon fill="white" stroke="black" points="104,-0.5 104,-19.5 192,-19.5 192,-0.5 104,-0.5"/>
<text text-anchor="middle" x="148" y="-7.5" font-family="Helvetica,sans-Serif" font-size="10.00">nb_plot_contour</text>
</a>
</g>
</g>
<!-- Node18&#45;&gt;Node19 -->
<g id="edge1" class="edge"><title>Node18&#45;&gt;Node19</title>
<path fill="none" stroke="midnightblue" d="M77.7641,-3.42045C86.2387,-3.19841 95.1422,-3.1933 103.637,-3.40512"/>
<polygon fill="midnightblue" stroke="midnightblue" points="77.5576,0.0743562 67.6961,-3.79887 77.8206,-6.9207 77.5576,0.0743562"/>
</g>
<!-- Node19&#45;&gt;Node18 -->
<g id="edge2" class="edge"><title>Node19&#45;&gt;Node18</title>
<path fill="none" stroke="midnightblue" d="M93.4151,-16.7444C84.6328,-16.785 75.771,-16.6039 67.6961,-16.2011"/>
<polygon fill="midnightblue" stroke="midnightblue" points="93.6888,-20.2409 103.637,-16.5949 93.5864,-13.2416 93.6888,-20.2409"/>
</g>
</g>
</svg>
