<?xml version="1.0" encoding="UTF-8" standalone="no"?>
<!DOCTYPE svg PUBLIC "-//W3C//DTD SVG 1.1//EN"
 "http://www.w3.org/Graphics/SVG/1.1/DTD/svg11.dtd">
<!-- Generated by graphviz version 2.36.0 (20140111.2315)
 -->
<!-- Title: register_translation Pages: 1 -->
<svg width="400pt" height="110pt"
 viewBox="0.00 0.00 400.00 110.00" xmlns="http://www.w3.org/2000/svg" xmlns:xlink="http://www.w3.org/1999/xlink">
<g id="graph0" class="graph" transform="scale(1 1) rotate(0) translate(4 106)">
<title>register_translation</title>
<polygon fill="white" stroke="none" points="-4,4 -4,-106 396,-106 396,4 -4,4"/>
<!-- Node97 -->
<g id="node1" class="node"><title>Node97</title>
<polygon fill="#bfbfbf" stroke="black" points="0,-63.5 0,-82.5 102,-82.5 102,-63.5 0,-63.5"/>
<text text-anchor="middle" x="51" y="-70.5" font-family="Helvetica,sans-Serif" font-size="10.00">register_translation</text>
</g>
<!-- Node98 -->
<g id="node2" class="node"><title>Node98</title>
<g id="a_node2"><a xlink:href="namespacecaiman_1_1motion__correction.html#a683f5ee23e529946b17f6a87ae45e0a4" target="_top" xlink:title="Compute RMS error metric between src_image and target_image. ">
<polygon fill="white" stroke="black" points="138.5,-82.5 138.5,-101.5 225.5,-101.5 225.5,-82.5 138.5,-82.5"/>
<text text-anchor="middle" x="182" y="-89.5" font-family="Helvetica,sans-Serif" font-size="10.00">_compute_error</text>
</a>
</g>
</g>
<!-- Node97&#45;&gt;Node98 -->
<g id="edge1" class="edge"><title>Node97&#45;&gt;Node98</title>
<path fill="none" stroke="midnightblue" d="M112.395,-81.8954C121.114,-83.1796 129.934,-84.4786 138.213,-85.698"/>
<polygon fill="midnightblue" stroke="midnightblue" points="112.647,-78.3949 102.244,-80.4003 111.627,-85.3202 112.647,-78.3949"/>
</g>
<!-- Node99 -->
<g id="node3" class="node"><title>Node99</title>
<g id="a_node3"><a xlink:href="namespacecaiman_1_1motion__correction.html#aea060208c09f0e4fb01e6d31b9acf36f" target="_top" xlink:title="perform piecewise rigid motion correction iteration, by 1) dividing the FOV in patches 2) motion corr...">
<polygon fill="white" stroke="black" points="138,-44.5 138,-63.5 226,-63.5 226,-44.5 138,-44.5"/>
<text text-anchor="middle" x="182" y="-51.5" font-family="Helvetica,sans-Serif" font-size="10.00">tile_and_correct</text>
</a>
</g>
</g>
<!-- Node97&#45;&gt;Node99 -->
<g id="edge2" class="edge"><title>Node97&#45;&gt;Node99</title>
<path fill="none" stroke="midnightblue" d="M112.273,-64.1225C120.888,-62.8538 129.603,-61.5701 137.801,-60.3626"/>
<polygon fill="midnightblue" stroke="midnightblue" points="111.627,-60.6798 102.244,-65.5997 112.647,-67.6051 111.627,-60.6798"/>
</g>
<!-- Node100 -->
<g id="node4" class="node"><title>Node100</title>
<g id="a_node4"><a xlink:href="namespacecaiman_1_1motion__correction.html#a88ef513cfa324fc8548e4fb46d7a67e5" target="_top" xlink:title="create a matrix that is used to normalize the intersection of the stiched patches ...">
<polygon fill="white" stroke="black" points="271,-39 271,-69 383,-69 383,-39 271,-39"/>
<text text-anchor="start" x="279" y="-57" font-family="Helvetica,sans-Serif" font-size="10.00">create_weight_matrix</text>
<text text-anchor="middle" x="327" y="-46" font-family="Helvetica,sans-Serif" font-size="10.00">_for_blending</text>
</a>
</g>
</g>
<!-- Node99&#45;&gt;Node100 -->
<g id="edge3" class="edge"><title>Node99&#45;&gt;Node100</title>
<path fill="none" stroke="midnightblue" d="M236.427,-47.4454C247.696,-47.1969 259.607,-47.1854 270.935,-47.4111"/>
<polygon fill="midnightblue" stroke="midnightblue" points="236.187,-43.9508 226.293,-47.7404 236.39,-50.9479 236.187,-43.9508"/>
</g>
<!-- Node101 -->
<g id="node5" class="node"><title>Node101</title>
<g id="a_node5"><a xlink:href="namespacecaiman_1_1motion__correction.html#a9c4d6e518f42c395cb58a08d2ff21f45" target="_top" xlink:title="tile_and_correct_wrapper">
<polygon fill="white" stroke="black" points="262.5,-0.5 262.5,-19.5 391.5,-19.5 391.5,-0.5 262.5,-0.5"/>
<text text-anchor="middle" x="327" y="-7.5" font-family="Helvetica,sans-Serif" font-size="10.00">tile_and_correct_wrapper</text>
</a>
</g>
</g>
<!-- Node99&#45;&gt;Node101 -->
<g id="edge5" class="edge"><title>Node99&#45;&gt;Node101</title>
<path fill="none" stroke="midnightblue" d="M223.717,-41.4715C246.384,-34.4973 274.151,-25.9535 295.032,-19.5287"/>
<polygon fill="midnightblue" stroke="midnightblue" points="222.557,-38.1665 214.029,-44.4527 224.616,-44.857 222.557,-38.1665"/>
</g>
<!-- Node100&#45;&gt;Node99 -->
<g id="edge4" class="edge"><title>Node100&#45;&gt;Node99</title>
<path fill="none" stroke="midnightblue" d="M260.757,-60.727C249.073,-60.8132 237.165,-60.6574 226.293,-60.2596"/>
<polygon fill="midnightblue" stroke="midnightblue" points="260.984,-64.2243 270.935,-60.5889 260.889,-57.225 260.984,-64.2243"/>
</g>
</g>
</svg>
