<?xml version="1.0" encoding="UTF-8" standalone="no"?>
<!DOCTYPE svg PUBLIC "-//W3C//DTD SVG 1.1//EN"
 "http://www.w3.org/Graphics/SVG/1.1/DTD/svg11.dtd">
<!-- Generated by graphviz version 2.36.0 (20140111.2315)
 -->
<!-- Title: plot_contours Pages: 1 -->
<svg width="314pt" height="28pt"
 viewBox="0.00 0.00 314.00 28.00" xmlns="http://www.w3.org/2000/svg" xmlns:xlink="http://www.w3.org/1999/xlink">
<g id="graph0" class="graph" transform="scale(1 1) rotate(0) translate(4 24)">
<title>plot_contours</title>
<polygon fill="white" stroke="none" points="-4,4 -4,-24 310,-24 310,4 -4,4"/>
<!-- Node41 -->
<g id="node1" class="node"><title>Node41</title>
<polygon fill="#bfbfbf" stroke="black" points="0.5,-0.5 0.5,-19.5 77.5,-19.5 77.5,-0.5 0.5,-0.5"/>
<text text-anchor="middle" x="39" y="-7.5" font-family="Helvetica,sans-Serif" font-size="10.00">plot_contours</text>
</g>
<!-- Node42 -->
<g id="node2" class="node"><title>Node42</title>
<g id="a_node2"><a xlink:href="namespacecaiman_1_1utils_1_1visualization.html#aa6b9002875d7d86524868e7d795a4f3f" target="_top" xlink:title="Interactive Equivalent of plot_contours for ipython notebook. ">
<polygon fill="white" stroke="black" points="114,-0.5 114,-19.5 202,-19.5 202,-0.5 114,-0.5"/>
<text text-anchor="middle" x="158" y="-7.5" font-family="Helvetica,sans-Serif" font-size="10.00">nb_plot_contour</text>
</a>
</g>
</g>
<!-- Node41&#45;&gt;Node42 -->
<g id="edge1" class="edge"><title>Node41&#45;&gt;Node42</title>
<path fill="none" stroke="midnightblue" d="M87.8854,-10C96.4349,-10 105.297,-10 113.709,-10"/>
<polygon fill="midnightblue" stroke="midnightblue" points="87.6636,-6.5001 77.6636,-10 87.6635,-13.5001 87.6636,-6.5001"/>
</g>
<!-- Node43 -->
<g id="node3" class="node"><title>Node43</title>
<g id="a_node3"><a xlink:href="namespacecaiman_1_1utils_1_1visualization.html#ac95a3a5e8c3bee95392831c57548fc04" target="_top" xlink:title="Interactive equivalent of imshow for ipython notebook. ">
<polygon fill="white" stroke="black" points="238.5,-0.5 238.5,-19.5 305.5,-19.5 305.5,-0.5 238.5,-0.5"/>
<text text-anchor="middle" x="272" y="-7.5" font-family="Helvetica,sans-Serif" font-size="10.00">nb_imshow</text>
</a>
</g>
</g>
<!-- Node42&#45;&gt;Node43 -->
<g id="edge2" class="edge"><title>Node42&#45;&gt;Node43</title>
<path fill="none" stroke="midnightblue" d="M212.519,-3.25589C221.299,-3.21417 230.16,-3.39405 238.237,-3.79553"/>
<polygon fill="midnightblue" stroke="midnightblue" points="212.249,0.240605 202.302,-3.40666 212.353,-6.75863 212.249,0.240605"/>
</g>
<!-- Node43&#45;&gt;Node42 -->
<g id="edge3" class="edge"><title>Node43&#45;&gt;Node42</title>
<path fill="none" stroke="midnightblue" d="M228.168,-16.5813C219.693,-16.8021 210.792,-16.8061 202.302,-16.5933"/>
<polygon fill="midnightblue" stroke="midnightblue" points="228.375,-20.0761 238.237,-16.2045 228.113,-13.081 228.375,-20.0761"/>
</g>
</g>
</svg>
