<?xml version="1.0" encoding="UTF-8" standalone="no"?>
<!DOCTYPE svg PUBLIC "-//W3C//DTD SVG 1.1//EN"
 "http://www.w3.org/Graphics/SVG/1.1/DTD/svg11.dtd">
<!-- Generated by graphviz version 2.36.0 (20140111.2315)
 -->
<!-- Title: extract_motor_components_OF Pages: 1 -->
<svg width="320pt" height="104pt"
 viewBox="0.00 0.00 320.00 104.00" xmlns="http://www.w3.org/2000/svg" xmlns:xlink="http://www.w3.org/1999/xlink">
<g id="graph0" class="graph" transform="scale(1 1) rotate(0) translate(4 100)">
<title>extract_motor_components_OF</title>
<polygon fill="white" stroke="none" points="-4,4 -4,-100 316,-100 316,4 -4,4"/>
<!-- Node13 -->
<g id="node1" class="node"><title>Node13</title>
<polygon fill="#bfbfbf" stroke="black" points="0.5,-38.5 0.5,-57.5 157.5,-57.5 157.5,-38.5 0.5,-38.5"/>
<text text-anchor="middle" x="79" y="-45.5" font-family="Helvetica,sans-Serif" font-size="10.00">extract_motor_components_OF</text>
</g>
<!-- Node14 -->
<g id="node2" class="node"><title>Node14</title>
<g id="a_node2"><a xlink:href="namespacecaiman_1_1behavior_1_1behavior.html#a9f94bc446f69340cee7623808f58cdbc" target="_top" xlink:title="get_nonzero_subarray">
<polygon fill="white" stroke="black" points="194.5,-76.5 194.5,-95.5 311.5,-95.5 311.5,-76.5 194.5,-76.5"/>
<text text-anchor="middle" x="253" y="-83.5" font-family="Helvetica,sans-Serif" font-size="10.00">get_nonzero_subarray</text>
</a>
</g>
</g>
<!-- Node13&#45;&gt;Node14 -->
<g id="edge1" class="edge"><title>Node13&#45;&gt;Node14</title>
<path fill="none" stroke="midnightblue" d="M123.403,-57.589C146.407,-62.6713 174.851,-68.9554 199.134,-74.3203"/>
<polygon fill="midnightblue" stroke="midnightblue" points="198.39,-77.7402 208.909,-76.4799 199.9,-70.905 198.39,-77.7402"/>
</g>
<!-- Node15 -->
<g id="node3" class="node"><title>Node15</title>
<g id="a_node3"><a xlink:href="namespacecaiman_1_1behavior_1_1behavior.html#a8f9ed50a7ba21081b068bf7967f74e09" target="_top" xlink:title="This function compute the optical flow of behavioral movies using the opencv cv2.calcOpticalFlowFarne...">
<polygon fill="white" stroke="black" points="196.5,-38.5 196.5,-57.5 309.5,-57.5 309.5,-38.5 196.5,-38.5"/>
<text text-anchor="middle" x="253" y="-45.5" font-family="Helvetica,sans-Serif" font-size="10.00">compute_optical_flow</text>
</a>
</g>
</g>
<!-- Node13&#45;&gt;Node15 -->
<g id="edge2" class="edge"><title>Node13&#45;&gt;Node15</title>
<path fill="none" stroke="midnightblue" d="M157.697,-48C167.141,-48 176.719,-48 185.971,-48"/>
<polygon fill="midnightblue" stroke="midnightblue" points="186.254,-51.5001 196.254,-48 186.254,-44.5001 186.254,-51.5001"/>
</g>
<!-- Node16 -->
<g id="node4" class="node"><title>Node16</title>
<g id="a_node4"><a xlink:href="namespacecaiman_1_1behavior_1_1behavior.html#ab7ca16e11cc59cf634fcdd9a2c6848f6" target="_top" xlink:title="From optical flow images can extract spatial and temporal components. ">
<polygon fill="white" stroke="black" points="199.5,-0.5 199.5,-19.5 306.5,-19.5 306.5,-0.5 199.5,-0.5"/>
<text text-anchor="middle" x="253" y="-7.5" font-family="Helvetica,sans-Serif" font-size="10.00">extract_components</text>
</a>
</g>
</g>
<!-- Node13&#45;&gt;Node16 -->
<g id="edge3" class="edge"><title>Node13&#45;&gt;Node16</title>
<path fill="none" stroke="midnightblue" d="M123.403,-38.411C146.407,-33.3287 174.851,-27.0446 199.134,-21.6797"/>
<polygon fill="midnightblue" stroke="midnightblue" points="199.9,-25.095 208.909,-19.5201 198.39,-18.2598 199.9,-25.095"/>
</g>
</g>
</svg>
