<?xml version="1.0" encoding="UTF-8" standalone="no"?>
<!DOCTYPE svg PUBLIC "-//W3C//DTD SVG 1.1//EN"
 "http://www.w3.org/Graphics/SVG/1.1/DTD/svg11.dtd">
<!-- Generated by graphviz version 2.36.0 (20140111.2315)
 -->
<!-- Title: extract_components Pages: 1 -->
<svg width="466pt" height="66pt"
 viewBox="0.00 0.00 466.00 66.00" xmlns="http://www.w3.org/2000/svg" xmlns:xlink="http://www.w3.org/1999/xlink">
<g id="graph0" class="graph" transform="scale(1 1) rotate(0) translate(4 62)">
<title>extract_components</title>
<polygon fill="white" stroke="none" points="-4,4 -4,-62 462,-62 462,4 -4,4"/>
<!-- Node6 -->
<g id="node1" class="node"><title>Node6</title>
<polygon fill="#bfbfbf" stroke="black" points="0.5,-19.5 0.5,-38.5 107.5,-38.5 107.5,-19.5 0.5,-19.5"/>
<text text-anchor="middle" x="54" y="-26.5" font-family="Helvetica,sans-Serif" font-size="10.00">extract_components</text>
</g>
<!-- Node7 -->
<g id="node2" class="node"><title>Node7</title>
<g id="a_node2"><a xlink:href="namespacecaiman_1_1behavior_1_1behavior.html#a205588c7095003500c58a6b2f1effd09" target="_top" xlink:title="extract_motor_components_OF">
<polygon fill="white" stroke="black" points="144.5,-38.5 144.5,-57.5 301.5,-57.5 301.5,-38.5 144.5,-38.5"/>
<text text-anchor="middle" x="223" y="-45.5" font-family="Helvetica,sans-Serif" font-size="10.00">extract_motor_components_OF</text>
</a>
</g>
</g>
<!-- Node6&#45;&gt;Node7 -->
<g id="edge1" class="edge"><title>Node6&#45;&gt;Node7</title>
<path fill="none" stroke="midnightblue" d="M117.872,-36.1531C126.562,-37.1418 135.571,-38.1668 144.489,-39.1814"/>
<polygon fill="midnightblue" stroke="midnightblue" points="118.171,-32.6647 107.84,-35.0117 117.38,-39.6198 118.171,-32.6647"/>
</g>
<!-- Node8 -->
<g id="node3" class="node"><title>Node8</title>
<g id="a_node3"><a xlink:href="namespacecaiman_1_1behavior_1_1behavior.html#a513c5d7fc1e56d74ff55d4f74ee836a3" target="_top" xlink:title="main">
<polygon fill="white" stroke="black" points="204,-0.5 204,-19.5 242,-19.5 242,-0.5 204,-0.5"/>
<text text-anchor="middle" x="223" y="-7.5" font-family="Helvetica,sans-Serif" font-size="10.00">main</text>
</a>
</g>
</g>
<!-- Node6&#45;&gt;Node8 -->
<g id="edge2" class="edge"><title>Node6&#45;&gt;Node8</title>
<path fill="none" stroke="midnightblue" d="M118.057,-21.8258C148.705,-18.3389 183.268,-14.4066 203.81,-12.0695"/>
<polygon fill="midnightblue" stroke="midnightblue" points="117.38,-18.3802 107.84,-22.9883 118.171,-25.3353 117.38,-18.3802"/>
</g>
<!-- Node9 -->
<g id="node4" class="node"><title>Node9</title>
<g id="a_node4"><a xlink:href="namespacecaiman_1_1behavior_1_1behavior.html#ac7ebff37cde3a2bef4c8613654b60395" target="_top" xlink:title="Normalize the components using the std of the components obtaining using biunary masks. ">
<polygon fill="white" stroke="black" points="338,-0.5 338,-19.5 458,-19.5 458,-0.5 338,-0.5"/>
<text text-anchor="middle" x="398" y="-7.5" font-family="Helvetica,sans-Serif" font-size="10.00">normalize_components</text>
</a>
</g>
</g>
<!-- Node8&#45;&gt;Node9 -->
<g id="edge3" class="edge"><title>Node8&#45;&gt;Node9</title>
<path fill="none" stroke="midnightblue" d="M252.333,-4.84915C275.449,-3.31508 308.891,-2.88474 337.8,-3.55812"/>
<polygon fill="midnightblue" stroke="midnightblue" points="251.876,-1.37447 242.187,-5.66105 252.434,-8.35217 251.876,-1.37447"/>
</g>
<!-- Node9&#45;&gt;Node8 -->
<g id="edge4" class="edge"><title>Node9&#45;&gt;Node8</title>
<path fill="none" stroke="midnightblue" d="M327.433,-16.6337C296.45,-17.0642 262.452,-16.2993 242.187,-14.3389"/>
<polygon fill="midnightblue" stroke="midnightblue" points="327.866,-20.1264 337.8,-16.4419 327.737,-13.1276 327.866,-20.1264"/>
</g>
</g>
</svg>
