<?xml version="1.0" encoding="UTF-8" standalone="no"?>
<!DOCTYPE svg PUBLIC "-//W3C//DTD SVG 1.1//EN"
 "http://www.w3.org/Graphics/SVG/1.1/DTD/svg11.dtd">
<!-- Generated by graphviz version 2.36.0 (20140111.2315)
 -->
<!-- Title: constrained_oasisAR2 Pages: 1 -->
<svg width="608pt" height="104pt"
 viewBox="0.00 0.00 608.00 104.00" xmlns="http://www.w3.org/2000/svg" xmlns:xlink="http://www.w3.org/1999/xlink">
<g id="graph0" class="graph" transform="scale(1 1) rotate(0) translate(4 100)">
<title>constrained_oasisAR2</title>
<polygon fill="white" stroke="none" points="-4,4 -4,-100 604,-100 604,4 -4,4"/>
<!-- Node37 -->
<g id="node1" class="node"><title>Node37</title>
<polygon fill="#bfbfbf" stroke="black" points="0.5,-57.5 0.5,-76.5 117.5,-76.5 117.5,-57.5 0.5,-57.5"/>
<text text-anchor="middle" x="59" y="-64.5" font-family="Helvetica,sans-Serif" font-size="10.00">constrained_oasisAR2</text>
</g>
<!-- Node38 -->
<g id="node2" class="node"><title>Node38</title>
<g id="a_node2"><a xlink:href="namespacecaiman_1_1source__extraction_1_1cnmf_1_1deconvolution.html#a7a73db2b3e0e88f4a5f30f80944c1319" target="_top" xlink:title="estimate_time_constant">
<polygon fill="white" stroke="black" points="300,-38.5 300,-57.5 422,-57.5 422,-38.5 300,-38.5"/>
<text text-anchor="middle" x="361" y="-45.5" font-family="Helvetica,sans-Serif" font-size="10.00">estimate_time_constant</text>
</a>
</g>
</g>
<!-- Node37&#45;&gt;Node38 -->
<g id="edge1" class="edge"><title>Node37&#45;&gt;Node38</title>
<path fill="none" stroke="midnightblue" d="M117.843,-63.3366C166.848,-60.233 237.278,-55.7724 289.561,-52.4611"/>
<polygon fill="midnightblue" stroke="midnightblue" points="290.005,-55.9401 299.764,-51.8149 289.563,-48.9541 290.005,-55.9401"/>
</g>
<!-- Node42 -->
<g id="node6" class="node"><title>Node42</title>
<g id="a_node6"><a xlink:href="namespacecaiman_1_1source__extraction_1_1cnmf_1_1deconvolution.html#affae481e26d5e13bc6f62c6e643b63d5" target="_top" xlink:title="Infer the most likely discretized spike train underlying an AR(2) fluorescence trace. ">
<polygon fill="white" stroke="black" points="189,-76.5 189,-95.5 229,-95.5 229,-76.5 189,-76.5"/>
<text text-anchor="middle" x="209" y="-83.5" font-family="Helvetica,sans-Serif" font-size="10.00">onnls</text>
</a>
</g>
</g>
<!-- Node37&#45;&gt;Node42 -->
<g id="edge5" class="edge"><title>Node37&#45;&gt;Node42</title>
<path fill="none" stroke="midnightblue" d="M117.644,-67.799C138.481,-70.0893 161.138,-73.3595 178.552,-76.7025"/>
<polygon fill="midnightblue" stroke="midnightblue" points="178.153,-80.1938 188.654,-78.7853 179.567,-73.338 178.153,-80.1938"/>
</g>
<!-- Node44 -->
<g id="node8" class="node"><title>Node44</title>
<g id="a_node8"><a xlink:href="namespacecaiman_1_1source__extraction_1_1cnmf_1_1deconvolution.html#a7199190b4f33e4a70dedc9deea7e4c45" target="_top" xlink:title="estimate_parameters">
<polygon fill="white" stroke="black" points="154,-0.5 154,-19.5 264,-19.5 264,-0.5 154,-0.5"/>
<text text-anchor="middle" x="209" y="-7.5" font-family="Helvetica,sans-Serif" font-size="10.00">estimate_parameters</text>
</a>
</g>
</g>
<!-- Node37&#45;&gt;Node44 -->
<g id="edge8" class="edge"><title>Node37&#45;&gt;Node44</title>
<path fill="none" stroke="midnightblue" d="M84.7719,-57.4595C109.104,-48.0884 146.431,-33.7124 173.628,-23.2377"/>
<polygon fill="midnightblue" stroke="midnightblue" points="175.073,-26.4319 183.147,-19.5716 172.558,-19.8996 175.073,-26.4319"/>
</g>
<!-- Node39 -->
<g id="node3" class="node"><title>Node39</title>
<g id="a_node3"><a xlink:href="namespacecaiman_1_1source__extraction_1_1cnmf_1_1deconvolution.html#a16b9a254776edd0d9093ee35b1ef17a2" target="_top" xlink:title="GetSn">
<polygon fill="white" stroke="black" points="458.5,-0.5 458.5,-19.5 503.5,-19.5 503.5,-0.5 458.5,-0.5"/>
<text text-anchor="middle" x="481" y="-7.5" font-family="Helvetica,sans-Serif" font-size="10.00">GetSn</text>
</a>
</g>
</g>
<!-- Node38&#45;&gt;Node39 -->
<g id="edge2" class="edge"><title>Node38&#45;&gt;Node39</title>
<path fill="none" stroke="midnightblue" d="M391.776,-38.411C409.127,-32.8236 430.988,-25.7836 448.608,-20.1094"/>
<polygon fill="midnightblue" stroke="midnightblue" points="449.98,-23.3446 458.426,-16.9477 447.834,-16.6815 449.98,-23.3446"/>
</g>
<!-- Node40 -->
<g id="node4" class="node"><title>Node40</title>
<g id="a_node4"><a xlink:href="namespacecaiman_1_1source__extraction_1_1cnmf_1_1deconvolution.html#a458da977dee6e97910a1b006e899b309" target="_top" xlink:title="axcov">
<polygon fill="white" stroke="black" points="459.5,-38.5 459.5,-57.5 502.5,-57.5 502.5,-38.5 459.5,-38.5"/>
<text text-anchor="middle" x="481" y="-45.5" font-family="Helvetica,sans-Serif" font-size="10.00">axcov</text>
</a>
</g>
</g>
<!-- Node38&#45;&gt;Node40 -->
<g id="edge3" class="edge"><title>Node38&#45;&gt;Node40</title>
<path fill="none" stroke="midnightblue" d="M422.037,-48C431.485,-48 440.897,-48 449.304,-48"/>
<polygon fill="midnightblue" stroke="midnightblue" points="449.343,-51.5001 459.343,-48 449.343,-44.5001 449.343,-51.5001"/>
</g>
<!-- Node41 -->
<g id="node5" class="node"><title>Node41</title>
<g id="a_node5"><a xlink:href="namespacecaiman_1_1source__extraction_1_1cnmf_1_1deconvolution.html#a8d83696f273bd0121651cf48a6b899ae" target="_top" xlink:title="nextpow2">
<polygon fill="white" stroke="black" points="540.5,-38.5 540.5,-57.5 599.5,-57.5 599.5,-38.5 540.5,-38.5"/>
<text text-anchor="middle" x="570" y="-45.5" font-family="Helvetica,sans-Serif" font-size="10.00">nextpow2</text>
</a>
</g>
</g>
<!-- Node40&#45;&gt;Node41 -->
<g id="edge4" class="edge"><title>Node40&#45;&gt;Node41</title>
<path fill="none" stroke="midnightblue" d="M502.618,-48C510.884,-48 520.69,-48 530.195,-48"/>
<polygon fill="midnightblue" stroke="midnightblue" points="530.302,-51.5001 540.302,-48 530.302,-44.5001 530.302,-51.5001"/>
</g>
<!-- Node42&#45;&gt;Node37 -->
<g id="edge7" class="edge"><title>Node42&#45;&gt;Node37</title>
<path fill="none" stroke="midnightblue" d="M188.666,-88.2478C166.472,-87.5059 129.448,-83.2114 100.799,-78.3434"/>
<polygon fill="midnightblue" stroke="midnightblue" points="101.126,-74.8465 90.6657,-76.5295 99.8925,-81.7369 101.126,-74.8465"/>
</g>
<!-- Node43 -->
<g id="node7" class="node"><title>Node43</title>
<g id="a_node7"><a xlink:href="namespacecaiman_1_1source__extraction_1_1cnmf_1_1deconvolution.html#ad9f9b2ef0aad5c652f86bd8c7ae64bdd" target="_top" xlink:title="_nnls">
<polygon fill="white" stroke="black" points="341,-76.5 341,-95.5 381,-95.5 381,-76.5 341,-76.5"/>
<text text-anchor="middle" x="361" y="-83.5" font-family="Helvetica,sans-Serif" font-size="10.00">_nnls</text>
</a>
</g>
</g>
<!-- Node42&#45;&gt;Node43 -->
<g id="edge6" class="edge"><title>Node42&#45;&gt;Node43</title>
<path fill="none" stroke="midnightblue" d="M229.303,-86C254.955,-86 300.52,-86 330.498,-86"/>
<polygon fill="midnightblue" stroke="midnightblue" points="330.771,-89.5001 340.771,-86 330.771,-82.5001 330.771,-89.5001"/>
</g>
<!-- Node44&#45;&gt;Node38 -->
<g id="edge10" class="edge"><title>Node44&#45;&gt;Node38</title>
<path fill="none" stroke="midnightblue" d="M247.851,-19.589C267.467,-24.5583 291.619,-30.6767 312.479,-35.9613"/>
<polygon fill="midnightblue" stroke="midnightblue" points="311.868,-39.4169 322.421,-38.4799 313.587,-32.6313 311.868,-39.4169"/>
</g>
<!-- Node44&#45;&gt;Node39 -->
<g id="edge9" class="edge"><title>Node44&#45;&gt;Node39</title>
<path fill="none" stroke="midnightblue" d="M264.314,-10C319.486,-10 403.057,-10 448.267,-10"/>
<polygon fill="midnightblue" stroke="midnightblue" points="448.366,-13.5001 458.366,-10 448.366,-6.5001 448.366,-13.5001"/>
</g>
</g>
</svg>
