<?xml version="1.0" encoding="UTF-8" standalone="no"?>
<!DOCTYPE svg PUBLIC "-//W3C//DTD SVG 1.1//EN"
 "http://www.w3.org/Graphics/SVG/1.1/DTD/svg11.dtd">
<!-- Generated by graphviz version 2.36.0 (20140111.2315)
 -->
<!-- Title: download_demo Pages: 1 -->
<svg width="292pt" height="87pt"
 viewBox="0.00 0.00 292.00 87.00" xmlns="http://www.w3.org/2000/svg" xmlns:xlink="http://www.w3.org/1999/xlink">
<g id="graph0" class="graph" transform="scale(1 1) rotate(0) translate(4 83)">
<title>download_demo</title>
<polygon fill="white" stroke="none" points="-4,4 -4,-83 288,-83 288,4 -4,4"/>
<!-- Node1 -->
<g id="node1" class="node"><title>Node1</title>
<polygon fill="#bfbfbf" stroke="black" points="0,-29.5 0,-48.5 90,-48.5 90,-29.5 0,-29.5"/>
<text text-anchor="middle" x="45" y="-36.5" font-family="Helvetica,sans-Serif" font-size="10.00">download_demo</text>
</g>
<!-- Node2 -->
<g id="node2" class="node"><title>Node2</title>
<g id="a_node2"><a xlink:href="namespacecaiman_1_1tests_1_1comparison_1_1create__gt.html#a6d8adb7810bd5f7de466b0a661a69743" target="_top" xlink:title="the function that will create a groundtruth ">
<polygon fill="white" stroke="black" points="126,-49 126,-79 284,-79 284,-49 126,-49"/>
<text text-anchor="start" x="134" y="-67" font-family="Helvetica,sans-Serif" font-size="10.00">caiman.tests.comparison.create</text>
<text text-anchor="middle" x="205" y="-56" font-family="Helvetica,sans-Serif" font-size="10.00">_gt.create</text>
</a>
</g>
</g>
<!-- Node1&#45;&gt;Node2 -->
<g id="edge1" class="edge"><title>Node1&#45;&gt;Node2</title>
<path fill="none" stroke="midnightblue" d="M99.9351,-47.534C108.262,-48.8516 117.004,-50.2348 125.734,-51.6162"/>
<polygon fill="midnightblue" stroke="midnightblue" points="100.436,-44.0698 90.0118,-45.9639 99.3419,-50.9838 100.436,-44.0698"/>
</g>
<!-- Node3 -->
<g id="node3" class="node"><title>Node3</title>
<g id="a_node3"><a xlink:href="namespacecaiman_1_1tests_1_1test__general.html#a2b1bcf9a89fad08ce0c74c1ffceeeb0c" target="_top" xlink:title="the function that will do the test ">
<polygon fill="white" stroke="black" points="130.5,-0 130.5,-30 279.5,-30 279.5,-0 130.5,-0"/>
<text text-anchor="start" x="138.5" y="-18" font-family="Helvetica,sans-Serif" font-size="10.00">caiman.tests.test_general.test</text>
<text text-anchor="middle" x="205" y="-7" font-family="Helvetica,sans-Serif" font-size="10.00">_general</text>
</a>
</g>
</g>
<!-- Node1&#45;&gt;Node3 -->
<g id="edge2" class="edge"><title>Node1&#45;&gt;Node3</title>
<path fill="none" stroke="midnightblue" d="M99.9508,-30.8049C109.714,-29.322 120.046,-27.7525 130.26,-26.201"/>
<polygon fill="midnightblue" stroke="midnightblue" points="99.3728,-27.3525 90.0118,-32.3147 100.424,-34.2731 99.3728,-27.3525"/>
</g>
</g>
</svg>
