<?xml version="1.0" encoding="UTF-8" standalone="no"?>
<!DOCTYPE svg PUBLIC "-//W3C//DTD SVG 1.1//EN"
 "http://www.w3.org/Graphics/SVG/1.1/DTD/svg11.dtd">
<!-- Generated by graphviz version 2.38.0 (20140413.2041)
 -->
<!-- Title: apply_shifts_online Pages: 1 -->
<svg width="495pt" height="37pt"
 viewBox="0.00 0.00 495.42 37.00" xmlns="http://www.w3.org/2000/svg" xmlns:xlink="http://www.w3.org/1999/xlink">
<g id="graph0" class="graph" transform="scale(1 1) rotate(0) translate(4 33)">
<title>apply_shifts_online</title>
<polygon fill="white" stroke="none" points="-4,4 -4,-33 491.422,-33 491.422,4 -4,4"/>
<!-- Node7 -->
<g id="node1" class="node"><title>Node7</title>
<polygon fill="#bfbfbf" stroke="black" points="0,-5.5 0,-23.5 101.059,-23.5 101.059,-5.5 0,-5.5"/>
<text text-anchor="middle" x="50.5293" y="-11.5" font-family="Helvetica,sans-Serif" font-size="10.00">apply_shifts_online</text>
</g>
<!-- Node8 -->
<g id="node2" class="node"><title>Node8</title>
<g id="a_node2"><a xlink:href="namespacecaiman_1_1motion__correction.html#af84483b6805cfea4c866952cd5fc801c" target="_top" xlink:title="caiman.motion_correction.apply\l_shift_online">
<polygon fill="white" stroke="black" points="137.059,-0.5 137.059,-28.5 294.24,-28.5 294.24,-0.5 137.059,-0.5"/>
<text text-anchor="start" x="145.059" y="-16.5" font-family="Helvetica,sans-Serif" font-size="10.00">caiman.motion_correction.apply</text>
<text text-anchor="middle" x="215.649" y="-6.5" font-family="Helvetica,sans-Serif" font-size="10.00">_shift_online</text>
</a>
</g>
</g>
<!-- Node7&#45;&gt;Node8 -->
<g id="edge1" class="edge"><title>Node7&#45;&gt;Node8</title>
<path fill="none" stroke="midnightblue" d="M101.357,-14.5C109.438,-14.5 118.011,-14.5 126.682,-14.5"/>
<polygon fill="midnightblue" stroke="midnightblue" points="126.881,-18.0001 136.881,-14.5 126.881,-11.0001 126.881,-18.0001"/>
</g>
<!-- Node9 -->
<g id="node3" class="node"><title>Node9</title>
<g id="a_node3"><a xlink:href="namespacecaiman_1_1motion__correction.html#a54e0e94e8c54dadcad8bc6688e46c590" target="_top" xlink:title="caiman.motion_correction.apply\l_shift_iteration">
<polygon fill="white" stroke="black" points="330.24,-0.5 330.24,-28.5 487.422,-28.5 487.422,-0.5 330.24,-0.5"/>
<text text-anchor="start" x="338.24" y="-16.5" font-family="Helvetica,sans-Serif" font-size="10.00">caiman.motion_correction.apply</text>
<text text-anchor="middle" x="408.831" y="-6.5" font-family="Helvetica,sans-Serif" font-size="10.00">_shift_iteration</text>
</a>
</g>
</g>
<!-- Node8&#45;&gt;Node9 -->
<g id="edge2" class="edge"><title>Node8&#45;&gt;Node9</title>
<path fill="none" stroke="midnightblue" d="M294.41,-14.5C302.881,-14.5 311.545,-14.5 320.124,-14.5"/>
<polygon fill="midnightblue" stroke="midnightblue" points="320.139,-18.0001 330.139,-14.5 320.139,-11.0001 320.139,-18.0001"/>
</g>
</g>
</svg>
