<?xml version="1.0" encoding="UTF-8" standalone="no"?>
<!DOCTYPE svg PUBLIC "-//W3C//DTD SVG 1.1//EN"
 "http://www.w3.org/Graphics/SVG/1.1/DTD/svg11.dtd">
<!-- Generated by graphviz version 2.38.0 (20140413.2041)
 -->
<!-- Title: calc_min Pages: 1 -->
<svg width="364pt" height="83pt"
 viewBox="0.00 0.00 363.96 83.00" xmlns="http://www.w3.org/2000/svg" xmlns:xlink="http://www.w3.org/1999/xlink">
<g id="graph0" class="graph" transform="scale(1 1) rotate(0) translate(4 79)">
<title>calc_min</title>
<polygon fill="white" stroke="none" points="-4,4 -4,-79 359.96,-79 359.96,4 -4,4"/>
<!-- Node15 -->
<g id="node1" class="node"><title>Node15</title>
<polygon fill="#bfbfbf" stroke="black" points="0,-19.5 0,-37.5 55.458,-37.5 55.458,-19.5 0,-19.5"/>
<text text-anchor="middle" x="27.729" y="-25.5" font-family="Helvetica,sans-Serif" font-size="10.00">calc_min</text>
</g>
<!-- Node16 -->
<g id="node2" class="node"><title>Node16</title>
<g id="a_node2"><a xlink:href="classcaiman_1_1base_1_1movies_1_1movie.html#a6b814991c1e80b06b507789d0c6bee52" target="_top" xlink:title="motion_correct">
<polygon fill="white" stroke="black" points="91.458,-19.5 91.458,-37.5 173.596,-37.5 173.596,-19.5 91.458,-19.5"/>
<text text-anchor="middle" x="132.527" y="-25.5" font-family="Helvetica,sans-Serif" font-size="10.00">motion_correct</text>
</a>
</g>
</g>
<!-- Node15&#45;&gt;Node16 -->
<g id="edge1" class="edge"><title>Node15&#45;&gt;Node16</title>
<path fill="none" stroke="midnightblue" d="M55.4696,-28.5C63.4226,-28.5 72.4078,-28.5 81.3439,-28.5"/>
<polygon fill="midnightblue" stroke="midnightblue" points="81.3547,-32.0001 91.3547,-28.5 81.3546,-25.0001 81.3547,-32.0001"/>
</g>
<!-- Node17 -->
<g id="node3" class="node"><title>Node17</title>
<g id="a_node3"><a xlink:href="classcaiman_1_1base_1_1movies_1_1movie.html#a187e0ed2f4ef1c7f0a7715a5bc80585e" target="_top" xlink:title="Performs motion corretion using the opencv matchtemplate function. ">
<polygon fill="white" stroke="black" points="209.596,-56.5 209.596,-74.5 284.507,-74.5 284.507,-56.5 209.596,-56.5"/>
<text text-anchor="middle" x="247.051" y="-62.5" font-family="Helvetica,sans-Serif" font-size="10.00">extract_shifts</text>
</a>
</g>
</g>
<!-- Node16&#45;&gt;Node17 -->
<g id="edge2" class="edge"><title>Node16&#45;&gt;Node17</title>
<path fill="none" stroke="midnightblue" d="M161.053,-37.5512C175.357,-42.2546 193.049,-48.0718 208.581,-53.1791"/>
<polygon fill="midnightblue" stroke="midnightblue" points="207.826,-56.6151 218.419,-56.414 210.013,-49.9654 207.826,-56.6151"/>
</g>
<!-- Node18 -->
<g id="node4" class="node"><title>Node18</title>
<g id="a_node4"><a xlink:href="classcaiman_1_1base_1_1movies_1_1movie.html#aa607b03e52751c0449b36e7b5a738d3d" target="_top" xlink:title="Apply precomputed shifts to a movie, using subpixels adjustment (cv2.INTER_CUBIC function) ...">
<polygon fill="white" stroke="black" points="212.647,-19.5 212.647,-37.5 281.455,-37.5 281.455,-19.5 212.647,-19.5"/>
<text text-anchor="middle" x="247.051" y="-25.5" font-family="Helvetica,sans-Serif" font-size="10.00">apply_shifts</text>
</a>
</g>
</g>
<!-- Node16&#45;&gt;Node18 -->
<g id="edge3" class="edge"><title>Node16&#45;&gt;Node18</title>
<path fill="none" stroke="midnightblue" d="M173.833,-28.5C182.997,-28.5 192.776,-28.5 202.083,-28.5"/>
<polygon fill="midnightblue" stroke="midnightblue" points="202.333,-32.0001 212.333,-28.5 202.333,-25.0001 202.333,-32.0001"/>
</g>
<!-- Node19 -->
<g id="node5" class="node"><title>Node19</title>
<g id="a_node5"><a xlink:href="classcaiman_1_1base_1_1movies_1_1movie.html#a72c8c961677a019b2c4e955e73d39158" target="_top" xlink:title="Crop movie. ">
<polygon fill="white" stroke="black" points="320.507,-0.5 320.507,-18.5 355.96,-18.5 355.96,-0.5 320.507,-0.5"/>
<text text-anchor="middle" x="338.233" y="-6.5" font-family="Helvetica,sans-Serif" font-size="10.00">crop</text>
</a>
</g>
</g>
<!-- Node16&#45;&gt;Node19 -->
<g id="edge5" class="edge"><title>Node16&#45;&gt;Node19</title>
<path fill="none" stroke="midnightblue" d="M164.7,-19.4545C178.353,-15.9285 194.64,-12.3047 209.596,-10.5 244.054,-6.34177 284.125,-6.89737 310.043,-7.9553"/>
<polygon fill="midnightblue" stroke="midnightblue" points="310.075,-11.4605 320.226,-8.42718 310.399,-4.46796 310.075,-11.4605"/>
</g>
<!-- Node18&#45;&gt;Node19 -->
<g id="edge4" class="edge"><title>Node18&#45;&gt;Node19</title>
<path fill="none" stroke="midnightblue" d="M281.513,-21.371C291.034,-19.3427 301.277,-17.1603 310.352,-15.2269"/>
<polygon fill="midnightblue" stroke="midnightblue" points="311.305,-18.6027 320.356,-13.0957 309.846,-11.7564 311.305,-18.6027"/>
</g>
</g>
</svg>
