<?xml version="1.0" encoding="UTF-8" standalone="no"?>
<!DOCTYPE svg PUBLIC "-//W3C//DTD SVG 1.1//EN"
 "http://www.w3.org/Graphics/SVG/1.1/DTD/svg11.dtd">
<!-- Generated by graphviz version 2.38.0 (20140413.2041)
 -->
<!-- Title: plot_current_traces Pages: 1 -->
<svg width="363pt" height="27pt"
 viewBox="0.00 0.00 363.13 27.00" xmlns="http://www.w3.org/2000/svg" xmlns:xlink="http://www.w3.org/1999/xlink">
<g id="graph0" class="graph" transform="scale(1 1) rotate(0) translate(4 23)">
<title>plot_current_traces</title>
<polygon fill="white" stroke="none" points="-4,4 -4,-23 359.127,-23 359.127,4 -4,4"/>
<!-- Node35 -->
<g id="node1" class="node"><title>Node35</title>
<polygon fill="#bfbfbf" stroke="black" points="0,-0.5 0,-18.5 101.601,-18.5 101.601,-0.5 0,-0.5"/>
<text text-anchor="middle" x="50.8003" y="-6.5" font-family="Helvetica,sans-Serif" font-size="10.00">plot_current_traces</text>
</g>
<!-- Node36 -->
<g id="node2" class="node"><title>Node36</title>
<g id="a_node2"><a xlink:href="classcaiman_1_1gui_1_1gui_1_1_g_u_i.html#a06508ecd0b0e41023403958b0d08f995" target="_top" xlink:title="get_current_roi">
<polygon fill="white" stroke="black" points="137.601,-0.5 137.601,-18.5 220.861,-18.5 220.861,-0.5 137.601,-0.5"/>
<text text-anchor="middle" x="179.231" y="-6.5" font-family="Helvetica,sans-Serif" font-size="10.00">get_current_roi</text>
</a>
</g>
</g>
<!-- Node35&#45;&gt;Node36 -->
<g id="edge1" class="edge"><title>Node35&#45;&gt;Node36</title>
<path fill="none" stroke="midnightblue" d="M101.769,-9.5C110.209,-9.5 118.979,-9.5 127.44,-9.5"/>
<polygon fill="midnightblue" stroke="midnightblue" points="127.564,-13.0001 137.564,-9.5 127.564,-6.0001 127.564,-13.0001"/>
</g>
<!-- Node37 -->
<g id="node3" class="node"><title>Node37</title>
<g id="a_node3"><a xlink:href="namespacecaiman_1_1gui_1_1gui.html#a919565f7d8a432cb5643d7b66ef2a4d1" target="_top" xlink:title="caiman.gui.gui.isin">
<polygon fill="white" stroke="black" points="256.861,-0.5 256.861,-18.5 355.127,-18.5 355.127,-0.5 256.861,-0.5"/>
<text text-anchor="middle" x="305.994" y="-6.5" font-family="Helvetica,sans-Serif" font-size="10.00">caiman.gui.gui.isin</text>
</a>
</g>
</g>
<!-- Node36&#45;&gt;Node37 -->
<g id="edge2" class="edge"><title>Node36&#45;&gt;Node37</title>
<path fill="none" stroke="midnightblue" d="M221.083,-9.5C229.256,-9.5 237.99,-9.5 246.622,-9.5"/>
<polygon fill="midnightblue" stroke="midnightblue" points="246.668,-13.0001 256.668,-9.5 246.668,-6.0001 246.668,-13.0001"/>
</g>
</g>
</svg>
