<?xml version="1.0" encoding="UTF-8" standalone="no"?>
<!DOCTYPE svg PUBLIC "-//W3C//DTD SVG 1.1//EN"
 "http://www.w3.org/Graphics/SVG/1.1/DTD/svg11.dtd">
<!-- Generated by graphviz version 2.38.0 (20140413.2041)
 -->
<!-- Title: evt_zoom Pages: 1 -->
<svg width="458pt" height="27pt"
 viewBox="0.00 0.00 458.48 27.00" xmlns="http://www.w3.org/2000/svg" xmlns:xlink="http://www.w3.org/1999/xlink">
<g id="graph0" class="graph" transform="scale(1 1) rotate(0) translate(4 23)">
<title>evt_zoom</title>
<polygon fill="white" stroke="none" points="-4,4 -4,-23 454.481,-23 454.481,4 -4,4"/>
<!-- Node17 -->
<g id="node1" class="node"><title>Node17</title>
<polygon fill="#bfbfbf" stroke="black" points="0,-0.5 0,-18.5 59.3545,-18.5 59.3545,-0.5 0,-0.5"/>
<text text-anchor="middle" x="29.6772" y="-6.5" font-family="Helvetica,sans-Serif" font-size="10.00">evt_zoom</text>
</g>
<!-- Node18 -->
<g id="node2" class="node"><title>Node18</title>
<g id="a_node2"><a xlink:href="classcaiman_1_1gui_1_1gui_1_1_g_u_i.html#af25f6f83cd7cf2d40b222224a9230542" target="_top" xlink:title="plot_current_traces">
<polygon fill="white" stroke="black" points="95.3545,-0.5 95.3545,-18.5 196.955,-18.5 196.955,-0.5 95.3545,-0.5"/>
<text text-anchor="middle" x="146.155" y="-6.5" font-family="Helvetica,sans-Serif" font-size="10.00">plot_current_traces</text>
</a>
</g>
</g>
<!-- Node17&#45;&gt;Node18 -->
<g id="edge1" class="edge"><title>Node17&#45;&gt;Node18</title>
<path fill="none" stroke="midnightblue" d="M59.5648,-9.5C67.4572,-9.5 76.3119,-9.5 85.2533,-9.5"/>
<polygon fill="midnightblue" stroke="midnightblue" points="85.3387,-13.0001 95.3387,-9.5 85.3387,-6.0001 85.3387,-13.0001"/>
</g>
<!-- Node19 -->
<g id="node3" class="node"><title>Node19</title>
<g id="a_node3"><a xlink:href="classcaiman_1_1gui_1_1gui_1_1_g_u_i.html#a06508ecd0b0e41023403958b0d08f995" target="_top" xlink:title="get_current_roi">
<polygon fill="white" stroke="black" points="232.955,-0.5 232.955,-18.5 316.216,-18.5 316.216,-0.5 232.955,-0.5"/>
<text text-anchor="middle" x="274.585" y="-6.5" font-family="Helvetica,sans-Serif" font-size="10.00">get_current_roi</text>
</a>
</g>
</g>
<!-- Node18&#45;&gt;Node19 -->
<g id="edge2" class="edge"><title>Node18&#45;&gt;Node19</title>
<path fill="none" stroke="midnightblue" d="M197.124,-9.5C205.564,-9.5 214.334,-9.5 222.795,-9.5"/>
<polygon fill="midnightblue" stroke="midnightblue" points="222.919,-13.0001 232.919,-9.5 222.919,-6.0001 222.919,-13.0001"/>
</g>
<!-- Node20 -->
<g id="node4" class="node"><title>Node20</title>
<g id="a_node4"><a xlink:href="namespacecaiman_1_1gui_1_1gui.html#a919565f7d8a432cb5643d7b66ef2a4d1" target="_top" xlink:title="caiman.gui.gui.isin">
<polygon fill="white" stroke="black" points="352.216,-0.5 352.216,-18.5 450.481,-18.5 450.481,-0.5 352.216,-0.5"/>
<text text-anchor="middle" x="401.349" y="-6.5" font-family="Helvetica,sans-Serif" font-size="10.00">caiman.gui.gui.isin</text>
</a>
</g>
</g>
<!-- Node19&#45;&gt;Node20 -->
<g id="edge3" class="edge"><title>Node19&#45;&gt;Node20</title>
<path fill="none" stroke="midnightblue" d="M316.438,-9.5C324.61,-9.5 333.345,-9.5 341.977,-9.5"/>
<polygon fill="midnightblue" stroke="midnightblue" points="342.023,-13.0001 352.023,-9.5 342.023,-6.0001 342.023,-13.0001"/>
</g>
</g>
</svg>
