<?xml version="1.0" encoding="UTF-8" standalone="no"?>
<!DOCTYPE svg PUBLIC "-//W3C//DTD SVG 1.1//EN"
 "http://www.w3.org/Graphics/SVG/1.1/DTD/svg11.dtd">
<!-- Generated by graphviz version 2.38.0 (20140413.2041)
 -->
<!-- Title: extract_shifts Pages: 1 -->
<svg width="293pt" height="27pt"
 viewBox="0.00 0.00 292.51 27.00" xmlns="http://www.w3.org/2000/svg" xmlns:xlink="http://www.w3.org/1999/xlink">
<g id="graph0" class="graph" transform="scale(1 1) rotate(0) translate(4 23)">
<title>extract_shifts</title>
<polygon fill="white" stroke="none" points="-4,4 -4,-23 288.507,-23 288.507,4 -4,4"/>
<!-- Node31 -->
<g id="node1" class="node"><title>Node31</title>
<polygon fill="#bfbfbf" stroke="black" points="0,-0.5 0,-18.5 74.9111,-18.5 74.9111,-0.5 0,-0.5"/>
<text text-anchor="middle" x="37.4556" y="-6.5" font-family="Helvetica,sans-Serif" font-size="10.00">extract_shifts</text>
</g>
<!-- Node32 -->
<g id="node2" class="node"><title>Node32</title>
<g id="a_node2"><a xlink:href="classcaiman_1_1base_1_1movies_1_1movie.html#a6b814991c1e80b06b507789d0c6bee52" target="_top" xlink:title="motion_correct">
<polygon fill="white" stroke="black" points="110.911,-0.5 110.911,-18.5 193.049,-18.5 193.049,-0.5 110.911,-0.5"/>
<text text-anchor="middle" x="151.98" y="-6.5" font-family="Helvetica,sans-Serif" font-size="10.00">motion_correct</text>
</a>
</g>
</g>
<!-- Node31&#45;&gt;Node32 -->
<g id="edge1" class="edge"><title>Node31&#45;&gt;Node32</title>
<path fill="none" stroke="midnightblue" d="M85.1519,-9.5C93.65,-9.5 102.448,-9.5 110.74,-9.5"/>
<polygon fill="midnightblue" stroke="midnightblue" points="84.9891,-6.0001 74.989,-9.5 84.989,-13.0001 84.9891,-6.0001"/>
</g>
<!-- Node33 -->
<g id="node3" class="node"><title>Node33</title>
<g id="a_node3"><a xlink:href="classcaiman_1_1base_1_1movies_1_1movie.html#aa86d1dcb1864827b0701c996d7956ae0" target="_top" xlink:title="calc_min">
<polygon fill="white" stroke="black" points="229.049,-0.5 229.049,-18.5 284.507,-18.5 284.507,-0.5 229.049,-0.5"/>
<text text-anchor="middle" x="256.778" y="-6.5" font-family="Helvetica,sans-Serif" font-size="10.00">calc_min</text>
</a>
</g>
</g>
<!-- Node32&#45;&gt;Node33 -->
<g id="edge2" class="edge"><title>Node32&#45;&gt;Node33</title>
<path fill="none" stroke="midnightblue" d="M203.512,-9.5C212.265,-9.5 221.051,-9.5 228.855,-9.5"/>
<polygon fill="midnightblue" stroke="midnightblue" points="203.313,-6.0001 193.313,-9.5 203.313,-13.0001 203.313,-6.0001"/>
</g>
</g>
</svg>
