<?xml version="1.0" encoding="UTF-8" standalone="no"?>
<!DOCTYPE svg PUBLIC "-//W3C//DTD SVG 1.1//EN"
 "http://www.w3.org/Graphics/SVG/1.1/DTD/svg11.dtd">
<!-- Generated by graphviz version 2.38.0 (20140413.2041)
 -->
<!-- Title: motion_correct Pages: 1 -->
<svg width="273pt" height="83pt"
 viewBox="0.00 0.00 272.50 83.00" xmlns="http://www.w3.org/2000/svg" xmlns:xlink="http://www.w3.org/1999/xlink">
<g id="graph0" class="graph" transform="scale(1 1) rotate(0) translate(4 79)">
<title>motion_correct</title>
<polygon fill="white" stroke="none" points="-4,4 -4,-79 268.502,-79 268.502,4 -4,4"/>
<!-- Node60 -->
<g id="node1" class="node"><title>Node60</title>
<polygon fill="#bfbfbf" stroke="black" points="0,-19.5 0,-37.5 82.1377,-37.5 82.1377,-19.5 0,-19.5"/>
<text text-anchor="middle" x="41.0688" y="-25.5" font-family="Helvetica,sans-Serif" font-size="10.00">motion_correct</text>
</g>
<!-- Node61 -->
<g id="node2" class="node"><title>Node61</title>
<g id="a_node2"><a xlink:href="classcaiman_1_1base_1_1movies_1_1movie.html#a187e0ed2f4ef1c7f0a7715a5bc80585e" target="_top" xlink:title="Performs motion corretion using the opencv matchtemplate function. ">
<polygon fill="white" stroke="black" points="118.138,-56.5 118.138,-74.5 193.049,-74.5 193.049,-56.5 118.138,-56.5"/>
<text text-anchor="middle" x="155.593" y="-62.5" font-family="Helvetica,sans-Serif" font-size="10.00">extract_shifts</text>
</a>
</g>
</g>
<!-- Node60&#45;&gt;Node61 -->
<g id="edge1" class="edge"><title>Node60&#45;&gt;Node61</title>
<path fill="none" stroke="midnightblue" d="M69.5954,-37.5512C83.8993,-42.2546 101.59,-48.0718 117.123,-53.1791"/>
<polygon fill="midnightblue" stroke="midnightblue" points="116.368,-56.6151 126.961,-56.414 118.555,-49.9654 116.368,-56.6151"/>
</g>
<!-- Node62 -->
<g id="node3" class="node"><title>Node62</title>
<g id="a_node3"><a xlink:href="classcaiman_1_1base_1_1movies_1_1movie.html#aa607b03e52751c0449b36e7b5a738d3d" target="_top" xlink:title="Apply precomputed shifts to a movie, using subpixels adjustment (cv2.INTER_CUBIC function) ...">
<polygon fill="white" stroke="black" points="121.189,-19.5 121.189,-37.5 189.997,-37.5 189.997,-19.5 121.189,-19.5"/>
<text text-anchor="middle" x="155.593" y="-25.5" font-family="Helvetica,sans-Serif" font-size="10.00">apply_shifts</text>
</a>
</g>
</g>
<!-- Node60&#45;&gt;Node62 -->
<g id="edge2" class="edge"><title>Node60&#45;&gt;Node62</title>
<path fill="none" stroke="midnightblue" d="M82.3749,-28.5C91.5386,-28.5 101.318,-28.5 110.625,-28.5"/>
<polygon fill="midnightblue" stroke="midnightblue" points="110.875,-32.0001 120.875,-28.5 110.875,-25.0001 110.875,-32.0001"/>
</g>
<!-- Node63 -->
<g id="node4" class="node"><title>Node63</title>
<g id="a_node4"><a xlink:href="classcaiman_1_1base_1_1movies_1_1movie.html#a72c8c961677a019b2c4e955e73d39158" target="_top" xlink:title="Crop movie. ">
<polygon fill="white" stroke="black" points="229.049,-0.5 229.049,-18.5 264.502,-18.5 264.502,-0.5 229.049,-0.5"/>
<text text-anchor="middle" x="246.775" y="-6.5" font-family="Helvetica,sans-Serif" font-size="10.00">crop</text>
</a>
</g>
</g>
<!-- Node60&#45;&gt;Node63 -->
<g id="edge4" class="edge"><title>Node60&#45;&gt;Node63</title>
<path fill="none" stroke="midnightblue" d="M73.2421,-19.4545C86.8948,-15.9285 103.182,-12.3047 118.138,-10.5 152.596,-6.34177 192.667,-6.89737 218.585,-7.9553"/>
<polygon fill="midnightblue" stroke="midnightblue" points="218.617,-11.4605 228.768,-8.42718 218.941,-4.46796 218.617,-11.4605"/>
</g>
<!-- Node62&#45;&gt;Node63 -->
<g id="edge3" class="edge"><title>Node62&#45;&gt;Node63</title>
<path fill="none" stroke="midnightblue" d="M190.055,-21.371C199.576,-19.3427 209.819,-17.1603 218.894,-15.2269"/>
<polygon fill="midnightblue" stroke="midnightblue" points="219.847,-18.6027 228.898,-13.0957 218.388,-11.7564 219.847,-18.6027"/>
</g>
</g>
</svg>
