<?xml version="1.0" encoding="UTF-8" standalone="no"?>
<!DOCTYPE svg PUBLIC "-//W3C//DTD SVG 1.1//EN"
 "http://www.w3.org/Graphics/SVG/1.1/DTD/svg11.dtd">
<!-- Generated by graphviz version 2.38.0 (20140413.2041)
 -->
<!-- Title: motion_correction_online Pages: 1 -->
<svg width="534pt" height="84pt"
 viewBox="0.00 0.00 534.31 84.00" xmlns="http://www.w3.org/2000/svg" xmlns:xlink="http://www.w3.org/1999/xlink">
<g id="graph0" class="graph" transform="scale(1 1) rotate(0) translate(4 80)">
<title>motion_correction_online</title>
<polygon fill="white" stroke="none" points="-4,4 -4,-80 530.313,-80 530.313,4 -4,4"/>
<!-- Node66 -->
<g id="node1" class="node"><title>Node66</title>
<polygon fill="#bfbfbf" stroke="black" points="0,-28.5 0,-46.5 127.733,-46.5 127.733,-28.5 0,-28.5"/>
<text text-anchor="middle" x="63.8667" y="-34.5" font-family="Helvetica,sans-Serif" font-size="10.00">motion_correction_online</text>
</g>
<!-- Node67 -->
<g id="node2" class="node"><title>Node67</title>
<g id="a_node2"><a xlink:href="namespacecaiman_1_1motion__correction.html#a178e8317ba3a15bd5e072132ce6fa9f3" target="_top" xlink:title="caiman.motion_correction.motion\l_correct_online">
<polygon fill="white" stroke="black" points="163.733,-23.5 163.733,-51.5 327.023,-51.5 327.023,-23.5 163.733,-23.5"/>
<text text-anchor="start" x="171.733" y="-39.5" font-family="Helvetica,sans-Serif" font-size="10.00">caiman.motion_correction.motion</text>
<text text-anchor="middle" x="245.378" y="-29.5" font-family="Helvetica,sans-Serif" font-size="10.00">_correct_online</text>
</a>
</g>
</g>
<!-- Node66&#45;&gt;Node67 -->
<g id="edge1" class="edge"><title>Node66&#45;&gt;Node67</title>
<path fill="none" stroke="midnightblue" d="M127.903,-37.5C136.181,-37.5 144.792,-37.5 153.419,-37.5"/>
<polygon fill="midnightblue" stroke="midnightblue" points="153.533,-41.0001 163.533,-37.5 153.533,-34.0001 153.533,-41.0001"/>
</g>
<!-- Node68 -->
<g id="node3" class="node"><title>Node68</title>
<g id="a_node3"><a xlink:href="namespacecaiman_1_1motion__correction.html#a089b96a369b9ee10a01d01e3df54c3bb" target="_top" xlink:title="compute median of 3D array in along axis o by binning values Parameters ">
<polygon fill="white" stroke="black" points="371.358,-47.5 371.358,-75.5 517.979,-75.5 517.979,-47.5 371.358,-47.5"/>
<text text-anchor="start" x="379.358" y="-63.5" font-family="Helvetica,sans-Serif" font-size="10.00">caiman.motion_correction.bin</text>
<text text-anchor="middle" x="444.668" y="-53.5" font-family="Helvetica,sans-Serif" font-size="10.00">_median</text>
</a>
</g>
</g>
<!-- Node67&#45;&gt;Node68 -->
<g id="edge2" class="edge"><title>Node67&#45;&gt;Node68</title>
<path fill="none" stroke="midnightblue" d="M327.193,-47.331C338.355,-48.6888 349.832,-50.0849 361.026,-51.4467"/>
<polygon fill="midnightblue" stroke="midnightblue" points="360.861,-54.9523 371.21,-52.6856 361.706,-48.0036 360.861,-54.9523"/>
</g>
<!-- Node69 -->
<g id="node4" class="node"><title>Node69</title>
<g id="a_node4"><a xlink:href="namespacecaiman_1_1motion__correction.html#acc77134c68d447075e79102eca9649e1" target="_top" xlink:title="caiman.motion_correction.motion\l_correct_iteration">
<polygon fill="white" stroke="black" points="363.023,-0.5 363.023,-28.5 526.313,-28.5 526.313,-0.5 363.023,-0.5"/>
<text text-anchor="start" x="371.023" y="-16.5" font-family="Helvetica,sans-Serif" font-size="10.00">caiman.motion_correction.motion</text>
<text text-anchor="middle" x="444.668" y="-6.5" font-family="Helvetica,sans-Serif" font-size="10.00">_correct_iteration</text>
</a>
</g>
</g>
<!-- Node67&#45;&gt;Node69 -->
<g id="edge3" class="edge"><title>Node67&#45;&gt;Node69</title>
<path fill="none" stroke="midnightblue" d="M327.193,-28.0787C335.683,-27.0889 344.355,-26.0779 352.947,-25.0763"/>
<polygon fill="midnightblue" stroke="midnightblue" points="353.452,-28.5412 362.979,-23.9067 352.641,-21.5883 353.452,-28.5412"/>
</g>
</g>
</svg>
