<?xml version="1.0" encoding="UTF-8" standalone="no"?>
<!DOCTYPE svg PUBLIC "-//W3C//DTD SVG 1.1//EN"
 "http://www.w3.org/Graphics/SVG/1.1/DTD/svg11.dtd">
<!-- Generated by graphviz version 2.38.0 (20140413.2041)
 -->
<!-- Title: crop Pages: 1 -->
<svg width="358pt" height="46pt"
 viewBox="0.00 0.00 357.86 46.00" xmlns="http://www.w3.org/2000/svg" xmlns:xlink="http://www.w3.org/1999/xlink">
<g id="graph0" class="graph" transform="scale(1 1) rotate(0) translate(4 42)">
<title>crop</title>
<polygon fill="white" stroke="none" points="-4,4 -4,-42 353.856,-42 353.856,4 -4,4"/>
<!-- Node24 -->
<g id="node1" class="node"><title>Node24</title>
<polygon fill="#bfbfbf" stroke="black" points="0,-19.5 0,-37.5 35.4531,-37.5 35.4531,-19.5 0,-19.5"/>
<text text-anchor="middle" x="17.7266" y="-25.5" font-family="Helvetica,sans-Serif" font-size="10.00">crop</text>
</g>
<!-- Node25 -->
<g id="node2" class="node"><title>Node25</title>
<g id="a_node2"><a xlink:href="classcaiman_1_1base_1_1movies_1_1movie.html#a6b814991c1e80b06b507789d0c6bee52" target="_top" xlink:title="motion_correct">
<polygon fill="white" stroke="black" points="176.261,-19.5 176.261,-37.5 258.398,-37.5 258.398,-19.5 176.261,-19.5"/>
<text text-anchor="middle" x="217.33" y="-25.5" font-family="Helvetica,sans-Serif" font-size="10.00">motion_correct</text>
</a>
</g>
</g>
<!-- Node24&#45;&gt;Node25 -->
<g id="edge1" class="edge"><title>Node24&#45;&gt;Node25</title>
<path fill="none" stroke="midnightblue" d="M45.5884,-28.5C79.2316,-28.5 137.176,-28.5 176.115,-28.5"/>
<polygon fill="midnightblue" stroke="midnightblue" points="45.5741,-25.0001 35.5741,-28.5 45.5741,-32.0001 45.5741,-25.0001"/>
</g>
<!-- Node27 -->
<g id="node4" class="node"><title>Node27</title>
<g id="a_node4"><a xlink:href="classcaiman_1_1base_1_1movies_1_1movie.html#aa607b03e52751c0449b36e7b5a738d3d" target="_top" xlink:title="Apply precomputed shifts to a movie, using subpixels adjustment (cv2.INTER_CUBIC function) ...">
<polygon fill="white" stroke="black" points="71.4531,-0.5 71.4531,-18.5 140.261,-18.5 140.261,-0.5 71.4531,-0.5"/>
<text text-anchor="middle" x="105.857" y="-6.5" font-family="Helvetica,sans-Serif" font-size="10.00">apply_shifts</text>
</a>
</g>
</g>
<!-- Node24&#45;&gt;Node27 -->
<g id="edge3" class="edge"><title>Node24&#45;&gt;Node27</title>
<path fill="none" stroke="midnightblue" d="M45.7112,-22.5473C53.7659,-20.7705 62.697,-18.8003 71.1268,-16.9407"/>
<polygon fill="midnightblue" stroke="midnightblue" points="44.7544,-19.1741 35.7432,-24.7462 46.2624,-26.0098 44.7544,-19.1741"/>
</g>
<!-- Node26 -->
<g id="node3" class="node"><title>Node26</title>
<g id="a_node3"><a xlink:href="classcaiman_1_1base_1_1movies_1_1movie.html#aa86d1dcb1864827b0701c996d7956ae0" target="_top" xlink:title="calc_min">
<polygon fill="white" stroke="black" points="294.398,-19.5 294.398,-37.5 349.856,-37.5 349.856,-19.5 294.398,-19.5"/>
<text text-anchor="middle" x="322.127" y="-25.5" font-family="Helvetica,sans-Serif" font-size="10.00">calc_min</text>
</a>
</g>
</g>
<!-- Node25&#45;&gt;Node26 -->
<g id="edge2" class="edge"><title>Node25&#45;&gt;Node26</title>
<path fill="none" stroke="midnightblue" d="M268.862,-28.5C277.614,-28.5 286.4,-28.5 294.205,-28.5"/>
<polygon fill="midnightblue" stroke="midnightblue" points="268.663,-25.0001 258.663,-28.5 268.663,-32.0001 268.663,-25.0001"/>
</g>
<!-- Node27&#45;&gt;Node25 -->
<g id="edge4" class="edge"><title>Node27&#45;&gt;Node25</title>
<path fill="none" stroke="midnightblue" d="M150.415,-17.0599C158.91,-18.5342 167.78,-20.0737 176.159,-21.5279"/>
<polygon fill="midnightblue" stroke="midnightblue" points="150.748,-13.5655 140.297,-15.3039 149.551,-20.4624 150.748,-13.5655"/>
</g>
</g>
</svg>
