<?xml version="1.0" encoding="UTF-8" standalone="no"?>
<!DOCTYPE svg PUBLIC "-//W3C//DTD SVG 1.1//EN"
 "http://www.w3.org/Graphics/SVG/1.1/DTD/svg11.dtd">
<!-- Generated by graphviz version 2.38.0 (20140413.2041)
 -->
<!-- Title: IPCA Pages: 1 -->
<svg width="163pt" height="64pt"
 viewBox="0.00 0.00 163.27 64.00" xmlns="http://www.w3.org/2000/svg" xmlns:xlink="http://www.w3.org/1999/xlink">
<g id="graph0" class="graph" transform="scale(1 1) rotate(0) translate(4 60)">
<title>IPCA</title>
<polygon fill="white" stroke="none" points="-4,4 -4,-60 159.271,-60 159.271,4 -4,4"/>
<!-- Node41 -->
<g id="node1" class="node"><title>Node41</title>
<polygon fill="#bfbfbf" stroke="black" points="0,-18.5 0,-36.5 39.3398,-36.5 39.3398,-18.5 0,-18.5"/>
<text text-anchor="middle" x="19.6699" y="-24.5" font-family="Helvetica,sans-Serif" font-size="10.00">IPCA</text>
</g>
<!-- Node42 -->
<g id="node2" class="node"><title>Node42</title>
<g id="a_node2"><a xlink:href="classcaiman_1_1base_1_1movies_1_1movie.html#aa27bd95cf58bb6ce00bdd8f514177ddb" target="_top" xlink:title="Compute PCA + ICA a la Mukamel 2009. ">
<polygon fill="white" stroke="black" points="80.6304,-37.5 80.6304,-55.5 149.98,-55.5 149.98,-37.5 80.6304,-37.5"/>
<text text-anchor="middle" x="115.305" y="-43.5" font-family="Helvetica,sans-Serif" font-size="10.00">IPCA_stICA</text>
</a>
</g>
</g>
<!-- Node41&#45;&gt;Node42 -->
<g id="edge1" class="edge"><title>Node41&#45;&gt;Node42</title>
<path fill="none" stroke="midnightblue" d="M49.6671,-33.384C59.4623,-35.3716 70.4808,-37.6074 80.6082,-39.6624"/>
<polygon fill="midnightblue" stroke="midnightblue" points="50.1147,-29.9035 39.6184,-31.3449 48.7226,-36.7637 50.1147,-29.9035"/>
</g>
<!-- Node43 -->
<g id="node3" class="node"><title>Node43</title>
<g id="a_node3"><a xlink:href="classcaiman_1_1base_1_1movies_1_1movie.html#afa8e8b6f5fea5be0f6aec3efed371fce" target="_top" xlink:title="Create a denoise version of the movie only using the first &#39;components&#39; components. ">
<polygon fill="white" stroke="black" points="75.3398,-0.5 75.3398,-18.5 155.271,-18.5 155.271,-0.5 75.3398,-0.5"/>
<text text-anchor="middle" x="115.305" y="-6.5" font-family="Helvetica,sans-Serif" font-size="10.00">IPCA_denoise</text>
</a>
</g>
</g>
<!-- Node41&#45;&gt;Node43 -->
<g id="edge2" class="edge"><title>Node41&#45;&gt;Node43</title>
<path fill="none" stroke="midnightblue" d="M49.6784,-21.9235C57.7731,-20.3675 66.7023,-18.6509 75.2734,-17.0033"/>
<polygon fill="midnightblue" stroke="midnightblue" points="48.7779,-18.5325 39.6184,-23.8574 50.0994,-25.4066 48.7779,-18.5325"/>
</g>
</g>
</svg>
