<?xml version="1.0" encoding="UTF-8" standalone="no"?>
<!DOCTYPE svg PUBLIC "-//W3C//DTD SVG 1.1//EN"
 "http://www.w3.org/Graphics/SVG/1.1/DTD/svg11.dtd">
<!-- Generated by graphviz version 2.38.0 (20140413.2041)
 -->
<!-- Title: apply_shifts Pages: 1 -->
<svg width="286pt" height="27pt"
 viewBox="0.00 0.00 286.40 27.00" xmlns="http://www.w3.org/2000/svg" xmlns:xlink="http://www.w3.org/1999/xlink">
<g id="graph0" class="graph" transform="scale(1 1) rotate(0) translate(4 23)">
<title>apply_shifts</title>
<polygon fill="white" stroke="none" points="-4,4 -4,-23 282.403,-23 282.403,4 -4,4"/>
<!-- Node4 -->
<g id="node1" class="node"><title>Node4</title>
<polygon fill="#bfbfbf" stroke="black" points="0,-0.5 0,-18.5 68.8076,-18.5 68.8076,-0.5 0,-0.5"/>
<text text-anchor="middle" x="34.4038" y="-6.5" font-family="Helvetica,sans-Serif" font-size="10.00">apply_shifts</text>
</g>
<!-- Node5 -->
<g id="node2" class="node"><title>Node5</title>
<g id="a_node2"><a xlink:href="classcaiman_1_1base_1_1movies_1_1movie.html#a6b814991c1e80b06b507789d0c6bee52" target="_top" xlink:title="motion_correct">
<polygon fill="white" stroke="black" points="104.808,-0.5 104.808,-18.5 186.945,-18.5 186.945,-0.5 104.808,-0.5"/>
<text text-anchor="middle" x="145.876" y="-6.5" font-family="Helvetica,sans-Serif" font-size="10.00">motion_correct</text>
</a>
</g>
</g>
<!-- Node4&#45;&gt;Node5 -->
<g id="edge1" class="edge"><title>Node4&#45;&gt;Node5</title>
<path fill="none" stroke="midnightblue" d="M78.9616,-9.5C87.4564,-9.5 96.3265,-9.5 104.705,-9.5"/>
<polygon fill="midnightblue" stroke="midnightblue" points="78.8441,-6.0001 68.8441,-9.5 78.844,-13.0001 78.8441,-6.0001"/>
</g>
<!-- Node6 -->
<g id="node3" class="node"><title>Node6</title>
<g id="a_node3"><a xlink:href="classcaiman_1_1base_1_1movies_1_1movie.html#aa86d1dcb1864827b0701c996d7956ae0" target="_top" xlink:title="calc_min">
<polygon fill="white" stroke="black" points="222.945,-0.5 222.945,-18.5 278.403,-18.5 278.403,-0.5 222.945,-0.5"/>
<text text-anchor="middle" x="250.674" y="-6.5" font-family="Helvetica,sans-Serif" font-size="10.00">calc_min</text>
</a>
</g>
</g>
<!-- Node5&#45;&gt;Node6 -->
<g id="edge2" class="edge"><title>Node5&#45;&gt;Node6</title>
<path fill="none" stroke="midnightblue" d="M197.408,-9.5C206.161,-9.5 214.947,-9.5 222.751,-9.5"/>
<polygon fill="midnightblue" stroke="midnightblue" points="197.21,-6.0001 187.21,-9.5 197.21,-13.0001 197.21,-6.0001"/>
</g>
</g>
</svg>
