<?xml version="1.0" encoding="UTF-8" standalone="no"?>
<!DOCTYPE svg PUBLIC "-//W3C//DTD SVG 1.1//EN"
 "http://www.w3.org/Graphics/SVG/1.1/DTD/svg11.dtd">
<!-- Generated by graphviz version 2.38.0 (20140413.2041)
 -->
<!-- Title: get_current_roi Pages: 1 -->
<svg width="324pt" height="27pt"
 viewBox="0.00 0.00 324.22 27.00" xmlns="http://www.w3.org/2000/svg" xmlns:xlink="http://www.w3.org/1999/xlink">
<g id="graph0" class="graph" transform="scale(1 1) rotate(0) translate(4 23)">
<title>get_current_roi</title>
<polygon fill="white" stroke="none" points="-4,4 -4,-23 320.216,-23 320.216,4 -4,4"/>
<!-- Node30 -->
<g id="node1" class="node"><title>Node30</title>
<polygon fill="#bfbfbf" stroke="black" points="0,-0.5 0,-18.5 83.2607,-18.5 83.2607,-0.5 0,-0.5"/>
<text text-anchor="middle" x="41.6304" y="-6.5" font-family="Helvetica,sans-Serif" font-size="10.00">get_current_roi</text>
</g>
<!-- Node31 -->
<g id="node2" class="node"><title>Node31</title>
<g id="a_node2"><a xlink:href="classcaiman_1_1gui_1_1gui_1_1_g_u_i.html#af25f6f83cd7cf2d40b222224a9230542" target="_top" xlink:title="plot_current_traces">
<polygon fill="white" stroke="black" points="119.261,-0.5 119.261,-18.5 220.861,-18.5 220.861,-0.5 119.261,-0.5"/>
<text text-anchor="middle" x="170.061" y="-6.5" font-family="Helvetica,sans-Serif" font-size="10.00">plot_current_traces</text>
</a>
</g>
</g>
<!-- Node30&#45;&gt;Node31 -->
<g id="edge1" class="edge"><title>Node30&#45;&gt;Node31</title>
<path fill="none" stroke="midnightblue" d="M93.4595,-9.5C101.925,-9.5 110.698,-9.5 119.141,-9.5"/>
<polygon fill="midnightblue" stroke="midnightblue" points="93.3298,-6.0001 83.3298,-9.5 93.3297,-13.0001 93.3298,-6.0001"/>
</g>
<!-- Node32 -->
<g id="node3" class="node"><title>Node32</title>
<g id="a_node3"><a xlink:href="classcaiman_1_1gui_1_1gui_1_1_g_u_i.html#a211940967eecd3ffe6da9a52fb45c242" target="_top" xlink:title="evt_zoom">
<polygon fill="white" stroke="black" points="256.861,-0.5 256.861,-18.5 316.216,-18.5 316.216,-0.5 256.861,-0.5"/>
<text text-anchor="middle" x="286.539" y="-6.5" font-family="Helvetica,sans-Serif" font-size="10.00">evt_zoom</text>
</a>
</g>
</g>
<!-- Node31&#45;&gt;Node32 -->
<g id="edge2" class="edge"><title>Node31&#45;&gt;Node32</title>
<path fill="none" stroke="midnightblue" d="M230.979,-9.5C239.879,-9.5 248.693,-9.5 256.556,-9.5"/>
<polygon fill="midnightblue" stroke="midnightblue" points="230.94,-6.0001 220.94,-9.5 230.939,-13.0001 230.94,-6.0001"/>
</g>
</g>
</svg>
