<?xml version="1.0" encoding="UTF-8" standalone="no"?>
<!DOCTYPE svg PUBLIC "-//W3C//DTD SVG 1.1//EN"
 "http://www.w3.org/Graphics/SVG/1.1/DTD/svg11.dtd">
<!-- Generated by graphviz version 2.38.0 (20140413.2041)
 -->
<!-- Title: Graphical Class Hierarchy Pages: 1 -->
<svg width="125pt" height="45pt"
 viewBox="0.00 0.00 124.91 45.00" xmlns="http://www.w3.org/2000/svg" xmlns:xlink="http://www.w3.org/1999/xlink">
<g id="graph0" class="graph" transform="scale(1 1) rotate(0) translate(4 41)">
<title>Graphical Class Hierarchy</title>
<polygon fill="white" stroke="none" points="-4,4 -4,-41 120.906,-41 120.906,4 -4,4"/>
<!-- Node0 -->
<g id="node1" class="node"><title>Node0</title>
<g id="a_node1"><a xlink:href="classcaiman_1_1base_1_1movies_1_1movie.html" target="_top" xlink:title="movie">
<polygon fill="white" stroke="black" points="0,-0.5 0,-18.5 42.6748,-18.5 42.6748,-0.5 0,-0.5"/>
<text text-anchor="middle" x="21.3374" y="-6.5" font-family="Helvetica,sans-Serif" font-size="10.00">movie</text>
</a>
</g>
</g>
<!-- Node0&#45;&gt;Node0 -->
<g id="edge1" class="edge"><title>Node0&#45;&gt;Node0</title>
<path fill="none" stroke="midnightblue" d="M7.20748,-28.2336C7.9995,-33.2195 12.7095,-37 21.3374,-37 35.1421,-37 38.9168,-27.322 32.6616,-18.5134"/>
<polygon fill="midnightblue" stroke="midnightblue" points="10.6026,-29.0919 10.0132,-18.5134 3.87716,-27.1505 10.6026,-29.0919"/>
</g>
<!-- Node2 -->
<g id="node2" class="node"><title>Node2</title>
<g id="a_node2"><a xlink:href="classcaiman_1_1base_1_1traces_1_1trace.html" target="_top" xlink:title="Class representing a trace. ">
<polygon fill="white" stroke="black" points="78.6748,-0.5 78.6748,-18.5 116.906,-18.5 116.906,-0.5 78.6748,-0.5"/>
<text text-anchor="middle" x="97.7905" y="-6.5" font-family="Helvetica,sans-Serif" font-size="10.00">trace</text>
</a>
</g>
</g>
<!-- Node0&#45;&gt;Node2 -->
<g id="edge2" class="edge"><title>Node0&#45;&gt;Node2</title>
<path fill="none" stroke="midnightblue" d="M52.9042,-9.5C61.5973,-9.5 70.7913,-9.5 78.5057,-9.5"/>
<polygon fill="midnightblue" stroke="midnightblue" points="52.6821,-6.0001 42.682,-9.5 52.682,-13.0001 52.6821,-6.0001"/>
</g>
</g>
</svg>
