<?xml version="1.0" encoding="UTF-8" standalone="no"?>
<!DOCTYPE svg PUBLIC "-//W3C//DTD SVG 1.1//EN"
 "http://www.w3.org/Graphics/SVG/1.1/DTD/svg11.dtd">
<!-- Generated by graphviz version 2.38.0 (20140413.2041)
 -->
<!-- Title: Graphical Class Hierarchy Pages: 1 -->
<svg width="165pt" height="101pt"
 viewBox="0.00 0.00 165.48 101.00" xmlns="http://www.w3.org/2000/svg" xmlns:xlink="http://www.w3.org/1999/xlink">
<g id="graph0" class="graph" transform="scale(1 1) rotate(0) translate(4 97)">
<title>Graphical Class Hierarchy</title>
<polygon fill="white" stroke="none" points="-4,4 -4,-97 161.482,-97 161.482,4 -4,4"/>
<!-- Node7 -->
<g id="node1" class="node"><title>Node7</title>
<polygon fill="white" stroke="#bfbfbf" points="0,-37.5 0,-55.5 42.6846,-55.5 42.6846,-37.5 0,-37.5"/>
<text text-anchor="middle" x="21.3423" y="-43.5" font-family="Helvetica,sans-Serif" font-size="10.00">object</text>
</g>
<!-- Node0 -->
<g id="node2" class="node"><title>Node0</title>
<g id="a_node2"><a xlink:href="classcaiman_1_1motion__correction_1_1_motion_correct.html" target="_top" xlink:title="class implementing motion correction operations ">
<polygon fill="white" stroke="black" points="78.6846,-74.5 78.6846,-92.5 157.482,-92.5 157.482,-74.5 78.6846,-74.5"/>
<text text-anchor="middle" x="118.083" y="-80.5" font-family="Helvetica,sans-Serif" font-size="10.00">MotionCorrect</text>
</a>
</g>
</g>
<!-- Node7&#45;&gt;Node0 -->
<g id="edge1" class="edge"><title>Node7&#45;&gt;Node0</title>
<path fill="none" stroke="midnightblue" d="M52.2389,-58.1758C65.7,-63.4328 81.3505,-69.5449 93.9034,-74.4473"/>
<polygon fill="midnightblue" stroke="midnightblue" points="53.4878,-54.9061 42.8997,-54.5284 50.9413,-61.4265 53.4878,-54.9061"/>
</g>
<!-- Node9 -->
<g id="node3" class="node"><title>Node9</title>
<g id="a_node3"><a xlink:href="classcaiman_1_1source__extraction_1_1cnmf_1_1cnmf_1_1_c_n_m_f.html" target="_top" xlink:title="Source extraction using constrained non&#45;negative matrix factorization. ">
<polygon fill="white" stroke="black" points="95.6426,-37.5 95.6426,-55.5 140.524,-55.5 140.524,-37.5 95.6426,-37.5"/>
<text text-anchor="middle" x="118.083" y="-43.5" font-family="Helvetica,sans-Serif" font-size="10.00">CNMF</text>
</a>
</g>
</g>
<!-- Node7&#45;&gt;Node9 -->
<g id="edge2" class="edge"><title>Node7&#45;&gt;Node9</title>
<path fill="none" stroke="midnightblue" d="M53.0027,-46.5C66.8988,-46.5 82.9955,-46.5 95.5797,-46.5"/>
<polygon fill="midnightblue" stroke="midnightblue" points="52.8998,-43.0001 42.8997,-46.5 52.8997,-50.0001 52.8998,-43.0001"/>
</g>
<!-- Node10 -->
<g id="node4" class="node"><title>Node10</title>
<g id="a_node4"><a xlink:href="classcaiman_1_1source__extraction_1_1cnmf_1_1cnmf__optional__outputs_1_1_c_n_m_f.html" target="_top" xlink:title="Source extraction using constrained non&#45;negative matrix factorization. ">
<polygon fill="white" stroke="black" points="95.6426,-0.5 95.6426,-18.5 140.524,-18.5 140.524,-0.5 95.6426,-0.5"/>
<text text-anchor="middle" x="118.083" y="-6.5" font-family="Helvetica,sans-Serif" font-size="10.00">CNMF</text>
</a>
</g>
</g>
<!-- Node7&#45;&gt;Node10 -->
<g id="edge3" class="edge"><title>Node7&#45;&gt;Node10</title>
<path fill="none" stroke="midnightblue" d="M52.5946,-34.6853C66.5829,-29.2224 82.8722,-22.8608 95.5797,-17.898"/>
<polygon fill="midnightblue" stroke="midnightblue" points="50.9413,-31.5735 42.8997,-38.4716 53.4878,-38.0939 50.9413,-31.5735"/>
</g>
</g>
</svg>
