<?xml version="1.0" encoding="UTF-8" standalone="no"?>
<!DOCTYPE svg PUBLIC "-//W3C//DTD SVG 1.1//EN"
 "http://www.w3.org/Graphics/SVG/1.1/DTD/svg11.dtd">
<!-- Generated by graphviz version 2.38.0 (20140413.2041)
 -->
<!-- Title: estimate_time_constant Pages: 1 -->
<svg width="305pt" height="64pt"
 viewBox="0.00 0.00 304.77 64.00" xmlns="http://www.w3.org/2000/svg" xmlns:xlink="http://www.w3.org/1999/xlink">
<g id="graph0" class="graph" transform="scale(1 1) rotate(0) translate(4 60)">
<title>estimate_time_constant</title>
<polygon fill="white" stroke="none" points="-4,4 -4,-60 300.768,-60 300.768,4 -4,4"/>
<!-- Node79 -->
<g id="node1" class="node"><title>Node79</title>
<polygon fill="#bfbfbf" stroke="black" points="0,-18.5 0,-36.5 121.61,-36.5 121.61,-18.5 0,-18.5"/>
<text text-anchor="middle" x="60.8052" y="-24.5" font-family="Helvetica,sans-Serif" font-size="10.00">estimate_time_constant</text>
</g>
<!-- Node80 -->
<g id="node2" class="node"><title>Node80</title>
<g id="a_node2"><a xlink:href="namespacecaiman_1_1source__extraction_1_1cnmf_1_1deconvolution.html#a16b9a254776edd0d9093ee35b1ef17a2" target="_top" xlink:title="GetSn">
<polygon fill="white" stroke="black" points="157.61,-37.5 157.61,-55.5 201.96,-55.5 201.96,-37.5 157.61,-37.5"/>
<text text-anchor="middle" x="179.785" y="-43.5" font-family="Helvetica,sans-Serif" font-size="10.00">GetSn</text>
</a>
</g>
</g>
<!-- Node79&#45;&gt;Node80 -->
<g id="edge1" class="edge"><title>Node79&#45;&gt;Node80</title>
<path fill="none" stroke="midnightblue" d="M117.554,-36.5548C127.901,-38.2354 138.363,-39.9346 147.64,-41.4414"/>
<polygon fill="midnightblue" stroke="midnightblue" points="147.11,-44.901 157.542,-43.0496 148.232,-37.9916 147.11,-44.901"/>
</g>
<!-- Node81 -->
<g id="node3" class="node"><title>Node81</title>
<g id="a_node3"><a xlink:href="namespacecaiman_1_1source__extraction_1_1cnmf_1_1deconvolution.html#a458da977dee6e97910a1b006e899b309" target="_top" xlink:title="axcov">
<polygon fill="white" stroke="black" points="158.724,-0.5 158.724,-18.5 200.847,-18.5 200.847,-0.5 158.724,-0.5"/>
<text text-anchor="middle" x="179.785" y="-6.5" font-family="Helvetica,sans-Serif" font-size="10.00">axcov</text>
</a>
</g>
</g>
<!-- Node79&#45;&gt;Node81 -->
<g id="edge2" class="edge"><title>Node79&#45;&gt;Node81</title>
<path fill="none" stroke="midnightblue" d="M120.638,-18.4473C130.346,-16.9535 140.041,-15.4617 148.654,-14.1364"/>
<polygon fill="midnightblue" stroke="midnightblue" points="149.199,-17.5937 158.551,-12.6135 148.135,-10.6752 149.199,-17.5937"/>
</g>
<!-- Node82 -->
<g id="node4" class="node"><title>Node82</title>
<g id="a_node4"><a xlink:href="namespacecaiman_1_1source__extraction_1_1cnmf_1_1deconvolution.html#a8d83696f273bd0121651cf48a6b899ae" target="_top" xlink:title="nextpow2">
<polygon fill="white" stroke="black" points="237.96,-0.5 237.96,-18.5 296.768,-18.5 296.768,-0.5 237.96,-0.5"/>
<text text-anchor="middle" x="267.364" y="-6.5" font-family="Helvetica,sans-Serif" font-size="10.00">nextpow2</text>
</a>
</g>
</g>
<!-- Node81&#45;&gt;Node82 -->
<g id="edge3" class="edge"><title>Node81&#45;&gt;Node82</title>
<path fill="none" stroke="midnightblue" d="M201.066,-9.5C209.039,-9.5 218.468,-9.5 227.646,-9.5"/>
<polygon fill="midnightblue" stroke="midnightblue" points="227.81,-13.0001 237.81,-9.5 227.81,-6.0001 227.81,-13.0001"/>
</g>
</g>
</svg>
