<?xml version="1.0" encoding="UTF-8" standalone="no"?>
<!DOCTYPE svg PUBLIC "-//W3C//DTD SVG 1.1//EN"
 "http://www.w3.org/Graphics/SVG/1.1/DTD/svg11.dtd">
<!-- Generated by graphviz version 2.38.0 (20140413.2041)
 -->
<!-- Title: get_noise_fft Pages: 1 -->
<svg width="231pt" height="64pt"
 viewBox="0.00 0.00 231.31 64.00" xmlns="http://www.w3.org/2000/svg" xmlns:xlink="http://www.w3.org/1999/xlink">
<g id="graph0" class="graph" transform="scale(1 1) rotate(0) translate(4 60)">
<title>get_noise_fft</title>
<polygon fill="white" stroke="none" points="-4,4 -4,-60 227.308,-60 227.308,4 -4,4"/>
<!-- Node23 -->
<g id="node1" class="node"><title>Node23</title>
<polygon fill="#bfbfbf" stroke="black" points="0,-18.5 0,-36.5 73.0898,-36.5 73.0898,-18.5 0,-18.5"/>
<text text-anchor="middle" x="36.5449" y="-24.5" font-family="Helvetica,sans-Serif" font-size="10.00">get_noise_fft</text>
</g>
<!-- Node24 -->
<g id="node2" class="node"><title>Node24</title>
<g id="a_node2"><a xlink:href="namespacecaiman_1_1source__extraction_1_1cnmf_1_1pre__processing.html#a60e1d4914937573be521e9c8d2a7cd31" target="_top" xlink:title="helper function to parallelize get_noise_fft ">
<polygon fill="white" stroke="black" points="124.375,-37.5 124.375,-55.5 208.022,-55.5 208.022,-37.5 124.375,-37.5"/>
<text text-anchor="middle" x="166.199" y="-43.5" font-family="Helvetica,sans-Serif" font-size="10.00">fft_psd_parallel</text>
</a>
</g>
</g>
<!-- Node23&#45;&gt;Node24 -->
<g id="edge1" class="edge"><title>Node23&#45;&gt;Node24</title>
<path fill="none" stroke="midnightblue" d="M83.0386,-34.2713C96.3851,-36.2578 110.9,-38.4182 123.965,-40.3628"/>
<polygon fill="midnightblue" stroke="midnightblue" points="83.51,-30.803 73.1036,-32.7926 82.4794,-37.7267 83.51,-30.803"/>
</g>
<!-- Node25 -->
<g id="node3" class="node"><title>Node25</title>
<g id="a_node3"><a xlink:href="namespacecaiman_1_1source__extraction_1_1cnmf_1_1pre__processing.html#a2442af4ba144dd56a99ff21e770306ce" target="_top" xlink:title="helper function to parallelize get_noise_fft ">
<polygon fill="white" stroke="black" points="109.09,-0.5 109.09,-18.5 223.308,-18.5 223.308,-0.5 109.09,-0.5"/>
<text text-anchor="middle" x="166.199" y="-6.5" font-family="Helvetica,sans-Serif" font-size="10.00">fft_psd_multithreading</text>
</a>
</g>
</g>
<!-- Node23&#45;&gt;Node25 -->
<g id="edge2" class="edge"><title>Node23&#45;&gt;Node25</title>
<path fill="none" stroke="midnightblue" d="M83.0129,-21.0887C91.3581,-19.912 100.161,-18.6707 108.781,-17.4552"/>
<polygon fill="midnightblue" stroke="midnightblue" points="82.517,-17.6239 73.1036,-22.486 83.4944,-24.5554 82.517,-17.6239"/>
</g>
</g>
</svg>
