<?xml version="1.0" encoding="UTF-8" standalone="no"?>
<!DOCTYPE svg PUBLIC "-//W3C//DTD SVG 1.1//EN"
 "http://www.w3.org/Graphics/SVG/1.1/DTD/svg11.dtd">
<!-- Generated by graphviz version 2.38.0 (20140413.2041)
 -->
<!-- Title: manually_refine_components Pages: 1 -->
<svg width="734pt" height="82pt"
 viewBox="0.00 0.00 733.86 82.00" xmlns="http://www.w3.org/2000/svg" xmlns:xlink="http://www.w3.org/1999/xlink">
<g id="graph0" class="graph" transform="scale(1 1) rotate(0) translate(4 78)">
<title>manually_refine_components</title>
<polygon fill="white" stroke="none" points="-4,4 -4,-78 729.864,-78 729.864,4 -4,4"/>
<!-- Node18 -->
<g id="node1" class="node"><title>Node18</title>
<polygon fill="#bfbfbf" stroke="black" points="0,-36.5 0,-54.5 146.635,-54.5 146.635,-36.5 0,-36.5"/>
<text text-anchor="middle" x="73.3174" y="-42.5" font-family="Helvetica,sans-Serif" font-size="10.00">manually_refine_components</text>
</g>
<!-- Node19 -->
<g id="node2" class="node"><title>Node19</title>
<g id="a_node2"><a xlink:href="namespacecaiman_1_1base_1_1rois.html#ae37bc9f1a4e815bd7d8e44a2334883a2" target="_top" xlink:title="Calculation of the center of mass for spatial components. ">
<polygon fill="white" stroke="black" points="256.004,-55.5 256.004,-73.5 369.265,-73.5 369.265,-55.5 256.004,-55.5"/>
<text text-anchor="middle" x="312.634" y="-61.5" font-family="Helvetica,sans-Serif" font-size="10.00">caiman.base.rois.com</text>
</a>
</g>
</g>
<!-- Node18&#45;&gt;Node19 -->
<g id="edge1" class="edge"><title>Node18&#45;&gt;Node19</title>
<path fill="none" stroke="midnightblue" d="M146.81,-51.3039C178.283,-53.8237 214.891,-56.7546 245.601,-59.2133"/>
<polygon fill="midnightblue" stroke="midnightblue" points="245.526,-62.7184 255.774,-60.0277 246.085,-55.7407 245.526,-62.7184"/>
</g>
<!-- Node20 -->
<g id="node3" class="node"><title>Node20</title>
<g id="a_node3"><a xlink:href="namespacecaiman_1_1source__extraction_1_1cnmf_1_1initialization.html#a7dd7bbb01fcb5237fc7d7674b870c9ae" target="_top" xlink:title="Greedy initialization of spatial and temporal components using spatial Gaussian filtering. ">
<polygon fill="white" stroke="black" points="182.635,-18.5 182.635,-36.5 442.634,-36.5 442.634,-18.5 182.635,-18.5"/>
<text text-anchor="middle" x="312.634" y="-24.5" font-family="Helvetica,sans-Serif" font-size="10.00">caiman.source_extraction.cnmf.initialization.greedyROI</text>
</a>
</g>
</g>
<!-- Node18&#45;&gt;Node20 -->
<g id="edge2" class="edge"><title>Node18&#45;&gt;Node20</title>
<path fill="none" stroke="midnightblue" d="M146.81,-40.0016C158.204,-39.1373 170.272,-38.222 182.489,-37.2954"/>
<polygon fill="midnightblue" stroke="midnightblue" points="183.068,-40.7616 192.775,-36.5152 182.539,-33.7817 183.068,-40.7616"/>
</g>
<!-- Node21 -->
<g id="node4" class="node"><title>Node21</title>
<g id="a_node4"><a xlink:href="namespacecaiman_1_1source__extraction_1_1cnmf_1_1initialization.html#ac8f4ada67920c28ee00d92af03cb4f8b" target="_top" xlink:title="Spatial filtering with a Gaussian or user defined kernel The parameters are specified in GreedyROI...">
<polygon fill="white" stroke="black" points="482.813,-37.5 482.813,-55.5 721.685,-55.5 721.685,-37.5 482.813,-37.5"/>
<text text-anchor="middle" x="602.249" y="-43.5" font-family="Helvetica,sans-Serif" font-size="10.00">caiman.source_extraction.cnmf.initialization.imblur</text>
</a>
</g>
</g>
<!-- Node20&#45;&gt;Node21 -->
<g id="edge3" class="edge"><title>Node20&#45;&gt;Node21</title>
<path fill="none" stroke="midnightblue" d="M442.719,-36.0274C452.583,-36.679 462.541,-37.3369 472.404,-37.9884"/>
<polygon fill="midnightblue" stroke="midnightblue" points="472.43,-41.4977 482.639,-38.6646 472.892,-34.5129 472.43,-41.4977"/>
</g>
<!-- Node22 -->
<g id="node5" class="node"><title>Node22</title>
<g id="a_node5"><a xlink:href="namespacecaiman_1_1source__extraction_1_1cnmf_1_1initialization.html#a34abf87100936b47d488cefbb9def7e9" target="_top" xlink:title="Fine tuning of components within greedyROI using rank&#45;1 NMF. ">
<polygon fill="white" stroke="black" points="478.634,-0.5 478.634,-18.5 725.864,-18.5 725.864,-0.5 478.634,-0.5"/>
<text text-anchor="middle" x="602.249" y="-6.5" font-family="Helvetica,sans-Serif" font-size="10.00">caiman.source_extraction.cnmf.initialization.finetune</text>
</a>
</g>
</g>
<!-- Node20&#45;&gt;Node22 -->
<g id="edge4" class="edge"><title>Node20&#45;&gt;Node22</title>
<path fill="none" stroke="midnightblue" d="M442.719,-19.4214C451.106,-18.8965 459.561,-18.3674 467.967,-17.8413"/>
<polygon fill="midnightblue" stroke="midnightblue" points="468.428,-21.3194 478.19,-17.2015 467.991,-14.333 468.428,-21.3194"/>
</g>
</g>
</svg>
