<?xml version="1.0" encoding="UTF-8" standalone="no"?>
<!DOCTYPE svg PUBLIC "-//W3C//DTD SVG 1.1//EN"
 "http://www.w3.org/Graphics/SVG/1.1/DTD/svg11.dtd">
<!-- Generated by graphviz version 2.38.0 (20140413.2041)
 -->
<!-- Title: load_movie_chain Pages: 1 -->
<svg width="631pt" height="111pt"
 viewBox="0.00 0.00 630.88 111.00" xmlns="http://www.w3.org/2000/svg" xmlns:xlink="http://www.w3.org/1999/xlink">
<g id="graph0" class="graph" transform="scale(1 1) rotate(0) translate(4 107)">
<title>load_movie_chain</title>
<polygon fill="white" stroke="none" points="-4,4 -4,-107 626.875,-107 626.875,4 -4,4"/>
<!-- Node28 -->
<g id="node1" class="node"><title>Node28</title>
<polygon fill="#bfbfbf" stroke="black" points="0,-37.5 0,-55.5 96.6104,-55.5 96.6104,-37.5 0,-37.5"/>
<text text-anchor="middle" x="48.3052" y="-43.5" font-family="Helvetica,sans-Serif" font-size="10.00">load_movie_chain</text>
</g>
<!-- Node29 -->
<g id="node2" class="node"><title>Node29</title>
<g id="a_node2"><a xlink:href="namespacecaiman_1_1base_1_1movies.html#a6d585c260307278135a0b4b09440b313" target="_top" xlink:title="load movie from file. ">
<polygon fill="white" stroke="black" points="132.61,-37.5 132.61,-55.5 167.517,-55.5 167.517,-37.5 132.61,-37.5"/>
<text text-anchor="middle" x="150.063" y="-43.5" font-family="Helvetica,sans-Serif" font-size="10.00">load</text>
</a>
</g>
</g>
<!-- Node28&#45;&gt;Node29 -->
<g id="edge1" class="edge"><title>Node28&#45;&gt;Node29</title>
<path fill="none" stroke="midnightblue" d="M96.847,-39.7566C105.679,-39.7067 114.609,-39.9396 122.527,-40.4553"/>
<polygon fill="midnightblue" stroke="midnightblue" points="122.324,-43.9508 132.59,-41.3337 122.933,-36.9773 122.324,-43.9508"/>
</g>
<!-- Node29&#45;&gt;Node28 -->
<g id="edge9" class="edge"><title>Node29&#45;&gt;Node28</title>
<path fill="none" stroke="midnightblue" d="M132.59,-51.6663C125.362,-52.4917 116.402,-52.9944 107.064,-53.1746"/>
<polygon fill="midnightblue" stroke="midnightblue" points="106.823,-49.676 96.847,-53.2434 106.87,-56.6759 106.823,-49.676"/>
</g>
<!-- Node30 -->
<g id="node3" class="node"><title>Node30</title>
<g id="a_node3"><a xlink:href="namespacecaiman_1_1mmapping.html#aeb2ed62e4a9028089a2eec09d392707f" target="_top" xlink:title="Load a memory mapped file created by the function save_memmap. ">
<polygon fill="white" stroke="black" points="203.517,-74.5 203.517,-102.5 322.905,-102.5 322.905,-74.5 203.517,-74.5"/>
<text text-anchor="start" x="211.517" y="-90.5" font-family="Helvetica,sans-Serif" font-size="10.00">caiman.mmapping.load</text>
<text text-anchor="middle" x="263.211" y="-80.5" font-family="Helvetica,sans-Serif" font-size="10.00">_memmap</text>
</a>
</g>
</g>
<!-- Node29&#45;&gt;Node30 -->
<g id="edge2" class="edge"><title>Node29&#45;&gt;Node30</title>
<path fill="none" stroke="midnightblue" d="M167.944,-52.8789C180.534,-57.6363 198.384,-64.3812 215.169,-70.724"/>
<polygon fill="midnightblue" stroke="midnightblue" points="214.29,-74.1333 224.882,-74.3941 216.764,-67.5852 214.29,-74.1333"/>
</g>
<!-- Node31 -->
<g id="node4" class="node"><title>Node31</title>
<g id="a_node4"><a xlink:href="namespacecaiman_1_1base_1_1movies.html#ad9b115e435b36308da1248112f09f0db" target="_top" xlink:title="Input filename should be full path excluding .sbx. ">
<polygon fill="white" stroke="black" points="228.531,-37.5 228.531,-55.5 297.891,-55.5 297.891,-37.5 228.531,-37.5"/>
<text text-anchor="middle" x="263.211" y="-43.5" font-family="Helvetica,sans-Serif" font-size="10.00">sbxreadskip</text>
</a>
</g>
</g>
<!-- Node29&#45;&gt;Node31 -->
<g id="edge3" class="edge"><title>Node29&#45;&gt;Node31</title>
<path fill="none" stroke="midnightblue" d="M167.944,-46.5C181.245,-46.5 200.416,-46.5 218.001,-46.5"/>
<polygon fill="midnightblue" stroke="midnightblue" points="218.115,-50.0001 228.115,-46.5 218.115,-43.0001 218.115,-50.0001"/>
</g>
<!-- Node35 -->
<g id="node8" class="node"><title>Node35</title>
<g id="a_node8"><a xlink:href="namespacecaiman_1_1base_1_1movies.html#ad72bfc8cc5386d4470caa0be723598e9" target="_top" xlink:title="Input filename should be full path excluding .sbx. ">
<polygon fill="white" stroke="black" points="237.423,-0.5 237.423,-18.5 288.999,-18.5 288.999,-0.5 237.423,-0.5"/>
<text text-anchor="middle" x="263.211" y="-6.5" font-family="Helvetica,sans-Serif" font-size="10.00">sbxread</text>
</a>
</g>
</g>
<!-- Node29&#45;&gt;Node35 -->
<g id="edge7" class="edge"><title>Node29&#45;&gt;Node35</title>
<path fill="none" stroke="midnightblue" d="M167.575,-40.751C177.892,-37.1797 191.46,-32.5196 203.517,-28.5 211.304,-25.9037 219.689,-23.159 227.616,-20.5875"/>
<polygon fill="midnightblue" stroke="midnightblue" points="228.894,-23.8529 237.333,-17.4471 226.741,-17.1921 228.894,-23.8529"/>
</g>
<!-- Node32 -->
<g id="node5" class="node"><title>Node32</title>
<g id="a_node5"><a xlink:href="namespacecaiman_1_1base_1_1movies.html#a1dae08ecd6c4b9ef41d5e820eb86604d" target="_top" xlink:title="loadmat_sbx">
<polygon fill="white" stroke="black" points="358.905,-18.5 358.905,-36.5 431.604,-36.5 431.604,-18.5 358.905,-18.5"/>
<text text-anchor="middle" x="395.255" y="-24.5" font-family="Helvetica,sans-Serif" font-size="10.00">loadmat_sbx</text>
</a>
</g>
</g>
<!-- Node31&#45;&gt;Node32 -->
<g id="edge4" class="edge"><title>Node31&#45;&gt;Node32</title>
<path fill="none" stroke="midnightblue" d="M298.039,-41.5576C313.495,-39.2994 332.032,-36.591 348.693,-34.1569"/>
<polygon fill="midnightblue" stroke="midnightblue" points="349.39,-37.5922 358.779,-32.6832 348.378,-30.6658 349.39,-37.5922"/>
</g>
<!-- Node33 -->
<g id="node6" class="node"><title>Node33</title>
<g id="a_node6"><a xlink:href="namespacecaiman_1_1base_1_1movies.html#abb80862aafd574c59a95c0b24268be69" target="_top" xlink:title="_check_keys">
<polygon fill="white" stroke="black" points="467.604,-18.5 467.604,-36.5 541.412,-36.5 541.412,-18.5 467.604,-18.5"/>
<text text-anchor="middle" x="504.508" y="-24.5" font-family="Helvetica,sans-Serif" font-size="10.00">_check_keys</text>
</a>
</g>
</g>
<!-- Node32&#45;&gt;Node33 -->
<g id="edge5" class="edge"><title>Node32&#45;&gt;Node33</title>
<path fill="none" stroke="midnightblue" d="M431.671,-27.5C439.826,-27.5 448.619,-27.5 457.161,-27.5"/>
<polygon fill="midnightblue" stroke="midnightblue" points="457.396,-31.0001 467.396,-27.5 457.396,-24.0001 457.396,-31.0001"/>
</g>
<!-- Node34 -->
<g id="node7" class="node"><title>Node34</title>
<g id="a_node7"><a xlink:href="namespacecaiman_1_1base_1_1movies.html#a3678b9e2ae337ad61ebe7630c5e08ead" target="_top" xlink:title="A recursive function which constructs from matobjects nested dictionaries. ">
<polygon fill="white" stroke="black" points="577.412,-18.5 577.412,-36.5 622.875,-36.5 622.875,-18.5 577.412,-18.5"/>
<text text-anchor="middle" x="600.144" y="-24.5" font-family="Helvetica,sans-Serif" font-size="10.00">_todict</text>
</a>
</g>
</g>
<!-- Node33&#45;&gt;Node34 -->
<g id="edge6" class="edge"><title>Node33&#45;&gt;Node34</title>
<path fill="none" stroke="midnightblue" d="M541.442,-27.5C549.928,-27.5 558.918,-27.5 567.213,-27.5"/>
<polygon fill="midnightblue" stroke="midnightblue" points="567.257,-31.0001 577.257,-27.5 567.257,-24.0001 567.257,-31.0001"/>
</g>
<!-- Node35&#45;&gt;Node32 -->
<g id="edge8" class="edge"><title>Node35&#45;&gt;Node32</title>
<path fill="none" stroke="midnightblue" d="M289.285,-12.9706C306.003,-15.2847 328.474,-18.395 348.336,-21.1442"/>
<polygon fill="midnightblue" stroke="midnightblue" points="348.055,-24.6385 358.44,-22.5427 349.015,-17.7046 348.055,-24.6385"/>
</g>
</g>
</svg>
