<?xml version="1.0" encoding="UTF-8" standalone="no"?>
<!DOCTYPE svg PUBLIC "-//W3C//DTD SVG 1.1//EN"
 "http://www.w3.org/Graphics/SVG/1.1/DTD/svg11.dtd">
<!-- Generated by graphviz version 2.38.0 (20140413.2041)
 -->
<!-- Title: sbxreadskip Pages: 1 -->
<svg width="377pt" height="27pt"
 viewBox="0.00 0.00 377.33 27.00" xmlns="http://www.w3.org/2000/svg" xmlns:xlink="http://www.w3.org/1999/xlink">
<g id="graph0" class="graph" transform="scale(1 1) rotate(0) translate(4 23)">
<title>sbxreadskip</title>
<polygon fill="white" stroke="none" points="-4,4 -4,-23 373.329,-23 373.329,4 -4,4"/>
<!-- Node54 -->
<g id="node1" class="node"><title>Node54</title>
<polygon fill="#bfbfbf" stroke="black" points="0,-0.5 0,-18.5 69.3594,-18.5 69.3594,-0.5 0,-0.5"/>
<text text-anchor="middle" x="34.6797" y="-6.5" font-family="Helvetica,sans-Serif" font-size="10.00">sbxreadskip</text>
</g>
<!-- Node55 -->
<g id="node2" class="node"><title>Node55</title>
<g id="a_node2"><a xlink:href="namespacecaiman_1_1base_1_1movies.html#a1dae08ecd6c4b9ef41d5e820eb86604d" target="_top" xlink:title="loadmat_sbx">
<polygon fill="white" stroke="black" points="105.359,-0.5 105.359,-18.5 178.059,-18.5 178.059,-0.5 105.359,-0.5"/>
<text text-anchor="middle" x="141.709" y="-6.5" font-family="Helvetica,sans-Serif" font-size="10.00">loadmat_sbx</text>
</a>
</g>
</g>
<!-- Node54&#45;&gt;Node55 -->
<g id="edge1" class="edge"><title>Node54&#45;&gt;Node55</title>
<path fill="none" stroke="midnightblue" d="M69.4897,-9.5C77.5901,-9.5 86.3733,-9.5 94.9154,-9.5"/>
<polygon fill="midnightblue" stroke="midnightblue" points="95.1532,-13.0001 105.153,-9.5 95.1531,-6.0001 95.1532,-13.0001"/>
</g>
<!-- Node56 -->
<g id="node3" class="node"><title>Node56</title>
<g id="a_node3"><a xlink:href="namespacecaiman_1_1base_1_1movies.html#abb80862aafd574c59a95c0b24268be69" target="_top" xlink:title="_check_keys">
<polygon fill="white" stroke="black" points="214.059,-0.5 214.059,-18.5 287.866,-18.5 287.866,-0.5 214.059,-0.5"/>
<text text-anchor="middle" x="250.962" y="-6.5" font-family="Helvetica,sans-Serif" font-size="10.00">_check_keys</text>
</a>
</g>
</g>
<!-- Node55&#45;&gt;Node56 -->
<g id="edge2" class="edge"><title>Node55&#45;&gt;Node56</title>
<path fill="none" stroke="midnightblue" d="M178.125,-9.5C186.28,-9.5 195.073,-9.5 203.615,-9.5"/>
<polygon fill="midnightblue" stroke="midnightblue" points="203.85,-13.0001 213.85,-9.5 203.85,-6.0001 203.85,-13.0001"/>
</g>
<!-- Node57 -->
<g id="node4" class="node"><title>Node57</title>
<g id="a_node4"><a xlink:href="namespacecaiman_1_1base_1_1movies.html#a3678b9e2ae337ad61ebe7630c5e08ead" target="_top" xlink:title="A recursive function which constructs from matobjects nested dictionaries. ">
<polygon fill="white" stroke="black" points="323.866,-0.5 323.866,-18.5 369.329,-18.5 369.329,-0.5 323.866,-0.5"/>
<text text-anchor="middle" x="346.598" y="-6.5" font-family="Helvetica,sans-Serif" font-size="10.00">_todict</text>
</a>
</g>
</g>
<!-- Node56&#45;&gt;Node57 -->
<g id="edge3" class="edge"><title>Node56&#45;&gt;Node57</title>
<path fill="none" stroke="midnightblue" d="M287.896,-9.5C296.382,-9.5 305.372,-9.5 313.667,-9.5"/>
<polygon fill="midnightblue" stroke="midnightblue" points="313.711,-13.0001 323.711,-9.5 313.711,-6.0001 313.711,-13.0001"/>
</g>
</g>
</svg>
