<?xml version="1.0" encoding="UTF-8" standalone="no"?>
<!DOCTYPE svg PUBLIC "-//W3C//DTD SVG 1.1//EN"
 "http://www.w3.org/Graphics/SVG/1.1/DTD/svg11.dtd">
<!-- Generated by graphviz version 2.38.0 (20140413.2041)
 -->
<!-- Title: main Pages: 1 -->
<svg width="201pt" height="175pt"
 viewBox="0.00 0.00 201.06 175.00" xmlns="http://www.w3.org/2000/svg" xmlns:xlink="http://www.w3.org/1999/xlink">
<g id="graph0" class="graph" transform="scale(1 1) rotate(0) translate(4 171)">
<title>main</title>
<polygon fill="white" stroke="none" points="-4,4 -4,-171 197.063,-171 197.063,4 -4,4"/>
<!-- Node21 -->
<g id="node1" class="node"><title>Node21</title>
<polygon fill="#bfbfbf" stroke="black" points="0,-55.5 0,-73.5 37.6748,-73.5 37.6748,-55.5 0,-55.5"/>
<text text-anchor="middle" x="18.8374" y="-61.5" font-family="Helvetica,sans-Serif" font-size="10.00">main</text>
</g>
<!-- Node22 -->
<g id="node2" class="node"><title>Node22</title>
<g id="a_node2"><a xlink:href="namespacecaiman_1_1behavior_1_1behavior.html#ac24ea957986e39f33ac3ceb78ed989d1" target="_top" xlink:title="Create a mask from a the convex polygon enclosed between selected points. ">
<polygon fill="white" stroke="black" points="103.97,-148.5 103.97,-166.5 162.768,-166.5 162.768,-148.5 103.97,-148.5"/>
<text text-anchor="middle" x="133.369" y="-154.5" font-family="Helvetica,sans-Serif" font-size="10.00">select_roi</text>
</a>
</g>
</g>
<!-- Node21&#45;&gt;Node22 -->
<g id="edge1" class="edge"><title>Node21&#45;&gt;Node22</title>
<path fill="none" stroke="midnightblue" d="M23.9143,-73.5912C31.4515,-89.3701 49.0706,-121.827 73.6748,-139.5 79.7453,-143.86 86.8943,-147.182 94.0753,-149.708"/>
<polygon fill="midnightblue" stroke="midnightblue" points="93.2027,-153.101 103.789,-152.681 95.2513,-146.408 93.2027,-153.101"/>
</g>
<!-- Node23 -->
<g id="node3" class="node"><title>Node23</title>
<g id="a_node3"><a xlink:href="namespacecaiman_1_1behavior_1_1behavior.html#a8f9ed50a7ba21081b068bf7967f74e09" target="_top" xlink:title="This function compute the optical flow of behavioral movies using the opencv cv2.calcOpticalFlowFarne...">
<polygon fill="white" stroke="black" points="77.2856,-111.5 77.2856,-129.5 189.453,-129.5 189.453,-111.5 77.2856,-111.5"/>
<text text-anchor="middle" x="133.369" y="-117.5" font-family="Helvetica,sans-Serif" font-size="10.00">compute_optical_flow</text>
</a>
</g>
</g>
<!-- Node21&#45;&gt;Node23 -->
<g id="edge2" class="edge"><title>Node21&#45;&gt;Node23</title>
<path fill="none" stroke="midnightblue" d="M30.7296,-73.7667C41.1651,-82.2479 57.652,-94.6392 73.6748,-102.5 77.7685,-104.508 82.1331,-106.348 86.5638,-108.02"/>
<polygon fill="midnightblue" stroke="midnightblue" points="85.6945,-111.423 96.2893,-111.41 87.9988,-104.813 85.6945,-111.423"/>
</g>
<!-- Node24 -->
<g id="node4" class="node"><title>Node24</title>
<g id="a_node4"><a xlink:href="namespacecaiman_1_1behavior_1_1behavior.html#ab7ca16e11cc59cf634fcdd9a2c6848f6" target="_top" xlink:title="From optical flow images can extract spatial and temporal components. ">
<polygon fill="white" stroke="black" points="80.3447,-74.5 80.3447,-92.5 186.394,-92.5 186.394,-74.5 80.3447,-74.5"/>
<text text-anchor="middle" x="133.369" y="-80.5" font-family="Helvetica,sans-Serif" font-size="10.00">extract_components</text>
</a>
</g>
</g>
<!-- Node21&#45;&gt;Node24 -->
<g id="edge3" class="edge"><title>Node21&#45;&gt;Node24</title>
<path fill="none" stroke="midnightblue" d="M37.9176,-67.5527C46.9457,-69.077 58.4573,-71.0206 70.3155,-73.0228"/>
<polygon fill="midnightblue" stroke="midnightblue" points="69.8678,-76.4967 80.311,-74.7104 71.0332,-69.5943 69.8678,-76.4967"/>
</g>
<!-- Node25 -->
<g id="node5" class="node"><title>Node25</title>
<g id="a_node5"><a xlink:href="namespacecaiman_1_1behavior_1_1behavior.html#ac7ebff37cde3a2bef4c8613654b60395" target="_top" xlink:title="Normalize the components using the std of the components obtaining using biunary masks. ">
<polygon fill="white" stroke="black" points="73.6748,-37.5 73.6748,-55.5 193.063,-55.5 193.063,-37.5 73.6748,-37.5"/>
<text text-anchor="middle" x="133.369" y="-43.5" font-family="Helvetica,sans-Serif" font-size="10.00">normalize_components</text>
</a>
</g>
</g>
<!-- Node21&#45;&gt;Node25 -->
<g id="edge4" class="edge"><title>Node21&#45;&gt;Node25</title>
<path fill="none" stroke="midnightblue" d="M37.9176,-56.4932C45.2032,-54.5708 54.1061,-52.6526 63.5033,-50.9182"/>
<polygon fill="midnightblue" stroke="midnightblue" points="64.1794,-54.3531 73.4281,-49.1847 62.975,-47.4575 64.1794,-54.3531"/>
</g>
<!-- Node26 -->
<g id="node6" class="node"><title>Node26</title>
<g id="a_node6"><a xlink:href="namespacecaiman_1_1behavior_1_1behavior.html#abd4cdefdebaf9128bc642c37c14eeec1" target="_top" xlink:title="%% single featureflow,. ">
<polygon fill="white" stroke="black" points="87.2881,-0.5 87.2881,-18.5 179.45,-18.5 179.45,-0.5 87.2881,-0.5"/>
<text text-anchor="middle" x="133.369" y="-6.5" font-family="Helvetica,sans-Serif" font-size="10.00">plot_components</text>
</a>
</g>
</g>
<!-- Node21&#45;&gt;Node26 -->
<g id="edge6" class="edge"><title>Node21&#45;&gt;Node26</title>
<path fill="none" stroke="midnightblue" d="M31.659,-55.1932C42.1987,-47.2468 58.2947,-35.9528 73.6748,-28.5 78.6146,-26.1063 83.9289,-23.9096 89.2698,-21.9268"/>
<polygon fill="midnightblue" stroke="midnightblue" points="90.5457,-25.1887 98.8369,-18.5927 88.2421,-18.5786 90.5457,-25.1887"/>
</g>
<!-- Node25&#45;&gt;Node21 -->
<g id="edge5" class="edge"><title>Node25&#45;&gt;Node21</title>
<path fill="none" stroke="midnightblue" d="M110.073,-55.5753C92.2315,-59.9286 67.1059,-64.0882 47.8968,-65.943"/>
<polygon fill="midnightblue" stroke="midnightblue" points="47.6145,-62.4543 37.9176,-66.7228 48.1599,-69.433 47.6145,-62.4543"/>
</g>
</g>
</svg>
