<?xml version="1.0" encoding="UTF-8" standalone="no"?>
<!DOCTYPE svg PUBLIC "-//W3C//DTD SVG 1.1//EN"
 "http://www.w3.org/Graphics/SVG/1.1/DTD/svg11.dtd">
<!-- Generated by graphviz version 2.38.0 (20140413.2041)
 -->
<!-- Title: extract_traces_mat Pages: 1 -->
<svg width="264pt" height="37pt"
 viewBox="0.00 0.00 263.88 37.00" xmlns="http://www.w3.org/2000/svg" xmlns:xlink="http://www.w3.org/1999/xlink">
<g id="graph0" class="graph" transform="scale(1 1) rotate(0) translate(4 33)">
<title>extract_traces_mat</title>
<polygon fill="white" stroke="none" points="-4,4 -4,-33 259.881,-33 259.881,4 -4,4"/>
<!-- Node9 -->
<g id="node1" class="node"><title>Node9</title>
<polygon fill="#bfbfbf" stroke="black" points="0,-5.5 0,-23.5 101.034,-23.5 101.034,-5.5 0,-5.5"/>
<text text-anchor="middle" x="50.5171" y="-11.5" font-family="Helvetica,sans-Serif" font-size="10.00">extract_traces_mat</text>
</g>
<!-- Node10 -->
<g id="node2" class="node"><title>Node10</title>
<g id="a_node2"><a xlink:href="namespaceuse__cases_1_1granule__cells_1_1utils__granule.html#aad284806a8bd8ed473166a9107a11253" target="_top" xlink:title="From the partial data stored retrieves variables of interest. ">
<polygon fill="white" stroke="black" points="137.034,-0.5 137.034,-28.5 255.881,-28.5 255.881,-0.5 137.034,-0.5"/>
<text text-anchor="start" x="145.034" y="-16.5" font-family="Helvetica,sans-Serif" font-size="10.00">load_data_from_stored</text>
<text text-anchor="middle" x="196.458" y="-6.5" font-family="Helvetica,sans-Serif" font-size="10.00">_results</text>
</a>
</g>
</g>
<!-- Node9&#45;&gt;Node10 -->
<g id="edge1" class="edge"><title>Node9&#45;&gt;Node10</title>
<path fill="none" stroke="midnightblue" d="M111.249,-7.8375C119.73,-7.71517 128.444,-7.72111 136.902,-7.85531"/>
<polygon fill="midnightblue" stroke="midnightblue" points="110.978,-4.3423 101.053,-8.05034 111.124,-11.3408 110.978,-4.3423"/>
</g>
<!-- Node10&#45;&gt;Node9 -->
<g id="edge2" class="edge"><title>Node10&#45;&gt;Node9</title>
<path fill="none" stroke="midnightblue" d="M126.774,-21.2437C118.095,-21.2768 109.353,-21.1788 101.053,-20.9497"/>
<polygon fill="midnightblue" stroke="midnightblue" points="126.936,-24.7424 136.902,-21.1447 126.868,-17.7427 126.936,-24.7424"/>
</g>
</g>
</svg>
