<?xml version="1.0" encoding="UTF-8" standalone="no"?>
<!DOCTYPE svg PUBLIC "-//W3C//DTD SVG 1.1//EN"
 "http://www.w3.org/Graphics/SVG/1.1/DTD/svg11.dtd">
<!-- Generated by graphviz version 2.38.0 (20140413.2041)
 -->
<!-- Title: create_weight_matrix_for_blending Pages: 1 -->
<!--zoomable 185 -->
<svg id="main" version="1.1" xmlns="http://www.w3.org/2000/svg" xmlns:xlink="http://www.w3.org/1999/xlink" xml:space="preserve" onload="init(evt)">
<style type="text/css"><![CDATA[
.edge:hover path { stroke: red; }
.edge:hover polygon { stroke: red; fill: red; }
]]></style>
<script type="text/javascript"><![CDATA[
var edges = document.getElementsByTagName('g');
if (edges && edges.length) {
  for (var i=0;i<edges.length;i++) {
    if (edges[i].id.substr(0,4)=='edge') {
      edges[i].setAttribute('class','edge');
    }
  }
}
]]></script>
        <defs>
                <circle id="rim" cx="0" cy="0" r="7"/>
                <circle id="rim2" cx="0" cy="0" r="3.5"/>
                <g id="zoomPlus">
                        <use xlink:href="#rim" fill="#404040">
                                <set attributeName="fill" to="#808080" begin="zoomplus.mouseover" end="zoomplus.mouseout"/>
                        </use>
                        <path d="M-4,0h8M0,-4v8" fill="none" stroke="white" stroke-width="1.5" pointer-events="none"/>
                </g>
                <g id="zoomMin">
                        <use xlink:href="#rim" fill="#404040">
                                <set attributeName="fill" to="#808080" begin="zoomminus.mouseover" end="zoomminus.mouseout"/>
                        </use>
                        <path d="M-4,0h8" fill="none" stroke="white" stroke-width="1.5" pointer-events="none"/>
                </g>
                <g id="dirArrow">
                        <path fill="none" stroke="white" stroke-width="1.5" d="M0,-3.0v7 M-2.5,-0.5L0,-3.0L2.5,-0.5"/>
                </g>
               <g id="resetDef">
                       <use xlink:href="#rim2" fill="#404040">
                               <set attributeName="fill" to="#808080" begin="reset.mouseover" end="reset.mouseout"/>
                       </use>
               </g>
        </defs>

<script type="text/javascript">
var viewWidth = 548;
var viewHeight = 185;
var sectionId = 'dynsection-9';
</script>
<script xlink:href="svgpan.js"/>
<svg id="graph" class="graph">
<g id="viewport">
<title>create_weight_matrix_for_blending</title>
<polygon fill="white" stroke="none" points="-4,4 -4,-181 543.798,-181 543.798,4 -4,4"/>
<!-- Node56 -->
<g id="node1" class="node"><title>Node56</title>
<polygon fill="#bfbfbf" stroke="black" points="0,-88.5 0,-116.5 111.044,-116.5 111.044,-88.5 0,-88.5"/>
<text text-anchor="start" x="8" y="-104.5" font-family="Helvetica,sans-Serif" font-size="10.00">create_weight_matrix</text>
<text text-anchor="middle" x="55.522" y="-94.5" font-family="Helvetica,sans-Serif" font-size="10.00">_for_blending</text>
</g>
<!-- Node57 -->
<g id="node2" class="node"><title>Node57</title>
<g id="a_node2"><a xlink:href="namespacecaiman_1_1motion__correction.html#aef362667b31a29dfcc1a0c35c87f01ad" target="_top" xlink:title="efficiently and lazily slides a window across the image Parameters img:ndarray 2D image that needs to...">
<polygon fill="white" stroke="black" points="292.423,-158.5 292.423,-176.5 375.684,-176.5 375.684,-158.5 292.423,-158.5"/>
<text text-anchor="middle" x="334.053" y="-164.5" font-family="Helvetica,sans-Serif" font-size="10.00">sliding_window</text>
</a>
</g>
</g>
<!-- Node56&#45;&gt;Node57 -->
<g id="edge1" class="edge"><title>Node56&#45;&gt;Node57</title>
<path fill="none" stroke="midnightblue" d="M111.156,-115.342C161.706,-127.224 236.146,-144.722 284.617,-156.115"/>
<polygon fill="midnightblue" stroke="midnightblue" points="284.013,-159.568 294.548,-158.449 285.614,-152.754 284.013,-159.568"/>
</g>
<!-- Node58 -->
<g id="node3" class="node"><title>Node58</title>
<g id="a_node3"><a xlink:href="namespacecaiman_1_1motion__correction.html#aea060208c09f0e4fb01e6d31b9acf36f" target="_top" xlink:title="perform piecewise rigid motion correction iteration, by 1) dividing the FOV in patches 2) motion corr...">
<polygon fill="white" stroke="black" points="147.044,-93.5 147.044,-111.5 234.196,-111.5 234.196,-93.5 147.044,-93.5"/>
<text text-anchor="middle" x="190.62" y="-99.5" font-family="Helvetica,sans-Serif" font-size="10.00">tile_and_correct</text>
</a>
</g>
</g>
<!-- Node56&#45;&gt;Node58 -->
<g id="edge2" class="edge"><title>Node56&#45;&gt;Node58</title>
<path fill="none" stroke="midnightblue" d="M111.427,-95.8427C119.877,-95.7069 128.587,-95.7203 136.987,-95.8829"/>
<polygon fill="midnightblue" stroke="midnightblue" points="136.95,-99.3831 147.041,-96.1553 137.139,-92.3857 136.95,-99.3831"/>
</g>
<!-- Node58&#45;&gt;Node56 -->
<g id="edge9" class="edge"><title>Node58&#45;&gt;Node56</title>
<path fill="none" stroke="midnightblue" d="M147.041,-108.845C138.898,-109.132 130.203,-109.266 121.542,-109.248"/>
<polygon fill="midnightblue" stroke="midnightblue" points="121.458,-105.748 111.427,-109.157 121.395,-112.747 121.458,-105.748"/>
</g>
<!-- Node58&#45;&gt;Node57 -->
<g id="edge8" class="edge"><title>Node58&#45;&gt;Node57</title>
<path fill="none" stroke="midnightblue" d="M204.405,-111.578C219.511,-121.958 245.694,-138.88 270.196,-149.5 275.02,-151.591 280.155,-153.514 285.332,-155.262"/>
<polygon fill="midnightblue" stroke="midnightblue" points="284.677,-158.726 295.267,-158.406 286.788,-152.052 284.677,-158.726"/>
</g>
<!-- Node59 -->
<g id="node4" class="node"><title>Node59</title>
<g id="a_node4"><a xlink:href="namespacecaiman_1_1motion__correction.html#a0700d66a3a6b2556b1c712daf9c18a9b" target="_top" xlink:title="register_translation">
<polygon fill="white" stroke="black" points="283.531,-121.5 283.531,-139.5 384.575,-139.5 384.575,-121.5 283.531,-121.5"/>
<text text-anchor="middle" x="334.053" y="-127.5" font-family="Helvetica,sans-Serif" font-size="10.00">register_translation</text>
</a>
</g>
</g>
<!-- Node58&#45;&gt;Node59 -->
<g id="edge3" class="edge"><title>Node58&#45;&gt;Node59</title>
<path fill="none" stroke="midnightblue" d="M234.439,-110.977C247.916,-113.645 263.003,-116.632 277.245,-119.452"/>
<polygon fill="midnightblue" stroke="midnightblue" points="276.942,-122.959 287.431,-121.468 278.302,-116.093 276.942,-122.959"/>
</g>
<!-- Node62 -->
<g id="node7" class="node"><title>Node62</title>
<g id="a_node7"><a xlink:href="namespacecaiman_1_1motion__correction.html#a54e0e94e8c54dadcad8bc6688e46c590" target="_top" xlink:title="apply_shift_iteration">
<polygon fill="white" stroke="black" points="281.581,-84.5 281.581,-102.5 386.526,-102.5 386.526,-84.5 281.581,-84.5"/>
<text text-anchor="middle" x="334.053" y="-90.5" font-family="Helvetica,sans-Serif" font-size="10.00">apply_shift_iteration</text>
</a>
</g>
</g>
<!-- Node58&#45;&gt;Node62 -->
<g id="edge6" class="edge"><title>Node58&#45;&gt;Node62</title>
<path fill="none" stroke="midnightblue" d="M234.439,-99.7753C245.999,-99.0396 258.744,-98.2286 271.124,-97.4408"/>
<polygon fill="midnightblue" stroke="midnightblue" points="271.646,-100.915 281.403,-96.7867 271.201,-93.9289 271.646,-100.915"/>
</g>
<!-- Node63 -->
<g id="node8" class="node"><title>Node63</title>
<g id="a_node8"><a xlink:href="namespacecaiman_1_1motion__correction.html#ad4fabc7e2b2082da438e99a60ca41d96" target="_top" xlink:title="apply_shifts_dft">
<polygon fill="white" stroke="black" points="291.31,-47.5 291.31,-65.5 376.797,-65.5 376.797,-47.5 291.31,-47.5"/>
<text text-anchor="middle" x="334.053" y="-53.5" font-family="Helvetica,sans-Serif" font-size="10.00">apply_shifts_dft</text>
</a>
</g>
</g>
<!-- Node58&#45;&gt;Node63 -->
<g id="edge7" class="edge"><title>Node58&#45;&gt;Node63</title>
<path fill="none" stroke="midnightblue" d="M217.374,-93.3788C232.675,-88.0277 252.488,-81.2165 270.196,-75.5 277.438,-73.1622 285.177,-70.7518 292.661,-68.4656"/>
<polygon fill="midnightblue" stroke="midnightblue" points="293.734,-71.7976 302.29,-65.5482 291.704,-65.0983 293.734,-71.7976"/>
</g>
<!-- Node64 -->
<g id="node9" class="node"><title>Node64</title>
<g id="a_node9"><a xlink:href="namespacecaiman_1_1motion__correction.html#a93dc0dbba76cd31384bb0fdca775fff6" target="_top" xlink:title="compute_metrics_motion\l_correction">
<polygon fill="white" stroke="black" points="270.196,-0.5 270.196,-28.5 397.91,-28.5 397.91,-0.5 270.196,-0.5"/>
<text text-anchor="start" x="278.196" y="-16.5" font-family="Helvetica,sans-Serif" font-size="10.00">compute_metrics_motion</text>
<text text-anchor="middle" x="334.053" y="-6.5" font-family="Helvetica,sans-Serif" font-size="10.00">_correction</text>
</a>
</g>
</g>
<!-- Node58&#45;&gt;Node64 -->
<g id="edge10" class="edge"><title>Node58&#45;&gt;Node64</title>
<path fill="none" stroke="midnightblue" d="M200.516,-93.3663C214.324,-79.6244 242.249,-53.5369 270.196,-37.5 273.069,-35.8517 276.081,-34.2854 279.165,-32.8032"/>
<polygon fill="midnightblue" stroke="midnightblue" points="280.862,-35.8788 288.571,-28.611 278.013,-29.485 280.862,-35.8788"/>
</g>
<!-- Node60 -->
<g id="node5" class="node"><title>Node60</title>
<g id="a_node5"><a xlink:href="namespacecaiman_1_1motion__correction.html#aa339d12f180017a763175f450816f158" target="_top" xlink:title="_upsampled_dft">
<polygon fill="white" stroke="black" points="443.273,-139.5 443.273,-157.5 530.435,-157.5 530.435,-139.5 443.273,-139.5"/>
<text text-anchor="middle" x="486.854" y="-145.5" font-family="Helvetica,sans-Serif" font-size="10.00">_upsampled_dft</text>
</a>
</g>
</g>
<!-- Node59&#45;&gt;Node60 -->
<g id="edge4" class="edge"><title>Node59&#45;&gt;Node60</title>
<path fill="none" stroke="midnightblue" d="M384.849,-136.444C400.332,-138.292 417.449,-140.335 433.124,-142.206"/>
<polygon fill="midnightblue" stroke="midnightblue" points="432.841,-145.697 443.185,-143.407 433.671,-138.746 432.841,-145.697"/>
</g>
<!-- Node61 -->
<g id="node6" class="node"><title>Node61</title>
<g id="a_node6"><a xlink:href="namespacecaiman_1_1motion__correction.html#a09859fe5f2beba321b5397662b26651b" target="_top" xlink:title="_compute_phasediff">
<polygon fill="white" stroke="black" points="433.91,-102.5 433.91,-120.5 539.798,-120.5 539.798,-102.5 433.91,-102.5"/>
<text text-anchor="middle" x="486.854" y="-108.5" font-family="Helvetica,sans-Serif" font-size="10.00">_compute_phasediff</text>
</a>
</g>
</g>
<!-- Node59&#45;&gt;Node61 -->
<g id="edge5" class="edge"><title>Node59&#45;&gt;Node61</title>
<path fill="none" stroke="midnightblue" d="M384.849,-124.226C397.237,-122.665 410.671,-120.973 423.577,-119.347"/>
<polygon fill="midnightblue" stroke="midnightblue" points="424.299,-122.783 433.783,-118.061 423.424,-115.838 424.299,-122.783"/>
</g>
</g>
</svg>
        <g id="navigator" transform="translate(0 0)" fill="#404254">
                <rect fill="#f2f5e9" fill-opacity="0.5" stroke="#606060" stroke-width=".5" x="0" y="0" width="60" height="60"/>
                <use id="zoomplus" xlink:href="#zoomPlus" x="17" y="9" onmousedown="handleZoom(evt,'in')"/>
                <use id="zoomminus" xlink:href="#zoomMin" x="42" y="9" onmousedown="handleZoom(evt,'out')"/>
                <use id="reset" xlink:href="#resetDef" x="30" y="36" onmousedown="handleReset()"/>
                <g id="arrowUp" xlink:href="#dirArrow" transform="translate(30 24)" onmousedown="handlePan(0,-1)">
                  <use xlink:href="#rim" fill="#404040">
                        <set attributeName="fill" to="#808080" begin="arrowUp.mouseover" end="arrowUp.mouseout"/>
                  </use>
                  <path fill="none" stroke="white" stroke-width="1.5" d="M0,-3.0v7 M-2.5,-0.5L0,-3.0L2.5,-0.5"/>
                </g>
                <g id="arrowRight" xlink:href="#dirArrow" transform="rotate(90) translate(36 -43)" onmousedown="handlePan(1,0)">
                  <use xlink:href="#rim" fill="#404040">
                        <set attributeName="fill" to="#808080" begin="arrowRight.mouseover" end="arrowRight.mouseout"/>
                  </use>
                  <path fill="none" stroke="white" stroke-width="1.5" d="M0,-3.0v7 M-2.5,-0.5L0,-3.0L2.5,-0.5"/>
                </g>
                <g id="arrowDown" xlink:href="#dirArrow" transform="rotate(180) translate(-30 -48)" onmousedown="handlePan(0,1)">
                  <use xlink:href="#rim" fill="#404040">
                        <set attributeName="fill" to="#808080" begin="arrowDown.mouseover" end="arrowDown.mouseout"/>
                  </use>
                  <path fill="none" stroke="white" stroke-width="1.5" d="M0,-3.0v7 M-2.5,-0.5L0,-3.0L2.5,-0.5"/>
                </g>
                <g id="arrowLeft" xlink:href="#dirArrow" transform="rotate(270) translate(-36 17)" onmousedown="handlePan(-1,0)">
                  <use xlink:href="#rim" fill="#404040">
                        <set attributeName="fill" to="#808080" begin="arrowLeft.mouseover" end="arrowLeft.mouseout"/>
                  </use>
                  <path fill="none" stroke="white" stroke-width="1.5" d="M0,-3.0v7 M-2.5,-0.5L0,-3.0L2.5,-0.5"/>
                </g>
        </g>
        <svg viewBox="0 0 15 15" width="100%" height="30px" preserveAspectRatio="xMaxYMin meet">
         <g id="arrow_out" transform="scale(0.3 0.3)">
          <a xlink:href="namespacecaiman_1_1motion__correction_a88ef513cfa324fc8548e4fb46d7a67e5_cgraph_org.svg" target="_base">
           <rect id="button" ry="5" rx="5" y="6" x="6" height="38" width="38"
                fill="#f2f5e9" fill-opacity="0.5" stroke="#606060" stroke-width="1.0"/>
           <path id="arrow"
             d="M 11.500037,31.436501 C 11.940474,20.09759 22.043105,11.32322 32.158766,21.979434 L 37.068811,17.246167 C 37.068811,17.246167 37.088388,32 37.088388,32 L 22.160133,31.978069 C 22.160133,31.978069 26.997745,27.140456 26.997745,27.140456 C 18.528582,18.264221 13.291696,25.230495 11.500037,31.436501 z"
             style="fill:#404040;"/>
          </a>
         </g>
        </svg>
</svg>
