<?xml version="1.0" encoding="UTF-8" standalone="no"?>
<!DOCTYPE svg PUBLIC "-//W3C//DTD SVG 1.1//EN"
 "http://www.w3.org/Graphics/SVG/1.1/DTD/svg11.dtd">
<!-- Generated by graphviz version 2.38.0 (20140413.2041)
 -->
<!-- Title: loadmat_sbx Pages: 1 -->
<svg width="272pt" height="27pt"
 viewBox="0.00 0.00 271.97 27.00" xmlns="http://www.w3.org/2000/svg" xmlns:xlink="http://www.w3.org/1999/xlink">
<g id="graph0" class="graph" transform="scale(1 1) rotate(0) translate(4 23)">
<title>loadmat_sbx</title>
<polygon fill="white" stroke="none" points="-4,4 -4,-23 267.97,-23 267.97,4 -4,4"/>
<!-- Node38 -->
<g id="node1" class="node"><title>Node38</title>
<polygon fill="#bfbfbf" stroke="black" points="0,-0.5 0,-18.5 72.6992,-18.5 72.6992,-0.5 0,-0.5"/>
<text text-anchor="middle" x="36.3496" y="-6.5" font-family="Helvetica,sans-Serif" font-size="10.00">loadmat_sbx</text>
</g>
<!-- Node39 -->
<g id="node2" class="node"><title>Node39</title>
<g id="a_node2"><a xlink:href="namespacecaiman_1_1base_1_1movies.html#abb80862aafd574c59a95c0b24268be69" target="_top" xlink:title="_check_keys">
<polygon fill="white" stroke="black" points="108.699,-0.5 108.699,-18.5 182.507,-18.5 182.507,-0.5 108.699,-0.5"/>
<text text-anchor="middle" x="145.603" y="-6.5" font-family="Helvetica,sans-Serif" font-size="10.00">_check_keys</text>
</a>
</g>
</g>
<!-- Node38&#45;&gt;Node39 -->
<g id="edge1" class="edge"><title>Node38&#45;&gt;Node39</title>
<path fill="none" stroke="midnightblue" d="M72.7656,-9.5C80.9209,-9.5 89.7137,-9.5 98.2556,-9.5"/>
<polygon fill="midnightblue" stroke="midnightblue" points="98.4905,-13.0001 108.49,-9.5 98.4904,-6.0001 98.4905,-13.0001"/>
</g>
<!-- Node40 -->
<g id="node3" class="node"><title>Node40</title>
<g id="a_node3"><a xlink:href="namespacecaiman_1_1base_1_1movies.html#a3678b9e2ae337ad61ebe7630c5e08ead" target="_top" xlink:title="A recursive function which constructs from matobjects nested dictionaries. ">
<polygon fill="white" stroke="black" points="218.507,-0.5 218.507,-18.5 263.97,-18.5 263.97,-0.5 218.507,-0.5"/>
<text text-anchor="middle" x="241.238" y="-6.5" font-family="Helvetica,sans-Serif" font-size="10.00">_todict</text>
</a>
</g>
</g>
<!-- Node39&#45;&gt;Node40 -->
<g id="edge2" class="edge"><title>Node39&#45;&gt;Node40</title>
<path fill="none" stroke="midnightblue" d="M182.537,-9.5C191.023,-9.5 200.013,-9.5 208.308,-9.5"/>
<polygon fill="midnightblue" stroke="midnightblue" points="208.352,-13.0001 218.351,-9.5 208.351,-6.0001 208.352,-13.0001"/>
</g>
</g>
</svg>
