<?xml version="1.0" encoding="UTF-8" standalone="no"?>
<!DOCTYPE svg PUBLIC "-//W3C//DTD SVG 1.1//EN"
 "http://www.w3.org/Graphics/SVG/1.1/DTD/svg11.dtd">
<!-- Generated by graphviz version 2.38.0 (20140413.2041)
 -->
<!-- Title: get_image_description_SI Pages: 1 -->
<svg width="325pt" height="27pt"
 viewBox="0.00 0.00 324.79 27.00" xmlns="http://www.w3.org/2000/svg" xmlns:xlink="http://www.w3.org/1999/xlink">
<g id="graph0" class="graph" transform="scale(1 1) rotate(0) translate(4 23)">
<title>get_image_description_SI</title>
<polygon fill="white" stroke="none" points="-4,4 -4,-23 320.787,-23 320.787,4 -4,4"/>
<!-- Node2 -->
<g id="node1" class="node"><title>Node2</title>
<polygon fill="#bfbfbf" stroke="black" points="0,-0.5 0,-18.5 131.63,-18.5 131.63,-0.5 0,-0.5"/>
<text text-anchor="middle" x="65.8149" y="-6.5" font-family="Helvetica,sans-Serif" font-size="10.00">get_image_description_SI</text>
</g>
<!-- Node3 -->
<g id="node2" class="node"><title>Node3</title>
<g id="a_node2"><a xlink:href="namespacecaiman_1_1utils_1_1utils.html#acb92eaecdc1f6d8e00bc14c21dceef9a" target="_top" xlink:title="parse image_description field embedded by scanimage from get iamge description ">
<polygon fill="white" stroke="black" points="167.63,-0.5 167.63,-18.5 221.428,-18.5 221.428,-0.5 167.63,-0.5"/>
<text text-anchor="middle" x="194.529" y="-6.5" font-family="Helvetica,sans-Serif" font-size="10.00">si_parse</text>
</a>
</g>
</g>
<!-- Node2&#45;&gt;Node3 -->
<g id="edge1" class="edge"><title>Node2&#45;&gt;Node3</title>
<path fill="none" stroke="midnightblue" d="M131.657,-9.5C140.463,-9.5 149.231,-9.5 157.28,-9.5"/>
<polygon fill="midnightblue" stroke="midnightblue" points="157.389,-13.0001 167.389,-9.5 157.389,-6.0001 157.389,-13.0001"/>
</g>
<!-- Node4 -->
<g id="node3" class="node"><title>Node4</title>
<g id="a_node3"><a xlink:href="namespacecaiman_1_1utils_1_1utils.html#a2da4278493c8ec9464cd1b2d00f12bf2" target="_top" xlink:title="parse values from si tags into python objects if possible from si parse ">
<polygon fill="white" stroke="black" points="257.428,-0.5 257.428,-18.5 316.787,-18.5 316.787,-0.5 257.428,-0.5"/>
<text text-anchor="middle" x="287.107" y="-6.5" font-family="Helvetica,sans-Serif" font-size="10.00">val_parse</text>
</a>
</g>
</g>
<!-- Node3&#45;&gt;Node4 -->
<g id="edge2" class="edge"><title>Node3&#45;&gt;Node4</title>
<path fill="none" stroke="midnightblue" d="M221.728,-9.5C229.603,-9.5 238.42,-9.5 246.943,-9.5"/>
<polygon fill="midnightblue" stroke="midnightblue" points="247.109,-13.0001 257.109,-9.5 247.109,-6.0001 247.109,-13.0001"/>
</g>
</g>
</svg>
