<?xml version="1.0" encoding="UTF-8" standalone="no"?>
<!DOCTYPE svg PUBLIC "-//W3C//DTD SVG 1.1//EN"
 "http://www.w3.org/Graphics/SVG/1.1/DTD/svg11.dtd">
<!-- Generated by graphviz version 2.38.0 (20140413.2041)
 -->
<!-- Title: update_spatial_components Pages: 1 -->
<svg width="627pt" height="150pt"
 viewBox="0.00 0.00 626.94 150.00" xmlns="http://www.w3.org/2000/svg" xmlns:xlink="http://www.w3.org/1999/xlink">
<g id="graph0" class="graph" transform="scale(1 1) rotate(0) translate(4 146)">
<title>update_spatial_components</title>
<polygon fill="white" stroke="none" points="-4,4 -4,-146 622.938,-146 622.938,4 -4,4"/>
<!-- Node39 -->
<g id="node1" class="node"><title>Node39</title>
<polygon fill="#bfbfbf" stroke="black" points="0,-66.5 0,-84.5 141.093,-84.5 141.093,-66.5 0,-66.5"/>
<text text-anchor="middle" x="70.5464" y="-72.5" font-family="Helvetica,sans-Serif" font-size="10.00">update_spatial_components</text>
</g>
<!-- Node40 -->
<g id="node2" class="node"><title>Node40</title>
<g id="a_node2"><a xlink:href="namespacecaiman_1_1source__extraction_1_1cnmf_1_1spatial.html#aca0edbf4c2cd31fe1a9c228c4099a485" target="_top" xlink:title="restrict search location to subset of pixels ">
<polygon fill="white" stroke="black" points="177.093,-123.5 177.093,-141.5 313.166,-141.5 313.166,-123.5 177.093,-123.5"/>
<text text-anchor="middle" x="245.129" y="-129.5" font-family="Helvetica,sans-Serif" font-size="10.00">determine_search_location</text>
</a>
</g>
</g>
<!-- Node39&#45;&gt;Node40 -->
<g id="edge1" class="edge"><title>Node39&#45;&gt;Node40</title>
<path fill="none" stroke="midnightblue" d="M98.8927,-84.5318C128.093,-94.1759 174.542,-109.517 207.027,-120.246"/>
<polygon fill="midnightblue" stroke="midnightblue" points="206.033,-123.603 216.626,-123.416 208.228,-116.957 206.033,-123.603"/>
</g>
<!-- Node41 -->
<g id="node3" class="node"><title>Node41</title>
<g id="a_node3"><a xlink:href="namespacecaiman_1_1mmapping.html#aeb2ed62e4a9028089a2eec09d392707f" target="_top" xlink:title="Load a memory mapped file created by the function save_memmap. ">
<polygon fill="white" stroke="black" points="499.55,-49.5 499.55,-77.5 618.938,-77.5 618.938,-49.5 499.55,-49.5"/>
<text text-anchor="start" x="507.55" y="-65.5" font-family="Helvetica,sans-Serif" font-size="10.00">caiman.mmapping.load</text>
<text text-anchor="middle" x="559.244" y="-55.5" font-family="Helvetica,sans-Serif" font-size="10.00">_memmap</text>
</a>
</g>
</g>
<!-- Node39&#45;&gt;Node41 -->
<g id="edge2" class="edge"><title>Node39&#45;&gt;Node41</title>
<path fill="none" stroke="midnightblue" d="M141.341,-76.4025C189.605,-76.8053 255.295,-76.9159 313.166,-75.5 372.605,-74.0457 440.08,-70.6102 489.161,-67.7861"/>
<polygon fill="midnightblue" stroke="midnightblue" points="489.565,-71.2686 499.345,-67.1937 489.159,-64.2804 489.565,-71.2686"/>
</g>
<!-- Node42 -->
<g id="node4" class="node"><title>Node42</title>
<g id="a_node4"><a xlink:href="namespacecaiman_1_1source__extraction_1_1cnmf_1_1spatial.html#a3fa5db8c88b06457233eb35dbcea3588" target="_top" xlink:title="threshold_components">
<polygon fill="white" stroke="black" points="186.541,-47.5 186.541,-65.5 303.718,-65.5 303.718,-47.5 186.541,-47.5"/>
<text text-anchor="middle" x="245.129" y="-53.5" font-family="Helvetica,sans-Serif" font-size="10.00">threshold_components</text>
</a>
</g>
</g>
<!-- Node39&#45;&gt;Node42 -->
<g id="edge3" class="edge"><title>Node39&#45;&gt;Node42</title>
<path fill="none" stroke="midnightblue" d="M141.245,-67.8267C152.822,-66.5522 164.813,-65.2321 176.342,-63.9629"/>
<polygon fill="midnightblue" stroke="midnightblue" points="176.775,-67.4364 186.332,-62.8631 176.009,-60.4785 176.775,-67.4364"/>
</g>
<!-- Node43 -->
<g id="node5" class="node"><title>Node43</title>
<g id="a_node5"><a xlink:href="namespacecaiman_1_1mmapping.html#aa75ec735ea507b2ce7eb0e0bd33d2ba3" target="_top" xlink:title="Chunk matrix product between matrix and column vectors A memory mapped ndarray pixels x time b time x...">
<polygon fill="white" stroke="black" points="178.768,-0.5 178.768,-28.5 311.491,-28.5 311.491,-0.5 178.768,-0.5"/>
<text text-anchor="start" x="186.768" y="-16.5" font-family="Helvetica,sans-Serif" font-size="10.00">caiman.mmapping.parallel</text>
<text text-anchor="middle" x="245.129" y="-6.5" font-family="Helvetica,sans-Serif" font-size="10.00">_dot_product</text>
</a>
</g>
</g>
<!-- Node39&#45;&gt;Node43 -->
<g id="edge4" class="edge"><title>Node39&#45;&gt;Node43</title>
<path fill="none" stroke="midnightblue" d="M96.2469,-66.4882C117.613,-58.7213 149.349,-47.253 177.093,-37.5 182.316,-35.6637 187.775,-33.7623 193.224,-31.8754"/>
<polygon fill="midnightblue" stroke="midnightblue" points="194.66,-35.0827 202.971,-28.5119 192.376,-28.4656 194.66,-35.0827"/>
</g>
<!-- Node44 -->
<g id="node6" class="node"><title>Node44</title>
<g id="a_node6"><a xlink:href="namespacecaiman_1_1mmapping.html#a14d47c076020d7d3adf2599ed3354e4b" target="_top" xlink:title="caiman.mmapping.dot\l_place_holder">
<polygon fill="white" stroke="black" points="349.166,-19.5 349.166,-47.5 463.55,-47.5 463.55,-19.5 349.166,-19.5"/>
<text text-anchor="start" x="357.166" y="-35.5" font-family="Helvetica,sans-Serif" font-size="10.00">caiman.mmapping.dot</text>
<text text-anchor="middle" x="406.358" y="-25.5" font-family="Helvetica,sans-Serif" font-size="10.00">_place_holder</text>
</a>
</g>
</g>
<!-- Node43&#45;&gt;Node44 -->
<g id="edge5" class="edge"><title>Node43&#45;&gt;Node44</title>
<path fill="none" stroke="midnightblue" d="M311.813,-22.3377C320.776,-23.4072 329.982,-24.5057 338.957,-25.5767"/>
<polygon fill="midnightblue" stroke="midnightblue" points="338.624,-29.0616 348.968,-26.7712 339.453,-22.1109 338.624,-29.0616"/>
</g>
<!-- Node44&#45;&gt;Node41 -->
<g id="edge6" class="edge"><title>Node44&#45;&gt;Node41</title>
<path fill="none" stroke="midnightblue" d="M463.972,-44.7562C472.266,-46.4054 480.885,-48.119 489.391,-49.8102"/>
<polygon fill="midnightblue" stroke="midnightblue" points="488.808,-53.2627 499.298,-51.7801 490.173,-46.3971 488.808,-53.2627"/>
</g>
</g>
</svg>
