<?xml version="1.0" encoding="UTF-8" standalone="no"?>
<!DOCTYPE svg PUBLIC "-//W3C//DTD SVG 1.1//EN"
 "http://www.w3.org/Graphics/SVG/1.1/DTD/svg11.dtd">
<!-- Generated by graphviz version 2.38.0 (20140413.2041)
 -->
<!-- Title: greedyROI Pages: 1 -->
<svg width="160pt" height="64pt"
 viewBox="0.00 0.00 159.94 64.00" xmlns="http://www.w3.org/2000/svg" xmlns:xlink="http://www.w3.org/1999/xlink">
<g id="graph0" class="graph" transform="scale(1 1) rotate(0) translate(4 60)">
<title>greedyROI</title>
<polygon fill="white" stroke="none" points="-4,4 -4,-60 155.94,-60 155.94,4 -4,4"/>
<!-- Node5 -->
<g id="node1" class="node"><title>Node5</title>
<polygon fill="#bfbfbf" stroke="black" points="0,-18.5 0,-36.5 64.3545,-36.5 64.3545,-18.5 0,-18.5"/>
<text text-anchor="middle" x="32.1772" y="-24.5" font-family="Helvetica,sans-Serif" font-size="10.00">greedyROI</text>
</g>
<!-- Node6 -->
<g id="node2" class="node"><title>Node6</title>
<g id="a_node2"><a xlink:href="namespacecaiman_1_1source__extraction_1_1cnmf_1_1initialization.html#ac8f4ada67920c28ee00d92af03cb4f8b" target="_top" xlink:title="Spatial filtering with a Gaussian or user defined kernel The parameters are specified in GreedyROI...">
<polygon fill="white" stroke="black" points="104.534,-37.5 104.534,-55.5 147.761,-55.5 147.761,-37.5 104.534,-37.5"/>
<text text-anchor="middle" x="126.147" y="-43.5" font-family="Helvetica,sans-Serif" font-size="10.00">imblur</text>
</a>
</g>
</g>
<!-- Node5&#45;&gt;Node6 -->
<g id="edge1" class="edge"><title>Node5&#45;&gt;Node6</title>
<path fill="none" stroke="midnightblue" d="M64.5709,-33.9856C74.2011,-35.9751 84.7837,-38.1613 94.3721,-40.1422"/>
<polygon fill="midnightblue" stroke="midnightblue" points="93.7928,-43.5963 104.294,-42.1919 95.2091,-36.7411 93.7928,-43.5963"/>
</g>
<!-- Node7 -->
<g id="node3" class="node"><title>Node7</title>
<g id="a_node3"><a xlink:href="namespacecaiman_1_1source__extraction_1_1cnmf_1_1initialization.html#a34abf87100936b47d488cefbb9def7e9" target="_top" xlink:title="Fine tuning of components within greedyROI using rank&#45;1 NMF. ">
<polygon fill="white" stroke="black" points="100.354,-0.5 100.354,-18.5 151.94,-18.5 151.94,-0.5 100.354,-0.5"/>
<text text-anchor="middle" x="126.147" y="-6.5" font-family="Helvetica,sans-Serif" font-size="10.00">finetune</text>
</a>
</g>
</g>
<!-- Node5&#45;&gt;Node7 -->
<g id="edge2" class="edge"><title>Node5&#45;&gt;Node7</title>
<path fill="none" stroke="midnightblue" d="M64.5709,-21.3558C72.8579,-19.7339 81.8501,-17.974 90.3072,-16.3188"/>
<polygon fill="midnightblue" stroke="midnightblue" points="91.1326,-19.7237 100.274,-14.3681 89.7881,-12.8541 91.1326,-19.7237"/>
</g>
</g>
</svg>
