<?xml version="1.0" encoding="UTF-8" standalone="no"?>
<!DOCTYPE svg PUBLIC "-//W3C//DTD SVG 1.1//EN"
 "http://www.w3.org/Graphics/SVG/1.1/DTD/svg11.dtd">
<!-- Generated by graphviz version 2.38.0 (20140413.2041)
 -->
<!-- Title: stop_server Pages: 1 -->
<svg width="438pt" height="92pt"
 viewBox="0.00 0.00 438.15 92.00" xmlns="http://www.w3.org/2000/svg" xmlns:xlink="http://www.w3.org/1999/xlink">
<g id="graph0" class="graph" transform="scale(1 1) rotate(0) translate(4 88)">
<title>stop_server</title>
<polygon fill="white" stroke="none" points="-4,4 -4,-88 434.146,-88 434.146,4 -4,4"/>
<!-- Node40 -->
<g id="node1" class="node"><title>Node40</title>
<polygon fill="#bfbfbf" stroke="black" points="0,-46.5 0,-64.5 68.2461,-64.5 68.2461,-46.5 0,-46.5"/>
<text text-anchor="middle" x="34.123" y="-52.5" font-family="Helvetica,sans-Serif" font-size="10.00">stop_server</text>
</g>
<!-- Node41 -->
<g id="node2" class="node"><title>Node41</title>
<g id="a_node2"><a xlink:href="namespacecaiman_1_1cluster.html#a1dcb2a098d3e274cb3acd433ddc58953" target="_top" xlink:title="Restart if necessary the pipyparallel cluster, and manages the case of SLURM. ">
<polygon fill="white" stroke="black" points="141.207,-65.5 141.207,-83.5 216.684,-83.5 216.684,-65.5 141.207,-65.5"/>
<text text-anchor="middle" x="178.945" y="-71.5" font-family="Helvetica,sans-Serif" font-size="10.00">setup_cluster</text>
</a>
</g>
</g>
<!-- Node40&#45;&gt;Node41 -->
<g id="edge1" class="edge"><title>Node40&#45;&gt;Node41</title>
<path fill="none" stroke="midnightblue" d="M78.3393,-61.2492C98.3276,-63.9083 121.827,-67.0344 140.979,-69.5823"/>
<polygon fill="midnightblue" stroke="midnightblue" points="78.6226,-57.7561 68.2483,-59.9067 77.6994,-64.695 78.6226,-57.7561"/>
</g>
<!-- Node42 -->
<g id="node3" class="node"><title>Node42</title>
<g id="a_node3"><a xlink:href="namespacecaiman_1_1tests_1_1test__demo.html#ac5c3950ffe101e5dfa9c5ca2087dfc73" target="_top" xlink:title="caiman.tests.test_demo.demo">
<polygon fill="white" stroke="black" points="104.246,-28.5 104.246,-46.5 253.645,-46.5 253.645,-28.5 104.246,-28.5"/>
<text text-anchor="middle" x="178.945" y="-34.5" font-family="Helvetica,sans-Serif" font-size="10.00">caiman.tests.test_demo.demo</text>
</a>
</g>
</g>
<!-- Node40&#45;&gt;Node42 -->
<g id="edge2" class="edge"><title>Node40&#45;&gt;Node42</title>
<path fill="none" stroke="midnightblue" d="M78.3143,-50.0566C87.1958,-48.9372 96.7712,-47.7304 106.351,-46.5231"/>
<polygon fill="midnightblue" stroke="midnightblue" points="77.7322,-46.6022 68.2483,-51.3252 78.6075,-53.5472 77.7322,-46.6022"/>
</g>
<!-- Node43 -->
<g id="node4" class="node"><title>Node43</title>
<g id="a_node4"><a xlink:href="namespacecaiman_1_1tests_1_1test__demo.html#a96a59f0aebd7425caeb0e5c4c0286d46" target="_top" xlink:title="caiman.tests.test_demo.test\l_single_thread">
<polygon fill="white" stroke="black" points="289.645,-47.5 289.645,-75.5 430.146,-75.5 430.146,-47.5 289.645,-47.5"/>
<text text-anchor="start" x="297.645" y="-63.5" font-family="Helvetica,sans-Serif" font-size="10.00">caiman.tests.test_demo.test</text>
<text text-anchor="middle" x="359.896" y="-53.5" font-family="Helvetica,sans-Serif" font-size="10.00">_single_thread</text>
</a>
</g>
</g>
<!-- Node42&#45;&gt;Node43 -->
<g id="edge3" class="edge"><title>Node42&#45;&gt;Node43</title>
<path fill="none" stroke="midnightblue" d="M257.291,-47.8733C268.03,-49.3135 279.005,-50.7855 289.585,-52.2043"/>
<polygon fill="midnightblue" stroke="midnightblue" points="257.465,-44.3654 247.089,-46.505 256.535,-51.3033 257.465,-44.3654"/>
</g>
<!-- Node44 -->
<g id="node5" class="node"><title>Node44</title>
<g id="a_node5"><a xlink:href="namespacecaiman_1_1tests_1_1test__demo.html#a9b4f91fe22f45c31c9f0d6decc982909" target="_top" xlink:title="caiman.tests.test_demo.test\l_parallel">
<polygon fill="white" stroke="black" points="289.645,-0.5 289.645,-28.5 430.146,-28.5 430.146,-0.5 289.645,-0.5"/>
<text text-anchor="start" x="297.645" y="-16.5" font-family="Helvetica,sans-Serif" font-size="10.00">caiman.tests.test_demo.test</text>
<text text-anchor="middle" x="359.896" y="-6.5" font-family="Helvetica,sans-Serif" font-size="10.00">_parallel</text>
</a>
</g>
</g>
<!-- Node42&#45;&gt;Node44 -->
<g id="edge4" class="edge"><title>Node42&#45;&gt;Node44</title>
<path fill="none" stroke="midnightblue" d="M260.247,-27.179C269.999,-25.9257 279.897,-24.6535 289.473,-23.4227"/>
<polygon fill="midnightblue" stroke="midnightblue" points="259.63,-23.7295 250.158,-28.4758 260.522,-30.6724 259.63,-23.7295"/>
</g>
</g>
</svg>
