<?xml version="1.0" encoding="UTF-8" standalone="no"?>
<!DOCTYPE svg PUBLIC "-//W3C//DTD SVG 1.1//EN"
 "http://www.w3.org/Graphics/SVG/1.1/DTD/svg11.dtd">
<!-- Generated by graphviz version 2.38.0 (20140413.2041)
 -->
<!-- Title: axcov Pages: 1 -->
<svg width="334pt" height="27pt"
 viewBox="0.00 0.00 334.23 27.00" xmlns="http://www.w3.org/2000/svg" xmlns:xlink="http://www.w3.org/1999/xlink">
<g id="graph0" class="graph" transform="scale(1 1) rotate(0) translate(4 23)">
<title>axcov</title>
<polygon fill="white" stroke="none" points="-4,4 -4,-23 330.226,-23 330.226,4 -4,4"/>
<!-- Node2 -->
<g id="node1" class="node"><title>Node2</title>
<polygon fill="#bfbfbf" stroke="black" points="0,-0.5 0,-18.5 42.123,-18.5 42.123,-0.5 0,-0.5"/>
<text text-anchor="middle" x="21.0615" y="-6.5" font-family="Helvetica,sans-Serif" font-size="10.00">axcov</text>
</g>
<!-- Node3 -->
<g id="node2" class="node"><title>Node3</title>
<g id="a_node2"><a xlink:href="namespacecaiman_1_1source__extraction_1_1cnmf_1_1pre__processing.html#a1b73b814ed1bd025323df1f86b4e083b" target="_top" xlink:title="estimate_time_constant">
<polygon fill="white" stroke="black" points="78.123,-0.5 78.123,-18.5 199.733,-18.5 199.733,-0.5 78.123,-0.5"/>
<text text-anchor="middle" x="138.928" y="-6.5" font-family="Helvetica,sans-Serif" font-size="10.00">estimate_time_constant</text>
</a>
</g>
</g>
<!-- Node2&#45;&gt;Node3 -->
<g id="edge1" class="edge"><title>Node2&#45;&gt;Node3</title>
<path fill="none" stroke="midnightblue" d="M52.305,-9.5C60.1405,-9.5 68.8598,-9.5 77.6511,-9.5"/>
<polygon fill="midnightblue" stroke="midnightblue" points="52.244,-6.0001 42.244,-9.5 52.2439,-13.0001 52.244,-6.0001"/>
</g>
<!-- Node4 -->
<g id="node3" class="node"><title>Node4</title>
<g id="a_node3"><a xlink:href="namespacecaiman_1_1source__extraction_1_1cnmf_1_1pre__processing.html#a9083051835b0f9a5463105b2f65a2600" target="_top" xlink:title="Performs the pre&#45;processing operations described above. ">
<polygon fill="white" stroke="black" points="235.733,-0.5 235.733,-18.5 326.226,-18.5 326.226,-0.5 235.733,-0.5"/>
<text text-anchor="middle" x="280.979" y="-6.5" font-family="Helvetica,sans-Serif" font-size="10.00">preprocess_data</text>
</a>
</g>
</g>
<!-- Node3&#45;&gt;Node4 -->
<g id="edge2" class="edge"><title>Node3&#45;&gt;Node4</title>
<path fill="none" stroke="midnightblue" d="M210.204,-9.5C218.805,-9.5 227.402,-9.5 235.474,-9.5"/>
<polygon fill="midnightblue" stroke="midnightblue" points="210.135,-6.0001 200.135,-9.5 210.135,-13.0001 210.135,-6.0001"/>
</g>
</g>
</svg>
