<?xml version="1.0" encoding="UTF-8" standalone="no"?>
<!DOCTYPE svg PUBLIC "-//W3C//DTD SVG 1.1//EN"
 "http://www.w3.org/Graphics/SVG/1.1/DTD/svg11.dtd">
<!-- Generated by graphviz version 2.38.0 (20140413.2041)
 -->
<!-- Title: threshold_components Pages: 1 -->
<svg width="563pt" height="90pt"
 viewBox="0.00 0.00 562.69 90.00" xmlns="http://www.w3.org/2000/svg" xmlns:xlink="http://www.w3.org/1999/xlink">
<g id="graph0" class="graph" transform="scale(1 1) rotate(0) translate(4 86)">
<title>threshold_components</title>
<polygon fill="white" stroke="none" points="-4,4 -4,-86 558.692,-86 558.692,4 -4,4"/>
<!-- Node32 -->
<g id="node1" class="node"><title>Node32</title>
<polygon fill="#bfbfbf" stroke="black" points="0,-18.5 0,-36.5 117.177,-36.5 117.177,-18.5 0,-18.5"/>
<text text-anchor="middle" x="58.5884" y="-24.5" font-family="Helvetica,sans-Serif" font-size="10.00">threshold_components</text>
</g>
<!-- Node33 -->
<g id="node2" class="node"><title>Node33</title>
<g id="a_node2"><a xlink:href="namespacecaiman_1_1source__extraction_1_1cnmf_1_1spatial.html#ab7b90a8cbd754f9c03b13cf1709eebd4" target="_top" xlink:title="update spatial footprints and background through Basis Pursuit Denoising ">
<polygon fill="white" stroke="black" points="153.177,-37.5 153.177,-55.5 294.27,-55.5 294.27,-37.5 153.177,-37.5"/>
<text text-anchor="middle" x="223.723" y="-43.5" font-family="Helvetica,sans-Serif" font-size="10.00">update_spatial_components</text>
</a>
</g>
</g>
<!-- Node32&#45;&gt;Node33 -->
<g id="edge1" class="edge"><title>Node32&#45;&gt;Node33</title>
<path fill="none" stroke="midnightblue" d="M127.636,-35.4254C135.993,-36.3987 144.545,-37.3947 152.927,-38.371"/>
<polygon fill="midnightblue" stroke="midnightblue" points="127.901,-31.9326 117.563,-34.2522 127.091,-38.8856 127.901,-31.9326"/>
</g>
<!-- Node36 -->
<g id="node5" class="node"><title>Node36</title>
<g id="a_node5"><a xlink:href="namespacecaiman_1_1source__extraction_1_1cnmf_1_1spatial.html#a940c6646b47352d714e0cfdddb3b4e65" target="_top" xlink:title="contruct_ellipse_parallel">
<polygon fill="white" stroke="black" points="162.081,-0.5 162.081,-18.5 285.366,-18.5 285.366,-0.5 162.081,-0.5"/>
<text text-anchor="middle" x="223.723" y="-6.5" font-family="Helvetica,sans-Serif" font-size="10.00">contruct_ellipse_parallel</text>
</a>
</g>
</g>
<!-- Node32&#45;&gt;Node36 -->
<g id="edge4" class="edge"><title>Node32&#45;&gt;Node36</title>
<path fill="none" stroke="midnightblue" d="M127.823,-19.9711C139.131,-18.7234 150.79,-17.4369 161.9,-16.2111"/>
<polygon fill="midnightblue" stroke="midnightblue" points="127.119,-16.5275 117.563,-21.1032 127.886,-23.4853 127.119,-16.5275"/>
</g>
<!-- Node34 -->
<g id="node3" class="node"><title>Node34</title>
<g id="a_node3"><a xlink:href="namespacecaiman_1_1source__extraction_1_1cnmf_1_1merging.html#ad08adf2e086a22ef379b10ed3ee36936" target="_top" xlink:title="Merging of spatially overlapping components that have highly correlated temporal activity The correla...">
<polygon fill="white" stroke="black" points="330.27,-53.5 330.27,-81.5 554.692,-81.5 554.692,-53.5 330.27,-53.5"/>
<text text-anchor="start" x="338.27" y="-69.5" font-family="Helvetica,sans-Serif" font-size="10.00">caiman.source_extraction.cnmf.merging.merge</text>
<text text-anchor="middle" x="442.481" y="-59.5" font-family="Helvetica,sans-Serif" font-size="10.00">_components</text>
</a>
</g>
</g>
<!-- Node33&#45;&gt;Node34 -->
<g id="edge2" class="edge"><title>Node33&#45;&gt;Node34</title>
<path fill="none" stroke="midnightblue" d="M304.523,-54.2312C312.851,-55.038 321.421,-55.8683 330.017,-56.7011"/>
<polygon fill="midnightblue" stroke="midnightblue" points="304.791,-50.7408 294.5,-53.2601 304.116,-57.7082 304.791,-50.7408"/>
</g>
<!-- Node35 -->
<g id="node4" class="node"><title>Node35</title>
<g id="a_node4"><a xlink:href="namespacecaiman_1_1source__extraction_1_1cnmf_1_1spatial.html#adbbc80bf3821229671c7f77648016071" target="_top" xlink:title="basis_denoising">
<polygon fill="white" stroke="black" points="398.622,-16.5 398.622,-34.5 486.34,-34.5 486.34,-16.5 398.622,-16.5"/>
<text text-anchor="middle" x="442.481" y="-22.5" font-family="Helvetica,sans-Serif" font-size="10.00">basis_denoising</text>
</a>
</g>
</g>
<!-- Node33&#45;&gt;Node35 -->
<g id="edge3" class="edge"><title>Node33&#45;&gt;Node35</title>
<path fill="none" stroke="midnightblue" d="M304.66,-38.7555C336.379,-35.6825 371.596,-32.2706 398.357,-29.678"/>
<polygon fill="midnightblue" stroke="midnightblue" points="304.116,-35.2918 294.5,-39.7399 304.791,-42.2592 304.116,-35.2918"/>
</g>
</g>
</svg>
