<?xml version="1.0" encoding="UTF-8" standalone="no"?>
<!DOCTYPE svg PUBLIC "-//W3C//DTD SVG 1.1//EN"
 "http://www.w3.org/Graphics/SVG/1.1/DTD/svg11.dtd">
<!-- Generated by graphviz version 2.38.0 (20140413.2041)
 -->
<!-- Title: estimate_time_constant Pages: 1 -->
<svg width="1063pt" height="126pt"
 viewBox="0.00 0.00 1063.30 126.00" xmlns="http://www.w3.org/2000/svg" xmlns:xlink="http://www.w3.org/1999/xlink">
<g id="graph0" class="graph" transform="scale(1 1) rotate(0) translate(4 122)">
<title>estimate_time_constant</title>
<polygon fill="white" stroke="none" points="-4,4 -4,-122 1059.3,-122 1059.3,4 -4,4"/>
<!-- Node83 -->
<g id="node1" class="node"><title>Node83</title>
<polygon fill="#bfbfbf" stroke="black" points="0,-29.5 0,-47.5 121.61,-47.5 121.61,-29.5 0,-29.5"/>
<text text-anchor="middle" x="60.8052" y="-35.5" font-family="Helvetica,sans-Serif" font-size="10.00">estimate_time_constant</text>
</g>
<!-- Node84 -->
<g id="node2" class="node"><title>Node84</title>
<g id="a_node2"><a xlink:href="namespacecaiman_1_1source__extraction_1_1cnmf_1_1deconvolution.html#a5753e123f06d6f8a5f53e8f1cc50baba" target="_top" xlink:title="Infer the most likely discretized spike train underlying an AR(2) fluorescence trace. ">
<polygon fill="white" stroke="black" points="303.541,-10.5 303.541,-28.5 419.6,-28.5 419.6,-10.5 303.541,-10.5"/>
<text text-anchor="middle" x="361.57" y="-16.5" font-family="Helvetica,sans-Serif" font-size="10.00">constrained_oasisAR2</text>
</a>
</g>
</g>
<!-- Node83&#45;&gt;Node84 -->
<g id="edge1" class="edge"><title>Node83&#45;&gt;Node84</title>
<path fill="none" stroke="midnightblue" d="M132.091,-34.0302C184.283,-30.711 254.577,-26.2406 303.354,-23.1387"/>
<polygon fill="midnightblue" stroke="midnightblue" points="131.663,-30.5502 121.905,-34.6779 132.107,-37.5361 131.663,-30.5502"/>
</g>
<!-- Node91 -->
<g id="node9" class="node"><title>Node91</title>
<g id="a_node9"><a xlink:href="namespacecaiman_1_1source__extraction_1_1cnmf_1_1deconvolution.html#a7199190b4f33e4a70dedc9deea7e4c45" target="_top" xlink:title="estimate_parameters">
<polygon fill="white" stroke="black" points="157.61,-48.5 157.61,-66.5 267.541,-66.5 267.541,-48.5 157.61,-48.5"/>
<text text-anchor="middle" x="212.576" y="-54.5" font-family="Helvetica,sans-Serif" font-size="10.00">estimate_parameters</text>
</a>
</g>
</g>
<!-- Node83&#45;&gt;Node91 -->
<g id="edge9" class="edge"><title>Node83&#45;&gt;Node91</title>
<path fill="none" stroke="midnightblue" d="M131.84,-47.3847C140.399,-48.4704 149.042,-49.5669 157.32,-50.6171"/>
<polygon fill="midnightblue" stroke="midnightblue" points="132.221,-43.905 121.86,-46.1185 131.34,-50.8493 132.221,-43.905"/>
</g>
<!-- Node85 -->
<g id="node3" class="node"><title>Node85</title>
<g id="a_node3"><a xlink:href="namespacecaiman_1_1source__extraction_1_1cnmf_1_1deconvolution.html#a0afb63d84485a181bb40f2eefe7b581e" target="_top" xlink:title="Infer the most likely discretized spike train underlying a fluorescence trace. ">
<polygon fill="white" stroke="black" points="455.6,-47.5 455.6,-65.5 555.545,-65.5 555.545,-47.5 455.6,-47.5"/>
<text text-anchor="middle" x="505.572" y="-53.5" font-family="Helvetica,sans-Serif" font-size="10.00">constrained_foopsi</text>
</a>
</g>
</g>
<!-- Node84&#45;&gt;Node85 -->
<g id="edge2" class="edge"><title>Node84&#45;&gt;Node85</title>
<path fill="none" stroke="midnightblue" d="M407.209,-31.131C427.378,-36.3862 450.855,-42.5033 469.701,-47.414"/>
<polygon fill="midnightblue" stroke="midnightblue" points="407.867,-27.6858 397.308,-28.5512 406.102,-34.4596 407.867,-27.6858"/>
</g>
<!-- Node90 -->
<g id="node8" class="node"><title>Node90</title>
<g id="a_node8"><a xlink:href="namespacecaiman_1_1source__extraction_1_1cnmf_1_1deconvolution.html#affae481e26d5e13bc6f62c6e643b63d5" target="_top" xlink:title="Infer the most likely discretized spike train underlying an AR(2) fluorescence trace. ">
<polygon fill="white" stroke="black" points="485.619,-10.5 485.619,-28.5 525.525,-28.5 525.525,-10.5 485.619,-10.5"/>
<text text-anchor="middle" x="505.572" y="-16.5" font-family="Helvetica,sans-Serif" font-size="10.00">onnls</text>
</a>
</g>
</g>
<!-- Node84&#45;&gt;Node90 -->
<g id="edge7" class="edge"><title>Node84&#45;&gt;Node90</title>
<path fill="none" stroke="midnightblue" d="M430.161,-12.7569C450.497,-12.6743 471.206,-13.3314 485.596,-14.7284"/>
<polygon fill="midnightblue" stroke="midnightblue" points="429.882,-9.25951 419.919,-12.8622 429.954,-16.2591 429.882,-9.25951"/>
</g>
<!-- Node86 -->
<g id="node4" class="node"><title>Node86</title>
<g id="a_node4"><a xlink:href="namespacecaiman_1_1source__extraction_1_1cnmf_1_1merging.html#ad08adf2e086a22ef379b10ed3ee36936" target="_top" xlink:title="Merging of spatially overlapping components that have highly correlated temporal activity The correla...">
<polygon fill="white" stroke="black" points="604.611,-89.5 604.611,-117.5 829.034,-117.5 829.034,-89.5 604.611,-89.5"/>
<text text-anchor="start" x="612.611" y="-105.5" font-family="Helvetica,sans-Serif" font-size="10.00">caiman.source_extraction.cnmf.merging.merge</text>
<text text-anchor="middle" x="716.823" y="-95.5" font-family="Helvetica,sans-Serif" font-size="10.00">_components</text>
</a>
</g>
</g>
<!-- Node85&#45;&gt;Node86 -->
<g id="edge3" class="edge"><title>Node85&#45;&gt;Node86</title>
<path fill="none" stroke="midnightblue" d="M545.896,-68.4239C560.195,-72.5425 576.529,-76.9978 591.545,-80.5 605.221,-83.6897 619.826,-86.7221 634.042,-89.4764"/>
<polygon fill="midnightblue" stroke="midnightblue" points="546.473,-64.9461 535.893,-65.5028 544.511,-71.6655 546.473,-64.9461"/>
</g>
<!-- Node87 -->
<g id="node5" class="node"><title>Node87</title>
<g id="a_node5"><a xlink:href="namespacecaiman_1_1source__extraction_1_1cnmf_1_1temporal.html#a2ede407f1e0d0722f51ddb6e99f48f9f" target="_top" xlink:title="necessary for parallel computation of the function constrained_foopsi ">
<polygon fill="white" stroke="black" points="591.545,-42.5 591.545,-70.5 842.101,-70.5 842.101,-42.5 591.545,-42.5"/>
<text text-anchor="start" x="599.545" y="-58.5" font-family="Helvetica,sans-Serif" font-size="10.00">caiman.source_extraction.cnmf.temporal.constrained</text>
<text text-anchor="middle" x="716.823" y="-48.5" font-family="Helvetica,sans-Serif" font-size="10.00">_foopsi_parallel</text>
</a>
</g>
</g>
<!-- Node85&#45;&gt;Node87 -->
<g id="edge4" class="edge"><title>Node85&#45;&gt;Node87</title>
<path fill="none" stroke="midnightblue" d="M565.707,-56.5C573.871,-56.5 582.493,-56.5 591.311,-56.5"/>
<polygon fill="midnightblue" stroke="midnightblue" points="565.632,-53.0001 555.632,-56.5 565.632,-60.0001 565.632,-53.0001"/>
</g>
<!-- Node88 -->
<g id="node6" class="node"><title>Node88</title>
<g id="a_node6"><a xlink:href="namespacecaiman_1_1tests_1_1test__deconvolution.html#aaebeed7ce9541fa4c56791c67009cdc6" target="_top" xlink:title="caiman.tests.test_deconvolution.foo">
<polygon fill="white" stroke="black" points="629.331,-5.5 629.331,-23.5 804.315,-23.5 804.315,-5.5 629.331,-5.5"/>
<text text-anchor="middle" x="716.823" y="-11.5" font-family="Helvetica,sans-Serif" font-size="10.00">caiman.tests.test_deconvolution.foo</text>
</a>
</g>
</g>
<!-- Node85&#45;&gt;Node88 -->
<g id="edge5" class="edge"><title>Node85&#45;&gt;Node88</title>
<path fill="none" stroke="midnightblue" d="M544.719,-44.5719C559.268,-40.3277 576.073,-35.7905 591.545,-32.5 607.858,-29.0306 625.519,-26.0273 642.266,-23.5214"/>
<polygon fill="midnightblue" stroke="midnightblue" points="543.64,-41.2412 535.051,-47.4444 545.633,-47.9513 543.64,-41.2412"/>
</g>
<!-- Node89 -->
<g id="node7" class="node"><title>Node89</title>
<g id="a_node7"><a xlink:href="namespacecaiman_1_1tests_1_1test__deconvolution.html#a90f82ae854f8179179664fe34973f11b" target="_top" xlink:title="caiman.tests.test_deconvolution.test\l_oasis">
<polygon fill="white" stroke="black" points="878.101,-0.5 878.101,-28.5 1055.3,-28.5 1055.3,-0.5 878.101,-0.5"/>
<text text-anchor="start" x="886.101" y="-16.5" font-family="Helvetica,sans-Serif" font-size="10.00">caiman.tests.test_deconvolution.test</text>
<text text-anchor="middle" x="966.701" y="-6.5" font-family="Helvetica,sans-Serif" font-size="10.00">_oasis</text>
</a>
</g>
</g>
<!-- Node88&#45;&gt;Node89 -->
<g id="edge6" class="edge"><title>Node88&#45;&gt;Node89</title>
<path fill="none" stroke="midnightblue" d="M814.64,-14.5C835.454,-14.5 857.342,-14.5 877.796,-14.5"/>
<polygon fill="midnightblue" stroke="midnightblue" points="814.519,-11.0001 804.519,-14.5 814.519,-18.0001 814.519,-11.0001"/>
</g>
<!-- Node90&#45;&gt;Node84 -->
<g id="edge8" class="edge"><title>Node90&#45;&gt;Node84</title>
<path fill="none" stroke="midnightblue" d="M475.294,-25.0835C459.301,-26.1023 438.931,-26.4538 419.919,-26.1378"/>
<polygon fill="midnightblue" stroke="midnightblue" points="475.902,-28.5466 485.596,-24.2716 475.352,-21.5682 475.902,-28.5466"/>
</g>
<!-- Node91&#45;&gt;Node84 -->
<g id="edge11" class="edge"><title>Node91&#45;&gt;Node84</title>
<path fill="none" stroke="midnightblue" d="M258.358,-45.9231C279.996,-40.3294 305.574,-33.7172 325.73,-28.5066"/>
<polygon fill="midnightblue" stroke="midnightblue" points="257.217,-42.603 248.411,-48.4945 258.969,-49.3802 257.217,-42.603"/>
</g>
<!-- Node91&#45;&gt;Node85 -->
<g id="edge10" class="edge"><title>Node91&#45;&gt;Node85</title>
<path fill="none" stroke="midnightblue" d="M277.686,-57.2797C331.165,-57.0959 406.27,-56.8378 455.174,-56.6698"/>
<polygon fill="midnightblue" stroke="midnightblue" points="277.616,-53.7798 267.628,-57.3143 277.64,-60.7798 277.616,-53.7798"/>
</g>
</g>
</svg>
