<?xml version="1.0" encoding="UTF-8" standalone="no"?>
<!DOCTYPE svg PUBLIC "-//W3C//DTD SVG 1.1//EN"
 "http://www.w3.org/Graphics/SVG/1.1/DTD/svg11.dtd">
<!-- Generated by graphviz version 2.38.0 (20140413.2041)
 -->
<!-- Title: plot_components Pages: 1 -->
<svg width="329pt" height="27pt"
 viewBox="0.00 0.00 329.23 27.00" xmlns="http://www.w3.org/2000/svg" xmlns:xlink="http://www.w3.org/1999/xlink">
<g id="graph0" class="graph" transform="scale(1 1) rotate(0) translate(4 23)">
<title>plot_components</title>
<polygon fill="white" stroke="none" points="-4,4 -4,-23 325.226,-23 325.226,4 -4,4"/>
<!-- Node38 -->
<g id="node1" class="node"><title>Node38</title>
<polygon fill="#bfbfbf" stroke="black" points="0,-0.5 0,-18.5 92.1621,-18.5 92.1621,-0.5 0,-0.5"/>
<text text-anchor="middle" x="46.0811" y="-6.5" font-family="Helvetica,sans-Serif" font-size="10.00">plot_components</text>
</g>
<!-- Node39 -->
<g id="node2" class="node"><title>Node39</title>
<g id="a_node2"><a xlink:href="namespacecaiman_1_1behavior_1_1behavior.html#a513c5d7fc1e56d74ff55d4f74ee836a3" target="_top" xlink:title="main">
<polygon fill="white" stroke="black" points="128.162,-0.5 128.162,-18.5 165.837,-18.5 165.837,-0.5 128.162,-0.5"/>
<text text-anchor="middle" x="147" y="-6.5" font-family="Helvetica,sans-Serif" font-size="10.00">main</text>
</a>
</g>
</g>
<!-- Node38&#45;&gt;Node39 -->
<g id="edge1" class="edge"><title>Node38&#45;&gt;Node39</title>
<path fill="none" stroke="midnightblue" d="M102.286,-9.5C111.542,-9.5 120.526,-9.5 127.917,-9.5"/>
<polygon fill="midnightblue" stroke="midnightblue" points="102.198,-6.0001 92.1983,-9.5 102.198,-13.0001 102.198,-6.0001"/>
</g>
<!-- Node40 -->
<g id="node3" class="node"><title>Node40</title>
<g id="a_node3"><a xlink:href="namespacecaiman_1_1behavior_1_1behavior.html#ac7ebff37cde3a2bef4c8613654b60395" target="_top" xlink:title="Normalize the components using the std of the components obtaining using biunary masks. ">
<polygon fill="white" stroke="black" points="201.837,-0.5 201.837,-18.5 321.226,-18.5 321.226,-0.5 201.837,-0.5"/>
<text text-anchor="middle" x="261.531" y="-6.5" font-family="Helvetica,sans-Serif" font-size="10.00">normalize_components</text>
</a>
</g>
</g>
<!-- Node39&#45;&gt;Node40 -->
<g id="edge2" class="edge"><title>Node39&#45;&gt;Node40</title>
<path fill="none" stroke="midnightblue" d="M176.059,-3.5688C183.885,-3.07263 192.693,-2.80196 201.59,-2.75679"/>
<polygon fill="midnightblue" stroke="midnightblue" points="175.761,-0.0813893 166.08,-4.38518 176.332,-7.05808 175.761,-0.0813893"/>
</g>
<!-- Node40&#45;&gt;Node39 -->
<g id="edge3" class="edge"><title>Node40&#45;&gt;Node39</title>
<path fill="none" stroke="midnightblue" d="M191.369,-16.0899C182.081,-15.8555 173.289,-15.3638 166.08,-14.6148"/>
<polygon fill="midnightblue" stroke="midnightblue" points="191.539,-19.5927 201.59,-16.2432 191.644,-12.5935 191.539,-19.5927"/>
</g>
</g>
</svg>
