<?xml version="1.0" encoding="UTF-8" standalone="no"?>
<!DOCTYPE svg PUBLIC "-//W3C//DTD SVG 1.1//EN"
 "http://www.w3.org/Graphics/SVG/1.1/DTD/svg11.dtd">
<!-- Generated by graphviz version 2.38.0 (20140413.2041)
 -->
<!-- Title: apply_shifts_dft Pages: 1 -->
<svg width="384pt" height="178pt"
 viewBox="0.00 0.00 383.71 178.00" xmlns="http://www.w3.org/2000/svg" xmlns:xlink="http://www.w3.org/1999/xlink">
<g id="graph0" class="graph" transform="scale(1 1) rotate(0) translate(4 174)">
<title>apply_shifts_dft</title>
<polygon fill="white" stroke="none" points="-4,4 -4,-174 379.713,-174 379.713,4 -4,4"/>
<!-- Node38 -->
<g id="node1" class="node"><title>Node38</title>
<polygon fill="#bfbfbf" stroke="black" points="0,-42.5 0,-60.5 85.4873,-60.5 85.4873,-42.5 0,-42.5"/>
<text text-anchor="middle" x="42.7437" y="-48.5" font-family="Helvetica,sans-Serif" font-size="10.00">apply_shifts_dft</text>
</g>
<!-- Node39 -->
<g id="node2" class="node"><title>Node39</title>
<g id="a_node2"><a xlink:href="namespacecaiman_1_1motion__correction.html#aea060208c09f0e4fb01e6d31b9acf36f" target="_top" xlink:title="perform piecewise rigid motion correction iteration, by 1) dividing the FOV in patches 2) motion corr...">
<polygon fill="white" stroke="black" points="121.487,-42.5 121.487,-60.5 208.64,-60.5 208.64,-42.5 121.487,-42.5"/>
<text text-anchor="middle" x="165.063" y="-48.5" font-family="Helvetica,sans-Serif" font-size="10.00">tile_and_correct</text>
</a>
</g>
</g>
<!-- Node38&#45;&gt;Node39 -->
<g id="edge1" class="edge"><title>Node38&#45;&gt;Node39</title>
<path fill="none" stroke="midnightblue" d="M95.698,-51.5C104.197,-51.5 112.919,-51.5 121.168,-51.5"/>
<polygon fill="midnightblue" stroke="midnightblue" points="95.488,-48.0001 85.488,-51.5 95.488,-55.0001 95.488,-48.0001"/>
</g>
<!-- Node40 -->
<g id="node3" class="node"><title>Node40</title>
<g id="a_node3"><a xlink:href="namespaceabadura__demo.html#a98e8097ac25259476cca178403afebb1" target="_top" xlink:title="abadura_demo.tile_and\l_correct_wrapper">
<polygon fill="white" stroke="black" points="249.635,-141.5 249.635,-169.5 370.718,-169.5 370.718,-141.5 249.635,-141.5"/>
<text text-anchor="start" x="257.635" y="-157.5" font-family="Helvetica,sans-Serif" font-size="10.00">abadura_demo.tile_and</text>
<text text-anchor="middle" x="310.176" y="-147.5" font-family="Helvetica,sans-Serif" font-size="10.00">_correct_wrapper</text>
</a>
</g>
</g>
<!-- Node39&#45;&gt;Node40 -->
<g id="edge2" class="edge"><title>Node39&#45;&gt;Node40</title>
<path fill="none" stroke="midnightblue" d="M178.706,-68.5846C192.925,-86.718 217.591,-115.106 244.64,-132.5 249.942,-135.91 255.815,-138.893 261.795,-141.481"/>
<polygon fill="midnightblue" stroke="midnightblue" points="181.455,-66.4175 172.601,-60.5996 175.894,-70.6694 181.455,-66.4175"/>
</g>
<!-- Node41 -->
<g id="node4" class="node"><title>Node41</title>
<g id="a_node4"><a xlink:href="namespacedemo__motion__correction__nonrigid.html#a7c12b0a7d034249b2ceb2b7a2a36498b" target="_top" xlink:title="demo_motion_correction\l_nonrigid.tile_and_correct\l_wrapper">
<polygon fill="white" stroke="black" points="244.64,-84.5 244.64,-122.5 375.713,-122.5 375.713,-84.5 244.64,-84.5"/>
<text text-anchor="start" x="252.64" y="-110.5" font-family="Helvetica,sans-Serif" font-size="10.00">demo_motion_correction</text>
<text text-anchor="start" x="252.64" y="-100.5" font-family="Helvetica,sans-Serif" font-size="10.00">_nonrigid.tile_and_correct</text>
<text text-anchor="middle" x="310.176" y="-90.5" font-family="Helvetica,sans-Serif" font-size="10.00">_wrapper</text>
</a>
</g>
</g>
<!-- Node39&#45;&gt;Node41 -->
<g id="edge3" class="edge"><title>Node39&#45;&gt;Node41</title>
<path fill="none" stroke="midnightblue" d="M200.426,-63.9856C217.27,-70.1058 237.921,-77.6096 256.686,-84.4278"/>
<polygon fill="midnightblue" stroke="midnightblue" points="201.586,-60.6832 190.992,-60.5577 199.195,-67.2624 201.586,-60.6832"/>
</g>
<!-- Node42 -->
<g id="node5" class="node"><title>Node42</title>
<g id="a_node5"><a xlink:href="namespacecaiman_1_1motion__correction.html#a88ef513cfa324fc8548e4fb46d7a67e5" target="_top" xlink:title="create a matrix that is used to normalize the intersection of the stiched patches ...">
<polygon fill="white" stroke="black" points="254.654,-37.5 254.654,-65.5 365.698,-65.5 365.698,-37.5 254.654,-37.5"/>
<text text-anchor="start" x="262.654" y="-53.5" font-family="Helvetica,sans-Serif" font-size="10.00">create_weight_matrix</text>
<text text-anchor="middle" x="310.176" y="-43.5" font-family="Helvetica,sans-Serif" font-size="10.00">_for_blending</text>
</a>
</g>
</g>
<!-- Node39&#45;&gt;Node42 -->
<g id="edge4" class="edge"><title>Node39&#45;&gt;Node42</title>
<path fill="none" stroke="midnightblue" d="M219.34,-44.9497C230.844,-44.6932 243.023,-44.6838 254.577,-44.9214"/>
<polygon fill="midnightblue" stroke="midnightblue" points="218.894,-41.4612 209.002,-45.2547 219.101,-48.4582 218.894,-41.4612"/>
</g>
<!-- Node43 -->
<g id="node6" class="node"><title>Node43</title>
<g id="a_node6"><a xlink:href="namespacecaiman_1_1motion__correction.html#a9c4d6e518f42c395cb58a08d2ff21f45" target="_top" xlink:title="tile_and_correct_wrapper">
<polygon fill="white" stroke="black" points="245.755,-0.5 245.755,-18.5 374.597,-18.5 374.597,-0.5 245.755,-0.5"/>
<text text-anchor="middle" x="310.176" y="-6.5" font-family="Helvetica,sans-Serif" font-size="10.00">tile_and_correct_wrapper</text>
</a>
</g>
</g>
<!-- Node39&#45;&gt;Node43 -->
<g id="edge6" class="edge"><title>Node39&#45;&gt;Node43</title>
<path fill="none" stroke="midnightblue" d="M206.459,-39.6449C229.153,-32.9849 257.043,-24.7998 278.032,-18.6401"/>
<polygon fill="midnightblue" stroke="midnightblue" points="205.374,-36.3155 196.765,-42.4899 207.346,-43.0323 205.374,-36.3155"/>
</g>
<!-- Node42&#45;&gt;Node39 -->
<g id="edge5" class="edge"><title>Node42&#45;&gt;Node39</title>
<path fill="none" stroke="midnightblue" d="M244.551,-58.2218C232.505,-58.3202 220.194,-58.1613 209.002,-57.7453"/>
<polygon fill="midnightblue" stroke="midnightblue" points="244.628,-61.7211 254.577,-58.0786 244.528,-54.7218 244.628,-61.7211"/>
</g>
</g>
</svg>
