<?xml version="1.0" encoding="UTF-8" standalone="no"?>
<!DOCTYPE svg PUBLIC "-//W3C//DTD SVG 1.1//EN"
 "http://www.w3.org/Graphics/SVG/1.1/DTD/svg11.dtd">
<!-- Generated by graphviz version 2.38.0 (20140413.2041)
 -->
<!-- Title: cvxopt_foopsi Pages: 1 -->
<svg width="721pt" height="126pt"
 viewBox="0.00 0.00 720.85 126.00" xmlns="http://www.w3.org/2000/svg" xmlns:xlink="http://www.w3.org/1999/xlink">
<g id="graph0" class="graph" transform="scale(1 1) rotate(0) translate(4 122)">
<title>cvxopt_foopsi</title>
<polygon fill="white" stroke="none" points="-4,4 -4,-122 716.85,-122 716.85,4 -4,4"/>
<!-- Node53 -->
<g id="node1" class="node"><title>Node53</title>
<polygon fill="#bfbfbf" stroke="black" points="0,-47.5 0,-65.5 77.1475,-65.5 77.1475,-47.5 0,-47.5"/>
<text text-anchor="middle" x="38.5737" y="-53.5" font-family="Helvetica,sans-Serif" font-size="10.00">cvxopt_foopsi</text>
</g>
<!-- Node54 -->
<g id="node2" class="node"><title>Node54</title>
<g id="a_node2"><a xlink:href="namespacecaiman_1_1source__extraction_1_1cnmf_1_1deconvolution.html#a0afb63d84485a181bb40f2eefe7b581e" target="_top" xlink:title="Infer the most likely discretized spike train underlying a fluorescence trace. ">
<polygon fill="white" stroke="black" points="113.147,-47.5 113.147,-65.5 213.093,-65.5 213.093,-47.5 113.147,-47.5"/>
<text text-anchor="middle" x="163.12" y="-53.5" font-family="Helvetica,sans-Serif" font-size="10.00">constrained_foopsi</text>
</a>
</g>
</g>
<!-- Node53&#45;&gt;Node54 -->
<g id="edge1" class="edge"><title>Node53&#45;&gt;Node54</title>
<path fill="none" stroke="midnightblue" d="M87.3665,-56.5C95.7669,-56.5 104.523,-56.5 112.96,-56.5"/>
<polygon fill="midnightblue" stroke="midnightblue" points="87.3417,-53.0001 77.3416,-56.5 87.3416,-60.0001 87.3417,-53.0001"/>
</g>
<!-- Node55 -->
<g id="node3" class="node"><title>Node55</title>
<g id="a_node3"><a xlink:href="namespacecaiman_1_1source__extraction_1_1cnmf_1_1merging.html#ad08adf2e086a22ef379b10ed3ee36936" target="_top" xlink:title="Merging of spatially overlapping components that have highly correlated temporal activity The correla...">
<polygon fill="white" stroke="black" points="262.159,-89.5 262.159,-117.5 486.582,-117.5 486.582,-89.5 262.159,-89.5"/>
<text text-anchor="start" x="270.159" y="-105.5" font-family="Helvetica,sans-Serif" font-size="10.00">caiman.source_extraction.cnmf.merging.merge</text>
<text text-anchor="middle" x="374.371" y="-95.5" font-family="Helvetica,sans-Serif" font-size="10.00">_components</text>
</a>
</g>
</g>
<!-- Node54&#45;&gt;Node55 -->
<g id="edge2" class="edge"><title>Node54&#45;&gt;Node55</title>
<path fill="none" stroke="midnightblue" d="M203.444,-68.4239C217.742,-72.5425 234.077,-76.9978 249.093,-80.5 262.769,-83.6897 277.374,-86.7221 291.59,-89.4764"/>
<polygon fill="midnightblue" stroke="midnightblue" points="204.021,-64.9461 193.44,-65.5028 202.059,-71.6655 204.021,-64.9461"/>
</g>
<!-- Node56 -->
<g id="node4" class="node"><title>Node56</title>
<g id="a_node4"><a xlink:href="namespacecaiman_1_1source__extraction_1_1cnmf_1_1temporal.html#a2ede407f1e0d0722f51ddb6e99f48f9f" target="_top" xlink:title="necessary for parallel computation of the function constrained_foopsi ">
<polygon fill="white" stroke="black" points="249.093,-42.5 249.093,-70.5 499.648,-70.5 499.648,-42.5 249.093,-42.5"/>
<text text-anchor="start" x="257.093" y="-58.5" font-family="Helvetica,sans-Serif" font-size="10.00">caiman.source_extraction.cnmf.temporal.constrained</text>
<text text-anchor="middle" x="374.371" y="-48.5" font-family="Helvetica,sans-Serif" font-size="10.00">_foopsi_parallel</text>
</a>
</g>
</g>
<!-- Node54&#45;&gt;Node56 -->
<g id="edge3" class="edge"><title>Node54&#45;&gt;Node56</title>
<path fill="none" stroke="midnightblue" d="M223.255,-56.5C231.419,-56.5 240.041,-56.5 248.859,-56.5"/>
<polygon fill="midnightblue" stroke="midnightblue" points="223.18,-53.0001 213.18,-56.5 223.18,-60.0001 223.18,-53.0001"/>
</g>
<!-- Node57 -->
<g id="node5" class="node"><title>Node57</title>
<g id="a_node5"><a xlink:href="namespacecaiman_1_1tests_1_1test__deconvolution.html#aaebeed7ce9541fa4c56791c67009cdc6" target="_top" xlink:title="caiman.tests.test_deconvolution.foo">
<polygon fill="white" stroke="black" points="286.878,-5.5 286.878,-23.5 461.863,-23.5 461.863,-5.5 286.878,-5.5"/>
<text text-anchor="middle" x="374.371" y="-11.5" font-family="Helvetica,sans-Serif" font-size="10.00">caiman.tests.test_deconvolution.foo</text>
</a>
</g>
</g>
<!-- Node54&#45;&gt;Node57 -->
<g id="edge4" class="edge"><title>Node54&#45;&gt;Node57</title>
<path fill="none" stroke="midnightblue" d="M204.104,-44.6817C218.235,-40.7705 234.292,-36.6241 249.093,-33.5 267.139,-29.6909 286.812,-26.3263 305.072,-23.5278"/>
<polygon fill="midnightblue" stroke="midnightblue" points="202.878,-41.3908 194.201,-47.4702 204.776,-48.1287 202.878,-41.3908"/>
</g>
<!-- Node58 -->
<g id="node6" class="node"><title>Node58</title>
<g id="a_node6"><a xlink:href="namespacecaiman_1_1tests_1_1test__deconvolution.html#a90f82ae854f8179179664fe34973f11b" target="_top" xlink:title="caiman.tests.test_deconvolution.test\l_oasis">
<polygon fill="white" stroke="black" points="535.648,-0.5 535.648,-28.5 712.85,-28.5 712.85,-0.5 535.648,-0.5"/>
<text text-anchor="start" x="543.648" y="-16.5" font-family="Helvetica,sans-Serif" font-size="10.00">caiman.tests.test_deconvolution.test</text>
<text text-anchor="middle" x="624.249" y="-6.5" font-family="Helvetica,sans-Serif" font-size="10.00">_oasis</text>
</a>
</g>
</g>
<!-- Node57&#45;&gt;Node58 -->
<g id="edge5" class="edge"><title>Node57&#45;&gt;Node58</title>
<path fill="none" stroke="midnightblue" d="M472.187,-14.5C493.002,-14.5 514.89,-14.5 535.344,-14.5"/>
<polygon fill="midnightblue" stroke="midnightblue" points="472.066,-11.0001 462.066,-14.5 472.066,-18.0001 472.066,-11.0001"/>
</g>
</g>
</svg>
