<?xml version="1.0" encoding="UTF-8" standalone="no"?>
<!DOCTYPE svg PUBLIC "-//W3C//DTD SVG 1.1//EN"
 "http://www.w3.org/Graphics/SVG/1.1/DTD/svg11.dtd">
<!-- Generated by graphviz version 2.38.0 (20140413.2041)
 -->
<!-- Title: determine_search_location Pages: 1 -->
<svg width="582pt" height="90pt"
 viewBox="0.00 0.00 581.59 90.00" xmlns="http://www.w3.org/2000/svg" xmlns:xlink="http://www.w3.org/1999/xlink">
<g id="graph0" class="graph" transform="scale(1 1) rotate(0) translate(4 86)">
<title>determine_search_location</title>
<polygon fill="white" stroke="none" points="-4,4 -4,-86 577.589,-86 577.589,4 -4,4"/>
<!-- Node14 -->
<g id="node1" class="node"><title>Node14</title>
<polygon fill="#bfbfbf" stroke="black" points="0,-18.5 0,-36.5 136.073,-36.5 136.073,-18.5 0,-18.5"/>
<text text-anchor="middle" x="68.0366" y="-24.5" font-family="Helvetica,sans-Serif" font-size="10.00">determine_search_location</text>
</g>
<!-- Node15 -->
<g id="node2" class="node"><title>Node15</title>
<g id="a_node2"><a xlink:href="namespacecaiman_1_1source__extraction_1_1cnmf_1_1spatial.html#ab7b90a8cbd754f9c03b13cf1709eebd4" target="_top" xlink:title="update spatial footprints and background through Basis Pursuit Denoising ">
<polygon fill="white" stroke="black" points="172.073,-37.5 172.073,-55.5 313.166,-55.5 313.166,-37.5 172.073,-37.5"/>
<text text-anchor="middle" x="242.62" y="-43.5" font-family="Helvetica,sans-Serif" font-size="10.00">update_spatial_components</text>
</a>
</g>
</g>
<!-- Node14&#45;&gt;Node15 -->
<g id="edge1" class="edge"><title>Node14&#45;&gt;Node15</title>
<path fill="none" stroke="midnightblue" d="M146.255,-36.0011C154.838,-36.946 163.542,-37.9043 172.022,-38.8379"/>
<polygon fill="midnightblue" stroke="midnightblue" points="146.579,-32.5157 136.256,-34.9003 145.813,-39.4737 146.579,-32.5157"/>
</g>
<!-- Node18 -->
<g id="node5" class="node"><title>Node18</title>
<g id="a_node5"><a xlink:href="namespacecaiman_1_1source__extraction_1_1cnmf_1_1spatial.html#af3e32db8a5aeabf7269b756732a5e5a1" target="_top" xlink:title="regression_ipyparallel">
<polygon fill="white" stroke="black" points="185.982,-0.5 185.982,-18.5 299.257,-18.5 299.257,-0.5 185.982,-0.5"/>
<text text-anchor="middle" x="242.62" y="-6.5" font-family="Helvetica,sans-Serif" font-size="10.00">regression_ipyparallel</text>
</a>
</g>
</g>
<!-- Node14&#45;&gt;Node18 -->
<g id="edge4" class="edge"><title>Node14&#45;&gt;Node18</title>
<path fill="none" stroke="midnightblue" d="M146.332,-19.4383C159.609,-18.0535 173.173,-16.6388 185.749,-15.3272"/>
<polygon fill="midnightblue" stroke="midnightblue" points="145.839,-15.9706 136.256,-20.4892 146.565,-22.9329 145.839,-15.9706"/>
</g>
<!-- Node16 -->
<g id="node3" class="node"><title>Node16</title>
<g id="a_node3"><a xlink:href="namespacecaiman_1_1source__extraction_1_1cnmf_1_1merging.html#ad08adf2e086a22ef379b10ed3ee36936" target="_top" xlink:title="Merging of spatially overlapping components that have highly correlated temporal activity The correla...">
<polygon fill="white" stroke="black" points="349.166,-53.5 349.166,-81.5 573.589,-81.5 573.589,-53.5 349.166,-53.5"/>
<text text-anchor="start" x="357.166" y="-69.5" font-family="Helvetica,sans-Serif" font-size="10.00">caiman.source_extraction.cnmf.merging.merge</text>
<text text-anchor="middle" x="461.377" y="-59.5" font-family="Helvetica,sans-Serif" font-size="10.00">_components</text>
</a>
</g>
</g>
<!-- Node15&#45;&gt;Node16 -->
<g id="edge2" class="edge"><title>Node15&#45;&gt;Node16</title>
<path fill="none" stroke="midnightblue" d="M323.419,-54.2312C331.747,-55.038 340.317,-55.8683 348.913,-56.7011"/>
<polygon fill="midnightblue" stroke="midnightblue" points="323.687,-50.7408 313.396,-53.2601 323.012,-57.7082 323.687,-50.7408"/>
</g>
<!-- Node17 -->
<g id="node4" class="node"><title>Node17</title>
<g id="a_node4"><a xlink:href="namespacecaiman_1_1source__extraction_1_1cnmf_1_1spatial.html#adbbc80bf3821229671c7f77648016071" target="_top" xlink:title="basis_denoising">
<polygon fill="white" stroke="black" points="417.518,-16.5 417.518,-34.5 505.237,-34.5 505.237,-16.5 417.518,-16.5"/>
<text text-anchor="middle" x="461.377" y="-22.5" font-family="Helvetica,sans-Serif" font-size="10.00">basis_denoising</text>
</a>
</g>
</g>
<!-- Node15&#45;&gt;Node17 -->
<g id="edge3" class="edge"><title>Node15&#45;&gt;Node17</title>
<path fill="none" stroke="midnightblue" d="M323.557,-38.7555C355.276,-35.6825 390.493,-32.2706 417.253,-29.678"/>
<polygon fill="midnightblue" stroke="midnightblue" points="323.012,-35.2918 313.396,-39.7399 323.687,-42.2592 323.012,-35.2918"/>
</g>
</g>
</svg>
