<?xml version="1.0" encoding="UTF-8" standalone="no"?>
<!DOCTYPE svg PUBLIC "-//W3C//DTD SVG 1.1//EN"
 "http://www.w3.org/Graphics/SVG/1.1/DTD/svg11.dtd">
<!-- Generated by graphviz version 2.38.0 (20140413.2041)
 -->
<!-- Title: estimate_parameters Pages: 1 -->
<!--zoomable 126 -->
<svg id="main" version="1.1" xmlns="http://www.w3.org/2000/svg" xmlns:xlink="http://www.w3.org/1999/xlink" xml:space="preserve" onload="init(evt)">
<style type="text/css"><![CDATA[
.edge:hover path { stroke: red; }
.edge:hover polygon { stroke: red; fill: red; }
]]></style>
<script type="text/javascript"><![CDATA[
var edges = document.getElementsByTagName('g');
if (edges && edges.length) {
  for (var i=0;i<edges.length;i++) {
    if (edges[i].id.substr(0,4)=='edge') {
      edges[i].setAttribute('class','edge');
    }
  }
}
]]></script>
        <defs>
                <circle id="rim" cx="0" cy="0" r="7"/>
                <circle id="rim2" cx="0" cy="0" r="3.5"/>
                <g id="zoomPlus">
                        <use xlink:href="#rim" fill="#404040">
                                <set attributeName="fill" to="#808080" begin="zoomplus.mouseover" end="zoomplus.mouseout"/>
                        </use>
                        <path d="M-4,0h8M0,-4v8" fill="none" stroke="white" stroke-width="1.5" pointer-events="none"/>
                </g>
                <g id="zoomMin">
                        <use xlink:href="#rim" fill="#404040">
                                <set attributeName="fill" to="#808080" begin="zoomminus.mouseover" end="zoomminus.mouseout"/>
                        </use>
                        <path d="M-4,0h8" fill="none" stroke="white" stroke-width="1.5" pointer-events="none"/>
                </g>
                <g id="dirArrow">
                        <path fill="none" stroke="white" stroke-width="1.5" d="M0,-3.0v7 M-2.5,-0.5L0,-3.0L2.5,-0.5"/>
                </g>
               <g id="resetDef">
                       <use xlink:href="#rim2" fill="#404040">
                               <set attributeName="fill" to="#808080" begin="reset.mouseover" end="reset.mouseout"/>
                       </use>
               </g>
        </defs>

<script type="text/javascript">
var viewWidth = 906;
var viewHeight = 126;
var sectionId = 'dynsection-10';
</script>
<script xlink:href="svgpan.js"/>
<svg id="graph" class="graph">
<g id="viewport">
<title>estimate_parameters</title>
<polygon fill="white" stroke="none" points="-4,4 -4,-122 901.691,-122 901.691,4 -4,4"/>
<!-- Node71 -->
<g id="node1" class="node"><title>Node71</title>
<polygon fill="#bfbfbf" stroke="black" points="0,-29.5 0,-47.5 109.931,-47.5 109.931,-29.5 0,-29.5"/>
<text text-anchor="middle" x="54.9653" y="-35.5" font-family="Helvetica,sans-Serif" font-size="10.00">estimate_parameters</text>
</g>
<!-- Node72 -->
<g id="node2" class="node"><title>Node72</title>
<g id="a_node2"><a xlink:href="namespacecaiman_1_1source__extraction_1_1cnmf_1_1deconvolution.html#a0afb63d84485a181bb40f2eefe7b581e" target="_top" xlink:title="Infer the most likely discretized spike train underlying a fluorescence trace. ">
<polygon fill="white" stroke="black" points="297.989,-47.5 297.989,-65.5 397.935,-65.5 397.935,-47.5 297.989,-47.5"/>
<text text-anchor="middle" x="347.962" y="-53.5" font-family="Helvetica,sans-Serif" font-size="10.00">constrained_foopsi</text>
</a>
</g>
</g>
<!-- Node71&#45;&gt;Node72 -->
<g id="edge1" class="edge"><title>Node71&#45;&gt;Node72</title>
<path fill="none" stroke="midnightblue" d="M120.075,-42.4656C173.554,-45.7736 248.66,-50.4194 297.564,-53.4444"/>
<polygon fill="midnightblue" stroke="midnightblue" points="120.215,-38.9676 110.018,-41.8435 119.782,-45.9543 120.215,-38.9676"/>
</g>
<!-- Node77 -->
<g id="node7" class="node"><title>Node77</title>
<g id="a_node7"><a xlink:href="namespacecaiman_1_1source__extraction_1_1cnmf_1_1deconvolution.html#a5753e123f06d6f8a5f53e8f1cc50baba" target="_top" xlink:title="Infer the most likely discretized spike train underlying an AR(2) fluorescence trace. ">
<polygon fill="white" stroke="black" points="145.931,-10.5 145.931,-28.5 261.989,-28.5 261.989,-10.5 145.931,-10.5"/>
<text text-anchor="middle" x="203.96" y="-16.5" font-family="Helvetica,sans-Serif" font-size="10.00">constrained_oasisAR2</text>
</a>
</g>
</g>
<!-- Node71&#45;&gt;Node77 -->
<g id="edge6" class="edge"><title>Node71&#45;&gt;Node77</title>
<path fill="none" stroke="midnightblue" d="M120.216,-30.1951C128.769,-29.0897 137.491,-27.9623 145.909,-26.8742"/>
<polygon fill="midnightblue" stroke="midnightblue" points="119.752,-26.726 110.283,-31.4791 120.649,-33.6682 119.752,-26.726"/>
</g>
<!-- Node73 -->
<g id="node3" class="node"><title>Node73</title>
<g id="a_node3"><a xlink:href="namespacecaiman_1_1source__extraction_1_1cnmf_1_1merging.html#ad08adf2e086a22ef379b10ed3ee36936" target="_top" xlink:title="Merging of spatially overlapping components that have highly correlated temporal activity The correla...">
<polygon fill="white" stroke="black" points="447.001,-89.5 447.001,-117.5 671.424,-117.5 671.424,-89.5 447.001,-89.5"/>
<text text-anchor="start" x="455.001" y="-105.5" font-family="Helvetica,sans-Serif" font-size="10.00">caiman.source_extraction.cnmf.merging.merge</text>
<text text-anchor="middle" x="559.212" y="-95.5" font-family="Helvetica,sans-Serif" font-size="10.00">_components</text>
</a>
</g>
</g>
<!-- Node72&#45;&gt;Node73 -->
<g id="edge2" class="edge"><title>Node72&#45;&gt;Node73</title>
<path fill="none" stroke="midnightblue" d="M388.286,-68.4239C402.584,-72.5425 418.918,-76.9978 433.935,-80.5 447.611,-83.6897 462.216,-86.7221 476.431,-89.4764"/>
<polygon fill="midnightblue" stroke="midnightblue" points="388.862,-64.9461 378.282,-65.5028 386.9,-71.6655 388.862,-64.9461"/>
</g>
<!-- Node74 -->
<g id="node4" class="node"><title>Node74</title>
<g id="a_node4"><a xlink:href="namespacecaiman_1_1source__extraction_1_1cnmf_1_1temporal.html#a2ede407f1e0d0722f51ddb6e99f48f9f" target="_top" xlink:title="necessary for parallel computation of the function constrained_foopsi ">
<polygon fill="white" stroke="black" points="433.935,-42.5 433.935,-70.5 684.49,-70.5 684.49,-42.5 433.935,-42.5"/>
<text text-anchor="start" x="441.935" y="-58.5" font-family="Helvetica,sans-Serif" font-size="10.00">caiman.source_extraction.cnmf.temporal.constrained</text>
<text text-anchor="middle" x="559.212" y="-48.5" font-family="Helvetica,sans-Serif" font-size="10.00">_foopsi_parallel</text>
</a>
</g>
</g>
<!-- Node72&#45;&gt;Node74 -->
<g id="edge3" class="edge"><title>Node72&#45;&gt;Node74</title>
<path fill="none" stroke="midnightblue" d="M408.097,-56.5C416.261,-56.5 424.883,-56.5 433.701,-56.5"/>
<polygon fill="midnightblue" stroke="midnightblue" points="408.022,-53.0001 398.022,-56.5 408.022,-60.0001 408.022,-53.0001"/>
</g>
<!-- Node75 -->
<g id="node5" class="node"><title>Node75</title>
<g id="a_node5"><a xlink:href="namespacecaiman_1_1tests_1_1test__deconvolution.html#aaebeed7ce9541fa4c56791c67009cdc6" target="_top" xlink:title="caiman.tests.test_deconvolution.foo">
<polygon fill="white" stroke="black" points="471.72,-5.5 471.72,-23.5 646.705,-23.5 646.705,-5.5 471.72,-5.5"/>
<text text-anchor="middle" x="559.212" y="-11.5" font-family="Helvetica,sans-Serif" font-size="10.00">caiman.tests.test_deconvolution.foo</text>
</a>
</g>
</g>
<!-- Node72&#45;&gt;Node75 -->
<g id="edge4" class="edge"><title>Node72&#45;&gt;Node75</title>
<path fill="none" stroke="midnightblue" d="M387.109,-44.5719C401.658,-40.3277 418.463,-35.7905 433.935,-32.5 450.248,-29.0306 467.909,-26.0273 484.656,-23.5214"/>
<polygon fill="midnightblue" stroke="midnightblue" points="386.029,-41.2412 377.44,-47.4444 388.023,-47.9513 386.029,-41.2412"/>
</g>
<!-- Node76 -->
<g id="node6" class="node"><title>Node76</title>
<g id="a_node6"><a xlink:href="namespacecaiman_1_1tests_1_1test__deconvolution.html#a90f82ae854f8179179664fe34973f11b" target="_top" xlink:title="caiman.tests.test_deconvolution.test\l_oasis">
<polygon fill="white" stroke="black" points="720.49,-0.5 720.49,-28.5 897.691,-28.5 897.691,-0.5 720.49,-0.5"/>
<text text-anchor="start" x="728.49" y="-16.5" font-family="Helvetica,sans-Serif" font-size="10.00">caiman.tests.test_deconvolution.test</text>
<text text-anchor="middle" x="809.091" y="-6.5" font-family="Helvetica,sans-Serif" font-size="10.00">_oasis</text>
</a>
</g>
</g>
<!-- Node75&#45;&gt;Node76 -->
<g id="edge5" class="edge"><title>Node75&#45;&gt;Node76</title>
<path fill="none" stroke="midnightblue" d="M657.029,-14.5C677.844,-14.5 699.732,-14.5 720.186,-14.5"/>
<polygon fill="midnightblue" stroke="midnightblue" points="656.908,-11.0001 646.908,-14.5 656.908,-18.0001 656.908,-11.0001"/>
</g>
<!-- Node77&#45;&gt;Node72 -->
<g id="edge7" class="edge"><title>Node77&#45;&gt;Node72</title>
<path fill="none" stroke="midnightblue" d="M249.599,-31.131C269.768,-36.3862 293.244,-42.5033 312.091,-47.414"/>
<polygon fill="midnightblue" stroke="midnightblue" points="250.257,-27.6858 239.698,-28.5512 248.492,-34.4596 250.257,-27.6858"/>
</g>
<!-- Node78 -->
<g id="node8" class="node"><title>Node78</title>
<g id="a_node8"><a xlink:href="namespacecaiman_1_1source__extraction_1_1cnmf_1_1deconvolution.html#affae481e26d5e13bc6f62c6e643b63d5" target="_top" xlink:title="Infer the most likely discretized spike train underlying an AR(2) fluorescence trace. ">
<polygon fill="white" stroke="black" points="328.009,-10.5 328.009,-28.5 367.915,-28.5 367.915,-10.5 328.009,-10.5"/>
<text text-anchor="middle" x="347.962" y="-16.5" font-family="Helvetica,sans-Serif" font-size="10.00">onnls</text>
</a>
</g>
</g>
<!-- Node77&#45;&gt;Node78 -->
<g id="edge8" class="edge"><title>Node77&#45;&gt;Node78</title>
<path fill="none" stroke="midnightblue" d="M272.551,-12.7569C292.886,-12.6743 313.596,-13.3314 327.986,-14.7284"/>
<polygon fill="midnightblue" stroke="midnightblue" points="272.272,-9.25951 262.308,-12.8622 272.344,-16.2591 272.272,-9.25951"/>
</g>
<!-- Node78&#45;&gt;Node77 -->
<g id="edge9" class="edge"><title>Node78&#45;&gt;Node77</title>
<path fill="none" stroke="midnightblue" d="M317.684,-25.0835C301.691,-26.1023 281.321,-26.4538 262.308,-26.1378"/>
<polygon fill="midnightblue" stroke="midnightblue" points="318.292,-28.5466 327.986,-24.2716 317.742,-21.5682 318.292,-28.5466"/>
</g>
</g>
</svg>
        <g id="navigator" transform="translate(0 0)" fill="#404254">
                <rect fill="#f2f5e9" fill-opacity="0.5" stroke="#606060" stroke-width=".5" x="0" y="0" width="60" height="60"/>
                <use id="zoomplus" xlink:href="#zoomPlus" x="17" y="9" onmousedown="handleZoom(evt,'in')"/>
                <use id="zoomminus" xlink:href="#zoomMin" x="42" y="9" onmousedown="handleZoom(evt,'out')"/>
                <use id="reset" xlink:href="#resetDef" x="30" y="36" onmousedown="handleReset()"/>
                <g id="arrowUp" xlink:href="#dirArrow" transform="translate(30 24)" onmousedown="handlePan(0,-1)">
                  <use xlink:href="#rim" fill="#404040">
                        <set attributeName="fill" to="#808080" begin="arrowUp.mouseover" end="arrowUp.mouseout"/>
                  </use>
                  <path fill="none" stroke="white" stroke-width="1.5" d="M0,-3.0v7 M-2.5,-0.5L0,-3.0L2.5,-0.5"/>
                </g>
                <g id="arrowRight" xlink:href="#dirArrow" transform="rotate(90) translate(36 -43)" onmousedown="handlePan(1,0)">
                  <use xlink:href="#rim" fill="#404040">
                        <set attributeName="fill" to="#808080" begin="arrowRight.mouseover" end="arrowRight.mouseout"/>
                  </use>
                  <path fill="none" stroke="white" stroke-width="1.5" d="M0,-3.0v7 M-2.5,-0.5L0,-3.0L2.5,-0.5"/>
                </g>
                <g id="arrowDown" xlink:href="#dirArrow" transform="rotate(180) translate(-30 -48)" onmousedown="handlePan(0,1)">
                  <use xlink:href="#rim" fill="#404040">
                        <set attributeName="fill" to="#808080" begin="arrowDown.mouseover" end="arrowDown.mouseout"/>
                  </use>
                  <path fill="none" stroke="white" stroke-width="1.5" d="M0,-3.0v7 M-2.5,-0.5L0,-3.0L2.5,-0.5"/>
                </g>
                <g id="arrowLeft" xlink:href="#dirArrow" transform="rotate(270) translate(-36 17)" onmousedown="handlePan(-1,0)">
                  <use xlink:href="#rim" fill="#404040">
                        <set attributeName="fill" to="#808080" begin="arrowLeft.mouseover" end="arrowLeft.mouseout"/>
                  </use>
                  <path fill="none" stroke="white" stroke-width="1.5" d="M0,-3.0v7 M-2.5,-0.5L0,-3.0L2.5,-0.5"/>
                </g>
        </g>
        <svg viewBox="0 0 15 15" width="100%" height="30px" preserveAspectRatio="xMaxYMin meet">
         <g id="arrow_out" transform="scale(0.3 0.3)">
          <a xlink:href="namespacecaiman_1_1source__extraction_1_1cnmf_1_1deconvolution_a7199190b4f33e4a70dedc9deea7e4c45_icgraph_org.svg" target="_base">
           <rect id="button" ry="5" rx="5" y="6" x="6" height="38" width="38"
                fill="#f2f5e9" fill-opacity="0.5" stroke="#606060" stroke-width="1.0"/>
           <path id="arrow"
             d="M 11.500037,31.436501 C 11.940474,20.09759 22.043105,11.32322 32.158766,21.979434 L 37.068811,17.246167 C 37.068811,17.246167 37.088388,32 37.088388,32 L 22.160133,31.978069 C 22.160133,31.978069 26.997745,27.140456 26.997745,27.140456 C 18.528582,18.264221 13.291696,25.230495 11.500037,31.436501 z"
             style="fill:#404040;"/>
          </a>
         </g>
        </svg>
</svg>
