<?xml version="1.0" encoding="UTF-8" standalone="no"?>
<!DOCTYPE svg PUBLIC "-//W3C//DTD SVG 1.1//EN"
 "http://www.w3.org/Graphics/SVG/1.1/DTD/svg11.dtd">
<!-- Generated by graphviz version 2.38.0 (20140413.2041)
 -->
<!-- Title: nextpow2 Pages: 1 -->
<svg width="1236pt" height="126pt"
 viewBox="0.00 0.00 1236.23 126.00" xmlns="http://www.w3.org/2000/svg" xmlns:xlink="http://www.w3.org/1999/xlink">
<g id="graph0" class="graph" transform="scale(1 1) rotate(0) translate(4 122)">
<title>nextpow2</title>
<polygon fill="white" stroke="none" points="-4,4 -4,-122 1232.23,-122 1232.23,4 -4,4"/>
<!-- Node106 -->
<g id="node1" class="node"><title>Node106</title>
<polygon fill="#bfbfbf" stroke="black" points="0,-29.5 0,-47.5 58.8076,-47.5 58.8076,-29.5 0,-29.5"/>
<text text-anchor="middle" x="29.4038" y="-35.5" font-family="Helvetica,sans-Serif" font-size="10.00">nextpow2</text>
</g>
<!-- Node107 -->
<g id="node2" class="node"><title>Node107</title>
<g id="a_node2"><a xlink:href="namespacecaiman_1_1source__extraction_1_1cnmf_1_1deconvolution.html#a458da977dee6e97910a1b006e899b309" target="_top" xlink:title="axcov">
<polygon fill="white" stroke="black" points="94.8076,-29.5 94.8076,-47.5 136.931,-47.5 136.931,-29.5 94.8076,-29.5"/>
<text text-anchor="middle" x="115.869" y="-35.5" font-family="Helvetica,sans-Serif" font-size="10.00">axcov</text>
</a>
</g>
</g>
<!-- Node106&#45;&gt;Node107 -->
<g id="edge1" class="edge"><title>Node106&#45;&gt;Node107</title>
<path fill="none" stroke="midnightblue" d="M69.1307,-38.5C77.9188,-38.5 86.9108,-38.5 94.5704,-38.5"/>
<polygon fill="midnightblue" stroke="midnightblue" points="69,-35.0001 58.9999,-38.5 68.9999,-42.0001 69,-35.0001"/>
</g>
<!-- Node108 -->
<g id="node3" class="node"><title>Node108</title>
<g id="a_node3"><a xlink:href="namespacecaiman_1_1source__extraction_1_1cnmf_1_1deconvolution.html#a7a73db2b3e0e88f4a5f30f80944c1319" target="_top" xlink:title="estimate_time_constant">
<polygon fill="white" stroke="black" points="172.931,-29.5 172.931,-47.5 294.541,-47.5 294.541,-29.5 172.931,-29.5"/>
<text text-anchor="middle" x="233.736" y="-35.5" font-family="Helvetica,sans-Serif" font-size="10.00">estimate_time_constant</text>
</a>
</g>
</g>
<!-- Node107&#45;&gt;Node108 -->
<g id="edge2" class="edge"><title>Node107&#45;&gt;Node108</title>
<path fill="none" stroke="midnightblue" d="M147.113,-38.5C154.948,-38.5 163.667,-38.5 172.459,-38.5"/>
<polygon fill="midnightblue" stroke="midnightblue" points="147.052,-35.0001 137.052,-38.5 147.052,-42.0001 147.052,-35.0001"/>
</g>
<!-- Node109 -->
<g id="node4" class="node"><title>Node109</title>
<g id="a_node4"><a xlink:href="namespacecaiman_1_1source__extraction_1_1cnmf_1_1deconvolution.html#a5753e123f06d6f8a5f53e8f1cc50baba" target="_top" xlink:title="Infer the most likely discretized spike train underlying an AR(2) fluorescence trace. ">
<polygon fill="white" stroke="black" points="476.472,-10.5 476.472,-28.5 592.53,-28.5 592.53,-10.5 476.472,-10.5"/>
<text text-anchor="middle" x="534.501" y="-16.5" font-family="Helvetica,sans-Serif" font-size="10.00">constrained_oasisAR2</text>
</a>
</g>
</g>
<!-- Node108&#45;&gt;Node109 -->
<g id="edge3" class="edge"><title>Node108&#45;&gt;Node109</title>
<path fill="none" stroke="midnightblue" d="M305.021,-34.0302C357.213,-30.711 427.508,-26.2406 476.284,-23.1387"/>
<polygon fill="midnightblue" stroke="midnightblue" points="304.594,-30.5502 294.836,-34.6779 305.038,-37.5361 304.594,-30.5502"/>
</g>
<!-- Node116 -->
<g id="node11" class="node"><title>Node116</title>
<g id="a_node11"><a xlink:href="namespacecaiman_1_1source__extraction_1_1cnmf_1_1deconvolution.html#a7199190b4f33e4a70dedc9deea7e4c45" target="_top" xlink:title="estimate_parameters">
<polygon fill="white" stroke="black" points="330.541,-48.5 330.541,-66.5 440.472,-66.5 440.472,-48.5 330.541,-48.5"/>
<text text-anchor="middle" x="385.506" y="-54.5" font-family="Helvetica,sans-Serif" font-size="10.00">estimate_parameters</text>
</a>
</g>
</g>
<!-- Node108&#45;&gt;Node116 -->
<g id="edge11" class="edge"><title>Node108&#45;&gt;Node116</title>
<path fill="none" stroke="midnightblue" d="M304.771,-47.3847C313.329,-48.4704 321.972,-49.5669 330.25,-50.6171"/>
<polygon fill="midnightblue" stroke="midnightblue" points="305.151,-43.905 294.79,-46.1185 304.27,-50.8493 305.151,-43.905"/>
</g>
<!-- Node110 -->
<g id="node5" class="node"><title>Node110</title>
<g id="a_node5"><a xlink:href="namespacecaiman_1_1source__extraction_1_1cnmf_1_1deconvolution.html#a0afb63d84485a181bb40f2eefe7b581e" target="_top" xlink:title="Infer the most likely discretized spike train underlying a fluorescence trace. ">
<polygon fill="white" stroke="black" points="628.53,-47.5 628.53,-65.5 728.476,-65.5 728.476,-47.5 628.53,-47.5"/>
<text text-anchor="middle" x="678.503" y="-53.5" font-family="Helvetica,sans-Serif" font-size="10.00">constrained_foopsi</text>
</a>
</g>
</g>
<!-- Node109&#45;&gt;Node110 -->
<g id="edge4" class="edge"><title>Node109&#45;&gt;Node110</title>
<path fill="none" stroke="midnightblue" d="M580.14,-31.131C600.309,-36.3862 623.785,-42.5033 642.632,-47.414"/>
<polygon fill="midnightblue" stroke="midnightblue" points="580.798,-27.6858 570.239,-28.5512 579.033,-34.4596 580.798,-27.6858"/>
</g>
<!-- Node115 -->
<g id="node10" class="node"><title>Node115</title>
<g id="a_node10"><a xlink:href="namespacecaiman_1_1source__extraction_1_1cnmf_1_1deconvolution.html#affae481e26d5e13bc6f62c6e643b63d5" target="_top" xlink:title="Infer the most likely discretized spike train underlying an AR(2) fluorescence trace. ">
<polygon fill="white" stroke="black" points="658.55,-10.5 658.55,-28.5 698.456,-28.5 698.456,-10.5 658.55,-10.5"/>
<text text-anchor="middle" x="678.503" y="-16.5" font-family="Helvetica,sans-Serif" font-size="10.00">onnls</text>
</a>
</g>
</g>
<!-- Node109&#45;&gt;Node115 -->
<g id="edge9" class="edge"><title>Node109&#45;&gt;Node115</title>
<path fill="none" stroke="midnightblue" d="M603.092,-12.7569C623.427,-12.6743 644.137,-13.3314 658.527,-14.7284"/>
<polygon fill="midnightblue" stroke="midnightblue" points="602.813,-9.25951 592.849,-12.8622 602.885,-16.2591 602.813,-9.25951"/>
</g>
<!-- Node111 -->
<g id="node6" class="node"><title>Node111</title>
<g id="a_node6"><a xlink:href="namespacecaiman_1_1source__extraction_1_1cnmf_1_1merging.html#ad08adf2e086a22ef379b10ed3ee36936" target="_top" xlink:title="Merging of spatially overlapping components that have highly correlated temporal activity The correla...">
<polygon fill="white" stroke="black" points="777.542,-89.5 777.542,-117.5 1001.96,-117.5 1001.96,-89.5 777.542,-89.5"/>
<text text-anchor="start" x="785.542" y="-105.5" font-family="Helvetica,sans-Serif" font-size="10.00">caiman.source_extraction.cnmf.merging.merge</text>
<text text-anchor="middle" x="889.753" y="-95.5" font-family="Helvetica,sans-Serif" font-size="10.00">_components</text>
</a>
</g>
</g>
<!-- Node110&#45;&gt;Node111 -->
<g id="edge5" class="edge"><title>Node110&#45;&gt;Node111</title>
<path fill="none" stroke="midnightblue" d="M718.827,-68.4239C733.125,-72.5425 749.459,-76.9978 764.476,-80.5 778.152,-83.6897 792.757,-86.7221 806.972,-89.4764"/>
<polygon fill="midnightblue" stroke="midnightblue" points="719.403,-64.9461 708.823,-65.5028 717.441,-71.6655 719.403,-64.9461"/>
</g>
<!-- Node112 -->
<g id="node7" class="node"><title>Node112</title>
<g id="a_node7"><a xlink:href="namespacecaiman_1_1source__extraction_1_1cnmf_1_1temporal.html#a2ede407f1e0d0722f51ddb6e99f48f9f" target="_top" xlink:title="necessary for parallel computation of the function constrained_foopsi ">
<polygon fill="white" stroke="black" points="764.476,-42.5 764.476,-70.5 1015.03,-70.5 1015.03,-42.5 764.476,-42.5"/>
<text text-anchor="start" x="772.476" y="-58.5" font-family="Helvetica,sans-Serif" font-size="10.00">caiman.source_extraction.cnmf.temporal.constrained</text>
<text text-anchor="middle" x="889.753" y="-48.5" font-family="Helvetica,sans-Serif" font-size="10.00">_foopsi_parallel</text>
</a>
</g>
</g>
<!-- Node110&#45;&gt;Node112 -->
<g id="edge6" class="edge"><title>Node110&#45;&gt;Node112</title>
<path fill="none" stroke="midnightblue" d="M738.638,-56.5C746.802,-56.5 755.424,-56.5 764.242,-56.5"/>
<polygon fill="midnightblue" stroke="midnightblue" points="738.563,-53.0001 728.563,-56.5 738.563,-60.0001 738.563,-53.0001"/>
</g>
<!-- Node113 -->
<g id="node8" class="node"><title>Node113</title>
<g id="a_node8"><a xlink:href="namespacecaiman_1_1tests_1_1test__deconvolution.html#aaebeed7ce9541fa4c56791c67009cdc6" target="_top" xlink:title="caiman.tests.test_deconvolution.foo">
<polygon fill="white" stroke="black" points="802.261,-5.5 802.261,-23.5 977.246,-23.5 977.246,-5.5 802.261,-5.5"/>
<text text-anchor="middle" x="889.753" y="-11.5" font-family="Helvetica,sans-Serif" font-size="10.00">caiman.tests.test_deconvolution.foo</text>
</a>
</g>
</g>
<!-- Node110&#45;&gt;Node113 -->
<g id="edge7" class="edge"><title>Node110&#45;&gt;Node113</title>
<path fill="none" stroke="midnightblue" d="M717.65,-44.5719C732.199,-40.3277 749.004,-35.7905 764.476,-32.5 780.789,-29.0306 798.45,-26.0273 815.197,-23.5214"/>
<polygon fill="midnightblue" stroke="midnightblue" points="716.57,-41.2412 707.981,-47.4444 718.564,-47.9513 716.57,-41.2412"/>
</g>
<!-- Node114 -->
<g id="node9" class="node"><title>Node114</title>
<g id="a_node9"><a xlink:href="namespacecaiman_1_1tests_1_1test__deconvolution.html#a90f82ae854f8179179664fe34973f11b" target="_top" xlink:title="caiman.tests.test_deconvolution.test\l_oasis">
<polygon fill="white" stroke="black" points="1051.03,-0.5 1051.03,-28.5 1228.23,-28.5 1228.23,-0.5 1051.03,-0.5"/>
<text text-anchor="start" x="1059.03" y="-16.5" font-family="Helvetica,sans-Serif" font-size="10.00">caiman.tests.test_deconvolution.test</text>
<text text-anchor="middle" x="1139.63" y="-6.5" font-family="Helvetica,sans-Serif" font-size="10.00">_oasis</text>
</a>
</g>
</g>
<!-- Node113&#45;&gt;Node114 -->
<g id="edge8" class="edge"><title>Node113&#45;&gt;Node114</title>
<path fill="none" stroke="midnightblue" d="M987.57,-14.5C1008.38,-14.5 1030.27,-14.5 1050.73,-14.5"/>
<polygon fill="midnightblue" stroke="midnightblue" points="987.449,-11.0001 977.449,-14.5 987.449,-18.0001 987.449,-11.0001"/>
</g>
<!-- Node115&#45;&gt;Node109 -->
<g id="edge10" class="edge"><title>Node115&#45;&gt;Node109</title>
<path fill="none" stroke="midnightblue" d="M648.225,-25.0835C632.232,-26.1023 611.862,-26.4538 592.849,-26.1378"/>
<polygon fill="midnightblue" stroke="midnightblue" points="648.833,-28.5466 658.527,-24.2716 648.283,-21.5682 648.833,-28.5466"/>
</g>
<!-- Node116&#45;&gt;Node109 -->
<g id="edge13" class="edge"><title>Node116&#45;&gt;Node109</title>
<path fill="none" stroke="midnightblue" d="M431.289,-45.9231C452.927,-40.3294 478.505,-33.7172 498.661,-28.5066"/>
<polygon fill="midnightblue" stroke="midnightblue" points="430.148,-42.603 421.342,-48.4945 431.9,-49.3802 430.148,-42.603"/>
</g>
<!-- Node116&#45;&gt;Node110 -->
<g id="edge12" class="edge"><title>Node116&#45;&gt;Node110</title>
<path fill="none" stroke="midnightblue" d="M450.616,-57.2797C504.095,-57.0959 579.201,-56.8378 628.105,-56.6698"/>
<polygon fill="midnightblue" stroke="midnightblue" points="450.546,-53.7798 440.559,-57.3143 450.571,-60.7798 450.546,-53.7798"/>
</g>
</g>
</svg>
