<?xml version="1.0" encoding="UTF-8" standalone="no"?>
<!DOCTYPE svg PUBLIC "-//W3C//DTD SVG 1.1//EN"
 "http://www.w3.org/Graphics/SVG/1.1/DTD/svg11.dtd">
<!-- Generated by graphviz version 2.38.0 (20140413.2041)
 -->
<!-- Title: normalize_components Pages: 1 -->
<svg width="201pt" height="27pt"
 viewBox="0.00 0.00 201.06 27.00" xmlns="http://www.w3.org/2000/svg" xmlns:xlink="http://www.w3.org/1999/xlink">
<g id="graph0" class="graph" transform="scale(1 1) rotate(0) translate(4 23)">
<title>normalize_components</title>
<polygon fill="white" stroke="none" points="-4,4 -4,-23 197.063,-23 197.063,4 -4,4"/>
<!-- Node35 -->
<g id="node1" class="node"><title>Node35</title>
<polygon fill="#bfbfbf" stroke="black" points="0,-0.5 0,-18.5 119.389,-18.5 119.389,-0.5 0,-0.5"/>
<text text-anchor="middle" x="59.6943" y="-6.5" font-family="Helvetica,sans-Serif" font-size="10.00">normalize_components</text>
</g>
<!-- Node36 -->
<g id="node2" class="node"><title>Node36</title>
<g id="a_node2"><a xlink:href="namespacecaiman_1_1behavior_1_1behavior.html#a513c5d7fc1e56d74ff55d4f74ee836a3" target="_top" xlink:title="main">
<polygon fill="white" stroke="black" points="155.389,-0.5 155.389,-18.5 193.063,-18.5 193.063,-0.5 155.389,-0.5"/>
<text text-anchor="middle" x="174.226" y="-6.5" font-family="Helvetica,sans-Serif" font-size="10.00">main</text>
</a>
</g>
</g>
<!-- Node35&#45;&gt;Node36 -->
<g id="edge1" class="edge"><title>Node35&#45;&gt;Node36</title>
<path fill="none" stroke="midnightblue" d="M129.845,-2.90984C139.157,-3.14461 147.972,-3.63801 155.193,-4.39005"/>
<polygon fill="midnightblue" stroke="midnightblue" points="129.648,0.593406 119.597,-2.75659 129.543,-6.40581 129.648,0.593406"/>
</g>
<!-- Node36&#45;&gt;Node35 -->
<g id="edge2" class="edge"><title>Node36&#45;&gt;Node35</title>
<path fill="none" stroke="midnightblue" d="M145.193,-15.4295C137.349,-15.9275 128.517,-16.1988 119.597,-16.2434"/>
<polygon fill="midnightblue" stroke="midnightblue" points="145.512,-18.9152 155.193,-14.61 144.94,-11.9386 145.512,-18.9152"/>
</g>
</g>
</svg>
