<?xml version="1.0" encoding="UTF-8" standalone="no"?>
<!DOCTYPE svg PUBLIC "-//W3C//DTD SVG 1.1//EN"
 "http://www.w3.org/Graphics/SVG/1.1/DTD/svg11.dtd">
<!-- Generated by graphviz version 2.38.0 (20140413.2041)
 -->
<!-- Title: com Pages: 1 -->
<!--zoomable 257 -->
<svg id="main" version="1.1" xmlns="http://www.w3.org/2000/svg" xmlns:xlink="http://www.w3.org/1999/xlink" xml:space="preserve" onload="init(evt)">
<style type="text/css"><![CDATA[
.edge:hover path { stroke: red; }
.edge:hover polygon { stroke: red; fill: red; }
]]></style>
<script type="text/javascript"><![CDATA[
var edges = document.getElementsByTagName('g');
if (edges && edges.length) {
  for (var i=0;i<edges.length;i++) {
    if (edges[i].id.substr(0,4)=='edge') {
      edges[i].setAttribute('class','edge');
    }
  }
}
]]></script>
        <defs>
                <circle id="rim" cx="0" cy="0" r="7"/>
                <circle id="rim2" cx="0" cy="0" r="3.5"/>
                <g id="zoomPlus">
                        <use xlink:href="#rim" fill="#404040">
                                <set attributeName="fill" to="#808080" begin="zoomplus.mouseover" end="zoomplus.mouseout"/>
                        </use>
                        <path d="M-4,0h8M0,-4v8" fill="none" stroke="white" stroke-width="1.5" pointer-events="none"/>
                </g>
                <g id="zoomMin">
                        <use xlink:href="#rim" fill="#404040">
                                <set attributeName="fill" to="#808080" begin="zoomminus.mouseover" end="zoomminus.mouseout"/>
                        </use>
                        <path d="M-4,0h8" fill="none" stroke="white" stroke-width="1.5" pointer-events="none"/>
                </g>
                <g id="dirArrow">
                        <path fill="none" stroke="white" stroke-width="1.5" d="M0,-3.0v7 M-2.5,-0.5L0,-3.0L2.5,-0.5"/>
                </g>
               <g id="resetDef">
                       <use xlink:href="#rim2" fill="#404040">
                               <set attributeName="fill" to="#808080" begin="reset.mouseover" end="reset.mouseout"/>
                       </use>
               </g>
        </defs>

<script type="text/javascript">
var viewWidth = 804;
var viewHeight = 257;
var sectionId = 'dynsection-0';
</script>
<script xlink:href="svgpan.js"/>
<svg id="graph" class="graph">
<g id="viewport">
<title>com</title>
<polygon fill="white" stroke="none" points="-4,4 -4,-253 800.155,-253 800.155,4 -4,4"/>
<!-- Node1 -->
<g id="node1" class="node"><title>Node1</title>
<polygon fill="#bfbfbf" stroke="black" points="0,-141.5 0,-159.5 34.8916,-159.5 34.8916,-141.5 0,-141.5"/>
<text text-anchor="middle" x="17.4458" y="-147.5" font-family="Helvetica,sans-Serif" font-size="10.00">com</text>
</g>
<!-- Node2 -->
<g id="node2" class="node"><title>Node2</title>
<g id="a_node2"><a xlink:href="namespacecaiman_1_1source__extraction_1_1cnmf_1_1initialization.html#a88bfdfe3cc85c90317fb6d8d6c09f792" target="_top" xlink:title="Initialization using ICA and PCA. ">
<polygon fill="white" stroke="black" points="96.729,-220.5 96.729,-248.5 308.374,-248.5 308.374,-220.5 96.729,-220.5"/>
<text text-anchor="start" x="104.729" y="-236.5" font-family="Helvetica,sans-Serif" font-size="10.00">caiman.source_extraction.cnmf.initialization.</text>
<text text-anchor="middle" x="202.551" y="-226.5" font-family="Helvetica,sans-Serif" font-size="10.00">ICA_PCA</text>
</a>
</g>
</g>
<!-- Node1&#45;&gt;Node2 -->
<g id="edge1" class="edge"><title>Node1&#45;&gt;Node2</title>
<path fill="none" stroke="midnightblue" d="M29.0045,-168.486C38.2304,-182.517 52.9427,-201.284 70.8916,-211.5 78.8985,-216.057 87.5932,-219.752 96.5653,-222.743"/>
<polygon fill="midnightblue" stroke="midnightblue" points="31.7824,-166.326 23.5214,-159.692 25.8425,-170.03 31.7824,-166.326"/>
</g>
<!-- Node4 -->
<g id="node4" class="node"><title>Node4</title>
<g id="a_node4"><a xlink:href="namespacecaiman_1_1source__extraction_1_1cnmf_1_1initialization.html#a12935eff3707e6c9e0e56b2152a90bd5" target="_top" xlink:title="caiman.source_extraction.cnmf.initialization.sparseNMF">
<polygon fill="white" stroke="black" points="70.8916,-183.5 70.8916,-201.5 334.211,-201.5 334.211,-183.5 70.8916,-183.5"/>
<text text-anchor="middle" x="202.551" y="-189.5" font-family="Helvetica,sans-Serif" font-size="10.00">caiman.source_extraction.cnmf.initialization.sparseNMF</text>
</a>
</g>
</g>
<!-- Node1&#45;&gt;Node4 -->
<g id="edge3" class="edge"><title>Node1&#45;&gt;Node4</title>
<path fill="none" stroke="midnightblue" d="M44.1637,-164.081C52.4952,-167.984 61.9077,-171.887 70.8916,-174.5 83.5342,-178.177 97.0892,-181.11 110.509,-183.449"/>
<polygon fill="midnightblue" stroke="midnightblue" points="45.4903,-160.834 34.9703,-159.577 42.4103,-167.12 45.4903,-160.834"/>
</g>
<!-- Node5 -->
<g id="node5" class="node"><title>Node5</title>
<g id="a_node5"><a xlink:href="namespacecaiman_1_1source__extraction_1_1cnmf_1_1utilities.html#ad671b2e9120b3437304b3149d174f625" target="_top" xlink:title="Plots contour of spatial components against a background image and allows to interactively add novel ...">
<polygon fill="white" stroke="black" points="87.2832,-136.5 87.2832,-164.5 317.819,-164.5 317.819,-136.5 87.2832,-136.5"/>
<text text-anchor="start" x="95.2832" y="-152.5" font-family="Helvetica,sans-Serif" font-size="10.00">caiman.source_extraction.cnmf.utilities.manually</text>
<text text-anchor="middle" x="202.551" y="-142.5" font-family="Helvetica,sans-Serif" font-size="10.00">_refine_components</text>
</a>
</g>
</g>
<!-- Node1&#45;&gt;Node5 -->
<g id="edge5" class="edge"><title>Node1&#45;&gt;Node5</title>
<path fill="none" stroke="midnightblue" d="M45.3068,-150.5C57.0292,-150.5 71.645,-150.5 87.1984,-150.5"/>
<polygon fill="midnightblue" stroke="midnightblue" points="45.0182,-147 35.0181,-150.5 45.0181,-154 45.0182,-147"/>
</g>
<!-- Node6 -->
<g id="node6" class="node"><title>Node6</title>
<g id="a_node6"><a xlink:href="namespacecaiman_1_1utils_1_1visualization.html#aa6b9002875d7d86524868e7d795a4f3f" target="_top" xlink:title="Interactive Equivalent of plot_contours for ipython notebook. ">
<polygon fill="white" stroke="black" points="423.844,-94.5 423.844,-122.5 563.794,-122.5 563.794,-94.5 423.844,-94.5"/>
<text text-anchor="start" x="431.844" y="-110.5" font-family="Helvetica,sans-Serif" font-size="10.00">caiman.utils.visualization.nb</text>
<text text-anchor="middle" x="493.819" y="-100.5" font-family="Helvetica,sans-Serif" font-size="10.00">_plot_contour</text>
</a>
</g>
</g>
<!-- Node1&#45;&gt;Node6 -->
<g id="edge6" class="edge"><title>Node1&#45;&gt;Node6</title>
<path fill="none" stroke="midnightblue" d="M42.9846,-136.898C51.5582,-132.795 61.4128,-128.779 70.8916,-126.5 192.436,-97.2833 339.237,-98.9998 423.737,-103.405"/>
<polygon fill="midnightblue" stroke="midnightblue" points="41.2776,-133.84 33.9375,-141.48 44.44,-140.085 41.2776,-133.84"/>
</g>
<!-- Node8 -->
<g id="node8" class="node"><title>Node8</title>
<g id="a_node8"><a xlink:href="namespacecaiman_1_1utils_1_1visualization.html#ad48f24a70009a82e7a8cafa02e283a0e" target="_top" xlink:title="Plots contour of spatial components against a background image and returns their coordinates. ">
<polygon fill="white" stroke="black" points="130.076,-48.5 130.076,-76.5 275.026,-76.5 275.026,-48.5 130.076,-48.5"/>
<text text-anchor="start" x="138.076" y="-64.5" font-family="Helvetica,sans-Serif" font-size="10.00">caiman.utils.visualization.plot</text>
<text text-anchor="middle" x="202.551" y="-54.5" font-family="Helvetica,sans-Serif" font-size="10.00">_contours</text>
</a>
</g>
</g>
<!-- Node1&#45;&gt;Node8 -->
<g id="edge9" class="edge"><title>Node1&#45;&gt;Node8</title>
<path fill="none" stroke="midnightblue" d="M30.3354,-132.732C39.8323,-119.922 54.2725,-103.237 70.8916,-93.5 88.6939,-83.0701 109.803,-76.1467 129.805,-71.5518"/>
<polygon fill="midnightblue" stroke="midnightblue" points="27.2492,-131.034 24.3333,-141.22 32.9647,-135.076 27.2492,-131.034"/>
</g>
<!-- Node3 -->
<g id="node3" class="node"><title>Node3</title>
<g id="a_node3"><a xlink:href="namespacecaiman_1_1source__extraction_1_1cnmf_1_1initialization.html#ad762ff1c4aefedc408fe609de7cb1ebc" target="_top" xlink:title="Initalize components. ">
<polygon fill="white" stroke="black" points="370.211,-199.5 370.211,-227.5 617.427,-227.5 617.427,-199.5 370.211,-199.5"/>
<text text-anchor="start" x="378.211" y="-215.5" font-family="Helvetica,sans-Serif" font-size="10.00">caiman.source_extraction.cnmf.initialization.initialize</text>
<text text-anchor="middle" x="493.819" y="-205.5" font-family="Helvetica,sans-Serif" font-size="10.00">_components</text>
</a>
</g>
</g>
<!-- Node2&#45;&gt;Node3 -->
<g id="edge2" class="edge"><title>Node2&#45;&gt;Node3</title>
<path fill="none" stroke="midnightblue" d="M318.82,-226.132C335.696,-224.907 353.129,-223.641 370.147,-222.406"/>
<polygon fill="midnightblue" stroke="midnightblue" points="318.113,-222.674 308.392,-226.889 318.62,-229.655 318.113,-222.674"/>
</g>
<!-- Node4&#45;&gt;Node3 -->
<g id="edge4" class="edge"><title>Node4&#45;&gt;Node3</title>
<path fill="none" stroke="midnightblue" d="M338.067,-202.265C348.698,-203.037 359.401,-203.814 369.947,-204.58"/>
<polygon fill="midnightblue" stroke="midnightblue" points="338.133,-198.761 327.906,-201.528 337.626,-205.743 338.133,-198.761"/>
</g>
<!-- Node7 -->
<g id="node7" class="node"><title>Node7</title>
<g id="a_node7"><a xlink:href="namespacecaiman_1_1utils_1_1visualization.html#ac95a3a5e8c3bee95392831c57548fc04" target="_top" xlink:title="Interactive equivalent of imshow for ipython notebook. ">
<polygon fill="white" stroke="black" points="654.816,-94.5 654.816,-122.5 794.766,-122.5 794.766,-94.5 654.816,-94.5"/>
<text text-anchor="start" x="662.816" y="-110.5" font-family="Helvetica,sans-Serif" font-size="10.00">caiman.utils.visualization.nb</text>
<text text-anchor="middle" x="724.791" y="-100.5" font-family="Helvetica,sans-Serif" font-size="10.00">_imshow</text>
</a>
</g>
</g>
<!-- Node6&#45;&gt;Node7 -->
<g id="edge7" class="edge"><title>Node6&#45;&gt;Node7</title>
<path fill="none" stroke="midnightblue" d="M574.093,-102.042C600.268,-101.595 629.162,-101.661 654.528,-102.242"/>
<polygon fill="midnightblue" stroke="midnightblue" points="573.757,-98.5481 563.829,-102.248 573.897,-105.547 573.757,-98.5481"/>
</g>
<!-- Node7&#45;&gt;Node6 -->
<g id="edge8" class="edge"><title>Node7&#45;&gt;Node6</title>
<path fill="none" stroke="midnightblue" d="M644.254,-114.962C618.062,-115.406 589.17,-115.336 563.829,-114.752"/>
<polygon fill="midnightblue" stroke="midnightblue" points="644.599,-118.456 654.528,-114.758 644.46,-111.458 644.599,-118.456"/>
</g>
<!-- Node8&#45;&gt;Node6 -->
<g id="edge14" class="edge"><title>Node8&#45;&gt;Node6</title>
<path fill="none" stroke="midnightblue" d="M285.079,-75.4647C328.759,-82.4108 381.99,-90.8757 423.633,-97.4978"/>
<polygon fill="midnightblue" stroke="midnightblue" points="285.481,-71.9848 275.056,-73.8708 284.382,-78.8979 285.481,-71.9848"/>
</g>
<!-- Node9 -->
<g id="node9" class="node"><title>Node9</title>
<g id="a_node9"><a xlink:href="namespacecaiman_1_1utils_1_1visualization.html#a6954f6ef72e703af3959f02b7b4bb6d8" target="_top" xlink:title="Interactive plotting utility for ipython notbook. ">
<polygon fill="white" stroke="black" points="423.844,-47.5 423.844,-75.5 563.794,-75.5 563.794,-47.5 423.844,-47.5"/>
<text text-anchor="start" x="431.844" y="-63.5" font-family="Helvetica,sans-Serif" font-size="10.00">caiman.utils.visualization.nb</text>
<text text-anchor="middle" x="493.819" y="-53.5" font-family="Helvetica,sans-Serif" font-size="10.00">_view_patches</text>
</a>
</g>
</g>
<!-- Node8&#45;&gt;Node9 -->
<g id="edge10" class="edge"><title>Node8&#45;&gt;Node9</title>
<path fill="none" stroke="midnightblue" d="M285.079,-62.2182C328.759,-62.0672 381.99,-61.8831 423.633,-61.7392"/>
<polygon fill="midnightblue" stroke="midnightblue" points="285.043,-58.7182 275.056,-62.2528 285.068,-65.7181 285.043,-58.7182"/>
</g>
<!-- Node10 -->
<g id="node10" class="node"><title>Node10</title>
<g id="a_node10"><a xlink:href="namespacecaiman_1_1utils_1_1visualization.html#a710f8ce5063f0475fb009dd74f84ab9a" target="_top" xlink:title="Interactive plotting utility for ipython notbook. ">
<polygon fill="white" stroke="black" points="423.844,-0.5 423.844,-28.5 563.794,-28.5 563.794,-0.5 423.844,-0.5"/>
<text text-anchor="start" x="431.844" y="-16.5" font-family="Helvetica,sans-Serif" font-size="10.00">caiman.utils.visualization.nb</text>
<text text-anchor="middle" x="493.819" y="-6.5" font-family="Helvetica,sans-Serif" font-size="10.00">_view_patches3d</text>
</a>
</g>
</g>
<!-- Node8&#45;&gt;Node10 -->
<g id="edge11" class="edge"><title>Node8&#45;&gt;Node10</title>
<path fill="none" stroke="midnightblue" d="M285.079,-48.9716C328.759,-41.7236 381.99,-32.8905 423.633,-25.9805"/>
<polygon fill="midnightblue" stroke="midnightblue" points="284.348,-45.545 275.056,-50.6348 285.494,-52.4506 284.348,-45.545"/>
</g>
<!-- Node11 -->
<g id="node11" class="node"><title>Node11</title>
<g id="a_node11"><a xlink:href="namespacecaiman_1_1utils_1_1visualization.html#a4414d9cf72aae1de86fcc5346deaeb3a" target="_top" xlink:title="Gets contour of spatial components and returns their coordinates. ">
<polygon fill="white" stroke="black" points="653.427,-0.5 653.427,-28.5 796.155,-28.5 796.155,-0.5 653.427,-0.5"/>
<text text-anchor="start" x="661.427" y="-16.5" font-family="Helvetica,sans-Serif" font-size="10.00">caiman.utils.visualization.get</text>
<text text-anchor="middle" x="724.791" y="-6.5" font-family="Helvetica,sans-Serif" font-size="10.00">_contours3d</text>
</a>
</g>
</g>
<!-- Node10&#45;&gt;Node11 -->
<g id="edge12" class="edge"><title>Node10&#45;&gt;Node11</title>
<path fill="none" stroke="midnightblue" d="M573.95,-8.04461C599.754,-7.60148 628.215,-7.65824 653.339,-8.2149"/>
<polygon fill="midnightblue" stroke="midnightblue" points="573.756,-4.54769 563.829,-8.2475 573.897,-11.5463 573.756,-4.54769"/>
</g>
<!-- Node11&#45;&gt;Node10 -->
<g id="edge13" class="edge"><title>Node11&#45;&gt;Node10</title>
<path fill="none" stroke="midnightblue" d="M643.171,-20.9803C617.268,-21.4043 588.822,-21.3283 563.829,-20.7525"/>
<polygon fill="midnightblue" stroke="midnightblue" points="643.408,-24.4766 653.339,-20.7851 643.273,-17.4778 643.408,-24.4766"/>
</g>
</g>
</svg>
        <g id="navigator" transform="translate(0 0)" fill="#404254">
                <rect fill="#f2f5e9" fill-opacity="0.5" stroke="#606060" stroke-width=".5" x="0" y="0" width="60" height="60"/>
                <use id="zoomplus" xlink:href="#zoomPlus" x="17" y="9" onmousedown="handleZoom(evt,'in')"/>
                <use id="zoomminus" xlink:href="#zoomMin" x="42" y="9" onmousedown="handleZoom(evt,'out')"/>
                <use id="reset" xlink:href="#resetDef" x="30" y="36" onmousedown="handleReset()"/>
                <g id="arrowUp" xlink:href="#dirArrow" transform="translate(30 24)" onmousedown="handlePan(0,-1)">
                  <use xlink:href="#rim" fill="#404040">
                        <set attributeName="fill" to="#808080" begin="arrowUp.mouseover" end="arrowUp.mouseout"/>
                  </use>
                  <path fill="none" stroke="white" stroke-width="1.5" d="M0,-3.0v7 M-2.5,-0.5L0,-3.0L2.5,-0.5"/>
                </g>
                <g id="arrowRight" xlink:href="#dirArrow" transform="rotate(90) translate(36 -43)" onmousedown="handlePan(1,0)">
                  <use xlink:href="#rim" fill="#404040">
                        <set attributeName="fill" to="#808080" begin="arrowRight.mouseover" end="arrowRight.mouseout"/>
                  </use>
                  <path fill="none" stroke="white" stroke-width="1.5" d="M0,-3.0v7 M-2.5,-0.5L0,-3.0L2.5,-0.5"/>
                </g>
                <g id="arrowDown" xlink:href="#dirArrow" transform="rotate(180) translate(-30 -48)" onmousedown="handlePan(0,1)">
                  <use xlink:href="#rim" fill="#404040">
                        <set attributeName="fill" to="#808080" begin="arrowDown.mouseover" end="arrowDown.mouseout"/>
                  </use>
                  <path fill="none" stroke="white" stroke-width="1.5" d="M0,-3.0v7 M-2.5,-0.5L0,-3.0L2.5,-0.5"/>
                </g>
                <g id="arrowLeft" xlink:href="#dirArrow" transform="rotate(270) translate(-36 17)" onmousedown="handlePan(-1,0)">
                  <use xlink:href="#rim" fill="#404040">
                        <set attributeName="fill" to="#808080" begin="arrowLeft.mouseover" end="arrowLeft.mouseout"/>
                  </use>
                  <path fill="none" stroke="white" stroke-width="1.5" d="M0,-3.0v7 M-2.5,-0.5L0,-3.0L2.5,-0.5"/>
                </g>
        </g>
        <svg viewBox="0 0 15 15" width="100%" height="30px" preserveAspectRatio="xMaxYMin meet">
         <g id="arrow_out" transform="scale(0.3 0.3)">
          <a xlink:href="namespacecaiman_1_1base_1_1rois_ae37bc9f1a4e815bd7d8e44a2334883a2_icgraph_org.svg" target="_base">
           <rect id="button" ry="5" rx="5" y="6" x="6" height="38" width="38"
                fill="#f2f5e9" fill-opacity="0.5" stroke="#606060" stroke-width="1.0"/>
           <path id="arrow"
             d="M 11.500037,31.436501 C 11.940474,20.09759 22.043105,11.32322 32.158766,21.979434 L 37.068811,17.246167 C 37.068811,17.246167 37.088388,32 37.088388,32 L 22.160133,31.978069 C 22.160133,31.978069 26.997745,27.140456 26.997745,27.140456 C 18.528582,18.264221 13.291696,25.230495 11.500037,31.436501 z"
             style="fill:#404040;"/>
          </a>
         </g>
        </svg>
</svg>
