<?xml version="1.0" encoding="UTF-8" standalone="no"?>
<!DOCTYPE svg PUBLIC "-//W3C//DTD SVG 1.1//EN"
 "http://www.w3.org/Graphics/SVG/1.1/DTD/svg11.dtd">
<!-- Generated by graphviz version 2.38.0 (20140413.2041)
 -->
<!-- Title: _compute_error Pages: 1 -->
<svg width="374pt" height="64pt"
 viewBox="0.00 0.00 373.52 64.00" xmlns="http://www.w3.org/2000/svg" xmlns:xlink="http://www.w3.org/1999/xlink">
<g id="graph0" class="graph" transform="scale(1 1) rotate(0) translate(4 60)">
<title>_compute_error</title>
<polygon fill="white" stroke="none" points="-4,4 -4,-60 369.522,-60 369.522,4 -4,4"/>
<!-- Node0 -->
<g id="node1" class="node"><title>Node0</title>
<polygon fill="#bfbfbf" stroke="black" points="0,-18.5 0,-36.5 86.5908,-36.5 86.5908,-18.5 0,-18.5"/>
<text text-anchor="middle" x="43.2954" y="-24.5" font-family="Helvetica,sans-Serif" font-size="10.00">_compute_error</text>
</g>
<!-- Node1 -->
<g id="node2" class="node"><title>Node1</title>
<g id="a_node2"><a xlink:href="namespacecaiman_1_1motion__correction.html#a0700d66a3a6b2556b1c712daf9c18a9b" target="_top" xlink:title="register_translation">
<polygon fill="white" stroke="black" points="122.591,-18.5 122.591,-36.5 223.635,-36.5 223.635,-18.5 122.591,-18.5"/>
<text text-anchor="middle" x="173.113" y="-24.5" font-family="Helvetica,sans-Serif" font-size="10.00">register_translation</text>
</a>
</g>
</g>
<!-- Node0&#45;&gt;Node1 -->
<g id="edge1" class="edge"><title>Node0&#45;&gt;Node1</title>
<path fill="none" stroke="midnightblue" d="M86.8567,-27.5C94.9109,-27.5 103.476,-27.5 111.953,-27.5"/>
<polygon fill="midnightblue" stroke="midnightblue" points="112.209,-31.0001 122.209,-27.5 112.209,-24.0001 112.209,-31.0001"/>
</g>
<!-- Node2 -->
<g id="node3" class="node"><title>Node2</title>
<g id="a_node3"><a xlink:href="namespacecaiman_1_1motion__correction.html#aa339d12f180017a763175f450816f158" target="_top" xlink:title="_upsampled_dft">
<polygon fill="white" stroke="black" points="268.998,-37.5 268.998,-55.5 356.16,-55.5 356.16,-37.5 268.998,-37.5"/>
<text text-anchor="middle" x="312.579" y="-43.5" font-family="Helvetica,sans-Serif" font-size="10.00">_upsampled_dft</text>
</a>
</g>
</g>
<!-- Node1&#45;&gt;Node2 -->
<g id="edge2" class="edge"><title>Node1&#45;&gt;Node2</title>
<path fill="none" stroke="midnightblue" d="M223.741,-34.3594C235.162,-35.9379 247.346,-37.6221 258.891,-39.2178"/>
<polygon fill="midnightblue" stroke="midnightblue" points="258.452,-42.6902 268.837,-40.5924 259.411,-35.7562 258.452,-42.6902"/>
</g>
<!-- Node3 -->
<g id="node4" class="node"><title>Node3</title>
<g id="a_node4"><a xlink:href="namespacecaiman_1_1motion__correction.html#a09859fe5f2beba321b5397662b26651b" target="_top" xlink:title="_compute_phasediff">
<polygon fill="white" stroke="black" points="259.635,-0.5 259.635,-18.5 365.522,-18.5 365.522,-0.5 259.635,-0.5"/>
<text text-anchor="middle" x="312.579" y="-6.5" font-family="Helvetica,sans-Serif" font-size="10.00">_compute_phasediff</text>
</a>
</g>
</g>
<!-- Node1&#45;&gt;Node3 -->
<g id="edge3" class="edge"><title>Node1&#45;&gt;Node3</title>
<path fill="none" stroke="midnightblue" d="M223.741,-21.0016C232.032,-19.9159 240.727,-18.7775 249.287,-17.6566"/>
<polygon fill="midnightblue" stroke="midnightblue" points="249.78,-21.122 259.241,-16.3532 248.871,-14.1812 249.78,-21.122"/>
</g>
</g>
</svg>
