<?xml version="1.0" encoding="UTF-8" standalone="no"?>
<!DOCTYPE svg PUBLIC "-//W3C//DTD SVG 1.1//EN"
 "http://www.w3.org/Graphics/SVG/1.1/DTD/svg11.dtd">
<!-- Generated by graphviz version 2.38.0 (20140413.2041)
 -->
<!-- Title: mean_psd Pages: 1 -->
<svg width="330pt" height="64pt"
 viewBox="0.00 0.00 330.01 64.00" xmlns="http://www.w3.org/2000/svg" xmlns:xlink="http://www.w3.org/1999/xlink">
<g id="graph0" class="graph" transform="scale(1 1) rotate(0) translate(4 60)">
<title>mean_psd</title>
<polygon fill="white" stroke="none" points="-4,4 -4,-60 326.007,-60 326.007,4 -4,4"/>
<!-- Node33 -->
<g id="node1" class="node"><title>Node33</title>
<polygon fill="#bfbfbf" stroke="black" points="0,-18.5 0,-36.5 62.6992,-36.5 62.6992,-18.5 0,-18.5"/>
<text text-anchor="middle" x="31.3496" y="-24.5" font-family="Helvetica,sans-Serif" font-size="10.00">mean_psd</text>
</g>
<!-- Node34 -->
<g id="node2" class="node"><title>Node34</title>
<g id="a_node2"><a xlink:href="namespacecaiman_1_1source__extraction_1_1cnmf_1_1pre__processing.html#a4ac9105671d13333d3a5ac455d1cc0d5" target="_top" xlink:title="Estimate the noise level for each pixel by averaging the power spectral density. ">
<polygon fill="white" stroke="black" points="98.6992,-18.5 98.6992,-36.5 171.789,-36.5 171.789,-18.5 98.6992,-18.5"/>
<text text-anchor="middle" x="135.244" y="-24.5" font-family="Helvetica,sans-Serif" font-size="10.00">get_noise_fft</text>
</a>
</g>
</g>
<!-- Node33&#45;&gt;Node34 -->
<g id="edge1" class="edge"><title>Node33&#45;&gt;Node34</title>
<path fill="none" stroke="midnightblue" d="M73.0128,-27.5C81.5026,-27.5 90.3899,-27.5 98.6779,-27.5"/>
<polygon fill="midnightblue" stroke="midnightblue" points="72.9214,-24.0001 62.9213,-27.5 72.9213,-31.0001 72.9214,-24.0001"/>
</g>
<!-- Node35 -->
<g id="node3" class="node"><title>Node35</title>
<g id="a_node3"><a xlink:href="namespacecaiman_1_1source__extraction_1_1cnmf_1_1pre__processing.html#a60e1d4914937573be521e9c8d2a7cd31" target="_top" xlink:title="helper function to parallelize get_noise_fft ">
<polygon fill="white" stroke="black" points="223.075,-37.5 223.075,-55.5 306.721,-55.5 306.721,-37.5 223.075,-37.5"/>
<text text-anchor="middle" x="264.898" y="-43.5" font-family="Helvetica,sans-Serif" font-size="10.00">fft_psd_parallel</text>
</a>
</g>
</g>
<!-- Node34&#45;&gt;Node35 -->
<g id="edge2" class="edge"><title>Node34&#45;&gt;Node35</title>
<path fill="none" stroke="midnightblue" d="M181.738,-34.2713C195.084,-36.2578 209.599,-38.4182 222.664,-40.3628"/>
<polygon fill="midnightblue" stroke="midnightblue" points="182.209,-30.803 171.803,-32.7926 181.179,-37.7267 182.209,-30.803"/>
</g>
<!-- Node36 -->
<g id="node4" class="node"><title>Node36</title>
<g id="a_node4"><a xlink:href="namespacecaiman_1_1source__extraction_1_1cnmf_1_1pre__processing.html#a2442af4ba144dd56a99ff21e770306ce" target="_top" xlink:title="helper function to parallelize get_noise_fft ">
<polygon fill="white" stroke="black" points="207.789,-0.5 207.789,-18.5 322.007,-18.5 322.007,-0.5 207.789,-0.5"/>
<text text-anchor="middle" x="264.898" y="-6.5" font-family="Helvetica,sans-Serif" font-size="10.00">fft_psd_multithreading</text>
</a>
</g>
</g>
<!-- Node34&#45;&gt;Node36 -->
<g id="edge3" class="edge"><title>Node34&#45;&gt;Node36</title>
<path fill="none" stroke="midnightblue" d="M181.712,-21.0887C190.057,-19.912 198.86,-18.6707 207.48,-17.4552"/>
<polygon fill="midnightblue" stroke="midnightblue" points="181.216,-17.6239 171.803,-22.486 182.194,-24.5554 181.216,-17.6239"/>
</g>
</g>
</svg>
