<?xml version="1.0" encoding="UTF-8" standalone="no"?>
<!DOCTYPE svg PUBLIC "-//W3C//DTD SVG 1.1//EN"
 "http://www.w3.org/Graphics/SVG/1.1/DTD/svg11.dtd">
<!-- Generated by graphviz version 2.38.0 (20140413.2041)
 -->
<!-- Title: constrained_foopsi Pages: 1 -->
<svg width="739pt" height="116pt"
 viewBox="0.00 0.00 738.70 116.41" xmlns="http://www.w3.org/2000/svg" xmlns:xlink="http://www.w3.org/1999/xlink">
<g id="graph0" class="graph" transform="scale(1 1) rotate(0) translate(4 112.408)">
<title>constrained_foopsi</title>
<polygon fill="white" stroke="none" points="-4,4 -4,-112.408 734.702,-112.408 734.702,4 -4,4"/>
<!-- Node21 -->
<g id="node1" class="node"><title>Node21</title>
<polygon fill="#bfbfbf" stroke="black" points="0,-55.5 0,-73.5 99.9453,-73.5 99.9453,-55.5 0,-55.5"/>
<text text-anchor="middle" x="49.9727" y="-61.5" font-family="Helvetica,sans-Serif" font-size="10.00">constrained_foopsi</text>
</g>
<!-- Node22 -->
<g id="node2" class="node"><title>Node22</title>
<g id="a_node2"><a xlink:href="namespacecaiman_1_1source__extraction_1_1cnmf_1_1deconvolution.html#a7199190b4f33e4a70dedc9deea7e4c45" target="_top" xlink:title="estimate_parameters">
<polygon fill="white" stroke="black" points="288.004,-76.5 288.004,-94.5 397.935,-94.5 397.935,-76.5 288.004,-76.5"/>
<text text-anchor="middle" x="342.969" y="-82.5" font-family="Helvetica,sans-Serif" font-size="10.00">estimate_parameters</text>
</a>
</g>
</g>
<!-- Node21&#45;&gt;Node22 -->
<g id="edge1" class="edge"><title>Node21&#45;&gt;Node22</title>
<path fill="none" stroke="midnightblue" d="M65.9653,-73.5525C82.4432,-82.929 110.026,-96.9685 135.945,-102.5 190.582,-114.16 254.95,-105.355 297.012,-96.6608"/>
<polygon fill="midnightblue" stroke="midnightblue" points="297.904,-100.049 306.944,-94.5241 296.432,-93.2057 297.904,-100.049"/>
</g>
<!-- Node27 -->
<g id="node7" class="node"><title>Node27</title>
<g id="a_node7"><a xlink:href="namespacecaiman_1_1source__extraction_1_1cnmf_1_1deconvolution.html#a04aa84702e9977187b4ac0ba95891fb6" target="_top" xlink:title="Solve the deconvolution problem using cvxopt and picos packages. ">
<polygon fill="white" stroke="black" points="155.401,-74.5 155.401,-92.5 232.548,-92.5 232.548,-74.5 155.401,-74.5"/>
<text text-anchor="middle" x="193.975" y="-80.5" font-family="Helvetica,sans-Serif" font-size="10.00">cvxopt_foopsi</text>
</a>
</g>
</g>
<!-- Node21&#45;&gt;Node27 -->
<g id="edge7" class="edge"><title>Node21&#45;&gt;Node27</title>
<path fill="none" stroke="midnightblue" d="M100.24,-71.092C114.678,-73.0239 130.444,-75.1334 144.814,-77.056"/>
<polygon fill="midnightblue" stroke="midnightblue" points="144.615,-80.5605 154.991,-78.4177 145.543,-73.6224 144.615,-80.5605"/>
</g>
<!-- Node28 -->
<g id="node8" class="node"><title>Node28</title>
<g id="a_node8"><a xlink:href="namespacecaiman_1_1source__extraction_1_1cnmf_1_1deconvolution.html#a0dd508a8cc717626fa4c45d0a5c08bfd" target="_top" xlink:title="Solves the deconvolution problem using the cvxpy package and the ECOS/SCS library. ">
<polygon fill="white" stroke="black" points="157.071,-37.5 157.071,-55.5 230.878,-55.5 230.878,-37.5 157.071,-37.5"/>
<text text-anchor="middle" x="193.975" y="-43.5" font-family="Helvetica,sans-Serif" font-size="10.00">cvxpy_foopsi</text>
</a>
</g>
</g>
<!-- Node21&#45;&gt;Node28 -->
<g id="edge8" class="edge"><title>Node21&#45;&gt;Node28</title>
<path fill="none" stroke="midnightblue" d="M100.24,-58.255C115.339,-56.341 131.89,-54.243 146.778,-52.3559"/>
<polygon fill="midnightblue" stroke="midnightblue" points="147.299,-55.8178 156.78,-51.088 146.419,-48.8734 147.299,-55.8178"/>
</g>
<!-- Node29 -->
<g id="node9" class="node"><title>Node29</title>
<g id="a_node9"><a xlink:href="namespacecaiman_1_1source__extraction_1_1cnmf_1_1deconvolution.html#a5753e123f06d6f8a5f53e8f1cc50baba" target="_top" xlink:title="Infer the most likely discretized spike train underlying an AR(2) fluorescence trace. ">
<polygon fill="white" stroke="black" points="135.945,-0.5 135.945,-18.5 252.004,-18.5 252.004,-0.5 135.945,-0.5"/>
<text text-anchor="middle" x="193.975" y="-6.5" font-family="Helvetica,sans-Serif" font-size="10.00">constrained_oasisAR2</text>
</a>
</g>
</g>
<!-- Node21&#45;&gt;Node29 -->
<g id="edge9" class="edge"><title>Node21&#45;&gt;Node29</title>
<path fill="none" stroke="midnightblue" d="M70.3093,-55.3875C87.3792,-47.5106 113.041,-36.0744 135.945,-27.5 141.232,-25.5208 146.846,-23.5702 152.41,-21.7255"/>
<polygon fill="midnightblue" stroke="midnightblue" points="153.847,-24.9394 162.288,-18.536 151.696,-18.2781 153.847,-24.9394"/>
</g>
<!-- Node23 -->
<g id="node3" class="node"><title>Node23</title>
<g id="a_node3"><a xlink:href="namespacecaiman_1_1source__extraction_1_1cnmf_1_1deconvolution.html#a16b9a254776edd0d9093ee35b1ef17a2" target="_top" xlink:title="GetSn">
<polygon fill="white" stroke="black" points="591.545,-75.5 591.545,-93.5 635.895,-93.5 635.895,-75.5 591.545,-75.5"/>
<text text-anchor="middle" x="613.72" y="-81.5" font-family="Helvetica,sans-Serif" font-size="10.00">GetSn</text>
</a>
</g>
</g>
<!-- Node22&#45;&gt;Node23 -->
<g id="edge2" class="edge"><title>Node22&#45;&gt;Node23</title>
<path fill="none" stroke="midnightblue" d="M398.032,-85.2988C453.09,-85.094 536.563,-84.7834 581.482,-84.6162"/>
<polygon fill="midnightblue" stroke="midnightblue" points="581.52,-88.1162 591.507,-84.5789 581.494,-81.1163 581.52,-88.1162"/>
</g>
<!-- Node24 -->
<g id="node4" class="node"><title>Node24</title>
<g id="a_node4"><a xlink:href="namespacecaiman_1_1source__extraction_1_1cnmf_1_1deconvolution.html#a7a73db2b3e0e88f4a5f30f80944c1319" target="_top" xlink:title="estimate_time_constant">
<polygon fill="white" stroke="black" points="433.935,-38.5 433.935,-56.5 555.545,-56.5 555.545,-38.5 433.935,-38.5"/>
<text text-anchor="middle" x="494.74" y="-44.5" font-family="Helvetica,sans-Serif" font-size="10.00">estimate_time_constant</text>
</a>
</g>
</g>
<!-- Node22&#45;&gt;Node24 -->
<g id="edge3" class="edge"><title>Node22&#45;&gt;Node24</title>
<path fill="none" stroke="midnightblue" d="M379.463,-76.4945C400.092,-71.2606 426.296,-64.6121 448.406,-59.0022"/>
<polygon fill="midnightblue" stroke="midnightblue" points="449.41,-62.3585 458.242,-56.5066 447.688,-55.5735 449.41,-62.3585"/>
</g>
<!-- Node24&#45;&gt;Node23 -->
<g id="edge4" class="edge"><title>Node24&#45;&gt;Node23</title>
<path fill="none" stroke="midnightblue" d="M524.356,-56.5512C541.658,-62.0238 563.728,-69.0042 581.483,-74.6199"/>
<polygon fill="midnightblue" stroke="midnightblue" points="580.779,-78.0682 591.369,-77.7469 582.89,-71.3941 580.779,-78.0682"/>
</g>
<!-- Node25 -->
<g id="node5" class="node"><title>Node25</title>
<g id="a_node5"><a xlink:href="namespacecaiman_1_1source__extraction_1_1cnmf_1_1deconvolution.html#a458da977dee6e97910a1b006e899b309" target="_top" xlink:title="axcov">
<polygon fill="white" stroke="black" points="592.658,-38.5 592.658,-56.5 634.781,-56.5 634.781,-38.5 592.658,-38.5"/>
<text text-anchor="middle" x="613.72" y="-44.5" font-family="Helvetica,sans-Serif" font-size="10.00">axcov</text>
</a>
</g>
</g>
<!-- Node24&#45;&gt;Node25 -->
<g id="edge5" class="edge"><title>Node24&#45;&gt;Node25</title>
<path fill="none" stroke="midnightblue" d="M555.6,-47.5C564.903,-47.5 574.159,-47.5 582.427,-47.5"/>
<polygon fill="midnightblue" stroke="midnightblue" points="582.648,-51.0001 592.648,-47.5 582.648,-44.0001 582.648,-51.0001"/>
</g>
<!-- Node26 -->
<g id="node6" class="node"><title>Node26</title>
<g id="a_node6"><a xlink:href="namespacecaiman_1_1source__extraction_1_1cnmf_1_1deconvolution.html#a8d83696f273bd0121651cf48a6b899ae" target="_top" xlink:title="nextpow2">
<polygon fill="white" stroke="black" points="671.895,-38.5 671.895,-56.5 730.702,-56.5 730.702,-38.5 671.895,-38.5"/>
<text text-anchor="middle" x="701.298" y="-44.5" font-family="Helvetica,sans-Serif" font-size="10.00">nextpow2</text>
</a>
</g>
</g>
<!-- Node25&#45;&gt;Node26 -->
<g id="edge6" class="edge"><title>Node25&#45;&gt;Node26</title>
<path fill="none" stroke="midnightblue" d="M635.001,-47.5C642.973,-47.5 652.403,-47.5 661.581,-47.5"/>
<polygon fill="midnightblue" stroke="midnightblue" points="661.744,-51.0001 671.744,-47.5 661.744,-44.0001 661.744,-51.0001"/>
</g>
<!-- Node29&#45;&gt;Node22 -->
<g id="edge14" class="edge"><title>Node29&#45;&gt;Node22</title>
<path fill="none" stroke="midnightblue" d="M232.222,-18.5775C239.04,-20.9764 245.917,-23.9231 252.004,-27.5 270.978,-38.6501 269.688,-49.2987 288.004,-61.5 293.967,-65.4722 300.695,-69.064 307.327,-72.1872"/>
<polygon fill="midnightblue" stroke="midnightblue" points="306.312,-75.5659 316.873,-76.4173 309.148,-69.1661 306.312,-75.5659"/>
</g>
<!-- Node29&#45;&gt;Node24 -->
<g id="edge10" class="edge"><title>Node29&#45;&gt;Node24</title>
<path fill="none" stroke="midnightblue" d="M237.439,-18.5901C253.256,-21.7451 271.398,-25.0918 288.004,-27.5 332.926,-34.0147 383.684,-38.9743 423.543,-42.325"/>
<polygon fill="midnightblue" stroke="midnightblue" points="423.439,-45.8282 433.693,-43.1634 424.015,-38.852 423.439,-45.8282"/>
</g>
<!-- Node30 -->
<g id="node10" class="node"><title>Node30</title>
<g id="a_node10"><a xlink:href="namespacecaiman_1_1source__extraction_1_1cnmf_1_1deconvolution.html#affae481e26d5e13bc6f62c6e643b63d5" target="_top" xlink:title="Infer the most likely discretized spike train underlying an AR(2) fluorescence trace. ">
<polygon fill="white" stroke="black" points="323.016,-0.5 323.016,-18.5 362.922,-18.5 362.922,-0.5 323.016,-0.5"/>
<text text-anchor="middle" x="342.969" y="-6.5" font-family="Helvetica,sans-Serif" font-size="10.00">onnls</text>
</a>
</g>
</g>
<!-- Node29&#45;&gt;Node30 -->
<g id="edge11" class="edge"><title>Node29&#45;&gt;Node30</title>
<path fill="none" stroke="midnightblue" d="M252.227,-2.89873C272.922,-2.51409 295.426,-2.87551 312.721,-3.98299"/>
<polygon fill="midnightblue" stroke="midnightblue" points="312.512,-7.47721 322.755,-4.76896 313.059,-0.498585 312.512,-7.47721"/>
</g>
<!-- Node30&#45;&gt;Node29 -->
<g id="edge13" class="edge"><title>Node30&#45;&gt;Node29</title>
<path fill="none" stroke="midnightblue" d="M322.755,-14.231C307.223,-15.715 284.384,-16.381 262.295,-16.2288"/>
<polygon fill="midnightblue" stroke="midnightblue" points="262.271,-12.7283 252.227,-16.1013 262.182,-19.7277 262.271,-12.7283"/>
</g>
<!-- Node31 -->
<g id="node11" class="node"><title>Node31</title>
<g id="a_node11"><a xlink:href="namespacecaiman_1_1source__extraction_1_1cnmf_1_1deconvolution.html#ad9f9b2ef0aad5c652f86bd8c7ae64bdd" target="_top" xlink:title="_nnls">
<polygon fill="white" stroke="black" points="474.787,-0.5 474.787,-18.5 514.693,-18.5 514.693,-0.5 474.787,-0.5"/>
<text text-anchor="middle" x="494.74" y="-6.5" font-family="Helvetica,sans-Serif" font-size="10.00">_nnls</text>
</a>
</g>
</g>
<!-- Node30&#45;&gt;Node31 -->
<g id="edge12" class="edge"><title>Node30&#45;&gt;Node31</title>
<path fill="none" stroke="midnightblue" d="M362.938,-9.5C388.456,-9.5 434.099,-9.5 464.152,-9.5"/>
<polygon fill="midnightblue" stroke="midnightblue" points="464.452,-13.0001 474.452,-9.5 464.452,-6.0001 464.452,-13.0001"/>
</g>
</g>
</svg>
