<?xml version="1.0" encoding="UTF-8" standalone="no"?>
<!DOCTYPE svg PUBLIC "-//W3C//DTD SVG 1.1//EN"
 "http://www.w3.org/Graphics/SVG/1.1/DTD/svg11.dtd">
<!-- Generated by graphviz version 2.38.0 (20140413.2041)
 -->
<!-- Title: nb_imshow Pages: 1 -->
<svg width="460pt" height="46pt"
 viewBox="0.00 0.00 459.60 46.00" xmlns="http://www.w3.org/2000/svg" xmlns:xlink="http://www.w3.org/1999/xlink">
<g id="graph0" class="graph" transform="scale(1 1) rotate(0) translate(4 42)">
<title>nb_imshow</title>
<polygon fill="white" stroke="none" points="-4,4 -4,-42 455.604,-42 455.604,4 -4,4"/>
<!-- Node15 -->
<g id="node1" class="node"><title>Node15</title>
<polygon fill="#bfbfbf" stroke="black" points="0,-19.5 0,-37.5 66.5811,-37.5 66.5811,-19.5 0,-19.5"/>
<text text-anchor="middle" x="33.2905" y="-25.5" font-family="Helvetica,sans-Serif" font-size="10.00">nb_imshow</text>
</g>
<!-- Node16 -->
<g id="node2" class="node"><title>Node16</title>
<g id="a_node2"><a xlink:href="namespacecaiman_1_1utils_1_1visualization.html#aa6b9002875d7d86524868e7d795a4f3f" target="_top" xlink:title="Interactive Equivalent of plot_contours for ipython notebook. ">
<polygon fill="white" stroke="black" points="102.581,-19.5 102.581,-37.5 190.305,-37.5 190.305,-19.5 102.581,-19.5"/>
<text text-anchor="middle" x="146.443" y="-25.5" font-family="Helvetica,sans-Serif" font-size="10.00">nb_plot_contour</text>
</a>
</g>
</g>
<!-- Node15&#45;&gt;Node16 -->
<g id="edge1" class="edge"><title>Node15&#45;&gt;Node16</title>
<path fill="none" stroke="midnightblue" d="M66.7392,-22.2989C74.753,-21.8961 83.5476,-21.715 92.2636,-21.7556"/>
<polygon fill="midnightblue" stroke="midnightblue" points="92.357,-25.2572 102.408,-21.9051 92.4603,-18.258 92.357,-25.2572"/>
</g>
<!-- Node16&#45;&gt;Node15 -->
<g id="edge2" class="edge"><title>Node16&#45;&gt;Node15</title>
<path fill="none" stroke="midnightblue" d="M102.408,-35.0949C94.0702,-35.3044 85.3356,-35.3017 77.0084,-35.0868"/>
<polygon fill="midnightblue" stroke="midnightblue" points="76.8635,-31.579 66.7392,-34.7011 76.6008,-38.574 76.8635,-31.579"/>
</g>
<!-- Node17 -->
<g id="node3" class="node"><title>Node17</title>
<g id="a_node3"><a xlink:href="namespacecaiman_1_1base_1_1rois.html#ae37bc9f1a4e815bd7d8e44a2334883a2" target="_top" xlink:title="Calculation of the center of mass for spatial components. ">
<polygon fill="white" stroke="black" points="338.344,-19.5 338.344,-37.5 451.604,-37.5 451.604,-19.5 338.344,-19.5"/>
<text text-anchor="middle" x="394.974" y="-25.5" font-family="Helvetica,sans-Serif" font-size="10.00">caiman.base.rois.com</text>
</a>
</g>
</g>
<!-- Node16&#45;&gt;Node17 -->
<g id="edge3" class="edge"><title>Node16&#45;&gt;Node17</title>
<path fill="none" stroke="midnightblue" d="M190.385,-28.5C228.317,-28.5 284.222,-28.5 327.857,-28.5"/>
<polygon fill="midnightblue" stroke="midnightblue" points="328.1,-32.0001 338.1,-28.5 328.1,-25.0001 328.1,-32.0001"/>
</g>
<!-- Node18 -->
<g id="node4" class="node"><title>Node18</title>
<g id="a_node4"><a xlink:href="namespacecaiman_1_1utils_1_1visualization.html#ad48f24a70009a82e7a8cafa02e283a0e" target="_top" xlink:title="Plots contour of spatial components against a background image and returns their coordinates. ">
<polygon fill="white" stroke="black" points="226.305,-0.5 226.305,-18.5 302.344,-18.5 302.344,-0.5 226.305,-0.5"/>
<text text-anchor="middle" x="264.324" y="-6.5" font-family="Helvetica,sans-Serif" font-size="10.00">plot_contours</text>
</a>
</g>
</g>
<!-- Node16&#45;&gt;Node18 -->
<g id="edge4" class="edge"><title>Node16&#45;&gt;Node18</title>
<path fill="none" stroke="midnightblue" d="M190.593,-21.4251C198.919,-20.0599 207.682,-18.6232 216.129,-17.2382"/>
<polygon fill="midnightblue" stroke="midnightblue" points="216.923,-20.6547 226.225,-15.5828 215.791,-13.747 216.923,-20.6547"/>
</g>
<!-- Node18&#45;&gt;Node17 -->
<g id="edge5" class="edge"><title>Node18&#45;&gt;Node17</title>
<path fill="none" stroke="midnightblue" d="M302.535,-14.9956C310.623,-16.19 319.41,-17.4879 328.234,-18.7909"/>
<polygon fill="midnightblue" stroke="midnightblue" points="327.771,-22.2605 338.175,-20.2591 328.794,-15.3356 327.771,-22.2605"/>
</g>
</g>
</svg>
