<?xml version="1.0" encoding="UTF-8" standalone="no"?>
<!DOCTYPE svg PUBLIC "-//W3C//DTD SVG 1.1//EN"
 "http://www.w3.org/Graphics/SVG/1.1/DTD/svg11.dtd">
<!-- Generated by graphviz version 2.38.0 (20140413.2041)
 -->
<!-- Title: constrained_foopsi_parallel Pages: 1 -->
<svg width="1902pt" height="152pt"
 viewBox="0.00 0.00 1901.84 151.80" xmlns="http://www.w3.org/2000/svg" xmlns:xlink="http://www.w3.org/1999/xlink">
<g id="graph0" class="graph" transform="scale(1 1) rotate(0) translate(4 147.8)">
<title>constrained_foopsi_parallel</title>
<polygon fill="white" stroke="none" points="-4,4 -4,-147.8 1897.84,-147.8 1897.84,4 -4,4"/>
<!-- Node0 -->
<g id="node1" class="node"><title>Node0</title>
<polygon fill="#bfbfbf" stroke="black" points="0,-70.5 0,-98.5 99.9453,-98.5 99.9453,-70.5 0,-70.5"/>
<text text-anchor="start" x="8" y="-86.5" font-family="Helvetica,sans-Serif" font-size="10.00">constrained_foopsi</text>
<text text-anchor="middle" x="49.9727" y="-76.5" font-family="Helvetica,sans-Serif" font-size="10.00">_parallel</text>
</g>
<!-- Node1 -->
<g id="node2" class="node"><title>Node1</title>
<g id="a_node2"><a xlink:href="namespacecaiman_1_1source__extraction_1_1cnmf_1_1deconvolution.html#a0afb63d84485a181bb40f2eefe7b581e" target="_top" xlink:title="Infer the most likely discretized spike train underlying a fluorescence trace. ">
<polygon fill="white" stroke="black" points="135.945,-70.5 135.945,-98.5 409.309,-98.5 409.309,-70.5 135.945,-70.5"/>
<text text-anchor="start" x="143.945" y="-86.5" font-family="Helvetica,sans-Serif" font-size="10.00">caiman.source_extraction.cnmf.deconvolution.constrained</text>
<text text-anchor="middle" x="272.627" y="-76.5" font-family="Helvetica,sans-Serif" font-size="10.00">_foopsi</text>
</a>
</g>
</g>
<!-- Node0&#45;&gt;Node1 -->
<g id="edge1" class="edge"><title>Node0&#45;&gt;Node1</title>
<path fill="none" stroke="midnightblue" d="M100.217,-84.5C108.154,-84.5 116.706,-84.5 125.605,-84.5"/>
<polygon fill="midnightblue" stroke="midnightblue" points="125.787,-88.0001 135.787,-84.5 125.787,-81.0001 125.787,-88.0001"/>
</g>
<!-- Node2 -->
<g id="node3" class="node"><title>Node2</title>
<g id="a_node3"><a xlink:href="namespacecaiman_1_1source__extraction_1_1cnmf_1_1deconvolution.html#a7199190b4f33e4a70dedc9deea7e4c45" target="_top" xlink:title="caiman.source_extraction.cnmf.deconvolution.estimate\l_parameters">
<polygon fill="white" stroke="black" points="754.672,-82.5 754.672,-110.5 1014.13,-110.5 1014.13,-82.5 754.672,-82.5"/>
<text text-anchor="start" x="762.672" y="-98.5" font-family="Helvetica,sans-Serif" font-size="10.00">caiman.source_extraction.cnmf.deconvolution.estimate</text>
<text text-anchor="middle" x="884.4" y="-88.5" font-family="Helvetica,sans-Serif" font-size="10.00">_parameters</text>
</a>
</g>
</g>
<!-- Node1&#45;&gt;Node2 -->
<g id="edge2" class="edge"><title>Node1&#45;&gt;Node2</title>
<path fill="none" stroke="midnightblue" d="M312.194,-98.5485C346.576,-110.281 398.549,-126.086 445.309,-132.5 565.676,-149.01 597.879,-145.545 718.672,-132.5 753.601,-128.728 791.983,-120.581 822.904,-112.99"/>
<polygon fill="midnightblue" stroke="midnightblue" points="823.814,-116.37 832.668,-110.551 822.117,-109.579 823.814,-116.37"/>
</g>
<!-- Node7 -->
<g id="node8" class="node"><title>Node7</title>
<g id="a_node8"><a xlink:href="namespacecaiman_1_1source__extraction_1_1cnmf_1_1deconvolution.html#a04aa84702e9977187b4ac0ba95891fb6" target="_top" xlink:title="Solve the deconvolution problem using cvxopt and picos packages. ">
<polygon fill="white" stroke="black" points="456.708,-94.5 456.708,-122.5 707.273,-122.5 707.273,-94.5 456.708,-94.5"/>
<text text-anchor="start" x="464.708" y="-110.5" font-family="Helvetica,sans-Serif" font-size="10.00">caiman.source_extraction.cnmf.deconvolution.cvxopt</text>
<text text-anchor="middle" x="581.99" y="-100.5" font-family="Helvetica,sans-Serif" font-size="10.00">_foopsi</text>
</a>
</g>
</g>
<!-- Node1&#45;&gt;Node7 -->
<g id="edge8" class="edge"><title>Node1&#45;&gt;Node7</title>
<path fill="none" stroke="midnightblue" d="M409.336,-95.0966C421.523,-96.0482 433.862,-97.0117 446.043,-97.9628"/>
<polygon fill="midnightblue" stroke="midnightblue" points="445.988,-101.469 456.23,-98.7583 446.533,-94.4904 445.988,-101.469"/>
</g>
<!-- Node8 -->
<g id="node9" class="node"><title>Node8</title>
<g id="a_node9"><a xlink:href="namespacecaiman_1_1source__extraction_1_1cnmf_1_1deconvolution.html#a0dd508a8cc717626fa4c45d0a5c08bfd" target="_top" xlink:title="Solves the deconvolution problem using the cvxpy package and the ECOS/SCS library. ">
<polygon fill="white" stroke="black" points="458.377,-47.5 458.377,-75.5 705.603,-75.5 705.603,-47.5 458.377,-47.5"/>
<text text-anchor="start" x="466.377" y="-63.5" font-family="Helvetica,sans-Serif" font-size="10.00">caiman.source_extraction.cnmf.deconvolution.cvxpy</text>
<text text-anchor="middle" x="581.99" y="-53.5" font-family="Helvetica,sans-Serif" font-size="10.00">_foopsi</text>
</a>
</g>
</g>
<!-- Node1&#45;&gt;Node8 -->
<g id="edge9" class="edge"><title>Node1&#45;&gt;Node8</title>
<path fill="none" stroke="midnightblue" d="M409.336,-74.3449C422.152,-73.3859 435.137,-72.4142 447.929,-71.457"/>
<polygon fill="midnightblue" stroke="midnightblue" points="448.428,-74.9295 458.139,-70.693 447.905,-67.949 448.428,-74.9295"/>
</g>
<!-- Node9 -->
<g id="node10" class="node"><title>Node9</title>
<g id="a_node10"><a xlink:href="namespacecaiman_1_1source__extraction_1_1cnmf_1_1deconvolution.html#a5753e123f06d6f8a5f53e8f1cc50baba" target="_top" xlink:title="Infer the most likely discretized spike train underlying an AR(2) fluorescence trace. ">
<polygon fill="white" stroke="black" points="445.309,-0.5 445.309,-28.5 718.672,-28.5 718.672,-0.5 445.309,-0.5"/>
<text text-anchor="start" x="453.309" y="-16.5" font-family="Helvetica,sans-Serif" font-size="10.00">caiman.source_extraction.cnmf.deconvolution.constrained</text>
<text text-anchor="middle" x="581.99" y="-6.5" font-family="Helvetica,sans-Serif" font-size="10.00">_oasisAR2</text>
</a>
</g>
</g>
<!-- Node1&#45;&gt;Node9 -->
<g id="edge10" class="edge"><title>Node1&#45;&gt;Node9</title>
<path fill="none" stroke="midnightblue" d="M319.95,-70.4751C354.325,-60.3969 402.461,-46.972 445.309,-37.5 456.7,-34.9819 468.681,-32.5876 480.614,-30.3615"/>
<polygon fill="midnightblue" stroke="midnightblue" points="481.405,-33.7749 490.612,-28.5321 480.145,-26.8892 481.405,-33.7749"/>
</g>
<!-- Node3 -->
<g id="node4" class="node"><title>Node3</title>
<g id="a_node4"><a xlink:href="namespacecaiman_1_1source__extraction_1_1cnmf_1_1deconvolution.html#a16b9a254776edd0d9093ee35b1ef17a2" target="_top" xlink:title="caiman.source_extraction.cnmf.deconvolution.\lGetSn">
<polygon fill="white" stroke="black" points="1358.65,-82.5 1358.65,-110.5 1580.31,-110.5 1580.31,-82.5 1358.65,-82.5"/>
<text text-anchor="start" x="1366.65" y="-98.5" font-family="Helvetica,sans-Serif" font-size="10.00">caiman.source_extraction.cnmf.deconvolution.</text>
<text text-anchor="middle" x="1469.48" y="-88.5" font-family="Helvetica,sans-Serif" font-size="10.00">GetSn</text>
</a>
</g>
</g>
<!-- Node2&#45;&gt;Node3 -->
<g id="edge3" class="edge"><title>Node2&#45;&gt;Node3</title>
<path fill="none" stroke="midnightblue" d="M1014.44,-96.5C1114.07,-96.5 1250.88,-96.5 1348.22,-96.5"/>
<polygon fill="midnightblue" stroke="midnightblue" points="1348.41,-100 1358.41,-96.5 1348.41,-93.0001 1348.41,-100"/>
</g>
<!-- Node4 -->
<g id="node5" class="node"><title>Node4</title>
<g id="a_node5"><a xlink:href="namespacecaiman_1_1source__extraction_1_1cnmf_1_1deconvolution.html#a7a73db2b3e0e88f4a5f30f80944c1319" target="_top" xlink:title="caiman.source_extraction.cnmf.deconvolution.estimate\l_time_constant">
<polygon fill="white" stroke="black" points="1050.13,-40.5 1050.13,-68.5 1309.59,-68.5 1309.59,-40.5 1050.13,-40.5"/>
<text text-anchor="start" x="1058.13" y="-56.5" font-family="Helvetica,sans-Serif" font-size="10.00">caiman.source_extraction.cnmf.deconvolution.estimate</text>
<text text-anchor="middle" x="1179.86" y="-46.5" font-family="Helvetica,sans-Serif" font-size="10.00">_time_constant</text>
</a>
</g>
</g>
<!-- Node2&#45;&gt;Node4 -->
<g id="edge4" class="edge"><title>Node2&#45;&gt;Node4</title>
<path fill="none" stroke="midnightblue" d="M983.525,-82.4562C1011.55,-78.4458 1042.23,-74.0538 1070.81,-69.9636"/>
<polygon fill="midnightblue" stroke="midnightblue" points="1071.42,-73.4121 1080.82,-68.5306 1070.43,-66.4827 1071.42,-73.4121"/>
</g>
<!-- Node4&#45;&gt;Node3 -->
<g id="edge5" class="edge"><title>Node4&#45;&gt;Node3</title>
<path fill="none" stroke="midnightblue" d="M1277.03,-68.5438C1304.38,-72.5367 1334.31,-76.9078 1362.22,-80.9828"/>
<polygon fill="midnightblue" stroke="midnightblue" points="1362,-84.4877 1372.4,-82.4694 1363.01,-77.5612 1362,-84.4877"/>
</g>
<!-- Node5 -->
<g id="node6" class="node"><title>Node5</title>
<g id="a_node6"><a xlink:href="namespacecaiman_1_1source__extraction_1_1cnmf_1_1deconvolution.html#a458da977dee6e97910a1b006e899b309" target="_top" xlink:title="caiman.source_extraction.cnmf.deconvolution.axcov">
<polygon fill="white" stroke="black" points="1345.59,-45.5 1345.59,-63.5 1593.37,-63.5 1593.37,-45.5 1345.59,-45.5"/>
<text text-anchor="middle" x="1469.48" y="-51.5" font-family="Helvetica,sans-Serif" font-size="10.00">caiman.source_extraction.cnmf.deconvolution.axcov</text>
</a>
</g>
</g>
<!-- Node4&#45;&gt;Node5 -->
<g id="edge6" class="edge"><title>Node4&#45;&gt;Node5</title>
<path fill="none" stroke="midnightblue" d="M1309.95,-54.5C1318.33,-54.5 1326.79,-54.5 1335.19,-54.5"/>
<polygon fill="midnightblue" stroke="midnightblue" points="1335.42,-58.0001 1345.42,-54.5 1335.42,-51.0001 1335.42,-58.0001"/>
</g>
<!-- Node6 -->
<g id="node7" class="node"><title>Node6</title>
<g id="a_node7"><a xlink:href="namespacecaiman_1_1source__extraction_1_1cnmf_1_1deconvolution.html#a8d83696f273bd0121651cf48a6b899ae" target="_top" xlink:title="caiman.source_extraction.cnmf.deconvolution.nextpow2">
<polygon fill="white" stroke="black" points="1629.37,-45.5 1629.37,-63.5 1893.84,-63.5 1893.84,-45.5 1629.37,-45.5"/>
<text text-anchor="middle" x="1761.61" y="-51.5" font-family="Helvetica,sans-Serif" font-size="10.00">caiman.source_extraction.cnmf.deconvolution.nextpow2</text>
</a>
</g>
</g>
<!-- Node5&#45;&gt;Node6 -->
<g id="edge7" class="edge"><title>Node5&#45;&gt;Node6</title>
<path fill="none" stroke="midnightblue" d="M1593.52,-54.5C1601.87,-54.5 1610.31,-54.5 1618.74,-54.5"/>
<polygon fill="midnightblue" stroke="midnightblue" points="1619.01,-58.0001 1629.01,-54.5 1619.01,-51.0001 1619.01,-58.0001"/>
</g>
<!-- Node9&#45;&gt;Node2 -->
<g id="edge15" class="edge"><title>Node9&#45;&gt;Node2</title>
<path fill="none" stroke="midnightblue" d="M694.773,-28.5115C703.02,-31.034 711.076,-34.004 718.672,-37.5 737.592,-46.2074 735.993,-58.2881 754.672,-67.5 764.268,-72.2322 774.646,-76.203 785.203,-79.5326"/>
<polygon fill="midnightblue" stroke="midnightblue" points="784.349,-82.9298 794.931,-82.4136 786.337,-76.2179 784.349,-82.9298"/>
</g>
<!-- Node9&#45;&gt;Node4 -->
<g id="edge11" class="edge"><title>Node9&#45;&gt;Node4</title>
<path fill="none" stroke="midnightblue" d="M709.494,-28.5256C724.706,-29.9867 740.032,-31.3537 754.672,-32.5 849.594,-39.9324 956.668,-45.4639 1039.49,-49.1213"/>
<polygon fill="midnightblue" stroke="midnightblue" points="1039.58,-52.6285 1049.73,-49.5692 1039.89,-45.6352 1039.58,-52.6285"/>
</g>
<!-- Node10 -->
<g id="node11" class="node"><title>Node10</title>
<g id="a_node11"><a xlink:href="namespacecaiman_1_1source__extraction_1_1cnmf_1_1deconvolution.html#affae481e26d5e13bc6f62c6e643b63d5" target="_top" xlink:title="Infer the most likely discretized spike train underlying an AR(2) fluorescence trace. ">
<polygon fill="white" stroke="black" points="761.615,-5.5 761.615,-23.5 1007.19,-23.5 1007.19,-5.5 761.615,-5.5"/>
<text text-anchor="middle" x="884.4" y="-11.5" font-family="Helvetica,sans-Serif" font-size="10.00">caiman.source_extraction.cnmf.deconvolution.onnls</text>
</a>
</g>
</g>
<!-- Node9&#45;&gt;Node10 -->
<g id="edge12" class="edge"><title>Node9&#45;&gt;Node10</title>
<path fill="none" stroke="midnightblue" d="M718.694,-7.77804C729.534,-7.736 740.477,-7.74123 751.292,-7.79373"/>
<polygon fill="midnightblue" stroke="midnightblue" points="751.593,-11.2956 761.615,-7.85856 751.637,-4.29574 751.593,-11.2956"/>
</g>
<!-- Node10&#45;&gt;Node9 -->
<g id="edge14" class="edge"><title>Node10&#45;&gt;Node9</title>
<path fill="none" stroke="midnightblue" d="M761.615,-21.1414C750.794,-21.225 739.768,-21.2603 728.774,-21.2474"/>
<polygon fill="midnightblue" stroke="midnightblue" points="728.702,-17.7473 718.694,-21.222 728.685,-24.7473 728.702,-17.7473"/>
</g>
<!-- Node11 -->
<g id="node12" class="node"><title>Node11</title>
<g id="a_node12"><a xlink:href="namespacecaiman_1_1source__extraction_1_1cnmf_1_1deconvolution.html#ad9f9b2ef0aad5c652f86bd8c7ae64bdd" target="_top" xlink:title="caiman.source_extraction.cnmf.deconvolution._nnls">
<polygon fill="white" stroke="black" points="1057.07,-3.5 1057.07,-21.5 1302.64,-21.5 1302.64,-3.5 1057.07,-3.5"/>
<text text-anchor="middle" x="1179.86" y="-9.5" font-family="Helvetica,sans-Serif" font-size="10.00">caiman.source_extraction.cnmf.deconvolution._nnls</text>
</a>
</g>
</g>
<!-- Node10&#45;&gt;Node11 -->
<g id="edge13" class="edge"><title>Node10&#45;&gt;Node11</title>
<path fill="none" stroke="midnightblue" d="M1007.3,-13.6692C1020.35,-13.5803 1033.67,-13.4895 1046.84,-13.3998"/>
<polygon fill="midnightblue" stroke="midnightblue" points="1046.89,-16.8996 1056.86,-13.3314 1046.84,-9.89977 1046.89,-16.8996"/>
</g>
</g>
</svg>
