<?xml version="1.0" encoding="UTF-8" standalone="no"?>
<!DOCTYPE svg PUBLIC "-//W3C//DTD SVG 1.1//EN"
 "http://www.w3.org/Graphics/SVG/1.1/DTD/svg11.dtd">
<!-- Generated by graphviz version 2.38.0 (20140413.2041)
 -->
<!-- Title: distance_masks Pages: 1 -->
<svg width="244pt" height="74pt"
 viewBox="0.00 0.00 243.88 74.00" xmlns="http://www.w3.org/2000/svg" xmlns:xlink="http://www.w3.org/1999/xlink">
<g id="graph0" class="graph" transform="scale(1 1) rotate(0) translate(4 70)">
<title>distance_masks</title>
<polygon fill="white" stroke="none" points="-4,4 -4,-70 239.876,-70 239.876,4 -4,4"/>
<!-- Node13 -->
<g id="node1" class="node"><title>Node13</title>
<polygon fill="#bfbfbf" stroke="black" points="0,-26.5 0,-44.5 87.6992,-44.5 87.6992,-26.5 0,-26.5"/>
<text text-anchor="middle" x="43.8496" y="-32.5" font-family="Helvetica,sans-Serif" font-size="10.00">distance_masks</text>
</g>
<!-- Node14 -->
<g id="node2" class="node"><title>Node14</title>
<g id="a_node2"><a xlink:href="namespacecaiman_1_1base_1_1rois.html#a55efa0edbb0867a0fa3a8e86bb1fa407" target="_top" xlink:title="get_distance_from_A">
<polygon fill="white" stroke="black" points="124.537,-47.5 124.537,-65.5 235.039,-65.5 235.039,-47.5 124.537,-47.5"/>
<text text-anchor="middle" x="179.788" y="-53.5" font-family="Helvetica,sans-Serif" font-size="10.00">get_distance_from_A</text>
</a>
</g>
</g>
<!-- Node13&#45;&gt;Node14 -->
<g id="edge1" class="edge"><title>Node13&#45;&gt;Node14</title>
<path fill="none" stroke="midnightblue" d="M97.9977,-43.833C106.703,-45.1979 115.734,-46.6138 124.467,-47.9831"/>
<polygon fill="midnightblue" stroke="midnightblue" points="98.3872,-40.3514 87.9657,-42.2601 97.3028,-47.2669 98.3872,-40.3514"/>
</g>
<!-- Node15 -->
<g id="node3" class="node"><title>Node15</title>
<g id="a_node3"><a xlink:href="namespacecaiman_1_1base_1_1rois.html#a110f7c7d62671deddd9e58cc0c873a4c" target="_top" xlink:title="Match neurons expressed as binary masks. ">
<polygon fill="white" stroke="black" points="123.699,-0.5 123.699,-28.5 235.876,-28.5 235.876,-0.5 123.699,-0.5"/>
<text text-anchor="start" x="131.699" y="-16.5" font-family="Helvetica,sans-Serif" font-size="10.00">nf_match_neurons_in</text>
<text text-anchor="middle" x="179.788" y="-6.5" font-family="Helvetica,sans-Serif" font-size="10.00">_binary_masks</text>
</a>
</g>
</g>
<!-- Node13&#45;&gt;Node15 -->
<g id="edge2" class="edge"><title>Node13&#45;&gt;Node15</title>
<path fill="none" stroke="midnightblue" d="M98.0052,-27.1658C106.389,-25.8513 115.075,-24.4894 123.506,-23.1675"/>
<polygon fill="midnightblue" stroke="midnightblue" points="97.3028,-23.7331 87.9657,-28.7399 98.3872,-30.6486 97.3028,-23.7331"/>
</g>
</g>
</svg>
