<?xml version="1.0" encoding="UTF-8" standalone="no"?>
<!DOCTYPE svg PUBLIC "-//W3C//DTD SVG 1.1//EN"
 "http://www.w3.org/Graphics/SVG/1.1/DTD/svg11.dtd">
<!-- Generated by graphviz version 2.38.0 (20140413.2041)
 -->
<!-- Title: create_weight_matrix_for_blending Pages: 1 -->
<svg width="409pt" height="131pt"
 viewBox="0.00 0.00 409.27 131.00" xmlns="http://www.w3.org/2000/svg" xmlns:xlink="http://www.w3.org/1999/xlink">
<g id="graph0" class="graph" transform="scale(1 1) rotate(0) translate(4 127)">
<title>create_weight_matrix_for_blending</title>
<polygon fill="white" stroke="none" points="-4,4 -4,-127 405.27,-127 405.27,4 -4,4"/>
<!-- Node65 -->
<g id="node1" class="node"><title>Node65</title>
<polygon fill="#bfbfbf" stroke="black" points="0,-42.5 0,-70.5 111.044,-70.5 111.044,-42.5 0,-42.5"/>
<text text-anchor="start" x="8" y="-58.5" font-family="Helvetica,sans-Serif" font-size="10.00">create_weight_matrix</text>
<text text-anchor="middle" x="55.522" y="-48.5" font-family="Helvetica,sans-Serif" font-size="10.00">_for_blending</text>
</g>
<!-- Node66 -->
<g id="node2" class="node"><title>Node66</title>
<g id="a_node2"><a xlink:href="namespacecaiman_1_1motion__correction.html#aea060208c09f0e4fb01e6d31b9acf36f" target="_top" xlink:title="perform piecewise rigid motion correction iteration, by 1) dividing the FOV in patches 2) motion corr...">
<polygon fill="white" stroke="black" points="147.044,-47.5 147.044,-65.5 234.196,-65.5 234.196,-47.5 147.044,-47.5"/>
<text text-anchor="middle" x="190.62" y="-53.5" font-family="Helvetica,sans-Serif" font-size="10.00">tile_and_correct</text>
</a>
</g>
</g>
<!-- Node65&#45;&gt;Node66 -->
<g id="edge1" class="edge"><title>Node65&#45;&gt;Node66</title>
<path fill="none" stroke="midnightblue" d="M121.542,-49.7516C130.203,-49.7336 138.898,-49.8682 147.041,-50.1553"/>
<polygon fill="midnightblue" stroke="midnightblue" points="121.395,-46.2527 111.427,-49.8427 121.458,-53.2524 121.395,-46.2527"/>
</g>
<!-- Node66&#45;&gt;Node65 -->
<g id="edge4" class="edge"><title>Node66&#45;&gt;Node65</title>
<path fill="none" stroke="midnightblue" d="M136.987,-63.1171C128.587,-63.2797 119.877,-63.2931 111.427,-63.1573"/>
<polygon fill="midnightblue" stroke="midnightblue" points="137.139,-66.6143 147.041,-62.8447 136.95,-59.6169 137.139,-66.6143"/>
</g>
<!-- Node67 -->
<g id="node3" class="node"><title>Node67</title>
<g id="a_node3"><a xlink:href="namespaceabadura__demo.html#a98e8097ac25259476cca178403afebb1" target="_top" xlink:title="abadura_demo.tile_and\l_correct_wrapper">
<polygon fill="white" stroke="black" points="275.191,-94.5 275.191,-122.5 396.274,-122.5 396.274,-94.5 275.191,-94.5"/>
<text text-anchor="start" x="283.191" y="-110.5" font-family="Helvetica,sans-Serif" font-size="10.00">abadura_demo.tile_and</text>
<text text-anchor="middle" x="335.733" y="-100.5" font-family="Helvetica,sans-Serif" font-size="10.00">_correct_wrapper</text>
</a>
</g>
</g>
<!-- Node66&#45;&gt;Node67 -->
<g id="edge2" class="edge"><title>Node66&#45;&gt;Node67</title>
<path fill="none" stroke="midnightblue" d="M225.616,-69.1413C239.436,-74.2555 255.567,-80.1936 270.196,-85.5 278.247,-88.4202 286.874,-91.5171 295.117,-94.4603"/>
<polygon fill="midnightblue" stroke="midnightblue" points="226.609,-65.7768 216.016,-65.5839 224.177,-72.3406 226.609,-65.7768"/>
</g>
<!-- Node68 -->
<g id="node4" class="node"><title>Node68</title>
<g id="a_node4"><a xlink:href="namespacedemo__motion__correction__nonrigid.html#a7c12b0a7d034249b2ceb2b7a2a36498b" target="_top" xlink:title="demo_motion_correction\l_nonrigid.tile_and_correct\l_wrapper">
<polygon fill="white" stroke="black" points="270.196,-37.5 270.196,-75.5 401.27,-75.5 401.27,-37.5 270.196,-37.5"/>
<text text-anchor="start" x="278.196" y="-63.5" font-family="Helvetica,sans-Serif" font-size="10.00">demo_motion_correction</text>
<text text-anchor="start" x="278.196" y="-53.5" font-family="Helvetica,sans-Serif" font-size="10.00">_nonrigid.tile_and_correct</text>
<text text-anchor="middle" x="335.733" y="-43.5" font-family="Helvetica,sans-Serif" font-size="10.00">_wrapper</text>
</a>
</g>
</g>
<!-- Node66&#45;&gt;Node68 -->
<g id="edge3" class="edge"><title>Node66&#45;&gt;Node68</title>
<path fill="none" stroke="midnightblue" d="M244.791,-56.5C253.046,-56.5 261.651,-56.5 270.124,-56.5"/>
<polygon fill="midnightblue" stroke="midnightblue" points="244.559,-53.0001 234.559,-56.5 244.559,-60.0001 244.559,-53.0001"/>
</g>
<!-- Node69 -->
<g id="node5" class="node"><title>Node69</title>
<g id="a_node5"><a xlink:href="namespacecaiman_1_1motion__correction.html#a9c4d6e518f42c395cb58a08d2ff21f45" target="_top" xlink:title="tile_and_correct_wrapper">
<polygon fill="white" stroke="black" points="271.312,-0.5 271.312,-18.5 400.154,-18.5 400.154,-0.5 271.312,-0.5"/>
<text text-anchor="middle" x="335.733" y="-6.5" font-family="Helvetica,sans-Serif" font-size="10.00">tile_and_correct_wrapper</text>
</a>
</g>
</g>
<!-- Node66&#45;&gt;Node69 -->
<g id="edge5" class="edge"><title>Node66&#45;&gt;Node69</title>
<path fill="none" stroke="midnightblue" d="M225.505,-43.9576C239.308,-38.9707 255.457,-33.2918 270.196,-28.5 280.748,-25.0696 292.356,-21.5687 302.783,-18.522"/>
<polygon fill="midnightblue" stroke="midnightblue" points="224.122,-40.7359 215.922,-47.4439 226.516,-47.3141 224.122,-40.7359"/>
</g>
</g>
</svg>
