<?xml version="1.0" encoding="UTF-8" standalone="no"?>
<!DOCTYPE svg PUBLIC "-//W3C//DTD SVG 1.1//EN"
 "http://www.w3.org/Graphics/SVG/1.1/DTD/svg11.dtd">
<!-- Generated by graphviz version 2.38.0 (20140413.2041)
 -->
<!-- Title: load_data_from_stored_results Pages: 1 -->
<svg width="264pt" height="37pt"
 viewBox="0.00 0.00 263.88 37.00" xmlns="http://www.w3.org/2000/svg" xmlns:xlink="http://www.w3.org/1999/xlink">
<g id="graph0" class="graph" transform="scale(1 1) rotate(0) translate(4 33)">
<title>load_data_from_stored_results</title>
<polygon fill="white" stroke="none" points="-4,4 -4,-33 259.881,-33 259.881,4 -4,4"/>
<!-- Node31 -->
<g id="node1" class="node"><title>Node31</title>
<polygon fill="#bfbfbf" stroke="black" points="0,-0.5 0,-28.5 118.847,-28.5 118.847,-0.5 0,-0.5"/>
<text text-anchor="start" x="8" y="-16.5" font-family="Helvetica,sans-Serif" font-size="10.00">load_data_from_stored</text>
<text text-anchor="middle" x="59.4233" y="-6.5" font-family="Helvetica,sans-Serif" font-size="10.00">_results</text>
</g>
<!-- Node32 -->
<g id="node2" class="node"><title>Node32</title>
<g id="a_node2"><a xlink:href="namespaceuse__cases_1_1granule__cells_1_1utils__granule.html#a0df0b96808c567e87ff6349d7ad41289" target="_top" xlink:title="Equivalent of take for the input format we are using. ">
<polygon fill="white" stroke="black" points="154.847,-5.5 154.847,-23.5 255.881,-23.5 255.881,-5.5 154.847,-5.5"/>
<text text-anchor="middle" x="205.364" y="-11.5" font-family="Helvetica,sans-Serif" font-size="10.00">extract_traces_mat</text>
</a>
</g>
</g>
<!-- Node31&#45;&gt;Node32 -->
<g id="edge1" class="edge"><title>Node31&#45;&gt;Node32</title>
<path fill="none" stroke="midnightblue" d="M129.041,-7.75651C137.671,-7.72296 146.365,-7.81905 154.626,-8.0448"/>
<polygon fill="midnightblue" stroke="midnightblue" points="128.935,-4.25729 118.969,-7.85547 129.003,-11.257 128.935,-4.25729"/>
</g>
<!-- Node32&#45;&gt;Node31 -->
<g id="edge2" class="edge"><title>Node32&#45;&gt;Node31</title>
<path fill="none" stroke="midnightblue" d="M144.481,-21.1647C136.045,-21.2848 127.38,-21.2781 118.969,-21.1445"/>
<polygon fill="midnightblue" stroke="midnightblue" points="144.7,-24.661 154.626,-20.9552 144.556,-17.6625 144.7,-24.661"/>
</g>
</g>
</svg>
