<?xml version="1.0" encoding="UTF-8" standalone="no"?>
<!DOCTYPE svg PUBLIC "-//W3C//DTD SVG 1.1//EN"
 "http://www.w3.org/Graphics/SVG/1.1/DTD/svg11.dtd">
<!-- Generated by graphviz version 2.38.0 (20140413.2041)
 -->
<!-- Title: extract_motor_components_OF Pages: 1 -->
<svg width="317pt" height="101pt"
 viewBox="0.00 0.00 316.69 101.00" xmlns="http://www.w3.org/2000/svg" xmlns:xlink="http://www.w3.org/1999/xlink">
<g id="graph0" class="graph" transform="scale(1 1) rotate(0) translate(4 97)">
<title>extract_motor_components_OF</title>
<polygon fill="white" stroke="none" points="-4,4 -4,-97 312.688,-97 312.688,4 -4,4"/>
<!-- Node13 -->
<g id="node1" class="node"><title>Node13</title>
<polygon fill="#bfbfbf" stroke="black" points="0,-37.5 0,-55.5 156.62,-55.5 156.62,-37.5 0,-37.5"/>
<text text-anchor="middle" x="78.3101" y="-43.5" font-family="Helvetica,sans-Serif" font-size="10.00">extract_motor_components_OF</text>
</g>
<!-- Node14 -->
<g id="node2" class="node"><title>Node14</title>
<g id="a_node2"><a xlink:href="namespacecaiman_1_1behavior_1_1behavior.html#a9f94bc446f69340cee7623808f58cdbc" target="_top" xlink:title="get_nonzero_subarray">
<polygon fill="white" stroke="black" points="192.62,-74.5 192.62,-92.5 308.688,-92.5 308.688,-74.5 192.62,-74.5"/>
<text text-anchor="middle" x="250.654" y="-80.5" font-family="Helvetica,sans-Serif" font-size="10.00">get_nonzero_subarray</text>
</a>
</g>
</g>
<!-- Node13&#45;&gt;Node14 -->
<g id="edge1" class="edge"><title>Node13&#45;&gt;Node14</title>
<path fill="none" stroke="midnightblue" d="M120.981,-55.5512C144.268,-60.6093 173.486,-66.9556 198.191,-72.3219"/>
<polygon fill="midnightblue" stroke="midnightblue" points="197.604,-75.7758 208.119,-74.4782 199.09,-68.9353 197.604,-75.7758"/>
</g>
<!-- Node15 -->
<g id="node3" class="node"><title>Node15</title>
<g id="a_node3"><a xlink:href="namespacecaiman_1_1behavior_1_1behavior.html#a8f9ed50a7ba21081b068bf7967f74e09" target="_top" xlink:title="This function compute the optical flow of behavioral movies using the opencv cv2.calcOpticalFlowFarne...">
<polygon fill="white" stroke="black" points="194.571,-37.5 194.571,-55.5 306.738,-55.5 306.738,-37.5 194.571,-37.5"/>
<text text-anchor="middle" x="250.654" y="-43.5" font-family="Helvetica,sans-Serif" font-size="10.00">compute_optical_flow</text>
</a>
</g>
</g>
<!-- Node13&#45;&gt;Node15 -->
<g id="edge2" class="edge"><title>Node13&#45;&gt;Node15</title>
<path fill="none" stroke="midnightblue" d="M157.005,-46.5C166.087,-46.5 175.283,-46.5 184.176,-46.5"/>
<polygon fill="midnightblue" stroke="midnightblue" points="184.451,-50.0001 194.451,-46.5 184.451,-43.0001 184.451,-50.0001"/>
</g>
<!-- Node16 -->
<g id="node4" class="node"><title>Node16</title>
<g id="a_node4"><a xlink:href="namespacecaiman_1_1behavior_1_1behavior.html#ab7ca16e11cc59cf634fcdd9a2c6848f6" target="_top" xlink:title="From optical flow images can extract spatial and temporal components. ">
<polygon fill="white" stroke="black" points="197.63,-0.5 197.63,-18.5 303.679,-18.5 303.679,-0.5 197.63,-0.5"/>
<text text-anchor="middle" x="250.654" y="-6.5" font-family="Helvetica,sans-Serif" font-size="10.00">extract_components</text>
</a>
</g>
</g>
<!-- Node13&#45;&gt;Node16 -->
<g id="edge3" class="edge"><title>Node13&#45;&gt;Node16</title>
<path fill="none" stroke="midnightblue" d="M120.981,-37.4488C144.268,-32.3907 173.486,-26.0444 198.191,-20.6781"/>
<polygon fill="midnightblue" stroke="midnightblue" points="199.09,-24.0647 208.119,-18.5218 197.604,-17.2242 199.09,-24.0647"/>
</g>
</g>
</svg>
