<?xml version="1.0" encoding="UTF-8" standalone="no"?>
<!DOCTYPE svg PUBLIC "-//W3C//DTD SVG 1.1//EN"
 "http://www.w3.org/Graphics/SVG/1.1/DTD/svg11.dtd">
<!-- Generated by graphviz version 2.38.0 (20140413.2041)
 -->
<!-- Title: parallel_dot_product Pages: 1 -->
<svg width="667pt" height="131pt"
 viewBox="0.00 0.00 666.58 131.00" xmlns="http://www.w3.org/2000/svg" xmlns:xlink="http://www.w3.org/1999/xlink">
<g id="graph0" class="graph" transform="scale(1 1) rotate(0) translate(4 127)">
<title>parallel_dot_product</title>
<polygon fill="white" stroke="none" points="-4,4 -4,-127 662.579,-127 662.579,4 -4,4"/>
<!-- Node31 -->
<g id="node1" class="node"><title>Node31</title>
<polygon fill="#bfbfbf" stroke="black" points="0,-52.5 0,-70.5 106.62,-70.5 106.62,-52.5 0,-52.5"/>
<text text-anchor="middle" x="53.3101" y="-58.5" font-family="Helvetica,sans-Serif" font-size="10.00">parallel_dot_product</text>
</g>
<!-- Node32 -->
<g id="node2" class="node"><title>Node32</title>
<g id="a_node2"><a xlink:href="namespacecaiman_1_1source__extraction_1_1cnmf_1_1spatial.html#ab7b90a8cbd754f9c03b13cf1709eebd4" target="_top" xlink:title="update spatial footprints and background through Basis Pursuit Denoising ">
<polygon fill="white" stroke="black" points="158.443,-47.5 158.443,-75.5 377.885,-75.5 377.885,-47.5 158.443,-47.5"/>
<text text-anchor="start" x="166.443" y="-63.5" font-family="Helvetica,sans-Serif" font-size="10.00">caiman.source_extraction.cnmf.spatial.update</text>
<text text-anchor="middle" x="268.164" y="-53.5" font-family="Helvetica,sans-Serif" font-size="10.00">_spatial_components</text>
</a>
</g>
</g>
<!-- Node31&#45;&gt;Node32 -->
<g id="edge1" class="edge"><title>Node31&#45;&gt;Node32</title>
<path fill="none" stroke="midnightblue" d="M116.891,-61.5C129.969,-61.5 144.116,-61.5 158.321,-61.5"/>
<polygon fill="midnightblue" stroke="midnightblue" points="116.653,-58.0001 106.653,-61.5 116.653,-65.0001 116.653,-58.0001"/>
</g>
<!-- Node35 -->
<g id="node5" class="node"><title>Node35</title>
<g id="a_node5"><a xlink:href="namespacecaiman_1_1source__extraction_1_1cnmf_1_1temporal.html#ae56ee735c5b8f6fdaca8baaee1371d58" target="_top" xlink:title="Update temporal components and background given spatial components using a block coordinate descent a...">
<polygon fill="white" stroke="black" points="153.443,-94.5 153.443,-122.5 382.885,-122.5 382.885,-94.5 153.443,-94.5"/>
<text text-anchor="start" x="161.443" y="-110.5" font-family="Helvetica,sans-Serif" font-size="10.00">caiman.source_extraction.cnmf.temporal.update</text>
<text text-anchor="middle" x="268.164" y="-100.5" font-family="Helvetica,sans-Serif" font-size="10.00">_temporal_components</text>
</a>
</g>
</g>
<!-- Node31&#45;&gt;Node35 -->
<g id="edge4" class="edge"><title>Node31&#45;&gt;Node35</title>
<path fill="none" stroke="midnightblue" d="M95.1327,-73.3513C110.013,-77.4704 127.013,-81.9446 142.62,-85.5 156.555,-88.6746 171.443,-91.7198 185.901,-94.4968"/>
<polygon fill="midnightblue" stroke="midnightblue" points="95.7867,-69.8998 85.2132,-70.572 93.8981,-76.6403 95.7867,-69.8998"/>
</g>
<!-- Node36 -->
<g id="node6" class="node"><title>Node36</title>
<g id="a_node6"><a xlink:href="namespacecaiman_1_1source__extraction_1_1cnmf_1_1utilities.html#a280d064e1a9888eca4b375647d031491" target="_top" xlink:title="Compute DFF function from cnmf output. ">
<polygon fill="white" stroke="black" points="142.62,-8.5 142.62,-26.5 393.708,-26.5 393.708,-8.5 142.62,-8.5"/>
<text text-anchor="middle" x="268.164" y="-14.5" font-family="Helvetica,sans-Serif" font-size="10.00">caiman.source_extraction.cnmf.utilities.extract_DF_F</text>
</a>
</g>
</g>
<!-- Node31&#45;&gt;Node36 -->
<g id="edge6" class="edge"><title>Node31&#45;&gt;Node36</title>
<path fill="none" stroke="midnightblue" d="M96.2151,-49.7825C110.833,-45.9092 127.39,-41.7608 142.62,-38.5 163.526,-34.0242 186.573,-29.9115 207.097,-26.5347"/>
<polygon fill="midnightblue" stroke="midnightblue" points="95.1952,-46.4323 86.4449,-52.4058 97.0104,-53.1929 95.1952,-46.4323"/>
</g>
<!-- Node33 -->
<g id="node3" class="node"><title>Node33</title>
<g id="a_node3"><a xlink:href="namespacecaiman_1_1source__extraction_1_1cnmf_1_1merging.html#ad08adf2e086a22ef379b10ed3ee36936" target="_top" xlink:title="Merging of spatially overlapping components that have highly correlated temporal activity The correla...">
<polygon fill="white" stroke="black" points="431.932,-94.5 431.932,-122.5 656.355,-122.5 656.355,-94.5 431.932,-94.5"/>
<text text-anchor="start" x="439.932" y="-110.5" font-family="Helvetica,sans-Serif" font-size="10.00">caiman.source_extraction.cnmf.merging.merge</text>
<text text-anchor="middle" x="544.144" y="-100.5" font-family="Helvetica,sans-Serif" font-size="10.00">_components</text>
</a>
</g>
</g>
<!-- Node32&#45;&gt;Node33 -->
<g id="edge2" class="edge"><title>Node32&#45;&gt;Node33</title>
<path fill="none" stroke="midnightblue" d="M360.938,-77.2434C393.399,-82.8119 429.675,-89.0349 461.26,-94.4533"/>
<polygon fill="midnightblue" stroke="midnightblue" points="361.444,-73.7791 350.996,-75.5379 360.26,-80.6783 361.444,-73.7791"/>
</g>
<!-- Node34 -->
<g id="node4" class="node"><title>Node34</title>
<g id="a_node4"><a xlink:href="namespacecaiman_1_1source__extraction_1_1cnmf_1_1spatial.html#adbbc80bf3821229671c7f77648016071" target="_top" xlink:title="caiman.source_extraction.cnmf.spatial.basis\l_denoising">
<polygon fill="white" stroke="black" points="438.043,-47.5 438.043,-75.5 650.244,-75.5 650.244,-47.5 438.043,-47.5"/>
<text text-anchor="start" x="446.043" y="-63.5" font-family="Helvetica,sans-Serif" font-size="10.00">caiman.source_extraction.cnmf.spatial.basis</text>
<text text-anchor="middle" x="544.144" y="-53.5" font-family="Helvetica,sans-Serif" font-size="10.00">_denoising</text>
</a>
</g>
</g>
<!-- Node32&#45;&gt;Node34 -->
<g id="edge3" class="edge"><title>Node32&#45;&gt;Node34</title>
<path fill="none" stroke="midnightblue" d="M388.455,-61.5C404.954,-61.5 421.801,-61.5 438.018,-61.5"/>
<polygon fill="midnightblue" stroke="midnightblue" points="388.235,-58.0001 378.235,-61.5 388.235,-65.0001 388.235,-58.0001"/>
</g>
<!-- Node35&#45;&gt;Node33 -->
<g id="edge5" class="edge"><title>Node35&#45;&gt;Node33</title>
<path fill="none" stroke="midnightblue" d="M393.26,-108.5C406.136,-108.5 419.166,-108.5 431.888,-108.5"/>
<polygon fill="midnightblue" stroke="midnightblue" points="392.976,-105 382.976,-108.5 392.976,-112 392.976,-105"/>
</g>
<!-- Node37 -->
<g id="node7" class="node"><title>Node37</title>
<g id="a_node7"><a xlink:href="namespacecaiman_1_1source__extraction_1_1cnmf_1_1utilities.html#aea3aa78c7c153170012079014e1f4895" target="_top" xlink:title="caiman.source_extraction.cnmf.utilities.compute\lDFF_traces">
<polygon fill="white" stroke="black" points="429.708,-0.5 429.708,-28.5 658.579,-28.5 658.579,-0.5 429.708,-0.5"/>
<text text-anchor="start" x="437.708" y="-16.5" font-family="Helvetica,sans-Serif" font-size="10.00">caiman.source_extraction.cnmf.utilities.compute</text>
<text text-anchor="middle" x="544.144" y="-6.5" font-family="Helvetica,sans-Serif" font-size="10.00">DFF_traces</text>
</a>
</g>
</g>
<!-- Node36&#45;&gt;Node37 -->
<g id="edge7" class="edge"><title>Node36&#45;&gt;Node37</title>
<path fill="none" stroke="midnightblue" d="M403.768,-16.0261C412.333,-15.9323 420.91,-15.8384 429.366,-15.7458"/>
<polygon fill="midnightblue" stroke="midnightblue" points="403.689,-12.5267 393.728,-16.1361 403.765,-19.5263 403.689,-12.5267"/>
</g>
</g>
</svg>
