<?xml version="1.0" encoding="UTF-8" standalone="no"?>
<!DOCTYPE svg PUBLIC "-//W3C//DTD SVG 1.1//EN"
 "http://www.w3.org/Graphics/SVG/1.1/DTD/svg11.dtd">
<!-- Generated by graphviz version 2.38.0 (20140413.2041)
 -->
<!-- Title: select_roi Pages: 1 -->
<svg width="296pt" height="27pt"
 viewBox="0.00 0.00 295.86 27.00" xmlns="http://www.w3.org/2000/svg" xmlns:xlink="http://www.w3.org/1999/xlink">
<g id="graph0" class="graph" transform="scale(1 1) rotate(0) translate(4 23)">
<title>select_roi</title>
<polygon fill="white" stroke="none" points="-4,4 -4,-23 291.861,-23 291.861,4 -4,4"/>
<!-- Node42 -->
<g id="node1" class="node"><title>Node42</title>
<polygon fill="#bfbfbf" stroke="black" points="0,-0.5 0,-18.5 58.7979,-18.5 58.7979,-0.5 0,-0.5"/>
<text text-anchor="middle" x="29.3989" y="-6.5" font-family="Helvetica,sans-Serif" font-size="10.00">select_roi</text>
</g>
<!-- Node43 -->
<g id="node2" class="node"><title>Node43</title>
<g id="a_node2"><a xlink:href="namespacecaiman_1_1behavior_1_1behavior.html#a513c5d7fc1e56d74ff55d4f74ee836a3" target="_top" xlink:title="main">
<polygon fill="white" stroke="black" points="94.7979,-0.5 94.7979,-18.5 132.473,-18.5 132.473,-0.5 94.7979,-0.5"/>
<text text-anchor="middle" x="113.635" y="-6.5" font-family="Helvetica,sans-Serif" font-size="10.00">main</text>
</a>
</g>
</g>
<!-- Node42&#45;&gt;Node43 -->
<g id="edge1" class="edge"><title>Node42&#45;&gt;Node43</title>
<path fill="none" stroke="midnightblue" d="M69.4248,-9.5C78.3038,-9.5 87.3132,-9.5 94.7912,-9.5"/>
<polygon fill="midnightblue" stroke="midnightblue" points="69.1612,-6.0001 59.1612,-9.5 69.1612,-13.0001 69.1612,-6.0001"/>
</g>
<!-- Node44 -->
<g id="node3" class="node"><title>Node44</title>
<g id="a_node3"><a xlink:href="namespacecaiman_1_1behavior_1_1behavior.html#ac7ebff37cde3a2bef4c8613654b60395" target="_top" xlink:title="Normalize the components using the std of the components obtaining using biunary masks. ">
<polygon fill="white" stroke="black" points="168.473,-0.5 168.473,-18.5 287.861,-18.5 287.861,-0.5 168.473,-0.5"/>
<text text-anchor="middle" x="228.167" y="-6.5" font-family="Helvetica,sans-Serif" font-size="10.00">normalize_components</text>
</a>
</g>
</g>
<!-- Node43&#45;&gt;Node44 -->
<g id="edge2" class="edge"><title>Node43&#45;&gt;Node44</title>
<path fill="none" stroke="midnightblue" d="M142.695,-3.5688C150.521,-3.07263 159.329,-2.80196 168.226,-2.75679"/>
<polygon fill="midnightblue" stroke="midnightblue" points="142.397,-0.0813893 132.715,-4.38518 142.968,-7.05808 142.397,-0.0813893"/>
</g>
<!-- Node44&#45;&gt;Node43 -->
<g id="edge3" class="edge"><title>Node44&#45;&gt;Node43</title>
<path fill="none" stroke="midnightblue" d="M158.005,-16.0899C148.717,-15.8555 139.924,-15.3638 132.715,-14.6148"/>
<polygon fill="midnightblue" stroke="midnightblue" points="158.175,-19.5927 168.226,-16.2432 158.28,-12.5935 158.175,-19.5927"/>
</g>
</g>
</svg>
