<?xml version="1.0" encoding="UTF-8" standalone="no"?>
<!DOCTYPE svg PUBLIC "-//W3C//DTD SVG 1.1//EN"
 "http://www.w3.org/Graphics/SVG/1.1/DTD/svg11.dtd">
<!-- Generated by graphviz version 2.38.0 (20140413.2041)
 -->
<!-- Title: extract_DF_F Pages: 1 -->
<svg width="559pt" height="37pt"
 viewBox="0.00 0.00 559.07 37.00" xmlns="http://www.w3.org/2000/svg" xmlns:xlink="http://www.w3.org/1999/xlink">
<g id="graph0" class="graph" transform="scale(1 1) rotate(0) translate(4 33)">
<title>extract_DF_F</title>
<polygon fill="white" stroke="none" points="-4,4 -4,-33 555.067,-33 555.067,4 -4,4"/>
<!-- Node12 -->
<g id="node1" class="node"><title>Node12</title>
<polygon fill="#bfbfbf" stroke="black" points="0,-5.5 0,-23.5 76.5713,-23.5 76.5713,-5.5 0,-5.5"/>
<text text-anchor="middle" x="38.2856" y="-11.5" font-family="Helvetica,sans-Serif" font-size="10.00">extract_DF_F</text>
</g>
<!-- Node13 -->
<g id="node2" class="node"><title>Node13</title>
<g id="a_node2"><a xlink:href="namespacecaiman_1_1mmapping.html#aa75ec735ea507b2ce7eb0e0bd33d2ba3" target="_top" xlink:title="Chunk matrix product between matrix and column vectors A memory mapped ndarray pixels x time b time x...">
<polygon fill="white" stroke="black" points="112.571,-0.5 112.571,-28.5 245.295,-28.5 245.295,-0.5 112.571,-0.5"/>
<text text-anchor="start" x="120.571" y="-16.5" font-family="Helvetica,sans-Serif" font-size="10.00">caiman.mmapping.parallel</text>
<text text-anchor="middle" x="178.933" y="-6.5" font-family="Helvetica,sans-Serif" font-size="10.00">_dot_product</text>
</a>
</g>
</g>
<!-- Node12&#45;&gt;Node13 -->
<g id="edge1" class="edge"><title>Node12&#45;&gt;Node13</title>
<path fill="none" stroke="midnightblue" d="M76.8056,-14.5C84.7884,-14.5 93.4895,-14.5 102.328,-14.5"/>
<polygon fill="midnightblue" stroke="midnightblue" points="102.334,-18.0001 112.334,-14.5 102.334,-11.0001 102.334,-18.0001"/>
</g>
<!-- Node14 -->
<g id="node3" class="node"><title>Node14</title>
<g id="a_node3"><a xlink:href="namespacecaiman_1_1mmapping.html#a14d47c076020d7d3adf2599ed3354e4b" target="_top" xlink:title="caiman.mmapping.dot\l_place_holder">
<polygon fill="white" stroke="black" points="281.295,-0.5 281.295,-28.5 395.679,-28.5 395.679,-0.5 281.295,-0.5"/>
<text text-anchor="start" x="289.295" y="-16.5" font-family="Helvetica,sans-Serif" font-size="10.00">caiman.mmapping.dot</text>
<text text-anchor="middle" x="338.487" y="-6.5" font-family="Helvetica,sans-Serif" font-size="10.00">_place_holder</text>
</a>
</g>
</g>
<!-- Node13&#45;&gt;Node14 -->
<g id="edge2" class="edge"><title>Node13&#45;&gt;Node14</title>
<path fill="none" stroke="midnightblue" d="M245.381,-14.5C253.796,-14.5 262.42,-14.5 270.854,-14.5"/>
<polygon fill="midnightblue" stroke="midnightblue" points="271.02,-18.0001 281.02,-14.5 271.02,-11.0001 271.02,-18.0001"/>
</g>
<!-- Node15 -->
<g id="node4" class="node"><title>Node15</title>
<g id="a_node4"><a xlink:href="namespacecaiman_1_1mmapping.html#aeb2ed62e4a9028089a2eec09d392707f" target="_top" xlink:title="Load a memory mapped file created by the function save_memmap. ">
<polygon fill="white" stroke="black" points="431.679,-0.5 431.679,-28.5 551.067,-28.5 551.067,-0.5 431.679,-0.5"/>
<text text-anchor="start" x="439.679" y="-16.5" font-family="Helvetica,sans-Serif" font-size="10.00">caiman.mmapping.load</text>
<text text-anchor="middle" x="491.373" y="-6.5" font-family="Helvetica,sans-Serif" font-size="10.00">_memmap</text>
</a>
</g>
</g>
<!-- Node14&#45;&gt;Node15 -->
<g id="edge3" class="edge"><title>Node14&#45;&gt;Node15</title>
<path fill="none" stroke="midnightblue" d="M396.101,-14.5C404.305,-14.5 412.826,-14.5 421.242,-14.5"/>
<polygon fill="midnightblue" stroke="midnightblue" points="421.427,-18.0001 431.427,-14.5 421.427,-11.0001 421.427,-18.0001"/>
</g>
</g>
</svg>
