<?xml version="1.0" encoding="UTF-8" standalone="no"?>
<!DOCTYPE svg PUBLIC "-//W3C//DTD SVG 1.1//EN"
 "http://www.w3.org/Graphics/SVG/1.1/DTD/svg11.dtd">
<!-- Generated by graphviz version 2.38.0 (20140413.2041)
 -->
<!-- Title: isin Pages: 1 -->
<svg width="532pt" height="37pt"
 viewBox="0.00 0.00 531.84 37.00" xmlns="http://www.w3.org/2000/svg" xmlns:xlink="http://www.w3.org/1999/xlink">
<g id="graph0" class="graph" transform="scale(1 1) rotate(0) translate(4 33)">
<title>isin</title>
<polygon fill="white" stroke="none" points="-4,4 -4,-33 527.836,-33 527.836,4 -4,4"/>
<!-- Node1 -->
<g id="node1" class="node"><title>Node1</title>
<polygon fill="#bfbfbf" stroke="black" points="0,-5.5 0,-23.5 31.0049,-23.5 31.0049,-5.5 0,-5.5"/>
<text text-anchor="middle" x="15.5024" y="-11.5" font-family="Helvetica,sans-Serif" font-size="10.00">isin</text>
</g>
<!-- Node2 -->
<g id="node2" class="node"><title>Node2</title>
<g id="a_node2"><a xlink:href="classcaiman_1_1gui_1_1gui_1_1_g_u_i.html#a06508ecd0b0e41023403958b0d08f995" target="_top" xlink:title="caiman.gui.gui.GUI.get\l_current_roi">
<polygon fill="white" stroke="black" points="67.0049,-0.5 67.0049,-28.5 184.724,-28.5 184.724,-0.5 67.0049,-0.5"/>
<text text-anchor="start" x="75.0049" y="-16.5" font-family="Helvetica,sans-Serif" font-size="10.00">caiman.gui.gui.GUI.get</text>
<text text-anchor="middle" x="125.864" y="-6.5" font-family="Helvetica,sans-Serif" font-size="10.00">_current_roi</text>
</a>
</g>
</g>
<!-- Node1&#45;&gt;Node2 -->
<g id="edge1" class="edge"><title>Node1&#45;&gt;Node2</title>
<path fill="none" stroke="midnightblue" d="M41.2065,-14.5C48.965,-14.5 57.8829,-14.5 66.9409,-14.5"/>
<polygon fill="midnightblue" stroke="midnightblue" points="41.1166,-11.0001 31.1166,-14.5 41.1166,-18.0001 41.1166,-11.0001"/>
</g>
<!-- Node3 -->
<g id="node3" class="node"><title>Node3</title>
<g id="a_node3"><a xlink:href="classcaiman_1_1gui_1_1gui_1_1_g_u_i.html#af25f6f83cd7cf2d40b222224a9230542" target="_top" xlink:title="caiman.gui.gui.GUI.plot\l_current_traces">
<polygon fill="white" stroke="black" points="220.724,-0.5 220.724,-28.5 340.664,-28.5 340.664,-0.5 220.724,-0.5"/>
<text text-anchor="start" x="228.724" y="-16.5" font-family="Helvetica,sans-Serif" font-size="10.00">caiman.gui.gui.GUI.plot</text>
<text text-anchor="middle" x="280.694" y="-6.5" font-family="Helvetica,sans-Serif" font-size="10.00">_current_traces</text>
</a>
</g>
</g>
<!-- Node2&#45;&gt;Node3 -->
<g id="edge2" class="edge"><title>Node2&#45;&gt;Node3</title>
<path fill="none" stroke="midnightblue" d="M195.295,-14.5C203.748,-14.5 212.332,-14.5 220.628,-14.5"/>
<polygon fill="midnightblue" stroke="midnightblue" points="195.079,-11.0001 185.079,-14.5 195.079,-18.0001 195.079,-11.0001"/>
</g>
<!-- Node4 -->
<g id="node4" class="node"><title>Node4</title>
<g id="a_node4"><a xlink:href="classcaiman_1_1gui_1_1gui_1_1_g_u_i.html#a211940967eecd3ffe6da9a52fb45c242" target="_top" xlink:title="caiman.gui.gui.GUI.evt_zoom">
<polygon fill="white" stroke="black" points="376.664,-5.5 376.664,-23.5 523.836,-23.5 523.836,-5.5 376.664,-5.5"/>
<text text-anchor="middle" x="450.25" y="-11.5" font-family="Helvetica,sans-Serif" font-size="10.00">caiman.gui.gui.GUI.evt_zoom</text>
</a>
</g>
</g>
<!-- Node3&#45;&gt;Node4 -->
<g id="edge3" class="edge"><title>Node3&#45;&gt;Node4</title>
<path fill="none" stroke="midnightblue" d="M350.967,-14.5C359.431,-14.5 368.099,-14.5 376.611,-14.5"/>
<polygon fill="midnightblue" stroke="midnightblue" points="350.768,-11.0001 340.768,-14.5 350.768,-18.0001 350.768,-11.0001"/>
</g>
</g>
</svg>
