<?xml version="1.0" encoding="UTF-8" standalone="no"?>
<!DOCTYPE svg PUBLIC "-//W3C//DTD SVG 1.1//EN"
 "http://www.w3.org/Graphics/SVG/1.1/DTD/svg11.dtd">
<!-- Generated by graphviz version 2.38.0 (20140413.2041)
 -->
<!-- Title: nb_view_patches3d Pages: 1 -->
<svg width="451pt" height="111pt"
 viewBox="0.00 0.00 450.93 111.00" xmlns="http://www.w3.org/2000/svg" xmlns:xlink="http://www.w3.org/1999/xlink">
<g id="graph0" class="graph" transform="scale(1 1) rotate(0) translate(4 107)">
<title>nb_view_patches3d</title>
<polygon fill="white" stroke="none" points="-4,4 -4,-107 446.93,-107 446.93,4 -4,4"/>
<!-- Node31 -->
<g id="node1" class="node"><title>Node31</title>
<polygon fill="#bfbfbf" stroke="black" points="0,-18.5 0,-36.5 104.398,-36.5 104.398,-18.5 0,-18.5"/>
<text text-anchor="middle" x="52.1992" y="-24.5" font-family="Helvetica,sans-Serif" font-size="10.00">nb_view_patches3d</text>
</g>
<!-- Node32 -->
<g id="node2" class="node"><title>Node32</title>
<g id="a_node2"><a xlink:href="namespacecaiman_1_1summary__images.html#ae17ab7076653cb3f5db43612a005c646" target="_top" xlink:title="Computes the correlation image for the input dataset Y. ">
<polygon fill="white" stroke="black" points="140.398,-74.5 140.398,-102.5 293.669,-102.5 293.669,-74.5 140.398,-74.5"/>
<text text-anchor="start" x="148.398" y="-90.5" font-family="Helvetica,sans-Serif" font-size="10.00">caiman.summary_images.local</text>
<text text-anchor="middle" x="217.034" y="-80.5" font-family="Helvetica,sans-Serif" font-size="10.00">_correlations</text>
</a>
</g>
</g>
<!-- Node31&#45;&gt;Node32 -->
<g id="edge1" class="edge"><title>Node31&#45;&gt;Node32</title>
<path fill="none" stroke="midnightblue" d="M72.3326,-36.6023C89.8277,-44.7409 116.536,-56.706 140.398,-65.5 145.843,-67.5067 151.553,-69.4779 157.291,-71.3706"/>
<polygon fill="midnightblue" stroke="midnightblue" points="156.342,-74.742 166.934,-74.4743 158.487,-68.0786 156.342,-74.742"/>
</g>
<!-- Node33 -->
<g id="node3" class="node"><title>Node33</title>
<g id="a_node3"><a xlink:href="namespacecaiman_1_1utils_1_1visualization.html#ad48f24a70009a82e7a8cafa02e283a0e" target="_top" xlink:title="Plots contour of spatial components against a background image and returns their coordinates. ">
<polygon fill="white" stroke="black" points="179.014,-37.5 179.014,-55.5 255.053,-55.5 255.053,-37.5 179.014,-37.5"/>
<text text-anchor="middle" x="217.034" y="-43.5" font-family="Helvetica,sans-Serif" font-size="10.00">plot_contours</text>
</a>
</g>
</g>
<!-- Node31&#45;&gt;Node33 -->
<g id="edge2" class="edge"><title>Node31&#45;&gt;Node33</title>
<path fill="none" stroke="midnightblue" d="M104.721,-33.5117C125.192,-35.9003 148.591,-38.6305 168.635,-40.9694"/>
<polygon fill="midnightblue" stroke="midnightblue" points="168.44,-44.4703 178.778,-42.1529 169.251,-37.5175 168.44,-44.4703"/>
</g>
<!-- Node35 -->
<g id="node5" class="node"><title>Node35</title>
<g id="a_node5"><a xlink:href="namespacecaiman_1_1utils_1_1visualization.html#a4414d9cf72aae1de86fcc5346deaeb3a" target="_top" xlink:title="Gets contour of spatial components and returns their coordinates. ">
<polygon fill="white" stroke="black" points="174.563,-0.5 174.563,-18.5 259.504,-18.5 259.504,-0.5 174.563,-0.5"/>
<text text-anchor="middle" x="217.034" y="-6.5" font-family="Helvetica,sans-Serif" font-size="10.00">get_contours3d</text>
</a>
</g>
</g>
<!-- Node31&#45;&gt;Node35 -->
<g id="edge4" class="edge"><title>Node31&#45;&gt;Node35</title>
<path fill="none" stroke="midnightblue" d="M85.3701,-18.44C107.872,-14.6419 138.412,-10.9891 164.308,-8.88371"/>
<polygon fill="midnightblue" stroke="midnightblue" points="164.636,-12.3691 174.346,-8.13035 164.112,-5.38869 164.636,-12.3691"/>
</g>
<!-- Node34 -->
<g id="node4" class="node"><title>Node34</title>
<g id="a_node4"><a xlink:href="namespacecaiman_1_1base_1_1rois.html#ae37bc9f1a4e815bd7d8e44a2334883a2" target="_top" xlink:title="Calculation of the center of mass for spatial components. ">
<polygon fill="white" stroke="black" points="329.669,-37.5 329.669,-55.5 442.93,-55.5 442.93,-37.5 329.669,-37.5"/>
<text text-anchor="middle" x="386.299" y="-43.5" font-family="Helvetica,sans-Serif" font-size="10.00">caiman.base.rois.com</text>
</a>
</g>
</g>
<!-- Node33&#45;&gt;Node34 -->
<g id="edge3" class="edge"><title>Node33&#45;&gt;Node34</title>
<path fill="none" stroke="midnightblue" d="M255.155,-46.5C274.016,-46.5 297.504,-46.5 319.315,-46.5"/>
<polygon fill="midnightblue" stroke="midnightblue" points="319.526,-50.0001 329.526,-46.5 319.526,-43.0001 319.526,-50.0001"/>
</g>
<!-- Node35&#45;&gt;Node31 -->
<g id="edge5" class="edge"><title>Node35&#45;&gt;Node31</title>
<path fill="none" stroke="midnightblue" d="M183.766,-18.5764C164.121,-21.8885 138.377,-25.0884 114.945,-27.2463"/>
<polygon fill="midnightblue" stroke="midnightblue" points="114.381,-23.7819 104.721,-28.1328 114.986,-30.7558 114.381,-23.7819"/>
</g>
</g>
</svg>
