<?xml version="1.0" encoding="UTF-8" standalone="no"?>
<!DOCTYPE svg PUBLIC "-//W3C//DTD SVG 1.1//EN"
 "http://www.w3.org/Graphics/SVG/1.1/DTD/svg11.dtd">
<!-- Generated by graphviz version 2.38.0 (20140413.2041)
 -->
<!-- Title: regression_ipyparallel Pages: 1 -->
<svg width="293pt" height="148pt"
 viewBox="0.00 0.00 293.35 148.00" xmlns="http://www.w3.org/2000/svg" xmlns:xlink="http://www.w3.org/1999/xlink">
<g id="graph0" class="graph" transform="scale(1 1) rotate(0) translate(4 144)">
<title>regression_ipyparallel</title>
<polygon fill="white" stroke="none" points="-4,4 -4,-144 289.349,-144 289.349,4 -4,4"/>
<!-- Node25 -->
<g id="node1" class="node"><title>Node25</title>
<polygon fill="#bfbfbf" stroke="black" points="0,-55.5 0,-73.5 113.275,-73.5 113.275,-55.5 0,-55.5"/>
<text text-anchor="middle" x="56.6377" y="-61.5" font-family="Helvetica,sans-Serif" font-size="10.00">regression_ipyparallel</text>
</g>
<!-- Node26 -->
<g id="node2" class="node"><title>Node26</title>
<g id="a_node2"><a xlink:href="namespacecaiman_1_1mmapping.html#aeb2ed62e4a9028089a2eec09d392707f" target="_top" xlink:title="Load a memory mapped file created by the function save_memmap. ">
<polygon fill="white" stroke="black" points="157.618,-111.5 157.618,-139.5 277.006,-139.5 277.006,-111.5 157.618,-111.5"/>
<text text-anchor="start" x="165.618" y="-127.5" font-family="Helvetica,sans-Serif" font-size="10.00">caiman.mmapping.load</text>
<text text-anchor="middle" x="217.312" y="-117.5" font-family="Helvetica,sans-Serif" font-size="10.00">_memmap</text>
</a>
</g>
</g>
<!-- Node25&#45;&gt;Node26 -->
<g id="edge1" class="edge"><title>Node25&#45;&gt;Node26</title>
<path fill="none" stroke="midnightblue" d="M78.5985,-73.631C97.0762,-81.5747 124.791,-93.2337 149.275,-102.5 154.114,-104.331 159.172,-106.181 164.246,-107.995"/>
<polygon fill="midnightblue" stroke="midnightblue" points="163.376,-111.399 173.971,-111.422 165.703,-104.797 163.376,-111.399"/>
</g>
<!-- Node27 -->
<g id="node3" class="node"><title>Node27</title>
<g id="a_node3"><a xlink:href="namespacecaiman_1_1source__extraction_1_1cnmf_1_1spatial.html#a6f8a2090fe45b30f032bf6ec1a91c1ce" target="_top" xlink:title="Run LARS for regression problems with LASSO penalty, with optional positivity constraints. ">
<polygon fill="white" stroke="black" points="150.943,-74.5 150.943,-92.5 283.681,-92.5 283.681,-74.5 150.943,-74.5"/>
<text text-anchor="middle" x="217.312" y="-80.5" font-family="Helvetica,sans-Serif" font-size="10.00">lars_regression_noise_old</text>
</a>
</g>
</g>
<!-- Node25&#45;&gt;Node27 -->
<g id="edge2" class="edge"><title>Node25&#45;&gt;Node27</title>
<path fill="none" stroke="midnightblue" d="M113.58,-71.1987C122.426,-72.2579 131.698,-73.3682 140.9,-74.4699"/>
<polygon fill="midnightblue" stroke="midnightblue" points="140.488,-77.9455 150.833,-75.6594 141.32,-70.9952 140.488,-77.9455"/>
</g>
<!-- Node28 -->
<g id="node4" class="node"><title>Node28</title>
<g id="a_node4"><a xlink:href="namespacecaiman_1_1source__extraction_1_1cnmf_1_1spatial.html#a86e3328b66dc7efa75c0646f02815ab4" target="_top" xlink:title="nnls_L0">
<polygon fill="white" stroke="black" points="191.797,-37.5 191.797,-55.5 242.827,-55.5 242.827,-37.5 191.797,-37.5"/>
<text text-anchor="middle" x="217.312" y="-43.5" font-family="Helvetica,sans-Serif" font-size="10.00">nnls_L0</text>
</a>
</g>
</g>
<!-- Node25&#45;&gt;Node28 -->
<g id="edge3" class="edge"><title>Node25&#45;&gt;Node28</title>
<path fill="none" stroke="midnightblue" d="M113.58,-58.1539C136.119,-55.5971 161.424,-52.7265 181.279,-50.4741"/>
<polygon fill="midnightblue" stroke="midnightblue" points="181.867,-53.93 191.409,-49.325 181.078,-46.9746 181.867,-53.93"/>
</g>
<!-- Node29 -->
<g id="node5" class="node"><title>Node29</title>
<g id="a_node5"><a xlink:href="namespacecaiman_1_1source__extraction_1_1cnmf_1_1spatial.html#aca0edbf4c2cd31fe1a9c228c4099a485" target="_top" xlink:title="restrict search location to subset of pixels ">
<polygon fill="white" stroke="black" points="149.275,-0.5 149.275,-18.5 285.349,-18.5 285.349,-0.5 149.275,-0.5"/>
<text text-anchor="middle" x="217.312" y="-6.5" font-family="Helvetica,sans-Serif" font-size="10.00">determine_search_location</text>
</a>
</g>
</g>
<!-- Node25&#45;&gt;Node29 -->
<g id="edge4" class="edge"><title>Node25&#45;&gt;Node29</title>
<path fill="none" stroke="midnightblue" d="M78.8967,-55.4619C97.3307,-47.7907 124.818,-36.7477 149.275,-28.5 156.69,-25.9995 164.638,-23.5495 172.376,-21.2842"/>
<polygon fill="midnightblue" stroke="midnightblue" points="173.361,-24.643 182.01,-18.5236 171.432,-17.9138 173.361,-24.643"/>
</g>
</g>
</svg>
