<?xml version="1.0" encoding="UTF-8" standalone="no"?>
<!DOCTYPE svg PUBLIC "-//W3C//DTD SVG 1.1//EN"
 "http://www.w3.org/Graphics/SVG/1.1/DTD/svg11.dtd">
<!-- Generated by graphviz version 2.38.0 (20140413.2041)
 -->
<!-- Title: motion_correct_online_multifile Pages: 1 -->
<svg width="432pt" height="64pt"
 viewBox="0.00 0.00 432.05 64.00" xmlns="http://www.w3.org/2000/svg" xmlns:xlink="http://www.w3.org/1999/xlink">
<g id="graph0" class="graph" transform="scale(1 1) rotate(0) translate(4 60)">
<title>motion_correct_online_multifile</title>
<polygon fill="white" stroke="none" points="-4,4 -4,-60 428.053,-60 428.053,4 -4,4"/>
<!-- Node91 -->
<g id="node1" class="node"><title>Node91</title>
<polygon fill="#bfbfbf" stroke="black" points="0,-13.5 0,-41.5 114.389,-41.5 114.389,-13.5 0,-13.5"/>
<text text-anchor="start" x="8" y="-29.5" font-family="Helvetica,sans-Serif" font-size="10.00">motion_correct_online</text>
<text text-anchor="middle" x="57.1943" y="-19.5" font-family="Helvetica,sans-Serif" font-size="10.00">_multifile</text>
</g>
<!-- Node92 -->
<g id="node2" class="node"><title>Node92</title>
<g id="a_node2"><a xlink:href="namespacecaiman_1_1motion__correction.html#a178e8317ba3a15bd5e072132ce6fa9f3" target="_top" xlink:title="motion_correct_online">
<polygon fill="white" stroke="black" points="150.389,-18.5 150.389,-36.5 264.777,-36.5 264.777,-18.5 150.389,-18.5"/>
<text text-anchor="middle" x="207.583" y="-24.5" font-family="Helvetica,sans-Serif" font-size="10.00">motion_correct_online</text>
</a>
</g>
</g>
<!-- Node91&#45;&gt;Node92 -->
<g id="edge1" class="edge"><title>Node91&#45;&gt;Node92</title>
<path fill="none" stroke="midnightblue" d="M114.717,-27.5C122.985,-27.5 131.565,-27.5 140.011,-27.5"/>
<polygon fill="midnightblue" stroke="midnightblue" points="140.217,-31.0001 150.217,-27.5 140.217,-24.0001 140.217,-31.0001"/>
</g>
<!-- Node93 -->
<g id="node3" class="node"><title>Node93</title>
<g id="a_node3"><a xlink:href="namespacecaiman_1_1motion__correction.html#a089b96a369b9ee10a01d01e3df54c3bb" target="_top" xlink:title="compute median of 3D array in along axis o by binning values Parameters ">
<polygon fill="white" stroke="black" points="328.563,-37.5 328.563,-55.5 396.267,-55.5 396.267,-37.5 328.563,-37.5"/>
<text text-anchor="middle" x="362.415" y="-43.5" font-family="Helvetica,sans-Serif" font-size="10.00">bin_median</text>
</a>
</g>
</g>
<!-- Node92&#45;&gt;Node93 -->
<g id="edge2" class="edge"><title>Node92&#45;&gt;Node93</title>
<path fill="none" stroke="midnightblue" d="M265.058,-34.5209C282.662,-36.7095 301.784,-39.0867 318.319,-41.1423"/>
<polygon fill="midnightblue" stroke="midnightblue" points="317.887,-44.6155 328.242,-42.376 318.751,-37.669 317.887,-44.6155"/>
</g>
<!-- Node94 -->
<g id="node4" class="node"><title>Node94</title>
<g id="a_node4"><a xlink:href="namespacecaiman_1_1motion__correction.html#acc77134c68d447075e79102eca9649e1" target="_top" xlink:title="motion_correct_iteration">
<polygon fill="white" stroke="black" points="300.777,-0.5 300.777,-18.5 424.053,-18.5 424.053,-0.5 300.777,-0.5"/>
<text text-anchor="middle" x="362.415" y="-6.5" font-family="Helvetica,sans-Serif" font-size="10.00">motion_correct_iteration</text>
</a>
</g>
</g>
<!-- Node92&#45;&gt;Node94 -->
<g id="edge3" class="edge"><title>Node92&#45;&gt;Node94</title>
<path fill="none" stroke="midnightblue" d="M265.058,-20.8486C273.37,-19.8697 282.02,-18.8509 290.576,-17.8431"/>
<polygon fill="midnightblue" stroke="midnightblue" points="291.03,-21.314 300.552,-16.6682 290.211,-14.362 291.03,-21.314"/>
</g>
</g>
</svg>
