<?xml version="1.0" encoding="UTF-8" standalone="no"?>
<!DOCTYPE svg PUBLIC "-//W3C//DTD SVG 1.1//EN"
 "http://www.w3.org/Graphics/SVG/1.1/DTD/svg11.dtd">
<!-- Generated by graphviz version 2.38.0 (20140413.2041)
 -->
<!-- Title: main Pages: 1 -->
<svg width="201pt" height="27pt"
 viewBox="0.00 0.00 201.06 27.00" xmlns="http://www.w3.org/2000/svg" xmlns:xlink="http://www.w3.org/1999/xlink">
<g id="graph0" class="graph" transform="scale(1 1) rotate(0) translate(4 23)">
<title>main</title>
<polygon fill="white" stroke="none" points="-4,4 -4,-23 197.063,-23 197.063,4 -4,4"/>
<!-- Node27 -->
<g id="node1" class="node"><title>Node27</title>
<polygon fill="#bfbfbf" stroke="black" points="0,-0.5 0,-18.5 37.6748,-18.5 37.6748,-0.5 0,-0.5"/>
<text text-anchor="middle" x="18.8374" y="-6.5" font-family="Helvetica,sans-Serif" font-size="10.00">main</text>
</g>
<!-- Node28 -->
<g id="node2" class="node"><title>Node28</title>
<g id="a_node2"><a xlink:href="namespacecaiman_1_1behavior_1_1behavior.html#ac7ebff37cde3a2bef4c8613654b60395" target="_top" xlink:title="Normalize the components using the std of the components obtaining using biunary masks. ">
<polygon fill="white" stroke="black" points="73.6748,-0.5 73.6748,-18.5 193.063,-18.5 193.063,-0.5 73.6748,-0.5"/>
<text text-anchor="middle" x="133.369" y="-6.5" font-family="Helvetica,sans-Serif" font-size="10.00">normalize_components</text>
</a>
</g>
</g>
<!-- Node27&#45;&gt;Node28 -->
<g id="edge1" class="edge"><title>Node27&#45;&gt;Node28</title>
<path fill="none" stroke="midnightblue" d="M47.8968,-3.5688C55.7227,-3.07263 64.5307,-2.80196 73.4281,-2.75679"/>
<polygon fill="midnightblue" stroke="midnightblue" points="47.5989,-0.0813893 37.9176,-4.38518 48.1697,-7.05808 47.5989,-0.0813893"/>
</g>
<!-- Node28&#45;&gt;Node27 -->
<g id="edge2" class="edge"><title>Node28&#45;&gt;Node27</title>
<path fill="none" stroke="midnightblue" d="M63.2067,-16.0899C53.9189,-15.8555 45.1265,-15.3638 37.9176,-14.6148"/>
<polygon fill="midnightblue" stroke="midnightblue" points="63.3767,-19.5927 73.4281,-16.2432 63.4817,-12.5935 63.3767,-19.5927"/>
</g>
</g>
</svg>
