<?xml version="1.0" encoding="UTF-8" standalone="no"?>
<!DOCTYPE svg PUBLIC "-//W3C//DTD SVG 1.1//EN"
 "http://www.w3.org/Graphics/SVG/1.1/DTD/svg11.dtd">
<!-- Generated by graphviz version 2.38.0 (20140413.2041)
 -->
<!-- Title: _nnls Pages: 1 -->
<svg width="912pt" height="126pt"
 viewBox="0.00 0.00 911.57 126.00" xmlns="http://www.w3.org/2000/svg" xmlns:xlink="http://www.w3.org/1999/xlink">
<g id="graph0" class="graph" transform="scale(1 1) rotate(0) translate(4 122)">
<title>_nnls</title>
<polygon fill="white" stroke="none" points="-4,4 -4,-122 907.573,-122 907.573,4 -4,4"/>
<!-- Node1 -->
<g id="node1" class="node"><title>Node1</title>
<polygon fill="#bfbfbf" stroke="black" points="0,-47.5 0,-65.5 39.9062,-65.5 39.9062,-47.5 0,-47.5"/>
<text text-anchor="middle" x="19.9531" y="-53.5" font-family="Helvetica,sans-Serif" font-size="10.00">_nnls</text>
</g>
<!-- Node2 -->
<g id="node2" class="node"><title>Node2</title>
<g id="a_node2"><a xlink:href="namespacecaiman_1_1source__extraction_1_1cnmf_1_1deconvolution.html#affae481e26d5e13bc6f62c6e643b63d5" target="_top" xlink:title="Infer the most likely discretized spike train underlying an AR(2) fluorescence trace. ">
<polygon fill="white" stroke="black" points="75.9062,-47.5 75.9062,-65.5 115.812,-65.5 115.812,-47.5 75.9062,-47.5"/>
<text text-anchor="middle" x="95.8594" y="-53.5" font-family="Helvetica,sans-Serif" font-size="10.00">onnls</text>
</a>
</g>
</g>
<!-- Node1&#45;&gt;Node2 -->
<g id="edge1" class="edge"><title>Node1&#45;&gt;Node2</title>
<path fill="none" stroke="midnightblue" d="M50.1238,-56.5C58.7899,-56.5 68.0542,-56.5 75.8912,-56.5"/>
<polygon fill="midnightblue" stroke="midnightblue" points="49.9859,-53.0001 39.9858,-56.5 49.9858,-60.0001 49.9859,-53.0001"/>
</g>
<!-- Node3 -->
<g id="node3" class="node"><title>Node3</title>
<g id="a_node3"><a xlink:href="namespacecaiman_1_1source__extraction_1_1cnmf_1_1deconvolution.html#a5753e123f06d6f8a5f53e8f1cc50baba" target="_top" xlink:title="Infer the most likely discretized spike train underlying an AR(2) fluorescence trace. ">
<polygon fill="white" stroke="black" points="151.812,-47.5 151.812,-65.5 267.871,-65.5 267.871,-47.5 151.812,-47.5"/>
<text text-anchor="middle" x="209.842" y="-53.5" font-family="Helvetica,sans-Serif" font-size="10.00">constrained_oasisAR2</text>
</a>
</g>
</g>
<!-- Node2&#45;&gt;Node3 -->
<g id="edge2" class="edge"><title>Node2&#45;&gt;Node3</title>
<path fill="none" stroke="midnightblue" d="M125.964,-50.4957C133.864,-50.0212 142.7,-49.7732 151.579,-49.7515"/>
<polygon fill="midnightblue" stroke="midnightblue" points="125.554,-47.0169 115.856,-51.283 126.097,-53.9958 125.554,-47.0169"/>
</g>
<!-- Node3&#45;&gt;Node2 -->
<g id="edge8" class="edge"><title>Node3&#45;&gt;Node2</title>
<path fill="none" stroke="midnightblue" d="M141.358,-63.122C132.052,-62.912 123.188,-62.4437 115.856,-61.717"/>
<polygon fill="midnightblue" stroke="midnightblue" points="141.537,-66.6244 151.579,-63.2485 141.623,-59.6249 141.537,-66.6244"/>
</g>
<!-- Node4 -->
<g id="node4" class="node"><title>Node4</title>
<g id="a_node4"><a xlink:href="namespacecaiman_1_1source__extraction_1_1cnmf_1_1deconvolution.html#a0afb63d84485a181bb40f2eefe7b581e" target="_top" xlink:title="Infer the most likely discretized spike train underlying a fluorescence trace. ">
<polygon fill="white" stroke="black" points="303.871,-47.5 303.871,-65.5 403.816,-65.5 403.816,-47.5 303.871,-47.5"/>
<text text-anchor="middle" x="353.844" y="-53.5" font-family="Helvetica,sans-Serif" font-size="10.00">constrained_foopsi</text>
</a>
</g>
</g>
<!-- Node3&#45;&gt;Node4 -->
<g id="edge3" class="edge"><title>Node3&#45;&gt;Node4</title>
<path fill="none" stroke="midnightblue" d="M278.433,-56.5C286.883,-56.5 295.397,-56.5 303.496,-56.5"/>
<polygon fill="midnightblue" stroke="midnightblue" points="278.19,-53.0001 268.19,-56.5 278.19,-60.0001 278.19,-53.0001"/>
</g>
<!-- Node5 -->
<g id="node5" class="node"><title>Node5</title>
<g id="a_node5"><a xlink:href="namespacecaiman_1_1source__extraction_1_1cnmf_1_1merging.html#ad08adf2e086a22ef379b10ed3ee36936" target="_top" xlink:title="Merging of spatially overlapping components that have highly correlated temporal activity The correla...">
<polygon fill="white" stroke="black" points="452.883,-89.5 452.883,-117.5 677.306,-117.5 677.306,-89.5 452.883,-89.5"/>
<text text-anchor="start" x="460.883" y="-105.5" font-family="Helvetica,sans-Serif" font-size="10.00">caiman.source_extraction.cnmf.merging.merge</text>
<text text-anchor="middle" x="565.094" y="-95.5" font-family="Helvetica,sans-Serif" font-size="10.00">_components</text>
</a>
</g>
</g>
<!-- Node4&#45;&gt;Node5 -->
<g id="edge4" class="edge"><title>Node4&#45;&gt;Node5</title>
<path fill="none" stroke="midnightblue" d="M394.168,-68.4239C408.466,-72.5425 424.8,-76.9978 439.816,-80.5 453.492,-83.6897 468.098,-86.7221 482.313,-89.4764"/>
<polygon fill="midnightblue" stroke="midnightblue" points="394.744,-64.9461 384.164,-65.5028 392.782,-71.6655 394.744,-64.9461"/>
</g>
<!-- Node6 -->
<g id="node6" class="node"><title>Node6</title>
<g id="a_node6"><a xlink:href="namespacecaiman_1_1source__extraction_1_1cnmf_1_1temporal.html#a2ede407f1e0d0722f51ddb6e99f48f9f" target="_top" xlink:title="necessary for parallel computation of the function constrained_foopsi ">
<polygon fill="white" stroke="black" points="439.816,-42.5 439.816,-70.5 690.372,-70.5 690.372,-42.5 439.816,-42.5"/>
<text text-anchor="start" x="447.816" y="-58.5" font-family="Helvetica,sans-Serif" font-size="10.00">caiman.source_extraction.cnmf.temporal.constrained</text>
<text text-anchor="middle" x="565.094" y="-48.5" font-family="Helvetica,sans-Serif" font-size="10.00">_foopsi_parallel</text>
</a>
</g>
</g>
<!-- Node4&#45;&gt;Node6 -->
<g id="edge5" class="edge"><title>Node4&#45;&gt;Node6</title>
<path fill="none" stroke="midnightblue" d="M413.979,-56.5C422.142,-56.5 430.765,-56.5 439.583,-56.5"/>
<polygon fill="midnightblue" stroke="midnightblue" points="413.904,-53.0001 403.904,-56.5 413.904,-60.0001 413.904,-53.0001"/>
</g>
<!-- Node7 -->
<g id="node7" class="node"><title>Node7</title>
<g id="a_node7"><a xlink:href="namespacecaiman_1_1tests_1_1test__deconvolution.html#aaebeed7ce9541fa4c56791c67009cdc6" target="_top" xlink:title="caiman.tests.test_deconvolution.foo">
<polygon fill="white" stroke="black" points="477.602,-5.5 477.602,-23.5 652.586,-23.5 652.586,-5.5 477.602,-5.5"/>
<text text-anchor="middle" x="565.094" y="-11.5" font-family="Helvetica,sans-Serif" font-size="10.00">caiman.tests.test_deconvolution.foo</text>
</a>
</g>
</g>
<!-- Node4&#45;&gt;Node7 -->
<g id="edge6" class="edge"><title>Node4&#45;&gt;Node7</title>
<path fill="none" stroke="midnightblue" d="M394.828,-44.6817C408.958,-40.7705 425.016,-36.6241 439.816,-33.5 457.862,-29.6909 477.535,-26.3263 495.795,-23.5278"/>
<polygon fill="midnightblue" stroke="midnightblue" points="393.602,-41.3908 384.925,-47.4702 395.499,-48.1287 393.602,-41.3908"/>
</g>
<!-- Node8 -->
<g id="node8" class="node"><title>Node8</title>
<g id="a_node8"><a xlink:href="namespacecaiman_1_1tests_1_1test__deconvolution.html#a90f82ae854f8179179664fe34973f11b" target="_top" xlink:title="caiman.tests.test_deconvolution.test\l_oasis">
<polygon fill="white" stroke="black" points="726.372,-0.5 726.372,-28.5 903.573,-28.5 903.573,-0.5 726.372,-0.5"/>
<text text-anchor="start" x="734.372" y="-16.5" font-family="Helvetica,sans-Serif" font-size="10.00">caiman.tests.test_deconvolution.test</text>
<text text-anchor="middle" x="814.973" y="-6.5" font-family="Helvetica,sans-Serif" font-size="10.00">_oasis</text>
</a>
</g>
</g>
<!-- Node7&#45;&gt;Node8 -->
<g id="edge7" class="edge"><title>Node7&#45;&gt;Node8</title>
<path fill="none" stroke="midnightblue" d="M662.911,-14.5C683.726,-14.5 705.614,-14.5 726.068,-14.5"/>
<polygon fill="midnightblue" stroke="midnightblue" points="662.79,-11.0001 652.79,-14.5 662.79,-18.0001 662.79,-11.0001"/>
</g>
</g>
</svg>
