<?xml version="1.0" encoding="UTF-8" standalone="no"?>
<!DOCTYPE svg PUBLIC "-//W3C//DTD SVG 1.1//EN"
 "http://www.w3.org/Graphics/SVG/1.1/DTD/svg11.dtd">
<!-- Generated by graphviz version 2.38.0 (20140413.2041)
 -->
<!-- Title: nf_read_roi_zip Pages: 1 -->
<svg width="274pt" height="64pt"
 viewBox="0.00 0.00 274.45 64.00" xmlns="http://www.w3.org/2000/svg" xmlns:xlink="http://www.w3.org/1999/xlink">
<g id="graph0" class="graph" transform="scale(1 1) rotate(0) translate(4 60)">
<title>nf_read_roi_zip</title>
<polygon fill="white" stroke="none" points="-4,4 -4,-60 270.452,-60 270.452,4 -4,4"/>
<!-- Node49 -->
<g id="node1" class="node"><title>Node49</title>
<polygon fill="#bfbfbf" stroke="black" points="0,-18.5 0,-36.5 84.9355,-36.5 84.9355,-18.5 0,-18.5"/>
<text text-anchor="middle" x="42.4678" y="-24.5" font-family="Helvetica,sans-Serif" font-size="10.00">nf_read_roi_zip</text>
</g>
<!-- Node50 -->
<g id="node2" class="node"><title>Node50</title>
<g id="a_node2"><a xlink:href="namespacecaiman_1_1base_1_1rois.html#a7943f7c71c288a233576f4f83df0665e" target="_top" xlink:title="points = read_roi(fileobj) ">
<polygon fill="white" stroke="black" points="160.398,-37.5 160.398,-55.5 226.989,-55.5 226.989,-37.5 160.398,-37.5"/>
<text text-anchor="middle" x="193.694" y="-43.5" font-family="Helvetica,sans-Serif" font-size="10.00">nf_read_roi</text>
</a>
</g>
</g>
<!-- Node49&#45;&gt;Node50 -->
<g id="edge1" class="edge"><title>Node49&#45;&gt;Node50</title>
<path fill="none" stroke="midnightblue" d="M85.0356,-32.7926C105.398,-35.3851 129.874,-38.5016 150.341,-41.1074"/>
<polygon fill="midnightblue" stroke="midnightblue" points="149.969,-44.5883 160.331,-42.3795 150.853,-37.6444 149.969,-44.5883"/>
</g>
<!-- Node51 -->
<g id="node3" class="node"><title>Node51</title>
<g id="a_node3"><a xlink:href="namespaceneurofinder__template.html#a5cc2db1fb105ae327fd5758df8bdef26" target="_top" xlink:title="neurofinder_template.tomask">
<polygon fill="white" stroke="black" points="120.936,-0.5 120.936,-18.5 266.452,-18.5 266.452,-0.5 120.936,-0.5"/>
<text text-anchor="middle" x="193.694" y="-6.5" font-family="Helvetica,sans-Serif" font-size="10.00">neurofinder_template.tomask</text>
</a>
</g>
</g>
<!-- Node49&#45;&gt;Node51 -->
<g id="edge2" class="edge"><title>Node49&#45;&gt;Node51</title>
<path fill="none" stroke="midnightblue" d="M85.0356,-22.486C93.1185,-21.511 101.85,-20.4578 110.721,-19.3877"/>
<polygon fill="midnightblue" stroke="midnightblue" points="111.261,-22.8481 120.77,-18.1756 110.423,-15.8984 111.261,-22.8481"/>
</g>
</g>
</svg>
