<?xml version="1.0" encoding="UTF-8" standalone="no"?>
<!DOCTYPE svg PUBLIC "-//W3C//DTD SVG 1.1//EN"
 "http://www.w3.org/Graphics/SVG/1.1/DTD/svg11.dtd">
<!-- Generated by graphviz version 2.38.0 (20140413.2041)
 -->
<!-- Title: load Pages: 1 -->
<svg width="176pt" height="27pt"
 viewBox="0.00 0.00 175.52 27.00" xmlns="http://www.w3.org/2000/svg" xmlns:xlink="http://www.w3.org/1999/xlink">
<g id="graph0" class="graph" transform="scale(1 1) rotate(0) translate(4 23)">
<title>load</title>
<polygon fill="white" stroke="none" points="-4,4 -4,-23 171.517,-23 171.517,4 -4,4"/>
<!-- Node26 -->
<g id="node1" class="node"><title>Node26</title>
<polygon fill="#bfbfbf" stroke="black" points="0,-0.5 0,-18.5 34.9062,-18.5 34.9062,-0.5 0,-0.5"/>
<text text-anchor="middle" x="17.4531" y="-6.5" font-family="Helvetica,sans-Serif" font-size="10.00">load</text>
</g>
<!-- Node27 -->
<g id="node2" class="node"><title>Node27</title>
<g id="a_node2"><a xlink:href="namespacecaiman_1_1base_1_1movies.html#a5a35758b31edb4a9b2105a058a0882a6" target="_top" xlink:title="load movies from list of file names ">
<polygon fill="white" stroke="black" points="70.9062,-0.5 70.9062,-18.5 167.517,-18.5 167.517,-0.5 70.9062,-0.5"/>
<text text-anchor="middle" x="119.211" y="-6.5" font-family="Helvetica,sans-Serif" font-size="10.00">load_movie_chain</text>
</a>
</g>
</g>
<!-- Node26&#45;&gt;Node27 -->
<g id="edge1" class="edge"><title>Node26&#45;&gt;Node27</title>
<path fill="none" stroke="midnightblue" d="M44.999,-3.45469C52.9234,-2.93884 61.8622,-2.7062 70.7015,-2.75677"/>
<polygon fill="midnightblue" stroke="midnightblue" points="44.584,0.0224901 34.9262,-4.33368 45.1926,-6.95101 44.584,0.0224901"/>
</g>
<!-- Node27&#45;&gt;Node26 -->
<g id="edge2" class="edge"><title>Node27&#45;&gt;Node26</title>
<path fill="none" stroke="midnightblue" d="M60.4756,-16.175C51.1291,-15.9953 42.1602,-15.4924 34.9262,-14.6663"/>
<polygon fill="midnightblue" stroke="midnightblue" points="60.6784,-19.6763 70.7015,-16.2432 60.7251,-12.6765 60.6784,-19.6763"/>
</g>
</g>
</svg>
