<?xml version="1.0" encoding="UTF-8" standalone="no"?>
<!DOCTYPE svg PUBLIC "-//W3C//DTD SVG 1.1//EN"
 "http://www.w3.org/Graphics/SVG/1.1/DTD/svg11.dtd">
<!-- Generated by graphviz version 2.38.0 (20140413.2041)
 -->
<!-- Title: register_translation Pages: 1 -->
<svg width="251pt" height="64pt"
 viewBox="0.00 0.00 250.93 64.00" xmlns="http://www.w3.org/2000/svg" xmlns:xlink="http://www.w3.org/1999/xlink">
<g id="graph0" class="graph" transform="scale(1 1) rotate(0) translate(4 60)">
<title>register_translation</title>
<polygon fill="white" stroke="none" points="-4,4 -4,-60 246.932,-60 246.932,4 -4,4"/>
<!-- Node106 -->
<g id="node1" class="node"><title>Node106</title>
<polygon fill="#bfbfbf" stroke="black" points="0,-18.5 0,-36.5 101.044,-36.5 101.044,-18.5 0,-18.5"/>
<text text-anchor="middle" x="50.522" y="-24.5" font-family="Helvetica,sans-Serif" font-size="10.00">register_translation</text>
</g>
<!-- Node107 -->
<g id="node2" class="node"><title>Node107</title>
<g id="a_node2"><a xlink:href="namespacecaiman_1_1motion__correction.html#aa339d12f180017a763175f450816f158" target="_top" xlink:title="_upsampled_dft">
<polygon fill="white" stroke="black" points="146.407,-37.5 146.407,-55.5 233.569,-55.5 233.569,-37.5 146.407,-37.5"/>
<text text-anchor="middle" x="189.988" y="-43.5" font-family="Helvetica,sans-Serif" font-size="10.00">_upsampled_dft</text>
</a>
</g>
</g>
<!-- Node106&#45;&gt;Node107 -->
<g id="edge1" class="edge"><title>Node106&#45;&gt;Node107</title>
<path fill="none" stroke="midnightblue" d="M101.15,-34.3594C112.571,-35.9379 124.756,-37.6221 136.301,-39.2178"/>
<polygon fill="midnightblue" stroke="midnightblue" points="135.861,-42.6902 146.246,-40.5924 136.82,-35.7562 135.861,-42.6902"/>
</g>
<!-- Node108 -->
<g id="node3" class="node"><title>Node108</title>
<g id="a_node3"><a xlink:href="namespacecaiman_1_1motion__correction.html#a09859fe5f2beba321b5397662b26651b" target="_top" xlink:title="_compute_phasediff">
<polygon fill="white" stroke="black" points="137.044,-0.5 137.044,-18.5 242.932,-18.5 242.932,-0.5 137.044,-0.5"/>
<text text-anchor="middle" x="189.988" y="-6.5" font-family="Helvetica,sans-Serif" font-size="10.00">_compute_phasediff</text>
</a>
</g>
</g>
<!-- Node106&#45;&gt;Node108 -->
<g id="edge2" class="edge"><title>Node106&#45;&gt;Node108</title>
<path fill="none" stroke="midnightblue" d="M101.15,-21.0016C109.442,-19.9159 118.136,-18.7775 126.696,-17.6566"/>
<polygon fill="midnightblue" stroke="midnightblue" points="127.189,-21.122 136.65,-16.3532 126.28,-14.1812 127.189,-21.122"/>
</g>
</g>
</svg>
