<?xml version="1.0" encoding="UTF-8" standalone="no"?>
<!DOCTYPE svg PUBLIC "-//W3C//DTD SVG 1.1//EN"
 "http://www.w3.org/Graphics/SVG/1.1/DTD/svg11.dtd">
<!-- Generated by graphviz version 2.38.0 (20140413.2041)
 -->
<!-- Title: constrained_oasisAR2 Pages: 1 -->
<svg width="760pt" height="126pt"
 viewBox="0.00 0.00 759.76 126.00" xmlns="http://www.w3.org/2000/svg" xmlns:xlink="http://www.w3.org/1999/xlink">
<g id="graph0" class="graph" transform="scale(1 1) rotate(0) translate(4 122)">
<title>constrained_oasisAR2</title>
<polygon fill="white" stroke="none" points="-4,4 -4,-122 755.761,-122 755.761,4 -4,4"/>
<!-- Node45 -->
<g id="node1" class="node"><title>Node45</title>
<polygon fill="#bfbfbf" stroke="black" points="0,-10.5 0,-28.5 116.059,-28.5 116.059,-10.5 0,-10.5"/>
<text text-anchor="middle" x="58.0293" y="-16.5" font-family="Helvetica,sans-Serif" font-size="10.00">constrained_oasisAR2</text>
</g>
<!-- Node46 -->
<g id="node2" class="node"><title>Node46</title>
<g id="a_node2"><a xlink:href="namespacecaiman_1_1source__extraction_1_1cnmf_1_1deconvolution.html#a0afb63d84485a181bb40f2eefe7b581e" target="_top" xlink:title="Infer the most likely discretized spike train underlying a fluorescence trace. ">
<polygon fill="white" stroke="black" points="152.059,-47.5 152.059,-65.5 252.004,-65.5 252.004,-47.5 152.059,-47.5"/>
<text text-anchor="middle" x="202.031" y="-53.5" font-family="Helvetica,sans-Serif" font-size="10.00">constrained_foopsi</text>
</a>
</g>
</g>
<!-- Node45&#45;&gt;Node46 -->
<g id="edge1" class="edge"><title>Node45&#45;&gt;Node46</title>
<path fill="none" stroke="midnightblue" d="M103.668,-31.131C123.837,-36.3862 147.314,-42.5033 166.16,-47.414"/>
<polygon fill="midnightblue" stroke="midnightblue" points="104.326,-27.6858 93.7669,-28.5512 102.561,-34.4596 104.326,-27.6858"/>
</g>
<!-- Node51 -->
<g id="node7" class="node"><title>Node51</title>
<g id="a_node7"><a xlink:href="namespacecaiman_1_1source__extraction_1_1cnmf_1_1deconvolution.html#affae481e26d5e13bc6f62c6e643b63d5" target="_top" xlink:title="Infer the most likely discretized spike train underlying an AR(2) fluorescence trace. ">
<polygon fill="white" stroke="black" points="182.078,-10.5 182.078,-28.5 221.984,-28.5 221.984,-10.5 182.078,-10.5"/>
<text text-anchor="middle" x="202.031" y="-16.5" font-family="Helvetica,sans-Serif" font-size="10.00">onnls</text>
</a>
</g>
</g>
<!-- Node45&#45;&gt;Node51 -->
<g id="edge6" class="edge"><title>Node45&#45;&gt;Node51</title>
<path fill="none" stroke="midnightblue" d="M126.62,-12.7569C146.956,-12.6743 167.665,-13.3314 182.055,-14.7284"/>
<polygon fill="midnightblue" stroke="midnightblue" points="126.341,-9.25951 116.378,-12.8622 126.413,-16.2591 126.341,-9.25951"/>
</g>
<!-- Node47 -->
<g id="node3" class="node"><title>Node47</title>
<g id="a_node3"><a xlink:href="namespacecaiman_1_1source__extraction_1_1cnmf_1_1merging.html#ad08adf2e086a22ef379b10ed3ee36936" target="_top" xlink:title="Merging of spatially overlapping components that have highly correlated temporal activity The correla...">
<polygon fill="white" stroke="black" points="301.07,-89.5 301.07,-117.5 525.493,-117.5 525.493,-89.5 301.07,-89.5"/>
<text text-anchor="start" x="309.07" y="-105.5" font-family="Helvetica,sans-Serif" font-size="10.00">caiman.source_extraction.cnmf.merging.merge</text>
<text text-anchor="middle" x="413.282" y="-95.5" font-family="Helvetica,sans-Serif" font-size="10.00">_components</text>
</a>
</g>
</g>
<!-- Node46&#45;&gt;Node47 -->
<g id="edge2" class="edge"><title>Node46&#45;&gt;Node47</title>
<path fill="none" stroke="midnightblue" d="M242.355,-68.4239C256.654,-72.5425 272.988,-76.9978 288.004,-80.5 301.68,-83.6897 316.285,-86.7221 330.501,-89.4764"/>
<polygon fill="midnightblue" stroke="midnightblue" points="242.932,-64.9461 232.352,-65.5028 240.97,-71.6655 242.932,-64.9461"/>
</g>
<!-- Node48 -->
<g id="node4" class="node"><title>Node48</title>
<g id="a_node4"><a xlink:href="namespacecaiman_1_1source__extraction_1_1cnmf_1_1temporal.html#a2ede407f1e0d0722f51ddb6e99f48f9f" target="_top" xlink:title="necessary for parallel computation of the function constrained_foopsi ">
<polygon fill="white" stroke="black" points="288.004,-42.5 288.004,-70.5 538.56,-70.5 538.56,-42.5 288.004,-42.5"/>
<text text-anchor="start" x="296.004" y="-58.5" font-family="Helvetica,sans-Serif" font-size="10.00">caiman.source_extraction.cnmf.temporal.constrained</text>
<text text-anchor="middle" x="413.282" y="-48.5" font-family="Helvetica,sans-Serif" font-size="10.00">_foopsi_parallel</text>
</a>
</g>
</g>
<!-- Node46&#45;&gt;Node48 -->
<g id="edge3" class="edge"><title>Node46&#45;&gt;Node48</title>
<path fill="none" stroke="midnightblue" d="M262.166,-56.5C270.33,-56.5 278.952,-56.5 287.77,-56.5"/>
<polygon fill="midnightblue" stroke="midnightblue" points="262.091,-53.0001 252.091,-56.5 262.091,-60.0001 262.091,-53.0001"/>
</g>
<!-- Node49 -->
<g id="node5" class="node"><title>Node49</title>
<g id="a_node5"><a xlink:href="namespacecaiman_1_1tests_1_1test__deconvolution.html#aaebeed7ce9541fa4c56791c67009cdc6" target="_top" xlink:title="caiman.tests.test_deconvolution.foo">
<polygon fill="white" stroke="black" points="325.79,-5.5 325.79,-23.5 500.774,-23.5 500.774,-5.5 325.79,-5.5"/>
<text text-anchor="middle" x="413.282" y="-11.5" font-family="Helvetica,sans-Serif" font-size="10.00">caiman.tests.test_deconvolution.foo</text>
</a>
</g>
</g>
<!-- Node46&#45;&gt;Node49 -->
<g id="edge4" class="edge"><title>Node46&#45;&gt;Node49</title>
<path fill="none" stroke="midnightblue" d="M243.015,-44.6817C257.146,-40.7705 273.203,-36.6241 288.004,-33.5 306.05,-29.6909 325.723,-26.3263 343.983,-23.5278"/>
<polygon fill="midnightblue" stroke="midnightblue" points="241.789,-41.3908 233.112,-47.4702 243.687,-48.1287 241.789,-41.3908"/>
</g>
<!-- Node50 -->
<g id="node6" class="node"><title>Node50</title>
<g id="a_node6"><a xlink:href="namespacecaiman_1_1tests_1_1test__deconvolution.html#a90f82ae854f8179179664fe34973f11b" target="_top" xlink:title="caiman.tests.test_deconvolution.test\l_oasis">
<polygon fill="white" stroke="black" points="574.56,-0.5 574.56,-28.5 751.761,-28.5 751.761,-0.5 574.56,-0.5"/>
<text text-anchor="start" x="582.56" y="-16.5" font-family="Helvetica,sans-Serif" font-size="10.00">caiman.tests.test_deconvolution.test</text>
<text text-anchor="middle" x="663.16" y="-6.5" font-family="Helvetica,sans-Serif" font-size="10.00">_oasis</text>
</a>
</g>
</g>
<!-- Node49&#45;&gt;Node50 -->
<g id="edge5" class="edge"><title>Node49&#45;&gt;Node50</title>
<path fill="none" stroke="midnightblue" d="M511.099,-14.5C531.913,-14.5 553.801,-14.5 574.255,-14.5"/>
<polygon fill="midnightblue" stroke="midnightblue" points="510.978,-11.0001 500.978,-14.5 510.978,-18.0001 510.978,-11.0001"/>
</g>
<!-- Node51&#45;&gt;Node45 -->
<g id="edge7" class="edge"><title>Node51&#45;&gt;Node45</title>
<path fill="none" stroke="midnightblue" d="M171.753,-25.0835C155.76,-26.1023 135.39,-26.4538 116.378,-26.1378"/>
<polygon fill="midnightblue" stroke="midnightblue" points="172.361,-28.5466 182.055,-24.2716 171.811,-21.5682 172.361,-28.5466"/>
</g>
</g>
</svg>
