<?xml version="1.0" encoding="UTF-8" standalone="no"?>
<!DOCTYPE svg PUBLIC "-//W3C//DTD SVG 1.1//EN"
 "http://www.w3.org/Graphics/SVG/1.1/DTD/svg11.dtd">
<!-- Generated by graphviz version 2.38.0 (20140413.2041)
 -->
<!-- Title: _compute_phasediff Pages: 1 -->
<svg width="541pt" height="178pt"
 viewBox="0.00 0.00 541.16 178.00" xmlns="http://www.w3.org/2000/svg" xmlns:xlink="http://www.w3.org/1999/xlink">
<g id="graph0" class="graph" transform="scale(1 1) rotate(0) translate(4 174)">
<title>_compute_phasediff</title>
<polygon fill="white" stroke="none" points="-4,4 -4,-174 537.157,-174 537.157,4 -4,4"/>
<!-- Node6 -->
<g id="node1" class="node"><title>Node6</title>
<polygon fill="#bfbfbf" stroke="black" points="0,-60.5 0,-78.5 105.888,-78.5 105.888,-60.5 0,-60.5"/>
<text text-anchor="middle" x="52.9438" y="-66.5" font-family="Helvetica,sans-Serif" font-size="10.00">_compute_phasediff</text>
</g>
<!-- Node7 -->
<g id="node2" class="node"><title>Node7</title>
<g id="a_node2"><a xlink:href="namespacecaiman_1_1motion__correction.html#a0700d66a3a6b2556b1c712daf9c18a9b" target="_top" xlink:title="register_translation">
<polygon fill="white" stroke="black" points="141.888,-60.5 141.888,-78.5 242.932,-78.5 242.932,-60.5 141.888,-60.5"/>
<text text-anchor="middle" x="192.41" y="-66.5" font-family="Helvetica,sans-Serif" font-size="10.00">register_translation</text>
</a>
</g>
</g>
<!-- Node6&#45;&gt;Node7 -->
<g id="edge1" class="edge"><title>Node6&#45;&gt;Node7</title>
<path fill="none" stroke="midnightblue" d="M115.924,-69.5C124.536,-69.5 133.29,-69.5 141.639,-69.5"/>
<polygon fill="midnightblue" stroke="midnightblue" points="115.914,-66.0001 105.914,-69.5 115.914,-73.0001 115.914,-66.0001"/>
</g>
<!-- Node8 -->
<g id="node3" class="node"><title>Node8</title>
<g id="a_node3"><a xlink:href="namespacecaiman_1_1motion__correction.html#a683f5ee23e529946b17f6a87ae45e0a4" target="_top" xlink:title="Compute RMS error metric between src_image and target_image. ">
<polygon fill="white" stroke="black" points="279.212,-79.5 279.212,-97.5 365.803,-97.5 365.803,-79.5 279.212,-79.5"/>
<text text-anchor="middle" x="322.508" y="-85.5" font-family="Helvetica,sans-Serif" font-size="10.00">_compute_error</text>
</a>
</g>
</g>
<!-- Node7&#45;&gt;Node8 -->
<g id="edge2" class="edge"><title>Node7&#45;&gt;Node8</title>
<path fill="none" stroke="midnightblue" d="M252.877,-78.3205C261.76,-79.6379 270.76,-80.9729 279.191,-82.2234"/>
<polygon fill="midnightblue" stroke="midnightblue" points="253.341,-74.851 242.936,-76.8459 252.314,-81.7753 253.341,-74.851"/>
</g>
<!-- Node9 -->
<g id="node4" class="node"><title>Node9</title>
<g id="a_node4"><a xlink:href="namespacecaiman_1_1motion__correction.html#aea060208c09f0e4fb01e6d31b9acf36f" target="_top" xlink:title="perform piecewise rigid motion correction iteration, by 1) dividing the FOV in patches 2) motion corr...">
<polygon fill="white" stroke="black" points="278.932,-42.5 278.932,-60.5 366.084,-60.5 366.084,-42.5 278.932,-42.5"/>
<text text-anchor="middle" x="322.508" y="-48.5" font-family="Helvetica,sans-Serif" font-size="10.00">tile_and_correct</text>
</a>
</g>
</g>
<!-- Node7&#45;&gt;Node9 -->
<g id="edge3" class="edge"><title>Node7&#45;&gt;Node9</title>
<path fill="none" stroke="midnightblue" d="M253.043,-61.1206C261.727,-59.9002 270.521,-58.6645 278.781,-57.5039"/>
<polygon fill="midnightblue" stroke="midnightblue" points="252.351,-57.6832 242.936,-62.5407 253.326,-64.6151 252.351,-57.6832"/>
</g>
<!-- Node10 -->
<g id="node5" class="node"><title>Node10</title>
<g id="a_node5"><a xlink:href="namespaceabadura__demo.html#a98e8097ac25259476cca178403afebb1" target="_top" xlink:title="abadura_demo.tile_and\l_correct_wrapper">
<polygon fill="white" stroke="black" points="407.079,-141.5 407.079,-169.5 528.162,-169.5 528.162,-141.5 407.079,-141.5"/>
<text text-anchor="start" x="415.079" y="-157.5" font-family="Helvetica,sans-Serif" font-size="10.00">abadura_demo.tile_and</text>
<text text-anchor="middle" x="467.621" y="-147.5" font-family="Helvetica,sans-Serif" font-size="10.00">_correct_wrapper</text>
</a>
</g>
</g>
<!-- Node9&#45;&gt;Node10 -->
<g id="edge4" class="edge"><title>Node9&#45;&gt;Node10</title>
<path fill="none" stroke="midnightblue" d="M359.752,-65.6548C361.998,-67.1354 364.135,-68.7481 366.084,-70.5 389.781,-91.8021 377.581,-112.131 402.084,-132.5 406.2,-135.922 410.863,-138.851 415.754,-141.356"/>
<polygon fill="midnightblue" stroke="midnightblue" points="361.147,-62.4243 350.714,-60.5832 357.722,-68.529 361.147,-62.4243"/>
</g>
<!-- Node11 -->
<g id="node6" class="node"><title>Node11</title>
<g id="a_node6"><a xlink:href="namespacedemo__motion__correction__nonrigid.html#a7c12b0a7d034249b2ceb2b7a2a36498b" target="_top" xlink:title="demo_motion_correction\l_nonrigid.tile_and_correct\l_wrapper">
<polygon fill="white" stroke="black" points="402.084,-84.5 402.084,-122.5 533.157,-122.5 533.157,-84.5 402.084,-84.5"/>
<text text-anchor="start" x="410.084" y="-110.5" font-family="Helvetica,sans-Serif" font-size="10.00">demo_motion_correction</text>
<text text-anchor="start" x="410.084" y="-100.5" font-family="Helvetica,sans-Serif" font-size="10.00">_nonrigid.tile_and_correct</text>
<text text-anchor="middle" x="467.621" y="-90.5" font-family="Helvetica,sans-Serif" font-size="10.00">_wrapper</text>
</a>
</g>
</g>
<!-- Node9&#45;&gt;Node11 -->
<g id="edge5" class="edge"><title>Node9&#45;&gt;Node11</title>
<path fill="none" stroke="midnightblue" d="M357.87,-63.9856C374.714,-70.1058 395.366,-77.6096 414.131,-84.4278"/>
<polygon fill="midnightblue" stroke="midnightblue" points="359.03,-60.6832 348.436,-60.5577 356.64,-67.2624 359.03,-60.6832"/>
</g>
<!-- Node12 -->
<g id="node7" class="node"><title>Node12</title>
<g id="a_node7"><a xlink:href="namespacecaiman_1_1motion__correction.html#a88ef513cfa324fc8548e4fb46d7a67e5" target="_top" xlink:title="create a matrix that is used to normalize the intersection of the stiched patches ...">
<polygon fill="white" stroke="black" points="412.099,-37.5 412.099,-65.5 523.143,-65.5 523.143,-37.5 412.099,-37.5"/>
<text text-anchor="start" x="420.099" y="-53.5" font-family="Helvetica,sans-Serif" font-size="10.00">create_weight_matrix</text>
<text text-anchor="middle" x="467.621" y="-43.5" font-family="Helvetica,sans-Serif" font-size="10.00">_for_blending</text>
</a>
</g>
</g>
<!-- Node9&#45;&gt;Node12 -->
<g id="edge6" class="edge"><title>Node9&#45;&gt;Node12</title>
<path fill="none" stroke="midnightblue" d="M376.784,-44.9497C388.288,-44.6932 400.468,-44.6838 412.021,-44.9214"/>
<polygon fill="midnightblue" stroke="midnightblue" points="376.339,-41.4612 366.446,-45.2547 376.545,-48.4582 376.339,-41.4612"/>
</g>
<!-- Node13 -->
<g id="node8" class="node"><title>Node13</title>
<g id="a_node8"><a xlink:href="namespacecaiman_1_1motion__correction.html#a9c4d6e518f42c395cb58a08d2ff21f45" target="_top" xlink:title="tile_and_correct_wrapper">
<polygon fill="white" stroke="black" points="403.2,-0.5 403.2,-18.5 532.042,-18.5 532.042,-0.5 403.2,-0.5"/>
<text text-anchor="middle" x="467.621" y="-6.5" font-family="Helvetica,sans-Serif" font-size="10.00">tile_and_correct_wrapper</text>
</a>
</g>
</g>
<!-- Node9&#45;&gt;Node13 -->
<g id="edge8" class="edge"><title>Node9&#45;&gt;Node13</title>
<path fill="none" stroke="midnightblue" d="M363.903,-39.6449C386.597,-32.9849 414.487,-24.7998 435.476,-18.6401"/>
<polygon fill="midnightblue" stroke="midnightblue" points="362.819,-36.3155 354.209,-42.4899 364.79,-43.0323 362.819,-36.3155"/>
</g>
<!-- Node12&#45;&gt;Node9 -->
<g id="edge7" class="edge"><title>Node12&#45;&gt;Node9</title>
<path fill="none" stroke="midnightblue" d="M401.995,-58.2218C389.949,-58.3202 377.639,-58.1613 366.446,-57.7453"/>
<polygon fill="midnightblue" stroke="midnightblue" points="402.072,-61.7211 412.021,-58.0786 401.972,-54.7218 402.072,-61.7211"/>
</g>
</g>
</svg>
