<?xml version="1.0" encoding="UTF-8" standalone="no"?>
<!DOCTYPE svg PUBLIC "-//W3C//DTD SVG 1.1//EN"
 "http://www.w3.org/Graphics/SVG/1.1/DTD/svg11.dtd">
<!-- Generated by graphviz version 2.38.0 (20140413.2041)
 -->
<!-- Title: nb_view_patches3d Pages: 1 -->
<svg width="233pt" height="27pt"
 viewBox="0.00 0.00 233.34 27.00" xmlns="http://www.w3.org/2000/svg" xmlns:xlink="http://www.w3.org/1999/xlink">
<g id="graph0" class="graph" transform="scale(1 1) rotate(0) translate(4 23)">
<title>nb_view_patches3d</title>
<polygon fill="white" stroke="none" points="-4,4 -4,-23 229.339,-23 229.339,4 -4,4"/>
<!-- Node36 -->
<g id="node1" class="node"><title>Node36</title>
<polygon fill="#bfbfbf" stroke="black" points="0,-0.5 0,-18.5 104.398,-18.5 104.398,-0.5 0,-0.5"/>
<text text-anchor="middle" x="52.1992" y="-6.5" font-family="Helvetica,sans-Serif" font-size="10.00">nb_view_patches3d</text>
</g>
<!-- Node37 -->
<g id="node2" class="node"><title>Node37</title>
<g id="a_node2"><a xlink:href="namespacecaiman_1_1utils_1_1visualization.html#a4414d9cf72aae1de86fcc5346deaeb3a" target="_top" xlink:title="Gets contour of spatial components and returns their coordinates. ">
<polygon fill="white" stroke="black" points="140.398,-0.5 140.398,-18.5 225.339,-18.5 225.339,-0.5 140.398,-0.5"/>
<text text-anchor="middle" x="182.869" y="-6.5" font-family="Helvetica,sans-Serif" font-size="10.00">get_contours3d</text>
</a>
</g>
</g>
<!-- Node36&#45;&gt;Node37 -->
<g id="edge1" class="edge"><title>Node36&#45;&gt;Node37</title>
<path fill="none" stroke="midnightblue" d="M114.585,-2.75631C123.303,-2.71899 132.093,-2.84725 140.314,-3.1411"/>
<polygon fill="midnightblue" stroke="midnightblue" points="114.38,0.741622 104.422,-2.87617 114.463,-6.25789 114.38,0.741622"/>
</g>
<!-- Node37&#45;&gt;Node36 -->
<g id="edge2" class="edge"><title>Node37&#45;&gt;Node36</title>
<path fill="none" stroke="midnightblue" d="M130.161,-16.1331C121.679,-16.292 112.893,-16.2889 104.422,-16.1238"/>
<polygon fill="midnightblue" stroke="midnightblue" points="130.412,-19.6277 140.314,-15.8589 130.223,-12.6302 130.412,-19.6277"/>
</g>
</g>
</svg>
