<?xml version="1.0" encoding="UTF-8" standalone="no"?>
<!DOCTYPE svg PUBLIC "-//W3C//DTD SVG 1.1//EN"
 "http://www.w3.org/Graphics/SVG/1.1/DTD/svg11.dtd">
<!-- Generated by graphviz version 2.38.0 (20140413.2041)
 -->
<!-- Title: imblur Pages: 1 -->
<svg width="418pt" height="74pt"
 viewBox="0.00 0.00 418.12 74.00" xmlns="http://www.w3.org/2000/svg" xmlns:xlink="http://www.w3.org/1999/xlink">
<g id="graph0" class="graph" transform="scale(1 1) rotate(0) translate(4 70)">
<title>imblur</title>
<polygon fill="white" stroke="none" points="-4,4 -4,-70 414.117,-70 414.117,4 -4,4"/>
<!-- Node20 -->
<g id="node1" class="node"><title>Node20</title>
<polygon fill="#bfbfbf" stroke="black" points="0,-26.5 0,-44.5 43.2266,-44.5 43.2266,-26.5 0,-26.5"/>
<text text-anchor="middle" x="21.6133" y="-32.5" font-family="Helvetica,sans-Serif" font-size="10.00">imblur</text>
</g>
<!-- Node21 -->
<g id="node2" class="node"><title>Node21</title>
<g id="a_node2"><a xlink:href="namespacecaiman_1_1source__extraction_1_1cnmf_1_1initialization.html#a7dd7bbb01fcb5237fc7d7674b870c9ae" target="_top" xlink:title="Greedy initialization of spatial and temporal components using spatial Gaussian filtering. ">
<polygon fill="white" stroke="black" points="79.2266,-26.5 79.2266,-44.5 143.581,-44.5 143.581,-26.5 79.2266,-26.5"/>
<text text-anchor="middle" x="111.404" y="-32.5" font-family="Helvetica,sans-Serif" font-size="10.00">greedyROI</text>
</a>
</g>
</g>
<!-- Node20&#45;&gt;Node21 -->
<g id="edge1" class="edge"><title>Node20&#45;&gt;Node21</title>
<path fill="none" stroke="midnightblue" d="M53.4706,-35.5C61.7756,-35.5 70.7654,-35.5 79.0948,-35.5"/>
<polygon fill="midnightblue" stroke="midnightblue" points="53.4184,-32.0001 43.4184,-35.5 53.4184,-39.0001 53.4184,-32.0001"/>
</g>
<!-- Node22 -->
<g id="node3" class="node"><title>Node22</title>
<g id="a_node3"><a xlink:href="namespacecaiman_1_1source__extraction_1_1cnmf_1_1initialization.html#ad762ff1c4aefedc408fe609de7cb1ebc" target="_top" xlink:title="Initalize components. ">
<polygon fill="white" stroke="black" points="239.044,-47.5 239.044,-65.5 350.654,-65.5 350.654,-47.5 239.044,-47.5"/>
<text text-anchor="middle" x="294.849" y="-53.5" font-family="Helvetica,sans-Serif" font-size="10.00">initialize_components</text>
</a>
</g>
</g>
<!-- Node21&#45;&gt;Node22 -->
<g id="edge2" class="edge"><title>Node21&#45;&gt;Node22</title>
<path fill="none" stroke="midnightblue" d="M153.579,-40.2655C178.829,-43.1879 211.466,-46.9652 238.904,-50.1408"/>
<polygon fill="midnightblue" stroke="midnightblue" points="153.931,-36.783 143.595,-39.11 153.127,-43.7366 153.931,-36.783"/>
</g>
<!-- Node23 -->
<g id="node4" class="node"><title>Node23</title>
<g id="a_node4"><a xlink:href="namespacecaiman_1_1source__extraction_1_1cnmf_1_1utilities.html#ad671b2e9120b3437304b3149d174f625" target="_top" xlink:title="Plots contour of spatial components against a background image and allows to interactively add novel ...">
<polygon fill="white" stroke="black" points="179.581,-0.5 179.581,-28.5 410.117,-28.5 410.117,-0.5 179.581,-0.5"/>
<text text-anchor="start" x="187.581" y="-16.5" font-family="Helvetica,sans-Serif" font-size="10.00">caiman.source_extraction.cnmf.utilities.manually</text>
<text text-anchor="middle" x="294.849" y="-6.5" font-family="Helvetica,sans-Serif" font-size="10.00">_refine_components</text>
</a>
</g>
</g>
<!-- Node21&#45;&gt;Node23 -->
<g id="edge3" class="edge"><title>Node21&#45;&gt;Node23</title>
<path fill="none" stroke="midnightblue" d="M153.626,-30.7291C161.603,-29.8058 170.317,-28.7973 179.37,-27.7495"/>
<polygon fill="midnightblue" stroke="midnightblue" points="153.127,-27.2634 143.595,-31.89 153.931,-34.217 153.127,-27.2634"/>
</g>
</g>
</svg>
