<?xml version="1.0" encoding="UTF-8" standalone="no"?>
<!DOCTYPE svg PUBLIC "-//W3C//DTD SVG 1.1//EN"
 "http://www.w3.org/Graphics/SVG/1.1/DTD/svg11.dtd">
<!-- Generated by graphviz version 2.38.0 (20140413.2041)
 -->
<!-- Title: constrained_oasisAR2 Pages: 1 -->
<svg width="603pt" height="103pt"
 viewBox="0.00 0.00 602.76 103.00" xmlns="http://www.w3.org/2000/svg" xmlns:xlink="http://www.w3.org/1999/xlink">
<g id="graph0" class="graph" transform="scale(1 1) rotate(0) translate(4 99)">
<title>constrained_oasisAR2</title>
<polygon fill="white" stroke="none" points="-4,4 -4,-99 598.757,-99 598.757,4 -4,4"/>
<!-- Node37 -->
<g id="node1" class="node"><title>Node37</title>
<polygon fill="#bfbfbf" stroke="black" points="0,-57.5 0,-75.5 116.059,-75.5 116.059,-57.5 0,-57.5"/>
<text text-anchor="middle" x="58.0293" y="-63.5" font-family="Helvetica,sans-Serif" font-size="10.00">constrained_oasisAR2</text>
</g>
<!-- Node38 -->
<g id="node2" class="node"><title>Node38</title>
<g id="a_node2"><a xlink:href="namespacecaiman_1_1source__extraction_1_1cnmf_1_1deconvolution.html#a7a73db2b3e0e88f4a5f30f80944c1319" target="_top" xlink:title="estimate_time_constant">
<polygon fill="white" stroke="black" points="297.989,-38.5 297.989,-56.5 419.6,-56.5 419.6,-38.5 297.989,-38.5"/>
<text text-anchor="middle" x="358.794" y="-44.5" font-family="Helvetica,sans-Serif" font-size="10.00">estimate_time_constant</text>
</a>
</g>
</g>
<!-- Node37&#45;&gt;Node38 -->
<g id="edge1" class="edge"><title>Node37&#45;&gt;Node38</title>
<path fill="none" stroke="midnightblue" d="M116.281,-62.8591C165.126,-59.7528 235.533,-55.2753 287.735,-51.9554"/>
<polygon fill="midnightblue" stroke="midnightblue" points="288.163,-55.4354 297.921,-51.3077 287.719,-48.4495 288.163,-55.4354"/>
</g>
<!-- Node42 -->
<g id="node6" class="node"><title>Node42</title>
<g id="a_node6"><a xlink:href="namespacecaiman_1_1source__extraction_1_1cnmf_1_1deconvolution.html#affae481e26d5e13bc6f62c6e643b63d5" target="_top" xlink:title="Infer the most likely discretized spike train underlying an AR(2) fluorescence trace. ">
<polygon fill="white" stroke="black" points="187.071,-76.5 187.071,-94.5 226.977,-94.5 226.977,-76.5 187.071,-76.5"/>
<text text-anchor="middle" x="207.024" y="-82.5" font-family="Helvetica,sans-Serif" font-size="10.00">onnls</text>
</a>
</g>
</g>
<!-- Node37&#45;&gt;Node42 -->
<g id="edge5" class="edge"><title>Node37&#45;&gt;Node42</title>
<path fill="none" stroke="midnightblue" d="M116.282,-67.299C136.977,-69.5893 159.48,-72.8595 176.776,-76.2025"/>
<polygon fill="midnightblue" stroke="midnightblue" points="176.307,-79.6796 186.809,-78.2853 177.729,-72.8257 176.307,-79.6796"/>
</g>
<!-- Node44 -->
<g id="node8" class="node"><title>Node44</title>
<g id="a_node8"><a xlink:href="namespacecaiman_1_1source__extraction_1_1cnmf_1_1deconvolution.html#a7199190b4f33e4a70dedc9deea7e4c45" target="_top" xlink:title="estimate_parameters">
<polygon fill="white" stroke="black" points="152.059,-0.5 152.059,-18.5 261.989,-18.5 261.989,-0.5 152.059,-0.5"/>
<text text-anchor="middle" x="207.024" y="-6.5" font-family="Helvetica,sans-Serif" font-size="10.00">estimate_parameters</text>
</a>
</g>
</g>
<!-- Node37&#45;&gt;Node44 -->
<g id="edge8" class="edge"><title>Node37&#45;&gt;Node44</title>
<path fill="none" stroke="midnightblue" d="M82.321,-57.4682C106.691,-48.0184 145.167,-33.0986 172.737,-22.4078"/>
<polygon fill="midnightblue" stroke="midnightblue" points="174.296,-25.557 182.354,-18.6783 171.765,-19.0305 174.296,-25.557"/>
</g>
<!-- Node39 -->
<g id="node3" class="node"><title>Node39</title>
<g id="a_node3"><a xlink:href="namespacecaiman_1_1source__extraction_1_1cnmf_1_1deconvolution.html#a16b9a254776edd0d9093ee35b1ef17a2" target="_top" xlink:title="GetSn">
<polygon fill="white" stroke="black" points="455.6,-1.5 455.6,-19.5 499.949,-19.5 499.949,-1.5 455.6,-1.5"/>
<text text-anchor="middle" x="477.774" y="-7.5" font-family="Helvetica,sans-Serif" font-size="10.00">GetSn</text>
</a>
</g>
</g>
<!-- Node38&#45;&gt;Node39 -->
<g id="edge2" class="edge"><title>Node38&#45;&gt;Node39</title>
<path fill="none" stroke="midnightblue" d="M388.411,-38.4488C405.713,-32.9762 427.783,-25.9958 445.537,-20.3801"/>
<polygon fill="midnightblue" stroke="midnightblue" points="446.945,-23.6059 455.424,-17.2531 444.834,-16.9318 446.945,-23.6059"/>
</g>
<!-- Node40 -->
<g id="node4" class="node"><title>Node40</title>
<g id="a_node4"><a xlink:href="namespacecaiman_1_1source__extraction_1_1cnmf_1_1deconvolution.html#a458da977dee6e97910a1b006e899b309" target="_top" xlink:title="axcov">
<polygon fill="white" stroke="black" points="456.713,-38.5 456.713,-56.5 498.836,-56.5 498.836,-38.5 456.713,-38.5"/>
<text text-anchor="middle" x="477.774" y="-44.5" font-family="Helvetica,sans-Serif" font-size="10.00">axcov</text>
</a>
</g>
</g>
<!-- Node38&#45;&gt;Node40 -->
<g id="edge3" class="edge"><title>Node38&#45;&gt;Node40</title>
<path fill="none" stroke="midnightblue" d="M419.655,-47.5C428.958,-47.5 438.214,-47.5 446.482,-47.5"/>
<polygon fill="midnightblue" stroke="midnightblue" points="446.702,-51.0001 456.702,-47.5 446.702,-44.0001 446.702,-51.0001"/>
</g>
<!-- Node41 -->
<g id="node5" class="node"><title>Node41</title>
<g id="a_node5"><a xlink:href="namespacecaiman_1_1source__extraction_1_1cnmf_1_1deconvolution.html#a8d83696f273bd0121651cf48a6b899ae" target="_top" xlink:title="nextpow2">
<polygon fill="white" stroke="black" points="535.949,-38.5 535.949,-56.5 594.757,-56.5 594.757,-38.5 535.949,-38.5"/>
<text text-anchor="middle" x="565.353" y="-44.5" font-family="Helvetica,sans-Serif" font-size="10.00">nextpow2</text>
</a>
</g>
</g>
<!-- Node40&#45;&gt;Node41 -->
<g id="edge4" class="edge"><title>Node40&#45;&gt;Node41</title>
<path fill="none" stroke="midnightblue" d="M499.055,-47.5C507.028,-47.5 516.458,-47.5 525.635,-47.5"/>
<polygon fill="midnightblue" stroke="midnightblue" points="525.799,-51.0001 535.799,-47.5 525.799,-44.0001 525.799,-51.0001"/>
</g>
<!-- Node42&#45;&gt;Node37 -->
<g id="edge7" class="edge"><title>Node42&#45;&gt;Node37</title>
<path fill="none" stroke="midnightblue" d="M187.014,-87.7542C164.376,-87.0108 126.006,-82.4813 97.1698,-77.4313"/>
<polygon fill="midnightblue" stroke="midnightblue" points="97.4939,-73.9319 87.0239,-75.5533 96.2198,-80.815 97.4939,-73.9319"/>
</g>
<!-- Node43 -->
<g id="node7" class="node"><title>Node43</title>
<g id="a_node7"><a xlink:href="namespacecaiman_1_1source__extraction_1_1cnmf_1_1deconvolution.html#ad9f9b2ef0aad5c652f86bd8c7ae64bdd" target="_top" xlink:title="_nnls">
<polygon fill="white" stroke="black" points="338.841,-76.5 338.841,-94.5 378.748,-94.5 378.748,-76.5 338.841,-76.5"/>
<text text-anchor="middle" x="358.794" y="-82.5" font-family="Helvetica,sans-Serif" font-size="10.00">_nnls</text>
</a>
</g>
</g>
<!-- Node42&#45;&gt;Node43 -->
<g id="edge6" class="edge"><title>Node42&#45;&gt;Node43</title>
<path fill="none" stroke="midnightblue" d="M226.992,-85.5C252.51,-85.5 298.154,-85.5 328.206,-85.5"/>
<polygon fill="midnightblue" stroke="midnightblue" points="328.507,-89.0001 338.507,-85.5 328.507,-82.0001 328.507,-89.0001"/>
</g>
<!-- Node44&#45;&gt;Node38 -->
<g id="edge10" class="edge"><title>Node44&#45;&gt;Node38</title>
<path fill="none" stroke="midnightblue" d="M243.517,-18.5055C264.146,-23.7394 290.35,-30.3879 312.46,-35.9978"/>
<polygon fill="midnightblue" stroke="midnightblue" points="311.743,-39.4265 322.296,-38.4934 313.464,-32.6415 311.743,-39.4265"/>
</g>
<!-- Node44&#45;&gt;Node39 -->
<g id="edge9" class="edge"><title>Node44&#45;&gt;Node39</title>
<path fill="none" stroke="midnightblue" d="M262.086,-9.70116C317.145,-9.90603 400.618,-10.2166 445.536,-10.3838"/>
<polygon fill="midnightblue" stroke="midnightblue" points="445.549,-13.8837 455.562,-10.4211 445.575,-6.88378 445.549,-13.8837"/>
</g>
</g>
</svg>
