<?xml version="1.0" encoding="UTF-8" standalone="no"?>
<!DOCTYPE svg PUBLIC "-//W3C//DTD SVG 1.1//EN"
 "http://www.w3.org/Graphics/SVG/1.1/DTD/svg11.dtd">
<!-- Generated by graphviz version 2.38.0 (20140413.2041)
 -->
<!-- Title: update_spatial_components Pages: 1 -->
<svg width="410pt" height="74pt"
 viewBox="0.00 0.00 409.52 74.00" xmlns="http://www.w3.org/2000/svg" xmlns:xlink="http://www.w3.org/1999/xlink">
<g id="graph0" class="graph" transform="scale(1 1) rotate(0) translate(4 70)">
<title>update_spatial_components</title>
<polygon fill="white" stroke="none" points="-4,4 -4,-70 405.516,-70 405.516,4 -4,4"/>
<!-- Node45 -->
<g id="node1" class="node"><title>Node45</title>
<polygon fill="#bfbfbf" stroke="black" points="0,-21.5 0,-39.5 141.093,-39.5 141.093,-21.5 0,-21.5"/>
<text text-anchor="middle" x="70.5464" y="-27.5" font-family="Helvetica,sans-Serif" font-size="10.00">update_spatial_components</text>
</g>
<!-- Node46 -->
<g id="node2" class="node"><title>Node46</title>
<g id="a_node2"><a xlink:href="namespacecaiman_1_1source__extraction_1_1cnmf_1_1merging.html#ad08adf2e086a22ef379b10ed3ee36936" target="_top" xlink:title="Merging of spatially overlapping components that have highly correlated temporal activity The correla...">
<polygon fill="white" stroke="black" points="177.093,-37.5 177.093,-65.5 401.516,-65.5 401.516,-37.5 177.093,-37.5"/>
<text text-anchor="start" x="185.093" y="-53.5" font-family="Helvetica,sans-Serif" font-size="10.00">caiman.source_extraction.cnmf.merging.merge</text>
<text text-anchor="middle" x="289.304" y="-43.5" font-family="Helvetica,sans-Serif" font-size="10.00">_components</text>
</a>
</g>
</g>
<!-- Node45&#45;&gt;Node46 -->
<g id="edge1" class="edge"><title>Node45&#45;&gt;Node46</title>
<path fill="none" stroke="midnightblue" d="M151.346,-38.2312C159.674,-39.038 168.244,-39.8683 176.84,-40.7011"/>
<polygon fill="midnightblue" stroke="midnightblue" points="151.614,-34.7408 141.323,-37.2601 150.939,-41.7082 151.614,-34.7408"/>
</g>
<!-- Node47 -->
<g id="node3" class="node"><title>Node47</title>
<g id="a_node3"><a xlink:href="namespacecaiman_1_1source__extraction_1_1cnmf_1_1spatial.html#adbbc80bf3821229671c7f77648016071" target="_top" xlink:title="basis_denoising">
<polygon fill="white" stroke="black" points="245.445,-0.5 245.445,-18.5 333.164,-18.5 333.164,-0.5 245.445,-0.5"/>
<text text-anchor="middle" x="289.304" y="-6.5" font-family="Helvetica,sans-Serif" font-size="10.00">basis_denoising</text>
</a>
</g>
</g>
<!-- Node45&#45;&gt;Node47 -->
<g id="edge2" class="edge"><title>Node45&#45;&gt;Node47</title>
<path fill="none" stroke="midnightblue" d="M151.483,-22.7555C183.203,-19.6825 218.419,-16.2706 245.18,-13.678"/>
<polygon fill="midnightblue" stroke="midnightblue" points="150.939,-19.2918 141.323,-23.7399 151.614,-26.2592 150.939,-19.2918"/>
</g>
</g>
</svg>
