<?xml version="1.0" encoding="UTF-8" standalone="no"?>
<!DOCTYPE svg PUBLIC "-//W3C//DTD SVG 1.1//EN"
 "http://www.w3.org/Graphics/SVG/1.1/DTD/svg11.dtd">
<!-- Generated by graphviz version 2.38.0 (20140413.2041)
 -->
<!-- Title: apply_shift_iteration Pages: 1 -->
<svg width="444pt" height="225pt"
 viewBox="0.00 0.00 444.29 225.00" xmlns="http://www.w3.org/2000/svg" xmlns:xlink="http://www.w3.org/1999/xlink">
<g id="graph0" class="graph" transform="scale(1 1) rotate(0) translate(4 221)">
<title>apply_shift_iteration</title>
<polygon fill="white" stroke="none" points="-4,4 -4,-221 440.294,-221 440.294,4 -4,4"/>
<!-- Node25 -->
<g id="node1" class="node"><title>Node25</title>
<polygon fill="#bfbfbf" stroke="black" points="0,-115.5 0,-133.5 104.945,-133.5 104.945,-115.5 0,-115.5"/>
<text text-anchor="middle" x="52.4727" y="-121.5" font-family="Helvetica,sans-Serif" font-size="10.00">apply_shift_iteration</text>
</g>
<!-- Node26 -->
<g id="node2" class="node"><title>Node26</title>
<g id="a_node2"><a xlink:href="namespacecaiman_1_1motion__correction.html#af84483b6805cfea4c866952cd5fc801c" target="_top" xlink:title="apply_shift_online">
<polygon fill="white" stroke="black" points="140.945,-162.5 140.945,-180.5 237.004,-180.5 237.004,-162.5 140.945,-162.5"/>
<text text-anchor="middle" x="188.975" y="-168.5" font-family="Helvetica,sans-Serif" font-size="10.00">apply_shift_online</text>
</a>
</g>
</g>
<!-- Node25&#45;&gt;Node26 -->
<g id="edge1" class="edge"><title>Node25&#45;&gt;Node26</title>
<path fill="none" stroke="midnightblue" d="M89.1309,-136.96C112.086,-144.982 141.396,-155.224 162.121,-162.466"/>
<polygon fill="midnightblue" stroke="midnightblue" points="90.0008,-133.557 79.406,-133.562 87.6916,-140.165 90.0008,-133.557"/>
</g>
<!-- Node28 -->
<g id="node4" class="node"><title>Node28</title>
<g id="a_node4"><a xlink:href="namespacecaiman_1_1motion__correction.html#aea060208c09f0e4fb01e6d31b9acf36f" target="_top" xlink:title="perform piecewise rigid motion correction iteration, by 1) dividing the FOV in patches 2) motion corr...">
<polygon fill="white" stroke="black" points="145.398,-68.5 145.398,-86.5 232.551,-86.5 232.551,-68.5 145.398,-68.5"/>
<text text-anchor="middle" x="188.975" y="-74.5" font-family="Helvetica,sans-Serif" font-size="10.00">tile_and_correct</text>
</a>
</g>
</g>
<!-- Node25&#45;&gt;Node28 -->
<g id="edge3" class="edge"><title>Node25&#45;&gt;Node28</title>
<path fill="none" stroke="midnightblue" d="M89.1309,-112.04C112.086,-104.018 141.396,-93.7764 162.121,-86.5343"/>
<polygon fill="midnightblue" stroke="midnightblue" points="87.6916,-108.835 79.406,-115.438 90.0008,-115.443 87.6916,-108.835"/>
</g>
<!-- Node27 -->
<g id="node3" class="node"><title>Node27</title>
<g id="a_node3"><a xlink:href="classcaiman_1_1base_1_1movies_1_1movie.html#a05335edb94d8c896c53e006756680dc9" target="_top" xlink:title="caiman.base.movies.movie.apply\l_shifts_online">
<polygon fill="white" stroke="black" points="273.004,-188.5 273.004,-216.5 436.294,-216.5 436.294,-188.5 273.004,-188.5"/>
<text text-anchor="start" x="281.004" y="-204.5" font-family="Helvetica,sans-Serif" font-size="10.00">caiman.base.movies.movie.apply</text>
<text text-anchor="middle" x="354.649" y="-194.5" font-family="Helvetica,sans-Serif" font-size="10.00">_shifts_online</text>
</a>
</g>
</g>
<!-- Node26&#45;&gt;Node27 -->
<g id="edge2" class="edge"><title>Node26&#45;&gt;Node27</title>
<path fill="none" stroke="midnightblue" d="M247.153,-182.33C257.629,-184.314 268.7,-186.411 279.586,-188.472"/>
<polygon fill="midnightblue" stroke="midnightblue" points="247.793,-178.889 237.316,-180.466 246.49,-185.766 247.793,-178.889"/>
</g>
<!-- Node29 -->
<g id="node5" class="node"><title>Node29</title>
<g id="a_node5"><a xlink:href="namespaceabadura__demo.html#a98e8097ac25259476cca178403afebb1" target="_top" xlink:title="abadura_demo.tile_and\l_correct_wrapper">
<polygon fill="white" stroke="black" points="294.107,-141.5 294.107,-169.5 415.19,-169.5 415.19,-141.5 294.107,-141.5"/>
<text text-anchor="start" x="302.107" y="-157.5" font-family="Helvetica,sans-Serif" font-size="10.00">abadura_demo.tile_and</text>
<text text-anchor="middle" x="354.649" y="-147.5" font-family="Helvetica,sans-Serif" font-size="10.00">_correct_wrapper</text>
</a>
</g>
</g>
<!-- Node28&#45;&gt;Node29 -->
<g id="edge4" class="edge"><title>Node28&#45;&gt;Node29</title>
<path fill="none" stroke="midnightblue" d="M209.263,-92.7699C225.477,-104.975 249.68,-121.763 273.004,-132.5 280.278,-135.849 288.148,-138.82 296.024,-141.422"/>
<polygon fill="midnightblue" stroke="midnightblue" points="211.197,-89.842 201.133,-86.5281 206.934,-95.3942 211.197,-89.842"/>
</g>
<!-- Node30 -->
<g id="node6" class="node"><title>Node30</title>
<g id="a_node6"><a xlink:href="namespacedemo__motion__correction__nonrigid.html#a7c12b0a7d034249b2ceb2b7a2a36498b" target="_top" xlink:title="demo_motion_correction\l_nonrigid.tile_and_correct\l_wrapper">
<polygon fill="white" stroke="black" points="289.112,-84.5 289.112,-122.5 420.186,-122.5 420.186,-84.5 289.112,-84.5"/>
<text text-anchor="start" x="297.112" y="-110.5" font-family="Helvetica,sans-Serif" font-size="10.00">demo_motion_correction</text>
<text text-anchor="start" x="297.112" y="-100.5" font-family="Helvetica,sans-Serif" font-size="10.00">_nonrigid.tile_and_correct</text>
<text text-anchor="middle" x="354.649" y="-90.5" font-family="Helvetica,sans-Serif" font-size="10.00">_wrapper</text>
</a>
</g>
</g>
<!-- Node28&#45;&gt;Node30 -->
<g id="edge5" class="edge"><title>Node28&#45;&gt;Node30</title>
<path fill="none" stroke="midnightblue" d="M242.54,-85.8502C257.351,-88.2028 273.635,-90.7895 289.061,-93.2402"/>
<polygon fill="midnightblue" stroke="midnightblue" points="242.976,-82.3756 232.551,-84.2633 241.878,-89.2889 242.976,-82.3756"/>
</g>
<!-- Node31 -->
<g id="node7" class="node"><title>Node31</title>
<g id="a_node7"><a xlink:href="namespacecaiman_1_1motion__correction.html#a88ef513cfa324fc8548e4fb46d7a67e5" target="_top" xlink:title="create a matrix that is used to normalize the intersection of the stiched patches ...">
<polygon fill="white" stroke="black" points="299.127,-37.5 299.127,-65.5 410.171,-65.5 410.171,-37.5 299.127,-37.5"/>
<text text-anchor="start" x="307.127" y="-53.5" font-family="Helvetica,sans-Serif" font-size="10.00">create_weight_matrix</text>
<text text-anchor="middle" x="354.649" y="-43.5" font-family="Helvetica,sans-Serif" font-size="10.00">_for_blending</text>
</a>
</g>
</g>
<!-- Node28&#45;&gt;Node31 -->
<g id="edge6" class="edge"><title>Node28&#45;&gt;Node31</title>
<path fill="none" stroke="midnightblue" d="M225.177,-66.246C246.664,-61.7017 274.589,-57.0166 298.913,-53.7852"/>
<polygon fill="midnightblue" stroke="midnightblue" points="224.196,-62.8783 215.19,-68.4584 225.71,-69.7126 224.196,-62.8783"/>
</g>
<!-- Node32 -->
<g id="node8" class="node"><title>Node32</title>
<g id="a_node8"><a xlink:href="namespacecaiman_1_1motion__correction.html#a9c4d6e518f42c395cb58a08d2ff21f45" target="_top" xlink:title="tile_and_correct_wrapper">
<polygon fill="white" stroke="black" points="290.228,-0.5 290.228,-18.5 419.07,-18.5 419.07,-0.5 290.228,-0.5"/>
<text text-anchor="middle" x="354.649" y="-6.5" font-family="Helvetica,sans-Serif" font-size="10.00">tile_and_correct_wrapper</text>
</a>
</g>
</g>
<!-- Node28&#45;&gt;Node32 -->
<g id="edge8" class="edge"><title>Node28&#45;&gt;Node32</title>
<path fill="none" stroke="midnightblue" d="M211.263,-62.4933C227.509,-51.6605 250.805,-37.4249 273.004,-28.5 283.013,-24.4758 294.08,-21.1787 304.725,-18.5281"/>
<polygon fill="midnightblue" stroke="midnightblue" points="208.868,-59.8898 202.574,-68.4124 212.809,-65.6751 208.868,-59.8898"/>
</g>
<!-- Node31&#45;&gt;Node28 -->
<g id="edge7" class="edge"><title>Node31&#45;&gt;Node28</title>
<path fill="none" stroke="midnightblue" d="M294.725,-67.3693C274.17,-71.0774 251.517,-74.5081 232.551,-76.7425"/>
<polygon fill="midnightblue" stroke="midnightblue" points="295.429,-70.7984 304.622,-65.5308 294.151,-63.9162 295.429,-70.7984"/>
</g>
</g>
</svg>
