<?xml version="1.0" encoding="UTF-8" standalone="no"?>
<!DOCTYPE svg PUBLIC "-//W3C//DTD SVG 1.1//EN"
 "http://www.w3.org/Graphics/SVG/1.1/DTD/svg11.dtd">
<!-- Generated by graphviz version 2.38.0 (20140413.2041)
 -->
<!-- Title: sbxread Pages: 1 -->
<svg width="360pt" height="27pt"
 viewBox="0.00 0.00 359.55 27.00" xmlns="http://www.w3.org/2000/svg" xmlns:xlink="http://www.w3.org/1999/xlink">
<g id="graph0" class="graph" transform="scale(1 1) rotate(0) translate(4 23)">
<title>sbxread</title>
<polygon fill="white" stroke="none" points="-4,4 -4,-23 355.546,-23 355.546,4 -4,4"/>
<!-- Node47 -->
<g id="node1" class="node"><title>Node47</title>
<polygon fill="#bfbfbf" stroke="black" points="0,-0.5 0,-18.5 51.5762,-18.5 51.5762,-0.5 0,-0.5"/>
<text text-anchor="middle" x="25.7881" y="-6.5" font-family="Helvetica,sans-Serif" font-size="10.00">sbxread</text>
</g>
<!-- Node48 -->
<g id="node2" class="node"><title>Node48</title>
<g id="a_node2"><a xlink:href="namespacecaiman_1_1base_1_1movies.html#a1dae08ecd6c4b9ef41d5e820eb86604d" target="_top" xlink:title="loadmat_sbx">
<polygon fill="white" stroke="black" points="87.5762,-0.5 87.5762,-18.5 160.275,-18.5 160.275,-0.5 87.5762,-0.5"/>
<text text-anchor="middle" x="123.926" y="-6.5" font-family="Helvetica,sans-Serif" font-size="10.00">loadmat_sbx</text>
</a>
</g>
</g>
<!-- Node47&#45;&gt;Node48 -->
<g id="edge1" class="edge"><title>Node47&#45;&gt;Node48</title>
<path fill="none" stroke="midnightblue" d="M51.7962,-9.5C59.6338,-9.5 68.5433,-9.5 77.3415,-9.5"/>
<polygon fill="midnightblue" stroke="midnightblue" points="77.5479,-13.0001 87.5479,-9.5 77.5478,-6.0001 77.5479,-13.0001"/>
</g>
<!-- Node49 -->
<g id="node3" class="node"><title>Node49</title>
<g id="a_node3"><a xlink:href="namespacecaiman_1_1base_1_1movies.html#abb80862aafd574c59a95c0b24268be69" target="_top" xlink:title="_check_keys">
<polygon fill="white" stroke="black" points="196.275,-0.5 196.275,-18.5 270.083,-18.5 270.083,-0.5 196.275,-0.5"/>
<text text-anchor="middle" x="233.179" y="-6.5" font-family="Helvetica,sans-Serif" font-size="10.00">_check_keys</text>
</a>
</g>
</g>
<!-- Node48&#45;&gt;Node49 -->
<g id="edge2" class="edge"><title>Node48&#45;&gt;Node49</title>
<path fill="none" stroke="midnightblue" d="M160.342,-9.5C168.497,-9.5 177.29,-9.5 185.832,-9.5"/>
<polygon fill="midnightblue" stroke="midnightblue" points="186.067,-13.0001 196.067,-9.5 186.067,-6.0001 186.067,-13.0001"/>
</g>
<!-- Node50 -->
<g id="node4" class="node"><title>Node50</title>
<g id="a_node4"><a xlink:href="namespacecaiman_1_1base_1_1movies.html#a3678b9e2ae337ad61ebe7630c5e08ead" target="_top" xlink:title="A recursive function which constructs from matobjects nested dictionaries. ">
<polygon fill="white" stroke="black" points="306.083,-0.5 306.083,-18.5 351.546,-18.5 351.546,-0.5 306.083,-0.5"/>
<text text-anchor="middle" x="328.814" y="-6.5" font-family="Helvetica,sans-Serif" font-size="10.00">_todict</text>
</a>
</g>
</g>
<!-- Node49&#45;&gt;Node50 -->
<g id="edge3" class="edge"><title>Node49&#45;&gt;Node50</title>
<path fill="none" stroke="midnightblue" d="M270.113,-9.5C278.599,-9.5 287.589,-9.5 295.884,-9.5"/>
<polygon fill="midnightblue" stroke="midnightblue" points="295.928,-13.0001 305.928,-9.5 295.928,-6.0001 295.928,-13.0001"/>
</g>
</g>
</svg>
