<?xml version="1.0" encoding="UTF-8" standalone="no"?>
<!DOCTYPE svg PUBLIC "-//W3C//DTD SVG 1.1//EN"
 "http://www.w3.org/Graphics/SVG/1.1/DTD/svg11.dtd">
<!-- Generated by graphviz version 2.38.0 (20140413.2041)
 -->
<!-- Title: fft_psd_multithreading Pages: 1 -->
<svg width="376pt" height="74pt"
 viewBox="0.00 0.00 376.31 74.00" xmlns="http://www.w3.org/2000/svg" xmlns:xlink="http://www.w3.org/1999/xlink">
<g id="graph0" class="graph" transform="scale(1 1) rotate(0) translate(4 70)">
<title>fft_psd_multithreading</title>
<polygon fill="white" stroke="none" points="-4,4 -4,-70 372.306,-70 372.306,4 -4,4"/>
<!-- Node10 -->
<g id="node1" class="node"><title>Node10</title>
<polygon fill="#bfbfbf" stroke="black" points="0,-21.5 0,-39.5 114.218,-39.5 114.218,-21.5 0,-21.5"/>
<text text-anchor="middle" x="57.1089" y="-27.5" font-family="Helvetica,sans-Serif" font-size="10.00">fft_psd_multithreading</text>
</g>
<!-- Node11 -->
<g id="node2" class="node"><title>Node11</title>
<g id="a_node2"><a xlink:href="namespacecaiman_1_1mmapping.html#aeb2ed62e4a9028089a2eec09d392707f" target="_top" xlink:title="Load a memory mapped file created by the function save_memmap. ">
<polygon fill="white" stroke="black" points="150.218,-37.5 150.218,-65.5 269.606,-65.5 269.606,-37.5 150.218,-37.5"/>
<text text-anchor="start" x="158.218" y="-53.5" font-family="Helvetica,sans-Serif" font-size="10.00">caiman.mmapping.load</text>
<text text-anchor="middle" x="209.912" y="-43.5" font-family="Helvetica,sans-Serif" font-size="10.00">_memmap</text>
</a>
</g>
</g>
<!-- Node10&#45;&gt;Node11 -->
<g id="edge1" class="edge"><title>Node10&#45;&gt;Node11</title>
<path fill="none" stroke="midnightblue" d="M114.262,-38.3196C122.689,-39.493 131.459,-40.7143 140.112,-41.9193"/>
<polygon fill="midnightblue" stroke="midnightblue" points="139.802,-45.4098 150.189,-43.3226 140.768,-38.4767 139.802,-45.4098"/>
</g>
<!-- Node12 -->
<g id="node3" class="node"><title>Node12</title>
<g id="a_node3"><a xlink:href="namespacecaiman_1_1source__extraction_1_1cnmf_1_1pre__processing.html#a4ac9105671d13333d3a5ac455d1cc0d5" target="_top" xlink:title="Estimate the noise level for each pixel by averaging the power spectral density. ">
<polygon fill="white" stroke="black" points="173.367,-0.5 173.367,-18.5 246.457,-18.5 246.457,-0.5 173.367,-0.5"/>
<text text-anchor="middle" x="209.912" y="-6.5" font-family="Helvetica,sans-Serif" font-size="10.00">get_noise_fft</text>
</a>
</g>
</g>
<!-- Node10&#45;&gt;Node12 -->
<g id="edge2" class="edge"><title>Node10&#45;&gt;Node12</title>
<path fill="none" stroke="midnightblue" d="M114.262,-22.6804C130.32,-20.4443 147.625,-18.0345 162.992,-15.8946"/>
<polygon fill="midnightblue" stroke="midnightblue" points="163.86,-19.3076 173.281,-14.4617 162.894,-12.3745 163.86,-19.3076"/>
</g>
<!-- Node13 -->
<g id="node4" class="node"><title>Node13</title>
<g id="a_node4"><a xlink:href="namespacecaiman_1_1source__extraction_1_1cnmf_1_1pre__processing.html#a0f1c3f32c6192896b14b1691f8f4ce2f" target="_top" xlink:title="Averaging the PSD. ">
<polygon fill="white" stroke="black" points="305.606,-0.5 305.606,-18.5 368.306,-18.5 368.306,-0.5 305.606,-0.5"/>
<text text-anchor="middle" x="336.956" y="-6.5" font-family="Helvetica,sans-Serif" font-size="10.00">mean_psd</text>
</a>
</g>
</g>
<!-- Node12&#45;&gt;Node13 -->
<g id="edge3" class="edge"><title>Node12&#45;&gt;Node13</title>
<path fill="none" stroke="midnightblue" d="M246.745,-9.5C261.756,-9.5 279.294,-9.5 294.828,-9.5"/>
<polygon fill="midnightblue" stroke="midnightblue" points="295.207,-13.0001 305.207,-9.5 295.207,-6.0001 295.207,-13.0001"/>
</g>
</g>
</svg>
