<?xml version="1.0" encoding="UTF-8" standalone="no"?>
<!DOCTYPE svg PUBLIC "-//W3C//DTD SVG 1.1//EN"
 "http://www.w3.org/Graphics/SVG/1.1/DTD/svg11.dtd">
<!-- Generated by graphviz version 2.38.0 (20140413.2041)
 -->
<!-- Title: tile_and_correct_wrapper Pages: 1 -->
<svg width="724pt" height="287pt"
 viewBox="0.00 0.00 724.16 287.00" xmlns="http://www.w3.org/2000/svg" xmlns:xlink="http://www.w3.org/1999/xlink">
<g id="graph0" class="graph" transform="scale(1 1) rotate(0) translate(4 283)">
<title>tile_and_correct_wrapper</title>
<polygon fill="white" stroke="none" points="-4,4 -4,-283 720.155,-283 720.155,4 -4,4"/>
<!-- Node3 -->
<g id="node1" class="node"><title>Node3</title>
<polygon fill="#bfbfbf" stroke="black" points="0,-74.5 0,-92.5 128.842,-92.5 128.842,-74.5 0,-74.5"/>
<text text-anchor="middle" x="64.4209" y="-80.5" font-family="Helvetica,sans-Serif" font-size="10.00">tile_and_correct_wrapper</text>
</g>
<!-- Node4 -->
<g id="node2" class="node"><title>Node4</title>
<g id="a_node2"><a xlink:href="namespacecaiman_1_1motion__correction.html#aea060208c09f0e4fb01e6d31b9acf36f" target="_top" xlink:title="perform piecewise rigid motion correction iteration, by 1) dividing the FOV in patches 2) motion corr...">
<polygon fill="white" stroke="black" points="164.842,-90.5 164.842,-118.5 310.9,-118.5 310.9,-90.5 164.842,-90.5"/>
<text text-anchor="start" x="172.842" y="-106.5" font-family="Helvetica,sans-Serif" font-size="10.00">caiman.motion_correction.tile</text>
<text text-anchor="middle" x="237.871" y="-96.5" font-family="Helvetica,sans-Serif" font-size="10.00">_and_correct</text>
</a>
</g>
</g>
<!-- Node3&#45;&gt;Node4 -->
<g id="edge1" class="edge"><title>Node3&#45;&gt;Node4</title>
<path fill="none" stroke="midnightblue" d="M129.263,-91.3196C137.543,-92.3338 146.115,-93.3837 154.64,-94.428"/>
<polygon fill="midnightblue" stroke="midnightblue" points="154.256,-97.907 164.607,-95.6488 155.107,-90.9589 154.256,-97.907"/>
</g>
<!-- Node13 -->
<g id="node11" class="node"><title>Node13</title>
<g id="a_node11"><a xlink:href="namespaceabadura__demo.html#ac750eb83be3cd67b359e572e5c77d593" target="_top" xlink:title="motion_correction_piecewise">
<polygon fill="white" stroke="black" points="165.394,-53.5 165.394,-71.5 310.349,-71.5 310.349,-53.5 165.394,-53.5"/>
<text text-anchor="middle" x="237.871" y="-59.5" font-family="Helvetica,sans-Serif" font-size="10.00">motion_correction_piecewise</text>
</a>
</g>
</g>
<!-- Node3&#45;&gt;Node13 -->
<g id="edge12" class="edge"><title>Node3&#45;&gt;Node13</title>
<path fill="none" stroke="midnightblue" d="M129.263,-75.6804C137.679,-74.6494 146.398,-73.5816 155.063,-72.5202"/>
<polygon fill="midnightblue" stroke="midnightblue" points="155.689,-75.9698 165.189,-71.2799 154.838,-69.0217 155.689,-75.9698"/>
</g>
<!-- Node5 -->
<g id="node3" class="node"><title>Node5</title>
<g id="a_node3"><a xlink:href="namespacecaiman_1_1motion__correction.html#a0700d66a3a6b2556b1c712daf9c18a9b" target="_top" xlink:title="caiman.motion_correction.register\l_translation">
<polygon fill="white" stroke="black" points="349.405,-227.5 349.405,-255.5 516.025,-255.5 516.025,-227.5 349.405,-227.5"/>
<text text-anchor="start" x="357.405" y="-243.5" font-family="Helvetica,sans-Serif" font-size="10.00">caiman.motion_correction.register</text>
<text text-anchor="middle" x="432.715" y="-233.5" font-family="Helvetica,sans-Serif" font-size="10.00">_translation</text>
</a>
</g>
</g>
<!-- Node4&#45;&gt;Node5 -->
<g id="edge2" class="edge"><title>Node4&#45;&gt;Node5</title>
<path fill="none" stroke="midnightblue" d="M248.374,-118.792C265.262,-143.052 302.895,-192.209 346.9,-218.5 349.872,-220.275 352.983,-221.917 356.185,-223.434"/>
<polygon fill="midnightblue" stroke="midnightblue" points="354.842,-226.666 365.412,-227.388 357.599,-220.232 354.842,-226.666"/>
</g>
<!-- Node8 -->
<g id="node6" class="node"><title>Node8</title>
<g id="a_node6"><a xlink:href="namespacecaiman_1_1motion__correction.html#a54e0e94e8c54dadcad8bc6688e46c590" target="_top" xlink:title="caiman.motion_correction.apply\l_shift_iteration">
<polygon fill="white" stroke="black" points="354.125,-180.5 354.125,-208.5 511.306,-208.5 511.306,-180.5 354.125,-180.5"/>
<text text-anchor="start" x="362.125" y="-196.5" font-family="Helvetica,sans-Serif" font-size="10.00">caiman.motion_correction.apply</text>
<text text-anchor="middle" x="432.715" y="-186.5" font-family="Helvetica,sans-Serif" font-size="10.00">_shift_iteration</text>
</a>
</g>
</g>
<!-- Node4&#45;&gt;Node8 -->
<g id="edge5" class="edge"><title>Node4&#45;&gt;Node8</title>
<path fill="none" stroke="midnightblue" d="M257.838,-118.65C278.707,-133.634 313.706,-157.074 346.9,-171.5 351.59,-173.538 356.505,-175.437 361.507,-177.198"/>
<polygon fill="midnightblue" stroke="midnightblue" points="360.602,-180.585 371.195,-180.414 362.808,-173.941 360.602,-180.585"/>
</g>
<!-- Node9 -->
<g id="node7" class="node"><title>Node9</title>
<g id="a_node7"><a xlink:href="namespacecaiman_1_1motion__correction.html#ad4fabc7e2b2082da438e99a60ca41d96" target="_top" xlink:title="caiman.motion_correction.apply\l_shifts_dft">
<polygon fill="white" stroke="black" points="354.125,-133.5 354.125,-161.5 511.306,-161.5 511.306,-133.5 354.125,-133.5"/>
<text text-anchor="start" x="362.125" y="-149.5" font-family="Helvetica,sans-Serif" font-size="10.00">caiman.motion_correction.apply</text>
<text text-anchor="middle" x="432.715" y="-139.5" font-family="Helvetica,sans-Serif" font-size="10.00">_shifts_dft</text>
</a>
</g>
</g>
<!-- Node4&#45;&gt;Node9 -->
<g id="edge6" class="edge"><title>Node4&#45;&gt;Node9</title>
<path fill="none" stroke="midnightblue" d="M301.749,-118.52C320.01,-122.592 340.105,-127.073 358.92,-131.268"/>
<polygon fill="midnightblue" stroke="midnightblue" points="358.401,-134.738 368.923,-133.499 359.925,-127.906 358.401,-134.738"/>
</g>
<!-- Node10 -->
<g id="node8" class="node"><title>Node10</title>
<g id="a_node8"><a xlink:href="namespacecaiman_1_1motion__correction.html#aef362667b31a29dfcc1a0c35c87f01ad" target="_top" xlink:title="efficiently and lazily slides a window across the image Parameters img:ndarray 2D image that needs to...">
<polygon fill="white" stroke="black" points="554.53,-69.5 554.53,-97.5 716.155,-97.5 716.155,-69.5 554.53,-69.5"/>
<text text-anchor="start" x="562.53" y="-85.5" font-family="Helvetica,sans-Serif" font-size="10.00">caiman.motion_correction.sliding</text>
<text text-anchor="middle" x="635.343" y="-75.5" font-family="Helvetica,sans-Serif" font-size="10.00">_window</text>
</a>
</g>
</g>
<!-- Node4&#45;&gt;Node10 -->
<g id="edge7" class="edge"><title>Node4&#45;&gt;Node10</title>
<path fill="none" stroke="midnightblue" d="M310.947,-100.673C376.455,-97.1941 473.382,-92.0472 544.035,-88.2955"/>
<polygon fill="midnightblue" stroke="midnightblue" points="544.461,-91.7778 554.262,-87.7524 544.09,-84.7877 544.461,-91.7778"/>
</g>
<!-- Node11 -->
<g id="node9" class="node"><title>Node11</title>
<g id="a_node9"><a xlink:href="namespacecaiman_1_1motion__correction.html#a88ef513cfa324fc8548e4fb46d7a67e5" target="_top" xlink:title="create a matrix that is used to normalize the intersection of the stiched patches ...">
<polygon fill="white" stroke="black" points="352.181,-47.5 352.181,-75.5 513.25,-75.5 513.25,-47.5 352.181,-47.5"/>
<text text-anchor="start" x="360.181" y="-63.5" font-family="Helvetica,sans-Serif" font-size="10.00">caiman.motion_correction.create</text>
<text text-anchor="middle" x="432.715" y="-53.5" font-family="Helvetica,sans-Serif" font-size="10.00">_weight_matrix_for_blending</text>
</a>
</g>
</g>
<!-- Node4&#45;&gt;Node11 -->
<g id="edge8" class="edge"><title>Node4&#45;&gt;Node11</title>
<path fill="none" stroke="midnightblue" d="M277.433,-90.3754C296.103,-85.3059 319.367,-79.7157 342.121,-74.7426"/>
<polygon fill="midnightblue" stroke="midnightblue" points="343.133,-78.1051 352.172,-72.5791 341.66,-71.2618 343.133,-78.1051"/>
</g>
<!-- Node12 -->
<g id="node10" class="node"><title>Node12</title>
<g id="a_node10"><a xlink:href="namespacecaiman_1_1motion__correction.html#a93dc0dbba76cd31384bb0fdca775fff6" target="_top" xlink:title="caiman.motion_correction.compute\l_metrics_motion_correction">
<polygon fill="white" stroke="black" points="346.9,-0.5 346.9,-28.5 518.53,-28.5 518.53,-0.5 346.9,-0.5"/>
<text text-anchor="start" x="354.9" y="-16.5" font-family="Helvetica,sans-Serif" font-size="10.00">caiman.motion_correction.compute</text>
<text text-anchor="middle" x="432.715" y="-6.5" font-family="Helvetica,sans-Serif" font-size="10.00">_metrics_motion_correction</text>
</a>
</g>
</g>
<!-- Node4&#45;&gt;Node12 -->
<g id="edge11" class="edge"><title>Node4&#45;&gt;Node12</title>
<path fill="none" stroke="midnightblue" d="M292.398,-90.4163C298.899,-87.6375 305.235,-84.3571 310.9,-80.5 331.504,-66.4738 325.907,-50.9353 346.9,-37.5 349.515,-35.827 352.249,-34.2746 355.068,-32.8342"/>
<polygon fill="midnightblue" stroke="midnightblue" points="356.676,-35.9473 364.315,-28.605 353.765,-29.5816 356.676,-35.9473"/>
</g>
<!-- Node6 -->
<g id="node4" class="node"><title>Node6</title>
<g id="a_node4"><a xlink:href="namespacecaiman_1_1motion__correction.html#aa339d12f180017a763175f450816f158" target="_top" xlink:title="caiman.motion_correction.\l_upsampled_dft">
<polygon fill="white" stroke="black" points="568.705,-250.5 568.705,-278.5 701.98,-278.5 701.98,-250.5 568.705,-250.5"/>
<text text-anchor="start" x="576.705" y="-266.5" font-family="Helvetica,sans-Serif" font-size="10.00">caiman.motion_correction.</text>
<text text-anchor="middle" x="635.343" y="-256.5" font-family="Helvetica,sans-Serif" font-size="10.00">_upsampled_dft</text>
</a>
</g>
</g>
<!-- Node5&#45;&gt;Node6 -->
<g id="edge3" class="edge"><title>Node5&#45;&gt;Node6</title>
<path fill="none" stroke="midnightblue" d="M516.187,-250.955C530.053,-252.544 544.389,-254.188 558.089,-255.758"/>
<polygon fill="midnightblue" stroke="midnightblue" points="558.089,-259.281 568.422,-256.943 558.886,-252.327 558.089,-259.281"/>
</g>
<!-- Node7 -->
<g id="node5" class="node"><title>Node7</title>
<g id="a_node5"><a xlink:href="namespacecaiman_1_1motion__correction.html#a09859fe5f2beba321b5397662b26651b" target="_top" xlink:title="caiman.motion_correction.\l_compute_phasediff">
<polygon fill="white" stroke="black" points="568.705,-203.5 568.705,-231.5 701.98,-231.5 701.98,-203.5 568.705,-203.5"/>
<text text-anchor="start" x="576.705" y="-219.5" font-family="Helvetica,sans-Serif" font-size="10.00">caiman.motion_correction.</text>
<text text-anchor="middle" x="635.343" y="-209.5" font-family="Helvetica,sans-Serif" font-size="10.00">_compute_phasediff</text>
</a>
</g>
</g>
<!-- Node5&#45;&gt;Node7 -->
<g id="edge4" class="edge"><title>Node5&#45;&gt;Node7</title>
<path fill="none" stroke="midnightblue" d="M516.187,-231.634C530.189,-229.959 544.67,-228.227 558.491,-226.574"/>
<polygon fill="midnightblue" stroke="midnightblue" points="558.909,-230.049 568.422,-225.386 558.077,-223.098 558.909,-230.049"/>
</g>
<!-- Node11&#45;&gt;Node4 -->
<g id="edge10" class="edge"><title>Node11&#45;&gt;Node4</title>
<path fill="none" stroke="midnightblue" d="M393.505,-75.5293C372.708,-81.1861 346.138,-87.5019 320.912,-92.8896"/>
<polygon fill="midnightblue" stroke="midnightblue" points="320.02,-89.5005 310.953,-94.9823 321.459,-96.3508 320.02,-89.5005"/>
</g>
<!-- Node11&#45;&gt;Node10 -->
<g id="edge9" class="edge"><title>Node11&#45;&gt;Node10</title>
<path fill="none" stroke="midnightblue" d="M513.297,-70.2266C523.471,-71.3423 533.943,-72.4906 544.269,-73.6229"/>
<polygon fill="midnightblue" stroke="midnightblue" points="544.207,-77.137 554.529,-74.748 544.97,-70.1787 544.207,-77.137"/>
</g>
</g>
</svg>
