<?xml version="1.0" encoding="UTF-8" standalone="no"?>
<!DOCTYPE svg PUBLIC "-//W3C//DTD SVG 1.1//EN"
 "http://www.w3.org/Graphics/SVG/1.1/DTD/svg11.dtd">
<!-- Generated by graphviz version 2.38.0 (20140413.2041)
 -->
<!-- Title: _todict Pages: 1 -->
<svg width="581pt" height="101pt"
 viewBox="0.00 0.00 580.85 101.00" xmlns="http://www.w3.org/2000/svg" xmlns:xlink="http://www.w3.org/1999/xlink">
<g id="graph0" class="graph" transform="scale(1 1) rotate(0) translate(4 97)">
<title>_todict</title>
<polygon fill="white" stroke="none" points="-4,4 -4,-97 576.846,-97 576.846,4 -4,4"/>
<!-- Node10 -->
<g id="node1" class="node"><title>Node10</title>
<polygon fill="#bfbfbf" stroke="black" points="0,-37.5 0,-55.5 45.4629,-55.5 45.4629,-37.5 0,-37.5"/>
<text text-anchor="middle" x="22.7314" y="-43.5" font-family="Helvetica,sans-Serif" font-size="10.00">_todict</text>
</g>
<!-- Node11 -->
<g id="node2" class="node"><title>Node11</title>
<g id="a_node2"><a xlink:href="namespacecaiman_1_1base_1_1movies.html#abb80862aafd574c59a95c0b24268be69" target="_top" xlink:title="_check_keys">
<polygon fill="white" stroke="black" points="81.4629,-37.5 81.4629,-55.5 155.271,-55.5 155.271,-37.5 81.4629,-37.5"/>
<text text-anchor="middle" x="118.367" y="-43.5" font-family="Helvetica,sans-Serif" font-size="10.00">_check_keys</text>
</a>
</g>
</g>
<!-- Node10&#45;&gt;Node11 -->
<g id="edge1" class="edge"><title>Node10&#45;&gt;Node11</title>
<path fill="none" stroke="midnightblue" d="M56.1714,-46.5C64.3225,-46.5 73.1176,-46.5 81.4285,-46.5"/>
<polygon fill="midnightblue" stroke="midnightblue" points="55.9217,-43.0001 45.9217,-46.5 55.9217,-50.0001 55.9217,-43.0001"/>
</g>
<!-- Node12 -->
<g id="node3" class="node"><title>Node12</title>
<g id="a_node3"><a xlink:href="namespacecaiman_1_1base_1_1movies.html#a1dae08ecd6c4b9ef41d5e820eb86604d" target="_top" xlink:title="loadmat_sbx">
<polygon fill="white" stroke="black" points="191.271,-37.5 191.271,-55.5 263.97,-55.5 263.97,-37.5 191.271,-37.5"/>
<text text-anchor="middle" x="227.62" y="-43.5" font-family="Helvetica,sans-Serif" font-size="10.00">loadmat_sbx</text>
</a>
</g>
</g>
<!-- Node11&#45;&gt;Node12 -->
<g id="edge2" class="edge"><title>Node11&#45;&gt;Node12</title>
<path fill="none" stroke="midnightblue" d="M165.653,-46.5C174.23,-46.5 183.062,-46.5 191.249,-46.5"/>
<polygon fill="midnightblue" stroke="midnightblue" points="165.379,-43.0001 155.379,-46.5 165.379,-50.0001 165.379,-43.0001"/>
</g>
<!-- Node13 -->
<g id="node4" class="node"><title>Node13</title>
<g id="a_node4"><a xlink:href="namespacecaiman_1_1base_1_1movies.html#ad72bfc8cc5386d4470caa0be723598e9" target="_top" xlink:title="Input filename should be full path excluding .sbx. ">
<polygon fill="white" stroke="black" points="308.861,-74.5 308.861,-92.5 360.438,-92.5 360.438,-74.5 308.861,-74.5"/>
<text text-anchor="middle" x="334.649" y="-80.5" font-family="Helvetica,sans-Serif" font-size="10.00">sbxread</text>
</a>
</g>
</g>
<!-- Node12&#45;&gt;Node13 -->
<g id="edge3" class="edge"><title>Node12&#45;&gt;Node13</title>
<path fill="none" stroke="midnightblue" d="M264.051,-58.9816C278.667,-64.1305 295.264,-69.9775 308.584,-74.6699"/>
<polygon fill="midnightblue" stroke="midnightblue" points="264.908,-55.5728 254.313,-55.5512 262.582,-62.1751 264.908,-55.5728"/>
</g>
<!-- Node16 -->
<g id="node7" class="node"><title>Node16</title>
<g id="a_node7"><a xlink:href="namespacecaiman_1_1base_1_1movies.html#ad9b115e435b36308da1248112f09f0db" target="_top" xlink:title="Input filename should be full path excluding .sbx. ">
<polygon fill="white" stroke="black" points="299.97,-37.5 299.97,-55.5 369.329,-55.5 369.329,-37.5 299.97,-37.5"/>
<text text-anchor="middle" x="334.649" y="-43.5" font-family="Helvetica,sans-Serif" font-size="10.00">sbxreadskip</text>
</a>
</g>
</g>
<!-- Node12&#45;&gt;Node16 -->
<g id="edge7" class="edge"><title>Node12&#45;&gt;Node16</title>
<path fill="none" stroke="midnightblue" d="M274.435,-46.5C282.992,-46.5 291.791,-46.5 299.903,-46.5"/>
<polygon fill="midnightblue" stroke="midnightblue" points="274.178,-43.0001 264.178,-46.5 274.178,-50.0001 274.178,-43.0001"/>
</g>
<!-- Node17 -->
<g id="node8" class="node"><title>Node17</title>
<g id="a_node8"><a xlink:href="namespacecaiman_1_1base_1_1movies.html#ade25f5174c4fa7d04d35b42a01f15803" target="_top" xlink:title="Input filename should be full path excluding .sbx. ">
<polygon fill="white" stroke="black" points="305.246,-0.5 305.246,-18.5 364.053,-18.5 364.053,-0.5 305.246,-0.5"/>
<text text-anchor="middle" x="334.649" y="-6.5" font-family="Helvetica,sans-Serif" font-size="10.00">sbxshape</text>
</a>
</g>
</g>
<!-- Node12&#45;&gt;Node17 -->
<g id="edge9" class="edge"><title>Node12&#45;&gt;Node17</title>
<path fill="none" stroke="midnightblue" d="M263.902,-34.0708C278.29,-29.0023 294.618,-23.25 307.858,-18.586"/>
<polygon fill="midnightblue" stroke="midnightblue" points="262.582,-30.8249 254.313,-37.4488 264.908,-37.4272 262.582,-30.8249"/>
</g>
<!-- Node14 -->
<g id="node5" class="node"><title>Node14</title>
<g id="a_node5"><a xlink:href="namespacecaiman_1_1base_1_1movies.html#a6d585c260307278135a0b4b09440b313" target="_top" xlink:title="load movie from file. ">
<polygon fill="white" stroke="black" points="405.329,-55.5 405.329,-73.5 440.235,-73.5 440.235,-55.5 405.329,-55.5"/>
<text text-anchor="middle" x="422.782" y="-61.5" font-family="Helvetica,sans-Serif" font-size="10.00">load</text>
</a>
</g>
</g>
<!-- Node13&#45;&gt;Node14 -->
<g id="edge4" class="edge"><title>Node13&#45;&gt;Node14</title>
<path fill="none" stroke="midnightblue" d="M370.337,-75.8483C382.327,-73.2033 395.219,-70.3595 405.098,-68.1803"/>
<polygon fill="midnightblue" stroke="midnightblue" points="369.574,-72.4324 360.563,-78.0044 371.082,-79.2681 369.574,-72.4324"/>
</g>
<!-- Node15 -->
<g id="node6" class="node"><title>Node15</title>
<g id="a_node6"><a xlink:href="namespacecaiman_1_1base_1_1movies.html#a5a35758b31edb4a9b2105a058a0882a6" target="_top" xlink:title="load movies from list of file names ">
<polygon fill="white" stroke="black" points="476.235,-55.5 476.235,-73.5 572.846,-73.5 572.846,-55.5 476.235,-55.5"/>
<text text-anchor="middle" x="524.541" y="-61.5" font-family="Helvetica,sans-Serif" font-size="10.00">load_movie_chain</text>
</a>
</g>
</g>
<!-- Node14&#45;&gt;Node15 -->
<g id="edge5" class="edge"><title>Node14&#45;&gt;Node15</title>
<path fill="none" stroke="midnightblue" d="M450.328,-58.4547C458.253,-57.9388 467.191,-57.7062 476.031,-57.7568"/>
<polygon fill="midnightblue" stroke="midnightblue" points="449.913,-54.9775 440.255,-59.3337 450.522,-61.951 449.913,-54.9775"/>
</g>
<!-- Node15&#45;&gt;Node14 -->
<g id="edge6" class="edge"><title>Node15&#45;&gt;Node14</title>
<path fill="none" stroke="midnightblue" d="M465.805,-71.175C456.458,-70.9953 447.489,-70.4924 440.255,-69.6663"/>
<polygon fill="midnightblue" stroke="midnightblue" points="466.007,-74.6763 476.031,-71.2432 466.054,-67.6765 466.007,-74.6763"/>
</g>
<!-- Node16&#45;&gt;Node14 -->
<g id="edge8" class="edge"><title>Node16&#45;&gt;Node14</title>
<path fill="none" stroke="midnightblue" d="M379.571,-55.6786C388.728,-57.5924 397.835,-59.4955 405.232,-61.0414"/>
<polygon fill="midnightblue" stroke="midnightblue" points="380.196,-52.2338 369.691,-53.6141 378.764,-59.0857 380.196,-52.2338"/>
</g>
</g>
</svg>
