<?xml version="1.0" encoding="UTF-8" standalone="no"?>
<!DOCTYPE svg PUBLIC "-//W3C//DTD SVG 1.1//EN"
 "http://www.w3.org/Graphics/SVG/1.1/DTD/svg11.dtd">
<!-- Generated by graphviz version 2.38.0 (20140413.2041)
 -->
<!-- Title: basis_denoising Pages: 1 -->
<svg width="751pt" height="150pt"
 viewBox="0.00 0.00 750.66 150.00" xmlns="http://www.w3.org/2000/svg" xmlns:xlink="http://www.w3.org/1999/xlink">
<g id="graph0" class="graph" transform="scale(1 1) rotate(0) translate(4 146)">
<title>basis_denoising</title>
<polygon fill="white" stroke="none" points="-4,4 -4,-146 746.657,-146 746.657,4 -4,4"/>
<!-- Node0 -->
<g id="node1" class="node"><title>Node0</title>
<polygon fill="#bfbfbf" stroke="black" points="0,-66.5 0,-84.5 87.7188,-84.5 87.7188,-66.5 0,-66.5"/>
<text text-anchor="middle" x="43.8594" y="-72.5" font-family="Helvetica,sans-Serif" font-size="10.00">basis_denoising</text>
</g>
<!-- Node1 -->
<g id="node2" class="node"><title>Node1</title>
<g id="a_node2"><a xlink:href="namespacecaiman_1_1source__extraction_1_1cnmf_1_1spatial.html#ab7b90a8cbd754f9c03b13cf1709eebd4" target="_top" xlink:title="update spatial footprints and background through Basis Pursuit Denoising ">
<polygon fill="white" stroke="black" points="123.719,-66.5 123.719,-84.5 264.812,-84.5 264.812,-66.5 123.719,-66.5"/>
<text text-anchor="middle" x="194.265" y="-72.5" font-family="Helvetica,sans-Serif" font-size="10.00">update_spatial_components</text>
</a>
</g>
</g>
<!-- Node0&#45;&gt;Node1 -->
<g id="edge1" class="edge"><title>Node0&#45;&gt;Node1</title>
<path fill="none" stroke="midnightblue" d="M87.7845,-75.5C95.9323,-75.5 104.696,-75.5 113.565,-75.5"/>
<polygon fill="midnightblue" stroke="midnightblue" points="113.596,-79.0001 123.596,-75.5 113.596,-72.0001 113.596,-79.0001"/>
</g>
<!-- Node2 -->
<g id="node3" class="node"><title>Node2</title>
<g id="a_node3"><a xlink:href="namespacecaiman_1_1source__extraction_1_1cnmf_1_1spatial.html#aca0edbf4c2cd31fe1a9c228c4099a485" target="_top" xlink:title="restrict search location to subset of pixels ">
<polygon fill="white" stroke="black" points="300.812,-123.5 300.812,-141.5 436.885,-141.5 436.885,-123.5 300.812,-123.5"/>
<text text-anchor="middle" x="368.848" y="-129.5" font-family="Helvetica,sans-Serif" font-size="10.00">determine_search_location</text>
</a>
</g>
</g>
<!-- Node1&#45;&gt;Node2 -->
<g id="edge2" class="edge"><title>Node1&#45;&gt;Node2</title>
<path fill="none" stroke="midnightblue" d="M222.611,-84.5318C251.811,-94.1759 298.261,-109.517 330.746,-120.246"/>
<polygon fill="midnightblue" stroke="midnightblue" points="329.751,-123.603 340.345,-123.416 331.947,-116.957 329.751,-123.603"/>
</g>
<!-- Node3 -->
<g id="node4" class="node"><title>Node3</title>
<g id="a_node4"><a xlink:href="namespacecaiman_1_1mmapping.html#aeb2ed62e4a9028089a2eec09d392707f" target="_top" xlink:title="Load a memory mapped file created by the function save_memmap. ">
<polygon fill="white" stroke="black" points="623.269,-49.5 623.269,-77.5 742.657,-77.5 742.657,-49.5 623.269,-49.5"/>
<text text-anchor="start" x="631.269" y="-65.5" font-family="Helvetica,sans-Serif" font-size="10.00">caiman.mmapping.load</text>
<text text-anchor="middle" x="682.963" y="-55.5" font-family="Helvetica,sans-Serif" font-size="10.00">_memmap</text>
</a>
</g>
</g>
<!-- Node1&#45;&gt;Node3 -->
<g id="edge3" class="edge"><title>Node1&#45;&gt;Node3</title>
<path fill="none" stroke="midnightblue" d="M265.06,-76.4025C313.323,-76.8053 379.014,-76.9159 436.885,-75.5 496.324,-74.0457 563.799,-70.6102 612.879,-67.7861"/>
<polygon fill="midnightblue" stroke="midnightblue" points="613.284,-71.2686 623.064,-67.1937 612.877,-64.2804 613.284,-71.2686"/>
</g>
<!-- Node4 -->
<g id="node5" class="node"><title>Node4</title>
<g id="a_node5"><a xlink:href="namespacecaiman_1_1source__extraction_1_1cnmf_1_1spatial.html#a3fa5db8c88b06457233eb35dbcea3588" target="_top" xlink:title="threshold_components">
<polygon fill="white" stroke="black" points="310.26,-47.5 310.26,-65.5 427.437,-65.5 427.437,-47.5 310.26,-47.5"/>
<text text-anchor="middle" x="368.848" y="-53.5" font-family="Helvetica,sans-Serif" font-size="10.00">threshold_components</text>
</a>
</g>
</g>
<!-- Node1&#45;&gt;Node4 -->
<g id="edge4" class="edge"><title>Node1&#45;&gt;Node4</title>
<path fill="none" stroke="midnightblue" d="M264.964,-67.8267C276.541,-66.5522 288.532,-65.2321 300.06,-63.9629"/>
<polygon fill="midnightblue" stroke="midnightblue" points="300.494,-67.4364 310.051,-62.8631 299.728,-60.4785 300.494,-67.4364"/>
</g>
<!-- Node5 -->
<g id="node6" class="node"><title>Node5</title>
<g id="a_node6"><a xlink:href="namespacecaiman_1_1mmapping.html#aa75ec735ea507b2ce7eb0e0bd33d2ba3" target="_top" xlink:title="Chunk matrix product between matrix and column vectors A memory mapped ndarray pixels x time b time x...">
<polygon fill="white" stroke="black" points="302.486,-0.5 302.486,-28.5 435.21,-28.5 435.21,-0.5 302.486,-0.5"/>
<text text-anchor="start" x="310.486" y="-16.5" font-family="Helvetica,sans-Serif" font-size="10.00">caiman.mmapping.parallel</text>
<text text-anchor="middle" x="368.848" y="-6.5" font-family="Helvetica,sans-Serif" font-size="10.00">_dot_product</text>
</a>
</g>
</g>
<!-- Node1&#45;&gt;Node5 -->
<g id="edge5" class="edge"><title>Node1&#45;&gt;Node5</title>
<path fill="none" stroke="midnightblue" d="M219.966,-66.4882C241.332,-58.7213 273.068,-47.253 300.812,-37.5 306.035,-35.6637 311.494,-33.7623 316.943,-31.8754"/>
<polygon fill="midnightblue" stroke="midnightblue" points="318.378,-35.0827 326.69,-28.5119 316.095,-28.4656 318.378,-35.0827"/>
</g>
<!-- Node6 -->
<g id="node7" class="node"><title>Node6</title>
<g id="a_node7"><a xlink:href="namespacecaiman_1_1mmapping.html#a14d47c076020d7d3adf2599ed3354e4b" target="_top" xlink:title="caiman.mmapping.dot\l_place_holder">
<polygon fill="white" stroke="black" points="472.885,-19.5 472.885,-47.5 587.269,-47.5 587.269,-19.5 472.885,-19.5"/>
<text text-anchor="start" x="480.885" y="-35.5" font-family="Helvetica,sans-Serif" font-size="10.00">caiman.mmapping.dot</text>
<text text-anchor="middle" x="530.077" y="-25.5" font-family="Helvetica,sans-Serif" font-size="10.00">_place_holder</text>
</a>
</g>
</g>
<!-- Node5&#45;&gt;Node6 -->
<g id="edge6" class="edge"><title>Node5&#45;&gt;Node6</title>
<path fill="none" stroke="midnightblue" d="M435.532,-22.3377C444.495,-23.4072 453.701,-24.5057 462.676,-25.5767"/>
<polygon fill="midnightblue" stroke="midnightblue" points="462.342,-29.0616 472.687,-26.7712 463.172,-22.1109 462.342,-29.0616"/>
</g>
<!-- Node6&#45;&gt;Node3 -->
<g id="edge7" class="edge"><title>Node6&#45;&gt;Node3</title>
<path fill="none" stroke="midnightblue" d="M587.69,-44.7562C595.985,-46.4054 604.603,-48.119 613.109,-49.8102"/>
<polygon fill="midnightblue" stroke="midnightblue" points="612.526,-53.2627 623.017,-51.7801 613.891,-46.3971 612.526,-53.2627"/>
</g>
</g>
</svg>
