<?xml version="1.0" encoding="UTF-8" standalone="no"?>
<!DOCTYPE svg PUBLIC "-//W3C//DTD SVG 1.1//EN"
 "http://www.w3.org/Graphics/SVG/1.1/DTD/svg11.dtd">
<!-- Generated by graphviz version 2.38.0 (20140413.2041)
 -->
<!-- Title: ICA_PCA Pages: 1 -->
<svg width="227pt" height="74pt"
 viewBox="0.00 0.00 227.17 74.00" xmlns="http://www.w3.org/2000/svg" xmlns:xlink="http://www.w3.org/1999/xlink">
<g id="graph0" class="graph" transform="scale(1 1) rotate(0) translate(4 70)">
<title>ICA_PCA</title>
<polygon fill="white" stroke="none" points="-4,4 -4,-70 223.172,-70 223.172,4 -4,4"/>
<!-- Node14 -->
<g id="node1" class="node"><title>Node14</title>
<polygon fill="#bfbfbf" stroke="black" points="0,-21.5 0,-39.5 58.793,-39.5 58.793,-21.5 0,-21.5"/>
<text text-anchor="middle" x="29.3965" y="-27.5" font-family="Helvetica,sans-Serif" font-size="10.00">ICA_PCA</text>
</g>
<!-- Node15 -->
<g id="node2" class="node"><title>Node15</title>
<g id="a_node2"><a xlink:href="namespacecaiman_1_1base_1_1rois.html#af61f5029359cfa66389c5234b9a9ad99" target="_top" xlink:title="caiman.base.rois.extract\lROIsFromPCAICA">
<polygon fill="white" stroke="black" points="94.793,-37.5 94.793,-65.5 219.172,-65.5 219.172,-37.5 94.793,-37.5"/>
<text text-anchor="start" x="102.793" y="-53.5" font-family="Helvetica,sans-Serif" font-size="10.00">caiman.base.rois.extract</text>
<text text-anchor="middle" x="156.982" y="-43.5" font-family="Helvetica,sans-Serif" font-size="10.00">ROIsFromPCAICA</text>
</a>
</g>
</g>
<!-- Node14&#45;&gt;Node15 -->
<g id="edge1" class="edge"><title>Node14&#45;&gt;Node15</title>
<path fill="none" stroke="midnightblue" d="M58.8939,-35.2652C66.7595,-36.5805 75.6608,-38.0689 84.8036,-39.5978"/>
<polygon fill="midnightblue" stroke="midnightblue" points="84.3414,-43.069 94.7817,-41.2663 85.4959,-36.1648 84.3414,-43.069"/>
</g>
<!-- Node16 -->
<g id="node3" class="node"><title>Node16</title>
<g id="a_node3"><a xlink:href="namespacecaiman_1_1base_1_1rois.html#ae37bc9f1a4e815bd7d8e44a2334883a2" target="_top" xlink:title="Calculation of the center of mass for spatial components. ">
<polygon fill="white" stroke="black" points="100.352,-0.5 100.352,-18.5 213.613,-18.5 213.613,-0.5 100.352,-0.5"/>
<text text-anchor="middle" x="156.982" y="-6.5" font-family="Helvetica,sans-Serif" font-size="10.00">caiman.base.rois.com</text>
</a>
</g>
</g>
<!-- Node14&#45;&gt;Node16 -->
<g id="edge2" class="edge"><title>Node14&#45;&gt;Node16</title>
<path fill="none" stroke="midnightblue" d="M58.8939,-25.7348C68.8011,-24.0781 80.3514,-22.1467 91.9579,-20.2059"/>
<polygon fill="midnightblue" stroke="midnightblue" points="92.8462,-23.6061 102.132,-18.5047 91.6917,-16.7019 92.8462,-23.6061"/>
</g>
</g>
</svg>
