<?xml version="1.0" encoding="UTF-8" standalone="no"?>
<!DOCTYPE svg PUBLIC "-//W3C//DTD SVG 1.1//EN"
 "http://www.w3.org/Graphics/SVG/1.1/DTD/svg11.dtd">
<!-- Generated by graphviz version 2.38.0 (20140413.2041)
 -->
<!-- Title: plot_contours Pages: 1 -->
<svg width="345pt" height="101pt"
 viewBox="0.00 0.00 345.38 101.00" xmlns="http://www.w3.org/2000/svg" xmlns:xlink="http://www.w3.org/1999/xlink">
<g id="graph0" class="graph" transform="scale(1 1) rotate(0) translate(4 97)">
<title>plot_contours</title>
<polygon fill="white" stroke="none" points="-4,4 -4,-97 341.378,-97 341.378,4 -4,4"/>
<!-- Node42 -->
<g id="node1" class="node"><title>Node42</title>
<polygon fill="#bfbfbf" stroke="black" points="0,-37.5 0,-55.5 76.0391,-55.5 76.0391,-37.5 0,-37.5"/>
<text text-anchor="middle" x="38.0195" y="-43.5" font-family="Helvetica,sans-Serif" font-size="10.00">plot_contours</text>
</g>
<!-- Node43 -->
<g id="node2" class="node"><title>Node43</title>
<g id="a_node2"><a xlink:href="namespacecaiman_1_1utils_1_1visualization.html#a6954f6ef72e703af3959f02b7b4bb6d8" target="_top" xlink:title="Interactive plotting utility for ipython notbook. ">
<polygon fill="white" stroke="black" points="117.601,-74.5 117.601,-92.5 210.876,-92.5 210.876,-74.5 117.601,-74.5"/>
<text text-anchor="middle" x="164.238" y="-80.5" font-family="Helvetica,sans-Serif" font-size="10.00">nb_view_patches</text>
</a>
</g>
</g>
<!-- Node42&#45;&gt;Node43 -->
<g id="edge1" class="edge"><title>Node42&#45;&gt;Node43</title>
<path fill="none" stroke="midnightblue" d="M79.2809,-58.4923C96.6467,-63.6649 116.624,-69.6155 132.734,-74.414"/>
<polygon fill="midnightblue" stroke="midnightblue" points="79.9899,-55.0516 69.4069,-55.5512 77.9916,-61.7603 79.9899,-55.0516"/>
</g>
<!-- Node44 -->
<g id="node3" class="node"><title>Node44</title>
<g id="a_node3"><a xlink:href="namespacecaiman_1_1utils_1_1visualization.html#a710f8ce5063f0475fb009dd74f84ab9a" target="_top" xlink:title="Interactive plotting utility for ipython notbook. ">
<polygon fill="white" stroke="black" points="112.039,-37.5 112.039,-55.5 216.438,-55.5 216.438,-37.5 112.039,-37.5"/>
<text text-anchor="middle" x="164.238" y="-43.5" font-family="Helvetica,sans-Serif" font-size="10.00">nb_view_patches3d</text>
</a>
</g>
</g>
<!-- Node42&#45;&gt;Node44 -->
<g id="edge2" class="edge"><title>Node42&#45;&gt;Node44</title>
<path fill="none" stroke="midnightblue" d="M86.5088,-46.5C94.7687,-46.5 103.394,-46.5 111.755,-46.5"/>
<polygon fill="midnightblue" stroke="midnightblue" points="86.2893,-43.0001 76.2893,-46.5 86.2892,-50.0001 86.2893,-43.0001"/>
</g>
<!-- Node46 -->
<g id="node5" class="node"><title>Node46</title>
<g id="a_node5"><a xlink:href="namespacecaiman_1_1utils_1_1visualization.html#aa6b9002875d7d86524868e7d795a4f3f" target="_top" xlink:title="Interactive Equivalent of plot_contours for ipython notebook. ">
<polygon fill="white" stroke="black" points="120.376,-0.5 120.376,-18.5 208.1,-18.5 208.1,-0.5 120.376,-0.5"/>
<text text-anchor="middle" x="164.238" y="-6.5" font-family="Helvetica,sans-Serif" font-size="10.00">nb_plot_contour</text>
</a>
</g>
</g>
<!-- Node42&#45;&gt;Node46 -->
<g id="edge5" class="edge"><title>Node42&#45;&gt;Node46</title>
<path fill="none" stroke="midnightblue" d="M79.2809,-34.5077C96.6467,-29.3351 116.624,-23.3845 132.734,-18.586"/>
<polygon fill="midnightblue" stroke="midnightblue" points="77.9916,-31.2397 69.4069,-37.4488 79.9899,-37.9484 77.9916,-31.2397"/>
</g>
<!-- Node45 -->
<g id="node4" class="node"><title>Node45</title>
<g id="a_node4"><a xlink:href="namespacecaiman_1_1utils_1_1visualization.html#a4414d9cf72aae1de86fcc5346deaeb3a" target="_top" xlink:title="Gets contour of spatial components and returns their coordinates. ">
<polygon fill="white" stroke="black" points="252.438,-37.5 252.438,-55.5 337.378,-55.5 337.378,-37.5 252.438,-37.5"/>
<text text-anchor="middle" x="294.908" y="-43.5" font-family="Helvetica,sans-Serif" font-size="10.00">get_contours3d</text>
</a>
</g>
</g>
<!-- Node44&#45;&gt;Node45 -->
<g id="edge3" class="edge"><title>Node44&#45;&gt;Node45</title>
<path fill="none" stroke="midnightblue" d="M226.624,-39.7563C235.342,-39.719 244.133,-39.8473 252.353,-40.1411"/>
<polygon fill="midnightblue" stroke="midnightblue" points="226.42,-36.2584 216.462,-39.8762 226.502,-43.2579 226.42,-36.2584"/>
</g>
<!-- Node45&#45;&gt;Node44 -->
<g id="edge4" class="edge"><title>Node45&#45;&gt;Node44</title>
<path fill="none" stroke="midnightblue" d="M242.2,-53.1331C233.718,-53.292 224.932,-53.2889 216.462,-53.1238"/>
<polygon fill="midnightblue" stroke="midnightblue" points="242.451,-56.6277 252.353,-52.8589 242.262,-49.6302 242.451,-56.6277"/>
</g>
<!-- Node47 -->
<g id="node6" class="node"><title>Node47</title>
<g id="a_node6"><a xlink:href="namespacecaiman_1_1utils_1_1visualization.html#ac95a3a5e8c3bee95392831c57548fc04" target="_top" xlink:title="Interactive equivalent of imshow for ipython notebook. ">
<polygon fill="white" stroke="black" points="261.617,-0.5 261.617,-18.5 328.198,-18.5 328.198,-0.5 261.617,-0.5"/>
<text text-anchor="middle" x="294.908" y="-6.5" font-family="Helvetica,sans-Serif" font-size="10.00">nb_imshow</text>
</a>
</g>
</g>
<!-- Node46&#45;&gt;Node47 -->
<g id="edge6" class="edge"><title>Node46&#45;&gt;Node47</title>
<path fill="none" stroke="midnightblue" d="M218.843,-2.83415C233.371,-2.60436 248.65,-2.84519 261.604,-3.55663"/>
<polygon fill="midnightblue" stroke="midnightblue" points="218.354,0.655186 208.441,-3.08464 218.523,-6.34279 218.354,0.655186"/>
</g>
<!-- Node47&#45;&gt;Node46 -->
<g id="edge7" class="edge"><title>Node47&#45;&gt;Node46</title>
<path fill="none" stroke="midnightblue" d="M251.399,-15.8922C237.603,-16.3614 222.288,-16.3691 208.441,-15.9154"/>
<polygon fill="midnightblue" stroke="midnightblue" points="251.767,-19.3795 261.604,-15.4434 251.46,-12.3862 251.767,-19.3795"/>
</g>
</g>
</svg>
