<?xml version="1.0" encoding="UTF-8" standalone="no"?>
<!DOCTYPE svg PUBLIC "-//W3C//DTD SVG 1.1//EN"
 "http://www.w3.org/Graphics/SVG/1.1/DTD/svg11.dtd">
<!-- Generated by graphviz version 2.38.0 (20140413.2041)
 -->
<!-- Title: nb_imshow Pages: 1 -->
<svg width="198pt" height="27pt"
 viewBox="0.00 0.00 198.30 27.00" xmlns="http://www.w3.org/2000/svg" xmlns:xlink="http://www.w3.org/1999/xlink">
<g id="graph0" class="graph" transform="scale(1 1) rotate(0) translate(4 23)">
<title>nb_imshow</title>
<polygon fill="white" stroke="none" points="-4,4 -4,-23 194.305,-23 194.305,4 -4,4"/>
<!-- Node19 -->
<g id="node1" class="node"><title>Node19</title>
<polygon fill="#bfbfbf" stroke="black" points="0,-0.5 0,-18.5 66.5811,-18.5 66.5811,-0.5 0,-0.5"/>
<text text-anchor="middle" x="33.2905" y="-6.5" font-family="Helvetica,sans-Serif" font-size="10.00">nb_imshow</text>
</g>
<!-- Node20 -->
<g id="node2" class="node"><title>Node20</title>
<g id="a_node2"><a xlink:href="namespacecaiman_1_1utils_1_1visualization.html#aa6b9002875d7d86524868e7d795a4f3f" target="_top" xlink:title="Interactive Equivalent of plot_contours for ipython notebook. ">
<polygon fill="white" stroke="black" points="102.581,-0.5 102.581,-18.5 190.305,-18.5 190.305,-0.5 102.581,-0.5"/>
<text text-anchor="middle" x="146.443" y="-6.5" font-family="Helvetica,sans-Serif" font-size="10.00">nb_plot_contour</text>
</a>
</g>
</g>
<!-- Node19&#45;&gt;Node20 -->
<g id="edge1" class="edge"><title>Node19&#45;&gt;Node20</title>
<path fill="none" stroke="midnightblue" d="M77.0084,-2.91321C85.3356,-2.69833 94.0702,-2.69563 102.408,-2.90512"/>
<polygon fill="midnightblue" stroke="midnightblue" points="76.6008,0.574046 66.7392,-3.29887 76.8635,-6.42102 76.6008,0.574046"/>
</g>
<!-- Node20&#45;&gt;Node19 -->
<g id="edge2" class="edge"><title>Node20&#45;&gt;Node19</title>
<path fill="none" stroke="midnightblue" d="M92.2636,-16.2444C83.5476,-16.285 74.753,-16.1039 66.7392,-15.7011"/>
<polygon fill="midnightblue" stroke="midnightblue" points="92.4603,-19.742 102.408,-16.0949 92.357,-12.7428 92.4603,-19.742"/>
</g>
</g>
</svg>
