<?xml version="1.0" encoding="UTF-8" standalone="no"?>
<!DOCTYPE svg PUBLIC "-//W3C//DTD SVG 1.1//EN"
 "http://www.w3.org/Graphics/SVG/1.1/DTD/svg11.dtd">
<!-- Generated by graphviz version 2.38.0 (20140413.2041)
 -->
<!-- Title: load_results Pages: 1 -->
<svg width="370pt" height="74pt"
 viewBox="0.00 0.00 369.80 74.00" xmlns="http://www.w3.org/2000/svg" xmlns:xlink="http://www.w3.org/1999/xlink">
<g id="graph0" class="graph" transform="scale(1 1) rotate(0) translate(4 70)">
<title>load_results</title>
<polygon fill="white" stroke="none" points="-4,4 -4,-70 365.802,-70 365.802,4 -4,4"/>
<!-- Node34 -->
<g id="node1" class="node"><title>Node34</title>
<polygon fill="#bfbfbf" stroke="black" points="0,-21.5 0,-39.5 69.9209,-39.5 69.9209,-21.5 0,-21.5"/>
<text text-anchor="middle" x="34.9604" y="-27.5" font-family="Helvetica,sans-Serif" font-size="10.00">load_results</text>
</g>
<!-- Node35 -->
<g id="node2" class="node"><title>Node35</title>
<g id="a_node2"><a xlink:href="namespaceuse__cases_1_1granule__cells_1_1utils__granule.html#aad284806a8bd8ed473166a9107a11253" target="_top" xlink:title="From the partial data stored retrieves variables of interest. ">
<polygon fill="white" stroke="black" points="105.921,-37.5 105.921,-65.5 224.768,-65.5 224.768,-37.5 105.921,-37.5"/>
<text text-anchor="start" x="113.921" y="-53.5" font-family="Helvetica,sans-Serif" font-size="10.00">load_data_from_stored</text>
<text text-anchor="middle" x="165.344" y="-43.5" font-family="Helvetica,sans-Serif" font-size="10.00">_results</text>
</a>
</g>
</g>
<!-- Node34&#45;&gt;Node35 -->
<g id="edge1" class="edge"><title>Node34&#45;&gt;Node35</title>
<path fill="none" stroke="midnightblue" d="M79.9007,-37.6874C88.2367,-39.0509 97.0804,-40.4975 105.785,-41.9213"/>
<polygon fill="midnightblue" stroke="midnightblue" points="80.4618,-34.2327 70.0279,-36.0725 79.3317,-41.1409 80.4618,-34.2327"/>
</g>
<!-- Node37 -->
<g id="node4" class="node"><title>Node37</title>
<g id="a_node4"><a xlink:href="namespaceuse__cases_1_1granule__cells_1_1utils__granule.html#acc808c9506aa647617c5623b88c28a0d" target="_top" xlink:title="fast_process_day">
<polygon fill="white" stroke="black" points="118.155,-0.5 118.155,-18.5 212.534,-18.5 212.534,-0.5 118.155,-0.5"/>
<text text-anchor="middle" x="165.344" y="-6.5" font-family="Helvetica,sans-Serif" font-size="10.00">fast_process_day</text>
</a>
</g>
</g>
<!-- Node34&#45;&gt;Node37 -->
<g id="edge4" class="edge"><title>Node34&#45;&gt;Node37</title>
<path fill="none" stroke="midnightblue" d="M80.027,-23.2919C92.2897,-21.2861 105.643,-19.102 118.03,-17.0757"/>
<polygon fill="midnightblue" stroke="midnightblue" points="79.3317,-19.8591 70.0279,-24.9275 80.4618,-26.7673 79.3317,-19.8591"/>
</g>
<!-- Node36 -->
<g id="node3" class="node"><title>Node36</title>
<g id="a_node3"><a xlink:href="namespaceuse__cases_1_1granule__cells_1_1utils__granule.html#a0df0b96808c567e87ff6349d7ad41289" target="_top" xlink:title="Equivalent of take for the input format we are using. ">
<polygon fill="white" stroke="black" points="260.768,-42.5 260.768,-60.5 361.802,-60.5 361.802,-42.5 260.768,-42.5"/>
<text text-anchor="middle" x="311.285" y="-48.5" font-family="Helvetica,sans-Serif" font-size="10.00">extract_traces_mat</text>
</a>
</g>
</g>
<!-- Node35&#45;&gt;Node36 -->
<g id="edge2" class="edge"><title>Node35&#45;&gt;Node36</title>
<path fill="none" stroke="midnightblue" d="M234.962,-44.7565C243.592,-44.723 252.286,-44.8191 260.547,-45.0448"/>
<polygon fill="midnightblue" stroke="midnightblue" points="234.855,-41.2573 224.89,-44.8555 234.924,-48.257 234.855,-41.2573"/>
</g>
<!-- Node36&#45;&gt;Node35 -->
<g id="edge3" class="edge"><title>Node36&#45;&gt;Node35</title>
<path fill="none" stroke="midnightblue" d="M250.402,-58.1647C241.966,-58.2848 233.301,-58.2781 224.89,-58.1445"/>
<polygon fill="midnightblue" stroke="midnightblue" points="250.621,-61.661 260.547,-57.9552 250.477,-54.6625 250.621,-61.661"/>
</g>
</g>
</svg>
