<?xml version="1.0" encoding="UTF-8" standalone="no"?>
<!DOCTYPE svg PUBLIC "-//W3C//DTD SVG 1.1//EN"
 "http://www.w3.org/Graphics/SVG/1.1/DTD/svg11.dtd">
<!-- Generated by graphviz version 2.38.0 (20140413.2041)
 -->
<!-- Title: dot_place_holder Pages: 1 -->
<!--zoomable 131 -->
<svg id="main" version="1.1" xmlns="http://www.w3.org/2000/svg" xmlns:xlink="http://www.w3.org/1999/xlink" xml:space="preserve" onload="init(evt)">
<style type="text/css"><![CDATA[
.edge:hover path { stroke: red; }
.edge:hover polygon { stroke: red; fill: red; }
]]></style>
<script type="text/javascript"><![CDATA[
var edges = document.getElementsByTagName('g');
if (edges && edges.length) {
  for (var i=0;i<edges.length;i++) {
    if (edges[i].id.substr(0,4)=='edge') {
      edges[i].setAttribute('class','edge');
    }
  }
}
]]></script>
        <defs>
                <circle id="rim" cx="0" cy="0" r="7"/>
                <circle id="rim2" cx="0" cy="0" r="3.5"/>
                <g id="zoomPlus">
                        <use xlink:href="#rim" fill="#404040">
                                <set attributeName="fill" to="#808080" begin="zoomplus.mouseover" end="zoomplus.mouseout"/>
                        </use>
                        <path d="M-4,0h8M0,-4v8" fill="none" stroke="white" stroke-width="1.5" pointer-events="none"/>
                </g>
                <g id="zoomMin">
                        <use xlink:href="#rim" fill="#404040">
                                <set attributeName="fill" to="#808080" begin="zoomminus.mouseover" end="zoomminus.mouseout"/>
                        </use>
                        <path d="M-4,0h8" fill="none" stroke="white" stroke-width="1.5" pointer-events="none"/>
                </g>
                <g id="dirArrow">
                        <path fill="none" stroke="white" stroke-width="1.5" d="M0,-3.0v7 M-2.5,-0.5L0,-3.0L2.5,-0.5"/>
                </g>
               <g id="resetDef">
                       <use xlink:href="#rim2" fill="#404040">
                               <set attributeName="fill" to="#808080" begin="reset.mouseover" end="reset.mouseout"/>
                       </use>
               </g>
        </defs>

<script type="text/javascript">
var viewWidth = 795;
var viewHeight = 131;
var sectionId = 'dynsection-1';
</script>
<script xlink:href="svgpan.js"/>
<svg id="graph" class="graph">
<g id="viewport">
<title>dot_place_holder</title>
<polygon fill="white" stroke="none" points="-4,4 -4,-127 791.308,-127 791.308,4 -4,4"/>
<!-- Node2 -->
<g id="node1" class="node"><title>Node2</title>
<polygon fill="#bfbfbf" stroke="black" points="0,-52.5 0,-70.5 92.7285,-70.5 92.7285,-52.5 0,-52.5"/>
<text text-anchor="middle" x="46.3643" y="-58.5" font-family="Helvetica,sans-Serif" font-size="10.00">dot_place_holder</text>
</g>
<!-- Node3 -->
<g id="node2" class="node"><title>Node3</title>
<g id="a_node2"><a xlink:href="namespacecaiman_1_1mmapping.html#aa75ec735ea507b2ce7eb0e0bd33d2ba3" target="_top" xlink:title="Chunk matrix product between matrix and column vectors A memory mapped ndarray pixels x time b time x...">
<polygon fill="white" stroke="black" points="128.729,-52.5 128.729,-70.5 235.349,-70.5 235.349,-52.5 128.729,-52.5"/>
<text text-anchor="middle" x="182.039" y="-58.5" font-family="Helvetica,sans-Serif" font-size="10.00">parallel_dot_product</text>
</a>
</g>
</g>
<!-- Node2&#45;&gt;Node3 -->
<g id="edge1" class="edge"><title>Node2&#45;&gt;Node3</title>
<path fill="none" stroke="midnightblue" d="M103.159,-61.5C111.623,-61.5 120.33,-61.5 128.716,-61.5"/>
<polygon fill="midnightblue" stroke="midnightblue" points="102.994,-58.0001 92.9935,-61.5 102.993,-65.0001 102.994,-58.0001"/>
</g>
<!-- Node4 -->
<g id="node3" class="node"><title>Node4</title>
<g id="a_node3"><a xlink:href="namespacecaiman_1_1source__extraction_1_1cnmf_1_1spatial.html#ab7b90a8cbd754f9c03b13cf1709eebd4" target="_top" xlink:title="update spatial footprints and background through Basis Pursuit Denoising ">
<polygon fill="white" stroke="black" points="287.171,-47.5 287.171,-75.5 506.614,-75.5 506.614,-47.5 287.171,-47.5"/>
<text text-anchor="start" x="295.171" y="-63.5" font-family="Helvetica,sans-Serif" font-size="10.00">caiman.source_extraction.cnmf.spatial.update</text>
<text text-anchor="middle" x="396.893" y="-53.5" font-family="Helvetica,sans-Serif" font-size="10.00">_spatial_components</text>
</a>
</g>
</g>
<!-- Node3&#45;&gt;Node4 -->
<g id="edge2" class="edge"><title>Node3&#45;&gt;Node4</title>
<path fill="none" stroke="midnightblue" d="M245.62,-61.5C258.697,-61.5 272.844,-61.5 287.049,-61.5"/>
<polygon fill="midnightblue" stroke="midnightblue" points="245.381,-58.0001 235.381,-61.5 245.381,-65.0001 245.381,-58.0001"/>
</g>
<!-- Node7 -->
<g id="node6" class="node"><title>Node7</title>
<g id="a_node6"><a xlink:href="namespacecaiman_1_1source__extraction_1_1cnmf_1_1temporal.html#ae56ee735c5b8f6fdaca8baaee1371d58" target="_top" xlink:title="Update temporal components and background given spatial components using a block coordinate descent a...">
<polygon fill="white" stroke="black" points="282.171,-94.5 282.171,-122.5 511.614,-122.5 511.614,-94.5 282.171,-94.5"/>
<text text-anchor="start" x="290.171" y="-110.5" font-family="Helvetica,sans-Serif" font-size="10.00">caiman.source_extraction.cnmf.temporal.update</text>
<text text-anchor="middle" x="396.893" y="-100.5" font-family="Helvetica,sans-Serif" font-size="10.00">_temporal_components</text>
</a>
</g>
</g>
<!-- Node3&#45;&gt;Node7 -->
<g id="edge5" class="edge"><title>Node3&#45;&gt;Node7</title>
<path fill="none" stroke="midnightblue" d="M223.861,-73.3513C238.741,-77.4704 255.742,-81.9446 271.349,-85.5 285.284,-88.6746 300.172,-91.7198 314.63,-94.4968"/>
<polygon fill="midnightblue" stroke="midnightblue" points="224.515,-69.8998 213.942,-70.572 222.627,-76.6403 224.515,-69.8998"/>
</g>
<!-- Node8 -->
<g id="node7" class="node"><title>Node8</title>
<g id="a_node7"><a xlink:href="namespacecaiman_1_1source__extraction_1_1cnmf_1_1utilities.html#a280d064e1a9888eca4b375647d031491" target="_top" xlink:title="Compute DFF function from cnmf output. ">
<polygon fill="white" stroke="black" points="271.349,-8.5 271.349,-26.5 522.437,-26.5 522.437,-8.5 271.349,-8.5"/>
<text text-anchor="middle" x="396.893" y="-14.5" font-family="Helvetica,sans-Serif" font-size="10.00">caiman.source_extraction.cnmf.utilities.extract_DF_F</text>
</a>
</g>
</g>
<!-- Node3&#45;&gt;Node8 -->
<g id="edge7" class="edge"><title>Node3&#45;&gt;Node8</title>
<path fill="none" stroke="midnightblue" d="M224.944,-49.7825C239.562,-45.9092 256.118,-41.7608 271.349,-38.5 292.254,-34.0242 315.301,-29.9115 335.826,-26.5347"/>
<polygon fill="midnightblue" stroke="midnightblue" points="223.924,-46.4323 215.173,-52.4058 225.739,-53.1929 223.924,-46.4323"/>
</g>
<!-- Node5 -->
<g id="node4" class="node"><title>Node5</title>
<g id="a_node4"><a xlink:href="namespacecaiman_1_1source__extraction_1_1cnmf_1_1merging.html#ad08adf2e086a22ef379b10ed3ee36936" target="_top" xlink:title="Merging of spatially overlapping components that have highly correlated temporal activity The correla...">
<polygon fill="white" stroke="black" points="560.661,-94.5 560.661,-122.5 785.083,-122.5 785.083,-94.5 560.661,-94.5"/>
<text text-anchor="start" x="568.661" y="-110.5" font-family="Helvetica,sans-Serif" font-size="10.00">caiman.source_extraction.cnmf.merging.merge</text>
<text text-anchor="middle" x="672.872" y="-100.5" font-family="Helvetica,sans-Serif" font-size="10.00">_components</text>
</a>
</g>
</g>
<!-- Node4&#45;&gt;Node5 -->
<g id="edge3" class="edge"><title>Node4&#45;&gt;Node5</title>
<path fill="none" stroke="midnightblue" d="M489.666,-77.2434C522.127,-82.8119 558.403,-89.0349 589.989,-94.4533"/>
<polygon fill="midnightblue" stroke="midnightblue" points="490.172,-73.7791 479.724,-75.5379 488.989,-80.6783 490.172,-73.7791"/>
</g>
<!-- Node6 -->
<g id="node5" class="node"><title>Node6</title>
<g id="a_node5"><a xlink:href="namespacecaiman_1_1source__extraction_1_1cnmf_1_1spatial.html#adbbc80bf3821229671c7f77648016071" target="_top" xlink:title="caiman.source_extraction.cnmf.spatial.basis\l_denoising">
<polygon fill="white" stroke="black" points="566.771,-47.5 566.771,-75.5 778.973,-75.5 778.973,-47.5 566.771,-47.5"/>
<text text-anchor="start" x="574.771" y="-63.5" font-family="Helvetica,sans-Serif" font-size="10.00">caiman.source_extraction.cnmf.spatial.basis</text>
<text text-anchor="middle" x="672.872" y="-53.5" font-family="Helvetica,sans-Serif" font-size="10.00">_denoising</text>
</a>
</g>
</g>
<!-- Node4&#45;&gt;Node6 -->
<g id="edge4" class="edge"><title>Node4&#45;&gt;Node6</title>
<path fill="none" stroke="midnightblue" d="M517.183,-61.5C533.682,-61.5 550.53,-61.5 566.746,-61.5"/>
<polygon fill="midnightblue" stroke="midnightblue" points="516.964,-58.0001 506.964,-61.5 516.964,-65.0001 516.964,-58.0001"/>
</g>
<!-- Node7&#45;&gt;Node5 -->
<g id="edge6" class="edge"><title>Node7&#45;&gt;Node5</title>
<path fill="none" stroke="midnightblue" d="M521.989,-108.5C534.865,-108.5 547.894,-108.5 560.616,-108.5"/>
<polygon fill="midnightblue" stroke="midnightblue" points="521.704,-105 511.704,-108.5 521.704,-112 521.704,-105"/>
</g>
<!-- Node9 -->
<g id="node8" class="node"><title>Node9</title>
<g id="a_node8"><a xlink:href="namespacecaiman_1_1source__extraction_1_1cnmf_1_1utilities.html#aea3aa78c7c153170012079014e1f4895" target="_top" xlink:title="caiman.source_extraction.cnmf.utilities.compute\lDFF_traces">
<polygon fill="white" stroke="black" points="558.437,-0.5 558.437,-28.5 787.308,-28.5 787.308,-0.5 558.437,-0.5"/>
<text text-anchor="start" x="566.437" y="-16.5" font-family="Helvetica,sans-Serif" font-size="10.00">caiman.source_extraction.cnmf.utilities.compute</text>
<text text-anchor="middle" x="672.872" y="-6.5" font-family="Helvetica,sans-Serif" font-size="10.00">DFF_traces</text>
</a>
</g>
</g>
<!-- Node8&#45;&gt;Node9 -->
<g id="edge8" class="edge"><title>Node8&#45;&gt;Node9</title>
<path fill="none" stroke="midnightblue" d="M532.497,-16.0261C541.061,-15.9323 549.639,-15.8384 558.094,-15.7458"/>
<polygon fill="midnightblue" stroke="midnightblue" points="532.417,-12.5267 522.456,-16.1361 532.494,-19.5263 532.417,-12.5267"/>
</g>
</g>
</svg>
        <g id="navigator" transform="translate(0 0)" fill="#404254">
                <rect fill="#f2f5e9" fill-opacity="0.5" stroke="#606060" stroke-width=".5" x="0" y="0" width="60" height="60"/>
                <use id="zoomplus" xlink:href="#zoomPlus" x="17" y="9" onmousedown="handleZoom(evt,'in')"/>
                <use id="zoomminus" xlink:href="#zoomMin" x="42" y="9" onmousedown="handleZoom(evt,'out')"/>
                <use id="reset" xlink:href="#resetDef" x="30" y="36" onmousedown="handleReset()"/>
                <g id="arrowUp" xlink:href="#dirArrow" transform="translate(30 24)" onmousedown="handlePan(0,-1)">
                  <use xlink:href="#rim" fill="#404040">
                        <set attributeName="fill" to="#808080" begin="arrowUp.mouseover" end="arrowUp.mouseout"/>
                  </use>
                  <path fill="none" stroke="white" stroke-width="1.5" d="M0,-3.0v7 M-2.5,-0.5L0,-3.0L2.5,-0.5"/>
                </g>
                <g id="arrowRight" xlink:href="#dirArrow" transform="rotate(90) translate(36 -43)" onmousedown="handlePan(1,0)">
                  <use xlink:href="#rim" fill="#404040">
                        <set attributeName="fill" to="#808080" begin="arrowRight.mouseover" end="arrowRight.mouseout"/>
                  </use>
                  <path fill="none" stroke="white" stroke-width="1.5" d="M0,-3.0v7 M-2.5,-0.5L0,-3.0L2.5,-0.5"/>
                </g>
                <g id="arrowDown" xlink:href="#dirArrow" transform="rotate(180) translate(-30 -48)" onmousedown="handlePan(0,1)">
                  <use xlink:href="#rim" fill="#404040">
                        <set attributeName="fill" to="#808080" begin="arrowDown.mouseover" end="arrowDown.mouseout"/>
                  </use>
                  <path fill="none" stroke="white" stroke-width="1.5" d="M0,-3.0v7 M-2.5,-0.5L0,-3.0L2.5,-0.5"/>
                </g>
                <g id="arrowLeft" xlink:href="#dirArrow" transform="rotate(270) translate(-36 17)" onmousedown="handlePan(-1,0)">
                  <use xlink:href="#rim" fill="#404040">
                        <set attributeName="fill" to="#808080" begin="arrowLeft.mouseover" end="arrowLeft.mouseout"/>
                  </use>
                  <path fill="none" stroke="white" stroke-width="1.5" d="M0,-3.0v7 M-2.5,-0.5L0,-3.0L2.5,-0.5"/>
                </g>
        </g>
        <svg viewBox="0 0 15 15" width="100%" height="30px" preserveAspectRatio="xMaxYMin meet">
         <g id="arrow_out" transform="scale(0.3 0.3)">
          <a xlink:href="namespacecaiman_1_1mmapping_a14d47c076020d7d3adf2599ed3354e4b_icgraph_org.svg" target="_base">
           <rect id="button" ry="5" rx="5" y="6" x="6" height="38" width="38"
                fill="#f2f5e9" fill-opacity="0.5" stroke="#606060" stroke-width="1.0"/>
           <path id="arrow"
             d="M 11.500037,31.436501 C 11.940474,20.09759 22.043105,11.32322 32.158766,21.979434 L 37.068811,17.246167 C 37.068811,17.246167 37.088388,32 37.088388,32 L 22.160133,31.978069 C 22.160133,31.978069 26.997745,27.140456 26.997745,27.140456 C 18.528582,18.264221 13.291696,25.230495 11.500037,31.436501 z"
             style="fill:#404040;"/>
          </a>
         </g>
        </svg>
</svg>
