<?xml version="1.0" encoding="UTF-8" standalone="no"?>
<!DOCTYPE svg PUBLIC "-//W3C//DTD SVG 1.1//EN"
 "http://www.w3.org/Graphics/SVG/1.1/DTD/svg11.dtd">
<!-- Generated by graphviz version 2.38.0 (20140413.2041)
 -->
<!-- Title: merge_components Pages: 1 -->
<!--zoomable 382 -->
<svg id="main" version="1.1" xmlns="http://www.w3.org/2000/svg" xmlns:xlink="http://www.w3.org/1999/xlink" xml:space="preserve" onload="init(evt)">
<style type="text/css"><![CDATA[
.edge:hover path { stroke: red; }
.edge:hover polygon { stroke: red; fill: red; }
]]></style>
<script type="text/javascript"><![CDATA[
var edges = document.getElementsByTagName('g');
if (edges && edges.length) {
  for (var i=0;i<edges.length;i++) {
    if (edges[i].id.substr(0,4)=='edge') {
      edges[i].setAttribute('class','edge');
    }
  }
}
]]></script>
        <defs>
                <circle id="rim" cx="0" cy="0" r="7"/>
                <circle id="rim2" cx="0" cy="0" r="3.5"/>
                <g id="zoomPlus">
                        <use xlink:href="#rim" fill="#404040">
                                <set attributeName="fill" to="#808080" begin="zoomplus.mouseover" end="zoomplus.mouseout"/>
                        </use>
                        <path d="M-4,0h8M0,-4v8" fill="none" stroke="white" stroke-width="1.5" pointer-events="none"/>
                </g>
                <g id="zoomMin">
                        <use xlink:href="#rim" fill="#404040">
                                <set attributeName="fill" to="#808080" begin="zoomminus.mouseover" end="zoomminus.mouseout"/>
                        </use>
                        <path d="M-4,0h8" fill="none" stroke="white" stroke-width="1.5" pointer-events="none"/>
                </g>
                <g id="dirArrow">
                        <path fill="none" stroke="white" stroke-width="1.5" d="M0,-3.0v7 M-2.5,-0.5L0,-3.0L2.5,-0.5"/>
                </g>
               <g id="resetDef">
                       <use xlink:href="#rim2" fill="#404040">
                               <set attributeName="fill" to="#808080" begin="reset.mouseover" end="reset.mouseout"/>
                       </use>
               </g>
        </defs>

<script type="text/javascript">
var viewWidth = 1906;
var viewHeight = 382;
var sectionId = 'dynsection-0';
</script>
<script xlink:href="svgpan.js"/>
<svg id="graph" class="graph">
<g id="viewport">
<title>merge_components</title>
<polygon fill="white" stroke="none" points="-4,4 -4,-377.712 1902.28,-377.712 1902.28,4 -4,4"/>
<!-- Node0 -->
<g id="node1" class="node"><title>Node0</title>
<polygon fill="#bfbfbf" stroke="black" points="0,-163.5 0,-181.5 104.384,-181.5 104.384,-163.5 0,-163.5"/>
<text text-anchor="middle" x="52.1919" y="-169.5" font-family="Helvetica,sans-Serif" font-size="10.00">merge_components</text>
</g>
<!-- Node1 -->
<g id="node2" class="node"><title>Node1</title>
<g id="a_node2"><a xlink:href="namespacecaiman_1_1source__extraction_1_1cnmf_1_1deconvolution.html#a0afb63d84485a181bb40f2eefe7b581e" target="_top" xlink:title="Infer the most likely discretized spike train underlying a fluorescence trace. ">
<polygon fill="white" stroke="black" points="140.384,-274.5 140.384,-302.5 413.747,-302.5 413.747,-274.5 140.384,-274.5"/>
<text text-anchor="start" x="148.384" y="-290.5" font-family="Helvetica,sans-Serif" font-size="10.00">caiman.source_extraction.cnmf.deconvolution.constrained</text>
<text text-anchor="middle" x="277.065" y="-280.5" font-family="Helvetica,sans-Serif" font-size="10.00">_foopsi</text>
</a>
</g>
</g>
<!-- Node0&#45;&gt;Node1 -->
<g id="edge1" class="edge"><title>Node0&#45;&gt;Node1</title>
<path fill="none" stroke="midnightblue" d="M70.6804,-181.602C107.025,-200.519 191.366,-244.416 239.91,-269.682"/>
<polygon fill="midnightblue" stroke="midnightblue" points="238.341,-272.811 248.827,-274.323 241.573,-266.602 238.341,-272.811"/>
</g>
<!-- Node12 -->
<g id="node13" class="node"><title>Node12</title>
<g id="a_node13"><a xlink:href="namespacecaiman_1_1source__extraction_1_1cnmf_1_1temporal.html#ae56ee735c5b8f6fdaca8baaee1371d58" target="_top" xlink:title="Update temporal components and background given spatial components using a block coordinate descent a...">
<polygon fill="white" stroke="black" points="162.344,-158.5 162.344,-186.5 391.787,-186.5 391.787,-158.5 162.344,-158.5"/>
<text text-anchor="start" x="170.344" y="-174.5" font-family="Helvetica,sans-Serif" font-size="10.00">caiman.source_extraction.cnmf.temporal.update</text>
<text text-anchor="middle" x="277.065" y="-164.5" font-family="Helvetica,sans-Serif" font-size="10.00">_temporal_components</text>
</a>
</g>
</g>
<!-- Node0&#45;&gt;Node12 -->
<g id="edge16" class="edge"><title>Node0&#45;&gt;Node12</title>
<path fill="none" stroke="midnightblue" d="M104.603,-172.5C118.975,-172.5 135.246,-172.5 151.901,-172.5"/>
<polygon fill="midnightblue" stroke="midnightblue" points="152.307,-176 162.307,-172.5 152.307,-169 152.307,-176"/>
</g>
<!-- Node17 -->
<g id="node18" class="node"><title>Node17</title>
<g id="a_node18"><a xlink:href="namespacecaiman_1_1source__extraction_1_1cnmf_1_1spatial.html#ab7b90a8cbd754f9c03b13cf1709eebd4" target="_top" xlink:title="update spatial footprints and background through Basis Pursuit Denoising ">
<polygon fill="white" stroke="black" points="167.344,-90.5 167.344,-118.5 386.787,-118.5 386.787,-90.5 167.344,-90.5"/>
<text text-anchor="start" x="175.344" y="-106.5" font-family="Helvetica,sans-Serif" font-size="10.00">caiman.source_extraction.cnmf.spatial.update</text>
<text text-anchor="middle" x="277.065" y="-96.5" font-family="Helvetica,sans-Serif" font-size="10.00">_spatial_components</text>
</a>
</g>
</g>
<!-- Node0&#45;&gt;Node17 -->
<g id="edge21" class="edge"><title>Node0&#45;&gt;Node17</title>
<path fill="none" stroke="midnightblue" d="M82.7878,-163.47C117.795,-152.789 176.816,-134.782 220.447,-121.469"/>
<polygon fill="midnightblue" stroke="midnightblue" points="221.522,-124.801 230.065,-118.535 219.479,-118.106 221.522,-124.801"/>
</g>
<!-- Node2 -->
<g id="node3" class="node"><title>Node2</title>
<g id="a_node3"><a xlink:href="namespacecaiman_1_1source__extraction_1_1cnmf_1_1deconvolution.html#a7199190b4f33e4a70dedc9deea7e4c45" target="_top" xlink:title="caiman.source_extraction.cnmf.deconvolution.estimate\l_parameters">
<polygon fill="white" stroke="black" points="759.11,-311.5 759.11,-339.5 1018.57,-339.5 1018.57,-311.5 759.11,-311.5"/>
<text text-anchor="start" x="767.11" y="-327.5" font-family="Helvetica,sans-Serif" font-size="10.00">caiman.source_extraction.cnmf.deconvolution.estimate</text>
<text text-anchor="middle" x="888.839" y="-317.5" font-family="Helvetica,sans-Serif" font-size="10.00">_parameters</text>
</a>
</g>
</g>
<!-- Node1&#45;&gt;Node2 -->
<g id="edge2" class="edge"><title>Node1&#45;&gt;Node2</title>
<path fill="none" stroke="midnightblue" d="M303.244,-302.622C335.854,-320.027 395.017,-348.629 449.747,-359.5 568.914,-383.169 602.244,-371.843 723.11,-359.5 756.649,-356.075 793.439,-348.824 823.728,-341.895"/>
<polygon fill="midnightblue" stroke="midnightblue" points="824.791,-345.241 833.736,-339.563 823.203,-338.424 824.791,-345.241"/>
</g>
<!-- Node7 -->
<g id="node8" class="node"><title>Node7</title>
<g id="a_node8"><a xlink:href="namespacecaiman_1_1source__extraction_1_1cnmf_1_1deconvolution.html#a04aa84702e9977187b4ac0ba95891fb6" target="_top" xlink:title="Solve the deconvolution problem using cvxopt and picos packages. ">
<polygon fill="white" stroke="black" points="461.146,-321.5 461.146,-349.5 711.711,-349.5 711.711,-321.5 461.146,-321.5"/>
<text text-anchor="start" x="469.146" y="-337.5" font-family="Helvetica,sans-Serif" font-size="10.00">caiman.source_extraction.cnmf.deconvolution.cvxopt</text>
<text text-anchor="middle" x="586.429" y="-327.5" font-family="Helvetica,sans-Serif" font-size="10.00">_foopsi</text>
</a>
</g>
</g>
<!-- Node1&#45;&gt;Node7 -->
<g id="edge8" class="edge"><title>Node1&#45;&gt;Node7</title>
<path fill="none" stroke="midnightblue" d="M369.868,-302.538C405.683,-308.014 446.88,-314.314 483.603,-319.929"/>
<polygon fill="midnightblue" stroke="midnightblue" points="483.419,-323.442 493.834,-321.494 484.477,-316.522 483.419,-323.442"/>
</g>
<!-- Node8 -->
<g id="node9" class="node"><title>Node8</title>
<g id="a_node9"><a xlink:href="namespacecaiman_1_1source__extraction_1_1cnmf_1_1deconvolution.html#a0dd508a8cc717626fa4c45d0a5c08bfd" target="_top" xlink:title="Solves the deconvolution problem using the cvxpy package and the ECOS/SCS library. ">
<polygon fill="white" stroke="black" points="462.816,-274.5 462.816,-302.5 710.042,-302.5 710.042,-274.5 462.816,-274.5"/>
<text text-anchor="start" x="470.816" y="-290.5" font-family="Helvetica,sans-Serif" font-size="10.00">caiman.source_extraction.cnmf.deconvolution.cvxpy</text>
<text text-anchor="middle" x="586.429" y="-280.5" font-family="Helvetica,sans-Serif" font-size="10.00">_foopsi</text>
</a>
</g>
</g>
<!-- Node1&#45;&gt;Node8 -->
<g id="edge9" class="edge"><title>Node1&#45;&gt;Node8</title>
<path fill="none" stroke="midnightblue" d="M413.774,-288.5C426.591,-288.5 439.576,-288.5 452.367,-288.5"/>
<polygon fill="midnightblue" stroke="midnightblue" points="452.577,-292 462.577,-288.5 452.577,-285 452.577,-292"/>
</g>
<!-- Node9 -->
<g id="node10" class="node"><title>Node9</title>
<g id="a_node10"><a xlink:href="namespacecaiman_1_1source__extraction_1_1cnmf_1_1deconvolution.html#a5753e123f06d6f8a5f53e8f1cc50baba" target="_top" xlink:title="Infer the most likely discretized spike train underlying an AR(2) fluorescence trace. ">
<polygon fill="white" stroke="black" points="449.747,-227.5 449.747,-255.5 723.11,-255.5 723.11,-227.5 449.747,-227.5"/>
<text text-anchor="start" x="457.747" y="-243.5" font-family="Helvetica,sans-Serif" font-size="10.00">caiman.source_extraction.cnmf.deconvolution.constrained</text>
<text text-anchor="middle" x="586.429" y="-233.5" font-family="Helvetica,sans-Serif" font-size="10.00">_oasisAR2</text>
</a>
</g>
</g>
<!-- Node1&#45;&gt;Node9 -->
<g id="edge10" class="edge"><title>Node1&#45;&gt;Node9</title>
<path fill="none" stroke="midnightblue" d="M369.868,-274.462C405.683,-268.986 446.88,-262.686 483.603,-257.071"/>
<polygon fill="midnightblue" stroke="midnightblue" points="484.477,-260.478 493.834,-255.506 483.419,-253.558 484.477,-260.478"/>
</g>
<!-- Node3 -->
<g id="node4" class="node"><title>Node3</title>
<g id="a_node4"><a xlink:href="namespacecaiman_1_1source__extraction_1_1cnmf_1_1deconvolution.html#a16b9a254776edd0d9093ee35b1ef17a2" target="_top" xlink:title="caiman.source_extraction.cnmf.deconvolution.\lGetSn">
<polygon fill="white" stroke="black" points="1363.09,-310.5 1363.09,-338.5 1584.75,-338.5 1584.75,-310.5 1363.09,-310.5"/>
<text text-anchor="start" x="1371.09" y="-326.5" font-family="Helvetica,sans-Serif" font-size="10.00">caiman.source_extraction.cnmf.deconvolution.</text>
<text text-anchor="middle" x="1473.92" y="-316.5" font-family="Helvetica,sans-Serif" font-size="10.00">GetSn</text>
</a>
</g>
</g>
<!-- Node2&#45;&gt;Node3 -->
<g id="edge3" class="edge"><title>Node2&#45;&gt;Node3</title>
<path fill="none" stroke="midnightblue" d="M1018.88,-325.279C1118.5,-325.108 1255.32,-324.873 1352.66,-324.706"/>
<polygon fill="midnightblue" stroke="midnightblue" points="1352.85,-328.206 1362.85,-324.689 1352.84,-321.206 1352.85,-328.206"/>
</g>
<!-- Node4 -->
<g id="node5" class="node"><title>Node4</title>
<g id="a_node5"><a xlink:href="namespacecaiman_1_1source__extraction_1_1cnmf_1_1deconvolution.html#a7a73db2b3e0e88f4a5f30f80944c1319" target="_top" xlink:title="caiman.source_extraction.cnmf.deconvolution.estimate\l_time_constant">
<polygon fill="white" stroke="black" points="1054.57,-268.5 1054.57,-296.5 1314.02,-296.5 1314.02,-268.5 1054.57,-268.5"/>
<text text-anchor="start" x="1062.57" y="-284.5" font-family="Helvetica,sans-Serif" font-size="10.00">caiman.source_extraction.cnmf.deconvolution.estimate</text>
<text text-anchor="middle" x="1184.3" y="-274.5" font-family="Helvetica,sans-Serif" font-size="10.00">_time_constant</text>
</a>
</g>
</g>
<!-- Node2&#45;&gt;Node4 -->
<g id="edge4" class="edge"><title>Node2&#45;&gt;Node4</title>
<path fill="none" stroke="midnightblue" d="M985.522,-311.48C1014.97,-307.164 1047.56,-302.389 1077.65,-297.981"/>
<polygon fill="midnightblue" stroke="midnightblue" points="1078.36,-301.414 1087.74,-296.501 1077.34,-294.488 1078.36,-301.414"/>
</g>
<!-- Node4&#45;&gt;Node3 -->
<g id="edge5" class="edge"><title>Node4&#45;&gt;Node3</title>
<path fill="none" stroke="midnightblue" d="M1281.47,-296.544C1308.81,-300.537 1338.75,-304.908 1366.65,-308.983"/>
<polygon fill="midnightblue" stroke="midnightblue" points="1366.43,-312.488 1376.83,-310.469 1367.45,-305.561 1366.43,-312.488"/>
</g>
<!-- Node5 -->
<g id="node6" class="node"><title>Node5</title>
<g id="a_node6"><a xlink:href="namespacecaiman_1_1source__extraction_1_1cnmf_1_1deconvolution.html#a458da977dee6e97910a1b006e899b309" target="_top" xlink:title="caiman.source_extraction.cnmf.deconvolution.axcov">
<polygon fill="white" stroke="black" points="1350.02,-273.5 1350.02,-291.5 1597.81,-291.5 1597.81,-273.5 1350.02,-273.5"/>
<text text-anchor="middle" x="1473.92" y="-279.5" font-family="Helvetica,sans-Serif" font-size="10.00">caiman.source_extraction.cnmf.deconvolution.axcov</text>
</a>
</g>
</g>
<!-- Node4&#45;&gt;Node5 -->
<g id="edge6" class="edge"><title>Node4&#45;&gt;Node5</title>
<path fill="none" stroke="midnightblue" d="M1314.38,-282.5C1322.77,-282.5 1331.23,-282.5 1339.63,-282.5"/>
<polygon fill="midnightblue" stroke="midnightblue" points="1339.86,-286 1349.86,-282.5 1339.86,-279 1339.86,-286"/>
</g>
<!-- Node6 -->
<g id="node7" class="node"><title>Node6</title>
<g id="a_node7"><a xlink:href="namespacecaiman_1_1source__extraction_1_1cnmf_1_1deconvolution.html#a8d83696f273bd0121651cf48a6b899ae" target="_top" xlink:title="caiman.source_extraction.cnmf.deconvolution.nextpow2">
<polygon fill="white" stroke="black" points="1633.81,-273.5 1633.81,-291.5 1898.28,-291.5 1898.28,-273.5 1633.81,-273.5"/>
<text text-anchor="middle" x="1766.05" y="-279.5" font-family="Helvetica,sans-Serif" font-size="10.00">caiman.source_extraction.cnmf.deconvolution.nextpow2</text>
</a>
</g>
</g>
<!-- Node5&#45;&gt;Node6 -->
<g id="edge7" class="edge"><title>Node5&#45;&gt;Node6</title>
<path fill="none" stroke="midnightblue" d="M1597.96,-282.5C1606.3,-282.5 1614.75,-282.5 1623.18,-282.5"/>
<polygon fill="midnightblue" stroke="midnightblue" points="1623.45,-286 1633.45,-282.5 1623.45,-279 1623.45,-286"/>
</g>
<!-- Node9&#45;&gt;Node2 -->
<g id="edge15" class="edge"><title>Node9&#45;&gt;Node2</title>
<path fill="none" stroke="midnightblue" d="M699.981,-255.594C707.967,-258.101 715.759,-261.044 723.11,-264.5 742.219,-273.482 740.285,-285.939 759.11,-295.5 769.238,-300.644 780.262,-304.92 791.457,-308.472"/>
<polygon fill="midnightblue" stroke="midnightblue" points="790.738,-311.909 801.321,-311.41 792.736,-305.201 790.738,-311.909"/>
</g>
<!-- Node9&#45;&gt;Node4 -->
<g id="edge11" class="edge"><title>Node9&#45;&gt;Node4</title>
<path fill="none" stroke="midnightblue" d="M714.401,-255.537C729.46,-256.987 744.621,-258.348 759.11,-259.5 854.035,-267.045 961.11,-272.83 1043.93,-276.711"/>
<polygon fill="midnightblue" stroke="midnightblue" points="1044.01,-280.218 1054.17,-277.186 1044.34,-273.226 1044.01,-280.218"/>
</g>
<!-- Node10 -->
<g id="node11" class="node"><title>Node10</title>
<g id="a_node11"><a xlink:href="namespacecaiman_1_1source__extraction_1_1cnmf_1_1deconvolution.html#affae481e26d5e13bc6f62c6e643b63d5" target="_top" xlink:title="Infer the most likely discretized spike train underlying an AR(2) fluorescence trace. ">
<polygon fill="white" stroke="black" points="766.054,-232.5 766.054,-250.5 1011.62,-250.5 1011.62,-232.5 766.054,-232.5"/>
<text text-anchor="middle" x="888.839" y="-238.5" font-family="Helvetica,sans-Serif" font-size="10.00">caiman.source_extraction.cnmf.deconvolution.onnls</text>
</a>
</g>
</g>
<!-- Node9&#45;&gt;Node10 -->
<g id="edge12" class="edge"><title>Node9&#45;&gt;Node10</title>
<path fill="none" stroke="midnightblue" d="M723.132,-234.778C733.973,-234.736 744.915,-234.741 755.73,-234.794"/>
<polygon fill="midnightblue" stroke="midnightblue" points="756.031,-238.296 766.053,-234.859 756.075,-231.296 756.031,-238.296"/>
</g>
<!-- Node10&#45;&gt;Node9 -->
<g id="edge14" class="edge"><title>Node10&#45;&gt;Node9</title>
<path fill="none" stroke="midnightblue" d="M766.053,-248.141C755.232,-248.225 744.207,-248.26 733.213,-248.247"/>
<polygon fill="midnightblue" stroke="midnightblue" points="733.141,-244.747 723.132,-248.222 733.123,-251.747 733.141,-244.747"/>
</g>
<!-- Node11 -->
<g id="node12" class="node"><title>Node11</title>
<g id="a_node12"><a xlink:href="namespacecaiman_1_1source__extraction_1_1cnmf_1_1deconvolution.html#ad9f9b2ef0aad5c652f86bd8c7ae64bdd" target="_top" xlink:title="caiman.source_extraction.cnmf.deconvolution._nnls">
<polygon fill="white" stroke="black" points="1061.51,-231.5 1061.51,-249.5 1307.08,-249.5 1307.08,-231.5 1061.51,-231.5"/>
<text text-anchor="middle" x="1184.3" y="-237.5" font-family="Helvetica,sans-Serif" font-size="10.00">caiman.source_extraction.cnmf.deconvolution._nnls</text>
</a>
</g>
</g>
<!-- Node10&#45;&gt;Node11 -->
<g id="edge13" class="edge"><title>Node10&#45;&gt;Node11</title>
<path fill="none" stroke="midnightblue" d="M1011.74,-241.085C1024.79,-241.04 1038.11,-240.995 1051.27,-240.95"/>
<polygon fill="midnightblue" stroke="midnightblue" points="1051.31,-244.45 1061.3,-240.916 1051.29,-237.45 1051.31,-244.45"/>
</g>
<!-- Node13 -->
<g id="node14" class="node"><title>Node13</title>
<g id="a_node14"><a xlink:href="namespacecaiman_1_1mmapping.html#aa75ec735ea507b2ce7eb0e0bd33d2ba3" target="_top" xlink:title="Chunk matrix product between matrix and column vectors A memory mapped ndarray pixels x time b time x...">
<polygon fill="white" stroke="black" points="520.067,-133.5 520.067,-161.5 652.791,-161.5 652.791,-133.5 520.067,-133.5"/>
<text text-anchor="start" x="528.067" y="-149.5" font-family="Helvetica,sans-Serif" font-size="10.00">caiman.mmapping.parallel</text>
<text text-anchor="middle" x="586.429" y="-139.5" font-family="Helvetica,sans-Serif" font-size="10.00">_dot_product</text>
</a>
</g>
</g>
<!-- Node12&#45;&gt;Node13 -->
<g id="edge17" class="edge"><title>Node12&#45;&gt;Node13</title>
<path fill="none" stroke="midnightblue" d="M392.079,-163.226C431.264,-160.039 474.142,-156.552 509.541,-153.672"/>
<polygon fill="midnightblue" stroke="midnightblue" points="510.112,-157.138 519.795,-152.838 509.544,-150.161 510.112,-157.138"/>
</g>
<!-- Node16 -->
<g id="node17" class="node"><title>Node16</title>
<g id="a_node17"><a xlink:href="namespacecaiman_1_1source__extraction_1_1cnmf_1_1utilities.html#aa1b3d1b8495a6d9dcecf91484544babb" target="_top" xlink:title="Determines the update order of the temporal components given the spatial components using a greedy me...">
<polygon fill="white" stroke="black" points="475.877,-180.5 475.877,-208.5 696.98,-208.5 696.98,-180.5 475.877,-180.5"/>
<text text-anchor="start" x="483.877" y="-196.5" font-family="Helvetica,sans-Serif" font-size="10.00">caiman.source_extraction.cnmf.utilities.update</text>
<text text-anchor="middle" x="586.429" y="-186.5" font-family="Helvetica,sans-Serif" font-size="10.00">_order_greedy</text>
</a>
</g>
</g>
<!-- Node12&#45;&gt;Node16 -->
<g id="edge20" class="edge"><title>Node12&#45;&gt;Node16</title>
<path fill="none" stroke="midnightblue" d="M392.079,-180.661C415.998,-182.373 441.292,-184.183 465.421,-185.91"/>
<polygon fill="midnightblue" stroke="midnightblue" points="465.46,-189.422 475.684,-186.645 465.959,-182.44 465.46,-189.422"/>
</g>
<!-- Node14 -->
<g id="node15" class="node"><title>Node14</title>
<g id="a_node15"><a xlink:href="namespacecaiman_1_1mmapping.html#a14d47c076020d7d3adf2599ed3354e4b" target="_top" xlink:title="caiman.mmapping.dot\l_place_holder">
<polygon fill="white" stroke="black" points="831.647,-133.5 831.647,-161.5 946.031,-161.5 946.031,-133.5 831.647,-133.5"/>
<text text-anchor="start" x="839.647" y="-149.5" font-family="Helvetica,sans-Serif" font-size="10.00">caiman.mmapping.dot</text>
<text text-anchor="middle" x="888.839" y="-139.5" font-family="Helvetica,sans-Serif" font-size="10.00">_place_holder</text>
</a>
</g>
</g>
<!-- Node13&#45;&gt;Node14 -->
<g id="edge18" class="edge"><title>Node13&#45;&gt;Node14</title>
<path fill="none" stroke="midnightblue" d="M652.984,-147.5C702.892,-147.5 771.312,-147.5 821.429,-147.5"/>
<polygon fill="midnightblue" stroke="midnightblue" points="821.515,-151 831.515,-147.5 821.515,-144 821.515,-151"/>
</g>
<!-- Node15 -->
<g id="node16" class="node"><title>Node15</title>
<g id="a_node16"><a xlink:href="namespacecaiman_1_1mmapping.html#aeb2ed62e4a9028089a2eec09d392707f" target="_top" xlink:title="Load a memory mapped file created by the function save_memmap. ">
<polygon fill="white" stroke="black" points="1124.6,-112.5 1124.6,-140.5 1243.99,-140.5 1243.99,-112.5 1124.6,-112.5"/>
<text text-anchor="start" x="1132.6" y="-128.5" font-family="Helvetica,sans-Serif" font-size="10.00">caiman.mmapping.load</text>
<text text-anchor="middle" x="1184.3" y="-118.5" font-family="Helvetica,sans-Serif" font-size="10.00">_memmap</text>
</a>
</g>
</g>
<!-- Node14&#45;&gt;Node15 -->
<g id="edge19" class="edge"><title>Node14&#45;&gt;Node15</title>
<path fill="none" stroke="midnightblue" d="M946.073,-143.476C994.051,-140.043 1063.21,-135.094 1114.48,-131.424"/>
<polygon fill="midnightblue" stroke="midnightblue" points="1114.76,-134.913 1124.49,-130.708 1114.26,-127.931 1114.76,-134.913"/>
</g>
<!-- Node17&#45;&gt;Node13 -->
<g id="edge25" class="edge"><title>Node17&#45;&gt;Node13</title>
<path fill="none" stroke="midnightblue" d="M378.282,-118.52C420.989,-124.495 469.988,-131.35 509.606,-136.892"/>
<polygon fill="midnightblue" stroke="midnightblue" points="509.34,-140.389 519.728,-138.308 510.309,-133.457 509.34,-140.389"/>
</g>
<!-- Node17&#45;&gt;Node15 -->
<g id="edge23" class="edge"><title>Node17&#45;&gt;Node15</title>
<path fill="none" stroke="midnightblue" d="M386.807,-107.143C575.316,-111.724 957.591,-121.015 1114.11,-124.819"/>
<polygon fill="midnightblue" stroke="midnightblue" points="1114.45,-128.328 1124.54,-125.072 1114.62,-121.33 1114.45,-128.328"/>
</g>
<!-- Node18 -->
<g id="node19" class="node"><title>Node18</title>
<g id="a_node19"><a xlink:href="namespacecaiman_1_1source__extraction_1_1cnmf_1_1spatial.html#aca0edbf4c2cd31fe1a9c228c4099a485" target="_top" xlink:title="restrict search location to subset of pixels ">
<polygon fill="white" stroke="black" points="469.767,-47.5 469.767,-75.5 703.091,-75.5 703.091,-47.5 469.767,-47.5"/>
<text text-anchor="start" x="477.767" y="-63.5" font-family="Helvetica,sans-Serif" font-size="10.00">caiman.source_extraction.cnmf.spatial.determine</text>
<text text-anchor="middle" x="586.429" y="-53.5" font-family="Helvetica,sans-Serif" font-size="10.00">_search_location</text>
</a>
</g>
</g>
<!-- Node17&#45;&gt;Node18 -->
<g id="edge22" class="edge"><title>Node17&#45;&gt;Node18</title>
<path fill="none" stroke="midnightblue" d="M378.282,-90.4797C409.265,-86.1452 443.561,-81.3473 475.183,-76.9234"/>
<polygon fill="midnightblue" stroke="midnightblue" points="475.929,-80.3531 485.348,-75.5013 474.959,-73.4206 475.929,-80.3531"/>
</g>
<!-- Node19 -->
<g id="node20" class="node"><title>Node19</title>
<g id="a_node20"><a xlink:href="namespacecaiman_1_1source__extraction_1_1cnmf_1_1spatial.html#a3fa5db8c88b06457233eb35dbcea3588" target="_top" xlink:title="caiman.source_extraction.cnmf.spatial.threshold\l_components">
<polygon fill="white" stroke="black" points="471.432,-0.5 471.432,-28.5 701.426,-28.5 701.426,-0.5 471.432,-0.5"/>
<text text-anchor="start" x="479.432" y="-16.5" font-family="Helvetica,sans-Serif" font-size="10.00">caiman.source_extraction.cnmf.spatial.threshold</text>
<text text-anchor="middle" x="586.429" y="-6.5" font-family="Helvetica,sans-Serif" font-size="10.00">_components</text>
</a>
</g>
</g>
<!-- Node17&#45;&gt;Node19 -->
<g id="edge24" class="edge"><title>Node17&#45;&gt;Node19</title>
<path fill="none" stroke="midnightblue" d="M308.436,-90.4587C342.255,-75.344 398.868,-51.5812 449.747,-37.5 458.89,-34.9696 468.461,-32.6708 478.107,-30.5927"/>
<polygon fill="midnightblue" stroke="midnightblue" points="479.091,-33.9634 488.172,-28.5065 477.67,-27.1091 479.091,-33.9634"/>
</g>
</g>
</svg>
        <g id="navigator" transform="translate(0 0)" fill="#404254">
                <rect fill="#f2f5e9" fill-opacity="0.5" stroke="#606060" stroke-width=".5" x="0" y="0" width="60" height="60"/>
                <use id="zoomplus" xlink:href="#zoomPlus" x="17" y="9" onmousedown="handleZoom(evt,'in')"/>
                <use id="zoomminus" xlink:href="#zoomMin" x="42" y="9" onmousedown="handleZoom(evt,'out')"/>
                <use id="reset" xlink:href="#resetDef" x="30" y="36" onmousedown="handleReset()"/>
                <g id="arrowUp" xlink:href="#dirArrow" transform="translate(30 24)" onmousedown="handlePan(0,-1)">
                  <use xlink:href="#rim" fill="#404040">
                        <set attributeName="fill" to="#808080" begin="arrowUp.mouseover" end="arrowUp.mouseout"/>
                  </use>
                  <path fill="none" stroke="white" stroke-width="1.5" d="M0,-3.0v7 M-2.5,-0.5L0,-3.0L2.5,-0.5"/>
                </g>
                <g id="arrowRight" xlink:href="#dirArrow" transform="rotate(90) translate(36 -43)" onmousedown="handlePan(1,0)">
                  <use xlink:href="#rim" fill="#404040">
                        <set attributeName="fill" to="#808080" begin="arrowRight.mouseover" end="arrowRight.mouseout"/>
                  </use>
                  <path fill="none" stroke="white" stroke-width="1.5" d="M0,-3.0v7 M-2.5,-0.5L0,-3.0L2.5,-0.5"/>
                </g>
                <g id="arrowDown" xlink:href="#dirArrow" transform="rotate(180) translate(-30 -48)" onmousedown="handlePan(0,1)">
                  <use xlink:href="#rim" fill="#404040">
                        <set attributeName="fill" to="#808080" begin="arrowDown.mouseover" end="arrowDown.mouseout"/>
                  </use>
                  <path fill="none" stroke="white" stroke-width="1.5" d="M0,-3.0v7 M-2.5,-0.5L0,-3.0L2.5,-0.5"/>
                </g>
                <g id="arrowLeft" xlink:href="#dirArrow" transform="rotate(270) translate(-36 17)" onmousedown="handlePan(-1,0)">
                  <use xlink:href="#rim" fill="#404040">
                        <set attributeName="fill" to="#808080" begin="arrowLeft.mouseover" end="arrowLeft.mouseout"/>
                  </use>
                  <path fill="none" stroke="white" stroke-width="1.5" d="M0,-3.0v7 M-2.5,-0.5L0,-3.0L2.5,-0.5"/>
                </g>
        </g>
        <svg viewBox="0 0 15 15" width="100%" height="30px" preserveAspectRatio="xMaxYMin meet">
         <g id="arrow_out" transform="scale(0.3 0.3)">
          <a xlink:href="namespacecaiman_1_1source__extraction_1_1cnmf_1_1merging_ad08adf2e086a22ef379b10ed3ee36936_cgraph_org.svg" target="_base">
           <rect id="button" ry="5" rx="5" y="6" x="6" height="38" width="38"
                fill="#f2f5e9" fill-opacity="0.5" stroke="#606060" stroke-width="1.0"/>
           <path id="arrow"
             d="M 11.500037,31.436501 C 11.940474,20.09759 22.043105,11.32322 32.158766,21.979434 L 37.068811,17.246167 C 37.068811,17.246167 37.088388,32 37.088388,32 L 22.160133,31.978069 C 22.160133,31.978069 26.997745,27.140456 26.997745,27.140456 C 18.528582,18.264221 13.291696,25.230495 11.500037,31.436501 z"
             style="fill:#404040;"/>
          </a>
         </g>
        </svg>
</svg>
