<?xml version="1.0" encoding="UTF-8" standalone="no"?>
<!DOCTYPE svg PUBLIC "-//W3C//DTD SVG 1.1//EN"
 "http://www.w3.org/Graphics/SVG/1.1/DTD/svg11.dtd">
<!-- Generated by graphviz version 2.38.0 (20140413.2041)
 -->
<!-- Title: preprocess_data Pages: 1 -->
<svg width="435pt" height="101pt"
 viewBox="0.00 0.00 434.60 101.00" xmlns="http://www.w3.org/2000/svg" xmlns:xlink="http://www.w3.org/1999/xlink">
<g id="graph0" class="graph" transform="scale(1 1) rotate(0) translate(4 97)">
<title>preprocess_data</title>
<polygon fill="white" stroke="none" points="-4,4 -4,-97 430.604,-97 430.604,4 -4,4"/>
<!-- Node42 -->
<g id="node1" class="node"><title>Node42</title>
<polygon fill="#bfbfbf" stroke="black" points="0,-37.5 0,-55.5 90.4922,-55.5 90.4922,-37.5 0,-37.5"/>
<text text-anchor="middle" x="45.2461" y="-43.5" font-family="Helvetica,sans-Serif" font-size="10.00">preprocess_data</text>
</g>
<!-- Node43 -->
<g id="node2" class="node"><title>Node43</title>
<g id="a_node2"><a xlink:href="namespacecaiman_1_1source__extraction_1_1cnmf_1_1pre__processing.html#a4f24a28b19a32e01749dc3b71b41f5df" target="_top" xlink:title="interpolate_missing_data">
<polygon fill="white" stroke="black" points="126.492,-74.5 126.492,-92.5 253.674,-92.5 253.674,-74.5 126.492,-74.5"/>
<text text-anchor="middle" x="190.083" y="-80.5" font-family="Helvetica,sans-Serif" font-size="10.00">interpolate_missing_data</text>
</a>
</g>
</g>
<!-- Node42&#45;&gt;Node43 -->
<g id="edge1" class="edge"><title>Node42&#45;&gt;Node43</title>
<path fill="none" stroke="midnightblue" d="M81.1879,-55.5512C100.21,-60.4786 123.951,-66.6283 144.316,-71.9037"/>
<polygon fill="midnightblue" stroke="midnightblue" points="143.449,-75.2945 154.007,-74.414 145.204,-68.5181 143.449,-75.2945"/>
</g>
<!-- Node44 -->
<g id="node3" class="node"><title>Node44</title>
<g id="a_node3"><a xlink:href="namespacecaiman_1_1source__extraction_1_1cnmf_1_1pre__processing.html#ad6085436e00dd246c1798b76d5cd176a" target="_top" xlink:title="parallel version of get_noise_fft. ">
<polygon fill="white" stroke="black" points="134.637,-37.5 134.637,-55.5 245.529,-55.5 245.529,-37.5 134.637,-37.5"/>
<text text-anchor="middle" x="190.083" y="-43.5" font-family="Helvetica,sans-Serif" font-size="10.00">get_noise_fft_parallel</text>
</a>
</g>
</g>
<!-- Node42&#45;&gt;Node44 -->
<g id="edge2" class="edge"><title>Node42&#45;&gt;Node44</title>
<path fill="none" stroke="midnightblue" d="M90.6576,-46.5C101.254,-46.5 112.781,-46.5 124.091,-46.5"/>
<polygon fill="midnightblue" stroke="midnightblue" points="124.383,-50.0001 134.383,-46.5 124.383,-43.0001 124.383,-50.0001"/>
</g>
<!-- Node45 -->
<g id="node4" class="node"><title>Node45</title>
<g id="a_node4"><a xlink:href="namespacecaiman_1_1source__extraction_1_1cnmf_1_1pre__processing.html#a1b73b814ed1bd025323df1f86b4e083b" target="_top" xlink:title="estimate_time_constant">
<polygon fill="white" stroke="black" points="129.278,-0.5 129.278,-18.5 250.888,-18.5 250.888,-0.5 129.278,-0.5"/>
<text text-anchor="middle" x="190.083" y="-6.5" font-family="Helvetica,sans-Serif" font-size="10.00">estimate_time_constant</text>
</a>
</g>
</g>
<!-- Node42&#45;&gt;Node45 -->
<g id="edge3" class="edge"><title>Node42&#45;&gt;Node45</title>
<path fill="none" stroke="midnightblue" d="M81.1879,-37.4488C100.21,-32.5214 123.951,-26.3717 144.316,-21.0963"/>
<polygon fill="midnightblue" stroke="midnightblue" points="145.204,-24.4819 154.007,-18.586 143.449,-17.7055 145.204,-24.4819"/>
</g>
<!-- Node46 -->
<g id="node5" class="node"><title>Node46</title>
<g id="a_node5"><a xlink:href="namespacecaiman_1_1source__extraction_1_1cnmf_1_1pre__processing.html#a60941191e5c55d29e33ed6fa698f1844" target="_top" xlink:title="axcov">
<polygon fill="white" stroke="black" points="289.674,-0.5 289.674,-18.5 331.797,-18.5 331.797,-0.5 289.674,-0.5"/>
<text text-anchor="middle" x="310.735" y="-6.5" font-family="Helvetica,sans-Serif" font-size="10.00">axcov</text>
</a>
</g>
</g>
<!-- Node45&#45;&gt;Node46 -->
<g id="edge4" class="edge"><title>Node45&#45;&gt;Node46</title>
<path fill="none" stroke="midnightblue" d="M251.104,-9.5C260.994,-9.5 270.857,-9.5 279.595,-9.5"/>
<polygon fill="midnightblue" stroke="midnightblue" points="279.622,-13.0001 289.622,-9.5 279.622,-6.0001 279.622,-13.0001"/>
</g>
<!-- Node47 -->
<g id="node6" class="node"><title>Node47</title>
<g id="a_node6"><a xlink:href="namespacecaiman_1_1source__extraction_1_1cnmf_1_1pre__processing.html#aebcfd66f32d95838dfa847044ee22a2b" target="_top" xlink:title="nextpow2">
<polygon fill="white" stroke="black" points="367.797,-0.5 367.797,-18.5 426.604,-18.5 426.604,-0.5 367.797,-0.5"/>
<text text-anchor="middle" x="397.201" y="-6.5" font-family="Helvetica,sans-Serif" font-size="10.00">nextpow2</text>
</a>
</g>
</g>
<!-- Node46&#45;&gt;Node47 -->
<g id="edge5" class="edge"><title>Node46&#45;&gt;Node47</title>
<path fill="none" stroke="midnightblue" d="M332.182,-9.5C339.832,-9.5 348.796,-9.5 357.552,-9.5"/>
<polygon fill="midnightblue" stroke="midnightblue" points="357.645,-13.0001 367.645,-9.5 357.645,-6.0001 357.645,-13.0001"/>
</g>
</g>
</svg>
