<?xml version="1.0" encoding="UTF-8" standalone="no"?>
<!DOCTYPE svg PUBLIC "-//W3C//DTD SVG 1.1//EN"
 "http://www.w3.org/Graphics/SVG/1.1/DTD/svg11.dtd">
<!-- Generated by graphviz version 2.38.0 (20140413.2041)
 -->
<!-- Title: cvxpy_foopsi Pages: 1 -->
<svg width="718pt" height="126pt"
 viewBox="0.00 0.00 717.51 126.00" xmlns="http://www.w3.org/2000/svg" xmlns:xlink="http://www.w3.org/1999/xlink">
<g id="graph0" class="graph" transform="scale(1 1) rotate(0) translate(4 122)">
<title>cvxpy_foopsi</title>
<polygon fill="white" stroke="none" points="-4,4 -4,-122 713.51,-122 713.51,4 -4,4"/>
<!-- Node60 -->
<g id="node1" class="node"><title>Node60</title>
<polygon fill="#bfbfbf" stroke="black" points="0,-47.5 0,-65.5 73.8076,-65.5 73.8076,-47.5 0,-47.5"/>
<text text-anchor="middle" x="36.9038" y="-53.5" font-family="Helvetica,sans-Serif" font-size="10.00">cvxpy_foopsi</text>
</g>
<!-- Node61 -->
<g id="node2" class="node"><title>Node61</title>
<g id="a_node2"><a xlink:href="namespacecaiman_1_1source__extraction_1_1cnmf_1_1deconvolution.html#a0afb63d84485a181bb40f2eefe7b581e" target="_top" xlink:title="Infer the most likely discretized spike train underlying a fluorescence trace. ">
<polygon fill="white" stroke="black" points="109.808,-47.5 109.808,-65.5 209.753,-65.5 209.753,-47.5 109.808,-47.5"/>
<text text-anchor="middle" x="159.78" y="-53.5" font-family="Helvetica,sans-Serif" font-size="10.00">constrained_foopsi</text>
</a>
</g>
</g>
<!-- Node60&#45;&gt;Node61 -->
<g id="edge1" class="edge"><title>Node60&#45;&gt;Node61</title>
<path fill="none" stroke="midnightblue" d="M83.915,-56.5C92.3742,-56.5 101.234,-56.5 109.777,-56.5"/>
<polygon fill="midnightblue" stroke="midnightblue" points="83.8435,-53.0001 73.8435,-56.5 83.8434,-60.0001 83.8435,-53.0001"/>
</g>
<!-- Node62 -->
<g id="node3" class="node"><title>Node62</title>
<g id="a_node3"><a xlink:href="namespacecaiman_1_1source__extraction_1_1cnmf_1_1merging.html#ad08adf2e086a22ef379b10ed3ee36936" target="_top" xlink:title="Merging of spatially overlapping components that have highly correlated temporal activity The correla...">
<polygon fill="white" stroke="black" points="258.819,-89.5 258.819,-117.5 483.242,-117.5 483.242,-89.5 258.819,-89.5"/>
<text text-anchor="start" x="266.819" y="-105.5" font-family="Helvetica,sans-Serif" font-size="10.00">caiman.source_extraction.cnmf.merging.merge</text>
<text text-anchor="middle" x="371.031" y="-95.5" font-family="Helvetica,sans-Serif" font-size="10.00">_components</text>
</a>
</g>
</g>
<!-- Node61&#45;&gt;Node62 -->
<g id="edge2" class="edge"><title>Node61&#45;&gt;Node62</title>
<path fill="none" stroke="midnightblue" d="M200.104,-68.4239C214.403,-72.5425 230.737,-76.9978 245.753,-80.5 259.429,-83.6897 274.034,-86.7221 288.25,-89.4764"/>
<polygon fill="midnightblue" stroke="midnightblue" points="200.681,-64.9461 190.101,-65.5028 198.719,-71.6655 200.681,-64.9461"/>
</g>
<!-- Node63 -->
<g id="node4" class="node"><title>Node63</title>
<g id="a_node4"><a xlink:href="namespacecaiman_1_1source__extraction_1_1cnmf_1_1temporal.html#a2ede407f1e0d0722f51ddb6e99f48f9f" target="_top" xlink:title="necessary for parallel computation of the function constrained_foopsi ">
<polygon fill="white" stroke="black" points="245.753,-42.5 245.753,-70.5 496.309,-70.5 496.309,-42.5 245.753,-42.5"/>
<text text-anchor="start" x="253.753" y="-58.5" font-family="Helvetica,sans-Serif" font-size="10.00">caiman.source_extraction.cnmf.temporal.constrained</text>
<text text-anchor="middle" x="371.031" y="-48.5" font-family="Helvetica,sans-Serif" font-size="10.00">_foopsi_parallel</text>
</a>
</g>
</g>
<!-- Node61&#45;&gt;Node63 -->
<g id="edge3" class="edge"><title>Node61&#45;&gt;Node63</title>
<path fill="none" stroke="midnightblue" d="M219.915,-56.5C228.079,-56.5 236.701,-56.5 245.519,-56.5"/>
<polygon fill="midnightblue" stroke="midnightblue" points="219.84,-53.0001 209.84,-56.5 219.84,-60.0001 219.84,-53.0001"/>
</g>
<!-- Node64 -->
<g id="node5" class="node"><title>Node64</title>
<g id="a_node5"><a xlink:href="namespacecaiman_1_1tests_1_1test__deconvolution.html#aaebeed7ce9541fa4c56791c67009cdc6" target="_top" xlink:title="caiman.tests.test_deconvolution.foo">
<polygon fill="white" stroke="black" points="283.539,-5.5 283.539,-23.5 458.523,-23.5 458.523,-5.5 283.539,-5.5"/>
<text text-anchor="middle" x="371.031" y="-11.5" font-family="Helvetica,sans-Serif" font-size="10.00">caiman.tests.test_deconvolution.foo</text>
</a>
</g>
</g>
<!-- Node61&#45;&gt;Node64 -->
<g id="edge4" class="edge"><title>Node61&#45;&gt;Node64</title>
<path fill="none" stroke="midnightblue" d="M200.764,-44.6817C214.895,-40.7705 230.952,-36.6241 245.753,-33.5 263.799,-29.6909 283.472,-26.3263 301.732,-23.5278"/>
<polygon fill="midnightblue" stroke="midnightblue" points="199.538,-41.3908 190.861,-47.4702 201.436,-48.1287 199.538,-41.3908"/>
</g>
<!-- Node65 -->
<g id="node6" class="node"><title>Node65</title>
<g id="a_node6"><a xlink:href="namespacecaiman_1_1tests_1_1test__deconvolution.html#a90f82ae854f8179179664fe34973f11b" target="_top" xlink:title="caiman.tests.test_deconvolution.test\l_oasis">
<polygon fill="white" stroke="black" points="532.309,-0.5 532.309,-28.5 709.51,-28.5 709.51,-0.5 532.309,-0.5"/>
<text text-anchor="start" x="540.309" y="-16.5" font-family="Helvetica,sans-Serif" font-size="10.00">caiman.tests.test_deconvolution.test</text>
<text text-anchor="middle" x="620.909" y="-6.5" font-family="Helvetica,sans-Serif" font-size="10.00">_oasis</text>
</a>
</g>
</g>
<!-- Node64&#45;&gt;Node65 -->
<g id="edge5" class="edge"><title>Node64&#45;&gt;Node65</title>
<path fill="none" stroke="midnightblue" d="M468.848,-14.5C489.662,-14.5 511.55,-14.5 532.004,-14.5"/>
<polygon fill="midnightblue" stroke="midnightblue" points="468.727,-11.0001 458.727,-14.5 468.727,-18.0001 468.727,-11.0001"/>
</g>
</g>
</svg>
