<?xml version="1.0" encoding="UTF-8" standalone="no"?>
<!DOCTYPE svg PUBLIC "-//W3C//DTD SVG 1.1//EN"
 "http://www.w3.org/Graphics/SVG/1.1/DTD/svg11.dtd">
<!-- Generated by graphviz version 2.38.0 (20140413.2041)
 -->
<!-- Title: get_contours3d Pages: 1 -->
<svg width="572pt" height="74pt"
 viewBox="0.00 0.00 571.87 74.00" xmlns="http://www.w3.org/2000/svg" xmlns:xlink="http://www.w3.org/1999/xlink">
<g id="graph0" class="graph" transform="scale(1 1) rotate(0) translate(4 70)">
<title>get_contours3d</title>
<polygon fill="white" stroke="none" points="-4,4 -4,-70 567.87,-70 567.87,4 -4,4"/>
<!-- Node6 -->
<g id="node1" class="node"><title>Node6</title>
<polygon fill="#bfbfbf" stroke="black" points="0,-21.5 0,-39.5 84.9404,-39.5 84.9404,-21.5 0,-21.5"/>
<text text-anchor="middle" x="42.4702" y="-27.5" font-family="Helvetica,sans-Serif" font-size="10.00">get_contours3d</text>
</g>
<!-- Node7 -->
<g id="node2" class="node"><title>Node7</title>
<g id="a_node2"><a xlink:href="namespacecaiman_1_1utils_1_1visualization.html#a710f8ce5063f0475fb009dd74f84ab9a" target="_top" xlink:title="Interactive plotting utility for ipython notbook. ">
<polygon fill="white" stroke="black" points="120.94,-21.5 120.94,-39.5 225.339,-39.5 225.339,-21.5 120.94,-21.5"/>
<text text-anchor="middle" x="173.14" y="-27.5" font-family="Helvetica,sans-Serif" font-size="10.00">nb_view_patches3d</text>
</a>
</g>
</g>
<!-- Node6&#45;&gt;Node7 -->
<g id="edge1" class="edge"><title>Node6&#45;&gt;Node7</title>
<path fill="none" stroke="midnightblue" d="M85.2455,-24.1333C93.3678,-23.8462 102.039,-23.7204 110.643,-23.7558"/>
<polygon fill="midnightblue" stroke="midnightblue" points="110.635,-27.2559 120.675,-23.8715 110.716,-20.2564 110.635,-27.2559"/>
</g>
<!-- Node7&#45;&gt;Node6 -->
<g id="edge5" class="edge"><title>Node7&#45;&gt;Node6</title>
<path fill="none" stroke="midnightblue" d="M120.675,-37.1285C112.311,-37.2884 103.644,-37.2905 95.2716,-37.1348"/>
<polygon fill="midnightblue" stroke="midnightblue" points="95.3355,-33.6354 85.2455,-36.8667 95.1483,-40.6329 95.3355,-33.6354"/>
</g>
<!-- Node8 -->
<g id="node3" class="node"><title>Node8</title>
<g id="a_node3"><a xlink:href="namespacecaiman_1_1summary__images.html#ae17ab7076653cb3f5db43612a005c646" target="_top" xlink:title="Computes the correlation image for the input dataset Y. ">
<polygon fill="white" stroke="black" points="261.339,-37.5 261.339,-65.5 414.609,-65.5 414.609,-37.5 261.339,-37.5"/>
<text text-anchor="start" x="269.339" y="-53.5" font-family="Helvetica,sans-Serif" font-size="10.00">caiman.summary_images.local</text>
<text text-anchor="middle" x="337.974" y="-43.5" font-family="Helvetica,sans-Serif" font-size="10.00">_correlations</text>
</a>
</g>
</g>
<!-- Node7&#45;&gt;Node8 -->
<g id="edge2" class="edge"><title>Node7&#45;&gt;Node8</title>
<path fill="none" stroke="midnightblue" d="M225.661,-37.1445C233.765,-38.1896 242.327,-39.2938 250.958,-40.4069"/>
<polygon fill="midnightblue" stroke="midnightblue" points="250.733,-43.9068 261.099,-41.7147 251.629,-36.9643 250.733,-43.9068"/>
</g>
<!-- Node9 -->
<g id="node4" class="node"><title>Node9</title>
<g id="a_node4"><a xlink:href="namespacecaiman_1_1utils_1_1visualization.html#ad48f24a70009a82e7a8cafa02e283a0e" target="_top" xlink:title="Plots contour of spatial components against a background image and returns their coordinates. ">
<polygon fill="white" stroke="black" points="299.955,-0.5 299.955,-18.5 375.994,-18.5 375.994,-0.5 299.955,-0.5"/>
<text text-anchor="middle" x="337.974" y="-6.5" font-family="Helvetica,sans-Serif" font-size="10.00">plot_contours</text>
</a>
</g>
</g>
<!-- Node7&#45;&gt;Node9 -->
<g id="edge3" class="edge"><title>Node7&#45;&gt;Node9</title>
<path fill="none" stroke="midnightblue" d="M225.661,-23.8555C246.132,-21.2155 269.531,-18.1978 289.576,-15.6128"/>
<polygon fill="midnightblue" stroke="midnightblue" points="290.249,-19.0551 299.719,-14.3047 289.353,-12.1126 290.249,-19.0551"/>
</g>
<!-- Node10 -->
<g id="node5" class="node"><title>Node10</title>
<g id="a_node5"><a xlink:href="namespacecaiman_1_1base_1_1rois.html#ae37bc9f1a4e815bd7d8e44a2334883a2" target="_top" xlink:title="Calculation of the center of mass for spatial components. ">
<polygon fill="white" stroke="black" points="450.609,-0.5 450.609,-18.5 563.87,-18.5 563.87,-0.5 450.609,-0.5"/>
<text text-anchor="middle" x="507.24" y="-6.5" font-family="Helvetica,sans-Serif" font-size="10.00">caiman.base.rois.com</text>
</a>
</g>
</g>
<!-- Node9&#45;&gt;Node10 -->
<g id="edge4" class="edge"><title>Node9&#45;&gt;Node10</title>
<path fill="none" stroke="midnightblue" d="M376.096,-9.5C394.957,-9.5 418.445,-9.5 440.255,-9.5"/>
<polygon fill="midnightblue" stroke="midnightblue" points="440.466,-13.0001 450.466,-9.5 440.466,-6.0001 440.466,-13.0001"/>
</g>
</g>
</svg>
