<?xml version="1.0" encoding="UTF-8" standalone="no"?>
<!DOCTYPE svg PUBLIC "-//W3C//DTD SVG 1.1//EN"
 "http://www.w3.org/Graphics/SVG/1.1/DTD/svg11.dtd">
<!-- Generated by graphviz version 2.38.0 (20140413.2041)
 -->
<!-- Title: compute_metrics_motion_correction Pages: 1 -->
<svg width="426pt" height="178pt"
 viewBox="0.00 0.00 425.94 178.00" xmlns="http://www.w3.org/2000/svg" xmlns:xlink="http://www.w3.org/1999/xlink">
<g id="graph0" class="graph" transform="scale(1 1) rotate(0) translate(4 174)">
<title>compute_metrics_motion_correction</title>
<polygon fill="white" stroke="none" points="-4,4 -4,-174 421.939,-174 421.939,4 -4,4"/>
<!-- Node50 -->
<g id="node1" class="node"><title>Node50</title>
<polygon fill="#bfbfbf" stroke="black" points="0,-37.5 0,-65.5 127.714,-65.5 127.714,-37.5 0,-37.5"/>
<text text-anchor="start" x="8" y="-53.5" font-family="Helvetica,sans-Serif" font-size="10.00">compute_metrics_motion</text>
<text text-anchor="middle" x="63.8569" y="-43.5" font-family="Helvetica,sans-Serif" font-size="10.00">_correction</text>
</g>
<!-- Node51 -->
<g id="node2" class="node"><title>Node51</title>
<g id="a_node2"><a xlink:href="namespacecaiman_1_1motion__correction.html#aea060208c09f0e4fb01e6d31b9acf36f" target="_top" xlink:title="perform piecewise rigid motion correction iteration, by 1) dividing the FOV in patches 2) motion corr...">
<polygon fill="white" stroke="black" points="163.714,-42.5 163.714,-60.5 250.866,-60.5 250.866,-42.5 163.714,-42.5"/>
<text text-anchor="middle" x="207.29" y="-48.5" font-family="Helvetica,sans-Serif" font-size="10.00">tile_and_correct</text>
</a>
</g>
</g>
<!-- Node50&#45;&gt;Node51 -->
<g id="edge1" class="edge"><title>Node50&#45;&gt;Node51</title>
<path fill="none" stroke="midnightblue" d="M137.966,-51.5C146.706,-51.5 155.397,-51.5 163.505,-51.5"/>
<polygon fill="midnightblue" stroke="midnightblue" points="137.715,-48.0001 127.715,-51.5 137.715,-55.0001 137.715,-48.0001"/>
</g>
<!-- Node52 -->
<g id="node3" class="node"><title>Node52</title>
<g id="a_node3"><a xlink:href="namespaceabadura__demo.html#a98e8097ac25259476cca178403afebb1" target="_top" xlink:title="abadura_demo.tile_and\l_correct_wrapper">
<polygon fill="white" stroke="black" points="291.861,-141.5 291.861,-169.5 412.944,-169.5 412.944,-141.5 291.861,-141.5"/>
<text text-anchor="start" x="299.861" y="-157.5" font-family="Helvetica,sans-Serif" font-size="10.00">abadura_demo.tile_and</text>
<text text-anchor="middle" x="352.403" y="-147.5" font-family="Helvetica,sans-Serif" font-size="10.00">_correct_wrapper</text>
</a>
</g>
</g>
<!-- Node51&#45;&gt;Node52 -->
<g id="edge2" class="edge"><title>Node51&#45;&gt;Node52</title>
<path fill="none" stroke="midnightblue" d="M220.933,-68.5846C235.152,-86.718 259.817,-115.106 286.866,-132.5 292.169,-135.91 298.042,-138.893 304.022,-141.481"/>
<polygon fill="midnightblue" stroke="midnightblue" points="223.682,-66.4175 214.827,-60.5996 218.121,-70.6694 223.682,-66.4175"/>
</g>
<!-- Node53 -->
<g id="node4" class="node"><title>Node53</title>
<g id="a_node4"><a xlink:href="namespacedemo__motion__correction__nonrigid.html#a7c12b0a7d034249b2ceb2b7a2a36498b" target="_top" xlink:title="demo_motion_correction\l_nonrigid.tile_and_correct\l_wrapper">
<polygon fill="white" stroke="black" points="286.866,-84.5 286.866,-122.5 417.939,-122.5 417.939,-84.5 286.866,-84.5"/>
<text text-anchor="start" x="294.866" y="-110.5" font-family="Helvetica,sans-Serif" font-size="10.00">demo_motion_correction</text>
<text text-anchor="start" x="294.866" y="-100.5" font-family="Helvetica,sans-Serif" font-size="10.00">_nonrigid.tile_and_correct</text>
<text text-anchor="middle" x="352.403" y="-90.5" font-family="Helvetica,sans-Serif" font-size="10.00">_wrapper</text>
</a>
</g>
</g>
<!-- Node51&#45;&gt;Node53 -->
<g id="edge3" class="edge"><title>Node51&#45;&gt;Node53</title>
<path fill="none" stroke="midnightblue" d="M242.653,-63.9856C259.496,-70.1058 280.148,-77.6096 298.913,-84.4278"/>
<polygon fill="midnightblue" stroke="midnightblue" points="243.812,-60.6832 233.218,-60.5577 241.422,-67.2624 243.812,-60.6832"/>
</g>
<!-- Node54 -->
<g id="node5" class="node"><title>Node54</title>
<g id="a_node5"><a xlink:href="namespacecaiman_1_1motion__correction.html#a88ef513cfa324fc8548e4fb46d7a67e5" target="_top" xlink:title="create a matrix that is used to normalize the intersection of the stiched patches ...">
<polygon fill="white" stroke="black" points="296.881,-37.5 296.881,-65.5 407.925,-65.5 407.925,-37.5 296.881,-37.5"/>
<text text-anchor="start" x="304.881" y="-53.5" font-family="Helvetica,sans-Serif" font-size="10.00">create_weight_matrix</text>
<text text-anchor="middle" x="352.403" y="-43.5" font-family="Helvetica,sans-Serif" font-size="10.00">_for_blending</text>
</a>
</g>
</g>
<!-- Node51&#45;&gt;Node54 -->
<g id="edge4" class="edge"><title>Node51&#45;&gt;Node54</title>
<path fill="none" stroke="midnightblue" d="M261.566,-44.9497C273.07,-44.6932 285.25,-44.6838 296.804,-44.9214"/>
<polygon fill="midnightblue" stroke="midnightblue" points="261.121,-41.4612 251.229,-45.2547 261.327,-48.4582 261.121,-41.4612"/>
</g>
<!-- Node55 -->
<g id="node6" class="node"><title>Node55</title>
<g id="a_node6"><a xlink:href="namespacecaiman_1_1motion__correction.html#a9c4d6e518f42c395cb58a08d2ff21f45" target="_top" xlink:title="tile_and_correct_wrapper">
<polygon fill="white" stroke="black" points="287.982,-0.5 287.982,-18.5 416.824,-18.5 416.824,-0.5 287.982,-0.5"/>
<text text-anchor="middle" x="352.403" y="-6.5" font-family="Helvetica,sans-Serif" font-size="10.00">tile_and_correct_wrapper</text>
</a>
</g>
</g>
<!-- Node51&#45;&gt;Node55 -->
<g id="edge6" class="edge"><title>Node51&#45;&gt;Node55</title>
<path fill="none" stroke="midnightblue" d="M248.686,-39.6449C271.379,-32.9849 299.27,-24.7998 320.259,-18.6401"/>
<polygon fill="midnightblue" stroke="midnightblue" points="247.601,-36.3155 238.991,-42.4899 249.572,-43.0323 247.601,-36.3155"/>
</g>
<!-- Node54&#45;&gt;Node51 -->
<g id="edge5" class="edge"><title>Node54&#45;&gt;Node51</title>
<path fill="none" stroke="midnightblue" d="M286.777,-58.2218C274.731,-58.3202 262.421,-58.1613 251.229,-57.7453"/>
<polygon fill="midnightblue" stroke="midnightblue" points="286.855,-61.7211 296.804,-58.0786 286.755,-54.7218 286.855,-61.7211"/>
</g>
</g>
</svg>
