<?xml version="1.0" encoding="UTF-8" standalone="no"?>
<!DOCTYPE svg PUBLIC "-//W3C//DTD SVG 1.1//EN"
 "http://www.w3.org/Graphics/SVG/1.1/DTD/svg11.dtd">
<!-- Generated by graphviz version 2.38.0 (20140413.2041)
 -->
<!-- Title: normalize_components Pages: 1 -->
<svg width="349pt" height="138pt"
 viewBox="0.00 0.00 349.23 138.00" xmlns="http://www.w3.org/2000/svg" xmlns:xlink="http://www.w3.org/1999/xlink">
<g id="graph0" class="graph" transform="scale(1 1) rotate(0) translate(4 134)">
<title>normalize_components</title>
<polygon fill="white" stroke="none" points="-4,4 -4,-134 345.23,-134 345.23,4 -4,4"/>
<!-- Node29 -->
<g id="node1" class="node"><title>Node29</title>
<polygon fill="#bfbfbf" stroke="black" points="0,-55.5 0,-73.5 119.389,-73.5 119.389,-55.5 0,-55.5"/>
<text text-anchor="middle" x="59.6943" y="-61.5" font-family="Helvetica,sans-Serif" font-size="10.00">normalize_components</text>
</g>
<!-- Node30 -->
<g id="node2" class="node"><title>Node30</title>
<g id="a_node2"><a xlink:href="namespacecaiman_1_1behavior_1_1behavior.html#a513c5d7fc1e56d74ff55d4f74ee836a3" target="_top" xlink:title="main">
<polygon fill="white" stroke="black" points="155.389,-55.5 155.389,-73.5 193.063,-73.5 193.063,-55.5 155.389,-55.5"/>
<text text-anchor="middle" x="174.226" y="-61.5" font-family="Helvetica,sans-Serif" font-size="10.00">main</text>
</a>
</g>
</g>
<!-- Node29&#45;&gt;Node30 -->
<g id="edge1" class="edge"><title>Node29&#45;&gt;Node30</title>
<path fill="none" stroke="midnightblue" d="M119.597,-57.7566C128.517,-57.8012 137.349,-58.0725 145.193,-58.5705"/>
<polygon fill="midnightblue" stroke="midnightblue" points="144.94,-62.0614 155.193,-59.39 145.512,-55.0848 144.94,-62.0614"/>
</g>
<!-- Node30&#45;&gt;Node29 -->
<g id="edge5" class="edge"><title>Node30&#45;&gt;Node29</title>
<path fill="none" stroke="midnightblue" d="M155.193,-69.61C147.972,-70.362 139.157,-70.8554 129.845,-71.0902"/>
<polygon fill="midnightblue" stroke="midnightblue" points="129.543,-67.5942 119.597,-71.2434 129.648,-74.5934 129.543,-67.5942"/>
</g>
<!-- Node31 -->
<g id="node3" class="node"><title>Node31</title>
<g id="a_node3"><a xlink:href="namespacecaiman_1_1behavior_1_1behavior.html#ac24ea957986e39f33ac3ceb78ed989d1" target="_top" xlink:title="Create a mask from a the convex polygon enclosed between selected points. ">
<polygon fill="white" stroke="black" points="255.748,-111.5 255.748,-129.5 314.546,-129.5 314.546,-111.5 255.748,-111.5"/>
<text text-anchor="middle" x="285.147" y="-117.5" font-family="Helvetica,sans-Serif" font-size="10.00">select_roi</text>
</a>
</g>
</g>
<!-- Node30&#45;&gt;Node31 -->
<g id="edge2" class="edge"><title>Node30&#45;&gt;Node31</title>
<path fill="none" stroke="midnightblue" d="M186.151,-73.6998C196.61,-82.1338 213.113,-94.4932 229.063,-102.5 234.363,-105.16 240.142,-107.55 245.898,-109.652"/>
<polygon fill="midnightblue" stroke="midnightblue" points="244.883,-113.003 255.477,-112.916 247.14,-106.377 244.883,-113.003"/>
</g>
<!-- Node32 -->
<g id="node4" class="node"><title>Node32</title>
<g id="a_node4"><a xlink:href="namespacecaiman_1_1behavior_1_1behavior.html#a8f9ed50a7ba21081b068bf7967f74e09" target="_top" xlink:title="This function compute the optical flow of behavioral movies using the opencv cv2.calcOpticalFlowFarne...">
<polygon fill="white" stroke="black" points="229.063,-74.5 229.063,-92.5 341.23,-92.5 341.23,-74.5 229.063,-74.5"/>
<text text-anchor="middle" x="285.147" y="-80.5" font-family="Helvetica,sans-Serif" font-size="10.00">compute_optical_flow</text>
</a>
</g>
</g>
<!-- Node30&#45;&gt;Node32 -->
<g id="edge3" class="edge"><title>Node30&#45;&gt;Node32</title>
<path fill="none" stroke="midnightblue" d="M193.212,-67.6375C201.447,-69.0739 211.74,-70.8695 222.413,-72.7312"/>
<polygon fill="midnightblue" stroke="midnightblue" points="221.821,-76.1807 232.273,-74.4512 223.024,-69.2848 221.821,-76.1807"/>
</g>
<!-- Node33 -->
<g id="node5" class="node"><title>Node33</title>
<g id="a_node5"><a xlink:href="namespacecaiman_1_1behavior_1_1behavior.html#ab7ca16e11cc59cf634fcdd9a2c6848f6" target="_top" xlink:title="From optical flow images can extract spatial and temporal components. ">
<polygon fill="white" stroke="black" points="232.123,-37.5 232.123,-55.5 338.171,-55.5 338.171,-37.5 232.123,-37.5"/>
<text text-anchor="middle" x="285.147" y="-43.5" font-family="Helvetica,sans-Serif" font-size="10.00">extract_components</text>
</a>
</g>
</g>
<!-- Node30&#45;&gt;Node33 -->
<g id="edge4" class="edge"><title>Node30&#45;&gt;Node33</title>
<path fill="none" stroke="midnightblue" d="M193.212,-61.5277C201.271,-60.1959 211.302,-58.5382 221.731,-56.8147"/>
<polygon fill="midnightblue" stroke="midnightblue" points="222.505,-60.2344 231.8,-55.1507 221.363,-53.3281 222.505,-60.2344"/>
</g>
<!-- Node34 -->
<g id="node6" class="node"><title>Node34</title>
<g id="a_node6"><a xlink:href="namespacecaiman_1_1behavior_1_1behavior.html#abd4cdefdebaf9128bc642c37c14eeec1" target="_top" xlink:title="%% single featureflow,. ">
<polygon fill="white" stroke="black" points="239.066,-0.5 239.066,-18.5 331.228,-18.5 331.228,-0.5 239.066,-0.5"/>
<text text-anchor="middle" x="285.147" y="-6.5" font-family="Helvetica,sans-Serif" font-size="10.00">plot_components</text>
</a>
</g>
</g>
<!-- Node30&#45;&gt;Node34 -->
<g id="edge6" class="edge"><title>Node30&#45;&gt;Node34</title>
<path fill="none" stroke="midnightblue" d="M187.083,-55.2657C197.646,-47.3658 213.755,-36.0992 229.063,-28.5 233.702,-26.1976 238.687,-24.0563 243.696,-22.1037"/>
<polygon fill="midnightblue" stroke="midnightblue" points="245.09,-25.3205 253.271,-18.5887 242.677,-18.7493 245.09,-25.3205"/>
</g>
</g>
</svg>
