<?xml version="1.0" encoding="UTF-8" standalone="no"?>
<!DOCTYPE svg PUBLIC "-//W3C//DTD SVG 1.1//EN"
 "http://www.w3.org/Graphics/SVG/1.1/DTD/svg11.dtd">
<!-- Generated by graphviz version 2.38.0 (20140413.2041)
 -->
<!-- Title: onnls Pages: 1 -->
<svg width="836pt" height="126pt"
 viewBox="0.00 0.00 835.67 126.00" xmlns="http://www.w3.org/2000/svg" xmlns:xlink="http://www.w3.org/1999/xlink">
<g id="graph0" class="graph" transform="scale(1 1) rotate(0) translate(4 122)">
<title>onnls</title>
<polygon fill="white" stroke="none" points="-4,4 -4,-122 831.667,-122 831.667,4 -4,4"/>
<!-- Node125 -->
<g id="node1" class="node"><title>Node125</title>
<polygon fill="#bfbfbf" stroke="black" points="0,-47.5 0,-65.5 39.9062,-65.5 39.9062,-47.5 0,-47.5"/>
<text text-anchor="middle" x="19.9531" y="-53.5" font-family="Helvetica,sans-Serif" font-size="10.00">onnls</text>
</g>
<!-- Node126 -->
<g id="node2" class="node"><title>Node126</title>
<g id="a_node2"><a xlink:href="namespacecaiman_1_1source__extraction_1_1cnmf_1_1deconvolution.html#a5753e123f06d6f8a5f53e8f1cc50baba" target="_top" xlink:title="Infer the most likely discretized spike train underlying an AR(2) fluorescence trace. ">
<polygon fill="white" stroke="black" points="75.9062,-47.5 75.9062,-65.5 191.965,-65.5 191.965,-47.5 75.9062,-47.5"/>
<text text-anchor="middle" x="133.936" y="-53.5" font-family="Helvetica,sans-Serif" font-size="10.00">constrained_oasisAR2</text>
</a>
</g>
</g>
<!-- Node125&#45;&gt;Node126 -->
<g id="edge1" class="edge"><title>Node125&#45;&gt;Node126</title>
<path fill="none" stroke="midnightblue" d="M50.0578,-50.4957C57.9578,-50.0212 66.7941,-49.7732 75.6731,-49.7515"/>
<polygon fill="midnightblue" stroke="midnightblue" points="49.6474,-47.0169 39.9494,-51.283 50.191,-53.9958 49.6474,-47.0169"/>
</g>
<!-- Node126&#45;&gt;Node125 -->
<g id="edge7" class="edge"><title>Node126&#45;&gt;Node125</title>
<path fill="none" stroke="midnightblue" d="M65.4522,-63.122C56.1455,-62.912 47.2815,-62.4437 39.9494,-61.717"/>
<polygon fill="midnightblue" stroke="midnightblue" points="65.6306,-66.6244 75.6731,-63.2485 65.7172,-59.6249 65.6306,-66.6244"/>
</g>
<!-- Node127 -->
<g id="node3" class="node"><title>Node127</title>
<g id="a_node3"><a xlink:href="namespacecaiman_1_1source__extraction_1_1cnmf_1_1deconvolution.html#a0afb63d84485a181bb40f2eefe7b581e" target="_top" xlink:title="Infer the most likely discretized spike train underlying a fluorescence trace. ">
<polygon fill="white" stroke="black" points="227.965,-47.5 227.965,-65.5 327.91,-65.5 327.91,-47.5 227.965,-47.5"/>
<text text-anchor="middle" x="277.938" y="-53.5" font-family="Helvetica,sans-Serif" font-size="10.00">constrained_foopsi</text>
</a>
</g>
</g>
<!-- Node126&#45;&gt;Node127 -->
<g id="edge2" class="edge"><title>Node126&#45;&gt;Node127</title>
<path fill="none" stroke="midnightblue" d="M202.527,-56.5C210.976,-56.5 219.491,-56.5 227.59,-56.5"/>
<polygon fill="midnightblue" stroke="midnightblue" points="202.284,-53.0001 192.284,-56.5 202.284,-60.0001 202.284,-53.0001"/>
</g>
<!-- Node128 -->
<g id="node4" class="node"><title>Node128</title>
<g id="a_node4"><a xlink:href="namespacecaiman_1_1source__extraction_1_1cnmf_1_1merging.html#ad08adf2e086a22ef379b10ed3ee36936" target="_top" xlink:title="Merging of spatially overlapping components that have highly correlated temporal activity The correla...">
<polygon fill="white" stroke="black" points="376.977,-89.5 376.977,-117.5 601.399,-117.5 601.399,-89.5 376.977,-89.5"/>
<text text-anchor="start" x="384.977" y="-105.5" font-family="Helvetica,sans-Serif" font-size="10.00">caiman.source_extraction.cnmf.merging.merge</text>
<text text-anchor="middle" x="489.188" y="-95.5" font-family="Helvetica,sans-Serif" font-size="10.00">_components</text>
</a>
</g>
</g>
<!-- Node127&#45;&gt;Node128 -->
<g id="edge3" class="edge"><title>Node127&#45;&gt;Node128</title>
<path fill="none" stroke="midnightblue" d="M318.261,-68.4239C332.56,-72.5425 348.894,-76.9978 363.91,-80.5 377.586,-83.6897 392.192,-86.7221 406.407,-89.4764"/>
<polygon fill="midnightblue" stroke="midnightblue" points="318.838,-64.9461 308.258,-65.5028 316.876,-71.6655 318.838,-64.9461"/>
</g>
<!-- Node129 -->
<g id="node5" class="node"><title>Node129</title>
<g id="a_node5"><a xlink:href="namespacecaiman_1_1source__extraction_1_1cnmf_1_1temporal.html#a2ede407f1e0d0722f51ddb6e99f48f9f" target="_top" xlink:title="necessary for parallel computation of the function constrained_foopsi ">
<polygon fill="white" stroke="black" points="363.91,-42.5 363.91,-70.5 614.466,-70.5 614.466,-42.5 363.91,-42.5"/>
<text text-anchor="start" x="371.91" y="-58.5" font-family="Helvetica,sans-Serif" font-size="10.00">caiman.source_extraction.cnmf.temporal.constrained</text>
<text text-anchor="middle" x="489.188" y="-48.5" font-family="Helvetica,sans-Serif" font-size="10.00">_foopsi_parallel</text>
</a>
</g>
</g>
<!-- Node127&#45;&gt;Node129 -->
<g id="edge4" class="edge"><title>Node127&#45;&gt;Node129</title>
<path fill="none" stroke="midnightblue" d="M338.073,-56.5C346.236,-56.5 354.859,-56.5 363.677,-56.5"/>
<polygon fill="midnightblue" stroke="midnightblue" points="337.997,-53.0001 327.997,-56.5 337.997,-60.0001 337.997,-53.0001"/>
</g>
<!-- Node130 -->
<g id="node6" class="node"><title>Node130</title>
<g id="a_node6"><a xlink:href="namespacecaiman_1_1tests_1_1test__deconvolution.html#aaebeed7ce9541fa4c56791c67009cdc6" target="_top" xlink:title="caiman.tests.test_deconvolution.foo">
<polygon fill="white" stroke="black" points="401.696,-5.5 401.696,-23.5 576.68,-23.5 576.68,-5.5 401.696,-5.5"/>
<text text-anchor="middle" x="489.188" y="-11.5" font-family="Helvetica,sans-Serif" font-size="10.00">caiman.tests.test_deconvolution.foo</text>
</a>
</g>
</g>
<!-- Node127&#45;&gt;Node130 -->
<g id="edge5" class="edge"><title>Node127&#45;&gt;Node130</title>
<path fill="none" stroke="midnightblue" d="M318.922,-44.6817C333.052,-40.7705 349.11,-36.6241 363.91,-33.5 381.956,-29.6909 401.629,-26.3263 419.889,-23.5278"/>
<polygon fill="midnightblue" stroke="midnightblue" points="317.696,-41.3908 309.019,-47.4702 319.593,-48.1287 317.696,-41.3908"/>
</g>
<!-- Node131 -->
<g id="node7" class="node"><title>Node131</title>
<g id="a_node7"><a xlink:href="namespacecaiman_1_1tests_1_1test__deconvolution.html#a90f82ae854f8179179664fe34973f11b" target="_top" xlink:title="caiman.tests.test_deconvolution.test\l_oasis">
<polygon fill="white" stroke="black" points="650.466,-0.5 650.466,-28.5 827.667,-28.5 827.667,-0.5 650.466,-0.5"/>
<text text-anchor="start" x="658.466" y="-16.5" font-family="Helvetica,sans-Serif" font-size="10.00">caiman.tests.test_deconvolution.test</text>
<text text-anchor="middle" x="739.066" y="-6.5" font-family="Helvetica,sans-Serif" font-size="10.00">_oasis</text>
</a>
</g>
</g>
<!-- Node130&#45;&gt;Node131 -->
<g id="edge6" class="edge"><title>Node130&#45;&gt;Node131</title>
<path fill="none" stroke="midnightblue" d="M587.005,-14.5C607.819,-14.5 629.707,-14.5 650.161,-14.5"/>
<polygon fill="midnightblue" stroke="midnightblue" points="586.884,-11.0001 576.884,-14.5 586.884,-18.0001 586.884,-11.0001"/>
</g>
</g>
</svg>
