<?xml version="1.0" encoding="UTF-8" standalone="no"?>
<!DOCTYPE svg PUBLIC "-//W3C//DTD SVG 1.1//EN"
 "http://www.w3.org/Graphics/SVG/1.1/DTD/svg11.dtd">
<!-- Generated by graphviz version 2.38.0 (20140413.2041)
 -->
<!-- Title: computeDFF_traces Pages: 1 -->
<svg width="702pt" height="37pt"
 viewBox="0.00 0.00 701.65 37.00" xmlns="http://www.w3.org/2000/svg" xmlns:xlink="http://www.w3.org/1999/xlink">
<g id="graph0" class="graph" transform="scale(1 1) rotate(0) translate(4 33)">
<title>computeDFF_traces</title>
<polygon fill="white" stroke="none" points="-4,4 -4,-33 697.653,-33 697.653,4 -4,4"/>
<!-- Node6 -->
<g id="node1" class="node"><title>Node6</title>
<polygon fill="#bfbfbf" stroke="black" points="0,-5.5 0,-23.5 106.586,-23.5 106.586,-5.5 0,-5.5"/>
<text text-anchor="middle" x="53.293" y="-11.5" font-family="Helvetica,sans-Serif" font-size="10.00">computeDFF_traces</text>
</g>
<!-- Node7 -->
<g id="node2" class="node"><title>Node7</title>
<g id="a_node2"><a xlink:href="namespacecaiman_1_1source__extraction_1_1cnmf_1_1utilities.html#a280d064e1a9888eca4b375647d031491" target="_top" xlink:title="Compute DFF function from cnmf output. ">
<polygon fill="white" stroke="black" points="142.586,-5.5 142.586,-23.5 219.157,-23.5 219.157,-5.5 142.586,-5.5"/>
<text text-anchor="middle" x="180.872" y="-11.5" font-family="Helvetica,sans-Serif" font-size="10.00">extract_DF_F</text>
</a>
</g>
</g>
<!-- Node6&#45;&gt;Node7 -->
<g id="edge1" class="edge"><title>Node6&#45;&gt;Node7</title>
<path fill="none" stroke="midnightblue" d="M106.822,-14.5C115.234,-14.5 123.898,-14.5 132.189,-14.5"/>
<polygon fill="midnightblue" stroke="midnightblue" points="132.444,-18.0001 142.444,-14.5 132.444,-11.0001 132.444,-18.0001"/>
</g>
<!-- Node8 -->
<g id="node3" class="node"><title>Node8</title>
<g id="a_node3"><a xlink:href="namespacecaiman_1_1mmapping.html#aa75ec735ea507b2ce7eb0e0bd33d2ba3" target="_top" xlink:title="Chunk matrix product between matrix and column vectors A memory mapped ndarray pixels x time b time x...">
<polygon fill="white" stroke="black" points="255.157,-0.5 255.157,-28.5 387.881,-28.5 387.881,-0.5 255.157,-0.5"/>
<text text-anchor="start" x="263.157" y="-16.5" font-family="Helvetica,sans-Serif" font-size="10.00">caiman.mmapping.parallel</text>
<text text-anchor="middle" x="321.519" y="-6.5" font-family="Helvetica,sans-Serif" font-size="10.00">_dot_product</text>
</a>
</g>
</g>
<!-- Node7&#45;&gt;Node8 -->
<g id="edge2" class="edge"><title>Node7&#45;&gt;Node8</title>
<path fill="none" stroke="midnightblue" d="M219.392,-14.5C227.374,-14.5 236.075,-14.5 244.914,-14.5"/>
<polygon fill="midnightblue" stroke="midnightblue" points="244.92,-18.0001 254.92,-14.5 244.92,-11.0001 244.92,-18.0001"/>
</g>
<!-- Node9 -->
<g id="node4" class="node"><title>Node9</title>
<g id="a_node4"><a xlink:href="namespacecaiman_1_1mmapping.html#a14d47c076020d7d3adf2599ed3354e4b" target="_top" xlink:title="caiman.mmapping.dot\l_place_holder">
<polygon fill="white" stroke="black" points="423.881,-0.5 423.881,-28.5 538.265,-28.5 538.265,-0.5 423.881,-0.5"/>
<text text-anchor="start" x="431.881" y="-16.5" font-family="Helvetica,sans-Serif" font-size="10.00">caiman.mmapping.dot</text>
<text text-anchor="middle" x="481.073" y="-6.5" font-family="Helvetica,sans-Serif" font-size="10.00">_place_holder</text>
</a>
</g>
</g>
<!-- Node8&#45;&gt;Node9 -->
<g id="edge3" class="edge"><title>Node8&#45;&gt;Node9</title>
<path fill="none" stroke="midnightblue" d="M387.967,-14.5C396.382,-14.5 405.006,-14.5 413.44,-14.5"/>
<polygon fill="midnightblue" stroke="midnightblue" points="413.606,-18.0001 423.606,-14.5 413.606,-11.0001 413.606,-18.0001"/>
</g>
<!-- Node10 -->
<g id="node5" class="node"><title>Node10</title>
<g id="a_node5"><a xlink:href="namespacecaiman_1_1mmapping.html#aeb2ed62e4a9028089a2eec09d392707f" target="_top" xlink:title="Load a memory mapped file created by the function save_memmap. ">
<polygon fill="white" stroke="black" points="574.265,-0.5 574.265,-28.5 693.653,-28.5 693.653,-0.5 574.265,-0.5"/>
<text text-anchor="start" x="582.265" y="-16.5" font-family="Helvetica,sans-Serif" font-size="10.00">caiman.mmapping.load</text>
<text text-anchor="middle" x="633.959" y="-6.5" font-family="Helvetica,sans-Serif" font-size="10.00">_memmap</text>
</a>
</g>
</g>
<!-- Node9&#45;&gt;Node10 -->
<g id="edge4" class="edge"><title>Node9&#45;&gt;Node10</title>
<path fill="none" stroke="midnightblue" d="M538.687,-14.5C546.891,-14.5 555.412,-14.5 563.828,-14.5"/>
<polygon fill="midnightblue" stroke="midnightblue" points="564.013,-18.0001 574.013,-14.5 564.013,-11.0001 564.013,-18.0001"/>
</g>
</g>
</svg>
