<?xml version="1.0" encoding="UTF-8" standalone="no"?>
<!DOCTYPE svg PUBLIC "-//W3C//DTD SVG 1.1//EN"
 "http://www.w3.org/Graphics/SVG/1.1/DTD/svg11.dtd">
<!-- Generated by graphviz version 2.38.0 (20140413.2041)
 -->
<!-- Title: estimate_parameters Pages: 1 -->
<svg width="451pt" height="64pt"
 viewBox="0.00 0.00 450.70 64.00" xmlns="http://www.w3.org/2000/svg" xmlns:xlink="http://www.w3.org/1999/xlink">
<g id="graph0" class="graph" transform="scale(1 1) rotate(0) translate(4 60)">
<title>estimate_parameters</title>
<polygon fill="white" stroke="none" points="-4,4 -4,-60 446.698,-60 446.698,4 -4,4"/>
<!-- Node66 -->
<g id="node1" class="node"><title>Node66</title>
<polygon fill="#bfbfbf" stroke="black" points="0,-19.5 0,-37.5 109.931,-37.5 109.931,-19.5 0,-19.5"/>
<text text-anchor="middle" x="54.9653" y="-25.5" font-family="Helvetica,sans-Serif" font-size="10.00">estimate_parameters</text>
</g>
<!-- Node67 -->
<g id="node2" class="node"><title>Node67</title>
<g id="a_node2"><a xlink:href="namespacecaiman_1_1source__extraction_1_1cnmf_1_1deconvolution.html#a16b9a254776edd0d9093ee35b1ef17a2" target="_top" xlink:title="GetSn">
<polygon fill="white" stroke="black" points="303.541,-37.5 303.541,-55.5 347.891,-55.5 347.891,-37.5 303.541,-37.5"/>
<text text-anchor="middle" x="325.716" y="-43.5" font-family="Helvetica,sans-Serif" font-size="10.00">GetSn</text>
</a>
</g>
</g>
<!-- Node66&#45;&gt;Node67 -->
<g id="edge1" class="edge"><title>Node66&#45;&gt;Node67</title>
<path fill="none" stroke="midnightblue" d="M110.028,-32.1209C165.086,-35.8086 248.559,-41.3993 293.478,-44.4078"/>
<polygon fill="midnightblue" stroke="midnightblue" points="293.291,-47.903 303.503,-45.0792 293.759,-40.9187 293.291,-47.903"/>
</g>
<!-- Node68 -->
<g id="node3" class="node"><title>Node68</title>
<g id="a_node3"><a xlink:href="namespacecaiman_1_1source__extraction_1_1cnmf_1_1deconvolution.html#a7a73db2b3e0e88f4a5f30f80944c1319" target="_top" xlink:title="estimate_time_constant">
<polygon fill="white" stroke="black" points="145.931,-0.5 145.931,-18.5 267.541,-18.5 267.541,-0.5 145.931,-0.5"/>
<text text-anchor="middle" x="206.736" y="-6.5" font-family="Helvetica,sans-Serif" font-size="10.00">estimate_time_constant</text>
</a>
</g>
</g>
<!-- Node66&#45;&gt;Node68 -->
<g id="edge2" class="edge"><title>Node66&#45;&gt;Node68</title>
<path fill="none" stroke="midnightblue" d="M110.036,-21.6406C118.407,-20.5786 127.155,-19.4688 135.814,-18.3703"/>
<polygon fill="midnightblue" stroke="midnightblue" points="136.43,-21.8203 145.91,-17.0895 135.549,-14.8759 136.43,-21.8203"/>
</g>
<!-- Node68&#45;&gt;Node67 -->
<g id="edge3" class="edge"><title>Node68&#45;&gt;Node67</title>
<path fill="none" stroke="midnightblue" d="M236.352,-18.5512C253.655,-24.0238 275.724,-31.0042 293.479,-36.6199"/>
<polygon fill="midnightblue" stroke="midnightblue" points="292.775,-40.0682 303.365,-39.7469 294.886,-33.3941 292.775,-40.0682"/>
</g>
<!-- Node69 -->
<g id="node4" class="node"><title>Node69</title>
<g id="a_node4"><a xlink:href="namespacecaiman_1_1source__extraction_1_1cnmf_1_1deconvolution.html#a458da977dee6e97910a1b006e899b309" target="_top" xlink:title="axcov">
<polygon fill="white" stroke="black" points="304.654,-0.5 304.654,-18.5 346.777,-18.5 346.777,-0.5 304.654,-0.5"/>
<text text-anchor="middle" x="325.716" y="-6.5" font-family="Helvetica,sans-Serif" font-size="10.00">axcov</text>
</a>
</g>
</g>
<!-- Node68&#45;&gt;Node69 -->
<g id="edge4" class="edge"><title>Node68&#45;&gt;Node69</title>
<path fill="none" stroke="midnightblue" d="M267.597,-9.5C276.899,-9.5 286.155,-9.5 294.423,-9.5"/>
<polygon fill="midnightblue" stroke="midnightblue" points="294.644,-13.0001 304.644,-9.5 294.644,-6.0001 294.644,-13.0001"/>
</g>
<!-- Node70 -->
<g id="node5" class="node"><title>Node70</title>
<g id="a_node5"><a xlink:href="namespacecaiman_1_1source__extraction_1_1cnmf_1_1deconvolution.html#a8d83696f273bd0121651cf48a6b899ae" target="_top" xlink:title="nextpow2">
<polygon fill="white" stroke="black" points="383.891,-0.5 383.891,-18.5 442.698,-18.5 442.698,-0.5 383.891,-0.5"/>
<text text-anchor="middle" x="413.294" y="-6.5" font-family="Helvetica,sans-Serif" font-size="10.00">nextpow2</text>
</a>
</g>
</g>
<!-- Node69&#45;&gt;Node70 -->
<g id="edge5" class="edge"><title>Node69&#45;&gt;Node70</title>
<path fill="none" stroke="midnightblue" d="M346.997,-9.5C354.969,-9.5 364.399,-9.5 373.577,-9.5"/>
<polygon fill="midnightblue" stroke="midnightblue" points="373.74,-13.0001 383.74,-9.5 373.74,-6.0001 373.74,-13.0001"/>
</g>
</g>
</svg>
