<?xml version="1.0" encoding="UTF-8" standalone="no"?>
<!DOCTYPE svg PUBLIC "-//W3C//DTD SVG 1.1//EN"
 "http://www.w3.org/Graphics/SVG/1.1/DTD/svg11.dtd">
<!-- Generated by graphviz version 2.38.0 (20140413.2041)
 -->
<!-- Title: sliding_window Pages: 1 -->
<svg width="529pt" height="131pt"
 viewBox="0.00 0.00 528.53 131.00" xmlns="http://www.w3.org/2000/svg" xmlns:xlink="http://www.w3.org/1999/xlink">
<g id="graph0" class="graph" transform="scale(1 1) rotate(0) translate(4 127)">
<title>sliding_window</title>
<polygon fill="white" stroke="none" points="-4,4 -4,-127 524.53,-127 524.53,4 -4,4"/>
<!-- Node117 -->
<g id="node1" class="node"><title>Node117</title>
<polygon fill="#bfbfbf" stroke="black" points="0,-25.5 0,-43.5 83.2607,-43.5 83.2607,-25.5 0,-25.5"/>
<text text-anchor="middle" x="41.6304" y="-31.5" font-family="Helvetica,sans-Serif" font-size="10.00">sliding_window</text>
</g>
<!-- Node118 -->
<g id="node2" class="node"><title>Node118</title>
<g id="a_node2"><a xlink:href="namespacecaiman_1_1motion__correction.html#a88ef513cfa324fc8548e4fb46d7a67e5" target="_top" xlink:title="create a matrix that is used to normalize the intersection of the stiched patches ...">
<polygon fill="white" stroke="black" points="119.261,-42.5 119.261,-70.5 230.305,-70.5 230.305,-42.5 119.261,-42.5"/>
<text text-anchor="start" x="127.261" y="-58.5" font-family="Helvetica,sans-Serif" font-size="10.00">create_weight_matrix</text>
<text text-anchor="middle" x="174.783" y="-48.5" font-family="Helvetica,sans-Serif" font-size="10.00">_for_blending</text>
</a>
</g>
</g>
<!-- Node117&#45;&gt;Node118 -->
<g id="edge1" class="edge"><title>Node117&#45;&gt;Node118</title>
<path fill="none" stroke="midnightblue" d="M93.4383,-43.0227C101.831,-44.4306 110.565,-45.8956 119.05,-47.3189"/>
<polygon fill="midnightblue" stroke="midnightblue" points="93.8501,-39.543 83.4089,-41.3403 92.692,-46.4465 93.8501,-39.543"/>
</g>
<!-- Node119 -->
<g id="node3" class="node"><title>Node119</title>
<g id="a_node3"><a xlink:href="namespacecaiman_1_1motion__correction.html#aea060208c09f0e4fb01e6d31b9acf36f" target="_top" xlink:title="perform piecewise rigid motion correction iteration, by 1) dividing the FOV in patches 2) motion corr...">
<polygon fill="white" stroke="black" points="266.305,-47.5 266.305,-65.5 353.457,-65.5 353.457,-47.5 266.305,-47.5"/>
<text text-anchor="middle" x="309.881" y="-53.5" font-family="Helvetica,sans-Serif" font-size="10.00">tile_and_correct</text>
</a>
</g>
</g>
<!-- Node117&#45;&gt;Node119 -->
<g id="edge7" class="edge"><title>Node117&#45;&gt;Node119</title>
<path fill="none" stroke="midnightblue" d="M93.7779,-30.1824C131.67,-27.9625 184.461,-26.9284 230.305,-33.5 248.877,-36.1624 269.188,-42.1941 284.506,-47.4128"/>
<polygon fill="midnightblue" stroke="midnightblue" points="93.2618,-26.708 83.5037,-30.8346 93.7053,-33.6939 93.2618,-26.708"/>
</g>
<!-- Node118&#45;&gt;Node119 -->
<g id="edge2" class="edge"><title>Node118&#45;&gt;Node119</title>
<path fill="none" stroke="midnightblue" d="M240.803,-49.7516C249.464,-49.7336 258.159,-49.8682 266.302,-50.1553"/>
<polygon fill="midnightblue" stroke="midnightblue" points="240.655,-46.2527 230.687,-49.8427 240.718,-53.2524 240.655,-46.2527"/>
</g>
<!-- Node119&#45;&gt;Node118 -->
<g id="edge5" class="edge"><title>Node119&#45;&gt;Node118</title>
<path fill="none" stroke="midnightblue" d="M256.247,-63.1171C247.848,-63.2797 239.138,-63.2931 230.687,-63.1573"/>
<polygon fill="midnightblue" stroke="midnightblue" points="256.4,-66.6143 266.302,-62.8447 256.21,-59.6169 256.4,-66.6143"/>
</g>
<!-- Node120 -->
<g id="node4" class="node"><title>Node120</title>
<g id="a_node4"><a xlink:href="namespaceabadura__demo.html#a98e8097ac25259476cca178403afebb1" target="_top" xlink:title="abadura_demo.tile_and\l_correct_wrapper">
<polygon fill="white" stroke="black" points="394.452,-94.5 394.452,-122.5 515.535,-122.5 515.535,-94.5 394.452,-94.5"/>
<text text-anchor="start" x="402.452" y="-110.5" font-family="Helvetica,sans-Serif" font-size="10.00">abadura_demo.tile_and</text>
<text text-anchor="middle" x="454.994" y="-100.5" font-family="Helvetica,sans-Serif" font-size="10.00">_correct_wrapper</text>
</a>
</g>
</g>
<!-- Node119&#45;&gt;Node120 -->
<g id="edge3" class="edge"><title>Node119&#45;&gt;Node120</title>
<path fill="none" stroke="midnightblue" d="M344.877,-69.1413C358.697,-74.2555 374.827,-80.1936 389.457,-85.5 397.508,-88.4202 406.135,-91.5171 414.378,-94.4603"/>
<polygon fill="midnightblue" stroke="midnightblue" points="345.87,-65.7768 335.277,-65.5839 343.438,-72.3406 345.87,-65.7768"/>
</g>
<!-- Node121 -->
<g id="node5" class="node"><title>Node121</title>
<g id="a_node5"><a xlink:href="namespacedemo__motion__correction__nonrigid.html#a7c12b0a7d034249b2ceb2b7a2a36498b" target="_top" xlink:title="demo_motion_correction\l_nonrigid.tile_and_correct\l_wrapper">
<polygon fill="white" stroke="black" points="389.457,-37.5 389.457,-75.5 520.53,-75.5 520.53,-37.5 389.457,-37.5"/>
<text text-anchor="start" x="397.457" y="-63.5" font-family="Helvetica,sans-Serif" font-size="10.00">demo_motion_correction</text>
<text text-anchor="start" x="397.457" y="-53.5" font-family="Helvetica,sans-Serif" font-size="10.00">_nonrigid.tile_and_correct</text>
<text text-anchor="middle" x="454.994" y="-43.5" font-family="Helvetica,sans-Serif" font-size="10.00">_wrapper</text>
</a>
</g>
</g>
<!-- Node119&#45;&gt;Node121 -->
<g id="edge4" class="edge"><title>Node119&#45;&gt;Node121</title>
<path fill="none" stroke="midnightblue" d="M364.052,-56.5C372.306,-56.5 380.911,-56.5 389.385,-56.5"/>
<polygon fill="midnightblue" stroke="midnightblue" points="363.819,-53.0001 353.819,-56.5 363.819,-60.0001 363.819,-53.0001"/>
</g>
<!-- Node122 -->
<g id="node6" class="node"><title>Node122</title>
<g id="a_node6"><a xlink:href="namespacecaiman_1_1motion__correction.html#a9c4d6e518f42c395cb58a08d2ff21f45" target="_top" xlink:title="tile_and_correct_wrapper">
<polygon fill="white" stroke="black" points="390.573,-0.5 390.573,-18.5 519.415,-18.5 519.415,-0.5 390.573,-0.5"/>
<text text-anchor="middle" x="454.994" y="-6.5" font-family="Helvetica,sans-Serif" font-size="10.00">tile_and_correct_wrapper</text>
</a>
</g>
</g>
<!-- Node119&#45;&gt;Node122 -->
<g id="edge6" class="edge"><title>Node119&#45;&gt;Node122</title>
<path fill="none" stroke="midnightblue" d="M344.765,-43.9576C358.569,-38.9707 374.717,-33.2918 389.457,-28.5 400.009,-25.0696 411.617,-21.5687 422.044,-18.522"/>
<polygon fill="midnightblue" stroke="midnightblue" points="343.383,-40.7359 335.182,-47.4439 345.776,-47.3141 343.383,-40.7359"/>
</g>
</g>
</svg>
