<?xml version="1.0" encoding="UTF-8" standalone="no"?>
<!DOCTYPE svg PUBLIC "-//W3C//DTD SVG 1.1//EN"
 "http://www.w3.org/Graphics/SVG/1.1/DTD/svg11.dtd">
<!-- Generated by graphviz version 2.38.0 (20140413.2041)
 -->
<!-- Title: val_parse Pages: 1 -->
<svg width="325pt" height="27pt"
 viewBox="0.00 0.00 324.79 27.00" xmlns="http://www.w3.org/2000/svg" xmlns:xlink="http://www.w3.org/1999/xlink">
<g id="graph0" class="graph" transform="scale(1 1) rotate(0) translate(4 23)">
<title>val_parse</title>
<polygon fill="white" stroke="none" points="-4,4 -4,-23 320.787,-23 320.787,4 -4,4"/>
<!-- Node11 -->
<g id="node1" class="node"><title>Node11</title>
<polygon fill="#bfbfbf" stroke="black" points="0,-0.5 0,-18.5 59.3594,-18.5 59.3594,-0.5 0,-0.5"/>
<text text-anchor="middle" x="29.6797" y="-6.5" font-family="Helvetica,sans-Serif" font-size="10.00">val_parse</text>
</g>
<!-- Node12 -->
<g id="node2" class="node"><title>Node12</title>
<g id="a_node2"><a xlink:href="namespacecaiman_1_1utils_1_1utils.html#acb92eaecdc1f6d8e00bc14c21dceef9a" target="_top" xlink:title="parse image_description field embedded by scanimage from get iamge description ">
<polygon fill="white" stroke="black" points="95.3594,-0.5 95.3594,-18.5 149.157,-18.5 149.157,-0.5 95.3594,-0.5"/>
<text text-anchor="middle" x="122.258" y="-6.5" font-family="Helvetica,sans-Serif" font-size="10.00">si_parse</text>
</a>
</g>
</g>
<!-- Node11&#45;&gt;Node12 -->
<g id="edge1" class="edge"><title>Node11&#45;&gt;Node12</title>
<path fill="none" stroke="midnightblue" d="M69.7825,-9.5C78.3304,-9.5 87.1781,-9.5 95.0763,-9.5"/>
<polygon fill="midnightblue" stroke="midnightblue" points="69.5884,-6.0001 59.5884,-9.5 69.5883,-13.0001 69.5884,-6.0001"/>
</g>
<!-- Node13 -->
<g id="node3" class="node"><title>Node13</title>
<g id="a_node3"><a xlink:href="namespacecaiman_1_1utils_1_1utils.html#a58634e5943a08214b6dd54cd6a10110f" target="_top" xlink:title="Given a tif file acquired with Scanimage it returns a dictionary containing the information in the im...">
<polygon fill="white" stroke="black" points="185.157,-0.5 185.157,-18.5 316.787,-18.5 316.787,-0.5 185.157,-0.5"/>
<text text-anchor="middle" x="250.972" y="-6.5" font-family="Helvetica,sans-Serif" font-size="10.00">get_image_description_SI</text>
</a>
</g>
</g>
<!-- Node12&#45;&gt;Node13 -->
<g id="edge2" class="edge"><title>Node12&#45;&gt;Node13</title>
<path fill="none" stroke="midnightblue" d="M159.34,-9.5C167.412,-9.5 176.214,-9.5 185.057,-9.5"/>
<polygon fill="midnightblue" stroke="midnightblue" points="159.207,-6.0001 149.207,-9.5 159.206,-13.0001 159.207,-6.0001"/>
</g>
</g>
</svg>
