<?xml version="1.0" encoding="UTF-8" standalone="no"?>
<!DOCTYPE svg PUBLIC "-//W3C//DTD SVG 1.1//EN"
 "http://www.w3.org/Graphics/SVG/1.1/DTD/svg11.dtd">
<!-- Generated by graphviz version 2.38.0 (20140413.2041)
 -->
<!-- Title: constrained_foopsi Pages: 1 -->
<svg width="608pt" height="126pt"
 viewBox="0.00 0.00 607.70 126.00" xmlns="http://www.w3.org/2000/svg" xmlns:xlink="http://www.w3.org/1999/xlink">
<g id="graph0" class="graph" transform="scale(1 1) rotate(0) translate(4 122)">
<title>constrained_foopsi</title>
<polygon fill="white" stroke="none" points="-4,4 -4,-122 603.702,-122 603.702,4 -4,4"/>
<!-- Node32 -->
<g id="node1" class="node"><title>Node32</title>
<polygon fill="#bfbfbf" stroke="black" points="0,-47.5 0,-65.5 99.9453,-65.5 99.9453,-47.5 0,-47.5"/>
<text text-anchor="middle" x="49.9727" y="-53.5" font-family="Helvetica,sans-Serif" font-size="10.00">constrained_foopsi</text>
</g>
<!-- Node33 -->
<g id="node2" class="node"><title>Node33</title>
<g id="a_node2"><a xlink:href="namespacecaiman_1_1source__extraction_1_1cnmf_1_1merging.html#ad08adf2e086a22ef379b10ed3ee36936" target="_top" xlink:title="Merging of spatially overlapping components that have highly correlated temporal activity The correla...">
<polygon fill="white" stroke="black" points="149.012,-89.5 149.012,-117.5 373.435,-117.5 373.435,-89.5 149.012,-89.5"/>
<text text-anchor="start" x="157.012" y="-105.5" font-family="Helvetica,sans-Serif" font-size="10.00">caiman.source_extraction.cnmf.merging.merge</text>
<text text-anchor="middle" x="261.223" y="-95.5" font-family="Helvetica,sans-Serif" font-size="10.00">_components</text>
</a>
</g>
</g>
<!-- Node32&#45;&gt;Node33 -->
<g id="edge1" class="edge"><title>Node32&#45;&gt;Node33</title>
<path fill="none" stroke="midnightblue" d="M90.2966,-68.4239C104.595,-72.5425 120.929,-76.9978 135.945,-80.5 149.621,-83.6897 164.227,-86.7221 178.442,-89.4764"/>
<polygon fill="midnightblue" stroke="midnightblue" points="90.8732,-64.9461 80.293,-65.5028 88.9111,-71.6655 90.8732,-64.9461"/>
</g>
<!-- Node34 -->
<g id="node3" class="node"><title>Node34</title>
<g id="a_node3"><a xlink:href="namespacecaiman_1_1source__extraction_1_1cnmf_1_1temporal.html#a2ede407f1e0d0722f51ddb6e99f48f9f" target="_top" xlink:title="necessary for parallel computation of the function constrained_foopsi ">
<polygon fill="white" stroke="black" points="135.945,-42.5 135.945,-70.5 386.501,-70.5 386.501,-42.5 135.945,-42.5"/>
<text text-anchor="start" x="143.945" y="-58.5" font-family="Helvetica,sans-Serif" font-size="10.00">caiman.source_extraction.cnmf.temporal.constrained</text>
<text text-anchor="middle" x="261.223" y="-48.5" font-family="Helvetica,sans-Serif" font-size="10.00">_foopsi_parallel</text>
</a>
</g>
</g>
<!-- Node32&#45;&gt;Node34 -->
<g id="edge2" class="edge"><title>Node32&#45;&gt;Node34</title>
<path fill="none" stroke="midnightblue" d="M110.108,-56.5C118.271,-56.5 126.894,-56.5 135.712,-56.5"/>
<polygon fill="midnightblue" stroke="midnightblue" points="110.033,-53.0001 100.033,-56.5 110.033,-60.0001 110.033,-53.0001"/>
</g>
<!-- Node35 -->
<g id="node4" class="node"><title>Node35</title>
<g id="a_node4"><a xlink:href="namespacecaiman_1_1tests_1_1test__deconvolution.html#aaebeed7ce9541fa4c56791c67009cdc6" target="_top" xlink:title="caiman.tests.test_deconvolution.foo">
<polygon fill="white" stroke="black" points="173.731,-5.5 173.731,-23.5 348.715,-23.5 348.715,-5.5 173.731,-5.5"/>
<text text-anchor="middle" x="261.223" y="-11.5" font-family="Helvetica,sans-Serif" font-size="10.00">caiman.tests.test_deconvolution.foo</text>
</a>
</g>
</g>
<!-- Node32&#45;&gt;Node35 -->
<g id="edge3" class="edge"><title>Node32&#45;&gt;Node35</title>
<path fill="none" stroke="midnightblue" d="M90.9567,-44.6817C105.087,-40.7705 121.145,-36.6241 135.945,-33.5 153.991,-29.6909 173.664,-26.3263 191.924,-23.5278"/>
<polygon fill="midnightblue" stroke="midnightblue" points="89.7308,-41.3908 81.0537,-47.4702 91.6281,-48.1287 89.7308,-41.3908"/>
</g>
<!-- Node36 -->
<g id="node5" class="node"><title>Node36</title>
<g id="a_node5"><a xlink:href="namespacecaiman_1_1tests_1_1test__deconvolution.html#a90f82ae854f8179179664fe34973f11b" target="_top" xlink:title="caiman.tests.test_deconvolution.test\l_oasis">
<polygon fill="white" stroke="black" points="422.501,-0.5 422.501,-28.5 599.702,-28.5 599.702,-0.5 422.501,-0.5"/>
<text text-anchor="start" x="430.501" y="-16.5" font-family="Helvetica,sans-Serif" font-size="10.00">caiman.tests.test_deconvolution.test</text>
<text text-anchor="middle" x="511.102" y="-6.5" font-family="Helvetica,sans-Serif" font-size="10.00">_oasis</text>
</a>
</g>
</g>
<!-- Node35&#45;&gt;Node36 -->
<g id="edge4" class="edge"><title>Node35&#45;&gt;Node36</title>
<path fill="none" stroke="midnightblue" d="M359.04,-14.5C379.855,-14.5 401.743,-14.5 422.196,-14.5"/>
<polygon fill="midnightblue" stroke="midnightblue" points="358.919,-11.0001 348.919,-14.5 358.919,-18.0001 358.919,-11.0001"/>
</g>
</g>
</svg>
