<?xml version="1.0" encoding="UTF-8" standalone="no"?>
<!DOCTYPE svg PUBLIC "-//W3C//DTD SVG 1.1//EN"
 "http://www.w3.org/Graphics/SVG/1.1/DTD/svg11.dtd">
<!-- Generated by graphviz version 2.38.0 (20140413.2041)
 -->
<!-- Title: extract_components Pages: 1 -->
<svg width="462pt" height="64pt"
 viewBox="0.00 0.00 462.06 64.00" xmlns="http://www.w3.org/2000/svg" xmlns:xlink="http://www.w3.org/1999/xlink">
<g id="graph0" class="graph" transform="scale(1 1) rotate(0) translate(4 60)">
<title>extract_components</title>
<polygon fill="white" stroke="none" points="-4,4 -4,-60 458.058,-60 458.058,4 -4,4"/>
<!-- Node6 -->
<g id="node1" class="node"><title>Node6</title>
<polygon fill="#bfbfbf" stroke="black" points="0,-18.5 0,-36.5 106.049,-36.5 106.049,-18.5 0,-18.5"/>
<text text-anchor="middle" x="53.0244" y="-24.5" font-family="Helvetica,sans-Serif" font-size="10.00">extract_components</text>
</g>
<!-- Node7 -->
<g id="node2" class="node"><title>Node7</title>
<g id="a_node2"><a xlink:href="namespacecaiman_1_1behavior_1_1behavior.html#a205588c7095003500c58a6b2f1effd09" target="_top" xlink:title="extract_motor_components_OF">
<polygon fill="white" stroke="black" points="142.049,-37.5 142.049,-55.5 298.669,-55.5 298.669,-37.5 142.049,-37.5"/>
<text text-anchor="middle" x="220.359" y="-43.5" font-family="Helvetica,sans-Serif" font-size="10.00">extract_motor_components_OF</text>
</a>
</g>
</g>
<!-- Node6&#45;&gt;Node7 -->
<g id="edge1" class="edge"><title>Node6&#45;&gt;Node7</title>
<path fill="none" stroke="midnightblue" d="M116.379,-34.6657C124.753,-35.628 133.423,-36.6244 142.017,-37.6119"/>
<polygon fill="midnightblue" stroke="midnightblue" points="116.672,-31.1764 106.337,-33.5117 115.872,-38.1306 116.672,-31.1764"/>
</g>
<!-- Node8 -->
<g id="node3" class="node"><title>Node8</title>
<g id="a_node3"><a xlink:href="namespacecaiman_1_1behavior_1_1behavior.html#a513c5d7fc1e56d74ff55d4f74ee836a3" target="_top" xlink:title="main">
<polygon fill="white" stroke="black" points="201.521,-0.5 201.521,-18.5 239.196,-18.5 239.196,-0.5 201.521,-0.5"/>
<text text-anchor="middle" x="220.359" y="-6.5" font-family="Helvetica,sans-Serif" font-size="10.00">main</text>
</a>
</g>
</g>
<!-- Node6&#45;&gt;Node8 -->
<g id="edge2" class="edge"><title>Node6&#45;&gt;Node8</title>
<path fill="none" stroke="midnightblue" d="M116.453,-20.7034C146.795,-17.4 181.013,-13.6747 201.35,-11.4606"/>
<polygon fill="midnightblue" stroke="midnightblue" points="115.9,-17.2429 106.337,-21.8047 116.657,-24.2017 115.9,-17.2429"/>
</g>
<!-- Node9 -->
<g id="node4" class="node"><title>Node9</title>
<g id="a_node4"><a xlink:href="namespacecaiman_1_1behavior_1_1behavior.html#ac7ebff37cde3a2bef4c8613654b60395" target="_top" xlink:title="Normalize the components using the std of the components obtaining using biunary masks. ">
<polygon fill="white" stroke="black" points="334.669,-0.5 334.669,-18.5 454.058,-18.5 454.058,-0.5 334.669,-0.5"/>
<text text-anchor="middle" x="394.363" y="-6.5" font-family="Helvetica,sans-Serif" font-size="10.00">normalize_components</text>
</a>
</g>
</g>
<!-- Node8&#45;&gt;Node9 -->
<g id="edge3" class="edge"><title>Node8&#45;&gt;Node9</title>
<path fill="none" stroke="midnightblue" d="M249.529,-4.34915C272.512,-2.81508 305.761,-2.38474 334.504,-3.05812"/>
<polygon fill="midnightblue" stroke="midnightblue" points="249.128,-0.870013 239.441,-5.16105 249.69,-7.84745 249.128,-0.870013"/>
</g>
<!-- Node9&#45;&gt;Node8 -->
<g id="edge4" class="edge"><title>Node9&#45;&gt;Node8</title>
<path fill="none" stroke="midnightblue" d="M324.196,-16.1337C293.392,-16.5642 259.589,-15.7993 239.441,-13.8389"/>
<polygon fill="midnightblue" stroke="midnightblue" points="324.571,-19.6274 334.504,-15.9419 324.44,-12.6287 324.571,-19.6274"/>
</g>
</g>
</svg>
