<?xml version="1.0" encoding="UTF-8" standalone="no"?>
<!DOCTYPE svg PUBLIC "-//W3C//DTD SVG 1.1//EN"
 "http://www.w3.org/Graphics/SVG/1.1/DTD/svg11.dtd">
<!-- Generated by graphviz version 2.38.0 (20140413.2041)
 -->
<!-- Title: get_contours3d Pages: 1 -->
<svg width="233pt" height="27pt"
 viewBox="0.00 0.00 233.34 27.00" xmlns="http://www.w3.org/2000/svg" xmlns:xlink="http://www.w3.org/1999/xlink">
<g id="graph0" class="graph" transform="scale(1 1) rotate(0) translate(4 23)">
<title>get_contours3d</title>
<polygon fill="white" stroke="none" points="-4,4 -4,-23 229.339,-23 229.339,4 -4,4"/>
<!-- Node11 -->
<g id="node1" class="node"><title>Node11</title>
<polygon fill="#bfbfbf" stroke="black" points="0,-0.5 0,-18.5 84.9404,-18.5 84.9404,-0.5 0,-0.5"/>
<text text-anchor="middle" x="42.4702" y="-6.5" font-family="Helvetica,sans-Serif" font-size="10.00">get_contours3d</text>
</g>
<!-- Node12 -->
<g id="node2" class="node"><title>Node12</title>
<g id="a_node2"><a xlink:href="namespacecaiman_1_1utils_1_1visualization.html#a710f8ce5063f0475fb009dd74f84ab9a" target="_top" xlink:title="Interactive plotting utility for ipython notbook. ">
<polygon fill="white" stroke="black" points="120.94,-0.5 120.94,-18.5 225.339,-18.5 225.339,-0.5 120.94,-0.5"/>
<text text-anchor="middle" x="173.14" y="-6.5" font-family="Helvetica,sans-Serif" font-size="10.00">nb_view_patches3d</text>
</a>
</g>
</g>
<!-- Node11&#45;&gt;Node12 -->
<g id="edge1" class="edge"><title>Node11&#45;&gt;Node12</title>
<path fill="none" stroke="midnightblue" d="M95.2716,-2.86516C103.644,-2.70952 112.311,-2.71164 120.675,-2.87151"/>
<polygon fill="midnightblue" stroke="midnightblue" points="95.1483,0.632889 85.2455,-3.13325 95.3355,-6.36461 95.1483,0.632889"/>
</g>
<!-- Node12&#45;&gt;Node11 -->
<g id="edge2" class="edge"><title>Node12&#45;&gt;Node11</title>
<path fill="none" stroke="midnightblue" d="M110.643,-16.2442C102.039,-16.2796 93.3678,-16.1538 85.2455,-15.8667"/>
<polygon fill="midnightblue" stroke="midnightblue" points="110.716,-19.7436 120.675,-16.1285 110.635,-12.7441 110.716,-19.7436"/>
</g>
</g>
</svg>
