<?xml version="1.0" encoding="UTF-8" standalone="no"?>
<!DOCTYPE svg PUBLIC "-//W3C//DTD SVG 1.1//EN"
 "http://www.w3.org/Graphics/SVG/1.1/DTD/svg11.dtd">
<!-- Generated by graphviz version 2.38.0 (20140413.2041)
 -->
<!-- Title: setup_cluster Pages: 1 -->
<svg width="296pt" height="64pt"
 viewBox="0.00 0.00 296.41 64.00" xmlns="http://www.w3.org/2000/svg" xmlns:xlink="http://www.w3.org/1999/xlink">
<g id="graph0" class="graph" transform="scale(1 1) rotate(0) translate(4 60)">
<title>setup_cluster</title>
<polygon fill="white" stroke="none" points="-4,4 -4,-60 292.413,-60 292.413,4 -4,4"/>
<!-- Node20 -->
<g id="node1" class="node"><title>Node20</title>
<polygon fill="#bfbfbf" stroke="black" points="0,-18.5 0,-36.5 75.4775,-36.5 75.4775,-18.5 0,-18.5"/>
<text text-anchor="middle" x="37.7388" y="-24.5" font-family="Helvetica,sans-Serif" font-size="10.00">setup_cluster</text>
</g>
<!-- Node21 -->
<g id="node2" class="node"><title>Node21</title>
<g id="a_node2"><a xlink:href="namespacecaiman_1_1cluster.html#a224e29488e19814e85b50e1afd812a7d" target="_top" xlink:title="stop_server">
<polygon fill="white" stroke="black" points="111.751,-37.5 111.751,-55.5 179.997,-55.5 179.997,-37.5 111.751,-37.5"/>
<text text-anchor="middle" x="145.874" y="-43.5" font-family="Helvetica,sans-Serif" font-size="10.00">stop_server</text>
</a>
</g>
</g>
<!-- Node20&#45;&gt;Node21 -->
<g id="edge1" class="edge"><title>Node20&#45;&gt;Node21</title>
<path fill="none" stroke="midnightblue" d="M75.5619,-34.092C83.9963,-35.6019 93.0367,-37.2202 101.711,-38.7731"/>
<polygon fill="midnightblue" stroke="midnightblue" points="101.207,-42.2385 111.667,-40.5555 102.441,-35.348 101.207,-42.2385"/>
</g>
<!-- Node22 -->
<g id="node3" class="node"><title>Node22</title>
<g id="a_node3"><a xlink:href="namespacecaiman_1_1cluster.html#a36c3cc16b38cc1e90b578cb5952a0ba9" target="_top" xlink:title="programmatically start the ipyparallel server ">
<polygon fill="white" stroke="black" points="111.478,-0.5 111.478,-18.5 180.271,-18.5 180.271,-0.5 111.478,-0.5"/>
<text text-anchor="middle" x="145.874" y="-6.5" font-family="Helvetica,sans-Serif" font-size="10.00">start_server</text>
</a>
</g>
</g>
<!-- Node20&#45;&gt;Node22 -->
<g id="edge2" class="edge"><title>Node20&#45;&gt;Node22</title>
<path fill="none" stroke="midnightblue" d="M75.5619,-21.255C83.9102,-19.8391 92.8522,-18.3226 101.445,-16.8653"/>
<polygon fill="midnightblue" stroke="midnightblue" points="102.042,-20.3141 111.316,-15.1913 100.872,-13.4127 102.042,-20.3141"/>
</g>
<!-- Node23 -->
<g id="node4" class="node"><title>Node23</title>
<g id="a_node4"><a xlink:href="namespacecaiman_1_1cluster.html#aa2ca4c63a4bfd3dc43f9a93bd0fb7525" target="_top" xlink:title="Sometime you want to emulate the action of &quot;source&quot; in bash, settings some environment variables...">
<polygon fill="white" stroke="black" points="216.271,-0.5 216.271,-18.5 288.413,-18.5 288.413,-0.5 216.271,-0.5"/>
<text text-anchor="middle" x="252.342" y="-6.5" font-family="Helvetica,sans-Serif" font-size="10.00">shell_source</text>
</a>
</g>
</g>
<!-- Node22&#45;&gt;Node23 -->
<g id="edge3" class="edge"><title>Node22&#45;&gt;Node23</title>
<path fill="none" stroke="midnightblue" d="M180.503,-9.5C188.56,-9.5 197.297,-9.5 205.793,-9.5"/>
<polygon fill="midnightblue" stroke="midnightblue" points="205.976,-13.0001 215.976,-9.5 205.976,-6.0001 205.976,-13.0001"/>
</g>
</g>
</svg>
