<?xml version="1.0" encoding="UTF-8" standalone="no"?>
<!DOCTYPE svg PUBLIC "-//W3C//DTD SVG 1.1//EN"
 "http://www.w3.org/Graphics/SVG/1.1/DTD/svg11.dtd">
<!-- Generated by graphviz version 2.38.0 (20140413.2041)
 -->
<!-- Title: mode_robust Pages: 1 -->
<svg width="783pt" height="84pt"
 viewBox="0.00 0.00 782.59 84.00" xmlns="http://www.w3.org/2000/svg" xmlns:xlink="http://www.w3.org/1999/xlink">
<g id="graph0" class="graph" transform="scale(1 1) rotate(0) translate(4 80)">
<title>mode_robust</title>
<polygon fill="white" stroke="none" points="-4,4 -4,-80 778.593,-80 778.593,4 -4,4"/>
<!-- Node10 -->
<g id="node1" class="node"><title>Node10</title>
<polygon fill="#bfbfbf" stroke="black" points="0,-28.5 0,-46.5 74.3691,-46.5 74.3691,-28.5 0,-28.5"/>
<text text-anchor="middle" x="37.1846" y="-34.5" font-family="Helvetica,sans-Serif" font-size="10.00">mode_robust</text>
</g>
<!-- Node11 -->
<g id="node2" class="node"><title>Node11</title>
<g id="a_node2"><a xlink:href="namespacecaiman_1_1components__evaluation.html#a115ea8d0f9c41cb31cb7fe05535f65f7" target="_top" xlink:title="estimate the noise in the traces under assumption that signals are sparse and only positive...">
<polygon fill="white" stroke="black" points="110.65,-47.5 110.65,-75.5 307.866,-75.5 307.866,-47.5 110.65,-47.5"/>
<text text-anchor="start" x="118.65" y="-63.5" font-family="Helvetica,sans-Serif" font-size="10.00">caiman.components_evaluation.estimate</text>
<text text-anchor="middle" x="209.258" y="-53.5" font-family="Helvetica,sans-Serif" font-size="10.00">_noise_mode</text>
</a>
</g>
</g>
<!-- Node10&#45;&gt;Node11 -->
<g id="edge1" class="edge"><title>Node10&#45;&gt;Node11</title>
<path fill="none" stroke="midnightblue" d="M84.6118,-44.0516C92.7371,-45.1982 101.459,-46.4291 110.375,-47.6871"/>
<polygon fill="midnightblue" stroke="midnightblue" points="85.0605,-40.5803 74.6695,-42.6486 84.0824,-47.5117 85.0605,-40.5803"/>
</g>
<!-- Node12 -->
<g id="node3" class="node"><title>Node12</title>
<g id="a_node3"><a xlink:href="namespacecaiman_1_1components__evaluation.html#a967e8c445c84976814609f9c120153a2" target="_top" xlink:title="caiman.components_evaluation.compute\l_event_exceptionality">
<polygon fill="white" stroke="black" points="110.369,-0.5 110.369,-28.5 308.146,-28.5 308.146,-0.5 110.369,-0.5"/>
<text text-anchor="start" x="118.369" y="-16.5" font-family="Helvetica,sans-Serif" font-size="10.00">caiman.components_evaluation.compute</text>
<text text-anchor="middle" x="209.258" y="-6.5" font-family="Helvetica,sans-Serif" font-size="10.00">_event_exceptionality</text>
</a>
</g>
</g>
<!-- Node10&#45;&gt;Node12 -->
<g id="edge2" class="edge"><title>Node10&#45;&gt;Node12</title>
<path fill="none" stroke="midnightblue" d="M84.7867,-31.1977C92.757,-30.1198 101.298,-28.9648 110.029,-27.7841"/>
<polygon fill="midnightblue" stroke="midnightblue" points="84.1103,-27.7573 74.6695,-32.5659 85.0484,-34.6941 84.1103,-27.7573"/>
</g>
<!-- Node13 -->
<g id="node4" class="node"><title>Node13</title>
<g id="a_node4"><a xlink:href="namespacecaiman_1_1components__evaluation.html#ad2a8435be788c8e75130e41f884adb0f" target="_top" xlink:title="Define a metric and order components according to the probabilty if some &quot;exceptional events&quot; (like a...">
<polygon fill="white" stroke="black" points="344.146,-0.5 344.146,-28.5 541.377,-28.5 541.377,-0.5 344.146,-0.5"/>
<text text-anchor="start" x="352.146" y="-16.5" font-family="Helvetica,sans-Serif" font-size="10.00">caiman.components_evaluation.evaluate</text>
<text text-anchor="middle" x="442.762" y="-6.5" font-family="Helvetica,sans-Serif" font-size="10.00">_components</text>
</a>
</g>
</g>
<!-- Node12&#45;&gt;Node13 -->
<g id="edge3" class="edge"><title>Node12&#45;&gt;Node13</title>
<path fill="none" stroke="midnightblue" d="M318.638,-14.5C327.033,-14.5 335.48,-14.5 343.801,-14.5"/>
<polygon fill="midnightblue" stroke="midnightblue" points="318.436,-11.0001 308.436,-14.5 318.436,-18.0001 318.436,-11.0001"/>
</g>
<!-- Node14 -->
<g id="node5" class="node"><title>Node14</title>
<g id="a_node5"><a xlink:href="namespacecaiman_1_1components__evaluation.html#a57b89e19503abe333d5767d462266e7a" target="_top" xlink:title="caiman.components_evaluation.estimate\l_components_quality">
<polygon fill="white" stroke="black" points="577.377,-0.5 577.377,-28.5 774.593,-28.5 774.593,-0.5 577.377,-0.5"/>
<text text-anchor="start" x="585.377" y="-16.5" font-family="Helvetica,sans-Serif" font-size="10.00">caiman.components_evaluation.estimate</text>
<text text-anchor="middle" x="675.985" y="-6.5" font-family="Helvetica,sans-Serif" font-size="10.00">_components_quality</text>
</a>
</g>
</g>
<!-- Node13&#45;&gt;Node14 -->
<g id="edge4" class="edge"><title>Node13&#45;&gt;Node14</title>
<path fill="none" stroke="midnightblue" d="M551.519,-14.5C560.098,-14.5 568.735,-14.5 577.24,-14.5"/>
<polygon fill="midnightblue" stroke="midnightblue" points="551.486,-11.0001 541.486,-14.5 551.486,-18.0001 551.486,-11.0001"/>
</g>
</g>
</svg>
