<?xml version="1.0" encoding="UTF-8" standalone="no"?>
<!DOCTYPE svg PUBLIC "-//W3C//DTD SVG 1.1//EN"
 "http://www.w3.org/Graphics/SVG/1.1/DTD/svg11.dtd">
<!-- Generated by graphviz version 2.38.0 (20140413.2041)
 -->
<!-- Title: sbxshape Pages: 1 -->
<svg width="367pt" height="27pt"
 viewBox="0.00 0.00 366.78 27.00" xmlns="http://www.w3.org/2000/svg" xmlns:xlink="http://www.w3.org/1999/xlink">
<g id="graph0" class="graph" transform="scale(1 1) rotate(0) translate(4 23)">
<title>sbxshape</title>
<polygon fill="white" stroke="none" points="-4,4 -4,-23 362.777,-23 362.777,4 -4,4"/>
<!-- Node61 -->
<g id="node1" class="node"><title>Node61</title>
<polygon fill="#bfbfbf" stroke="black" points="0,-0.5 0,-18.5 58.8076,-18.5 58.8076,-0.5 0,-0.5"/>
<text text-anchor="middle" x="29.4038" y="-6.5" font-family="Helvetica,sans-Serif" font-size="10.00">sbxshape</text>
</g>
<!-- Node62 -->
<g id="node2" class="node"><title>Node62</title>
<g id="a_node2"><a xlink:href="namespacecaiman_1_1base_1_1movies.html#a1dae08ecd6c4b9ef41d5e820eb86604d" target="_top" xlink:title="loadmat_sbx">
<polygon fill="white" stroke="black" points="94.8076,-0.5 94.8076,-18.5 167.507,-18.5 167.507,-0.5 94.8076,-0.5"/>
<text text-anchor="middle" x="131.157" y="-6.5" font-family="Helvetica,sans-Serif" font-size="10.00">loadmat_sbx</text>
</a>
</g>
</g>
<!-- Node61&#45;&gt;Node62 -->
<g id="edge1" class="edge"><title>Node61&#45;&gt;Node62</title>
<path fill="none" stroke="midnightblue" d="M58.9891,-9.5C66.9341,-9.5 75.7664,-9.5 84.4305,-9.5"/>
<polygon fill="midnightblue" stroke="midnightblue" points="84.4609,-13.0001 94.4609,-9.5 84.4609,-6.0001 84.4609,-13.0001"/>
</g>
<!-- Node63 -->
<g id="node3" class="node"><title>Node63</title>
<g id="a_node3"><a xlink:href="namespacecaiman_1_1base_1_1movies.html#abb80862aafd574c59a95c0b24268be69" target="_top" xlink:title="_check_keys">
<polygon fill="white" stroke="black" points="203.507,-0.5 203.507,-18.5 277.314,-18.5 277.314,-0.5 203.507,-0.5"/>
<text text-anchor="middle" x="240.411" y="-6.5" font-family="Helvetica,sans-Serif" font-size="10.00">_check_keys</text>
</a>
</g>
</g>
<!-- Node62&#45;&gt;Node63 -->
<g id="edge2" class="edge"><title>Node62&#45;&gt;Node63</title>
<path fill="none" stroke="midnightblue" d="M167.573,-9.5C175.729,-9.5 184.521,-9.5 193.063,-9.5"/>
<polygon fill="midnightblue" stroke="midnightblue" points="193.298,-13.0001 203.298,-9.5 193.298,-6.0001 193.298,-13.0001"/>
</g>
<!-- Node64 -->
<g id="node4" class="node"><title>Node64</title>
<g id="a_node4"><a xlink:href="namespacecaiman_1_1base_1_1movies.html#a3678b9e2ae337ad61ebe7630c5e08ead" target="_top" xlink:title="A recursive function which constructs from matobjects nested dictionaries. ">
<polygon fill="white" stroke="black" points="313.314,-0.5 313.314,-18.5 358.777,-18.5 358.777,-0.5 313.314,-0.5"/>
<text text-anchor="middle" x="336.046" y="-6.5" font-family="Helvetica,sans-Serif" font-size="10.00">_todict</text>
</a>
</g>
</g>
<!-- Node63&#45;&gt;Node64 -->
<g id="edge3" class="edge"><title>Node63&#45;&gt;Node64</title>
<path fill="none" stroke="midnightblue" d="M277.345,-9.5C285.83,-9.5 294.821,-9.5 303.115,-9.5"/>
<polygon fill="midnightblue" stroke="midnightblue" points="303.159,-13.0001 313.159,-9.5 303.159,-6.0001 303.159,-13.0001"/>
</g>
</g>
</svg>
