<?xml version="1.0" encoding="UTF-8" standalone="no"?>
<!DOCTYPE svg PUBLIC "-//W3C//DTD SVG 1.1//EN"
 "http://www.w3.org/Graphics/SVG/1.1/DTD/svg11.dtd">
<!-- Generated by graphviz version 2.38.0 (20140413.2041)
 -->
<!-- Title: determine_search_location Pages: 1 -->
<!--zoomable 90 -->
<svg id="main" version="1.1" xmlns="http://www.w3.org/2000/svg" xmlns:xlink="http://www.w3.org/1999/xlink" xml:space="preserve" onload="init(evt)">
<style type="text/css"><![CDATA[
.edge:hover path { stroke: red; }
.edge:hover polygon { stroke: red; fill: red; }
]]></style>
<script type="text/javascript"><![CDATA[
var edges = document.getElementsByTagName('g');
if (edges && edges.length) {
  for (var i=0;i<edges.length;i++) {
    if (edges[i].id.substr(0,4)=='edge') {
      edges[i].setAttribute('class','edge');
    }
  }
}
]]></script>
        <defs>
                <circle id="rim" cx="0" cy="0" r="7"/>
                <circle id="rim2" cx="0" cy="0" r="3.5"/>
                <g id="zoomPlus">
                        <use xlink:href="#rim" fill="#404040">
                                <set attributeName="fill" to="#808080" begin="zoomplus.mouseover" end="zoomplus.mouseout"/>
                        </use>
                        <path d="M-4,0h8M0,-4v8" fill="none" stroke="white" stroke-width="1.5" pointer-events="none"/>
                </g>
                <g id="zoomMin">
                        <use xlink:href="#rim" fill="#404040">
                                <set attributeName="fill" to="#808080" begin="zoomminus.mouseover" end="zoomminus.mouseout"/>
                        </use>
                        <path d="M-4,0h8" fill="none" stroke="white" stroke-width="1.5" pointer-events="none"/>
                </g>
                <g id="dirArrow">
                        <path fill="none" stroke="white" stroke-width="1.5" d="M0,-3.0v7 M-2.5,-0.5L0,-3.0L2.5,-0.5"/>
                </g>
               <g id="resetDef">
                       <use xlink:href="#rim2" fill="#404040">
                               <set attributeName="fill" to="#808080" begin="reset.mouseover" end="reset.mouseout"/>
                       </use>
               </g>
        </defs>

<script type="text/javascript">
var viewWidth = 582;
var viewHeight = 90;
var sectionId = 'dynsection-2';
</script>
<script xlink:href="svgpan.js"/>
<svg id="graph" class="graph">
<g id="viewport">
<title>determine_search_location</title>
<polygon fill="white" stroke="none" points="-4,4 -4,-86 577.589,-86 577.589,4 -4,4"/>
<!-- Node14 -->
<g id="node1" class="node"><title>Node14</title>
<polygon fill="#bfbfbf" stroke="black" points="0,-18.5 0,-36.5 136.073,-36.5 136.073,-18.5 0,-18.5"/>
<text text-anchor="middle" x="68.0366" y="-24.5" font-family="Helvetica,sans-Serif" font-size="10.00">determine_search_location</text>
</g>
<!-- Node15 -->
<g id="node2" class="node"><title>Node15</title>
<g id="a_node2"><a xlink:href="namespacecaiman_1_1source__extraction_1_1cnmf_1_1spatial.html#ab7b90a8cbd754f9c03b13cf1709eebd4" target="_top" xlink:title="update spatial footprints and background through Basis Pursuit Denoising ">
<polygon fill="white" stroke="black" points="172.073,-37.5 172.073,-55.5 313.166,-55.5 313.166,-37.5 172.073,-37.5"/>
<text text-anchor="middle" x="242.62" y="-43.5" font-family="Helvetica,sans-Serif" font-size="10.00">update_spatial_components</text>
</a>
</g>
</g>
<!-- Node14&#45;&gt;Node15 -->
<g id="edge1" class="edge"><title>Node14&#45;&gt;Node15</title>
<path fill="none" stroke="midnightblue" d="M146.255,-36.0011C154.838,-36.946 163.542,-37.9043 172.022,-38.8379"/>
<polygon fill="midnightblue" stroke="midnightblue" points="146.579,-32.5157 136.256,-34.9003 145.813,-39.4737 146.579,-32.5157"/>
</g>
<!-- Node18 -->
<g id="node5" class="node"><title>Node18</title>
<g id="a_node5"><a xlink:href="namespacecaiman_1_1source__extraction_1_1cnmf_1_1spatial.html#af3e32db8a5aeabf7269b756732a5e5a1" target="_top" xlink:title="regression_ipyparallel">
<polygon fill="white" stroke="black" points="185.982,-0.5 185.982,-18.5 299.257,-18.5 299.257,-0.5 185.982,-0.5"/>
<text text-anchor="middle" x="242.62" y="-6.5" font-family="Helvetica,sans-Serif" font-size="10.00">regression_ipyparallel</text>
</a>
</g>
</g>
<!-- Node14&#45;&gt;Node18 -->
<g id="edge4" class="edge"><title>Node14&#45;&gt;Node18</title>
<path fill="none" stroke="midnightblue" d="M146.332,-19.4383C159.609,-18.0535 173.173,-16.6388 185.749,-15.3272"/>
<polygon fill="midnightblue" stroke="midnightblue" points="145.839,-15.9706 136.256,-20.4892 146.565,-22.9329 145.839,-15.9706"/>
</g>
<!-- Node16 -->
<g id="node3" class="node"><title>Node16</title>
<g id="a_node3"><a xlink:href="namespacecaiman_1_1source__extraction_1_1cnmf_1_1merging.html#ad08adf2e086a22ef379b10ed3ee36936" target="_top" xlink:title="Merging of spatially overlapping components that have highly correlated temporal activity The correla...">
<polygon fill="white" stroke="black" points="349.166,-53.5 349.166,-81.5 573.589,-81.5 573.589,-53.5 349.166,-53.5"/>
<text text-anchor="start" x="357.166" y="-69.5" font-family="Helvetica,sans-Serif" font-size="10.00">caiman.source_extraction.cnmf.merging.merge</text>
<text text-anchor="middle" x="461.377" y="-59.5" font-family="Helvetica,sans-Serif" font-size="10.00">_components</text>
</a>
</g>
</g>
<!-- Node15&#45;&gt;Node16 -->
<g id="edge2" class="edge"><title>Node15&#45;&gt;Node16</title>
<path fill="none" stroke="midnightblue" d="M323.419,-54.2312C331.747,-55.038 340.317,-55.8683 348.913,-56.7011"/>
<polygon fill="midnightblue" stroke="midnightblue" points="323.687,-50.7408 313.396,-53.2601 323.012,-57.7082 323.687,-50.7408"/>
</g>
<!-- Node17 -->
<g id="node4" class="node"><title>Node17</title>
<g id="a_node4"><a xlink:href="namespacecaiman_1_1source__extraction_1_1cnmf_1_1spatial.html#adbbc80bf3821229671c7f77648016071" target="_top" xlink:title="basis_denoising">
<polygon fill="white" stroke="black" points="417.518,-16.5 417.518,-34.5 505.237,-34.5 505.237,-16.5 417.518,-16.5"/>
<text text-anchor="middle" x="461.377" y="-22.5" font-family="Helvetica,sans-Serif" font-size="10.00">basis_denoising</text>
</a>
</g>
</g>
<!-- Node15&#45;&gt;Node17 -->
<g id="edge3" class="edge"><title>Node15&#45;&gt;Node17</title>
<path fill="none" stroke="midnightblue" d="M323.557,-38.7555C355.276,-35.6825 390.493,-32.2706 417.253,-29.678"/>
<polygon fill="midnightblue" stroke="midnightblue" points="323.012,-35.2918 313.396,-39.7399 323.687,-42.2592 323.012,-35.2918"/>
</g>
</g>
</svg>
        <g id="navigator" transform="translate(0 0)" fill="#404254">
                <rect fill="#f2f5e9" fill-opacity="0.5" stroke="#606060" stroke-width=".5" x="0" y="0" width="60" height="60"/>
                <use id="zoomplus" xlink:href="#zoomPlus" x="17" y="9" onmousedown="handleZoom(evt,'in')"/>
                <use id="zoomminus" xlink:href="#zoomMin" x="42" y="9" onmousedown="handleZoom(evt,'out')"/>
                <use id="reset" xlink:href="#resetDef" x="30" y="36" onmousedown="handleReset()"/>
                <g id="arrowUp" xlink:href="#dirArrow" transform="translate(30 24)" onmousedown="handlePan(0,-1)">
                  <use xlink:href="#rim" fill="#404040">
                        <set attributeName="fill" to="#808080" begin="arrowUp.mouseover" end="arrowUp.mouseout"/>
                  </use>
                  <path fill="none" stroke="white" stroke-width="1.5" d="M0,-3.0v7 M-2.5,-0.5L0,-3.0L2.5,-0.5"/>
                </g>
                <g id="arrowRight" xlink:href="#dirArrow" transform="rotate(90) translate(36 -43)" onmousedown="handlePan(1,0)">
                  <use xlink:href="#rim" fill="#404040">
                        <set attributeName="fill" to="#808080" begin="arrowRight.mouseover" end="arrowRight.mouseout"/>
                  </use>
                  <path fill="none" stroke="white" stroke-width="1.5" d="M0,-3.0v7 M-2.5,-0.5L0,-3.0L2.5,-0.5"/>
                </g>
                <g id="arrowDown" xlink:href="#dirArrow" transform="rotate(180) translate(-30 -48)" onmousedown="handlePan(0,1)">
                  <use xlink:href="#rim" fill="#404040">
                        <set attributeName="fill" to="#808080" begin="arrowDown.mouseover" end="arrowDown.mouseout"/>
                  </use>
                  <path fill="none" stroke="white" stroke-width="1.5" d="M0,-3.0v7 M-2.5,-0.5L0,-3.0L2.5,-0.5"/>
                </g>
                <g id="arrowLeft" xlink:href="#dirArrow" transform="rotate(270) translate(-36 17)" onmousedown="handlePan(-1,0)">
                  <use xlink:href="#rim" fill="#404040">
                        <set attributeName="fill" to="#808080" begin="arrowLeft.mouseover" end="arrowLeft.mouseout"/>
                  </use>
                  <path fill="none" stroke="white" stroke-width="1.5" d="M0,-3.0v7 M-2.5,-0.5L0,-3.0L2.5,-0.5"/>
                </g>
        </g>
        <svg viewBox="0 0 15 15" width="100%" height="30px" preserveAspectRatio="xMaxYMin meet">
         <g id="arrow_out" transform="scale(0.3 0.3)">
          <a xlink:href="namespacecaiman_1_1source__extraction_1_1cnmf_1_1spatial_aca0edbf4c2cd31fe1a9c228c4099a485_icgraph_org.svg" target="_base">
           <rect id="button" ry="5" rx="5" y="6" x="6" height="38" width="38"
                fill="#f2f5e9" fill-opacity="0.5" stroke="#606060" stroke-width="1.0"/>
           <path id="arrow"
             d="M 11.500037,31.436501 C 11.940474,20.09759 22.043105,11.32322 32.158766,21.979434 L 37.068811,17.246167 C 37.068811,17.246167 37.088388,32 37.088388,32 L 22.160133,31.978069 C 22.160133,31.978069 26.997745,27.140456 26.997745,27.140456 C 18.528582,18.264221 13.291696,25.230495 11.500037,31.436501 z"
             style="fill:#404040;"/>
          </a>
         </g>
        </svg>
</svg>
