<?xml version="1.0" encoding="UTF-8" standalone="no"?>
<!DOCTYPE svg PUBLIC "-//W3C//DTD SVG 1.1//EN"
 "http://www.w3.org/Graphics/SVG/1.1/DTD/svg11.dtd">
<!-- Generated by graphviz version 2.38.0 (20140413.2041)
 -->
<!-- Title: tile_and_correct_wrapper Pages: 1 -->
<!--zoomable 252 -->
<svg id="main" version="1.1" xmlns="http://www.w3.org/2000/svg" xmlns:xlink="http://www.w3.org/1999/xlink" xml:space="preserve" onload="init(evt)">
<style type="text/css"><![CDATA[
.edge:hover path { stroke: red; }
.edge:hover polygon { stroke: red; fill: red; }
]]></style>
<script type="text/javascript"><![CDATA[
var edges = document.getElementsByTagName('g');
if (edges && edges.length) {
  for (var i=0;i<edges.length;i++) {
    if (edges[i].id.substr(0,4)=='edge') {
      edges[i].setAttribute('class','edge');
    }
  }
}
]]></script>
        <defs>
                <circle id="rim" cx="0" cy="0" r="7"/>
                <circle id="rim2" cx="0" cy="0" r="3.5"/>
                <g id="zoomPlus">
                        <use xlink:href="#rim" fill="#404040">
                                <set attributeName="fill" to="#808080" begin="zoomplus.mouseover" end="zoomplus.mouseout"/>
                        </use>
                        <path d="M-4,0h8M0,-4v8" fill="none" stroke="white" stroke-width="1.5" pointer-events="none"/>
                </g>
                <g id="zoomMin">
                        <use xlink:href="#rim" fill="#404040">
                                <set attributeName="fill" to="#808080" begin="zoomminus.mouseover" end="zoomminus.mouseout"/>
                        </use>
                        <path d="M-4,0h8" fill="none" stroke="white" stroke-width="1.5" pointer-events="none"/>
                </g>
                <g id="dirArrow">
                        <path fill="none" stroke="white" stroke-width="1.5" d="M0,-3.0v7 M-2.5,-0.5L0,-3.0L2.5,-0.5"/>
                </g>
               <g id="resetDef">
                       <use xlink:href="#rim2" fill="#404040">
                               <set attributeName="fill" to="#808080" begin="reset.mouseover" end="reset.mouseout"/>
                       </use>
               </g>
        </defs>

<script type="text/javascript">
var viewWidth = 623;
var viewHeight = 252;
var sectionId = 'dynsection-25';
</script>
<script xlink:href="svgpan.js"/>
<svg id="graph" class="graph">
<g id="viewport">
<title>tile_and_correct_wrapper</title>
<polygon fill="white" stroke="none" points="-4,4 -4,-248 619.398,-248 619.398,4 -4,4"/>
<!-- Node137 -->
<g id="node1" class="node"><title>Node137</title>
<polygon fill="#bfbfbf" stroke="black" points="0,-76.5 0,-94.5 128.842,-94.5 128.842,-76.5 0,-76.5"/>
<text text-anchor="middle" x="64.4209" y="-82.5" font-family="Helvetica,sans-Serif" font-size="10.00">tile_and_correct_wrapper</text>
</g>
<!-- Node138 -->
<g id="node2" class="node"><title>Node138</title>
<g id="a_node2"><a xlink:href="namespacecaiman_1_1motion__correction.html#aea060208c09f0e4fb01e6d31b9acf36f" target="_top" xlink:title="perform piecewise rigid motion correction iteration, by 1) dividing the FOV in patches 2) motion corr...">
<polygon fill="white" stroke="black" points="193.743,-95.5 193.743,-113.5 280.896,-113.5 280.896,-95.5 193.743,-95.5"/>
<text text-anchor="middle" x="237.319" y="-101.5" font-family="Helvetica,sans-Serif" font-size="10.00">tile_and_correct</text>
</a>
</g>
</g>
<!-- Node137&#45;&gt;Node138 -->
<g id="edge1" class="edge"><title>Node137&#45;&gt;Node138</title>
<path fill="none" stroke="midnightblue" d="M129.057,-92.5749C146.897,-94.5583 166.096,-96.6928 183.252,-98.6001"/>
<polygon fill="midnightblue" stroke="midnightblue" points="183.313,-102.128 193.639,-99.7549 184.087,-95.1713 183.313,-102.128"/>
</g>
<!-- Node147 -->
<g id="node11" class="node"><title>Node147</title>
<g id="a_node11"><a xlink:href="namespacecaiman_1_1motion__correction.html#a0609d5c64bb9cae41d945bbc89535d2a" target="_top" xlink:title="motion_correction_piecewise">
<polygon fill="white" stroke="black" points="164.842,-58.5 164.842,-76.5 309.797,-76.5 309.797,-58.5 164.842,-58.5"/>
<text text-anchor="middle" x="237.319" y="-64.5" font-family="Helvetica,sans-Serif" font-size="10.00">motion_correction_piecewise</text>
</a>
</g>
</g>
<!-- Node137&#45;&gt;Node147 -->
<g id="edge12" class="edge"><title>Node137&#45;&gt;Node147</title>
<path fill="none" stroke="midnightblue" d="M129.057,-78.7975C137.379,-77.921 145.996,-77.0134 154.564,-76.111"/>
<polygon fill="midnightblue" stroke="midnightblue" points="155,-79.5845 164.578,-75.0562 154.266,-72.623 155,-79.5845"/>
</g>
<!-- Node139 -->
<g id="node3" class="node"><title>Node139</title>
<g id="a_node3"><a xlink:href="namespacecaiman_1_1motion__correction.html#a0700d66a3a6b2556b1c712daf9c18a9b" target="_top" xlink:title="register_translation">
<polygon fill="white" stroke="black" points="359.132,-207.5 359.132,-225.5 460.176,-225.5 460.176,-207.5 359.132,-207.5"/>
<text text-anchor="middle" x="409.654" y="-213.5" font-family="Helvetica,sans-Serif" font-size="10.00">register_translation</text>
</a>
</g>
</g>
<!-- Node138&#45;&gt;Node139 -->
<g id="edge2" class="edge"><title>Node138&#45;&gt;Node139</title>
<path fill="none" stroke="midnightblue" d="M246.232,-113.74C262.795,-132.505 303.129,-175.26 345.797,-198.5 349.498,-200.516 353.447,-202.325 357.495,-203.946"/>
<polygon fill="midnightblue" stroke="midnightblue" points="356.454,-207.292 367.049,-207.394 358.831,-200.707 356.454,-207.292"/>
</g>
<!-- Node142 -->
<g id="node6" class="node"><title>Node142</title>
<g id="a_node6"><a xlink:href="namespacecaiman_1_1motion__correction.html#a54e0e94e8c54dadcad8bc6688e46c590" target="_top" xlink:title="apply_shift_iteration">
<polygon fill="white" stroke="black" points="357.181,-170.5 357.181,-188.5 462.126,-188.5 462.126,-170.5 357.181,-170.5"/>
<text text-anchor="middle" x="409.654" y="-176.5" font-family="Helvetica,sans-Serif" font-size="10.00">apply_shift_iteration</text>
</a>
</g>
</g>
<!-- Node138&#45;&gt;Node142 -->
<g id="edge5" class="edge"><title>Node138&#45;&gt;Node142</title>
<path fill="none" stroke="midnightblue" d="M253.147,-113.648C273.449,-125.871 311.321,-147.599 345.797,-161.5 351.192,-163.675 356.947,-165.701 362.7,-167.55"/>
<polygon fill="midnightblue" stroke="midnightblue" points="361.732,-170.914 372.318,-170.49 363.778,-164.22 361.732,-170.914"/>
</g>
<!-- Node143 -->
<g id="node7" class="node"><title>Node143</title>
<g id="a_node7"><a xlink:href="namespacecaiman_1_1motion__correction.html#ad4fabc7e2b2082da438e99a60ca41d96" target="_top" xlink:title="apply_shifts_dft">
<polygon fill="white" stroke="black" points="366.91,-133.5 366.91,-151.5 452.397,-151.5 452.397,-133.5 366.91,-133.5"/>
<text text-anchor="middle" x="409.654" y="-139.5" font-family="Helvetica,sans-Serif" font-size="10.00">apply_shifts_dft</text>
</a>
</g>
</g>
<!-- Node138&#45;&gt;Node143 -->
<g id="edge6" class="edge"><title>Node138&#45;&gt;Node143</title>
<path fill="none" stroke="midnightblue" d="M278.686,-113.505C302.57,-118.834 333.025,-125.628 358.45,-131.3"/>
<polygon fill="midnightblue" stroke="midnightblue" points="357.76,-134.732 368.282,-133.493 359.284,-127.9 357.76,-134.732"/>
</g>
<!-- Node144 -->
<g id="node8" class="node"><title>Node144</title>
<g id="a_node8"><a xlink:href="namespacecaiman_1_1motion__correction.html#aef362667b31a29dfcc1a0c35c87f01ad" target="_top" xlink:title="efficiently and lazily slides a window across the image Parameters img:ndarray 2D image that needs to...">
<polygon fill="white" stroke="black" points="520.824,-74.5 520.824,-92.5 604.085,-92.5 604.085,-74.5 520.824,-74.5"/>
<text text-anchor="middle" x="562.455" y="-80.5" font-family="Helvetica,sans-Serif" font-size="10.00">sliding_window</text>
</a>
</g>
</g>
<!-- Node138&#45;&gt;Node144 -->
<g id="edge7" class="edge"><title>Node138&#45;&gt;Node144</title>
<path fill="none" stroke="midnightblue" d="M280.896,-101.733C340.15,-97.8822 447.318,-90.9175 510.666,-86.8007"/>
<polygon fill="midnightblue" stroke="midnightblue" points="511.071,-90.2818 520.823,-86.1406 510.617,-83.2966 511.071,-90.2818"/>
</g>
<!-- Node145 -->
<g id="node9" class="node"><title>Node145</title>
<g id="a_node9"><a xlink:href="namespacecaiman_1_1motion__correction.html#a88ef513cfa324fc8548e4fb46d7a67e5" target="_top" xlink:title="create a matrix that is used to normalize the intersection of the stiched patches ...">
<polygon fill="white" stroke="black" points="354.132,-47.5 354.132,-75.5 465.176,-75.5 465.176,-47.5 354.132,-47.5"/>
<text text-anchor="start" x="362.132" y="-63.5" font-family="Helvetica,sans-Serif" font-size="10.00">create_weight_matrix</text>
<text text-anchor="middle" x="409.654" y="-53.5" font-family="Helvetica,sans-Serif" font-size="10.00">_for_blending</text>
</a>
</g>
</g>
<!-- Node138&#45;&gt;Node145 -->
<g id="edge8" class="edge"><title>Node138&#45;&gt;Node145</title>
<path fill="none" stroke="midnightblue" d="M249.463,-95.4271C263.526,-89.1598 288.456,-82.8857 309.797,-77.5 320.882,-74.7025 332.666,-71.7254 344.09,-68.9819"/>
<polygon fill="midnightblue" stroke="midnightblue" points="345.081,-72.3442 354.011,-66.6414 343.474,-65.5313 345.081,-72.3442"/>
</g>
<!-- Node146 -->
<g id="node10" class="node"><title>Node146</title>
<g id="a_node10"><a xlink:href="namespacecaiman_1_1motion__correction.html#a93dc0dbba76cd31384bb0fdca775fff6" target="_top" xlink:title="compute_metrics_motion\l_correction">
<polygon fill="white" stroke="black" points="345.797,-0.5 345.797,-28.5 473.511,-28.5 473.511,-0.5 345.797,-0.5"/>
<text text-anchor="start" x="353.797" y="-16.5" font-family="Helvetica,sans-Serif" font-size="10.00">compute_metrics_motion</text>
<text text-anchor="middle" x="409.654" y="-6.5" font-family="Helvetica,sans-Serif" font-size="10.00">_correction</text>
</a>
</g>
</g>
<!-- Node138&#45;&gt;Node146 -->
<g id="edge11" class="edge"><title>Node138&#45;&gt;Node146</title>
<path fill="none" stroke="midnightblue" d="M281.132,-98.7148C291.097,-96.0542 301.273,-92.1701 309.797,-86.5 332,-71.7303 324.504,-54.5536 345.797,-38.5 348.237,-36.6607 350.834,-34.9466 353.531,-33.3515"/>
<polygon fill="midnightblue" stroke="midnightblue" points="355.211,-36.4225 362.415,-28.654 351.939,-30.2343 355.211,-36.4225"/>
</g>
<!-- Node140 -->
<g id="node4" class="node"><title>Node140</title>
<g id="a_node4"><a xlink:href="namespacecaiman_1_1motion__correction.html#aa339d12f180017a763175f450816f158" target="_top" xlink:title="_upsampled_dft">
<polygon fill="white" stroke="black" points="518.874,-225.5 518.874,-243.5 606.036,-243.5 606.036,-225.5 518.874,-225.5"/>
<text text-anchor="middle" x="562.455" y="-231.5" font-family="Helvetica,sans-Serif" font-size="10.00">_upsampled_dft</text>
</a>
</g>
</g>
<!-- Node139&#45;&gt;Node140 -->
<g id="edge3" class="edge"><title>Node139&#45;&gt;Node140</title>
<path fill="none" stroke="midnightblue" d="M460.45,-222.444C475.932,-224.292 493.049,-226.335 508.725,-228.206"/>
<polygon fill="midnightblue" stroke="midnightblue" points="508.442,-231.697 518.786,-229.407 509.271,-224.746 508.442,-231.697"/>
</g>
<!-- Node141 -->
<g id="node5" class="node"><title>Node141</title>
<g id="a_node5"><a xlink:href="namespacecaiman_1_1motion__correction.html#a09859fe5f2beba321b5397662b26651b" target="_top" xlink:title="_compute_phasediff">
<polygon fill="white" stroke="black" points="509.511,-188.5 509.511,-206.5 615.398,-206.5 615.398,-188.5 509.511,-188.5"/>
<text text-anchor="middle" x="562.455" y="-194.5" font-family="Helvetica,sans-Serif" font-size="10.00">_compute_phasediff</text>
</a>
</g>
</g>
<!-- Node139&#45;&gt;Node141 -->
<g id="edge4" class="edge"><title>Node139&#45;&gt;Node141</title>
<path fill="none" stroke="midnightblue" d="M460.45,-210.226C472.838,-208.665 486.272,-206.973 499.177,-205.347"/>
<polygon fill="midnightblue" stroke="midnightblue" points="499.899,-208.783 509.383,-204.061 499.024,-201.838 499.899,-208.783"/>
</g>
<!-- Node145&#45;&gt;Node138 -->
<g id="edge10" class="edge"><title>Node145&#45;&gt;Node138</title>
<path fill="none" stroke="midnightblue" d="M382.222,-75.6234C362.312,-82.2309 334.343,-89.3057 309.797,-95.5 303.69,-97.0411 297.289,-98.655 290.933,-100.193"/>
<polygon fill="midnightblue" stroke="midnightblue" points="289.962,-96.8256 281.031,-102.525 291.567,-103.639 289.962,-96.8256"/>
</g>
<!-- Node145&#45;&gt;Node144 -->
<g id="edge9" class="edge"><title>Node145&#45;&gt;Node144</title>
<path fill="none" stroke="midnightblue" d="M465.523,-69.5047C480.16,-71.6402 495.915,-73.9386 510.342,-76.0433"/>
<polygon fill="midnightblue" stroke="midnightblue" points="510.177,-79.5562 520.577,-77.5365 511.187,-72.6295 510.177,-79.5562"/>
</g>
</g>
</svg>
        <g id="navigator" transform="translate(0 0)" fill="#404254">
                <rect fill="#f2f5e9" fill-opacity="0.5" stroke="#606060" stroke-width=".5" x="0" y="0" width="60" height="60"/>
                <use id="zoomplus" xlink:href="#zoomPlus" x="17" y="9" onmousedown="handleZoom(evt,'in')"/>
                <use id="zoomminus" xlink:href="#zoomMin" x="42" y="9" onmousedown="handleZoom(evt,'out')"/>
                <use id="reset" xlink:href="#resetDef" x="30" y="36" onmousedown="handleReset()"/>
                <g id="arrowUp" xlink:href="#dirArrow" transform="translate(30 24)" onmousedown="handlePan(0,-1)">
                  <use xlink:href="#rim" fill="#404040">
                        <set attributeName="fill" to="#808080" begin="arrowUp.mouseover" end="arrowUp.mouseout"/>
                  </use>
                  <path fill="none" stroke="white" stroke-width="1.5" d="M0,-3.0v7 M-2.5,-0.5L0,-3.0L2.5,-0.5"/>
                </g>
                <g id="arrowRight" xlink:href="#dirArrow" transform="rotate(90) translate(36 -43)" onmousedown="handlePan(1,0)">
                  <use xlink:href="#rim" fill="#404040">
                        <set attributeName="fill" to="#808080" begin="arrowRight.mouseover" end="arrowRight.mouseout"/>
                  </use>
                  <path fill="none" stroke="white" stroke-width="1.5" d="M0,-3.0v7 M-2.5,-0.5L0,-3.0L2.5,-0.5"/>
                </g>
                <g id="arrowDown" xlink:href="#dirArrow" transform="rotate(180) translate(-30 -48)" onmousedown="handlePan(0,1)">
                  <use xlink:href="#rim" fill="#404040">
                        <set attributeName="fill" to="#808080" begin="arrowDown.mouseover" end="arrowDown.mouseout"/>
                  </use>
                  <path fill="none" stroke="white" stroke-width="1.5" d="M0,-3.0v7 M-2.5,-0.5L0,-3.0L2.5,-0.5"/>
                </g>
                <g id="arrowLeft" xlink:href="#dirArrow" transform="rotate(270) translate(-36 17)" onmousedown="handlePan(-1,0)">
                  <use xlink:href="#rim" fill="#404040">
                        <set attributeName="fill" to="#808080" begin="arrowLeft.mouseover" end="arrowLeft.mouseout"/>
                  </use>
                  <path fill="none" stroke="white" stroke-width="1.5" d="M0,-3.0v7 M-2.5,-0.5L0,-3.0L2.5,-0.5"/>
                </g>
        </g>
        <svg viewBox="0 0 15 15" width="100%" height="30px" preserveAspectRatio="xMaxYMin meet">
         <g id="arrow_out" transform="scale(0.3 0.3)">
          <a xlink:href="namespacecaiman_1_1motion__correction_a9c4d6e518f42c395cb58a08d2ff21f45_cgraph_org.svg" target="_base">
           <rect id="button" ry="5" rx="5" y="6" x="6" height="38" width="38"
                fill="#f2f5e9" fill-opacity="0.5" stroke="#606060" stroke-width="1.0"/>
           <path id="arrow"
             d="M 11.500037,31.436501 C 11.940474,20.09759 22.043105,11.32322 32.158766,21.979434 L 37.068811,17.246167 C 37.068811,17.246167 37.088388,32 37.088388,32 L 22.160133,31.978069 C 22.160133,31.978069 26.997745,27.140456 26.997745,27.140456 C 18.528582,18.264221 13.291696,25.230495 11.500037,31.436501 z"
             style="fill:#404040;"/>
          </a>
         </g>
        </svg>
</svg>
