<?xml version="1.0" encoding="UTF-8" standalone="no"?>
<!DOCTYPE svg PUBLIC "-//W3C//DTD SVG 1.1//EN"
 "http://www.w3.org/Graphics/SVG/1.1/DTD/svg11.dtd">
<!-- Generated by graphviz version 2.38.0 (20140413.2041)
 -->
<!-- Title: onnls Pages: 1 -->
<!--zoomable 83 -->
<svg id="main" version="1.1" xmlns="http://www.w3.org/2000/svg" xmlns:xlink="http://www.w3.org/1999/xlink" xml:space="preserve" onload="init(evt)">
<style type="text/css"><![CDATA[
.edge:hover path { stroke: red; }
.edge:hover polygon { stroke: red; fill: red; }
]]></style>
<script type="text/javascript"><![CDATA[
var edges = document.getElementsByTagName('g');
if (edges && edges.length) {
  for (var i=0;i<edges.length;i++) {
    if (edges[i].id.substr(0,4)=='edge') {
      edges[i].setAttribute('class','edge');
    }
  }
}
]]></script>
        <defs>
                <circle id="rim" cx="0" cy="0" r="7"/>
                <circle id="rim2" cx="0" cy="0" r="3.5"/>
                <g id="zoomPlus">
                        <use xlink:href="#rim" fill="#404040">
                                <set attributeName="fill" to="#808080" begin="zoomplus.mouseover" end="zoomplus.mouseout"/>
                        </use>
                        <path d="M-4,0h8M0,-4v8" fill="none" stroke="white" stroke-width="1.5" pointer-events="none"/>
                </g>
                <g id="zoomMin">
                        <use xlink:href="#rim" fill="#404040">
                                <set attributeName="fill" to="#808080" begin="zoomminus.mouseover" end="zoomminus.mouseout"/>
                        </use>
                        <path d="M-4,0h8" fill="none" stroke="white" stroke-width="1.5" pointer-events="none"/>
                </g>
                <g id="dirArrow">
                        <path fill="none" stroke="white" stroke-width="1.5" d="M0,-3.0v7 M-2.5,-0.5L0,-3.0L2.5,-0.5"/>
                </g>
               <g id="resetDef">
                       <use xlink:href="#rim2" fill="#404040">
                               <set attributeName="fill" to="#808080" begin="reset.mouseover" end="reset.mouseout"/>
                       </use>
               </g>
        </defs>

<script type="text/javascript">
var viewWidth = 679;
var viewHeight = 83;
var sectionId = 'dynsection-15';
</script>
<script xlink:href="svgpan.js"/>
<svg id="graph" class="graph">
<g id="viewport">
<title>onnls</title>
<polygon fill="white" stroke="none" points="-4,4 -4,-79 674.663,-79 674.663,4 -4,4"/>
<!-- Node117 -->
<g id="node1" class="node"><title>Node117</title>
<polygon fill="#bfbfbf" stroke="black" points="0,-19.5 0,-37.5 39.9062,-37.5 39.9062,-19.5 0,-19.5"/>
<text text-anchor="middle" x="19.9531" y="-25.5" font-family="Helvetica,sans-Serif" font-size="10.00">onnls</text>
</g>
<!-- Node118 -->
<g id="node2" class="node"><title>Node118</title>
<g id="a_node2"><a xlink:href="namespacecaiman_1_1source__extraction_1_1cnmf_1_1deconvolution.html#ad9f9b2ef0aad5c652f86bd8c7ae64bdd" target="_top" xlink:title="_nnls">
<polygon fill="white" stroke="black" points="113.982,-56.5 113.982,-74.5 153.889,-74.5 153.889,-56.5 113.982,-56.5"/>
<text text-anchor="middle" x="133.936" y="-62.5" font-family="Helvetica,sans-Serif" font-size="10.00">_nnls</text>
</a>
</g>
</g>
<!-- Node117&#45;&gt;Node118 -->
<g id="edge1" class="edge"><title>Node117&#45;&gt;Node118</title>
<path fill="none" stroke="midnightblue" d="M39.9494,-34.7765C57.5654,-40.597 84.0246,-49.3394 104.22,-56.012"/>
<polygon fill="midnightblue" stroke="midnightblue" points="103.253,-59.3786 113.846,-59.1927 105.449,-52.732 103.253,-59.3786"/>
</g>
<!-- Node119 -->
<g id="node3" class="node"><title>Node119</title>
<g id="a_node3"><a xlink:href="namespacecaiman_1_1source__extraction_1_1cnmf_1_1deconvolution.html#a5753e123f06d6f8a5f53e8f1cc50baba" target="_top" xlink:title="Infer the most likely discretized spike train underlying an AR(2) fluorescence trace. ">
<polygon fill="white" stroke="black" points="75.9062,-19.5 75.9062,-37.5 191.965,-37.5 191.965,-19.5 75.9062,-19.5"/>
<text text-anchor="middle" x="133.936" y="-25.5" font-family="Helvetica,sans-Serif" font-size="10.00">constrained_oasisAR2</text>
</a>
</g>
</g>
<!-- Node117&#45;&gt;Node119 -->
<g id="edge2" class="edge"><title>Node117&#45;&gt;Node119</title>
<path fill="none" stroke="midnightblue" d="M39.9494,-23.283C47.2815,-22.5563 56.1455,-22.088 65.4522,-21.878"/>
<polygon fill="midnightblue" stroke="midnightblue" points="65.7172,-25.3751 75.6731,-21.7515 65.6306,-18.3756 65.7172,-25.3751"/>
</g>
<!-- Node119&#45;&gt;Node117 -->
<g id="edge7" class="edge"><title>Node119&#45;&gt;Node117</title>
<path fill="none" stroke="midnightblue" d="M75.6731,-35.2485C66.7941,-35.2268 57.9578,-34.9788 50.0578,-34.5043"/>
<polygon fill="midnightblue" stroke="midnightblue" points="50.191,-31.0042 39.9494,-33.717 49.6474,-37.9831 50.191,-31.0042"/>
</g>
<!-- Node120 -->
<g id="node4" class="node"><title>Node120</title>
<g id="a_node4"><a xlink:href="namespacecaiman_1_1source__extraction_1_1cnmf_1_1deconvolution.html#a7a73db2b3e0e88f4a5f30f80944c1319" target="_top" xlink:title="estimate_time_constant">
<polygon fill="white" stroke="black" points="373.896,-38.5 373.896,-56.5 495.506,-56.5 495.506,-38.5 373.896,-38.5"/>
<text text-anchor="middle" x="434.701" y="-44.5" font-family="Helvetica,sans-Serif" font-size="10.00">estimate_time_constant</text>
</a>
</g>
</g>
<!-- Node119&#45;&gt;Node120 -->
<g id="edge3" class="edge"><title>Node119&#45;&gt;Node120</title>
<path fill="none" stroke="midnightblue" d="M192.187,-32.1409C241.032,-35.2472 311.439,-39.7247 363.641,-43.0446"/>
<polygon fill="midnightblue" stroke="midnightblue" points="363.625,-46.5505 373.827,-43.6923 364.07,-39.5646 363.625,-46.5505"/>
</g>
<!-- Node124 -->
<g id="node8" class="node"><title>Node124</title>
<g id="a_node8"><a xlink:href="namespacecaiman_1_1source__extraction_1_1cnmf_1_1deconvolution.html#a7199190b4f33e4a70dedc9deea7e4c45" target="_top" xlink:title="estimate_parameters">
<polygon fill="white" stroke="black" points="227.965,-0.5 227.965,-18.5 337.896,-18.5 337.896,-0.5 227.965,-0.5"/>
<text text-anchor="middle" x="282.93" y="-6.5" font-family="Helvetica,sans-Serif" font-size="10.00">estimate_parameters</text>
</a>
</g>
</g>
<!-- Node119&#45;&gt;Node124 -->
<g id="edge8" class="edge"><title>Node119&#45;&gt;Node124</title>
<path fill="none" stroke="midnightblue" d="M192.188,-21.0997C200.648,-20.0063 209.409,-18.8738 217.994,-17.7642"/>
<polygon fill="midnightblue" stroke="midnightblue" points="218.492,-21.229 227.961,-16.4758 217.595,-14.2867 218.492,-21.229"/>
</g>
<!-- Node121 -->
<g id="node5" class="node"><title>Node121</title>
<g id="a_node5"><a xlink:href="namespacecaiman_1_1source__extraction_1_1cnmf_1_1deconvolution.html#a16b9a254776edd0d9093ee35b1ef17a2" target="_top" xlink:title="GetSn">
<polygon fill="white" stroke="black" points="531.506,-0.5 531.506,-18.5 575.855,-18.5 575.855,-0.5 531.506,-0.5"/>
<text text-anchor="middle" x="553.681" y="-6.5" font-family="Helvetica,sans-Serif" font-size="10.00">GetSn</text>
</a>
</g>
</g>
<!-- Node120&#45;&gt;Node121 -->
<g id="edge4" class="edge"><title>Node120&#45;&gt;Node121</title>
<path fill="none" stroke="midnightblue" d="M463.423,-38.4945C480.981,-32.7909 503.711,-25.4075 521.838,-19.5189"/>
<polygon fill="midnightblue" stroke="midnightblue" points="522.944,-22.8398 531.373,-16.4215 520.781,-16.1823 522.944,-22.8398"/>
</g>
<!-- Node122 -->
<g id="node6" class="node"><title>Node122</title>
<g id="a_node6"><a xlink:href="namespacecaiman_1_1source__extraction_1_1cnmf_1_1deconvolution.html#a458da977dee6e97910a1b006e899b309" target="_top" xlink:title="axcov">
<polygon fill="white" stroke="black" points="532.619,-38.5 532.619,-56.5 574.742,-56.5 574.742,-38.5 532.619,-38.5"/>
<text text-anchor="middle" x="553.681" y="-44.5" font-family="Helvetica,sans-Serif" font-size="10.00">axcov</text>
</a>
</g>
</g>
<!-- Node120&#45;&gt;Node122 -->
<g id="edge5" class="edge"><title>Node120&#45;&gt;Node122</title>
<path fill="none" stroke="midnightblue" d="M495.561,-47.5C504.864,-47.5 514.12,-47.5 522.388,-47.5"/>
<polygon fill="midnightblue" stroke="midnightblue" points="522.609,-51.0001 532.609,-47.5 522.608,-44.0001 522.609,-51.0001"/>
</g>
<!-- Node123 -->
<g id="node7" class="node"><title>Node123</title>
<g id="a_node7"><a xlink:href="namespacecaiman_1_1source__extraction_1_1cnmf_1_1deconvolution.html#a8d83696f273bd0121651cf48a6b899ae" target="_top" xlink:title="nextpow2">
<polygon fill="white" stroke="black" points="611.855,-38.5 611.855,-56.5 670.663,-56.5 670.663,-38.5 611.855,-38.5"/>
<text text-anchor="middle" x="641.259" y="-44.5" font-family="Helvetica,sans-Serif" font-size="10.00">nextpow2</text>
</a>
</g>
</g>
<!-- Node122&#45;&gt;Node123 -->
<g id="edge6" class="edge"><title>Node122&#45;&gt;Node123</title>
<path fill="none" stroke="midnightblue" d="M574.962,-47.5C582.934,-47.5 592.364,-47.5 601.542,-47.5"/>
<polygon fill="midnightblue" stroke="midnightblue" points="601.705,-51.0001 611.705,-47.5 601.705,-44.0001 601.705,-51.0001"/>
</g>
<!-- Node124&#45;&gt;Node120 -->
<g id="edge10" class="edge"><title>Node124&#45;&gt;Node120</title>
<path fill="none" stroke="midnightblue" d="M319.424,-18.5055C340.052,-23.7394 366.256,-30.3879 388.367,-35.9978"/>
<polygon fill="midnightblue" stroke="midnightblue" points="387.649,-39.4265 398.203,-38.4934 389.371,-32.6415 387.649,-39.4265"/>
</g>
<!-- Node124&#45;&gt;Node121 -->
<g id="edge9" class="edge"><title>Node124&#45;&gt;Node121</title>
<path fill="none" stroke="midnightblue" d="M337.993,-9.5C393.051,-9.5 476.524,-9.5 521.443,-9.5"/>
<polygon fill="midnightblue" stroke="midnightblue" points="521.468,-13.0001 531.468,-9.5 521.468,-6.0001 521.468,-13.0001"/>
</g>
</g>
</svg>
        <g id="navigator" transform="translate(0 0)" fill="#404254">
                <rect fill="#f2f5e9" fill-opacity="0.5" stroke="#606060" stroke-width=".5" x="0" y="0" width="60" height="60"/>
                <use id="zoomplus" xlink:href="#zoomPlus" x="17" y="9" onmousedown="handleZoom(evt,'in')"/>
                <use id="zoomminus" xlink:href="#zoomMin" x="42" y="9" onmousedown="handleZoom(evt,'out')"/>
                <use id="reset" xlink:href="#resetDef" x="30" y="36" onmousedown="handleReset()"/>
                <g id="arrowUp" xlink:href="#dirArrow" transform="translate(30 24)" onmousedown="handlePan(0,-1)">
                  <use xlink:href="#rim" fill="#404040">
                        <set attributeName="fill" to="#808080" begin="arrowUp.mouseover" end="arrowUp.mouseout"/>
                  </use>
                  <path fill="none" stroke="white" stroke-width="1.5" d="M0,-3.0v7 M-2.5,-0.5L0,-3.0L2.5,-0.5"/>
                </g>
                <g id="arrowRight" xlink:href="#dirArrow" transform="rotate(90) translate(36 -43)" onmousedown="handlePan(1,0)">
                  <use xlink:href="#rim" fill="#404040">
                        <set attributeName="fill" to="#808080" begin="arrowRight.mouseover" end="arrowRight.mouseout"/>
                  </use>
                  <path fill="none" stroke="white" stroke-width="1.5" d="M0,-3.0v7 M-2.5,-0.5L0,-3.0L2.5,-0.5"/>
                </g>
                <g id="arrowDown" xlink:href="#dirArrow" transform="rotate(180) translate(-30 -48)" onmousedown="handlePan(0,1)">
                  <use xlink:href="#rim" fill="#404040">
                        <set attributeName="fill" to="#808080" begin="arrowDown.mouseover" end="arrowDown.mouseout"/>
                  </use>
                  <path fill="none" stroke="white" stroke-width="1.5" d="M0,-3.0v7 M-2.5,-0.5L0,-3.0L2.5,-0.5"/>
                </g>
                <g id="arrowLeft" xlink:href="#dirArrow" transform="rotate(270) translate(-36 17)" onmousedown="handlePan(-1,0)">
                  <use xlink:href="#rim" fill="#404040">
                        <set attributeName="fill" to="#808080" begin="arrowLeft.mouseover" end="arrowLeft.mouseout"/>
                  </use>
                  <path fill="none" stroke="white" stroke-width="1.5" d="M0,-3.0v7 M-2.5,-0.5L0,-3.0L2.5,-0.5"/>
                </g>
        </g>
        <svg viewBox="0 0 15 15" width="100%" height="30px" preserveAspectRatio="xMaxYMin meet">
         <g id="arrow_out" transform="scale(0.3 0.3)">
          <a xlink:href="namespacecaiman_1_1source__extraction_1_1cnmf_1_1deconvolution_affae481e26d5e13bc6f62c6e643b63d5_cgraph_org.svg" target="_base">
           <rect id="button" ry="5" rx="5" y="6" x="6" height="38" width="38"
                fill="#f2f5e9" fill-opacity="0.5" stroke="#606060" stroke-width="1.0"/>
           <path id="arrow"
             d="M 11.500037,31.436501 C 11.940474,20.09759 22.043105,11.32322 32.158766,21.979434 L 37.068811,17.246167 C 37.068811,17.246167 37.088388,32 37.088388,32 L 22.160133,31.978069 C 22.160133,31.978069 26.997745,27.140456 26.997745,27.140456 C 18.528582,18.264221 13.291696,25.230495 11.500037,31.436501 z"
             style="fill:#404040;"/>
          </a>
         </g>
        </svg>
</svg>
