<?xml version="1.0" encoding="UTF-8" standalone="no"?>
<!DOCTYPE svg PUBLIC "-//W3C//DTD SVG 1.1//EN"
 "http://www.w3.org/Graphics/SVG/1.1/DTD/svg11.dtd">
<!-- Generated by graphviz version 2.38.0 (20140413.2041)
 -->
<!-- Title: extract_traces_mat Pages: 1 -->
<svg width="415pt" height="101pt"
 viewBox="0.00 0.00 415.38 101.00" xmlns="http://www.w3.org/2000/svg" xmlns:xlink="http://www.w3.org/1999/xlink">
<g id="graph0" class="graph" transform="scale(1 1) rotate(0) translate(4 97)">
<title>extract_traces_mat</title>
<polygon fill="white" stroke="none" points="-4,4 -4,-97 411.378,-97 411.378,4 -4,4"/>
<!-- Node4 -->
<g id="node1" class="node"><title>Node4</title>
<polygon fill="#bfbfbf" stroke="black" points="0,-37.5 0,-55.5 101.034,-55.5 101.034,-37.5 0,-37.5"/>
<text text-anchor="middle" x="50.5171" y="-43.5" font-family="Helvetica,sans-Serif" font-size="10.00">extract_traces_mat</text>
</g>
<!-- Node5 -->
<g id="node2" class="node"><title>Node5</title>
<g id="a_node2"><a xlink:href="namespaceuse__cases_1_1granule__cells_1_1utils__granule.html#aad284806a8bd8ed473166a9107a11253" target="_top" xlink:title="From the partial data stored retrieves variables of interest. ">
<polygon fill="white" stroke="black" points="137.034,-32.5 137.034,-60.5 255.881,-60.5 255.881,-32.5 137.034,-32.5"/>
<text text-anchor="start" x="145.034" y="-48.5" font-family="Helvetica,sans-Serif" font-size="10.00">load_data_from_stored</text>
<text text-anchor="middle" x="196.458" y="-38.5" font-family="Helvetica,sans-Serif" font-size="10.00">_results</text>
</a>
</g>
</g>
<!-- Node4&#45;&gt;Node5 -->
<g id="edge1" class="edge"><title>Node4&#45;&gt;Node5</title>
<path fill="none" stroke="midnightblue" d="M101.053,-40.0503C109.353,-39.8212 118.095,-39.7232 126.774,-39.7563"/>
<polygon fill="midnightblue" stroke="midnightblue" points="126.868,-43.2573 136.902,-39.8553 126.936,-36.2576 126.868,-43.2573"/>
</g>
<!-- Node5&#45;&gt;Node4 -->
<g id="edge4" class="edge"><title>Node5&#45;&gt;Node4</title>
<path fill="none" stroke="midnightblue" d="M136.902,-53.1447C128.444,-53.2789 119.73,-53.2848 111.249,-53.1625"/>
<polygon fill="midnightblue" stroke="midnightblue" points="111.124,-49.6592 101.053,-52.9497 110.978,-56.6577 111.124,-49.6592"/>
</g>
<!-- Node6 -->
<g id="node3" class="node"><title>Node6</title>
<g id="a_node3"><a xlink:href="namespaceuse__cases_1_1granule__cells_1_1utils__granule.html#a8d7c62cfe68cb8f54148c40fad7f2079" target="_top" xlink:title="Load results from CNMF on various FOVs and merge them after some preprocessing. ">
<polygon fill="white" stroke="black" points="314.669,-74.5 314.669,-92.5 384.59,-92.5 384.59,-74.5 314.669,-74.5"/>
<text text-anchor="middle" x="349.629" y="-80.5" font-family="Helvetica,sans-Serif" font-size="10.00">load_results</text>
</a>
</g>
</g>
<!-- Node5&#45;&gt;Node6 -->
<g id="edge2" class="edge"><title>Node5&#45;&gt;Node6</title>
<path fill="none" stroke="midnightblue" d="M255.04,-60.5937C271.468,-64.6143 289.099,-68.9297 304.58,-72.7188"/>
<polygon fill="midnightblue" stroke="midnightblue" points="303.863,-76.1466 314.409,-75.1244 305.528,-69.3473 303.863,-76.1466"/>
</g>
<!-- Node7 -->
<g id="node4" class="node"><title>Node7</title>
<g id="a_node4"><a xlink:href="namespaceuse__cases_1_1granule__cells_1_1utils__granule.html#a548726920163e9294689515308c625ca" target="_top" xlink:title="preprocess traces output of get_behavior_traces ">
<polygon fill="white" stroke="black" points="291.881,-37.5 291.881,-55.5 407.378,-55.5 407.378,-37.5 291.881,-37.5"/>
<text text-anchor="middle" x="349.629" y="-43.5" font-family="Helvetica,sans-Serif" font-size="10.00">process_eyelid_traces</text>
</a>
</g>
</g>
<!-- Node5&#45;&gt;Node7 -->
<g id="edge3" class="edge"><title>Node5&#45;&gt;Node7</title>
<path fill="none" stroke="midnightblue" d="M255.905,-46.5C264.384,-46.5 273.168,-46.5 281.798,-46.5"/>
<polygon fill="midnightblue" stroke="midnightblue" points="281.829,-50.0001 291.829,-46.5 281.829,-43.0001 281.829,-50.0001"/>
</g>
<!-- Node8 -->
<g id="node5" class="node"><title>Node8</title>
<g id="a_node5"><a xlink:href="namespaceuse__cases_1_1granule__cells_1_1utils__granule.html#ac9cde14ba363f17139f7a84a7164e5f4" target="_top" xlink:title="process_wheel_traces">
<polygon fill="white" stroke="black" points="291.881,-0.5 291.881,-18.5 407.378,-18.5 407.378,-0.5 291.881,-0.5"/>
<text text-anchor="middle" x="349.629" y="-6.5" font-family="Helvetica,sans-Serif" font-size="10.00">process_wheel_traces</text>
</a>
</g>
</g>
<!-- Node5&#45;&gt;Node8 -->
<g id="edge5" class="edge"><title>Node5&#45;&gt;Node8</title>
<path fill="none" stroke="midnightblue" d="M255.04,-32.4063C270.498,-28.6231 287.021,-24.5789 301.816,-20.9577"/>
<polygon fill="midnightblue" stroke="midnightblue" points="302.867,-24.3039 311.748,-18.5268 301.203,-17.5046 302.867,-24.3039"/>
</g>
</g>
</svg>
