<?xml version="1.0" encoding="UTF-8" standalone="no"?>
<!DOCTYPE svg PUBLIC "-//W3C//DTD SVG 1.1//EN"
 "http://www.w3.org/Graphics/SVG/1.1/DTD/svg11.dtd">
<!-- Generated by graphviz version 2.38.0 (20140413.2041)
 -->
<!-- Title: start_server Pages: 1 -->
<svg width="439pt" height="92pt"
 viewBox="0.00 0.00 438.69 92.00" xmlns="http://www.w3.org/2000/svg" xmlns:xlink="http://www.w3.org/1999/xlink">
<g id="graph0" class="graph" transform="scale(1 1) rotate(0) translate(4 88)">
<title>start_server</title>
<polygon fill="white" stroke="none" points="-4,4 -4,-88 434.693,-88 434.693,4 -4,4"/>
<!-- Node34 -->
<g id="node1" class="node"><title>Node34</title>
<polygon fill="#bfbfbf" stroke="black" points="0,-46.5 0,-64.5 68.793,-64.5 68.793,-46.5 0,-46.5"/>
<text text-anchor="middle" x="34.3965" y="-52.5" font-family="Helvetica,sans-Serif" font-size="10.00">start_server</text>
</g>
<!-- Node35 -->
<g id="node2" class="node"><title>Node35</title>
<g id="a_node2"><a xlink:href="namespacecaiman_1_1cluster.html#a1dcb2a098d3e274cb3acd433ddc58953" target="_top" xlink:title="Restart if necessary the pipyparallel cluster, and manages the case of SLURM. ">
<polygon fill="white" stroke="black" points="141.753,-65.5 141.753,-83.5 217.231,-83.5 217.231,-65.5 141.753,-65.5"/>
<text text-anchor="middle" x="179.492" y="-71.5" font-family="Helvetica,sans-Serif" font-size="10.00">setup_cluster</text>
</a>
</g>
</g>
<!-- Node34&#45;&gt;Node35 -->
<g id="edge1" class="edge"><title>Node34&#45;&gt;Node35</title>
<path fill="none" stroke="midnightblue" d="M79.0548,-61.2969C99.0661,-63.9539 122.528,-67.0692 141.636,-69.6063"/>
<polygon fill="midnightblue" stroke="midnightblue" points="79.3198,-57.8014 68.9461,-59.9547 78.3984,-64.7405 79.3198,-57.8014"/>
</g>
<!-- Node36 -->
<g id="node3" class="node"><title>Node36</title>
<g id="a_node3"><a xlink:href="namespacecaiman_1_1tests_1_1test__demo.html#ac5c3950ffe101e5dfa9c5ca2087dfc73" target="_top" xlink:title="caiman.tests.test_demo.demo">
<polygon fill="white" stroke="black" points="104.793,-28.5 104.793,-46.5 254.191,-46.5 254.191,-28.5 104.793,-28.5"/>
<text text-anchor="middle" x="179.492" y="-34.5" font-family="Helvetica,sans-Serif" font-size="10.00">caiman.tests.test_demo.demo</text>
</a>
</g>
</g>
<!-- Node34&#45;&gt;Node36 -->
<g id="edge2" class="edge"><title>Node34&#45;&gt;Node36</title>
<path fill="none" stroke="midnightblue" d="M78.9547,-50.0208C87.7786,-48.9109 97.2768,-47.7161 106.779,-46.5208"/>
<polygon fill="midnightblue" stroke="midnightblue" points="78.431,-46.559 68.9461,-51.2798 79.3047,-53.5043 78.431,-46.559"/>
</g>
<!-- Node37 -->
<g id="node4" class="node"><title>Node37</title>
<g id="a_node4"><a xlink:href="namespacecaiman_1_1tests_1_1test__demo.html#a96a59f0aebd7425caeb0e5c4c0286d46" target="_top" xlink:title="caiman.tests.test_demo.test\l_single_thread">
<polygon fill="white" stroke="black" points="290.191,-47.5 290.191,-75.5 430.693,-75.5 430.693,-47.5 290.191,-47.5"/>
<text text-anchor="start" x="298.191" y="-63.5" font-family="Helvetica,sans-Serif" font-size="10.00">caiman.tests.test_demo.test</text>
<text text-anchor="middle" x="360.442" y="-53.5" font-family="Helvetica,sans-Serif" font-size="10.00">_single_thread</text>
</a>
</g>
</g>
<!-- Node36&#45;&gt;Node37 -->
<g id="edge3" class="edge"><title>Node36&#45;&gt;Node37</title>
<path fill="none" stroke="midnightblue" d="M257.838,-47.8733C268.576,-49.3135 279.552,-50.7855 290.132,-52.2043"/>
<polygon fill="midnightblue" stroke="midnightblue" points="258.012,-44.3654 247.636,-46.505 257.082,-51.3033 258.012,-44.3654"/>
</g>
<!-- Node38 -->
<g id="node5" class="node"><title>Node38</title>
<g id="a_node5"><a xlink:href="namespacecaiman_1_1tests_1_1test__demo.html#a9b4f91fe22f45c31c9f0d6decc982909" target="_top" xlink:title="caiman.tests.test_demo.test\l_parallel">
<polygon fill="white" stroke="black" points="290.191,-0.5 290.191,-28.5 430.693,-28.5 430.693,-0.5 290.191,-0.5"/>
<text text-anchor="start" x="298.191" y="-16.5" font-family="Helvetica,sans-Serif" font-size="10.00">caiman.tests.test_demo.test</text>
<text text-anchor="middle" x="360.442" y="-6.5" font-family="Helvetica,sans-Serif" font-size="10.00">_parallel</text>
</a>
</g>
</g>
<!-- Node36&#45;&gt;Node38 -->
<g id="edge4" class="edge"><title>Node36&#45;&gt;Node38</title>
<path fill="none" stroke="midnightblue" d="M260.794,-27.179C270.545,-25.9257 280.444,-24.6535 290.019,-23.4227"/>
<polygon fill="midnightblue" stroke="midnightblue" points="260.177,-23.7295 250.704,-28.4758 261.069,-30.6724 260.177,-23.7295"/>
</g>
</g>
</svg>
