<?xml version="1.0" encoding="UTF-8" standalone="no"?>
<!DOCTYPE svg PUBLIC "-//W3C//DTD SVG 1.1//EN"
 "http://www.w3.org/Graphics/SVG/1.1/DTD/svg11.dtd">
<!-- Generated by graphviz version 2.38.0 (20140413.2041)
 -->
<!-- Title: register_translation Pages: 1 -->
<svg width="399pt" height="178pt"
 viewBox="0.00 0.00 399.27 178.00" xmlns="http://www.w3.org/2000/svg" xmlns:xlink="http://www.w3.org/1999/xlink">
<g id="graph0" class="graph" transform="scale(1 1) rotate(0) translate(4 174)">
<title>register_translation</title>
<polygon fill="white" stroke="none" points="-4,4 -4,-174 395.27,-174 395.27,4 -4,4"/>
<!-- Node109 -->
<g id="node1" class="node"><title>Node109</title>
<polygon fill="#bfbfbf" stroke="black" points="0,-60.5 0,-78.5 101.044,-78.5 101.044,-60.5 0,-60.5"/>
<text text-anchor="middle" x="50.522" y="-66.5" font-family="Helvetica,sans-Serif" font-size="10.00">register_translation</text>
</g>
<!-- Node110 -->
<g id="node2" class="node"><title>Node110</title>
<g id="a_node2"><a xlink:href="namespacecaiman_1_1motion__correction.html#a683f5ee23e529946b17f6a87ae45e0a4" target="_top" xlink:title="Compute RMS error metric between src_image and target_image. ">
<polygon fill="white" stroke="black" points="137.325,-79.5 137.325,-97.5 223.916,-97.5 223.916,-79.5 137.325,-79.5"/>
<text text-anchor="middle" x="180.62" y="-85.5" font-family="Helvetica,sans-Serif" font-size="10.00">_compute_error</text>
</a>
</g>
</g>
<!-- Node109&#45;&gt;Node110 -->
<g id="edge1" class="edge"><title>Node109&#45;&gt;Node110</title>
<path fill="none" stroke="midnightblue" d="M110.99,-78.3205C119.872,-79.6379 128.872,-80.9729 137.303,-82.2234"/>
<polygon fill="midnightblue" stroke="midnightblue" points="111.453,-74.851 101.048,-76.8459 110.426,-81.7753 111.453,-74.851"/>
</g>
<!-- Node111 -->
<g id="node3" class="node"><title>Node111</title>
<g id="a_node3"><a xlink:href="namespacecaiman_1_1motion__correction.html#aea060208c09f0e4fb01e6d31b9acf36f" target="_top" xlink:title="perform piecewise rigid motion correction iteration, by 1) dividing the FOV in patches 2) motion corr...">
<polygon fill="white" stroke="black" points="137.044,-42.5 137.044,-60.5 224.196,-60.5 224.196,-42.5 137.044,-42.5"/>
<text text-anchor="middle" x="180.62" y="-48.5" font-family="Helvetica,sans-Serif" font-size="10.00">tile_and_correct</text>
</a>
</g>
</g>
<!-- Node109&#45;&gt;Node111 -->
<g id="edge2" class="edge"><title>Node109&#45;&gt;Node111</title>
<path fill="none" stroke="midnightblue" d="M111.155,-61.1206C119.84,-59.9002 128.633,-58.6645 136.893,-57.5039"/>
<polygon fill="midnightblue" stroke="midnightblue" points="110.464,-57.6832 101.048,-62.5407 111.438,-64.6151 110.464,-57.6832"/>
</g>
<!-- Node112 -->
<g id="node4" class="node"><title>Node112</title>
<g id="a_node4"><a xlink:href="namespaceabadura__demo.html#a98e8097ac25259476cca178403afebb1" target="_top" xlink:title="abadura_demo.tile_and\l_correct_wrapper">
<polygon fill="white" stroke="black" points="265.191,-141.5 265.191,-169.5 386.274,-169.5 386.274,-141.5 265.191,-141.5"/>
<text text-anchor="start" x="273.191" y="-157.5" font-family="Helvetica,sans-Serif" font-size="10.00">abadura_demo.tile_and</text>
<text text-anchor="middle" x="325.733" y="-147.5" font-family="Helvetica,sans-Serif" font-size="10.00">_correct_wrapper</text>
</a>
</g>
</g>
<!-- Node111&#45;&gt;Node112 -->
<g id="edge3" class="edge"><title>Node111&#45;&gt;Node112</title>
<path fill="none" stroke="midnightblue" d="M217.864,-65.6548C220.111,-67.1354 222.247,-68.7481 224.196,-70.5 247.893,-91.8021 235.693,-112.131 260.196,-132.5 264.312,-135.922 268.975,-138.851 273.866,-141.356"/>
<polygon fill="midnightblue" stroke="midnightblue" points="219.26,-62.4243 208.826,-60.5832 215.834,-68.529 219.26,-62.4243"/>
</g>
<!-- Node113 -->
<g id="node5" class="node"><title>Node113</title>
<g id="a_node5"><a xlink:href="namespacedemo__motion__correction__nonrigid.html#a7c12b0a7d034249b2ceb2b7a2a36498b" target="_top" xlink:title="demo_motion_correction\l_nonrigid.tile_and_correct\l_wrapper">
<polygon fill="white" stroke="black" points="260.196,-84.5 260.196,-122.5 391.27,-122.5 391.27,-84.5 260.196,-84.5"/>
<text text-anchor="start" x="268.196" y="-110.5" font-family="Helvetica,sans-Serif" font-size="10.00">demo_motion_correction</text>
<text text-anchor="start" x="268.196" y="-100.5" font-family="Helvetica,sans-Serif" font-size="10.00">_nonrigid.tile_and_correct</text>
<text text-anchor="middle" x="325.733" y="-90.5" font-family="Helvetica,sans-Serif" font-size="10.00">_wrapper</text>
</a>
</g>
</g>
<!-- Node111&#45;&gt;Node113 -->
<g id="edge4" class="edge"><title>Node111&#45;&gt;Node113</title>
<path fill="none" stroke="midnightblue" d="M215.983,-63.9856C232.826,-70.1058 253.478,-77.6096 272.243,-84.4278"/>
<polygon fill="midnightblue" stroke="midnightblue" points="217.143,-60.6832 206.548,-60.5577 214.752,-67.2624 217.143,-60.6832"/>
</g>
<!-- Node114 -->
<g id="node6" class="node"><title>Node114</title>
<g id="a_node6"><a xlink:href="namespacecaiman_1_1motion__correction.html#a88ef513cfa324fc8548e4fb46d7a67e5" target="_top" xlink:title="create a matrix that is used to normalize the intersection of the stiched patches ...">
<polygon fill="white" stroke="black" points="270.211,-37.5 270.211,-65.5 381.255,-65.5 381.255,-37.5 270.211,-37.5"/>
<text text-anchor="start" x="278.211" y="-53.5" font-family="Helvetica,sans-Serif" font-size="10.00">create_weight_matrix</text>
<text text-anchor="middle" x="325.733" y="-43.5" font-family="Helvetica,sans-Serif" font-size="10.00">_for_blending</text>
</a>
</g>
</g>
<!-- Node111&#45;&gt;Node114 -->
<g id="edge5" class="edge"><title>Node111&#45;&gt;Node114</title>
<path fill="none" stroke="midnightblue" d="M234.896,-44.9497C246.4,-44.6932 258.58,-44.6838 270.134,-44.9214"/>
<polygon fill="midnightblue" stroke="midnightblue" points="234.451,-41.4612 224.559,-45.2547 234.658,-48.4582 234.451,-41.4612"/>
</g>
<!-- Node115 -->
<g id="node7" class="node"><title>Node115</title>
<g id="a_node7"><a xlink:href="namespacecaiman_1_1motion__correction.html#a9c4d6e518f42c395cb58a08d2ff21f45" target="_top" xlink:title="tile_and_correct_wrapper">
<polygon fill="white" stroke="black" points="261.312,-0.5 261.312,-18.5 390.154,-18.5 390.154,-0.5 261.312,-0.5"/>
<text text-anchor="middle" x="325.733" y="-6.5" font-family="Helvetica,sans-Serif" font-size="10.00">tile_and_correct_wrapper</text>
</a>
</g>
</g>
<!-- Node111&#45;&gt;Node115 -->
<g id="edge7" class="edge"><title>Node111&#45;&gt;Node115</title>
<path fill="none" stroke="midnightblue" d="M222.016,-39.6449C244.709,-32.9849 272.6,-24.7998 293.589,-18.6401"/>
<polygon fill="midnightblue" stroke="midnightblue" points="220.931,-36.3155 212.321,-42.4899 222.902,-43.0323 220.931,-36.3155"/>
</g>
<!-- Node114&#45;&gt;Node111 -->
<g id="edge6" class="edge"><title>Node114&#45;&gt;Node111</title>
<path fill="none" stroke="midnightblue" d="M260.108,-58.2218C248.061,-58.3202 235.751,-58.1613 224.559,-57.7453"/>
<polygon fill="midnightblue" stroke="midnightblue" points="260.185,-61.7211 270.134,-58.0786 260.085,-54.7218 260.185,-61.7211"/>
</g>
</g>
</svg>
