<?xml version="1.0" encoding="UTF-8" standalone="no"?>
<!DOCTYPE svg PUBLIC "-//W3C//DTD SVG 1.1//EN"
 "http://www.w3.org/Graphics/SVG/1.1/DTD/svg11.dtd">
<!-- Generated by graphviz version 2.38.0 (20140413.2041)
 -->
<!-- Title: extract_patch_coordinates Pages: 1 -->
<svg width="354pt" height="148pt"
 viewBox="0.00 0.00 353.92 148.00" xmlns="http://www.w3.org/2000/svg" xmlns:xlink="http://www.w3.org/1999/xlink">
<g id="graph0" class="graph" transform="scale(1 1) rotate(0) translate(4 144)">
<title>extract_patch_coordinates</title>
<polygon fill="white" stroke="none" points="-4,4 -4,-144 349.92,-144 349.92,4 -4,4"/>
<!-- Node4 -->
<g id="node1" class="node"><title>Node4</title>
<polygon fill="#bfbfbf" stroke="black" points="0,-65.5 0,-83.5 133.295,-83.5 133.295,-65.5 0,-65.5"/>
<text text-anchor="middle" x="66.6475" y="-71.5" font-family="Helvetica,sans-Serif" font-size="10.00">extract_patch_coordinates</text>
</g>
<!-- Node5 -->
<g id="node2" class="node"><title>Node5</title>
<g id="a_node2"><a xlink:href="namespacecaiman_1_1cluster.html#a37de3dc274656637965b654ffc856e2f" target="_top" xlink:title="get_patches_from_image">
<polygon fill="white" stroke="black" points="193.184,-121.5 193.184,-139.5 322.031,-139.5 322.031,-121.5 193.184,-121.5"/>
<text text-anchor="middle" x="257.607" y="-127.5" font-family="Helvetica,sans-Serif" font-size="10.00">get_patches_from_image</text>
</a>
</g>
</g>
<!-- Node4&#45;&gt;Node5 -->
<g id="edge1" class="edge"><title>Node4&#45;&gt;Node5</title>
<path fill="none" stroke="midnightblue" d="M98.6166,-87.5011C118.541,-95.5088 145.135,-105.539 169.295,-112.5 181.044,-115.885 193.856,-118.895 205.957,-121.439"/>
<polygon fill="midnightblue" stroke="midnightblue" points="99.7144,-84.1691 89.1327,-83.6402 97.0749,-90.6525 99.7144,-84.1691"/>
</g>
<!-- Node6 -->
<g id="node3" class="node"><title>Node6</title>
<g id="a_node3"><a xlink:href="namespacecaiman_1_1cluster.html#a3114f02c5f8ee0d53d6c818d3ee69e2c" target="_top" xlink:title="extract_rois_patch">
<polygon fill="white" stroke="black" points="208.753,-84.5 208.753,-102.5 306.462,-102.5 306.462,-84.5 208.753,-84.5"/>
<text text-anchor="middle" x="257.607" y="-90.5" font-family="Helvetica,sans-Serif" font-size="10.00">extract_rois_patch</text>
</a>
</g>
</g>
<!-- Node4&#45;&gt;Node6 -->
<g id="edge2" class="edge"><title>Node4&#45;&gt;Node6</title>
<path fill="none" stroke="midnightblue" d="M143.452,-82.1221C165.428,-84.3319 188.809,-86.6828 208.577,-88.6706"/>
<polygon fill="midnightblue" stroke="midnightblue" points="143.771,-78.6367 133.471,-81.1186 143.071,-85.6016 143.771,-78.6367"/>
</g>
<!-- Node7 -->
<g id="node4" class="node"><title>Node7</title>
<g id="a_node4"><a xlink:href="namespacecaiman_1_1cluster.html#a225b519413ba9700997a06cfa2469ff4" target="_top" xlink:title="apply function to patches in parallel or not ">
<polygon fill="white" stroke="black" points="215.691,-47.5 215.691,-65.5 299.523,-65.5 299.523,-47.5 215.691,-47.5"/>
<text text-anchor="middle" x="257.607" y="-53.5" font-family="Helvetica,sans-Serif" font-size="10.00">apply_to_patch</text>
</a>
</g>
</g>
<!-- Node4&#45;&gt;Node7 -->
<g id="edge3" class="edge"><title>Node4&#45;&gt;Node7</title>
<path fill="none" stroke="midnightblue" d="M143.513,-67.2732C168.094,-64.9317 194.424,-62.4234 215.489,-60.4168"/>
<polygon fill="midnightblue" stroke="midnightblue" points="143.094,-63.7971 133.471,-68.2297 143.758,-70.7656 143.094,-63.7971"/>
</g>
<!-- Node8 -->
<g id="node5" class="node"><title>Node8</title>
<g id="a_node5"><a xlink:href="namespacecaiman_1_1source__extraction_1_1cnmf_1_1map__reduce.html#affc25cb11b12edae4343574054636eee" target="_top" xlink:title="Function that runs CNMF in patches, either in parallel or sequentiually, and return the result for ea...">
<polygon fill="white" stroke="black" points="169.295,-0.5 169.295,-28.5 345.92,-28.5 345.92,-0.5 169.295,-0.5"/>
<text text-anchor="start" x="177.295" y="-16.5" font-family="Helvetica,sans-Serif" font-size="10.00">caiman.source_extraction.cnmf.map</text>
<text text-anchor="middle" x="257.607" y="-6.5" font-family="Helvetica,sans-Serif" font-size="10.00">_reduce.run_CNMF_patches</text>
</a>
</g>
</g>
<!-- Node4&#45;&gt;Node8 -->
<g id="edge4" class="edge"><title>Node4&#45;&gt;Node8</title>
<path fill="none" stroke="midnightblue" d="M101.177,-61.9393C120.894,-54.7254 146.376,-45.6983 169.295,-38.5 180.094,-35.1084 191.725,-31.7262 202.866,-28.6163"/>
<polygon fill="midnightblue" stroke="midnightblue" points="99.8916,-58.6827 91.7172,-65.4228 102.311,-65.2515 99.8916,-58.6827"/>
</g>
</g>
</svg>
