<?xml version="1.0" encoding="UTF-8" standalone="no"?>
<!DOCTYPE svg PUBLIC "-//W3C//DTD SVG 1.1//EN"
 "http://www.w3.org/Graphics/SVG/1.1/DTD/svg11.dtd">
<!-- Generated by graphviz version 2.38.0 (20140413.2041)
 -->
<!-- Title: _hsm Pages: 1 -->
<!--zoomable 84 -->
<svg id="main" version="1.1" xmlns="http://www.w3.org/2000/svg" xmlns:xlink="http://www.w3.org/1999/xlink" xml:space="preserve" onload="init(evt)">
<style type="text/css"><![CDATA[
.edge:hover path { stroke: red; }
.edge:hover polygon { stroke: red; fill: red; }
]]></style>
<script type="text/javascript"><![CDATA[
var edges = document.getElementsByTagName('g');
if (edges && edges.length) {
  for (var i=0;i<edges.length;i++) {
    if (edges[i].id.substr(0,4)=='edge') {
      edges[i].setAttribute('class','edge');
    }
  }
}
]]></script>
        <defs>
                <circle id="rim" cx="0" cy="0" r="7"/>
                <circle id="rim2" cx="0" cy="0" r="3.5"/>
                <g id="zoomPlus">
                        <use xlink:href="#rim" fill="#404040">
                                <set attributeName="fill" to="#808080" begin="zoomplus.mouseover" end="zoomplus.mouseout"/>
                        </use>
                        <path d="M-4,0h8M0,-4v8" fill="none" stroke="white" stroke-width="1.5" pointer-events="none"/>
                </g>
                <g id="zoomMin">
                        <use xlink:href="#rim" fill="#404040">
                                <set attributeName="fill" to="#808080" begin="zoomminus.mouseover" end="zoomminus.mouseout"/>
                        </use>
                        <path d="M-4,0h8" fill="none" stroke="white" stroke-width="1.5" pointer-events="none"/>
                </g>
                <g id="dirArrow">
                        <path fill="none" stroke="white" stroke-width="1.5" d="M0,-3.0v7 M-2.5,-0.5L0,-3.0L2.5,-0.5"/>
                </g>
               <g id="resetDef">
                       <use xlink:href="#rim2" fill="#404040">
                               <set attributeName="fill" to="#808080" begin="reset.mouseover" end="reset.mouseout"/>
                       </use>
               </g>
        </defs>

<script type="text/javascript">
var viewWidth = 881;
var viewHeight = 84;
var sectionId = 'dynsection-0';
</script>
<script xlink:href="svgpan.js"/>
<svg id="graph" class="graph">
<g id="viewport">
<title>_hsm</title>
<polygon fill="white" stroke="none" points="-4,4 -4,-80 876.726,-80 876.726,4 -4,4"/>
<!-- Node1 -->
<g id="node1" class="node"><title>Node1</title>
<polygon fill="#bfbfbf" stroke="black" points="0,-28.5 0,-46.5 40.4531,-46.5 40.4531,-28.5 0,-28.5"/>
<text text-anchor="middle" x="20.2266" y="-34.5" font-family="Helvetica,sans-Serif" font-size="10.00">_hsm</text>
</g>
<!-- Node2 -->
<g id="node2" class="node"><title>Node2</title>
<g id="a_node2"><a xlink:href="namespacecaiman_1_1utils_1_1stats.html#ad89811d5260ec000aff655f547770d16" target="_top" xlink:title="Robust estimator of the mode of a data set using the half&#45;sample mode. ">
<polygon fill="white" stroke="black" points="76.4531,-47.5 76.4531,-65.5 172.502,-65.5 172.502,-47.5 76.4531,-47.5"/>
<text text-anchor="middle" x="124.478" y="-53.5" font-family="Helvetica,sans-Serif" font-size="10.00">mode_robust_fast</text>
</a>
</g>
</g>
<!-- Node1&#45;&gt;Node2 -->
<g id="edge1" class="edge"><title>Node1&#45;&gt;Node2</title>
<path fill="none" stroke="midnightblue" d="M50.4598,-42.932C58.5275,-44.4312 67.4918,-46.0969 76.299,-47.7334"/>
<polygon fill="midnightblue" stroke="midnightblue" points="50.9303,-39.4596 40.4592,-41.0738 49.6515,-46.3418 50.9303,-39.4596"/>
</g>
<!-- Node7 -->
<g id="node7" class="node"><title>Node7</title>
<g id="a_node7"><a xlink:href="namespacecaiman_1_1utils_1_1stats.html#ad63c9de399766045f2623d9ec6653709" target="_top" xlink:title="Robust estimator of the mode of a data set using the half&#45;sample mode. ">
<polygon fill="white" stroke="black" points="87.293,-10.5 87.293,-28.5 161.662,-28.5 161.662,-10.5 87.293,-10.5"/>
<text text-anchor="middle" x="124.478" y="-16.5" font-family="Helvetica,sans-Serif" font-size="10.00">mode_robust</text>
</a>
</g>
</g>
<!-- Node1&#45;&gt;Node7 -->
<g id="edge6" class="edge"><title>Node1&#45;&gt;Node7</title>
<path fill="none" stroke="midnightblue" d="M50.3301,-32.3767C61.7237,-30.371 74.9212,-28.0477 86.9438,-25.9313"/>
<polygon fill="midnightblue" stroke="midnightblue" points="49.7009,-28.9335 40.4592,-34.1143 50.9146,-35.8275 49.7009,-28.9335"/>
</g>
<!-- Node3 -->
<g id="node3" class="node"><title>Node3</title>
<g id="a_node3"><a xlink:href="namespacecaiman_1_1components__evaluation.html#a115ea8d0f9c41cb31cb7fe05535f65f7" target="_top" xlink:title="estimate the noise in the traces under assumption that signals are sparse and only positive...">
<polygon fill="white" stroke="black" points="208.783,-47.5 208.783,-75.5 405.999,-75.5 405.999,-47.5 208.783,-47.5"/>
<text text-anchor="start" x="216.783" y="-63.5" font-family="Helvetica,sans-Serif" font-size="10.00">caiman.components_evaluation.estimate</text>
<text text-anchor="middle" x="307.391" y="-53.5" font-family="Helvetica,sans-Serif" font-size="10.00">_noise_mode</text>
</a>
</g>
</g>
<!-- Node2&#45;&gt;Node3 -->
<g id="edge2" class="edge"><title>Node2&#45;&gt;Node3</title>
<path fill="none" stroke="midnightblue" d="M182.797,-58.0842C191.099,-58.3136 199.833,-58.555 208.661,-58.799"/>
<polygon fill="midnightblue" stroke="midnightblue" points="182.631,-54.5783 172.538,-57.8006 182.438,-61.5757 182.631,-54.5783"/>
</g>
<!-- Node4 -->
<g id="node4" class="node"><title>Node4</title>
<g id="a_node4"><a xlink:href="namespacecaiman_1_1components__evaluation.html#a967e8c445c84976814609f9c120153a2" target="_top" xlink:title="caiman.components_evaluation.compute\l_event_exceptionality">
<polygon fill="white" stroke="black" points="208.502,-0.5 208.502,-28.5 406.279,-28.5 406.279,-0.5 208.502,-0.5"/>
<text text-anchor="start" x="216.502" y="-16.5" font-family="Helvetica,sans-Serif" font-size="10.00">caiman.components_evaluation.compute</text>
<text text-anchor="middle" x="307.391" y="-6.5" font-family="Helvetica,sans-Serif" font-size="10.00">_event_exceptionality</text>
</a>
</g>
</g>
<!-- Node2&#45;&gt;Node4 -->
<g id="edge3" class="edge"><title>Node2&#45;&gt;Node4</title>
<path fill="none" stroke="midnightblue" d="M174.114,-45.2088C196.21,-40.079 222.576,-33.9581 245.932,-28.5358"/>
<polygon fill="midnightblue" stroke="midnightblue" points="173.237,-41.8191 164.288,-47.4899 174.82,-48.6378 173.237,-41.8191"/>
</g>
<!-- Node5 -->
<g id="node5" class="node"><title>Node5</title>
<g id="a_node5"><a xlink:href="namespacecaiman_1_1components__evaluation.html#ad2a8435be788c8e75130e41f884adb0f" target="_top" xlink:title="Define a metric and order components according to the probabilty if some &quot;exceptional events&quot; (like a...">
<polygon fill="white" stroke="black" points="442.279,-0.5 442.279,-28.5 639.51,-28.5 639.51,-0.5 442.279,-0.5"/>
<text text-anchor="start" x="450.279" y="-16.5" font-family="Helvetica,sans-Serif" font-size="10.00">caiman.components_evaluation.evaluate</text>
<text text-anchor="middle" x="540.895" y="-6.5" font-family="Helvetica,sans-Serif" font-size="10.00">_components</text>
</a>
</g>
</g>
<!-- Node4&#45;&gt;Node5 -->
<g id="edge4" class="edge"><title>Node4&#45;&gt;Node5</title>
<path fill="none" stroke="midnightblue" d="M416.771,-14.5C425.166,-14.5 433.613,-14.5 441.934,-14.5"/>
<polygon fill="midnightblue" stroke="midnightblue" points="416.569,-11.0001 406.569,-14.5 416.569,-18.0001 416.569,-11.0001"/>
</g>
<!-- Node6 -->
<g id="node6" class="node"><title>Node6</title>
<g id="a_node6"><a xlink:href="namespacecaiman_1_1components__evaluation.html#a57b89e19503abe333d5767d462266e7a" target="_top" xlink:title="caiman.components_evaluation.estimate\l_components_quality">
<polygon fill="white" stroke="black" points="675.51,-0.5 675.51,-28.5 872.726,-28.5 872.726,-0.5 675.51,-0.5"/>
<text text-anchor="start" x="683.51" y="-16.5" font-family="Helvetica,sans-Serif" font-size="10.00">caiman.components_evaluation.estimate</text>
<text text-anchor="middle" x="774.118" y="-6.5" font-family="Helvetica,sans-Serif" font-size="10.00">_components_quality</text>
</a>
</g>
</g>
<!-- Node5&#45;&gt;Node6 -->
<g id="edge5" class="edge"><title>Node5&#45;&gt;Node6</title>
<path fill="none" stroke="midnightblue" d="M649.652,-14.5C658.231,-14.5 666.868,-14.5 675.372,-14.5"/>
<polygon fill="midnightblue" stroke="midnightblue" points="649.619,-11.0001 639.619,-14.5 649.619,-18.0001 649.619,-11.0001"/>
</g>
<!-- Node7&#45;&gt;Node3 -->
<g id="edge7" class="edge"><title>Node7&#45;&gt;Node3</title>
<path fill="none" stroke="midnightblue" d="M172.067,-30.3161C194.582,-35.543 221.881,-41.8805 245.972,-47.4736"/>
<polygon fill="midnightblue" stroke="midnightblue" points="172.62,-26.8515 162.088,-27.9993 171.037,-33.6701 172.62,-26.8515"/>
</g>
<!-- Node7&#45;&gt;Node4 -->
<g id="edge8" class="edge"><title>Node7&#45;&gt;Node4</title>
<path fill="none" stroke="midnightblue" d="M172.41,-18.2029C183.58,-17.8942 195.913,-17.5533 208.439,-17.2072"/>
<polygon fill="midnightblue" stroke="midnightblue" points="171.987,-14.7131 162.088,-18.4882 172.181,-21.7105 171.987,-14.7131"/>
</g>
</g>
</svg>
        <g id="navigator" transform="translate(0 0)" fill="#404254">
                <rect fill="#f2f5e9" fill-opacity="0.5" stroke="#606060" stroke-width=".5" x="0" y="0" width="60" height="60"/>
                <use id="zoomplus" xlink:href="#zoomPlus" x="17" y="9" onmousedown="handleZoom(evt,'in')"/>
                <use id="zoomminus" xlink:href="#zoomMin" x="42" y="9" onmousedown="handleZoom(evt,'out')"/>
                <use id="reset" xlink:href="#resetDef" x="30" y="36" onmousedown="handleReset()"/>
                <g id="arrowUp" xlink:href="#dirArrow" transform="translate(30 24)" onmousedown="handlePan(0,-1)">
                  <use xlink:href="#rim" fill="#404040">
                        <set attributeName="fill" to="#808080" begin="arrowUp.mouseover" end="arrowUp.mouseout"/>
                  </use>
                  <path fill="none" stroke="white" stroke-width="1.5" d="M0,-3.0v7 M-2.5,-0.5L0,-3.0L2.5,-0.5"/>
                </g>
                <g id="arrowRight" xlink:href="#dirArrow" transform="rotate(90) translate(36 -43)" onmousedown="handlePan(1,0)">
                  <use xlink:href="#rim" fill="#404040">
                        <set attributeName="fill" to="#808080" begin="arrowRight.mouseover" end="arrowRight.mouseout"/>
                  </use>
                  <path fill="none" stroke="white" stroke-width="1.5" d="M0,-3.0v7 M-2.5,-0.5L0,-3.0L2.5,-0.5"/>
                </g>
                <g id="arrowDown" xlink:href="#dirArrow" transform="rotate(180) translate(-30 -48)" onmousedown="handlePan(0,1)">
                  <use xlink:href="#rim" fill="#404040">
                        <set attributeName="fill" to="#808080" begin="arrowDown.mouseover" end="arrowDown.mouseout"/>
                  </use>
                  <path fill="none" stroke="white" stroke-width="1.5" d="M0,-3.0v7 M-2.5,-0.5L0,-3.0L2.5,-0.5"/>
                </g>
                <g id="arrowLeft" xlink:href="#dirArrow" transform="rotate(270) translate(-36 17)" onmousedown="handlePan(-1,0)">
                  <use xlink:href="#rim" fill="#404040">
                        <set attributeName="fill" to="#808080" begin="arrowLeft.mouseover" end="arrowLeft.mouseout"/>
                  </use>
                  <path fill="none" stroke="white" stroke-width="1.5" d="M0,-3.0v7 M-2.5,-0.5L0,-3.0L2.5,-0.5"/>
                </g>
        </g>
        <svg viewBox="0 0 15 15" width="100%" height="30px" preserveAspectRatio="xMaxYMin meet">
         <g id="arrow_out" transform="scale(0.3 0.3)">
          <a xlink:href="namespacecaiman_1_1utils_1_1stats_a55b174a1921dc0c54b644979bc3b429a_icgraph_org.svg" target="_base">
           <rect id="button" ry="5" rx="5" y="6" x="6" height="38" width="38"
                fill="#f2f5e9" fill-opacity="0.5" stroke="#606060" stroke-width="1.0"/>
           <path id="arrow"
             d="M 11.500037,31.436501 C 11.940474,20.09759 22.043105,11.32322 32.158766,21.979434 L 37.068811,17.246167 C 37.068811,17.246167 37.088388,32 37.088388,32 L 22.160133,31.978069 C 22.160133,31.978069 26.997745,27.140456 26.997745,27.140456 C 18.528582,18.264221 13.291696,25.230495 11.500037,31.436501 z"
             style="fill:#404040;"/>
          </a>
         </g>
        </svg>
</svg>
