<?xml version="1.0" encoding="UTF-8" standalone="no"?>
<!DOCTYPE svg PUBLIC "-//W3C//DTD SVG 1.1//EN"
 "http://www.w3.org/Graphics/SVG/1.1/DTD/svg11.dtd">
<!-- Generated by graphviz version 2.38.0 (20140413.2041)
 -->
<!-- Title: extract_binary_masks_blob_parallel_place_holder Pages: 1 -->
<svg width="295pt" height="47pt"
 viewBox="0.00 0.00 294.99 47.00" xmlns="http://www.w3.org/2000/svg" xmlns:xlink="http://www.w3.org/1999/xlink">
<g id="graph0" class="graph" transform="scale(1 1) rotate(0) translate(4 43)">
<title>extract_binary_masks_blob_parallel_place_holder</title>
<polygon fill="white" stroke="none" points="-4,4 -4,-43 290.989,-43 290.989,4 -4,4"/>
<!-- Node21 -->
<g id="node1" class="node"><title>Node21</title>
<polygon fill="#bfbfbf" stroke="black" points="0,-0.5 0,-38.5 113.261,-38.5 113.261,-0.5 0,-0.5"/>
<text text-anchor="start" x="8" y="-26.5" font-family="Helvetica,sans-Serif" font-size="10.00">extract_binary_masks</text>
<text text-anchor="start" x="8" y="-16.5" font-family="Helvetica,sans-Serif" font-size="10.00">_blob_parallel_place</text>
<text text-anchor="middle" x="56.6304" y="-6.5" font-family="Helvetica,sans-Serif" font-size="10.00">_holder</text>
</g>
<!-- Node22 -->
<g id="node2" class="node"><title>Node22</title>
<g id="a_node2"><a xlink:href="namespacecaiman_1_1base_1_1rois.html#a6c407af6009f8ede225fa785d6bfc040" target="_top" xlink:title="Function to extract masks from data. ">
<polygon fill="white" stroke="black" points="149.261,-10.5 149.261,-28.5 286.989,-28.5 286.989,-10.5 149.261,-10.5"/>
<text text-anchor="middle" x="218.125" y="-16.5" font-family="Helvetica,sans-Serif" font-size="10.00">extract_binary_masks_blob</text>
</a>
</g>
</g>
<!-- Node21&#45;&gt;Node22 -->
<g id="edge1" class="edge"><title>Node21&#45;&gt;Node22</title>
<path fill="none" stroke="midnightblue" d="M113.414,-19.5C121.678,-19.5 130.321,-19.5 138.94,-19.5"/>
<polygon fill="midnightblue" stroke="midnightblue" points="139.022,-23.0001 149.022,-19.5 139.022,-16.0001 139.022,-23.0001"/>
</g>
</g>
</svg>
