<?xml version="1.0" encoding="UTF-8" standalone="no"?>
<!DOCTYPE svg PUBLIC "-//W3C//DTD SVG 1.1//EN"
 "http://www.w3.org/Graphics/SVG/1.1/DTD/svg11.dtd">
<!-- Generated by graphviz version 2.38.0 (20140413.2041)
 -->
<!-- Title: update_temporal_components Pages: 1 -->
<svg width="722pt" height="84pt"
 viewBox="0.00 0.00 721.97 84.00" xmlns="http://www.w3.org/2000/svg" xmlns:xlink="http://www.w3.org/1999/xlink">
<g id="graph0" class="graph" transform="scale(1 1) rotate(0) translate(4 80)">
<title>update_temporal_components</title>
<polygon fill="white" stroke="none" points="-4,4 -4,-80 717.968,-80 717.968,4 -4,4"/>
<!-- Node15 -->
<g id="node1" class="node"><title>Node15</title>
<polygon fill="#bfbfbf" stroke="black" points="0,-28.5 0,-46.5 151.093,-46.5 151.093,-28.5 0,-28.5"/>
<text text-anchor="middle" x="75.5464" y="-34.5" font-family="Helvetica,sans-Serif" font-size="10.00">update_temporal_components</text>
</g>
<!-- Node16 -->
<g id="node2" class="node"><title>Node16</title>
<g id="a_node2"><a xlink:href="namespacecaiman_1_1mmapping.html#aa75ec735ea507b2ce7eb0e0bd33d2ba3" target="_top" xlink:title="Chunk matrix product between matrix and column vectors A memory mapped ndarray pixels x time b time x...">
<polygon fill="white" stroke="black" points="231.282,-47.5 231.282,-75.5 364.006,-75.5 364.006,-47.5 231.282,-47.5"/>
<text text-anchor="start" x="239.282" y="-63.5" font-family="Helvetica,sans-Serif" font-size="10.00">caiman.mmapping.parallel</text>
<text text-anchor="middle" x="297.644" y="-53.5" font-family="Helvetica,sans-Serif" font-size="10.00">_dot_product</text>
</a>
</g>
</g>
<!-- Node15&#45;&gt;Node16 -->
<g id="edge1" class="edge"><title>Node15&#45;&gt;Node16</title>
<path fill="none" stroke="midnightblue" d="M151.369,-45.6588C173.847,-48.1099 198.518,-50.8001 221.047,-53.2567"/>
<polygon fill="midnightblue" stroke="midnightblue" points="220.911,-56.7625 231.231,-54.3672 221.67,-49.8038 220.911,-56.7625"/>
</g>
<!-- Node19 -->
<g id="node5" class="node"><title>Node19</title>
<g id="a_node5"><a xlink:href="namespacecaiman_1_1source__extraction_1_1cnmf_1_1utilities.html#aa1b3d1b8495a6d9dcecf91484544babb" target="_top" xlink:title="Determines the update order of the temporal components given the spatial components using a greedy me...">
<polygon fill="white" stroke="black" points="187.093,-0.5 187.093,-28.5 408.195,-28.5 408.195,-0.5 187.093,-0.5"/>
<text text-anchor="start" x="195.093" y="-16.5" font-family="Helvetica,sans-Serif" font-size="10.00">caiman.source_extraction.cnmf.utilities.update</text>
<text text-anchor="middle" x="297.644" y="-6.5" font-family="Helvetica,sans-Serif" font-size="10.00">_order_greedy</text>
</a>
</g>
</g>
<!-- Node15&#45;&gt;Node19 -->
<g id="edge4" class="edge"><title>Node15&#45;&gt;Node19</title>
<path fill="none" stroke="midnightblue" d="M151.369,-29.6812C159.609,-28.82 168.144,-27.9281 176.761,-27.0277"/>
<polygon fill="midnightblue" stroke="midnightblue" points="177.318,-30.4886 186.9,-25.9682 176.59,-23.5265 177.318,-30.4886"/>
</g>
<!-- Node17 -->
<g id="node3" class="node"><title>Node17</title>
<g id="a_node3"><a xlink:href="namespacecaiman_1_1mmapping.html#a14d47c076020d7d3adf2599ed3354e4b" target="_top" xlink:title="caiman.mmapping.dot\l_place_holder">
<polygon fill="white" stroke="black" points="444.195,-47.5 444.195,-75.5 558.579,-75.5 558.579,-47.5 444.195,-47.5"/>
<text text-anchor="start" x="452.195" y="-63.5" font-family="Helvetica,sans-Serif" font-size="10.00">caiman.mmapping.dot</text>
<text text-anchor="middle" x="501.387" y="-53.5" font-family="Helvetica,sans-Serif" font-size="10.00">_place_holder</text>
</a>
</g>
</g>
<!-- Node16&#45;&gt;Node17 -->
<g id="edge2" class="edge"><title>Node16&#45;&gt;Node17</title>
<path fill="none" stroke="midnightblue" d="M364.144,-61.5C386.494,-61.5 411.495,-61.5 433.92,-61.5"/>
<polygon fill="midnightblue" stroke="midnightblue" points="434.023,-65.0001 444.023,-61.5 434.023,-58.0001 434.023,-65.0001"/>
</g>
<!-- Node18 -->
<g id="node4" class="node"><title>Node18</title>
<g id="a_node4"><a xlink:href="namespacecaiman_1_1mmapping.html#aeb2ed62e4a9028089a2eec09d392707f" target="_top" xlink:title="Load a memory mapped file created by the function save_memmap. ">
<polygon fill="white" stroke="black" points="594.579,-47.5 594.579,-75.5 713.968,-75.5 713.968,-47.5 594.579,-47.5"/>
<text text-anchor="start" x="602.579" y="-63.5" font-family="Helvetica,sans-Serif" font-size="10.00">caiman.mmapping.load</text>
<text text-anchor="middle" x="654.273" y="-53.5" font-family="Helvetica,sans-Serif" font-size="10.00">_memmap</text>
</a>
</g>
</g>
<!-- Node17&#45;&gt;Node18 -->
<g id="edge3" class="edge"><title>Node17&#45;&gt;Node18</title>
<path fill="none" stroke="midnightblue" d="M559.001,-61.5C567.205,-61.5 575.727,-61.5 584.143,-61.5"/>
<polygon fill="midnightblue" stroke="midnightblue" points="584.328,-65.0001 594.327,-61.5 584.327,-58.0001 584.328,-65.0001"/>
</g>
</g>
</svg>
