<?xml version="1.0" encoding="UTF-8" standalone="no"?>
<!DOCTYPE svg PUBLIC "-//W3C//DTD SVG 1.1//EN"
 "http://www.w3.org/Graphics/SVG/1.1/DTD/svg11.dtd">
<!-- Generated by graphviz version 2.38.0 (20140413.2041)
 -->
<!-- Title: loadmat_sbx Pages: 1 -->
<svg width="390pt" height="101pt"
 viewBox="0.00 0.00 389.58 101.00" xmlns="http://www.w3.org/2000/svg" xmlns:xlink="http://www.w3.org/1999/xlink">
<g id="graph0" class="graph" transform="scale(1 1) rotate(0) translate(4 97)">
<title>loadmat_sbx</title>
<polygon fill="white" stroke="none" points="-4,4 -4,-97 385.575,-97 385.575,4 -4,4"/>
<!-- Node41 -->
<g id="node1" class="node"><title>Node41</title>
<polygon fill="#bfbfbf" stroke="black" points="0,-37.5 0,-55.5 72.6992,-55.5 72.6992,-37.5 0,-37.5"/>
<text text-anchor="middle" x="36.3496" y="-43.5" font-family="Helvetica,sans-Serif" font-size="10.00">loadmat_sbx</text>
</g>
<!-- Node42 -->
<g id="node2" class="node"><title>Node42</title>
<g id="a_node2"><a xlink:href="namespacecaiman_1_1base_1_1movies.html#ad72bfc8cc5386d4470caa0be723598e9" target="_top" xlink:title="Input filename should be full path excluding .sbx. ">
<polygon fill="white" stroke="black" points="117.591,-74.5 117.591,-92.5 169.167,-92.5 169.167,-74.5 117.591,-74.5"/>
<text text-anchor="middle" x="143.379" y="-80.5" font-family="Helvetica,sans-Serif" font-size="10.00">sbxread</text>
</a>
</g>
</g>
<!-- Node41&#45;&gt;Node42 -->
<g id="edge1" class="edge"><title>Node41&#45;&gt;Node42</title>
<path fill="none" stroke="midnightblue" d="M72.7802,-58.9816C87.3961,-64.1305 103.993,-69.9775 117.314,-74.6699"/>
<polygon fill="midnightblue" stroke="midnightblue" points="73.6375,-55.5728 63.0427,-55.5512 71.3116,-62.1751 73.6375,-55.5728"/>
</g>
<!-- Node45 -->
<g id="node5" class="node"><title>Node45</title>
<g id="a_node5"><a xlink:href="namespacecaiman_1_1base_1_1movies.html#ad9b115e435b36308da1248112f09f0db" target="_top" xlink:title="Input filename should be full path excluding .sbx. ">
<polygon fill="white" stroke="black" points="108.699,-37.5 108.699,-55.5 178.059,-55.5 178.059,-37.5 108.699,-37.5"/>
<text text-anchor="middle" x="143.379" y="-43.5" font-family="Helvetica,sans-Serif" font-size="10.00">sbxreadskip</text>
</a>
</g>
</g>
<!-- Node41&#45;&gt;Node45 -->
<g id="edge5" class="edge"><title>Node41&#45;&gt;Node45</title>
<path fill="none" stroke="midnightblue" d="M83.1642,-46.5C91.7219,-46.5 100.521,-46.5 108.632,-46.5"/>
<polygon fill="midnightblue" stroke="midnightblue" points="82.9078,-43.0001 72.9077,-46.5 82.9077,-50.0001 82.9078,-43.0001"/>
</g>
<!-- Node46 -->
<g id="node6" class="node"><title>Node46</title>
<g id="a_node6"><a xlink:href="namespacecaiman_1_1base_1_1movies.html#ade25f5174c4fa7d04d35b42a01f15803" target="_top" xlink:title="Input filename should be full path excluding .sbx. ">
<polygon fill="white" stroke="black" points="113.975,-0.5 113.975,-18.5 172.783,-18.5 172.783,-0.5 113.975,-0.5"/>
<text text-anchor="middle" x="143.379" y="-6.5" font-family="Helvetica,sans-Serif" font-size="10.00">sbxshape</text>
</a>
</g>
</g>
<!-- Node41&#45;&gt;Node46 -->
<g id="edge7" class="edge"><title>Node41&#45;&gt;Node46</title>
<path fill="none" stroke="midnightblue" d="M72.6314,-34.0708C87.0191,-29.0023 103.348,-23.25 116.587,-18.586"/>
<polygon fill="midnightblue" stroke="midnightblue" points="71.3116,-30.8249 63.0427,-37.4488 73.6375,-37.4272 71.3116,-30.8249"/>
</g>
<!-- Node43 -->
<g id="node3" class="node"><title>Node43</title>
<g id="a_node3"><a xlink:href="namespacecaiman_1_1base_1_1movies.html#a6d585c260307278135a0b4b09440b313" target="_top" xlink:title="load movie from file. ">
<polygon fill="white" stroke="black" points="214.059,-55.5 214.059,-73.5 248.965,-73.5 248.965,-55.5 214.059,-55.5"/>
<text text-anchor="middle" x="231.512" y="-61.5" font-family="Helvetica,sans-Serif" font-size="10.00">load</text>
</a>
</g>
</g>
<!-- Node42&#45;&gt;Node43 -->
<g id="edge2" class="edge"><title>Node42&#45;&gt;Node43</title>
<path fill="none" stroke="midnightblue" d="M179.066,-75.8483C191.057,-73.2033 203.949,-70.3595 213.828,-68.1803"/>
<polygon fill="midnightblue" stroke="midnightblue" points="178.303,-72.4324 169.292,-78.0044 179.811,-79.2681 178.303,-72.4324"/>
</g>
<!-- Node44 -->
<g id="node4" class="node"><title>Node44</title>
<g id="a_node4"><a xlink:href="namespacecaiman_1_1base_1_1movies.html#a5a35758b31edb4a9b2105a058a0882a6" target="_top" xlink:title="load movies from list of file names ">
<polygon fill="white" stroke="black" points="284.965,-55.5 284.965,-73.5 381.575,-73.5 381.575,-55.5 284.965,-55.5"/>
<text text-anchor="middle" x="333.27" y="-61.5" font-family="Helvetica,sans-Serif" font-size="10.00">load_movie_chain</text>
</a>
</g>
</g>
<!-- Node43&#45;&gt;Node44 -->
<g id="edge3" class="edge"><title>Node43&#45;&gt;Node44</title>
<path fill="none" stroke="midnightblue" d="M259.058,-58.4547C266.982,-57.9388 275.921,-57.7062 284.76,-57.7568"/>
<polygon fill="midnightblue" stroke="midnightblue" points="258.643,-54.9775 248.985,-59.3337 259.251,-61.951 258.643,-54.9775"/>
</g>
<!-- Node44&#45;&gt;Node43 -->
<g id="edge4" class="edge"><title>Node44&#45;&gt;Node43</title>
<path fill="none" stroke="midnightblue" d="M274.534,-71.175C265.188,-70.9953 256.219,-70.4924 248.985,-69.6663"/>
<polygon fill="midnightblue" stroke="midnightblue" points="274.737,-74.6763 284.76,-71.2432 274.784,-67.6765 274.737,-74.6763"/>
</g>
<!-- Node45&#45;&gt;Node43 -->
<g id="edge6" class="edge"><title>Node45&#45;&gt;Node43</title>
<path fill="none" stroke="midnightblue" d="M188.3,-55.6786C197.458,-57.5924 206.564,-59.4955 213.962,-61.0414"/>
<polygon fill="midnightblue" stroke="midnightblue" points="188.925,-52.2338 178.421,-53.6141 187.493,-59.0857 188.925,-52.2338"/>
</g>
</g>
</svg>
