<?xml version="1.0" encoding="UTF-8" standalone="no"?>
<!DOCTYPE svg PUBLIC "-//W3C//DTD SVG 1.1//EN"
 "http://www.w3.org/Graphics/SVG/1.1/DTD/svg11.dtd">
<!-- Generated by graphviz version 2.38.0 (20140413.2041)
 -->
<!-- Title: motion_correction_piecewise Pages: 1 -->
<svg width="466pt" height="74pt"
 viewBox="0.00 0.00 465.96 74.00" xmlns="http://www.w3.org/2000/svg" xmlns:xlink="http://www.w3.org/1999/xlink">
<g id="graph0" class="graph" transform="scale(1 1) rotate(0) translate(4 70)">
<title>motion_correction_piecewise</title>
<polygon fill="white" stroke="none" points="-4,4 -4,-70 461.959,-70 461.959,4 -4,4"/>
<!-- Node100 -->
<g id="node1" class="node"><title>Node100</title>
<polygon fill="#bfbfbf" stroke="black" points="0,-21.5 0,-39.5 144.955,-39.5 144.955,-21.5 0,-21.5"/>
<text text-anchor="middle" x="72.4775" y="-27.5" font-family="Helvetica,sans-Serif" font-size="10.00">motion_correction_piecewise</text>
</g>
<!-- Node101 -->
<g id="node2" class="node"><title>Node101</title>
<g id="a_node2"><a xlink:href="namespacecaiman_1_1motion__correction.html#a29956f4cd15f5c59388862472d370986" target="_top" xlink:title="Function that perform memory efficient hyper parallelized rigid motion corrections while also saving ...">
<polygon fill="white" stroke="black" points="189.295,-37.5 189.295,-65.5 301.457,-65.5 301.457,-37.5 189.295,-37.5"/>
<text text-anchor="start" x="197.295" y="-53.5" font-family="Helvetica,sans-Serif" font-size="10.00">motion_correct_batch</text>
<text text-anchor="middle" x="245.376" y="-43.5" font-family="Helvetica,sans-Serif" font-size="10.00">_pwrigid</text>
</a>
</g>
</g>
<!-- Node100&#45;&gt;Node101 -->
<g id="edge1" class="edge"><title>Node100&#45;&gt;Node101</title>
<path fill="none" stroke="midnightblue" d="M155.039,-40.5223C166.556,-41.9375 178.167,-43.3643 189.034,-44.6996"/>
<polygon fill="midnightblue" stroke="midnightblue" points="155.316,-37.0301 144.964,-39.2842 154.462,-43.9778 155.316,-37.0301"/>
</g>
<!-- Node103 -->
<g id="node4" class="node"><title>Node103</title>
<g id="a_node4"><a xlink:href="namespacecaiman_1_1motion__correction.html#a9c4d6e518f42c395cb58a08d2ff21f45" target="_top" xlink:title="tile_and_correct_wrapper">
<polygon fill="white" stroke="black" points="180.955,-0.5 180.955,-18.5 309.797,-18.5 309.797,-0.5 180.955,-0.5"/>
<text text-anchor="middle" x="245.376" y="-6.5" font-family="Helvetica,sans-Serif" font-size="10.00">tile_and_correct_wrapper</text>
</a>
</g>
</g>
<!-- Node100&#45;&gt;Node103 -->
<g id="edge3" class="edge"><title>Node100&#45;&gt;Node103</title>
<path fill="none" stroke="midnightblue" d="M155.063,-20.4748C163.705,-19.4128 172.4,-18.3444 180.793,-17.3131"/>
<polygon fill="midnightblue" stroke="midnightblue" points="154.462,-17.0222 144.964,-21.7158 155.316,-23.9699 154.462,-17.0222"/>
</g>
<!-- Node102 -->
<g id="node3" class="node"><title>Node102</title>
<g id="a_node3"><a xlink:href="namespacecaiman_1_1motion__correction.html#aa13476234008dda16f62dc69804dab54" target="_top" xlink:title="Function that perform memory efficient hyper parallelized rigid motion corrections while also saving ...">
<polygon fill="white" stroke="black" points="345.797,-37.5 345.797,-65.5 457.959,-65.5 457.959,-37.5 345.797,-37.5"/>
<text text-anchor="start" x="353.797" y="-53.5" font-family="Helvetica,sans-Serif" font-size="10.00">motion_correct_batch</text>
<text text-anchor="middle" x="401.878" y="-43.5" font-family="Helvetica,sans-Serif" font-size="10.00">_rigid</text>
</a>
</g>
</g>
<!-- Node101&#45;&gt;Node102 -->
<g id="edge2" class="edge"><title>Node101&#45;&gt;Node102</title>
<path fill="none" stroke="midnightblue" d="M311.915,-51.5C323.153,-51.5 334.729,-51.5 345.662,-51.5"/>
<polygon fill="midnightblue" stroke="midnightblue" points="311.718,-48.0001 301.718,-51.5 311.718,-55.0001 311.718,-48.0001"/>
</g>
</g>
</svg>
