<?xml version="1.0" encoding="UTF-8" standalone="no"?>
<!DOCTYPE svg PUBLIC "-//W3C//DTD SVG 1.1//EN"
 "http://www.w3.org/Graphics/SVG/1.1/DTD/svg11.dtd">
<!-- Generated by graphviz version 2.38.0 (20140413.2041)
 -->
<!-- Title: estimate_time_constant Pages: 1 -->
<svg width="303pt" height="27pt"
 viewBox="0.00 0.00 302.54 27.00" xmlns="http://www.w3.org/2000/svg" xmlns:xlink="http://www.w3.org/1999/xlink">
<g id="graph0" class="graph" transform="scale(1 1) rotate(0) translate(4 23)">
<title>estimate_time_constant</title>
<polygon fill="white" stroke="none" points="-4,4 -4,-23 298.541,-23 298.541,4 -4,4"/>
<!-- Node5 -->
<g id="node1" class="node"><title>Node5</title>
<polygon fill="#bfbfbf" stroke="black" points="0,-0.5 0,-18.5 121.61,-18.5 121.61,-0.5 0,-0.5"/>
<text text-anchor="middle" x="60.8052" y="-6.5" font-family="Helvetica,sans-Serif" font-size="10.00">estimate_time_constant</text>
</g>
<!-- Node6 -->
<g id="node2" class="node"><title>Node6</title>
<g id="a_node2"><a xlink:href="namespacecaiman_1_1source__extraction_1_1cnmf_1_1pre__processing.html#a60941191e5c55d29e33ed6fa698f1844" target="_top" xlink:title="axcov">
<polygon fill="white" stroke="black" points="157.61,-0.5 157.61,-18.5 199.733,-18.5 199.733,-0.5 157.61,-0.5"/>
<text text-anchor="middle" x="178.672" y="-6.5" font-family="Helvetica,sans-Serif" font-size="10.00">axcov</text>
</a>
</g>
</g>
<!-- Node5&#45;&gt;Node6 -->
<g id="edge1" class="edge"><title>Node5&#45;&gt;Node6</title>
<path fill="none" stroke="midnightblue" d="M121.775,-9.5C130.658,-9.5 139.478,-9.5 147.396,-9.5"/>
<polygon fill="midnightblue" stroke="midnightblue" points="147.558,-13.0001 157.558,-9.5 147.558,-6.0001 147.558,-13.0001"/>
</g>
<!-- Node7 -->
<g id="node3" class="node"><title>Node7</title>
<g id="a_node3"><a xlink:href="namespacecaiman_1_1source__extraction_1_1cnmf_1_1pre__processing.html#aebcfd66f32d95838dfa847044ee22a2b" target="_top" xlink:title="nextpow2">
<polygon fill="white" stroke="black" points="235.733,-0.5 235.733,-18.5 294.541,-18.5 294.541,-0.5 235.733,-0.5"/>
<text text-anchor="middle" x="265.137" y="-6.5" font-family="Helvetica,sans-Serif" font-size="10.00">nextpow2</text>
</a>
</g>
</g>
<!-- Node6&#45;&gt;Node7 -->
<g id="edge2" class="edge"><title>Node6&#45;&gt;Node7</title>
<path fill="none" stroke="midnightblue" d="M200.119,-9.5C207.769,-9.5 216.732,-9.5 225.488,-9.5"/>
<polygon fill="midnightblue" stroke="midnightblue" points="225.582,-13.0001 235.582,-9.5 225.582,-6.0001 225.582,-13.0001"/>
</g>
</g>
</svg>
