<?xml version="1.0" encoding="UTF-8" standalone="no"?>
<!DOCTYPE svg PUBLIC "-//W3C//DTD SVG 1.1//EN"
 "http://www.w3.org/Graphics/SVG/1.1/DTD/svg11.dtd">
<!-- Generated by graphviz version 2.38.0 (20140413.2041)
 -->
<!-- Title: mode_robust_fast Pages: 1 -->
<svg width="804pt" height="84pt"
 viewBox="0.00 0.00 804.27 84.00" xmlns="http://www.w3.org/2000/svg" xmlns:xlink="http://www.w3.org/1999/xlink">
<g id="graph0" class="graph" transform="scale(1 1) rotate(0) translate(4 80)">
<title>mode_robust_fast</title>
<polygon fill="white" stroke="none" points="-4,4 -4,-80 800.272,-80 800.272,4 -4,4"/>
<!-- Node17 -->
<g id="node1" class="node"><title>Node17</title>
<polygon fill="#bfbfbf" stroke="black" points="0,-28.5 0,-46.5 96.0488,-46.5 96.0488,-28.5 0,-28.5"/>
<text text-anchor="middle" x="48.0244" y="-34.5" font-family="Helvetica,sans-Serif" font-size="10.00">mode_robust_fast</text>
</g>
<!-- Node18 -->
<g id="node2" class="node"><title>Node18</title>
<g id="a_node2"><a xlink:href="namespacecaiman_1_1components__evaluation.html#a115ea8d0f9c41cb31cb7fe05535f65f7" target="_top" xlink:title="estimate the noise in the traces under assumption that signals are sparse and only positive...">
<polygon fill="white" stroke="black" points="132.33,-47.5 132.33,-75.5 329.545,-75.5 329.545,-47.5 132.33,-47.5"/>
<text text-anchor="start" x="140.33" y="-63.5" font-family="Helvetica,sans-Serif" font-size="10.00">caiman.components_evaluation.estimate</text>
<text text-anchor="middle" x="230.938" y="-53.5" font-family="Helvetica,sans-Serif" font-size="10.00">_noise_mode</text>
</a>
</g>
</g>
<!-- Node17&#45;&gt;Node18 -->
<g id="edge1" class="edge"><title>Node17&#45;&gt;Node18</title>
<path fill="none" stroke="midnightblue" d="M106.068,-45.0674C114.452,-46.1797 123.282,-47.3511 132.207,-48.5351"/>
<polygon fill="midnightblue" stroke="midnightblue" points="106.458,-41.5886 96.0849,-43.7431 105.538,-48.5278 106.458,-41.5886"/>
</g>
<!-- Node19 -->
<g id="node3" class="node"><title>Node19</title>
<g id="a_node3"><a xlink:href="namespacecaiman_1_1components__evaluation.html#a967e8c445c84976814609f9c120153a2" target="_top" xlink:title="caiman.components_evaluation.compute\l_event_exceptionality">
<polygon fill="white" stroke="black" points="132.049,-0.5 132.049,-28.5 329.826,-28.5 329.826,-0.5 132.049,-0.5"/>
<text text-anchor="start" x="140.049" y="-16.5" font-family="Helvetica,sans-Serif" font-size="10.00">caiman.components_evaluation.compute</text>
<text text-anchor="middle" x="230.938" y="-6.5" font-family="Helvetica,sans-Serif" font-size="10.00">_event_exceptionality</text>
</a>
</g>
</g>
<!-- Node17&#45;&gt;Node19 -->
<g id="edge2" class="edge"><title>Node17&#45;&gt;Node19</title>
<path fill="none" stroke="midnightblue" d="M106.246,-30.2253C114.467,-29.1801 123.113,-28.0809 131.855,-26.9694"/>
<polygon fill="midnightblue" stroke="midnightblue" points="105.564,-26.7837 96.0849,-31.5171 106.447,-33.7279 105.564,-26.7837"/>
</g>
<!-- Node20 -->
<g id="node4" class="node"><title>Node20</title>
<g id="a_node4"><a xlink:href="namespacecaiman_1_1components__evaluation.html#ad2a8435be788c8e75130e41f884adb0f" target="_top" xlink:title="Define a metric and order components according to the probabilty if some &quot;exceptional events&quot; (like a...">
<polygon fill="white" stroke="black" points="365.826,-0.5 365.826,-28.5 563.057,-28.5 563.057,-0.5 365.826,-0.5"/>
<text text-anchor="start" x="373.826" y="-16.5" font-family="Helvetica,sans-Serif" font-size="10.00">caiman.components_evaluation.evaluate</text>
<text text-anchor="middle" x="464.441" y="-6.5" font-family="Helvetica,sans-Serif" font-size="10.00">_components</text>
</a>
</g>
</g>
<!-- Node19&#45;&gt;Node20 -->
<g id="edge3" class="edge"><title>Node19&#45;&gt;Node20</title>
<path fill="none" stroke="midnightblue" d="M340.318,-14.5C348.713,-14.5 357.159,-14.5 365.481,-14.5"/>
<polygon fill="midnightblue" stroke="midnightblue" points="340.116,-11.0001 330.116,-14.5 340.116,-18.0001 340.116,-11.0001"/>
</g>
<!-- Node21 -->
<g id="node5" class="node"><title>Node21</title>
<g id="a_node5"><a xlink:href="namespacecaiman_1_1components__evaluation.html#a57b89e19503abe333d5767d462266e7a" target="_top" xlink:title="caiman.components_evaluation.estimate\l_components_quality">
<polygon fill="white" stroke="black" points="599.057,-0.5 599.057,-28.5 796.272,-28.5 796.272,-0.5 599.057,-0.5"/>
<text text-anchor="start" x="607.057" y="-16.5" font-family="Helvetica,sans-Serif" font-size="10.00">caiman.components_evaluation.estimate</text>
<text text-anchor="middle" x="697.665" y="-6.5" font-family="Helvetica,sans-Serif" font-size="10.00">_components_quality</text>
</a>
</g>
</g>
<!-- Node20&#45;&gt;Node21 -->
<g id="edge4" class="edge"><title>Node20&#45;&gt;Node21</title>
<path fill="none" stroke="midnightblue" d="M573.199,-14.5C581.778,-14.5 590.415,-14.5 598.919,-14.5"/>
<polygon fill="midnightblue" stroke="midnightblue" points="573.166,-11.0001 563.166,-14.5 573.166,-18.0001 573.166,-11.0001"/>
</g>
</g>
</svg>
