<?xml version="1.0" encoding="UTF-8" standalone="no"?>
<!DOCTYPE svg PUBLIC "-//W3C//DTD SVG 1.1//EN"
 "http://www.w3.org/Graphics/SVG/1.1/DTD/svg11.dtd">
<!-- Generated by graphviz version 2.38.0 (20140413.2041)
 -->
<!-- Title: load_movie_chain Pages: 1 -->
<svg width="176pt" height="27pt"
 viewBox="0.00 0.00 175.52 27.00" xmlns="http://www.w3.org/2000/svg" xmlns:xlink="http://www.w3.org/1999/xlink">
<g id="graph0" class="graph" transform="scale(1 1) rotate(0) translate(4 23)">
<title>load_movie_chain</title>
<polygon fill="white" stroke="none" points="-4,4 -4,-23 171.517,-23 171.517,4 -4,4"/>
<!-- Node36 -->
<g id="node1" class="node"><title>Node36</title>
<polygon fill="#bfbfbf" stroke="black" points="0,-0.5 0,-18.5 96.6104,-18.5 96.6104,-0.5 0,-0.5"/>
<text text-anchor="middle" x="48.3052" y="-6.5" font-family="Helvetica,sans-Serif" font-size="10.00">load_movie_chain</text>
</g>
<!-- Node37 -->
<g id="node2" class="node"><title>Node37</title>
<g id="a_node2"><a xlink:href="namespacecaiman_1_1base_1_1movies.html#a6d585c260307278135a0b4b09440b313" target="_top" xlink:title="load movie from file. ">
<polygon fill="white" stroke="black" points="132.61,-0.5 132.61,-18.5 167.517,-18.5 167.517,-0.5 132.61,-0.5"/>
<text text-anchor="middle" x="150.063" y="-6.5" font-family="Helvetica,sans-Serif" font-size="10.00">load</text>
</a>
</g>
</g>
<!-- Node36&#45;&gt;Node37 -->
<g id="edge1" class="edge"><title>Node36&#45;&gt;Node37</title>
<path fill="none" stroke="midnightblue" d="M107.064,-2.82543C116.402,-3.00557 125.362,-3.50831 132.59,-4.33368"/>
<polygon fill="midnightblue" stroke="midnightblue" points="106.87,0.675855 96.847,-2.75659 106.823,-6.32399 106.87,0.675855"/>
</g>
<!-- Node37&#45;&gt;Node36 -->
<g id="edge2" class="edge"><title>Node37&#45;&gt;Node36</title>
<path fill="none" stroke="midnightblue" d="M122.527,-15.5447C114.609,-16.0604 105.679,-16.2933 96.847,-16.2434"/>
<polygon fill="midnightblue" stroke="midnightblue" points="122.933,-19.0227 132.59,-14.6663 122.324,-12.0492 122.933,-19.0227"/>
</g>
</g>
</svg>
