<?xml version="1.0" encoding="UTF-8" standalone="no"?>
<!DOCTYPE svg PUBLIC "-//W3C//DTD SVG 1.1//EN"
 "http://www.w3.org/Graphics/SVG/1.1/DTD/svg11.dtd">
<!-- Generated by graphviz version 2.38.0 (20140413.2041)
 -->
<!-- Title: parallel_dot_product Pages: 1 -->
<svg width="361pt" height="27pt"
 viewBox="0.00 0.00 361.49 27.00" xmlns="http://www.w3.org/2000/svg" xmlns:xlink="http://www.w3.org/1999/xlink">
<g id="graph0" class="graph" transform="scale(1 1) rotate(0) translate(4 23)">
<title>parallel_dot_product</title>
<polygon fill="white" stroke="none" points="-4,4 -4,-23 357.491,-23 357.491,4 -4,4"/>
<!-- Node28 -->
<g id="node1" class="node"><title>Node28</title>
<polygon fill="#bfbfbf" stroke="black" points="0,-0.5 0,-18.5 106.62,-18.5 106.62,-0.5 0,-0.5"/>
<text text-anchor="middle" x="53.3101" y="-6.5" font-family="Helvetica,sans-Serif" font-size="10.00">parallel_dot_product</text>
</g>
<!-- Node29 -->
<g id="node2" class="node"><title>Node29</title>
<g id="a_node2"><a xlink:href="namespacecaiman_1_1mmapping.html#a14d47c076020d7d3adf2599ed3354e4b" target="_top" xlink:title="dot_place_holder">
<polygon fill="white" stroke="black" points="142.62,-0.5 142.62,-18.5 235.349,-18.5 235.349,-0.5 142.62,-0.5"/>
<text text-anchor="middle" x="188.984" y="-6.5" font-family="Helvetica,sans-Serif" font-size="10.00">dot_place_holder</text>
</a>
</g>
</g>
<!-- Node28&#45;&gt;Node29 -->
<g id="edge1" class="edge"><title>Node28&#45;&gt;Node29</title>
<path fill="none" stroke="midnightblue" d="M106.758,-9.5C115.182,-9.5 123.926,-9.5 132.421,-9.5"/>
<polygon fill="midnightblue" stroke="midnightblue" points="132.619,-13.0001 142.619,-9.5 132.619,-6.0001 132.619,-13.0001"/>
</g>
<!-- Node30 -->
<g id="node3" class="node"><title>Node30</title>
<g id="a_node3"><a xlink:href="namespacecaiman_1_1mmapping.html#aeb2ed62e4a9028089a2eec09d392707f" target="_top" xlink:title="Load a memory mapped file created by the function save_memmap. ">
<polygon fill="white" stroke="black" points="271.349,-0.5 271.349,-18.5 353.491,-18.5 353.491,-0.5 271.349,-0.5"/>
<text text-anchor="middle" x="312.42" y="-6.5" font-family="Helvetica,sans-Serif" font-size="10.00">load_memmap</text>
</a>
</g>
</g>
<!-- Node29&#45;&gt;Node30 -->
<g id="edge2" class="edge"><title>Node29&#45;&gt;Node30</title>
<path fill="none" stroke="midnightblue" d="M235.548,-9.5C243.873,-9.5 252.605,-9.5 261.06,-9.5"/>
<polygon fill="midnightblue" stroke="midnightblue" points="261.191,-13.0001 271.191,-9.5 261.19,-6.0001 261.191,-13.0001"/>
</g>
</g>
</svg>
