<?xml version="1.0" encoding="UTF-8" standalone="no"?>
<!DOCTYPE svg PUBLIC "-//W3C//DTD SVG 1.1//EN"
 "http://www.w3.org/Graphics/SVG/1.1/DTD/svg11.dtd">
<!-- Generated by graphviz version 2.38.0 (20140413.2041)
 -->
<!-- Title: local_correlations Pages: 1 -->
<svg width="456pt" height="37pt"
 viewBox="0.00 0.00 456.50 37.00" xmlns="http://www.w3.org/2000/svg" xmlns:xlink="http://www.w3.org/1999/xlink">
<g id="graph0" class="graph" transform="scale(1 1) rotate(0) translate(4 33)">
<title>local_correlations</title>
<polygon fill="white" stroke="none" points="-4,4 -4,-33 452.496,-33 452.496,4 -4,4"/>
<!-- Node1 -->
<g id="node1" class="node"><title>Node1</title>
<polygon fill="#bfbfbf" stroke="black" points="0,-5.5 0,-23.5 93.8174,-23.5 93.8174,-5.5 0,-5.5"/>
<text text-anchor="middle" x="46.9087" y="-11.5" font-family="Helvetica,sans-Serif" font-size="10.00">local_correlations</text>
</g>
<!-- Node2 -->
<g id="node2" class="node"><title>Node2</title>
<g id="a_node2"><a xlink:href="namespacecaiman_1_1utils_1_1visualization.html#a710f8ce5063f0475fb009dd74f84ab9a" target="_top" xlink:title="Interactive plotting utility for ipython notbook. ">
<polygon fill="white" stroke="black" points="129.817,-0.5 129.817,-28.5 269.768,-28.5 269.768,-0.5 129.817,-0.5"/>
<text text-anchor="start" x="137.817" y="-16.5" font-family="Helvetica,sans-Serif" font-size="10.00">caiman.utils.visualization.nb</text>
<text text-anchor="middle" x="199.792" y="-6.5" font-family="Helvetica,sans-Serif" font-size="10.00">_view_patches3d</text>
</a>
</g>
</g>
<!-- Node1&#45;&gt;Node2 -->
<g id="edge1" class="edge"><title>Node1&#45;&gt;Node2</title>
<path fill="none" stroke="midnightblue" d="M104.274,-14.5C112.55,-14.5 121.154,-14.5 129.65,-14.5"/>
<polygon fill="midnightblue" stroke="midnightblue" points="103.999,-11.0001 93.9987,-14.5 103.999,-18.0001 103.999,-11.0001"/>
</g>
<!-- Node3 -->
<g id="node3" class="node"><title>Node3</title>
<g id="a_node3"><a xlink:href="namespacecaiman_1_1utils_1_1visualization.html#a4414d9cf72aae1de86fcc5346deaeb3a" target="_top" xlink:title="Gets contour of spatial components and returns their coordinates. ">
<polygon fill="white" stroke="black" points="305.768,-0.5 305.768,-28.5 448.496,-28.5 448.496,-0.5 305.768,-0.5"/>
<text text-anchor="start" x="313.768" y="-16.5" font-family="Helvetica,sans-Serif" font-size="10.00">caiman.utils.visualization.get</text>
<text text-anchor="middle" x="377.132" y="-6.5" font-family="Helvetica,sans-Serif" font-size="10.00">_contours3d</text>
</a>
</g>
</g>
<!-- Node2&#45;&gt;Node3 -->
<g id="edge2" class="edge"><title>Node2&#45;&gt;Node3</title>
<path fill="none" stroke="midnightblue" d="M279.877,-7.77885C288.488,-7.72081 297.211,-7.75034 305.708,-7.86745"/>
<polygon fill="midnightblue" stroke="midnightblue" points="279.801,-4.27937 269.84,-7.88722 279.877,-11.279 279.801,-4.27937"/>
</g>
<!-- Node3&#45;&gt;Node2 -->
<g id="edge3" class="edge"><title>Node3&#45;&gt;Node2</title>
<path fill="none" stroke="midnightblue" d="M295.649,-21.2298C287.027,-21.2784 278.312,-21.2394 269.84,-21.1128"/>
<polygon fill="midnightblue" stroke="midnightblue" points="295.742,-24.7292 305.708,-21.1326 295.675,-17.7295 295.742,-24.7292"/>
</g>
</g>
</svg>
