<?xml version="1.0" encoding="UTF-8" standalone="no"?>
<!DOCTYPE svg PUBLIC "-//W3C//DTD SVG 1.1//EN"
 "http://www.w3.org/Graphics/SVG/1.1/DTD/svg11.dtd">
<!-- Generated by graphviz version 2.38.0 (20140413.2041)
 -->
<!-- Title: nb_plot_contour Pages: 1 -->
<svg width="357pt" height="103pt"
 viewBox="0.00 0.00 357.02 103.00" xmlns="http://www.w3.org/2000/svg" xmlns:xlink="http://www.w3.org/1999/xlink">
<g id="graph0" class="graph" transform="scale(1 1) rotate(0) translate(4 99)">
<title>nb_plot_contour</title>
<polygon fill="white" stroke="none" points="-4,4 -4,-99 353.023,-99 353.023,4 -4,4"/>
<!-- Node21 -->
<g id="node1" class="node"><title>Node21</title>
<polygon fill="#bfbfbf" stroke="black" points="0,-57.5 0,-75.5 87.7236,-75.5 87.7236,-57.5 0,-57.5"/>
<text text-anchor="middle" x="43.8618" y="-63.5" font-family="Helvetica,sans-Serif" font-size="10.00">nb_plot_contour</text>
</g>
<!-- Node22 -->
<g id="node2" class="node"><title>Node22</title>
<g id="a_node2"><a xlink:href="namespacecaiman_1_1utils_1_1visualization.html#ac95a3a5e8c3bee95392831c57548fc04" target="_top" xlink:title="Interactive equivalent of imshow for ipython notebook. ">
<polygon fill="white" stroke="black" points="128.453,-76.5 128.453,-94.5 195.034,-94.5 195.034,-76.5 128.453,-76.5"/>
<text text-anchor="middle" x="161.743" y="-82.5" font-family="Helvetica,sans-Serif" font-size="10.00">nb_imshow</text>
</a>
</g>
</g>
<!-- Node21&#45;&gt;Node22 -->
<g id="edge1" class="edge"><title>Node21&#45;&gt;Node22</title>
<path fill="none" stroke="midnightblue" d="M88.0118,-67.0243C101.485,-68.8627 116.101,-71.4053 128.673,-74.1294"/>
<polygon fill="midnightblue" stroke="midnightblue" points="128.151,-77.601 138.683,-76.4488 129.731,-70.7817 128.151,-77.601"/>
</g>
<!-- Node23 -->
<g id="node3" class="node"><title>Node23</title>
<g id="a_node3"><a xlink:href="namespacecaiman_1_1base_1_1rois.html#ae37bc9f1a4e815bd7d8e44a2334883a2" target="_top" xlink:title="Calculation of the center of mass for spatial components. ">
<polygon fill="white" stroke="black" points="235.763,-19.5 235.763,-37.5 349.023,-37.5 349.023,-19.5 235.763,-19.5"/>
<text text-anchor="middle" x="292.393" y="-25.5" font-family="Helvetica,sans-Serif" font-size="10.00">caiman.base.rois.com</text>
</a>
</g>
</g>
<!-- Node21&#45;&gt;Node23 -->
<g id="edge3" class="edge"><title>Node21&#45;&gt;Node23</title>
<path fill="none" stroke="midnightblue" d="M87.8043,-59.8809C125.816,-54.0218 181.877,-45.3806 225.552,-38.6486"/>
<polygon fill="midnightblue" stroke="midnightblue" points="226.169,-42.095 235.519,-37.1124 225.102,-35.1767 226.169,-42.095"/>
</g>
<!-- Node24 -->
<g id="node4" class="node"><title>Node24</title>
<g id="a_node4"><a xlink:href="namespacecaiman_1_1utils_1_1visualization.html#ad48f24a70009a82e7a8cafa02e283a0e" target="_top" xlink:title="Plots contour of spatial components against a background image and returns their coordinates. ">
<polygon fill="white" stroke="black" points="123.724,-0.5 123.724,-18.5 199.763,-18.5 199.763,-0.5 123.724,-0.5"/>
<text text-anchor="middle" x="161.743" y="-6.5" font-family="Helvetica,sans-Serif" font-size="10.00">plot_contours</text>
</a>
</g>
</g>
<!-- Node21&#45;&gt;Node24 -->
<g id="edge4" class="edge"><title>Node21&#45;&gt;Node24</title>
<path fill="none" stroke="midnightblue" d="M63.2236,-57.4682C82.0138,-48.2256 111.442,-33.7504 133.06,-23.1171"/>
<polygon fill="midnightblue" stroke="midnightblue" points="134.655,-26.2328 142.084,-18.6783 131.566,-19.9515 134.655,-26.2328"/>
</g>
<!-- Node22&#45;&gt;Node21 -->
<g id="edge2" class="edge"><title>Node22&#45;&gt;Node21</title>
<path fill="none" stroke="midnightblue" d="M128.237,-86.3054C112.184,-84.5013 92.8801,-81.328 76.8915,-77.8619"/>
<polygon fill="midnightblue" stroke="midnightblue" points="77.463,-74.4016 66.931,-75.5533 75.8825,-81.2209 77.463,-74.4016"/>
</g>
<!-- Node24&#45;&gt;Node23 -->
<g id="edge5" class="edge"><title>Node24&#45;&gt;Node23</title>
<path fill="none" stroke="midnightblue" d="M199.954,-14.9956C208.042,-16.19 216.829,-17.4879 225.653,-18.7909"/>
<polygon fill="midnightblue" stroke="midnightblue" points="225.19,-22.2605 235.594,-20.2591 226.213,-15.3356 225.19,-22.2605"/>
</g>
</g>
</svg>
