<?xml version="1.0" encoding="UTF-8" standalone="no"?>
<!DOCTYPE svg PUBLIC "-//W3C//DTD SVG 1.1//EN"
 "http://www.w3.org/Graphics/SVG/1.1/DTD/svg11.dtd">
<!-- Generated by graphviz version 2.38.0 (20140413.2041)
 -->
<!-- Title: fast_process_day Pages: 1 -->
<svg width="258pt" height="64pt"
 viewBox="0.00 0.00 258.34 64.00" xmlns="http://www.w3.org/2000/svg" xmlns:xlink="http://www.w3.org/1999/xlink">
<g id="graph0" class="graph" transform="scale(1 1) rotate(0) translate(4 60)">
<title>fast_process_day</title>
<polygon fill="white" stroke="none" points="-4,4 -4,-60 254.339,-60 254.339,4 -4,4"/>
<!-- Node13 -->
<g id="node1" class="node"><title>Node13</title>
<polygon fill="#bfbfbf" stroke="black" points="0,-18.5 0,-36.5 94.3789,-36.5 94.3789,-18.5 0,-18.5"/>
<text text-anchor="middle" x="47.1895" y="-24.5" font-family="Helvetica,sans-Serif" font-size="10.00">fast_process_day</text>
</g>
<!-- Node14 -->
<g id="node2" class="node"><title>Node14</title>
<g id="a_node2"><a xlink:href="namespaceuse__cases_1_1granule__cells_1_1utils__granule.html#a8d7c62cfe68cb8f54148c40fad7f2079" target="_top" xlink:title="Load results from CNMF on various FOVs and merge them after some preprocessing. ">
<polygon fill="white" stroke="black" points="155.398,-37.5 155.398,-55.5 225.319,-55.5 225.319,-37.5 155.398,-37.5"/>
<text text-anchor="middle" x="190.359" y="-43.5" font-family="Helvetica,sans-Serif" font-size="10.00">load_results</text>
</a>
</g>
</g>
<!-- Node13&#45;&gt;Node14 -->
<g id="edge1" class="edge"><title>Node13&#45;&gt;Node14</title>
<path fill="none" stroke="midnightblue" d="M94.4136,-33.7213C110.641,-35.9053 128.825,-38.3528 144.904,-40.5168"/>
<polygon fill="midnightblue" stroke="midnightblue" points="144.746,-44.0271 155.124,-41.8923 145.68,-37.0896 144.746,-44.0271"/>
</g>
<!-- Node15 -->
<g id="node3" class="node"><title>Node15</title>
<g id="a_node3"><a xlink:href="namespaceuse__cases_1_1granule__cells_1_1utils__granule.html#a4e5e27d0b9483f092c28410b75113c63" target="_top" xlink:title="generate_linked_traces">
<polygon fill="white" stroke="black" points="130.379,-0.5 130.379,-18.5 250.339,-18.5 250.339,-0.5 130.379,-0.5"/>
<text text-anchor="middle" x="190.359" y="-6.5" font-family="Helvetica,sans-Serif" font-size="10.00">generate_linked_traces</text>
</a>
</g>
</g>
<!-- Node13&#45;&gt;Node15 -->
<g id="edge2" class="edge"><title>Node13&#45;&gt;Node15</title>
<path fill="none" stroke="midnightblue" d="M94.4136,-21.6061C102.621,-20.5597 111.329,-19.4494 120.011,-18.3422"/>
<polygon fill="midnightblue" stroke="midnightblue" points="120.684,-21.7849 130.161,-17.0481 119.799,-14.8411 120.684,-21.7849"/>
</g>
</g>
</svg>
