<?xml version="1.0" encoding="UTF-8" standalone="no"?>
<!DOCTYPE svg PUBLIC "-//W3C//DTD SVG 1.1//EN"
 "http://www.w3.org/Graphics/SVG/1.1/DTD/svg11.dtd">
<!-- Generated by graphviz version 2.38.0 (20140413.2041)
 -->
<!-- Title: motion_correct_online Pages: 1 -->
<svg width="328pt" height="84pt"
 viewBox="0.00 0.00 327.79 84.00" xmlns="http://www.w3.org/2000/svg" xmlns:xlink="http://www.w3.org/1999/xlink">
<g id="graph0" class="graph" transform="scale(1 1) rotate(0) translate(4 80)">
<title>motion_correct_online</title>
<polygon fill="white" stroke="none" points="-4,4 -4,-80 323.787,-80 323.787,4 -4,4"/>
<!-- Node88 -->
<g id="node1" class="node"><title>Node88</title>
<polygon fill="#bfbfbf" stroke="black" points="0,-28.5 0,-46.5 114.389,-46.5 114.389,-28.5 0,-28.5"/>
<text text-anchor="middle" x="57.1943" y="-34.5" font-family="Helvetica,sans-Serif" font-size="10.00">motion_correct_online</text>
</g>
<!-- Node89 -->
<g id="node2" class="node"><title>Node89</title>
<g id="a_node2"><a xlink:href="namespacecaiman_1_1motion__correction.html#aef9c5f795aeb47c5b86066492953fc4f" target="_top" xlink:title="motion_correct_online\l_multifile">
<polygon fill="white" stroke="black" points="177.894,-47.5 177.894,-75.5 292.282,-75.5 292.282,-47.5 177.894,-47.5"/>
<text text-anchor="start" x="185.894" y="-63.5" font-family="Helvetica,sans-Serif" font-size="10.00">motion_correct_online</text>
<text text-anchor="middle" x="235.088" y="-53.5" font-family="Helvetica,sans-Serif" font-size="10.00">_multifile</text>
</a>
</g>
</g>
<!-- Node88&#45;&gt;Node89 -->
<g id="edge1" class="edge"><title>Node88&#45;&gt;Node89</title>
<path fill="none" stroke="midnightblue" d="M124.934,-46.6063C142.388,-48.9879 161.027,-51.5312 177.873,-53.8297"/>
<polygon fill="midnightblue" stroke="midnightblue" points="125.198,-43.11 114.816,-45.2259 124.251,-50.0457 125.198,-43.11"/>
</g>
<!-- Node90 -->
<g id="node3" class="node"><title>Node90</title>
<g id="a_node3"><a xlink:href="classcaiman_1_1base_1_1movies_1_1movie.html#a9ea3b23aad7b04c484259dc0f2117aed" target="_top" xlink:title="caiman.base.movies.movie.motion\l_correction_online">
<polygon fill="white" stroke="black" points="150.389,-0.5 150.389,-28.5 319.787,-28.5 319.787,-0.5 150.389,-0.5"/>
<text text-anchor="start" x="158.389" y="-16.5" font-family="Helvetica,sans-Serif" font-size="10.00">caiman.base.movies.movie.motion</text>
<text text-anchor="middle" x="235.088" y="-6.5" font-family="Helvetica,sans-Serif" font-size="10.00">_correction_online</text>
</a>
</g>
</g>
<!-- Node88&#45;&gt;Node90 -->
<g id="edge2" class="edge"><title>Node88&#45;&gt;Node90</title>
<path fill="none" stroke="midnightblue" d="M124.836,-28.7858C133.179,-27.6949 141.795,-26.5683 150.357,-25.4488"/>
<polygon fill="midnightblue" stroke="midnightblue" points="124.278,-25.3289 114.816,-30.0961 125.186,-32.2699 124.278,-25.3289"/>
</g>
</g>
</svg>
