<?xml version="1.0" encoding="UTF-8" standalone="no"?>
<!DOCTYPE svg PUBLIC "-//W3C//DTD SVG 1.1//EN"
 "http://www.w3.org/Graphics/SVG/1.1/DTD/svg11.dtd">
<!-- Generated by graphviz version 2.38.0 (20140413.2041)
 -->
<!-- Title: load Pages: 1 -->
<svg width="498pt" height="148pt"
 viewBox="0.00 0.00 498.26 148.00" xmlns="http://www.w3.org/2000/svg" xmlns:xlink="http://www.w3.org/1999/xlink">
<g id="graph0" class="graph" transform="scale(1 1) rotate(0) translate(4 144)">
<title>load</title>
<polygon fill="white" stroke="none" points="-4,4 -4,-144 494.265,-144 494.265,4 -4,4"/>
<!-- Node18 -->
<g id="node1" class="node"><title>Node18</title>
<polygon fill="#bfbfbf" stroke="black" points="0,-37.5 0,-55.5 34.9062,-55.5 34.9062,-37.5 0,-37.5"/>
<text text-anchor="middle" x="17.4531" y="-43.5" font-family="Helvetica,sans-Serif" font-size="10.00">load</text>
</g>
<!-- Node19 -->
<g id="node2" class="node"><title>Node19</title>
<g id="a_node2"><a xlink:href="namespacecaiman_1_1mmapping.html#aeb2ed62e4a9028089a2eec09d392707f" target="_top" xlink:title="Load a memory mapped file created by the function save_memmap. ">
<polygon fill="white" stroke="black" points="70.9062,-111.5 70.9062,-139.5 190.295,-139.5 190.295,-111.5 70.9062,-111.5"/>
<text text-anchor="start" x="78.9062" y="-127.5" font-family="Helvetica,sans-Serif" font-size="10.00">caiman.mmapping.load</text>
<text text-anchor="middle" x="130.601" y="-117.5" font-family="Helvetica,sans-Serif" font-size="10.00">_memmap</text>
</a>
</g>
</g>
<!-- Node18&#45;&gt;Node19 -->
<g id="edge1" class="edge"><title>Node18&#45;&gt;Node19</title>
<path fill="none" stroke="midnightblue" d="M24.9335,-55.6339C33.9854,-67.8086 51.5006,-89.3437 70.9062,-102.5 73.1639,-104.031 75.5382,-105.481 77.9851,-106.853"/>
<polygon fill="midnightblue" stroke="midnightblue" points="76.5835,-110.066 87.0842,-111.476 79.7542,-103.826 76.5835,-110.066"/>
</g>
<!-- Node20 -->
<g id="node3" class="node"><title>Node20</title>
<g id="a_node3"><a xlink:href="namespacecaiman_1_1base_1_1movies.html#ad9b115e435b36308da1248112f09f0db" target="_top" xlink:title="Input filename should be full path excluding .sbx. ">
<polygon fill="white" stroke="black" points="95.9209,-74.5 95.9209,-92.5 165.28,-92.5 165.28,-74.5 95.9209,-74.5"/>
<text text-anchor="middle" x="130.601" y="-80.5" font-family="Helvetica,sans-Serif" font-size="10.00">sbxreadskip</text>
</a>
</g>
</g>
<!-- Node18&#45;&gt;Node20 -->
<g id="edge2" class="edge"><title>Node18&#45;&gt;Node20</title>
<path fill="none" stroke="midnightblue" d="M34.9161,-52.7024C45.214,-56.5226 58.7807,-61.4474 70.9062,-65.5 76.8767,-67.4954 83.2165,-69.5283 89.4373,-71.475"/>
<polygon fill="midnightblue" stroke="midnightblue" points="88.4572,-74.8354 99.0449,-74.4455 90.525,-68.1477 88.4572,-74.8354"/>
</g>
<!-- Node24 -->
<g id="node7" class="node"><title>Node24</title>
<g id="a_node7"><a xlink:href="namespacecaiman_1_1base_1_1movies.html#ad72bfc8cc5386d4470caa0be723598e9" target="_top" xlink:title="Input filename should be full path excluding .sbx. ">
<polygon fill="white" stroke="black" points="104.812,-37.5 104.812,-55.5 156.389,-55.5 156.389,-37.5 104.812,-37.5"/>
<text text-anchor="middle" x="130.601" y="-43.5" font-family="Helvetica,sans-Serif" font-size="10.00">sbxread</text>
</a>
</g>
</g>
<!-- Node18&#45;&gt;Node24 -->
<g id="edge6" class="edge"><title>Node18&#45;&gt;Node24</title>
<path fill="none" stroke="midnightblue" d="M35.334,-46.5C50.9831,-46.5 74.7583,-46.5 94.5159,-46.5"/>
<polygon fill="midnightblue" stroke="midnightblue" points="94.7089,-50.0001 104.709,-46.5 94.7088,-43.0001 94.7089,-50.0001"/>
</g>
<!-- Node25 -->
<g id="node8" class="node"><title>Node25</title>
<g id="a_node8"><a xlink:href="namespacecaiman_1_1base_1_1movies.html#a5a35758b31edb4a9b2105a058a0882a6" target="_top" xlink:title="load movies from list of file names ">
<polygon fill="white" stroke="black" points="82.2954,-0.5 82.2954,-18.5 178.906,-18.5 178.906,-0.5 82.2954,-0.5"/>
<text text-anchor="middle" x="130.601" y="-6.5" font-family="Helvetica,sans-Serif" font-size="10.00">load_movie_chain</text>
</a>
</g>
</g>
<!-- Node18&#45;&gt;Node25 -->
<g id="edge8" class="edge"><title>Node18&#45;&gt;Node25</title>
<path fill="none" stroke="midnightblue" d="M26.6151,-37.3793C36.9187,-31.0627 55.1967,-24.7377 70.9062,-19.5 71.4778,-19.3094 72.0526,-19.1181 72.6301,-18.9262"/>
<polygon fill="midnightblue" stroke="midnightblue" points="73.7532,-22.2413 82.1662,-15.8015 71.5735,-15.5893 73.7532,-22.2413"/>
</g>
<!-- Node21 -->
<g id="node4" class="node"><title>Node21</title>
<g id="a_node4"><a xlink:href="namespacecaiman_1_1base_1_1movies.html#a1dae08ecd6c4b9ef41d5e820eb86604d" target="_top" xlink:title="loadmat_sbx">
<polygon fill="white" stroke="black" points="226.295,-55.5 226.295,-73.5 298.994,-73.5 298.994,-55.5 226.295,-55.5"/>
<text text-anchor="middle" x="262.645" y="-61.5" font-family="Helvetica,sans-Serif" font-size="10.00">loadmat_sbx</text>
</a>
</g>
</g>
<!-- Node20&#45;&gt;Node21 -->
<g id="edge3" class="edge"><title>Node20&#45;&gt;Node21</title>
<path fill="none" stroke="midnightblue" d="M165.429,-78.5576C180.884,-76.2994 199.422,-73.591 216.082,-71.1569"/>
<polygon fill="midnightblue" stroke="midnightblue" points="216.78,-74.5922 226.169,-69.6832 215.768,-67.6658 216.78,-74.5922"/>
</g>
<!-- Node22 -->
<g id="node5" class="node"><title>Node22</title>
<g id="a_node5"><a xlink:href="namespacecaiman_1_1base_1_1movies.html#abb80862aafd574c59a95c0b24268be69" target="_top" xlink:title="_check_keys">
<polygon fill="white" stroke="black" points="334.994,-55.5 334.994,-73.5 408.802,-73.5 408.802,-55.5 334.994,-55.5"/>
<text text-anchor="middle" x="371.898" y="-61.5" font-family="Helvetica,sans-Serif" font-size="10.00">_check_keys</text>
</a>
</g>
</g>
<!-- Node21&#45;&gt;Node22 -->
<g id="edge4" class="edge"><title>Node21&#45;&gt;Node22</title>
<path fill="none" stroke="midnightblue" d="M299.061,-64.5C307.216,-64.5 316.009,-64.5 324.55,-64.5"/>
<polygon fill="midnightblue" stroke="midnightblue" points="324.785,-68.0001 334.785,-64.5 324.785,-61.0001 324.785,-68.0001"/>
</g>
<!-- Node23 -->
<g id="node6" class="node"><title>Node23</title>
<g id="a_node6"><a xlink:href="namespacecaiman_1_1base_1_1movies.html#a3678b9e2ae337ad61ebe7630c5e08ead" target="_top" xlink:title="A recursive function which constructs from matobjects nested dictionaries. ">
<polygon fill="white" stroke="black" points="444.802,-55.5 444.802,-73.5 490.265,-73.5 490.265,-55.5 444.802,-55.5"/>
<text text-anchor="middle" x="467.533" y="-61.5" font-family="Helvetica,sans-Serif" font-size="10.00">_todict</text>
</a>
</g>
</g>
<!-- Node22&#45;&gt;Node23 -->
<g id="edge5" class="edge"><title>Node22&#45;&gt;Node23</title>
<path fill="none" stroke="midnightblue" d="M408.832,-64.5C417.317,-64.5 426.308,-64.5 434.602,-64.5"/>
<polygon fill="midnightblue" stroke="midnightblue" points="434.646,-68.0001 444.646,-64.5 434.646,-61.0001 434.646,-68.0001"/>
</g>
<!-- Node24&#45;&gt;Node21 -->
<g id="edge7" class="edge"><title>Node24&#45;&gt;Node21</title>
<path fill="none" stroke="midnightblue" d="M156.674,-49.9706C173.393,-52.2847 195.864,-55.395 215.726,-58.1442"/>
<polygon fill="midnightblue" stroke="midnightblue" points="215.444,-61.6385 225.83,-59.5427 216.404,-54.7046 215.444,-61.6385"/>
</g>
<!-- Node25&#45;&gt;Node18 -->
<g id="edge9" class="edge"><title>Node25&#45;&gt;Node18</title>
<path fill="none" stroke="midnightblue" d="M120.434,-18.6828C108.871,-25.0993 88.3827,-31.6732 70.9062,-37.5 62.4293,-40.3263 53.2044,-43.4692 44.8882,-45.8988"/>
<polygon fill="midnightblue" stroke="midnightblue" points="43.741,-42.5816 34.9649,-48.5172 45.527,-49.3499 43.741,-42.5816"/>
</g>
</g>
</svg>
