<?xml version="1.0" encoding="UTF-8" standalone="no"?>
<!DOCTYPE svg PUBLIC "-//W3C//DTD SVG 1.1//EN"
 "http://www.w3.org/Graphics/SVG/1.1/DTD/svg11.dtd">
<!-- Generated by graphviz version 2.38.0 (20140413.2041)
 -->
<!-- Title: initialize_components Pages: 1 -->
<svg width="384pt" height="166pt"
 viewBox="0.00 0.00 383.66 166.00" xmlns="http://www.w3.org/2000/svg" xmlns:xlink="http://www.w3.org/1999/xlink">
<g id="graph0" class="graph" transform="scale(1 1) rotate(0) translate(4 162)">
<title>initialize_components</title>
<polygon fill="white" stroke="none" points="-4,4 -4,-162 379.664,-162 379.664,4 -4,4"/>
<!-- Node24 -->
<g id="node1" class="node"><title>Node24</title>
<polygon fill="#bfbfbf" stroke="black" points="0,-65.5 0,-83.5 111.61,-83.5 111.61,-65.5 0,-65.5"/>
<text text-anchor="middle" x="55.8052" y="-71.5" font-family="Helvetica,sans-Serif" font-size="10.00">initialize_components</text>
</g>
<!-- Node25 -->
<g id="node2" class="node"><title>Node25</title>
<g id="a_node2"><a xlink:href="namespacecaiman_1_1source__extraction_1_1cnmf_1_1initialization.html#a7dd7bbb01fcb5237fc7d7674b870c9ae" target="_top" xlink:title="Greedy initialization of spatial and temporal components using spatial Gaussian filtering. ">
<polygon fill="white" stroke="black" points="149.271,-121.5 149.271,-139.5 213.625,-139.5 213.625,-121.5 149.271,-121.5"/>
<text text-anchor="middle" x="181.448" y="-127.5" font-family="Helvetica,sans-Serif" font-size="10.00">greedyROI</text>
</a>
</g>
</g>
<!-- Node24&#45;&gt;Node25 -->
<g id="edge1" class="edge"><title>Node24&#45;&gt;Node25</title>
<path fill="none" stroke="midnightblue" d="M76.9457,-83.622C97.0638,-92.7339 128.205,-106.838 151.076,-117.197"/>
<polygon fill="midnightblue" stroke="midnightblue" points="149.763,-120.444 160.316,-121.382 152.651,-114.068 149.763,-120.444"/>
</g>
<!-- Node28 -->
<g id="node5" class="node"><title>Node28</title>
<g id="a_node5"><a xlink:href="namespacecaiman_1_1source__extraction_1_1cnmf_1_1initialization.html#aaedc4182f94a08193a9a93e9931bbb37" target="_top" xlink:title="Hierarchical alternating least square method for solving NMF problem Y = A*C + b*f. ">
<polygon fill="white" stroke="black" points="164.275,-84.5 164.275,-102.5 198.62,-102.5 198.62,-84.5 164.275,-84.5"/>
<text text-anchor="middle" x="181.448" y="-90.5" font-family="Helvetica,sans-Serif" font-size="10.00">hals</text>
</a>
</g>
</g>
<!-- Node24&#45;&gt;Node28 -->
<g id="edge4" class="edge"><title>Node24&#45;&gt;Node28</title>
<path fill="none" stroke="midnightblue" d="M111.757,-82.9443C126.422,-85.198 141.61,-87.5319 153.964,-89.4303"/>
<polygon fill="midnightblue" stroke="midnightblue" points="153.59,-92.9139 164.006,-90.9734 154.654,-85.9951 153.59,-92.9139"/>
</g>
<!-- Node29 -->
<g id="node6" class="node"><title>Node29</title>
<g id="a_node6"><a xlink:href="namespacecaiman_1_1source__extraction_1_1cnmf_1_1initialization.html#a12935eff3707e6c9e0e56b2152a90bd5" target="_top" xlink:title="sparseNMF">
<polygon fill="white" stroke="black" points="147.61,-47.5 147.61,-65.5 215.285,-65.5 215.285,-47.5 147.61,-47.5"/>
<text text-anchor="middle" x="181.448" y="-53.5" font-family="Helvetica,sans-Serif" font-size="10.00">sparseNMF</text>
</a>
</g>
</g>
<!-- Node24&#45;&gt;Node29 -->
<g id="edge5" class="edge"><title>Node24&#45;&gt;Node29</title>
<path fill="none" stroke="midnightblue" d="M111.757,-66.5001C120.282,-65.259 128.984,-63.9921 137.203,-62.7956"/>
<polygon fill="midnightblue" stroke="midnightblue" points="137.915,-66.229 147.306,-61.3248 136.906,-59.302 137.915,-66.229"/>
</g>
<!-- Node31 -->
<g id="node8" class="node"><title>Node31</title>
<g id="a_node8"><a xlink:href="namespacecaiman_1_1source__extraction_1_1cnmf_1_1initialization.html#a88bfdfe3cc85c90317fb6d8d6c09f792" target="_top" xlink:title="Initialization using ICA and PCA. ">
<polygon fill="white" stroke="black" points="152.051,-10.5 152.051,-28.5 210.844,-28.5 210.844,-10.5 152.051,-10.5"/>
<text text-anchor="middle" x="181.448" y="-16.5" font-family="Helvetica,sans-Serif" font-size="10.00">ICA_PCA</text>
</a>
</g>
</g>
<!-- Node24&#45;&gt;Node31 -->
<g id="edge7" class="edge"><title>Node24&#45;&gt;Node31</title>
<path fill="none" stroke="midnightblue" d="M77.2222,-65.4179C97.2676,-56.5011 128.061,-42.803 150.802,-32.6873"/>
<polygon fill="midnightblue" stroke="midnightblue" points="152.286,-35.8579 160,-28.5956 149.441,-29.4621 152.286,-35.8579"/>
</g>
<!-- Node26 -->
<g id="node3" class="node"><title>Node26</title>
<g id="a_node3"><a xlink:href="namespacecaiman_1_1source__extraction_1_1cnmf_1_1initialization.html#ac8f4ada67920c28ee00d92af03cb4f8b" target="_top" xlink:title="Spatial filtering with a Gaussian or user defined kernel The parameters are specified in GreedyROI...">
<polygon fill="white" stroke="black" points="291.861,-139.5 291.861,-157.5 335.088,-157.5 335.088,-139.5 291.861,-139.5"/>
<text text-anchor="middle" x="313.475" y="-145.5" font-family="Helvetica,sans-Serif" font-size="10.00">imblur</text>
</a>
</g>
</g>
<!-- Node25&#45;&gt;Node26 -->
<g id="edge2" class="edge"><title>Node25&#45;&gt;Node26</title>
<path fill="none" stroke="midnightblue" d="M213.924,-134.857C234.533,-137.71 261.333,-141.42 281.783,-144.251"/>
<polygon fill="midnightblue" stroke="midnightblue" points="281.446,-147.738 291.831,-145.642 282.405,-140.804 281.446,-147.738"/>
</g>
<!-- Node27 -->
<g id="node4" class="node"><title>Node27</title>
<g id="a_node4"><a xlink:href="namespacecaiman_1_1source__extraction_1_1cnmf_1_1initialization.html#a34abf87100936b47d488cefbb9def7e9" target="_top" xlink:title="Fine tuning of components within greedyROI using rank&#45;1 NMF. ">
<polygon fill="white" stroke="black" points="287.682,-102.5 287.682,-120.5 339.268,-120.5 339.268,-102.5 287.682,-102.5"/>
<text text-anchor="middle" x="313.475" y="-108.5" font-family="Helvetica,sans-Serif" font-size="10.00">finetune</text>
</a>
</g>
</g>
<!-- Node25&#45;&gt;Node27 -->
<g id="edge3" class="edge"><title>Node25&#45;&gt;Node27</title>
<path fill="none" stroke="midnightblue" d="M213.924,-125.901C233.037,-123.108 257.475,-119.537 277.233,-116.65"/>
<polygon fill="midnightblue" stroke="midnightblue" points="277.986,-120.077 287.375,-115.168 276.974,-113.15 277.986,-120.077"/>
</g>
<!-- Node30 -->
<g id="node7" class="node"><title>Node30</title>
<g id="a_node7"><a xlink:href="namespacecaiman_1_1base_1_1rois.html#ae37bc9f1a4e815bd7d8e44a2334883a2" target="_top" xlink:title="Calculation of the center of mass for spatial components. ">
<polygon fill="white" stroke="black" points="256.844,-47.5 256.844,-65.5 370.105,-65.5 370.105,-47.5 256.844,-47.5"/>
<text text-anchor="middle" x="313.475" y="-53.5" font-family="Helvetica,sans-Serif" font-size="10.00">caiman.base.rois.com</text>
</a>
</g>
</g>
<!-- Node29&#45;&gt;Node30 -->
<g id="edge6" class="edge"><title>Node29&#45;&gt;Node30</title>
<path fill="none" stroke="midnightblue" d="M215.595,-56.5C225.061,-56.5 235.723,-56.5 246.423,-56.5"/>
<polygon fill="midnightblue" stroke="midnightblue" points="246.655,-60.0001 256.655,-56.5 246.655,-53.0001 246.655,-60.0001"/>
</g>
<!-- Node31&#45;&gt;Node30 -->
<g id="edge9" class="edge"><title>Node31&#45;&gt;Node30</title>
<path fill="none" stroke="midnightblue" d="M210.983,-27.6198C228.553,-32.6195 251.379,-39.1148 270.933,-44.6789"/>
<polygon fill="midnightblue" stroke="midnightblue" points="270.238,-48.1203 280.815,-47.4909 272.154,-41.3876 270.238,-48.1203"/>
</g>
<!-- Node32 -->
<g id="node9" class="node"><title>Node32</title>
<g id="a_node9"><a xlink:href="namespacecaiman_1_1base_1_1rois.html#af61f5029359cfa66389c5234b9a9ad99" target="_top" xlink:title="caiman.base.rois.extract\lROIsFromPCAICA">
<polygon fill="white" stroke="black" points="251.285,-0.5 251.285,-28.5 375.664,-28.5 375.664,-0.5 251.285,-0.5"/>
<text text-anchor="start" x="259.285" y="-16.5" font-family="Helvetica,sans-Serif" font-size="10.00">caiman.base.rois.extract</text>
<text text-anchor="middle" x="313.475" y="-6.5" font-family="Helvetica,sans-Serif" font-size="10.00">ROIsFromPCAICA</text>
</a>
</g>
</g>
<!-- Node31&#45;&gt;Node32 -->
<g id="edge8" class="edge"><title>Node31&#45;&gt;Node32</title>
<path fill="none" stroke="midnightblue" d="M210.983,-18.4027C219.99,-18.0564 230.379,-17.6569 241,-17.2484"/>
<polygon fill="midnightblue" stroke="midnightblue" points="241.359,-20.7373 251.217,-16.8556 241.09,-13.7425 241.359,-20.7373"/>
</g>
</g>
</svg>
