<?xml version="1.0" encoding="UTF-8" standalone="no"?>
<!DOCTYPE svg PUBLIC "-//W3C//DTD SVG 1.1//EN"
 "http://www.w3.org/Graphics/SVG/1.1/DTD/svg11.dtd">
<!-- Generated by graphviz version 2.38.0 (20140413.2041)
 -->
<!-- Title: fft_psd_parallel Pages: 1 -->
<svg width="299pt" height="27pt"
 viewBox="0.00 0.00 299.44 27.00" xmlns="http://www.w3.org/2000/svg" xmlns:xlink="http://www.w3.org/1999/xlink">
<g id="graph0" class="graph" transform="scale(1 1) rotate(0) translate(4 23)">
<title>fft_psd_parallel</title>
<polygon fill="white" stroke="none" points="-4,4 -4,-23 295.436,-23 295.436,4 -4,4"/>
<!-- Node15 -->
<g id="node1" class="node"><title>Node15</title>
<polygon fill="#bfbfbf" stroke="black" points="0,-0.5 0,-18.5 83.6465,-18.5 83.6465,-0.5 0,-0.5"/>
<text text-anchor="middle" x="41.8232" y="-6.5" font-family="Helvetica,sans-Serif" font-size="10.00">fft_psd_parallel</text>
</g>
<!-- Node16 -->
<g id="node2" class="node"><title>Node16</title>
<g id="a_node2"><a xlink:href="namespacecaiman_1_1source__extraction_1_1cnmf_1_1pre__processing.html#a4ac9105671d13333d3a5ac455d1cc0d5" target="_top" xlink:title="Estimate the noise level for each pixel by averaging the power spectral density. ">
<polygon fill="white" stroke="black" points="119.646,-0.5 119.646,-18.5 192.736,-18.5 192.736,-0.5 119.646,-0.5"/>
<text text-anchor="middle" x="156.191" y="-6.5" font-family="Helvetica,sans-Serif" font-size="10.00">get_noise_fft</text>
</a>
</g>
</g>
<!-- Node15&#45;&gt;Node16 -->
<g id="edge1" class="edge"><title>Node15&#45;&gt;Node16</title>
<path fill="none" stroke="midnightblue" d="M83.7086,-9.5C92.0065,-9.5 100.786,-9.5 109.246,-9.5"/>
<polygon fill="midnightblue" stroke="midnightblue" points="109.351,-13.0001 119.351,-9.5 109.351,-6.0001 109.351,-13.0001"/>
</g>
<!-- Node17 -->
<g id="node3" class="node"><title>Node17</title>
<g id="a_node3"><a xlink:href="namespacecaiman_1_1source__extraction_1_1cnmf_1_1pre__processing.html#a0f1c3f32c6192896b14b1691f8f4ce2f" target="_top" xlink:title="Averaging the PSD. ">
<polygon fill="white" stroke="black" points="228.736,-0.5 228.736,-18.5 291.436,-18.5 291.436,-0.5 228.736,-0.5"/>
<text text-anchor="middle" x="260.086" y="-6.5" font-family="Helvetica,sans-Serif" font-size="10.00">mean_psd</text>
</a>
</g>
</g>
<!-- Node16&#45;&gt;Node17 -->
<g id="edge2" class="edge"><title>Node16&#45;&gt;Node17</title>
<path fill="none" stroke="midnightblue" d="M192.829,-9.5C201.152,-9.5 210.077,-9.5 218.594,-9.5"/>
<polygon fill="midnightblue" stroke="midnightblue" points="218.713,-13.0001 228.713,-9.5 218.713,-6.0001 218.713,-13.0001"/>
</g>
</g>
</svg>
