<?xml version="1.0" encoding="UTF-8" standalone="no"?>
<!DOCTYPE svg PUBLIC "-//W3C//DTD SVG 1.1//EN"
 "http://www.w3.org/Graphics/SVG/1.1/DTD/svg11.dtd">
<!-- Generated by graphviz version 2.38.0 (20140413.2041)
 -->
<!-- Title: greedyROI Pages: 1 -->
<svg width="339pt" height="74pt"
 viewBox="0.00 0.00 338.89 74.00" xmlns="http://www.w3.org/2000/svg" xmlns:xlink="http://www.w3.org/1999/xlink">
<g id="graph0" class="graph" transform="scale(1 1) rotate(0) translate(4 70)">
<title>greedyROI</title>
<polygon fill="white" stroke="none" points="-4,4 -4,-70 334.891,-70 334.891,4 -4,4"/>
<!-- Node8 -->
<g id="node1" class="node"><title>Node8</title>
<polygon fill="#bfbfbf" stroke="black" points="0,-26.5 0,-44.5 64.3545,-44.5 64.3545,-26.5 0,-26.5"/>
<text text-anchor="middle" x="32.1772" y="-32.5" font-family="Helvetica,sans-Serif" font-size="10.00">greedyROI</text>
</g>
<!-- Node9 -->
<g id="node2" class="node"><title>Node9</title>
<g id="a_node2"><a xlink:href="namespacecaiman_1_1source__extraction_1_1cnmf_1_1initialization.html#ad762ff1c4aefedc408fe609de7cb1ebc" target="_top" xlink:title="Initalize components. ">
<polygon fill="white" stroke="black" points="159.817,-47.5 159.817,-65.5 271.428,-65.5 271.428,-47.5 159.817,-47.5"/>
<text text-anchor="middle" x="215.623" y="-53.5" font-family="Helvetica,sans-Serif" font-size="10.00">initialize_components</text>
</a>
</g>
</g>
<!-- Node8&#45;&gt;Node9 -->
<g id="edge1" class="edge"><title>Node8&#45;&gt;Node9</title>
<path fill="none" stroke="midnightblue" d="M74.352,-40.2655C99.6023,-43.1879 132.239,-46.9652 159.677,-50.1408"/>
<polygon fill="midnightblue" stroke="midnightblue" points="74.7049,-36.783 64.3688,-39.11 73.9001,-43.7366 74.7049,-36.783"/>
</g>
<!-- Node10 -->
<g id="node3" class="node"><title>Node10</title>
<g id="a_node3"><a xlink:href="namespacecaiman_1_1source__extraction_1_1cnmf_1_1utilities.html#ad671b2e9120b3437304b3149d174f625" target="_top" xlink:title="Plots contour of spatial components against a background image and allows to interactively add novel ...">
<polygon fill="white" stroke="black" points="100.354,-0.5 100.354,-28.5 330.891,-28.5 330.891,-0.5 100.354,-0.5"/>
<text text-anchor="start" x="108.354" y="-16.5" font-family="Helvetica,sans-Serif" font-size="10.00">caiman.source_extraction.cnmf.utilities.manually</text>
<text text-anchor="middle" x="215.623" y="-6.5" font-family="Helvetica,sans-Serif" font-size="10.00">_refine_components</text>
</a>
</g>
</g>
<!-- Node8&#45;&gt;Node10 -->
<g id="edge2" class="edge"><title>Node8&#45;&gt;Node10</title>
<path fill="none" stroke="midnightblue" d="M74.399,-30.7291C82.3768,-29.8058 91.0905,-28.7973 100.144,-27.7495"/>
<polygon fill="midnightblue" stroke="midnightblue" points="73.9001,-27.2634 64.3688,-31.89 74.7049,-34.217 73.9001,-27.2634"/>
</g>
</g>
</svg>
