<?xml version="1.0" encoding="UTF-8" standalone="no"?>
<!DOCTYPE svg PUBLIC "-//W3C//DTD SVG 1.1//EN"
 "http://www.w3.org/Graphics/SVG/1.1/DTD/svg11.dtd">
<!-- Generated by graphviz version 2.38.0 (20140413.2041)
 -->
<!-- Title: nb_view_patches Pages: 1 -->
<svg width="363pt" height="27pt"
 viewBox="0.00 0.00 362.58 27.00" xmlns="http://www.w3.org/2000/svg" xmlns:xlink="http://www.w3.org/1999/xlink">
<g id="graph0" class="graph" transform="scale(1 1) rotate(0) translate(4 23)">
<title>nb_view_patches</title>
<polygon fill="white" stroke="none" points="-4,4 -4,-23 358.575,-23 358.575,4 -4,4"/>
<!-- Node27 -->
<g id="node1" class="node"><title>Node27</title>
<polygon fill="#bfbfbf" stroke="black" points="0,-0.5 0,-18.5 93.2754,-18.5 93.2754,-0.5 0,-0.5"/>
<text text-anchor="middle" x="46.6377" y="-6.5" font-family="Helvetica,sans-Serif" font-size="10.00">nb_view_patches</text>
</g>
<!-- Node28 -->
<g id="node2" class="node"><title>Node28</title>
<g id="a_node2"><a xlink:href="namespacecaiman_1_1utils_1_1visualization.html#ad48f24a70009a82e7a8cafa02e283a0e" target="_top" xlink:title="Plots contour of spatial components against a background image and returns their coordinates. ">
<polygon fill="white" stroke="black" points="129.275,-0.5 129.275,-18.5 205.314,-18.5 205.314,-0.5 129.275,-0.5"/>
<text text-anchor="middle" x="167.295" y="-6.5" font-family="Helvetica,sans-Serif" font-size="10.00">plot_contours</text>
</a>
</g>
</g>
<!-- Node27&#45;&gt;Node28 -->
<g id="edge1" class="edge"><title>Node27&#45;&gt;Node28</title>
<path fill="none" stroke="midnightblue" d="M93.5137,-9.5C101.859,-9.5 110.58,-9.5 118.966,-9.5"/>
<polygon fill="midnightblue" stroke="midnightblue" points="118.983,-13.0001 128.983,-9.5 118.983,-6.0001 118.983,-13.0001"/>
</g>
<!-- Node29 -->
<g id="node3" class="node"><title>Node29</title>
<g id="a_node3"><a xlink:href="namespacecaiman_1_1base_1_1rois.html#ae37bc9f1a4e815bd7d8e44a2334883a2" target="_top" xlink:title="Calculation of the center of mass for spatial components. ">
<polygon fill="white" stroke="black" points="241.314,-0.5 241.314,-18.5 354.575,-18.5 354.575,-0.5 241.314,-0.5"/>
<text text-anchor="middle" x="297.945" y="-6.5" font-family="Helvetica,sans-Serif" font-size="10.00">caiman.base.rois.com</text>
</a>
</g>
</g>
<!-- Node28&#45;&gt;Node29 -->
<g id="edge2" class="edge"><title>Node28&#45;&gt;Node29</title>
<path fill="none" stroke="midnightblue" d="M205.506,-9.5C213.507,-9.5 222.192,-9.5 230.92,-9.5"/>
<polygon fill="midnightblue" stroke="midnightblue" points="231.146,-13.0001 241.146,-9.5 231.146,-6.0001 231.146,-13.0001"/>
</g>
</g>
</svg>
