<?xml version="1.0" encoding="UTF-8" standalone="no"?>
<!DOCTYPE svg PUBLIC "-//W3C//DTD SVG 1.1//EN"
 "http://www.w3.org/Graphics/SVG/1.1/DTD/svg11.dtd">
<!-- Generated by graphviz version 2.38.0 (20140413.2041)
 -->
<!-- Title: nf_match_neurons_in_binary_masks Pages: 1 -->
<svg width="244pt" height="64pt"
 viewBox="0.00 0.00 243.88 64.00" xmlns="http://www.w3.org/2000/svg" xmlns:xlink="http://www.w3.org/1999/xlink">
<g id="graph0" class="graph" transform="scale(1 1) rotate(0) translate(4 60)">
<title>nf_match_neurons_in_binary_masks</title>
<polygon fill="white" stroke="none" points="-4,4 -4,-60 239.876,-60 239.876,4 -4,4"/>
<!-- Node42 -->
<g id="node1" class="node"><title>Node42</title>
<polygon fill="#bfbfbf" stroke="black" points="0,-13.5 0,-41.5 112.177,-41.5 112.177,-13.5 0,-13.5"/>
<text text-anchor="start" x="8" y="-29.5" font-family="Helvetica,sans-Serif" font-size="10.00">nf_match_neurons_in</text>
<text text-anchor="middle" x="56.0884" y="-19.5" font-family="Helvetica,sans-Serif" font-size="10.00">_binary_masks</text>
</g>
<!-- Node43 -->
<g id="node2" class="node"><title>Node43</title>
<g id="a_node2"><a xlink:href="namespacecaiman_1_1base_1_1rois.html#adc8128004edb81aefbc6d8ba07557414" target="_top" xlink:title="Compute distance matrix based on an intersection over union metric. ">
<polygon fill="white" stroke="black" points="148.177,-37.5 148.177,-55.5 235.876,-55.5 235.876,-37.5 148.177,-37.5"/>
<text text-anchor="middle" x="192.026" y="-43.5" font-family="Helvetica,sans-Serif" font-size="10.00">distance_masks</text>
</a>
</g>
</g>
<!-- Node42&#45;&gt;Node43 -->
<g id="edge1" class="edge"><title>Node42&#45;&gt;Node43</title>
<path fill="none" stroke="midnightblue" d="M112.339,-35.3377C120.741,-36.5296 129.397,-37.7574 137.755,-38.9431"/>
<polygon fill="midnightblue" stroke="midnightblue" points="137.373,-42.4239 147.766,-40.3632 138.357,-35.4933 137.373,-42.4239"/>
</g>
<!-- Node44 -->
<g id="node3" class="node"><title>Node44</title>
<g id="a_node3"><a xlink:href="namespacecaiman_1_1base_1_1rois.html#ad8b7c6d1ce325bba2b0369a7ce7b8c85" target="_top" xlink:title="find_matches">
<polygon fill="white" stroke="black" points="154.288,-0.5 154.288,-18.5 229.765,-18.5 229.765,-0.5 154.288,-0.5"/>
<text text-anchor="middle" x="192.026" y="-6.5" font-family="Helvetica,sans-Serif" font-size="10.00">find_matches</text>
</a>
</g>
</g>
<!-- Node42&#45;&gt;Node44 -->
<g id="edge2" class="edge"><title>Node42&#45;&gt;Node44</title>
<path fill="none" stroke="midnightblue" d="M112.339,-20.0748C122.932,-18.6512 133.929,-17.1734 144.224,-15.7898"/>
<polygon fill="midnightblue" stroke="midnightblue" points="144.8,-19.244 154.245,-14.4431 143.867,-12.3063 144.8,-19.244"/>
</g>
</g>
</svg>
