<?xml version="1.0" encoding="UTF-8" standalone="no"?>
<!DOCTYPE svg PUBLIC "-//W3C//DTD SVG 1.1//EN"
 "http://www.w3.org/Graphics/SVG/1.1/DTD/svg11.dtd">
<!-- Generated by graphviz version 2.38.0 (20140413.2041)
 -->
<!-- Title: process_wheel_traces Pages: 1 -->
<svg width="415pt" height="37pt"
 viewBox="0.00 0.00 415.38 37.00" xmlns="http://www.w3.org/2000/svg" xmlns:xlink="http://www.w3.org/1999/xlink">
<g id="graph0" class="graph" transform="scale(1 1) rotate(0) translate(4 33)">
<title>process_wheel_traces</title>
<polygon fill="white" stroke="none" points="-4,4 -4,-33 411.378,-33 411.378,4 -4,4"/>
<!-- Node45 -->
<g id="node1" class="node"><title>Node45</title>
<polygon fill="#bfbfbf" stroke="black" points="0,-5.5 0,-23.5 115.497,-23.5 115.497,-5.5 0,-5.5"/>
<text text-anchor="middle" x="57.7485" y="-11.5" font-family="Helvetica,sans-Serif" font-size="10.00">process_wheel_traces</text>
</g>
<!-- Node46 -->
<g id="node2" class="node"><title>Node46</title>
<g id="a_node2"><a xlink:href="namespaceuse__cases_1_1granule__cells_1_1utils__granule.html#aad284806a8bd8ed473166a9107a11253" target="_top" xlink:title="From the partial data stored retrieves variables of interest. ">
<polygon fill="white" stroke="black" points="151.497,-0.5 151.497,-28.5 270.344,-28.5 270.344,-0.5 151.497,-0.5"/>
<text text-anchor="start" x="159.497" y="-16.5" font-family="Helvetica,sans-Serif" font-size="10.00">load_data_from_stored</text>
<text text-anchor="middle" x="210.92" y="-6.5" font-family="Helvetica,sans-Serif" font-size="10.00">_results</text>
</a>
</g>
</g>
<!-- Node45&#45;&gt;Node46 -->
<g id="edge1" class="edge"><title>Node45&#45;&gt;Node46</title>
<path fill="none" stroke="midnightblue" d="M126.105,-14.5C134.551,-14.5 143.136,-14.5 151.431,-14.5"/>
<polygon fill="midnightblue" stroke="midnightblue" points="125.9,-11.0001 115.9,-14.5 125.9,-18.0001 125.9,-11.0001"/>
</g>
<!-- Node47 -->
<g id="node3" class="node"><title>Node47</title>
<g id="a_node3"><a xlink:href="namespaceuse__cases_1_1granule__cells_1_1utils__granule.html#a0df0b96808c567e87ff6349d7ad41289" target="_top" xlink:title="Equivalent of take for the input format we are using. ">
<polygon fill="white" stroke="black" points="306.344,-5.5 306.344,-23.5 407.378,-23.5 407.378,-5.5 306.344,-5.5"/>
<text text-anchor="middle" x="356.861" y="-11.5" font-family="Helvetica,sans-Serif" font-size="10.00">extract_traces_mat</text>
</a>
</g>
</g>
<!-- Node46&#45;&gt;Node47 -->
<g id="edge2" class="edge"><title>Node46&#45;&gt;Node47</title>
<path fill="none" stroke="midnightblue" d="M280.538,-7.75651C289.168,-7.72296 297.862,-7.81905 306.123,-8.0448"/>
<polygon fill="midnightblue" stroke="midnightblue" points="280.432,-4.25729 270.466,-7.85547 280.5,-11.257 280.432,-4.25729"/>
</g>
<!-- Node47&#45;&gt;Node46 -->
<g id="edge3" class="edge"><title>Node47&#45;&gt;Node46</title>
<path fill="none" stroke="midnightblue" d="M295.978,-21.1647C287.542,-21.2848 278.877,-21.2781 270.466,-21.1445"/>
<polygon fill="midnightblue" stroke="midnightblue" points="296.198,-24.661 306.123,-20.9552 296.053,-17.6625 296.198,-24.661"/>
</g>
</g>
</svg>
