<?xml version="1.0" encoding="UTF-8" standalone="no"?>
<!DOCTYPE svg PUBLIC "-//W3C//DTD SVG 1.1//EN"
 "http://www.w3.org/Graphics/SVG/1.1/DTD/svg11.dtd">
<!-- Generated by graphviz version 2.38.0 (20140413.2041)
 -->
<!-- Title: motion_correct_online Pages: 1 -->
<svg width="282pt" height="64pt"
 viewBox="0.00 0.00 281.66 64.00" xmlns="http://www.w3.org/2000/svg" xmlns:xlink="http://www.w3.org/1999/xlink">
<g id="graph0" class="graph" transform="scale(1 1) rotate(0) translate(4 60)">
<title>motion_correct_online</title>
<polygon fill="white" stroke="none" points="-4,4 -4,-60 277.664,-60 277.664,4 -4,4"/>
<!-- Node85 -->
<g id="node1" class="node"><title>Node85</title>
<polygon fill="#bfbfbf" stroke="black" points="0,-18.5 0,-36.5 114.389,-36.5 114.389,-18.5 0,-18.5"/>
<text text-anchor="middle" x="57.1943" y="-24.5" font-family="Helvetica,sans-Serif" font-size="10.00">motion_correct_online</text>
</g>
<!-- Node86 -->
<g id="node2" class="node"><title>Node86</title>
<g id="a_node2"><a xlink:href="namespacecaiman_1_1motion__correction.html#a089b96a369b9ee10a01d01e3df54c3bb" target="_top" xlink:title="compute median of 3D array in along axis o by binning values Parameters ">
<polygon fill="white" stroke="black" points="178.174,-37.5 178.174,-55.5 245.878,-55.5 245.878,-37.5 178.174,-37.5"/>
<text text-anchor="middle" x="212.026" y="-43.5" font-family="Helvetica,sans-Serif" font-size="10.00">bin_median</text>
</a>
</g>
</g>
<!-- Node85&#45;&gt;Node86 -->
<g id="edge1" class="edge"><title>Node85&#45;&gt;Node86</title>
<path fill="none" stroke="midnightblue" d="M114.669,-34.5209C132.273,-36.7095 151.396,-39.0867 167.93,-41.1423"/>
<polygon fill="midnightblue" stroke="midnightblue" points="167.498,-44.6155 177.854,-42.376 168.362,-37.669 167.498,-44.6155"/>
</g>
<!-- Node87 -->
<g id="node3" class="node"><title>Node87</title>
<g id="a_node3"><a xlink:href="namespacecaiman_1_1motion__correction.html#acc77134c68d447075e79102eca9649e1" target="_top" xlink:title="motion_correct_iteration">
<polygon fill="white" stroke="black" points="150.389,-0.5 150.389,-18.5 273.664,-18.5 273.664,-0.5 150.389,-0.5"/>
<text text-anchor="middle" x="212.026" y="-6.5" font-family="Helvetica,sans-Serif" font-size="10.00">motion_correct_iteration</text>
</a>
</g>
</g>
<!-- Node85&#45;&gt;Node87 -->
<g id="edge2" class="edge"><title>Node85&#45;&gt;Node87</title>
<path fill="none" stroke="midnightblue" d="M114.669,-20.8486C122.981,-19.8697 131.631,-18.8509 140.188,-17.8431"/>
<polygon fill="midnightblue" stroke="midnightblue" points="140.641,-21.314 150.163,-16.6682 139.823,-14.362 140.641,-21.314"/>
</g>
</g>
</svg>
