<?xml version="1.0" encoding="UTF-8" standalone="no"?>
<!DOCTYPE svg PUBLIC "-//W3C//DTD SVG 1.1//EN"
 "http://www.w3.org/Graphics/SVG/1.1/DTD/svg11.dtd">
<!-- Generated by graphviz version 2.38.0 (20140413.2041)
 -->
<!-- Title: sbxreadskip Pages: 1 -->
<svg width="281pt" height="27pt"
 viewBox="0.00 0.00 280.88 27.00" xmlns="http://www.w3.org/2000/svg" xmlns:xlink="http://www.w3.org/1999/xlink">
<g id="graph0" class="graph" transform="scale(1 1) rotate(0) translate(4 23)">
<title>sbxreadskip</title>
<polygon fill="white" stroke="none" points="-4,4 -4,-23 276.876,-23 276.876,4 -4,4"/>
<!-- Node58 -->
<g id="node1" class="node"><title>Node58</title>
<polygon fill="#bfbfbf" stroke="black" points="0,-0.5 0,-18.5 69.3594,-18.5 69.3594,-0.5 0,-0.5"/>
<text text-anchor="middle" x="34.6797" y="-6.5" font-family="Helvetica,sans-Serif" font-size="10.00">sbxreadskip</text>
</g>
<!-- Node59 -->
<g id="node2" class="node"><title>Node59</title>
<g id="a_node2"><a xlink:href="namespacecaiman_1_1base_1_1movies.html#a6d585c260307278135a0b4b09440b313" target="_top" xlink:title="load movie from file. ">
<polygon fill="white" stroke="black" points="105.359,-0.5 105.359,-18.5 140.266,-18.5 140.266,-0.5 105.359,-0.5"/>
<text text-anchor="middle" x="122.812" y="-6.5" font-family="Helvetica,sans-Serif" font-size="10.00">load</text>
</a>
</g>
</g>
<!-- Node58&#45;&gt;Node59 -->
<g id="edge1" class="edge"><title>Node58&#45;&gt;Node59</title>
<path fill="none" stroke="midnightblue" d="M79.893,-9.5C88.9523,-9.5 97.9438,-9.5 105.263,-9.5"/>
<polygon fill="midnightblue" stroke="midnightblue" points="79.7217,-6.0001 69.7217,-9.5 79.7216,-13.0001 79.7217,-6.0001"/>
</g>
<!-- Node60 -->
<g id="node3" class="node"><title>Node60</title>
<g id="a_node3"><a xlink:href="namespacecaiman_1_1base_1_1movies.html#a5a35758b31edb4a9b2105a058a0882a6" target="_top" xlink:title="load movies from list of file names ">
<polygon fill="white" stroke="black" points="176.266,-0.5 176.266,-18.5 272.876,-18.5 272.876,-0.5 176.266,-0.5"/>
<text text-anchor="middle" x="224.571" y="-6.5" font-family="Helvetica,sans-Serif" font-size="10.00">load_movie_chain</text>
</a>
</g>
</g>
<!-- Node59&#45;&gt;Node60 -->
<g id="edge2" class="edge"><title>Node59&#45;&gt;Node60</title>
<path fill="none" stroke="midnightblue" d="M150.358,-3.45469C158.283,-2.93884 167.222,-2.7062 176.061,-2.75677"/>
<polygon fill="midnightblue" stroke="midnightblue" points="149.943,0.0224901 140.286,-4.33368 150.552,-6.95101 149.943,0.0224901"/>
</g>
<!-- Node60&#45;&gt;Node59 -->
<g id="edge3" class="edge"><title>Node60&#45;&gt;Node59</title>
<path fill="none" stroke="midnightblue" d="M165.835,-16.175C156.489,-15.9953 147.52,-15.4924 140.286,-14.6663"/>
<polygon fill="midnightblue" stroke="midnightblue" points="166.038,-19.6763 176.061,-16.2432 166.085,-12.6765 166.038,-19.6763"/>
</g>
</g>
</svg>
