<?xml version="1.0" encoding="UTF-8" standalone="no"?>
<!DOCTYPE svg PUBLIC "-//W3C//DTD SVG 1.1//EN"
 "http://www.w3.org/Graphics/SVG/1.1/DTD/svg11.dtd">
<!-- Generated by graphviz version 2.38.0 (20140413.2041)
 -->
<!-- Title: extractROIsFromPCAICA Pages: 1 -->
<svg width="668pt" height="37pt"
 viewBox="0.00 0.00 668.21 37.00" xmlns="http://www.w3.org/2000/svg" xmlns:xlink="http://www.w3.org/1999/xlink">
<g id="graph0" class="graph" transform="scale(1 1) rotate(0) translate(4 33)">
<title>extractROIsFromPCAICA</title>
<polygon fill="white" stroke="none" points="-4,4 -4,-33 664.21,-33 664.21,4 -4,4"/>
<!-- Node25 -->
<g id="node1" class="node"><title>Node25</title>
<polygon fill="#bfbfbf" stroke="black" points="0,-5.5 0,-23.5 129.35,-23.5 129.35,-5.5 0,-5.5"/>
<text text-anchor="middle" x="64.6748" y="-11.5" font-family="Helvetica,sans-Serif" font-size="10.00">extractROIsFromPCAICA</text>
</g>
<!-- Node26 -->
<g id="node2" class="node"><title>Node26</title>
<g id="a_node2"><a xlink:href="namespacecaiman_1_1source__extraction_1_1cnmf_1_1initialization.html#a88bfdfe3cc85c90317fb6d8d6c09f792" target="_top" xlink:title="Initialization using ICA and PCA. ">
<polygon fill="white" stroke="black" points="165.35,-0.5 165.35,-28.5 376.994,-28.5 376.994,-0.5 165.35,-0.5"/>
<text text-anchor="start" x="173.35" y="-16.5" font-family="Helvetica,sans-Serif" font-size="10.00">caiman.source_extraction.cnmf.initialization.</text>
<text text-anchor="middle" x="271.172" y="-6.5" font-family="Helvetica,sans-Serif" font-size="10.00">ICA_PCA</text>
</a>
</g>
</g>
<!-- Node25&#45;&gt;Node26 -->
<g id="edge1" class="edge"><title>Node25&#45;&gt;Node26</title>
<path fill="none" stroke="midnightblue" d="M139.565,-14.5C147.91,-14.5 156.528,-14.5 165.173,-14.5"/>
<polygon fill="midnightblue" stroke="midnightblue" points="139.538,-11.0001 129.538,-14.5 139.538,-18.0001 139.538,-11.0001"/>
</g>
<!-- Node27 -->
<g id="node3" class="node"><title>Node27</title>
<g id="a_node3"><a xlink:href="namespacecaiman_1_1source__extraction_1_1cnmf_1_1initialization.html#ad762ff1c4aefedc408fe609de7cb1ebc" target="_top" xlink:title="Initalize components. ">
<polygon fill="white" stroke="black" points="412.994,-0.5 412.994,-28.5 660.21,-28.5 660.21,-0.5 412.994,-0.5"/>
<text text-anchor="start" x="420.994" y="-16.5" font-family="Helvetica,sans-Serif" font-size="10.00">caiman.source_extraction.cnmf.initialization.initialize</text>
<text text-anchor="middle" x="536.602" y="-6.5" font-family="Helvetica,sans-Serif" font-size="10.00">_components</text>
</a>
</g>
</g>
<!-- Node26&#45;&gt;Node27 -->
<g id="edge2" class="edge"><title>Node26&#45;&gt;Node27</title>
<path fill="none" stroke="midnightblue" d="M387.311,-14.5C395.775,-14.5 404.331,-14.5 412.838,-14.5"/>
<polygon fill="midnightblue" stroke="midnightblue" points="387.043,-11.0001 377.043,-14.5 387.043,-18.0001 387.043,-11.0001"/>
</g>
</g>
</svg>
