<?xml version="1.0" encoding="UTF-8" standalone="no"?>
<!DOCTYPE svg PUBLIC "-//W3C//DTD SVG 1.1//EN"
 "http://www.w3.org/Graphics/SVG/1.1/DTD/svg11.dtd">
<!-- Generated by graphviz version 2.38.0 (20140413.2041)
 -->
<!-- Title: sbxread Pages: 1 -->
<svg width="263pt" height="27pt"
 viewBox="0.00 0.00 263.09 27.00" xmlns="http://www.w3.org/2000/svg" xmlns:xlink="http://www.w3.org/1999/xlink">
<g id="graph0" class="graph" transform="scale(1 1) rotate(0) translate(4 23)">
<title>sbxread</title>
<polygon fill="white" stroke="none" points="-4,4 -4,-23 259.093,-23 259.093,4 -4,4"/>
<!-- Node51 -->
<g id="node1" class="node"><title>Node51</title>
<polygon fill="#bfbfbf" stroke="black" points="0,-0.5 0,-18.5 51.5762,-18.5 51.5762,-0.5 0,-0.5"/>
<text text-anchor="middle" x="25.7881" y="-6.5" font-family="Helvetica,sans-Serif" font-size="10.00">sbxread</text>
</g>
<!-- Node52 -->
<g id="node2" class="node"><title>Node52</title>
<g id="a_node2"><a xlink:href="namespacecaiman_1_1base_1_1movies.html#a6d585c260307278135a0b4b09440b313" target="_top" xlink:title="load movie from file. ">
<polygon fill="white" stroke="black" points="87.5762,-0.5 87.5762,-18.5 122.482,-18.5 122.482,-0.5 87.5762,-0.5"/>
<text text-anchor="middle" x="105.029" y="-6.5" font-family="Helvetica,sans-Serif" font-size="10.00">load</text>
</a>
</g>
</g>
<!-- Node51&#45;&gt;Node52 -->
<g id="edge1" class="edge"><title>Node51&#45;&gt;Node52</title>
<path fill="none" stroke="midnightblue" d="M61.8189,-9.5C70.6744,-9.5 79.7838,-9.5 87.2632,-9.5"/>
<polygon fill="midnightblue" stroke="midnightblue" points="61.6529,-6.0001 51.6529,-9.5 61.6528,-13.0001 61.6529,-6.0001"/>
</g>
<!-- Node53 -->
<g id="node3" class="node"><title>Node53</title>
<g id="a_node3"><a xlink:href="namespacecaiman_1_1base_1_1movies.html#a5a35758b31edb4a9b2105a058a0882a6" target="_top" xlink:title="load movies from list of file names ">
<polygon fill="white" stroke="black" points="158.482,-0.5 158.482,-18.5 255.093,-18.5 255.093,-0.5 158.482,-0.5"/>
<text text-anchor="middle" x="206.788" y="-6.5" font-family="Helvetica,sans-Serif" font-size="10.00">load_movie_chain</text>
</a>
</g>
</g>
<!-- Node52&#45;&gt;Node53 -->
<g id="edge2" class="edge"><title>Node52&#45;&gt;Node53</title>
<path fill="none" stroke="midnightblue" d="M132.575,-3.45469C140.5,-2.93884 149.438,-2.7062 158.278,-2.75677"/>
<polygon fill="midnightblue" stroke="midnightblue" points="132.16,0.0224901 122.502,-4.33368 132.769,-6.95101 132.16,0.0224901"/>
</g>
<!-- Node53&#45;&gt;Node52 -->
<g id="edge3" class="edge"><title>Node53&#45;&gt;Node52</title>
<path fill="none" stroke="midnightblue" d="M148.052,-16.175C138.705,-15.9953 129.736,-15.4924 122.502,-14.6663"/>
<polygon fill="midnightblue" stroke="midnightblue" points="148.255,-19.6763 158.278,-16.2432 148.301,-12.6765 148.255,-19.6763"/>
</g>
</g>
</svg>
