<?xml version="1.0" encoding="UTF-8" standalone="no"?>
<!DOCTYPE svg PUBLIC "-//W3C//DTD SVG 1.1//EN"
 "http://www.w3.org/Graphics/SVG/1.1/DTD/svg11.dtd">
<!-- Generated by graphviz version 2.38.0 (20140413.2041)
 -->
<!-- Title: update_order_greedy Pages: 1 -->
<svg width="645pt" height="37pt"
 viewBox="0.00 0.00 645.50 37.00" xmlns="http://www.w3.org/2000/svg" xmlns:xlink="http://www.w3.org/1999/xlink">
<g id="graph0" class="graph" transform="scale(1 1) rotate(0) translate(4 33)">
<title>update_order_greedy</title>
<polygon fill="white" stroke="none" points="-4,4 -4,-33 641.495,-33 641.495,4 -4,4"/>
<!-- Node30 -->
<g id="node1" class="node"><title>Node30</title>
<polygon fill="#bfbfbf" stroke="black" points="0,-5.5 0,-23.5 111.63,-23.5 111.63,-5.5 0,-5.5"/>
<text text-anchor="middle" x="55.8149" y="-11.5" font-family="Helvetica,sans-Serif" font-size="10.00">update_order_greedy</text>
</g>
<!-- Node31 -->
<g id="node2" class="node"><title>Node31</title>
<g id="a_node2"><a xlink:href="namespacecaiman_1_1source__extraction_1_1cnmf_1_1temporal.html#ae56ee735c5b8f6fdaca8baaee1371d58" target="_top" xlink:title="Update temporal components and background given spatial components using a block coordinate descent a...">
<polygon fill="white" stroke="black" points="147.63,-0.5 147.63,-28.5 377.072,-28.5 377.072,-0.5 147.63,-0.5"/>
<text text-anchor="start" x="155.63" y="-16.5" font-family="Helvetica,sans-Serif" font-size="10.00">caiman.source_extraction.cnmf.temporal.update</text>
<text text-anchor="middle" x="262.351" y="-6.5" font-family="Helvetica,sans-Serif" font-size="10.00">_temporal_components</text>
</a>
</g>
</g>
<!-- Node30&#45;&gt;Node31 -->
<g id="edge1" class="edge"><title>Node30&#45;&gt;Node31</title>
<path fill="none" stroke="midnightblue" d="M122.035,-14.5C130.208,-14.5 138.747,-14.5 147.399,-14.5"/>
<polygon fill="midnightblue" stroke="midnightblue" points="121.896,-11.0001 111.896,-14.5 121.896,-18.0001 121.896,-11.0001"/>
</g>
<!-- Node32 -->
<g id="node3" class="node"><title>Node32</title>
<g id="a_node3"><a xlink:href="namespacecaiman_1_1source__extraction_1_1cnmf_1_1merging.html#ad08adf2e086a22ef379b10ed3ee36936" target="_top" xlink:title="Merging of spatially overlapping components that have highly correlated temporal activity The correla...">
<polygon fill="white" stroke="black" points="413.072,-0.5 413.072,-28.5 637.495,-28.5 637.495,-0.5 413.072,-0.5"/>
<text text-anchor="start" x="421.072" y="-16.5" font-family="Helvetica,sans-Serif" font-size="10.00">caiman.source_extraction.cnmf.merging.merge</text>
<text text-anchor="middle" x="525.284" y="-6.5" font-family="Helvetica,sans-Serif" font-size="10.00">_components</text>
</a>
</g>
</g>
<!-- Node31&#45;&gt;Node32 -->
<g id="edge2" class="edge"><title>Node31&#45;&gt;Node32</title>
<path fill="none" stroke="midnightblue" d="M387.684,-14.5C396.119,-14.5 404.589,-14.5 412.952,-14.5"/>
<polygon fill="midnightblue" stroke="midnightblue" points="387.42,-11.0001 377.42,-14.5 387.42,-18.0001 387.42,-11.0001"/>
</g>
</g>
</svg>
