<?xml version="1.0" encoding="UTF-8" standalone="no"?>
<!DOCTYPE svg PUBLIC "-//W3C//DTD SVG 1.1//EN"
 "http://www.w3.org/Graphics/SVG/1.1/DTD/svg11.dtd">
<!-- Generated by graphviz version 2.38.0 (20140413.2041)
 -->
<!-- Title: motion_correct_batch_rigid Pages: 1 -->
<svg width="449pt" height="37pt"
 viewBox="0.00 0.00 449.28 37.00" xmlns="http://www.w3.org/2000/svg" xmlns:xlink="http://www.w3.org/1999/xlink">
<g id="graph0" class="graph" transform="scale(1 1) rotate(0) translate(4 33)">
<title>motion_correct_batch_rigid</title>
<polygon fill="white" stroke="none" points="-4,4 -4,-33 445.279,-33 445.279,4 -4,4"/>
<!-- Node76 -->
<g id="node1" class="node"><title>Node76</title>
<polygon fill="#bfbfbf" stroke="black" points="0,-0.5 0,-28.5 112.162,-28.5 112.162,-0.5 0,-0.5"/>
<text text-anchor="start" x="8" y="-16.5" font-family="Helvetica,sans-Serif" font-size="10.00">motion_correct_batch</text>
<text text-anchor="middle" x="56.0811" y="-6.5" font-family="Helvetica,sans-Serif" font-size="10.00">_rigid</text>
</g>
<!-- Node77 -->
<g id="node2" class="node"><title>Node77</title>
<g id="a_node2"><a xlink:href="namespacecaiman_1_1motion__correction.html#a29956f4cd15f5c59388862472d370986" target="_top" xlink:title="Function that perform memory efficient hyper parallelized rigid motion corrections while also saving ...">
<polygon fill="white" stroke="black" points="148.162,-0.5 148.162,-28.5 260.324,-28.5 260.324,-0.5 148.162,-0.5"/>
<text text-anchor="start" x="156.162" y="-16.5" font-family="Helvetica,sans-Serif" font-size="10.00">motion_correct_batch</text>
<text text-anchor="middle" x="204.243" y="-6.5" font-family="Helvetica,sans-Serif" font-size="10.00">_pwrigid</text>
</a>
</g>
</g>
<!-- Node76&#45;&gt;Node77 -->
<g id="edge1" class="edge"><title>Node76&#45;&gt;Node77</title>
<path fill="none" stroke="midnightblue" d="M112.339,-14.5C120.615,-14.5 129.216,-14.5 137.681,-14.5"/>
<polygon fill="midnightblue" stroke="midnightblue" points="137.907,-18.0001 147.907,-14.5 137.907,-11.0001 137.907,-18.0001"/>
</g>
<!-- Node78 -->
<g id="node3" class="node"><title>Node78</title>
<g id="a_node3"><a xlink:href="namespacecaiman_1_1motion__correction.html#a0609d5c64bb9cae41d945bbc89535d2a" target="_top" xlink:title="motion_correction_piecewise">
<polygon fill="white" stroke="black" points="296.324,-5.5 296.324,-23.5 441.279,-23.5 441.279,-5.5 296.324,-5.5"/>
<text text-anchor="middle" x="368.802" y="-11.5" font-family="Helvetica,sans-Serif" font-size="10.00">motion_correction_piecewise</text>
</a>
</g>
</g>
<!-- Node77&#45;&gt;Node78 -->
<g id="edge2" class="edge"><title>Node77&#45;&gt;Node78</title>
<path fill="none" stroke="midnightblue" d="M260.732,-14.5C268.929,-14.5 277.517,-14.5 286.111,-14.5"/>
<polygon fill="midnightblue" stroke="midnightblue" points="286.18,-18.0001 296.18,-14.5 286.18,-11.0001 286.18,-18.0001"/>
</g>
</g>
</svg>
