<?xml version="1.0" encoding="UTF-8" standalone="no"?>
<!DOCTYPE svg PUBLIC "-//W3C//DTD SVG 1.1//EN"
 "http://www.w3.org/Graphics/SVG/1.1/DTD/svg11.dtd">
<!-- Generated by graphviz version 2.38.0 (20140413.2041)
 -->
<!-- Title: _nnls Pages: 1 -->
<!--zoomable 126 -->
<svg id="main" version="1.1" xmlns="http://www.w3.org/2000/svg" xmlns:xlink="http://www.w3.org/1999/xlink" xml:space="preserve" onload="init(evt)">
<style type="text/css"><![CDATA[
.edge:hover path { stroke: red; }
.edge:hover polygon { stroke: red; fill: red; }
]]></style>
<script type="text/javascript"><![CDATA[
var edges = document.getElementsByTagName('g');
if (edges && edges.length) {
  for (var i=0;i<edges.length;i++) {
    if (edges[i].id.substr(0,4)=='edge') {
      edges[i].setAttribute('class','edge');
    }
  }
}
]]></script>
        <defs>
                <circle id="rim" cx="0" cy="0" r="7"/>
                <circle id="rim2" cx="0" cy="0" r="3.5"/>
                <g id="zoomPlus">
                        <use xlink:href="#rim" fill="#404040">
                                <set attributeName="fill" to="#808080" begin="zoomplus.mouseover" end="zoomplus.mouseout"/>
                        </use>
                        <path d="M-4,0h8M0,-4v8" fill="none" stroke="white" stroke-width="1.5" pointer-events="none"/>
                </g>
                <g id="zoomMin">
                        <use xlink:href="#rim" fill="#404040">
                                <set attributeName="fill" to="#808080" begin="zoomminus.mouseover" end="zoomminus.mouseout"/>
                        </use>
                        <path d="M-4,0h8" fill="none" stroke="white" stroke-width="1.5" pointer-events="none"/>
                </g>
                <g id="dirArrow">
                        <path fill="none" stroke="white" stroke-width="1.5" d="M0,-3.0v7 M-2.5,-0.5L0,-3.0L2.5,-0.5"/>
                </g>
               <g id="resetDef">
                       <use xlink:href="#rim2" fill="#404040">
                               <set attributeName="fill" to="#808080" begin="reset.mouseover" end="reset.mouseout"/>
                       </use>
               </g>
        </defs>

<script type="text/javascript">
var viewWidth = 912;
var viewHeight = 126;
var sectionId = 'dynsection-0';
</script>
<script xlink:href="svgpan.js"/>
<svg id="graph" class="graph">
<g id="viewport">
<title>_nnls</title>
<polygon fill="white" stroke="none" points="-4,4 -4,-122 907.573,-122 907.573,4 -4,4"/>
<!-- Node1 -->
<g id="node1" class="node"><title>Node1</title>
<polygon fill="#bfbfbf" stroke="black" points="0,-47.5 0,-65.5 39.9062,-65.5 39.9062,-47.5 0,-47.5"/>
<text text-anchor="middle" x="19.9531" y="-53.5" font-family="Helvetica,sans-Serif" font-size="10.00">_nnls</text>
</g>
<!-- Node2 -->
<g id="node2" class="node"><title>Node2</title>
<g id="a_node2"><a xlink:href="namespacecaiman_1_1source__extraction_1_1cnmf_1_1deconvolution.html#affae481e26d5e13bc6f62c6e643b63d5" target="_top" xlink:title="Infer the most likely discretized spike train underlying an AR(2) fluorescence trace. ">
<polygon fill="white" stroke="black" points="75.9062,-47.5 75.9062,-65.5 115.812,-65.5 115.812,-47.5 75.9062,-47.5"/>
<text text-anchor="middle" x="95.8594" y="-53.5" font-family="Helvetica,sans-Serif" font-size="10.00">onnls</text>
</a>
</g>
</g>
<!-- Node1&#45;&gt;Node2 -->
<g id="edge1" class="edge"><title>Node1&#45;&gt;Node2</title>
<path fill="none" stroke="midnightblue" d="M50.1238,-56.5C58.7899,-56.5 68.0542,-56.5 75.8912,-56.5"/>
<polygon fill="midnightblue" stroke="midnightblue" points="49.9859,-53.0001 39.9858,-56.5 49.9858,-60.0001 49.9859,-53.0001"/>
</g>
<!-- Node3 -->
<g id="node3" class="node"><title>Node3</title>
<g id="a_node3"><a xlink:href="namespacecaiman_1_1source__extraction_1_1cnmf_1_1deconvolution.html#a5753e123f06d6f8a5f53e8f1cc50baba" target="_top" xlink:title="Infer the most likely discretized spike train underlying an AR(2) fluorescence trace. ">
<polygon fill="white" stroke="black" points="151.812,-47.5 151.812,-65.5 267.871,-65.5 267.871,-47.5 151.812,-47.5"/>
<text text-anchor="middle" x="209.842" y="-53.5" font-family="Helvetica,sans-Serif" font-size="10.00">constrained_oasisAR2</text>
</a>
</g>
</g>
<!-- Node2&#45;&gt;Node3 -->
<g id="edge2" class="edge"><title>Node2&#45;&gt;Node3</title>
<path fill="none" stroke="midnightblue" d="M125.964,-50.4957C133.864,-50.0212 142.7,-49.7732 151.579,-49.7515"/>
<polygon fill="midnightblue" stroke="midnightblue" points="125.554,-47.0169 115.856,-51.283 126.097,-53.9958 125.554,-47.0169"/>
</g>
<!-- Node3&#45;&gt;Node2 -->
<g id="edge8" class="edge"><title>Node3&#45;&gt;Node2</title>
<path fill="none" stroke="midnightblue" d="M141.358,-63.122C132.052,-62.912 123.188,-62.4437 115.856,-61.717"/>
<polygon fill="midnightblue" stroke="midnightblue" points="141.537,-66.6244 151.579,-63.2485 141.623,-59.6249 141.537,-66.6244"/>
</g>
<!-- Node4 -->
<g id="node4" class="node"><title>Node4</title>
<g id="a_node4"><a xlink:href="namespacecaiman_1_1source__extraction_1_1cnmf_1_1deconvolution.html#a0afb63d84485a181bb40f2eefe7b581e" target="_top" xlink:title="Infer the most likely discretized spike train underlying a fluorescence trace. ">
<polygon fill="white" stroke="black" points="303.871,-47.5 303.871,-65.5 403.816,-65.5 403.816,-47.5 303.871,-47.5"/>
<text text-anchor="middle" x="353.844" y="-53.5" font-family="Helvetica,sans-Serif" font-size="10.00">constrained_foopsi</text>
</a>
</g>
</g>
<!-- Node3&#45;&gt;Node4 -->
<g id="edge3" class="edge"><title>Node3&#45;&gt;Node4</title>
<path fill="none" stroke="midnightblue" d="M278.433,-56.5C286.883,-56.5 295.397,-56.5 303.496,-56.5"/>
<polygon fill="midnightblue" stroke="midnightblue" points="278.19,-53.0001 268.19,-56.5 278.19,-60.0001 278.19,-53.0001"/>
</g>
<!-- Node5 -->
<g id="node5" class="node"><title>Node5</title>
<g id="a_node5"><a xlink:href="namespacecaiman_1_1source__extraction_1_1cnmf_1_1merging.html#ad08adf2e086a22ef379b10ed3ee36936" target="_top" xlink:title="Merging of spatially overlapping components that have highly correlated temporal activity The correla...">
<polygon fill="white" stroke="black" points="452.883,-89.5 452.883,-117.5 677.306,-117.5 677.306,-89.5 452.883,-89.5"/>
<text text-anchor="start" x="460.883" y="-105.5" font-family="Helvetica,sans-Serif" font-size="10.00">caiman.source_extraction.cnmf.merging.merge</text>
<text text-anchor="middle" x="565.094" y="-95.5" font-family="Helvetica,sans-Serif" font-size="10.00">_components</text>
</a>
</g>
</g>
<!-- Node4&#45;&gt;Node5 -->
<g id="edge4" class="edge"><title>Node4&#45;&gt;Node5</title>
<path fill="none" stroke="midnightblue" d="M394.168,-68.4239C408.466,-72.5425 424.8,-76.9978 439.816,-80.5 453.492,-83.6897 468.098,-86.7221 482.313,-89.4764"/>
<polygon fill="midnightblue" stroke="midnightblue" points="394.744,-64.9461 384.164,-65.5028 392.782,-71.6655 394.744,-64.9461"/>
</g>
<!-- Node6 -->
<g id="node6" class="node"><title>Node6</title>
<g id="a_node6"><a xlink:href="namespacecaiman_1_1source__extraction_1_1cnmf_1_1temporal.html#a2ede407f1e0d0722f51ddb6e99f48f9f" target="_top" xlink:title="necessary for parallel computation of the function constrained_foopsi ">
<polygon fill="white" stroke="black" points="439.816,-42.5 439.816,-70.5 690.372,-70.5 690.372,-42.5 439.816,-42.5"/>
<text text-anchor="start" x="447.816" y="-58.5" font-family="Helvetica,sans-Serif" font-size="10.00">caiman.source_extraction.cnmf.temporal.constrained</text>
<text text-anchor="middle" x="565.094" y="-48.5" font-family="Helvetica,sans-Serif" font-size="10.00">_foopsi_parallel</text>
</a>
</g>
</g>
<!-- Node4&#45;&gt;Node6 -->
<g id="edge5" class="edge"><title>Node4&#45;&gt;Node6</title>
<path fill="none" stroke="midnightblue" d="M413.979,-56.5C422.142,-56.5 430.765,-56.5 439.583,-56.5"/>
<polygon fill="midnightblue" stroke="midnightblue" points="413.904,-53.0001 403.904,-56.5 413.904,-60.0001 413.904,-53.0001"/>
</g>
<!-- Node7 -->
<g id="node7" class="node"><title>Node7</title>
<g id="a_node7"><a xlink:href="namespacecaiman_1_1tests_1_1test__deconvolution.html#aaebeed7ce9541fa4c56791c67009cdc6" target="_top" xlink:title="caiman.tests.test_deconvolution.foo">
<polygon fill="white" stroke="black" points="477.602,-5.5 477.602,-23.5 652.586,-23.5 652.586,-5.5 477.602,-5.5"/>
<text text-anchor="middle" x="565.094" y="-11.5" font-family="Helvetica,sans-Serif" font-size="10.00">caiman.tests.test_deconvolution.foo</text>
</a>
</g>
</g>
<!-- Node4&#45;&gt;Node7 -->
<g id="edge6" class="edge"><title>Node4&#45;&gt;Node7</title>
<path fill="none" stroke="midnightblue" d="M394.828,-44.6817C408.958,-40.7705 425.016,-36.6241 439.816,-33.5 457.862,-29.6909 477.535,-26.3263 495.795,-23.5278"/>
<polygon fill="midnightblue" stroke="midnightblue" points="393.602,-41.3908 384.925,-47.4702 395.499,-48.1287 393.602,-41.3908"/>
</g>
<!-- Node8 -->
<g id="node8" class="node"><title>Node8</title>
<g id="a_node8"><a xlink:href="namespacecaiman_1_1tests_1_1test__deconvolution.html#a90f82ae854f8179179664fe34973f11b" target="_top" xlink:title="caiman.tests.test_deconvolution.test\l_oasis">
<polygon fill="white" stroke="black" points="726.372,-0.5 726.372,-28.5 903.573,-28.5 903.573,-0.5 726.372,-0.5"/>
<text text-anchor="start" x="734.372" y="-16.5" font-family="Helvetica,sans-Serif" font-size="10.00">caiman.tests.test_deconvolution.test</text>
<text text-anchor="middle" x="814.973" y="-6.5" font-family="Helvetica,sans-Serif" font-size="10.00">_oasis</text>
</a>
</g>
</g>
<!-- Node7&#45;&gt;Node8 -->
<g id="edge7" class="edge"><title>Node7&#45;&gt;Node8</title>
<path fill="none" stroke="midnightblue" d="M662.911,-14.5C683.726,-14.5 705.614,-14.5 726.068,-14.5"/>
<polygon fill="midnightblue" stroke="midnightblue" points="662.79,-11.0001 652.79,-14.5 662.79,-18.0001 662.79,-11.0001"/>
</g>
</g>
</svg>
        <g id="navigator" transform="translate(0 0)" fill="#404254">
                <rect fill="#f2f5e9" fill-opacity="0.5" stroke="#606060" stroke-width=".5" x="0" y="0" width="60" height="60"/>
                <use id="zoomplus" xlink:href="#zoomPlus" x="17" y="9" onmousedown="handleZoom(evt,'in')"/>
                <use id="zoomminus" xlink:href="#zoomMin" x="42" y="9" onmousedown="handleZoom(evt,'out')"/>
                <use id="reset" xlink:href="#resetDef" x="30" y="36" onmousedown="handleReset()"/>
                <g id="arrowUp" xlink:href="#dirArrow" transform="translate(30 24)" onmousedown="handlePan(0,-1)">
                  <use xlink:href="#rim" fill="#404040">
                        <set attributeName="fill" to="#808080" begin="arrowUp.mouseover" end="arrowUp.mouseout"/>
                  </use>
                  <path fill="none" stroke="white" stroke-width="1.5" d="M0,-3.0v7 M-2.5,-0.5L0,-3.0L2.5,-0.5"/>
                </g>
                <g id="arrowRight" xlink:href="#dirArrow" transform="rotate(90) translate(36 -43)" onmousedown="handlePan(1,0)">
                  <use xlink:href="#rim" fill="#404040">
                        <set attributeName="fill" to="#808080" begin="arrowRight.mouseover" end="arrowRight.mouseout"/>
                  </use>
                  <path fill="none" stroke="white" stroke-width="1.5" d="M0,-3.0v7 M-2.5,-0.5L0,-3.0L2.5,-0.5"/>
                </g>
                <g id="arrowDown" xlink:href="#dirArrow" transform="rotate(180) translate(-30 -48)" onmousedown="handlePan(0,1)">
                  <use xlink:href="#rim" fill="#404040">
                        <set attributeName="fill" to="#808080" begin="arrowDown.mouseover" end="arrowDown.mouseout"/>
                  </use>
                  <path fill="none" stroke="white" stroke-width="1.5" d="M0,-3.0v7 M-2.5,-0.5L0,-3.0L2.5,-0.5"/>
                </g>
                <g id="arrowLeft" xlink:href="#dirArrow" transform="rotate(270) translate(-36 17)" onmousedown="handlePan(-1,0)">
                  <use xlink:href="#rim" fill="#404040">
                        <set attributeName="fill" to="#808080" begin="arrowLeft.mouseover" end="arrowLeft.mouseout"/>
                  </use>
                  <path fill="none" stroke="white" stroke-width="1.5" d="M0,-3.0v7 M-2.5,-0.5L0,-3.0L2.5,-0.5"/>
                </g>
        </g>
        <svg viewBox="0 0 15 15" width="100%" height="30px" preserveAspectRatio="xMaxYMin meet">
         <g id="arrow_out" transform="scale(0.3 0.3)">
          <a xlink:href="namespacecaiman_1_1source__extraction_1_1cnmf_1_1deconvolution_ad9f9b2ef0aad5c652f86bd8c7ae64bdd_icgraph_org.svg" target="_base">
           <rect id="button" ry="5" rx="5" y="6" x="6" height="38" width="38"
                fill="#f2f5e9" fill-opacity="0.5" stroke="#606060" stroke-width="1.0"/>
           <path id="arrow"
             d="M 11.500037,31.436501 C 11.940474,20.09759 22.043105,11.32322 32.158766,21.979434 L 37.068811,17.246167 C 37.068811,17.246167 37.088388,32 37.088388,32 L 22.160133,31.978069 C 22.160133,31.978069 26.997745,27.140456 26.997745,27.140456 C 18.528582,18.264221 13.291696,25.230495 11.500037,31.436501 z"
             style="fill:#404040;"/>
          </a>
         </g>
        </svg>
</svg>
