<?xml version="1.0" encoding="UTF-8" standalone="no"?>
<!DOCTYPE svg PUBLIC "-//W3C//DTD SVG 1.1//EN"
 "http://www.w3.org/Graphics/SVG/1.1/DTD/svg11.dtd">
<!-- Generated by graphviz version 2.38.0 (20140413.2041)
 -->
<!-- Title: compute_optical_flow Pages: 1 -->
<svg width="468pt" height="64pt"
 viewBox="0.00 0.00 468.18 64.00" xmlns="http://www.w3.org/2000/svg" xmlns:xlink="http://www.w3.org/1999/xlink">
<g id="graph0" class="graph" transform="scale(1 1) rotate(0) translate(4 60)">
<title>compute_optical_flow</title>
<polygon fill="white" stroke="none" points="-4,4 -4,-60 464.176,-60 464.176,4 -4,4"/>
<!-- Node1 -->
<g id="node1" class="node"><title>Node1</title>
<polygon fill="#bfbfbf" stroke="black" points="0,-18.5 0,-36.5 112.167,-36.5 112.167,-18.5 0,-18.5"/>
<text text-anchor="middle" x="56.0835" y="-24.5" font-family="Helvetica,sans-Serif" font-size="10.00">compute_optical_flow</text>
</g>
<!-- Node2 -->
<g id="node2" class="node"><title>Node2</title>
<g id="a_node2"><a xlink:href="namespacecaiman_1_1behavior_1_1behavior.html#a205588c7095003500c58a6b2f1effd09" target="_top" xlink:title="extract_motor_components_OF">
<polygon fill="white" stroke="black" points="148.167,-37.5 148.167,-55.5 304.787,-55.5 304.787,-37.5 148.167,-37.5"/>
<text text-anchor="middle" x="226.477" y="-43.5" font-family="Helvetica,sans-Serif" font-size="10.00">extract_motor_components_OF</text>
</a>
</g>
</g>
<!-- Node1&#45;&gt;Node2 -->
<g id="edge1" class="edge"><title>Node1&#45;&gt;Node2</title>
<path fill="none" stroke="midnightblue" d="M122.3,-34.8584C130.689,-35.805 139.344,-36.7816 147.907,-37.7477"/>
<polygon fill="midnightblue" stroke="midnightblue" points="122.551,-31.3647 112.222,-33.7213 121.766,-38.3205 122.551,-31.3647"/>
</g>
<!-- Node3 -->
<g id="node3" class="node"><title>Node3</title>
<g id="a_node3"><a xlink:href="namespacecaiman_1_1behavior_1_1behavior.html#a513c5d7fc1e56d74ff55d4f74ee836a3" target="_top" xlink:title="main">
<polygon fill="white" stroke="black" points="207.64,-0.5 207.64,-18.5 245.314,-18.5 245.314,-0.5 207.64,-0.5"/>
<text text-anchor="middle" x="226.477" y="-6.5" font-family="Helvetica,sans-Serif" font-size="10.00">main</text>
</a>
</g>
</g>
<!-- Node1&#45;&gt;Node3 -->
<g id="edge2" class="edge"><title>Node1&#45;&gt;Node3</title>
<path fill="none" stroke="midnightblue" d="M122.46,-20.5117C153.121,-17.2343 187.292,-13.5817 207.556,-11.4157"/>
<polygon fill="midnightblue" stroke="midnightblue" points="121.793,-17.063 112.222,-21.6061 122.537,-24.0233 121.793,-17.063"/>
</g>
<!-- Node4 -->
<g id="node4" class="node"><title>Node4</title>
<g id="a_node4"><a xlink:href="namespacecaiman_1_1behavior_1_1behavior.html#ac7ebff37cde3a2bef4c8613654b60395" target="_top" xlink:title="Normalize the components using the std of the components obtaining using biunary masks. ">
<polygon fill="white" stroke="black" points="340.787,-0.5 340.787,-18.5 460.176,-18.5 460.176,-0.5 340.787,-0.5"/>
<text text-anchor="middle" x="400.481" y="-6.5" font-family="Helvetica,sans-Serif" font-size="10.00">normalize_components</text>
</a>
</g>
</g>
<!-- Node3&#45;&gt;Node4 -->
<g id="edge3" class="edge"><title>Node3&#45;&gt;Node4</title>
<path fill="none" stroke="midnightblue" d="M255.647,-4.34915C278.63,-2.81508 311.879,-2.38474 340.622,-3.05812"/>
<polygon fill="midnightblue" stroke="midnightblue" points="255.246,-0.870013 245.559,-5.16105 255.808,-7.84745 255.246,-0.870013"/>
</g>
<!-- Node4&#45;&gt;Node3 -->
<g id="edge4" class="edge"><title>Node4&#45;&gt;Node3</title>
<path fill="none" stroke="midnightblue" d="M330.314,-16.1337C299.51,-16.5642 265.708,-15.7993 245.559,-13.8389"/>
<polygon fill="midnightblue" stroke="midnightblue" points="330.689,-19.6274 340.622,-15.9419 330.558,-12.6287 330.689,-19.6274"/>
</g>
</g>
</svg>
