<?xml version="1.0" encoding="UTF-8" standalone="no"?>
<!DOCTYPE svg PUBLIC "-//W3C//DTD SVG 1.1//EN"
 "http://www.w3.org/Graphics/SVG/1.1/DTD/svg11.dtd">
<!-- Generated by graphviz version 2.38.0 (20140413.2041)
 -->
<!-- Title: tile_and_correct Pages: 1 -->
<svg width="262pt" height="178pt"
 viewBox="0.00 0.00 262.23 178.00" xmlns="http://www.w3.org/2000/svg" xmlns:xlink="http://www.w3.org/1999/xlink">
<g id="graph0" class="graph" transform="scale(1 1) rotate(0) translate(4 174)">
<title>tile_and_correct</title>
<polygon fill="white" stroke="none" points="-4,4 -4,-174 258.226,-174 258.226,4 -4,4"/>
<!-- Node132 -->
<g id="node1" class="node"><title>Node132</title>
<polygon fill="#bfbfbf" stroke="black" points="0,-42.5 0,-60.5 87.1523,-60.5 87.1523,-42.5 0,-42.5"/>
<text text-anchor="middle" x="43.5762" y="-48.5" font-family="Helvetica,sans-Serif" font-size="10.00">tile_and_correct</text>
</g>
<!-- Node133 -->
<g id="node2" class="node"><title>Node133</title>
<g id="a_node2"><a xlink:href="namespaceabadura__demo.html#a98e8097ac25259476cca178403afebb1" target="_top" xlink:title="abadura_demo.tile_and\l_correct_wrapper">
<polygon fill="white" stroke="black" points="128.147,-141.5 128.147,-169.5 249.23,-169.5 249.23,-141.5 128.147,-141.5"/>
<text text-anchor="start" x="136.147" y="-157.5" font-family="Helvetica,sans-Serif" font-size="10.00">abadura_demo.tile_and</text>
<text text-anchor="middle" x="188.689" y="-147.5" font-family="Helvetica,sans-Serif" font-size="10.00">_correct_wrapper</text>
</a>
</g>
</g>
<!-- Node132&#45;&gt;Node133 -->
<g id="edge1" class="edge"><title>Node132&#45;&gt;Node133</title>
<path fill="none" stroke="midnightblue" d="M57.2189,-68.5846C71.4377,-86.718 96.1035,-115.106 123.152,-132.5 128.455,-135.91 134.328,-138.893 140.308,-141.481"/>
<polygon fill="midnightblue" stroke="midnightblue" points="59.9679,-66.4175 51.1134,-60.5996 54.4072,-70.6694 59.9679,-66.4175"/>
</g>
<!-- Node134 -->
<g id="node3" class="node"><title>Node134</title>
<g id="a_node3"><a xlink:href="namespacedemo__motion__correction__nonrigid.html#a7c12b0a7d034249b2ceb2b7a2a36498b" target="_top" xlink:title="demo_motion_correction\l_nonrigid.tile_and_correct\l_wrapper">
<polygon fill="white" stroke="black" points="123.152,-84.5 123.152,-122.5 254.226,-122.5 254.226,-84.5 123.152,-84.5"/>
<text text-anchor="start" x="131.152" y="-110.5" font-family="Helvetica,sans-Serif" font-size="10.00">demo_motion_correction</text>
<text text-anchor="start" x="131.152" y="-100.5" font-family="Helvetica,sans-Serif" font-size="10.00">_nonrigid.tile_and_correct</text>
<text text-anchor="middle" x="188.689" y="-90.5" font-family="Helvetica,sans-Serif" font-size="10.00">_wrapper</text>
</a>
</g>
</g>
<!-- Node132&#45;&gt;Node134 -->
<g id="edge2" class="edge"><title>Node132&#45;&gt;Node134</title>
<path fill="none" stroke="midnightblue" d="M78.9387,-63.9856C95.7824,-70.1058 116.434,-77.6096 135.199,-84.4278"/>
<polygon fill="midnightblue" stroke="midnightblue" points="80.0986,-60.6832 69.5045,-60.5577 77.708,-67.2624 80.0986,-60.6832"/>
</g>
<!-- Node135 -->
<g id="node4" class="node"><title>Node135</title>
<g id="a_node4"><a xlink:href="namespacecaiman_1_1motion__correction.html#a88ef513cfa324fc8548e4fb46d7a67e5" target="_top" xlink:title="create a matrix that is used to normalize the intersection of the stiched patches ...">
<polygon fill="white" stroke="black" points="133.167,-37.5 133.167,-65.5 244.211,-65.5 244.211,-37.5 133.167,-37.5"/>
<text text-anchor="start" x="141.167" y="-53.5" font-family="Helvetica,sans-Serif" font-size="10.00">create_weight_matrix</text>
<text text-anchor="middle" x="188.689" y="-43.5" font-family="Helvetica,sans-Serif" font-size="10.00">_for_blending</text>
</a>
</g>
</g>
<!-- Node132&#45;&gt;Node135 -->
<g id="edge3" class="edge"><title>Node132&#45;&gt;Node135</title>
<path fill="none" stroke="midnightblue" d="M97.8523,-44.9497C109.356,-44.6932 121.536,-44.6838 133.09,-44.9214"/>
<polygon fill="midnightblue" stroke="midnightblue" points="97.4071,-41.4612 87.5147,-45.2547 97.6136,-48.4582 97.4071,-41.4612"/>
</g>
<!-- Node136 -->
<g id="node5" class="node"><title>Node136</title>
<g id="a_node5"><a xlink:href="namespacecaiman_1_1motion__correction.html#a9c4d6e518f42c395cb58a08d2ff21f45" target="_top" xlink:title="tile_and_correct_wrapper">
<polygon fill="white" stroke="black" points="124.268,-0.5 124.268,-18.5 253.11,-18.5 253.11,-0.5 124.268,-0.5"/>
<text text-anchor="middle" x="188.689" y="-6.5" font-family="Helvetica,sans-Serif" font-size="10.00">tile_and_correct_wrapper</text>
</a>
</g>
</g>
<!-- Node132&#45;&gt;Node136 -->
<g id="edge5" class="edge"><title>Node132&#45;&gt;Node136</title>
<path fill="none" stroke="midnightblue" d="M84.9717,-39.6449C107.665,-32.9849 135.556,-24.7998 156.545,-18.6401"/>
<polygon fill="midnightblue" stroke="midnightblue" points="83.8872,-36.3155 75.2775,-42.4899 85.8584,-43.0323 83.8872,-36.3155"/>
</g>
<!-- Node135&#45;&gt;Node132 -->
<g id="edge4" class="edge"><title>Node135&#45;&gt;Node132</title>
<path fill="none" stroke="midnightblue" d="M123.064,-58.2218C111.017,-58.3202 98.7069,-58.1613 87.5147,-57.7453"/>
<polygon fill="midnightblue" stroke="midnightblue" points="123.141,-61.7211 133.09,-58.0786 123.041,-54.7218 123.141,-61.7211"/>
</g>
</g>
</svg>
