<?xml version="1.0" encoding="UTF-8" standalone="no"?>
<!DOCTYPE svg PUBLIC "-//W3C//DTD SVG 1.1//EN"
 "http://www.w3.org/Graphics/SVG/1.1/DTD/svg11.dtd">
<!-- Generated by graphviz version 2.38.0 (20140413.2041)
 -->
<!-- Title: motion_correct_iteration Pages: 1 -->
<svg width="487pt" height="84pt"
 viewBox="0.00 0.00 487.06 84.00" xmlns="http://www.w3.org/2000/svg" xmlns:xlink="http://www.w3.org/1999/xlink">
<g id="graph0" class="graph" transform="scale(1 1) rotate(0) translate(4 80)">
<title>motion_correct_iteration</title>
<polygon fill="white" stroke="none" points="-4,4 -4,-80 483.062,-80 483.062,4 -4,4"/>
<!-- Node81 -->
<g id="node1" class="node"><title>Node81</title>
<polygon fill="#bfbfbf" stroke="black" points="0,-28.5 0,-46.5 123.275,-46.5 123.275,-28.5 0,-28.5"/>
<text text-anchor="middle" x="61.6377" y="-34.5" font-family="Helvetica,sans-Serif" font-size="10.00">motion_correct_iteration</text>
</g>
<!-- Node82 -->
<g id="node2" class="node"><title>Node82</title>
<g id="a_node2"><a xlink:href="namespacecaiman_1_1motion__correction.html#a178e8317ba3a15bd5e072132ce6fa9f3" target="_top" xlink:title="motion_correct_online">
<polygon fill="white" stroke="black" points="159.275,-28.5 159.275,-46.5 273.664,-46.5 273.664,-28.5 159.275,-28.5"/>
<text text-anchor="middle" x="216.47" y="-34.5" font-family="Helvetica,sans-Serif" font-size="10.00">motion_correct_online</text>
</a>
</g>
</g>
<!-- Node81&#45;&gt;Node82 -->
<g id="edge1" class="edge"><title>Node81&#45;&gt;Node82</title>
<path fill="none" stroke="midnightblue" d="M133.685,-37.5C142.109,-37.5 150.621,-37.5 158.808,-37.5"/>
<polygon fill="midnightblue" stroke="midnightblue" points="133.48,-34.0001 123.48,-37.5 133.48,-41.0001 133.48,-34.0001"/>
</g>
<!-- Node83 -->
<g id="node3" class="node"><title>Node83</title>
<g id="a_node3"><a xlink:href="namespacecaiman_1_1motion__correction.html#aef9c5f795aeb47c5b86066492953fc4f" target="_top" xlink:title="motion_correct_online\l_multifile">
<polygon fill="white" stroke="black" points="337.169,-47.5 337.169,-75.5 451.558,-75.5 451.558,-47.5 337.169,-47.5"/>
<text text-anchor="start" x="345.169" y="-63.5" font-family="Helvetica,sans-Serif" font-size="10.00">motion_correct_online</text>
<text text-anchor="middle" x="394.363" y="-53.5" font-family="Helvetica,sans-Serif" font-size="10.00">_multifile</text>
</a>
</g>
</g>
<!-- Node82&#45;&gt;Node83 -->
<g id="edge2" class="edge"><title>Node82&#45;&gt;Node83</title>
<path fill="none" stroke="midnightblue" d="M284.209,-46.6063C301.663,-48.9879 320.303,-51.5312 337.148,-53.8297"/>
<polygon fill="midnightblue" stroke="midnightblue" points="284.473,-43.11 274.092,-45.2259 283.527,-50.0457 284.473,-43.11"/>
</g>
<!-- Node84 -->
<g id="node4" class="node"><title>Node84</title>
<g id="a_node4"><a xlink:href="classcaiman_1_1base_1_1movies_1_1movie.html#a9ea3b23aad7b04c484259dc0f2117aed" target="_top" xlink:title="caiman.base.movies.movie.motion\l_correction_online">
<polygon fill="white" stroke="black" points="309.664,-0.5 309.664,-28.5 479.062,-28.5 479.062,-0.5 309.664,-0.5"/>
<text text-anchor="start" x="317.664" y="-16.5" font-family="Helvetica,sans-Serif" font-size="10.00">caiman.base.movies.movie.motion</text>
<text text-anchor="middle" x="394.363" y="-6.5" font-family="Helvetica,sans-Serif" font-size="10.00">_correction_online</text>
</a>
</g>
</g>
<!-- Node82&#45;&gt;Node84 -->
<g id="edge3" class="edge"><title>Node82&#45;&gt;Node84</title>
<path fill="none" stroke="midnightblue" d="M284.112,-28.7858C292.455,-27.6949 301.07,-26.5683 309.632,-25.4488"/>
<polygon fill="midnightblue" stroke="midnightblue" points="283.554,-25.3289 274.092,-30.0961 284.461,-32.2699 283.554,-25.3289"/>
</g>
</g>
</svg>
