<?xml version="1.0" encoding="UTF-8" standalone="no"?>
<!DOCTYPE svg PUBLIC "-//W3C//DTD SVG 1.1//EN"
 "http://www.w3.org/Graphics/SVG/1.1/DTD/svg11.dtd">
<!-- Generated by graphviz version 2.38.0 (20140413.2041)
 -->
<!-- Title: shell_source Pages: 1 -->
<!--zoomable 92 -->
<svg id="main" version="1.1" xmlns="http://www.w3.org/2000/svg" xmlns:xlink="http://www.w3.org/1999/xlink" xml:space="preserve" onload="init(evt)">
<style type="text/css"><![CDATA[
.edge:hover path { stroke: red; }
.edge:hover polygon { stroke: red; fill: red; }
]]></style>
<script type="text/javascript"><![CDATA[
var edges = document.getElementsByTagName('g');
if (edges && edges.length) {
  for (var i=0;i<edges.length;i++) {
    if (edges[i].id.substr(0,4)=='edge') {
      edges[i].setAttribute('class','edge');
    }
  }
}
]]></script>
        <defs>
                <circle id="rim" cx="0" cy="0" r="7"/>
                <circle id="rim2" cx="0" cy="0" r="3.5"/>
                <g id="zoomPlus">
                        <use xlink:href="#rim" fill="#404040">
                                <set attributeName="fill" to="#808080" begin="zoomplus.mouseover" end="zoomplus.mouseout"/>
                        </use>
                        <path d="M-4,0h8M0,-4v8" fill="none" stroke="white" stroke-width="1.5" pointer-events="none"/>
                </g>
                <g id="zoomMin">
                        <use xlink:href="#rim" fill="#404040">
                                <set attributeName="fill" to="#808080" begin="zoomminus.mouseover" end="zoomminus.mouseout"/>
                        </use>
                        <path d="M-4,0h8" fill="none" stroke="white" stroke-width="1.5" pointer-events="none"/>
                </g>
                <g id="dirArrow">
                        <path fill="none" stroke="white" stroke-width="1.5" d="M0,-3.0v7 M-2.5,-0.5L0,-3.0L2.5,-0.5"/>
                </g>
               <g id="resetDef">
                       <use xlink:href="#rim2" fill="#404040">
                               <set attributeName="fill" to="#808080" begin="reset.mouseover" end="reset.mouseout"/>
                       </use>
               </g>
        </defs>

<script type="text/javascript">
var viewWidth = 547;
var viewHeight = 92;
var sectionId = 'dynsection-6';
</script>
<script xlink:href="svgpan.js"/>
<svg id="graph" class="graph">
<g id="viewport">
<title>shell_source</title>
<polygon fill="white" stroke="none" points="-4,4 -4,-88 542.836,-88 542.836,4 -4,4"/>
<!-- Node26 -->
<g id="node1" class="node"><title>Node26</title>
<polygon fill="#bfbfbf" stroke="black" points="0,-46.5 0,-64.5 72.1426,-64.5 72.1426,-46.5 0,-46.5"/>
<text text-anchor="middle" x="36.0713" y="-52.5" font-family="Helvetica,sans-Serif" font-size="10.00">shell_source</text>
</g>
<!-- Node27 -->
<g id="node2" class="node"><title>Node27</title>
<g id="a_node2"><a xlink:href="namespacecaiman_1_1cluster.html#a36c3cc16b38cc1e90b578cb5952a0ba9" target="_top" xlink:title="programmatically start the ipyparallel server ">
<polygon fill="white" stroke="black" points="108.143,-46.5 108.143,-64.5 176.936,-64.5 176.936,-46.5 108.143,-46.5"/>
<text text-anchor="middle" x="142.539" y="-52.5" font-family="Helvetica,sans-Serif" font-size="10.00">start_server</text>
</a>
</g>
</g>
<!-- Node26&#45;&gt;Node27 -->
<g id="edge1" class="edge"><title>Node26&#45;&gt;Node27</title>
<path fill="none" stroke="midnightblue" d="M82.3704,-55.5C90.9045,-55.5 99.69,-55.5 107.794,-55.5"/>
<polygon fill="midnightblue" stroke="midnightblue" points="82.1482,-52.0001 72.1482,-55.5 82.1481,-59.0001 82.1482,-52.0001"/>
</g>
<!-- Node28 -->
<g id="node3" class="node"><title>Node28</title>
<g id="a_node3"><a xlink:href="namespacecaiman_1_1cluster.html#a1dcb2a098d3e274cb3acd433ddc58953" target="_top" xlink:title="Restart if necessary the pipyparallel cluster, and manages the case of SLURM. ">
<polygon fill="white" stroke="black" points="249.896,-65.5 249.896,-83.5 325.374,-83.5 325.374,-65.5 249.896,-65.5"/>
<text text-anchor="middle" x="287.635" y="-71.5" font-family="Helvetica,sans-Serif" font-size="10.00">setup_cluster</text>
</a>
</g>
</g>
<!-- Node27&#45;&gt;Node28 -->
<g id="edge2" class="edge"><title>Node27&#45;&gt;Node28</title>
<path fill="none" stroke="midnightblue" d="M187.197,-61.2969C207.209,-63.9539 230.671,-67.0692 249.778,-69.6063"/>
<polygon fill="midnightblue" stroke="midnightblue" points="187.462,-57.8014 177.089,-59.9547 186.541,-64.7405 187.462,-57.8014"/>
</g>
<!-- Node29 -->
<g id="node4" class="node"><title>Node29</title>
<g id="a_node4"><a xlink:href="namespacecaiman_1_1tests_1_1test__demo.html#ac5c3950ffe101e5dfa9c5ca2087dfc73" target="_top" xlink:title="caiman.tests.test_demo.demo">
<polygon fill="white" stroke="black" points="212.936,-28.5 212.936,-46.5 362.334,-46.5 362.334,-28.5 212.936,-28.5"/>
<text text-anchor="middle" x="287.635" y="-34.5" font-family="Helvetica,sans-Serif" font-size="10.00">caiman.tests.test_demo.demo</text>
</a>
</g>
</g>
<!-- Node27&#45;&gt;Node29 -->
<g id="edge3" class="edge"><title>Node27&#45;&gt;Node29</title>
<path fill="none" stroke="midnightblue" d="M187.097,-50.0208C195.921,-48.9109 205.419,-47.7161 214.922,-46.5208"/>
<polygon fill="midnightblue" stroke="midnightblue" points="186.574,-46.559 177.089,-51.2798 187.447,-53.5043 186.574,-46.559"/>
</g>
<!-- Node30 -->
<g id="node5" class="node"><title>Node30</title>
<g id="a_node5"><a xlink:href="namespacecaiman_1_1tests_1_1test__demo.html#a96a59f0aebd7425caeb0e5c4c0286d46" target="_top" xlink:title="caiman.tests.test_demo.test\l_single_thread">
<polygon fill="white" stroke="black" points="398.334,-47.5 398.334,-75.5 538.836,-75.5 538.836,-47.5 398.334,-47.5"/>
<text text-anchor="start" x="406.334" y="-63.5" font-family="Helvetica,sans-Serif" font-size="10.00">caiman.tests.test_demo.test</text>
<text text-anchor="middle" x="468.585" y="-53.5" font-family="Helvetica,sans-Serif" font-size="10.00">_single_thread</text>
</a>
</g>
</g>
<!-- Node29&#45;&gt;Node30 -->
<g id="edge4" class="edge"><title>Node29&#45;&gt;Node30</title>
<path fill="none" stroke="midnightblue" d="M365.981,-47.8733C376.719,-49.3135 387.695,-50.7855 398.274,-52.2043"/>
<polygon fill="midnightblue" stroke="midnightblue" points="366.155,-44.3654 355.778,-46.505 365.224,-51.3033 366.155,-44.3654"/>
</g>
<!-- Node31 -->
<g id="node6" class="node"><title>Node31</title>
<g id="a_node6"><a xlink:href="namespacecaiman_1_1tests_1_1test__demo.html#a9b4f91fe22f45c31c9f0d6decc982909" target="_top" xlink:title="caiman.tests.test_demo.test\l_parallel">
<polygon fill="white" stroke="black" points="398.334,-0.5 398.334,-28.5 538.836,-28.5 538.836,-0.5 398.334,-0.5"/>
<text text-anchor="start" x="406.334" y="-16.5" font-family="Helvetica,sans-Serif" font-size="10.00">caiman.tests.test_demo.test</text>
<text text-anchor="middle" x="468.585" y="-6.5" font-family="Helvetica,sans-Serif" font-size="10.00">_parallel</text>
</a>
</g>
</g>
<!-- Node29&#45;&gt;Node31 -->
<g id="edge5" class="edge"><title>Node29&#45;&gt;Node31</title>
<path fill="none" stroke="midnightblue" d="M368.936,-27.179C378.688,-25.9257 388.587,-24.6535 398.162,-23.4227"/>
<polygon fill="midnightblue" stroke="midnightblue" points="368.319,-23.7295 358.847,-28.4758 369.212,-30.6724 368.319,-23.7295"/>
</g>
</g>
</svg>
        <g id="navigator" transform="translate(0 0)" fill="#404254">
                <rect fill="#f2f5e9" fill-opacity="0.5" stroke="#606060" stroke-width=".5" x="0" y="0" width="60" height="60"/>
                <use id="zoomplus" xlink:href="#zoomPlus" x="17" y="9" onmousedown="handleZoom(evt,'in')"/>
                <use id="zoomminus" xlink:href="#zoomMin" x="42" y="9" onmousedown="handleZoom(evt,'out')"/>
                <use id="reset" xlink:href="#resetDef" x="30" y="36" onmousedown="handleReset()"/>
                <g id="arrowUp" xlink:href="#dirArrow" transform="translate(30 24)" onmousedown="handlePan(0,-1)">
                  <use xlink:href="#rim" fill="#404040">
                        <set attributeName="fill" to="#808080" begin="arrowUp.mouseover" end="arrowUp.mouseout"/>
                  </use>
                  <path fill="none" stroke="white" stroke-width="1.5" d="M0,-3.0v7 M-2.5,-0.5L0,-3.0L2.5,-0.5"/>
                </g>
                <g id="arrowRight" xlink:href="#dirArrow" transform="rotate(90) translate(36 -43)" onmousedown="handlePan(1,0)">
                  <use xlink:href="#rim" fill="#404040">
                        <set attributeName="fill" to="#808080" begin="arrowRight.mouseover" end="arrowRight.mouseout"/>
                  </use>
                  <path fill="none" stroke="white" stroke-width="1.5" d="M0,-3.0v7 M-2.5,-0.5L0,-3.0L2.5,-0.5"/>
                </g>
                <g id="arrowDown" xlink:href="#dirArrow" transform="rotate(180) translate(-30 -48)" onmousedown="handlePan(0,1)">
                  <use xlink:href="#rim" fill="#404040">
                        <set attributeName="fill" to="#808080" begin="arrowDown.mouseover" end="arrowDown.mouseout"/>
                  </use>
                  <path fill="none" stroke="white" stroke-width="1.5" d="M0,-3.0v7 M-2.5,-0.5L0,-3.0L2.5,-0.5"/>
                </g>
                <g id="arrowLeft" xlink:href="#dirArrow" transform="rotate(270) translate(-36 17)" onmousedown="handlePan(-1,0)">
                  <use xlink:href="#rim" fill="#404040">
                        <set attributeName="fill" to="#808080" begin="arrowLeft.mouseover" end="arrowLeft.mouseout"/>
                  </use>
                  <path fill="none" stroke="white" stroke-width="1.5" d="M0,-3.0v7 M-2.5,-0.5L0,-3.0L2.5,-0.5"/>
                </g>
        </g>
        <svg viewBox="0 0 15 15" width="100%" height="30px" preserveAspectRatio="xMaxYMin meet">
         <g id="arrow_out" transform="scale(0.3 0.3)">
          <a xlink:href="namespacecaiman_1_1cluster_aa2ca4c63a4bfd3dc43f9a93bd0fb7525_icgraph_org.svg" target="_base">
           <rect id="button" ry="5" rx="5" y="6" x="6" height="38" width="38"
                fill="#f2f5e9" fill-opacity="0.5" stroke="#606060" stroke-width="1.0"/>
           <path id="arrow"
             d="M 11.500037,31.436501 C 11.940474,20.09759 22.043105,11.32322 32.158766,21.979434 L 37.068811,17.246167 C 37.068811,17.246167 37.088388,32 37.088388,32 L 22.160133,31.978069 C 22.160133,31.978069 26.997745,27.140456 26.997745,27.140456 C 18.528582,18.264221 13.291696,25.230495 11.500037,31.436501 z"
             style="fill:#404040;"/>
          </a>
         </g>
        </svg>
</svg>
