<?xml version="1.0" encoding="UTF-8" standalone="no"?>
<!DOCTYPE svg PUBLIC "-//W3C//DTD SVG 1.1//EN"
 "http://www.w3.org/Graphics/SVG/1.1/DTD/svg11.dtd">
<!-- Generated by graphviz version 2.38.0 (20140413.2041)
 -->
<!-- Title: nextpow2 Pages: 1 -->
<svg width="429pt" height="27pt"
 viewBox="0.00 0.00 429.03 27.00" xmlns="http://www.w3.org/2000/svg" xmlns:xlink="http://www.w3.org/1999/xlink">
<g id="graph0" class="graph" transform="scale(1 1) rotate(0) translate(4 23)">
<title>nextpow2</title>
<polygon fill="white" stroke="none" points="-4,4 -4,-23 425.033,-23 425.033,4 -4,4"/>
<!-- Node38 -->
<g id="node1" class="node"><title>Node38</title>
<polygon fill="#bfbfbf" stroke="black" points="0,-0.5 0,-18.5 58.8076,-18.5 58.8076,-0.5 0,-0.5"/>
<text text-anchor="middle" x="29.4038" y="-6.5" font-family="Helvetica,sans-Serif" font-size="10.00">nextpow2</text>
</g>
<!-- Node39 -->
<g id="node2" class="node"><title>Node39</title>
<g id="a_node2"><a xlink:href="namespacecaiman_1_1source__extraction_1_1cnmf_1_1pre__processing.html#a60941191e5c55d29e33ed6fa698f1844" target="_top" xlink:title="axcov">
<polygon fill="white" stroke="black" points="94.8076,-0.5 94.8076,-18.5 136.931,-18.5 136.931,-0.5 94.8076,-0.5"/>
<text text-anchor="middle" x="115.869" y="-6.5" font-family="Helvetica,sans-Serif" font-size="10.00">axcov</text>
</a>
</g>
</g>
<!-- Node38&#45;&gt;Node39 -->
<g id="edge1" class="edge"><title>Node38&#45;&gt;Node39</title>
<path fill="none" stroke="midnightblue" d="M69.1307,-9.5C77.9188,-9.5 86.9108,-9.5 94.5704,-9.5"/>
<polygon fill="midnightblue" stroke="midnightblue" points="69,-6.0001 58.9999,-9.5 68.9999,-13.0001 69,-6.0001"/>
</g>
<!-- Node40 -->
<g id="node3" class="node"><title>Node40</title>
<g id="a_node3"><a xlink:href="namespacecaiman_1_1source__extraction_1_1cnmf_1_1pre__processing.html#a1b73b814ed1bd025323df1f86b4e083b" target="_top" xlink:title="estimate_time_constant">
<polygon fill="white" stroke="black" points="172.931,-0.5 172.931,-18.5 294.541,-18.5 294.541,-0.5 172.931,-0.5"/>
<text text-anchor="middle" x="233.736" y="-6.5" font-family="Helvetica,sans-Serif" font-size="10.00">estimate_time_constant</text>
</a>
</g>
</g>
<!-- Node39&#45;&gt;Node40 -->
<g id="edge2" class="edge"><title>Node39&#45;&gt;Node40</title>
<path fill="none" stroke="midnightblue" d="M147.113,-9.5C154.948,-9.5 163.667,-9.5 172.459,-9.5"/>
<polygon fill="midnightblue" stroke="midnightblue" points="147.052,-6.0001 137.052,-9.5 147.052,-13.0001 147.052,-6.0001"/>
</g>
<!-- Node41 -->
<g id="node4" class="node"><title>Node41</title>
<g id="a_node4"><a xlink:href="namespacecaiman_1_1source__extraction_1_1cnmf_1_1pre__processing.html#a9083051835b0f9a5463105b2f65a2600" target="_top" xlink:title="Performs the pre&#45;processing operations described above. ">
<polygon fill="white" stroke="black" points="330.541,-0.5 330.541,-18.5 421.033,-18.5 421.033,-0.5 330.541,-0.5"/>
<text text-anchor="middle" x="375.787" y="-6.5" font-family="Helvetica,sans-Serif" font-size="10.00">preprocess_data</text>
</a>
</g>
</g>
<!-- Node40&#45;&gt;Node41 -->
<g id="edge3" class="edge"><title>Node40&#45;&gt;Node41</title>
<path fill="none" stroke="midnightblue" d="M305.012,-9.5C313.613,-9.5 322.209,-9.5 330.282,-9.5"/>
<polygon fill="midnightblue" stroke="midnightblue" points="304.943,-6.0001 294.943,-9.5 304.943,-13.0001 304.943,-6.0001"/>
</g>
</g>
</svg>
