<?xml version="1.0" encoding="UTF-8" standalone="no"?>
<!DOCTYPE svg PUBLIC "-//W3C//DTD SVG 1.1//EN"
 "http://www.w3.org/Graphics/SVG/1.1/DTD/svg11.dtd">
<!-- Generated by graphviz version 2.38.0 (20140413.2041)
 -->
<!-- Title: bin_median Pages: 1 -->
<svg width="431pt" height="84pt"
 viewBox="0.00 0.00 431.49 84.00" xmlns="http://www.w3.org/2000/svg" xmlns:xlink="http://www.w3.org/1999/xlink">
<g id="graph0" class="graph" transform="scale(1 1) rotate(0) translate(4 80)">
<title>bin_median</title>
<polygon fill="white" stroke="none" points="-4,4 -4,-80 427.491,-80 427.491,4 -4,4"/>
<!-- Node45 -->
<g id="node1" class="node"><title>Node45</title>
<polygon fill="#bfbfbf" stroke="black" points="0,-28.5 0,-46.5 67.7041,-46.5 67.7041,-28.5 0,-28.5"/>
<text text-anchor="middle" x="33.8521" y="-34.5" font-family="Helvetica,sans-Serif" font-size="10.00">bin_median</text>
</g>
<!-- Node46 -->
<g id="node2" class="node"><title>Node46</title>
<g id="a_node2"><a xlink:href="namespacecaiman_1_1motion__correction.html#a178e8317ba3a15bd5e072132ce6fa9f3" target="_top" xlink:title="motion_correct_online">
<polygon fill="white" stroke="black" points="103.704,-28.5 103.704,-46.5 218.093,-46.5 218.093,-28.5 103.704,-28.5"/>
<text text-anchor="middle" x="160.898" y="-34.5" font-family="Helvetica,sans-Serif" font-size="10.00">motion_correct_online</text>
</a>
</g>
</g>
<!-- Node45&#45;&gt;Node46 -->
<g id="edge1" class="edge"><title>Node45&#45;&gt;Node46</title>
<path fill="none" stroke="midnightblue" d="M77.874,-37.5C86.1546,-37.5 94.9424,-37.5 103.571,-37.5"/>
<polygon fill="midnightblue" stroke="midnightblue" points="77.7066,-34.0001 67.7065,-37.5 77.7065,-41.0001 77.7066,-34.0001"/>
</g>
<!-- Node47 -->
<g id="node3" class="node"><title>Node47</title>
<g id="a_node3"><a xlink:href="namespacecaiman_1_1motion__correction.html#aef9c5f795aeb47c5b86066492953fc4f" target="_top" xlink:title="motion_correct_online\l_multifile">
<polygon fill="white" stroke="black" points="281.598,-47.5 281.598,-75.5 395.986,-75.5 395.986,-47.5 281.598,-47.5"/>
<text text-anchor="start" x="289.598" y="-63.5" font-family="Helvetica,sans-Serif" font-size="10.00">motion_correct_online</text>
<text text-anchor="middle" x="338.792" y="-53.5" font-family="Helvetica,sans-Serif" font-size="10.00">_multifile</text>
</a>
</g>
</g>
<!-- Node46&#45;&gt;Node47 -->
<g id="edge2" class="edge"><title>Node46&#45;&gt;Node47</title>
<path fill="none" stroke="midnightblue" d="M228.638,-46.6063C246.092,-48.9879 264.731,-51.5312 281.577,-53.8297"/>
<polygon fill="midnightblue" stroke="midnightblue" points="228.902,-43.11 218.52,-45.2259 227.955,-50.0457 228.902,-43.11"/>
</g>
<!-- Node48 -->
<g id="node4" class="node"><title>Node48</title>
<g id="a_node4"><a xlink:href="classcaiman_1_1base_1_1movies_1_1movie.html#a9ea3b23aad7b04c484259dc0f2117aed" target="_top" xlink:title="caiman.base.movies.movie.motion\l_correction_online">
<polygon fill="white" stroke="black" points="254.093,-0.5 254.093,-28.5 423.491,-28.5 423.491,-0.5 254.093,-0.5"/>
<text text-anchor="start" x="262.093" y="-16.5" font-family="Helvetica,sans-Serif" font-size="10.00">caiman.base.movies.movie.motion</text>
<text text-anchor="middle" x="338.792" y="-6.5" font-family="Helvetica,sans-Serif" font-size="10.00">_correction_online</text>
</a>
</g>
</g>
<!-- Node46&#45;&gt;Node48 -->
<g id="edge3" class="edge"><title>Node46&#45;&gt;Node48</title>
<path fill="none" stroke="midnightblue" d="M228.54,-28.7858C236.884,-27.6949 245.499,-26.5683 254.061,-25.4488"/>
<polygon fill="midnightblue" stroke="midnightblue" points="227.982,-25.3289 218.52,-30.0961 228.89,-32.2699 227.982,-25.3289"/>
</g>
</g>
</svg>
