<?xml version="1.0" encoding="UTF-8" standalone="no"?>
<!DOCTYPE svg PUBLIC "-//W3C//DTD SVG 1.1//EN"
 "http://www.w3.org/Graphics/SVG/1.1/DTD/svg11.dtd">
<!-- Generated by graphviz version 2.38.0 (20140413.2041)
 -->
<!-- Title: _check_keys Pages: 1 -->
<svg width="499pt" height="101pt"
 viewBox="0.00 0.00 499.38 101.00" xmlns="http://www.w3.org/2000/svg" xmlns:xlink="http://www.w3.org/1999/xlink">
<g id="graph0" class="graph" transform="scale(1 1) rotate(0) translate(4 97)">
<title>_check_keys</title>
<polygon fill="white" stroke="none" points="-4,4 -4,-97 495.383,-97 495.383,4 -4,4"/>
<!-- Node2 -->
<g id="node1" class="node"><title>Node2</title>
<polygon fill="#bfbfbf" stroke="black" points="0,-37.5 0,-55.5 73.8076,-55.5 73.8076,-37.5 0,-37.5"/>
<text text-anchor="middle" x="36.9038" y="-43.5" font-family="Helvetica,sans-Serif" font-size="10.00">_check_keys</text>
</g>
<!-- Node3 -->
<g id="node2" class="node"><title>Node3</title>
<g id="a_node2"><a xlink:href="namespacecaiman_1_1base_1_1movies.html#a1dae08ecd6c4b9ef41d5e820eb86604d" target="_top" xlink:title="loadmat_sbx">
<polygon fill="white" stroke="black" points="109.808,-37.5 109.808,-55.5 182.507,-55.5 182.507,-37.5 109.808,-37.5"/>
<text text-anchor="middle" x="146.157" y="-43.5" font-family="Helvetica,sans-Serif" font-size="10.00">loadmat_sbx</text>
</a>
</g>
</g>
<!-- Node2&#45;&gt;Node3 -->
<g id="edge1" class="edge"><title>Node2&#45;&gt;Node3</title>
<path fill="none" stroke="midnightblue" d="M84.1906,-46.5C92.7672,-46.5 101.599,-46.5 109.787,-46.5"/>
<polygon fill="midnightblue" stroke="midnightblue" points="83.916,-43.0001 73.916,-46.5 83.916,-50.0001 83.916,-43.0001"/>
</g>
<!-- Node4 -->
<g id="node3" class="node"><title>Node4</title>
<g id="a_node3"><a xlink:href="namespacecaiman_1_1base_1_1movies.html#ad72bfc8cc5386d4470caa0be723598e9" target="_top" xlink:title="Input filename should be full path excluding .sbx. ">
<polygon fill="white" stroke="black" points="227.398,-74.5 227.398,-92.5 278.975,-92.5 278.975,-74.5 227.398,-74.5"/>
<text text-anchor="middle" x="253.187" y="-80.5" font-family="Helvetica,sans-Serif" font-size="10.00">sbxread</text>
</a>
</g>
</g>
<!-- Node3&#45;&gt;Node4 -->
<g id="edge2" class="edge"><title>Node3&#45;&gt;Node4</title>
<path fill="none" stroke="midnightblue" d="M182.588,-58.9816C197.204,-64.1305 213.801,-69.9775 227.121,-74.6699"/>
<polygon fill="midnightblue" stroke="midnightblue" points="183.445,-55.5728 172.85,-55.5512 181.119,-62.1751 183.445,-55.5728"/>
</g>
<!-- Node7 -->
<g id="node6" class="node"><title>Node7</title>
<g id="a_node6"><a xlink:href="namespacecaiman_1_1base_1_1movies.html#ad9b115e435b36308da1248112f09f0db" target="_top" xlink:title="Input filename should be full path excluding .sbx. ">
<polygon fill="white" stroke="black" points="218.507,-37.5 218.507,-55.5 287.866,-55.5 287.866,-37.5 218.507,-37.5"/>
<text text-anchor="middle" x="253.187" y="-43.5" font-family="Helvetica,sans-Serif" font-size="10.00">sbxreadskip</text>
</a>
</g>
</g>
<!-- Node3&#45;&gt;Node7 -->
<g id="edge6" class="edge"><title>Node3&#45;&gt;Node7</title>
<path fill="none" stroke="midnightblue" d="M192.972,-46.5C201.53,-46.5 210.329,-46.5 218.44,-46.5"/>
<polygon fill="midnightblue" stroke="midnightblue" points="192.715,-43.0001 182.715,-46.5 192.715,-50.0001 192.715,-43.0001"/>
</g>
<!-- Node8 -->
<g id="node7" class="node"><title>Node8</title>
<g id="a_node7"><a xlink:href="namespacecaiman_1_1base_1_1movies.html#ade25f5174c4fa7d04d35b42a01f15803" target="_top" xlink:title="Input filename should be full path excluding .sbx. ">
<polygon fill="white" stroke="black" points="223.783,-0.5 223.783,-18.5 282.59,-18.5 282.59,-0.5 223.783,-0.5"/>
<text text-anchor="middle" x="253.187" y="-6.5" font-family="Helvetica,sans-Serif" font-size="10.00">sbxshape</text>
</a>
</g>
</g>
<!-- Node3&#45;&gt;Node8 -->
<g id="edge8" class="edge"><title>Node3&#45;&gt;Node8</title>
<path fill="none" stroke="midnightblue" d="M182.439,-34.0708C196.827,-29.0023 213.155,-23.25 226.395,-18.586"/>
<polygon fill="midnightblue" stroke="midnightblue" points="181.119,-30.8249 172.85,-37.4488 183.445,-37.4272 181.119,-30.8249"/>
</g>
<!-- Node5 -->
<g id="node4" class="node"><title>Node5</title>
<g id="a_node4"><a xlink:href="namespacecaiman_1_1base_1_1movies.html#a6d585c260307278135a0b4b09440b313" target="_top" xlink:title="load movie from file. ">
<polygon fill="white" stroke="black" points="323.866,-55.5 323.866,-73.5 358.772,-73.5 358.772,-55.5 323.866,-55.5"/>
<text text-anchor="middle" x="341.319" y="-61.5" font-family="Helvetica,sans-Serif" font-size="10.00">load</text>
</a>
</g>
</g>
<!-- Node4&#45;&gt;Node5 -->
<g id="edge3" class="edge"><title>Node4&#45;&gt;Node5</title>
<path fill="none" stroke="midnightblue" d="M288.874,-75.8483C300.864,-73.2033 313.757,-70.3595 323.635,-68.1803"/>
<polygon fill="midnightblue" stroke="midnightblue" points="288.111,-72.4324 279.1,-78.0044 289.619,-79.2681 288.111,-72.4324"/>
</g>
<!-- Node6 -->
<g id="node5" class="node"><title>Node6</title>
<g id="a_node5"><a xlink:href="namespacecaiman_1_1base_1_1movies.html#a5a35758b31edb4a9b2105a058a0882a6" target="_top" xlink:title="load movies from list of file names ">
<polygon fill="white" stroke="black" points="394.772,-55.5 394.772,-73.5 491.383,-73.5 491.383,-55.5 394.772,-55.5"/>
<text text-anchor="middle" x="443.078" y="-61.5" font-family="Helvetica,sans-Serif" font-size="10.00">load_movie_chain</text>
</a>
</g>
</g>
<!-- Node5&#45;&gt;Node6 -->
<g id="edge4" class="edge"><title>Node5&#45;&gt;Node6</title>
<path fill="none" stroke="midnightblue" d="M368.865,-58.4547C376.79,-57.9388 385.728,-57.7062 394.568,-57.7568"/>
<polygon fill="midnightblue" stroke="midnightblue" points="368.45,-54.9775 358.792,-59.3337 369.059,-61.951 368.45,-54.9775"/>
</g>
<!-- Node6&#45;&gt;Node5 -->
<g id="edge5" class="edge"><title>Node6&#45;&gt;Node5</title>
<path fill="none" stroke="midnightblue" d="M384.342,-71.175C374.995,-70.9953 366.026,-70.4924 358.792,-69.6663"/>
<polygon fill="midnightblue" stroke="midnightblue" points="384.545,-74.6763 394.568,-71.2432 384.591,-67.6765 384.545,-74.6763"/>
</g>
<!-- Node7&#45;&gt;Node5 -->
<g id="edge7" class="edge"><title>Node7&#45;&gt;Node5</title>
<path fill="none" stroke="midnightblue" d="M298.108,-55.6786C307.266,-57.5924 316.372,-59.4955 323.769,-61.0414"/>
<polygon fill="midnightblue" stroke="midnightblue" points="298.733,-52.2338 288.228,-53.6141 297.301,-59.0857 298.733,-52.2338"/>
</g>
</g>
</svg>
