<?xml version="1.0" encoding="UTF-8" standalone="no"?>
<!DOCTYPE svg PUBLIC "-//W3C//DTD SVG 1.1//EN"
 "http://www.w3.org/Graphics/SVG/1.1/DTD/svg11.dtd">
<!-- Generated by graphviz version 2.38.0 (20140413.2041)
 -->
<!-- Title: extract_binary_masks_blob Pages: 1 -->
<svg width="295pt" height="47pt"
 viewBox="0.00 0.00 294.99 47.00" xmlns="http://www.w3.org/2000/svg" xmlns:xlink="http://www.w3.org/1999/xlink">
<g id="graph0" class="graph" transform="scale(1 1) rotate(0) translate(4 43)">
<title>extract_binary_masks_blob</title>
<polygon fill="white" stroke="none" points="-4,4 -4,-43 290.989,-43 290.989,4 -4,4"/>
<!-- Node17 -->
<g id="node1" class="node"><title>Node17</title>
<polygon fill="#bfbfbf" stroke="black" points="0,-10.5 0,-28.5 137.729,-28.5 137.729,-10.5 0,-10.5"/>
<text text-anchor="middle" x="68.8643" y="-16.5" font-family="Helvetica,sans-Serif" font-size="10.00">extract_binary_masks_blob</text>
</g>
<!-- Node18 -->
<g id="node2" class="node"><title>Node18</title>
<g id="a_node2"><a xlink:href="namespacecaiman_1_1base_1_1rois.html#afde6c0bad0f753a9a785404bdfda1000" target="_top" xlink:title="extract_binary_masks\l_blob_parallel_place\l_holder">
<polygon fill="white" stroke="black" points="173.729,-0.5 173.729,-38.5 286.989,-38.5 286.989,-0.5 173.729,-0.5"/>
<text text-anchor="start" x="181.729" y="-26.5" font-family="Helvetica,sans-Serif" font-size="10.00">extract_binary_masks</text>
<text text-anchor="start" x="181.729" y="-16.5" font-family="Helvetica,sans-Serif" font-size="10.00">_blob_parallel_place</text>
<text text-anchor="middle" x="230.359" y="-6.5" font-family="Helvetica,sans-Serif" font-size="10.00">_holder</text>
</a>
</g>
</g>
<!-- Node17&#45;&gt;Node18 -->
<g id="edge1" class="edge"><title>Node17&#45;&gt;Node18</title>
<path fill="none" stroke="midnightblue" d="M148.028,-19.5C156.628,-19.5 165.253,-19.5 173.502,-19.5"/>
<polygon fill="midnightblue" stroke="midnightblue" points="147.967,-16.0001 137.967,-19.5 147.967,-23.0001 147.967,-16.0001"/>
</g>
</g>
</svg>
