<?xml version="1.0" encoding="UTF-8" standalone="no"?>
<!DOCTYPE svg PUBLIC "-//W3C//DTD SVG 1.1//EN"
 "http://www.w3.org/Graphics/SVG/1.1/DTD/svg11.dtd">
<!-- Generated by graphviz version 2.38.0 (20140413.2041)
 -->
<!-- Title: load_data_from_stored_results Pages: 1 -->
<svg width="278pt" height="138pt"
 viewBox="0.00 0.00 278.34 138.00" xmlns="http://www.w3.org/2000/svg" xmlns:xlink="http://www.w3.org/1999/xlink">
<g id="graph0" class="graph" transform="scale(1 1) rotate(0) translate(4 134)">
<title>load_data_from_stored_results</title>
<polygon fill="white" stroke="none" points="-4,4 -4,-134 274.344,-134 274.344,4 -4,4"/>
<!-- Node26 -->
<g id="node1" class="node"><title>Node26</title>
<polygon fill="#bfbfbf" stroke="black" points="0,-32.5 0,-60.5 118.847,-60.5 118.847,-32.5 0,-32.5"/>
<text text-anchor="start" x="8" y="-48.5" font-family="Helvetica,sans-Serif" font-size="10.00">load_data_from_stored</text>
<text text-anchor="middle" x="59.4233" y="-38.5" font-family="Helvetica,sans-Serif" font-size="10.00">_results</text>
</g>
<!-- Node27 -->
<g id="node2" class="node"><title>Node27</title>
<g id="a_node2"><a xlink:href="namespaceuse__cases_1_1granule__cells_1_1utils__granule.html#a8d7c62cfe68cb8f54148c40fad7f2079" target="_top" xlink:title="Load results from CNMF on various FOVs and merge them after some preprocessing. ">
<polygon fill="white" stroke="black" points="177.635,-111.5 177.635,-129.5 247.556,-129.5 247.556,-111.5 177.635,-111.5"/>
<text text-anchor="middle" x="212.595" y="-117.5" font-family="Helvetica,sans-Serif" font-size="10.00">load_results</text>
</a>
</g>
</g>
<!-- Node26&#45;&gt;Node27 -->
<g id="edge1" class="edge"><title>Node26&#45;&gt;Node27</title>
<path fill="none" stroke="midnightblue" d="M81.0557,-60.6108C99.7054,-72.9027 128.235,-90.5768 154.847,-102.5 159.327,-104.507 164.099,-106.39 168.899,-108.124"/>
<polygon fill="midnightblue" stroke="midnightblue" points="168.114,-111.554 178.708,-111.469 170.373,-104.929 168.114,-111.554"/>
</g>
<!-- Node28 -->
<g id="node3" class="node"><title>Node28</title>
<g id="a_node3"><a xlink:href="namespaceuse__cases_1_1granule__cells_1_1utils__granule.html#a548726920163e9294689515308c625ca" target="_top" xlink:title="preprocess traces output of get_behavior_traces ">
<polygon fill="white" stroke="black" points="154.847,-74.5 154.847,-92.5 270.344,-92.5 270.344,-74.5 154.847,-74.5"/>
<text text-anchor="middle" x="212.595" y="-80.5" font-family="Helvetica,sans-Serif" font-size="10.00">process_eyelid_traces</text>
</a>
</g>
</g>
<!-- Node26&#45;&gt;Node28 -->
<g id="edge2" class="edge"><title>Node26&#45;&gt;Node28</title>
<path fill="none" stroke="midnightblue" d="M118.006,-60.5937C133.463,-64.3769 149.987,-68.4211 164.782,-72.0423"/>
<polygon fill="midnightblue" stroke="midnightblue" points="164.169,-75.4954 174.714,-74.4732 165.833,-68.6961 164.169,-75.4954"/>
</g>
<!-- Node29 -->
<g id="node4" class="node"><title>Node29</title>
<g id="a_node4"><a xlink:href="namespaceuse__cases_1_1granule__cells_1_1utils__granule.html#a0df0b96808c567e87ff6349d7ad41289" target="_top" xlink:title="Equivalent of take for the input format we are using. ">
<polygon fill="white" stroke="black" points="162.078,-37.5 162.078,-55.5 263.112,-55.5 263.112,-37.5 162.078,-37.5"/>
<text text-anchor="middle" x="212.595" y="-43.5" font-family="Helvetica,sans-Serif" font-size="10.00">extract_traces_mat</text>
</a>
</g>
</g>
<!-- Node26&#45;&gt;Node29 -->
<g id="edge3" class="edge"><title>Node26&#45;&gt;Node29</title>
<path fill="none" stroke="midnightblue" d="M118.87,-39.9067C129.574,-39.7079 140.762,-39.6983 151.512,-39.8778"/>
<polygon fill="midnightblue" stroke="midnightblue" points="151.579,-43.3801 161.656,-40.1079 151.738,-36.3819 151.579,-43.3801"/>
</g>
<!-- Node30 -->
<g id="node5" class="node"><title>Node30</title>
<g id="a_node5"><a xlink:href="namespaceuse__cases_1_1granule__cells_1_1utils__granule.html#ac9cde14ba363f17139f7a84a7164e5f4" target="_top" xlink:title="process_wheel_traces">
<polygon fill="white" stroke="black" points="154.847,-0.5 154.847,-18.5 270.344,-18.5 270.344,-0.5 154.847,-0.5"/>
<text text-anchor="middle" x="212.595" y="-6.5" font-family="Helvetica,sans-Serif" font-size="10.00">process_wheel_traces</text>
</a>
</g>
</g>
<!-- Node26&#45;&gt;Node30 -->
<g id="edge5" class="edge"><title>Node26&#45;&gt;Node30</title>
<path fill="none" stroke="midnightblue" d="M118.006,-32.4063C133.463,-28.6231 149.987,-24.5789 164.782,-20.9577"/>
<polygon fill="midnightblue" stroke="midnightblue" points="165.833,-24.3039 174.714,-18.5268 164.169,-17.5046 165.833,-24.3039"/>
</g>
<!-- Node29&#45;&gt;Node26 -->
<g id="edge4" class="edge"><title>Node29&#45;&gt;Node26</title>
<path fill="none" stroke="midnightblue" d="M161.656,-52.8921C151.172,-53.1956 139.941,-53.3061 128.913,-53.2235"/>
<polygon fill="midnightblue" stroke="midnightblue" points="128.915,-49.7233 118.87,-53.0933 128.824,-56.7227 128.915,-49.7233"/>
</g>
</g>
</svg>
