<?xml version="1.0" encoding="UTF-8" standalone="no"?>
<!DOCTYPE svg PUBLIC "-//W3C//DTD SVG 1.1//EN"
 "http://www.w3.org/Graphics/SVG/1.1/DTD/svg11.dtd">
<!-- Generated by graphviz version 2.38.0 (20140413.2041)
 -->
<!-- Title: GetSn Pages: 1 -->
<svg width="1144pt" height="126pt"
 viewBox="0.00 0.00 1143.65 126.00" xmlns="http://www.w3.org/2000/svg" xmlns:xlink="http://www.w3.org/1999/xlink">
<g id="graph0" class="graph" transform="scale(1 1) rotate(0) translate(4 122)">
<title>GetSn</title>
<polygon fill="white" stroke="none" points="-4,4 -4,-122 1139.65,-122 1139.65,4 -4,4"/>
<!-- Node95 -->
<g id="node1" class="node"><title>Node95</title>
<polygon fill="#bfbfbf" stroke="black" points="0,-29.5 0,-47.5 44.3496,-47.5 44.3496,-29.5 0,-29.5"/>
<text text-anchor="middle" x="22.1748" y="-35.5" font-family="Helvetica,sans-Serif" font-size="10.00">GetSn</text>
</g>
<!-- Node96 -->
<g id="node2" class="node"><title>Node96</title>
<g id="a_node2"><a xlink:href="namespacecaiman_1_1source__extraction_1_1cnmf_1_1deconvolution.html#a7199190b4f33e4a70dedc9deea7e4c45" target="_top" xlink:title="estimate_parameters">
<polygon fill="white" stroke="black" points="237.96,-48.5 237.96,-66.5 347.891,-66.5 347.891,-48.5 237.96,-48.5"/>
<text text-anchor="middle" x="292.925" y="-54.5" font-family="Helvetica,sans-Serif" font-size="10.00">estimate_parameters</text>
</a>
</g>
</g>
<!-- Node95&#45;&gt;Node96 -->
<g id="edge1" class="edge"><title>Node95&#45;&gt;Node96</title>
<path fill="none" stroke="midnightblue" d="M54.7674,-40.7335C99.7741,-43.9154 182.967,-49.7969 237.881,-53.6792"/>
<polygon fill="midnightblue" stroke="midnightblue" points="54.9354,-37.2368 44.7135,-40.0227 54.4417,-44.2193 54.9354,-37.2368"/>
</g>
<!-- Node104 -->
<g id="node10" class="node"><title>Node104</title>
<g id="a_node10"><a xlink:href="namespacecaiman_1_1source__extraction_1_1cnmf_1_1deconvolution.html#a7a73db2b3e0e88f4a5f30f80944c1319" target="_top" xlink:title="estimate_time_constant">
<polygon fill="white" stroke="black" points="80.3496,-10.5 80.3496,-28.5 201.96,-28.5 201.96,-10.5 80.3496,-10.5"/>
<text text-anchor="middle" x="141.155" y="-16.5" font-family="Helvetica,sans-Serif" font-size="10.00">estimate_time_constant</text>
</a>
</g>
</g>
<!-- Node95&#45;&gt;Node104 -->
<g id="edge11" class="edge"><title>Node95&#45;&gt;Node104</title>
<path fill="none" stroke="midnightblue" d="M54.2969,-33.4451C63.611,-31.9323 74.1204,-30.2254 84.5099,-28.5379"/>
<polygon fill="midnightblue" stroke="midnightblue" points="53.6685,-30.0012 44.359,-35.0592 54.7908,-36.9107 53.6685,-30.0012"/>
</g>
<!-- Node97 -->
<g id="node3" class="node"><title>Node97</title>
<g id="a_node3"><a xlink:href="namespacecaiman_1_1source__extraction_1_1cnmf_1_1deconvolution.html#a0afb63d84485a181bb40f2eefe7b581e" target="_top" xlink:title="Infer the most likely discretized spike train underlying a fluorescence trace. ">
<polygon fill="white" stroke="black" points="535.949,-47.5 535.949,-65.5 635.895,-65.5 635.895,-47.5 535.949,-47.5"/>
<text text-anchor="middle" x="585.922" y="-53.5" font-family="Helvetica,sans-Serif" font-size="10.00">constrained_foopsi</text>
</a>
</g>
</g>
<!-- Node96&#45;&gt;Node97 -->
<g id="edge2" class="edge"><title>Node96&#45;&gt;Node97</title>
<path fill="none" stroke="midnightblue" d="M358.035,-57.2797C411.514,-57.0959 486.62,-56.8378 535.524,-56.6698"/>
<polygon fill="midnightblue" stroke="midnightblue" points="357.965,-53.7798 347.978,-57.3143 357.99,-60.7798 357.965,-53.7798"/>
</g>
<!-- Node102 -->
<g id="node8" class="node"><title>Node102</title>
<g id="a_node8"><a xlink:href="namespacecaiman_1_1source__extraction_1_1cnmf_1_1deconvolution.html#a5753e123f06d6f8a5f53e8f1cc50baba" target="_top" xlink:title="Infer the most likely discretized spike train underlying an AR(2) fluorescence trace. ">
<polygon fill="white" stroke="black" points="383.891,-10.5 383.891,-28.5 499.949,-28.5 499.949,-10.5 383.891,-10.5"/>
<text text-anchor="middle" x="441.92" y="-16.5" font-family="Helvetica,sans-Serif" font-size="10.00">constrained_oasisAR2</text>
</a>
</g>
</g>
<!-- Node96&#45;&gt;Node102 -->
<g id="edge7" class="edge"><title>Node96&#45;&gt;Node102</title>
<path fill="none" stroke="midnightblue" d="M338.708,-45.9231C360.346,-40.3294 385.924,-33.7172 406.08,-28.5066"/>
<polygon fill="midnightblue" stroke="midnightblue" points="337.567,-42.603 328.761,-48.4945 339.319,-49.3802 337.567,-42.603"/>
</g>
<!-- Node98 -->
<g id="node4" class="node"><title>Node98</title>
<g id="a_node4"><a xlink:href="namespacecaiman_1_1source__extraction_1_1cnmf_1_1merging.html#ad08adf2e086a22ef379b10ed3ee36936" target="_top" xlink:title="Merging of spatially overlapping components that have highly correlated temporal activity The correla...">
<polygon fill="white" stroke="black" points="684.961,-89.5 684.961,-117.5 909.384,-117.5 909.384,-89.5 684.961,-89.5"/>
<text text-anchor="start" x="692.961" y="-105.5" font-family="Helvetica,sans-Serif" font-size="10.00">caiman.source_extraction.cnmf.merging.merge</text>
<text text-anchor="middle" x="797.172" y="-95.5" font-family="Helvetica,sans-Serif" font-size="10.00">_components</text>
</a>
</g>
</g>
<!-- Node97&#45;&gt;Node98 -->
<g id="edge3" class="edge"><title>Node97&#45;&gt;Node98</title>
<path fill="none" stroke="midnightblue" d="M626.246,-68.4239C640.544,-72.5425 656.878,-76.9978 671.895,-80.5 685.571,-83.6897 700.176,-86.7221 714.391,-89.4764"/>
<polygon fill="midnightblue" stroke="midnightblue" points="626.822,-64.9461 616.242,-65.5028 624.86,-71.6655 626.822,-64.9461"/>
</g>
<!-- Node99 -->
<g id="node5" class="node"><title>Node99</title>
<g id="a_node5"><a xlink:href="namespacecaiman_1_1source__extraction_1_1cnmf_1_1temporal.html#a2ede407f1e0d0722f51ddb6e99f48f9f" target="_top" xlink:title="necessary for parallel computation of the function constrained_foopsi ">
<polygon fill="white" stroke="black" points="671.895,-42.5 671.895,-70.5 922.45,-70.5 922.45,-42.5 671.895,-42.5"/>
<text text-anchor="start" x="679.895" y="-58.5" font-family="Helvetica,sans-Serif" font-size="10.00">caiman.source_extraction.cnmf.temporal.constrained</text>
<text text-anchor="middle" x="797.172" y="-48.5" font-family="Helvetica,sans-Serif" font-size="10.00">_foopsi_parallel</text>
</a>
</g>
</g>
<!-- Node97&#45;&gt;Node99 -->
<g id="edge4" class="edge"><title>Node97&#45;&gt;Node99</title>
<path fill="none" stroke="midnightblue" d="M646.057,-56.5C654.221,-56.5 662.843,-56.5 671.661,-56.5"/>
<polygon fill="midnightblue" stroke="midnightblue" points="645.982,-53.0001 635.982,-56.5 645.982,-60.0001 645.982,-53.0001"/>
</g>
<!-- Node100 -->
<g id="node6" class="node"><title>Node100</title>
<g id="a_node6"><a xlink:href="namespacecaiman_1_1tests_1_1test__deconvolution.html#aaebeed7ce9541fa4c56791c67009cdc6" target="_top" xlink:title="caiman.tests.test_deconvolution.foo">
<polygon fill="white" stroke="black" points="709.68,-5.5 709.68,-23.5 884.665,-23.5 884.665,-5.5 709.68,-5.5"/>
<text text-anchor="middle" x="797.172" y="-11.5" font-family="Helvetica,sans-Serif" font-size="10.00">caiman.tests.test_deconvolution.foo</text>
</a>
</g>
</g>
<!-- Node97&#45;&gt;Node100 -->
<g id="edge5" class="edge"><title>Node97&#45;&gt;Node100</title>
<path fill="none" stroke="midnightblue" d="M625.069,-44.5719C639.618,-40.3277 656.423,-35.7905 671.895,-32.5 688.208,-29.0306 705.869,-26.0273 722.616,-23.5214"/>
<polygon fill="midnightblue" stroke="midnightblue" points="623.989,-41.2412 615.4,-47.4444 625.983,-47.9513 623.989,-41.2412"/>
</g>
<!-- Node101 -->
<g id="node7" class="node"><title>Node101</title>
<g id="a_node7"><a xlink:href="namespacecaiman_1_1tests_1_1test__deconvolution.html#a90f82ae854f8179179664fe34973f11b" target="_top" xlink:title="caiman.tests.test_deconvolution.test\l_oasis">
<polygon fill="white" stroke="black" points="958.45,-0.5 958.45,-28.5 1135.65,-28.5 1135.65,-0.5 958.45,-0.5"/>
<text text-anchor="start" x="966.45" y="-16.5" font-family="Helvetica,sans-Serif" font-size="10.00">caiman.tests.test_deconvolution.test</text>
<text text-anchor="middle" x="1047.05" y="-6.5" font-family="Helvetica,sans-Serif" font-size="10.00">_oasis</text>
</a>
</g>
</g>
<!-- Node100&#45;&gt;Node101 -->
<g id="edge6" class="edge"><title>Node100&#45;&gt;Node101</title>
<path fill="none" stroke="midnightblue" d="M894.989,-14.5C915.804,-14.5 937.692,-14.5 958.146,-14.5"/>
<polygon fill="midnightblue" stroke="midnightblue" points="894.868,-11.0001 884.868,-14.5 894.868,-18.0001 894.868,-11.0001"/>
</g>
<!-- Node102&#45;&gt;Node97 -->
<g id="edge8" class="edge"><title>Node102&#45;&gt;Node97</title>
<path fill="none" stroke="midnightblue" d="M487.559,-31.131C507.727,-36.3862 531.204,-42.5033 550.051,-47.414"/>
<polygon fill="midnightblue" stroke="midnightblue" points="488.217,-27.6858 477.658,-28.5512 486.452,-34.4596 488.217,-27.6858"/>
</g>
<!-- Node103 -->
<g id="node9" class="node"><title>Node103</title>
<g id="a_node9"><a xlink:href="namespacecaiman_1_1source__extraction_1_1cnmf_1_1deconvolution.html#affae481e26d5e13bc6f62c6e643b63d5" target="_top" xlink:title="Infer the most likely discretized spike train underlying an AR(2) fluorescence trace. ">
<polygon fill="white" stroke="black" points="565.969,-10.5 565.969,-28.5 605.875,-28.5 605.875,-10.5 565.969,-10.5"/>
<text text-anchor="middle" x="585.922" y="-16.5" font-family="Helvetica,sans-Serif" font-size="10.00">onnls</text>
</a>
</g>
</g>
<!-- Node102&#45;&gt;Node103 -->
<g id="edge9" class="edge"><title>Node102&#45;&gt;Node103</title>
<path fill="none" stroke="midnightblue" d="M510.511,-12.7569C530.846,-12.6743 551.556,-13.3314 565.946,-14.7284"/>
<polygon fill="midnightblue" stroke="midnightblue" points="510.232,-9.25951 500.268,-12.8622 510.304,-16.2591 510.232,-9.25951"/>
</g>
<!-- Node103&#45;&gt;Node102 -->
<g id="edge10" class="edge"><title>Node103&#45;&gt;Node102</title>
<path fill="none" stroke="midnightblue" d="M555.644,-25.0835C539.651,-26.1023 519.281,-26.4538 500.268,-26.1378"/>
<polygon fill="midnightblue" stroke="midnightblue" points="556.252,-28.5466 565.946,-24.2716 555.702,-21.5682 556.252,-28.5466"/>
</g>
<!-- Node104&#45;&gt;Node96 -->
<g id="edge13" class="edge"><title>Node104&#45;&gt;Node96</title>
<path fill="none" stroke="midnightblue" d="M187.484,-31.001C209.594,-36.6107 235.798,-43.2592 256.427,-48.4934"/>
<polygon fill="midnightblue" stroke="midnightblue" points="188.202,-27.5723 177.648,-28.5055 186.48,-34.3573 188.202,-27.5723"/>
</g>
<!-- Node104&#45;&gt;Node102 -->
<g id="edge12" class="edge"><title>Node104&#45;&gt;Node102</title>
<path fill="none" stroke="midnightblue" d="M212.44,-19.5C264.632,-19.5 334.927,-19.5 383.703,-19.5"/>
<polygon fill="midnightblue" stroke="midnightblue" points="212.255,-16.0001 202.255,-19.5 212.255,-23.0001 212.255,-16.0001"/>
</g>
</g>
</svg>
