<?xml version="1.0" encoding="UTF-8" standalone="no"?>
<!DOCTYPE svg PUBLIC "-//W3C//DTD SVG 1.1//EN"
 "http://www.w3.org/Graphics/SVG/1.1/DTD/svg11.dtd">
<!-- Generated by graphviz version 2.38.0 (20140413.2041)
 -->
<!-- Title: tile_and_correct Pages: 1 -->
<svg width="401pt" height="252pt"
 viewBox="0.00 0.00 400.75 252.00" xmlns="http://www.w3.org/2000/svg" xmlns:xlink="http://www.w3.org/1999/xlink">
<g id="graph0" class="graph" transform="scale(1 1) rotate(0) translate(4 248)">
<title>tile_and_correct</title>
<polygon fill="white" stroke="none" points="-4,4 -4,-248 396.754,-248 396.754,4 -4,4"/>
<!-- Node123 -->
<g id="node1" class="node"><title>Node123</title>
<polygon fill="#bfbfbf" stroke="black" points="0,-95.5 0,-113.5 87.1523,-113.5 87.1523,-95.5 0,-95.5"/>
<text text-anchor="middle" x="43.5762" y="-101.5" font-family="Helvetica,sans-Serif" font-size="10.00">tile_and_correct</text>
</g>
<!-- Node124 -->
<g id="node2" class="node"><title>Node124</title>
<g id="a_node2"><a xlink:href="namespacecaiman_1_1motion__correction.html#a0700d66a3a6b2556b1c712daf9c18a9b" target="_top" xlink:title="register_translation">
<polygon fill="white" stroke="black" points="136.487,-207.5 136.487,-225.5 237.531,-225.5 237.531,-207.5 136.487,-207.5"/>
<text text-anchor="middle" x="187.009" y="-213.5" font-family="Helvetica,sans-Serif" font-size="10.00">register_translation</text>
</a>
</g>
</g>
<!-- Node123&#45;&gt;Node124 -->
<g id="edge1" class="edge"><title>Node123&#45;&gt;Node124</title>
<path fill="none" stroke="midnightblue" d="M49.5762,-113.536C60.4309,-132.304 88.0275,-175.652 123.152,-198.5 126.047,-200.383 129.141,-202.073 132.347,-203.588"/>
<polygon fill="midnightblue" stroke="midnightblue" points="131.024,-206.829 141.603,-207.415 133.699,-200.36 131.024,-206.829"/>
</g>
<!-- Node127 -->
<g id="node5" class="node"><title>Node127</title>
<g id="a_node5"><a xlink:href="namespacecaiman_1_1motion__correction.html#a54e0e94e8c54dadcad8bc6688e46c590" target="_top" xlink:title="apply_shift_iteration">
<polygon fill="white" stroke="black" points="134.537,-170.5 134.537,-188.5 239.482,-188.5 239.482,-170.5 134.537,-170.5"/>
<text text-anchor="middle" x="187.009" y="-176.5" font-family="Helvetica,sans-Serif" font-size="10.00">apply_shift_iteration</text>
</a>
</g>
</g>
<!-- Node123&#45;&gt;Node127 -->
<g id="edge4" class="edge"><title>Node123&#45;&gt;Node127</title>
<path fill="none" stroke="midnightblue" d="M54.9882,-113.915C69.3463,-126.441 96.4859,-148.512 123.152,-161.5 127.454,-163.595 132.044,-165.489 136.71,-167.19"/>
<polygon fill="midnightblue" stroke="midnightblue" points="135.733,-170.554 146.327,-170.415 137.959,-163.917 135.733,-170.554"/>
</g>
<!-- Node128 -->
<g id="node6" class="node"><title>Node128</title>
<g id="a_node6"><a xlink:href="namespacecaiman_1_1motion__correction.html#ad4fabc7e2b2082da438e99a60ca41d96" target="_top" xlink:title="apply_shifts_dft">
<polygon fill="white" stroke="black" points="144.266,-133.5 144.266,-151.5 229.753,-151.5 229.753,-133.5 144.266,-133.5"/>
<text text-anchor="middle" x="187.009" y="-139.5" font-family="Helvetica,sans-Serif" font-size="10.00">apply_shifts_dft</text>
</a>
</g>
</g>
<!-- Node123&#45;&gt;Node128 -->
<g id="edge5" class="edge"><title>Node123&#45;&gt;Node128</title>
<path fill="none" stroke="midnightblue" d="M78.0938,-113.505C97.3286,-118.673 121.696,-125.22 142.407,-130.785"/>
<polygon fill="midnightblue" stroke="midnightblue" points="141.676,-134.213 152.242,-133.427 143.493,-127.453 141.676,-134.213"/>
</g>
<!-- Node129 -->
<g id="node7" class="node"><title>Node129</title>
<g id="a_node7"><a xlink:href="namespacecaiman_1_1motion__correction.html#aef362667b31a29dfcc1a0c35c87f01ad" target="_top" xlink:title="efficiently and lazily slides a window across the image Parameters img:ndarray 2D image that needs to...">
<polygon fill="white" stroke="black" points="298.18,-74.5 298.18,-92.5 381.44,-92.5 381.44,-74.5 298.18,-74.5"/>
<text text-anchor="middle" x="339.81" y="-80.5" font-family="Helvetica,sans-Serif" font-size="10.00">sliding_window</text>
</a>
</g>
</g>
<!-- Node123&#45;&gt;Node129 -->
<g id="edge6" class="edge"><title>Node123&#45;&gt;Node129</title>
<path fill="none" stroke="midnightblue" d="M87.3603,-101.446C140.477,-97.6554 230.977,-91.1963 287.691,-87.1484"/>
<polygon fill="midnightblue" stroke="midnightblue" points="288.146,-90.625 297.872,-86.4219 287.648,-83.6427 288.146,-90.625"/>
</g>
<!-- Node130 -->
<g id="node8" class="node"><title>Node130</title>
<g id="a_node8"><a xlink:href="namespacecaiman_1_1motion__correction.html#a88ef513cfa324fc8548e4fb46d7a67e5" target="_top" xlink:title="create a matrix that is used to normalize the intersection of the stiched patches ...">
<polygon fill="white" stroke="black" points="131.487,-47.5 131.487,-75.5 242.531,-75.5 242.531,-47.5 131.487,-47.5"/>
<text text-anchor="start" x="139.487" y="-63.5" font-family="Helvetica,sans-Serif" font-size="10.00">create_weight_matrix</text>
<text text-anchor="middle" x="187.009" y="-53.5" font-family="Helvetica,sans-Serif" font-size="10.00">_for_blending</text>
</a>
</g>
</g>
<!-- Node123&#45;&gt;Node130 -->
<g id="edge7" class="edge"><title>Node123&#45;&gt;Node130</title>
<path fill="none" stroke="midnightblue" d="M59.9812,-95.4148C74.9534,-89.1392 98.7201,-81.1386 121.599,-74.3565"/>
<polygon fill="midnightblue" stroke="midnightblue" points="122.695,-77.6831 131.322,-71.5332 120.743,-70.9608 122.695,-77.6831"/>
</g>
<!-- Node131 -->
<g id="node9" class="node"><title>Node131</title>
<g id="a_node9"><a xlink:href="namespacecaiman_1_1motion__correction.html#a93dc0dbba76cd31384bb0fdca775fff6" target="_top" xlink:title="compute_metrics_motion\l_correction">
<polygon fill="white" stroke="black" points="123.152,-0.5 123.152,-28.5 250.866,-28.5 250.866,-0.5 123.152,-0.5"/>
<text text-anchor="start" x="131.152" y="-16.5" font-family="Helvetica,sans-Serif" font-size="10.00">compute_metrics_motion</text>
<text text-anchor="middle" x="187.009" y="-6.5" font-family="Helvetica,sans-Serif" font-size="10.00">_correction</text>
</a>
</g>
</g>
<!-- Node123&#45;&gt;Node131 -->
<g id="edge10" class="edge"><title>Node123&#45;&gt;Node131</title>
<path fill="none" stroke="midnightblue" d="M53.4714,-95.2646C67.2799,-81.362 95.2043,-54.9385 123.152,-38.5 126.566,-36.492 130.178,-34.5949 133.877,-32.8146"/>
<polygon fill="midnightblue" stroke="midnightblue" points="135.495,-35.9244 143.182,-28.6329 132.626,-29.5395 135.495,-35.9244"/>
</g>
<!-- Node125 -->
<g id="node3" class="node"><title>Node125</title>
<g id="a_node3"><a xlink:href="namespacecaiman_1_1motion__correction.html#aa339d12f180017a763175f450816f158" target="_top" xlink:title="_upsampled_dft">
<polygon fill="white" stroke="black" points="296.229,-225.5 296.229,-243.5 383.391,-243.5 383.391,-225.5 296.229,-225.5"/>
<text text-anchor="middle" x="339.81" y="-231.5" font-family="Helvetica,sans-Serif" font-size="10.00">_upsampled_dft</text>
</a>
</g>
</g>
<!-- Node124&#45;&gt;Node125 -->
<g id="edge2" class="edge"><title>Node124&#45;&gt;Node125</title>
<path fill="none" stroke="midnightblue" d="M237.805,-222.444C253.288,-224.292 270.405,-226.335 286.08,-228.206"/>
<polygon fill="midnightblue" stroke="midnightblue" points="285.797,-231.697 296.142,-229.407 286.627,-224.746 285.797,-231.697"/>
</g>
<!-- Node126 -->
<g id="node4" class="node"><title>Node126</title>
<g id="a_node4"><a xlink:href="namespacecaiman_1_1motion__correction.html#a09859fe5f2beba321b5397662b26651b" target="_top" xlink:title="_compute_phasediff">
<polygon fill="white" stroke="black" points="286.866,-188.5 286.866,-206.5 392.754,-206.5 392.754,-188.5 286.866,-188.5"/>
<text text-anchor="middle" x="339.81" y="-194.5" font-family="Helvetica,sans-Serif" font-size="10.00">_compute_phasediff</text>
</a>
</g>
</g>
<!-- Node124&#45;&gt;Node126 -->
<g id="edge3" class="edge"><title>Node124&#45;&gt;Node126</title>
<path fill="none" stroke="midnightblue" d="M237.805,-210.226C250.193,-208.665 263.628,-206.973 276.533,-205.347"/>
<polygon fill="midnightblue" stroke="midnightblue" points="277.255,-208.783 286.739,-204.061 276.38,-201.838 277.255,-208.783"/>
</g>
<!-- Node130&#45;&gt;Node123 -->
<g id="edge9" class="edge"><title>Node130&#45;&gt;Node123</title>
<path fill="none" stroke="midnightblue" d="M157.638,-75.658C140.348,-82.0552 117.711,-89.2768 97.2382,-95.0397"/>
<polygon fill="midnightblue" stroke="midnightblue" points="96.1115,-91.7194 87.3946,-97.7415 97.9644,-98.4697 96.1115,-91.7194"/>
</g>
<!-- Node130&#45;&gt;Node129 -->
<g id="edge8" class="edge"><title>Node130&#45;&gt;Node129</title>
<path fill="none" stroke="midnightblue" d="M242.878,-69.5047C257.516,-71.6402 273.271,-73.9386 287.698,-76.0433"/>
<polygon fill="midnightblue" stroke="midnightblue" points="287.532,-79.5562 297.933,-77.5365 288.543,-72.6295 287.532,-79.5562"/>
</g>
</g>
</svg>
