<?xml version="1.0" encoding="UTF-8" standalone="no"?>
<!DOCTYPE svg PUBLIC "-//W3C//DTD SVG 1.1//EN"
 "http://www.w3.org/Graphics/SVG/1.1/DTD/svg11.dtd">
<!-- Generated by graphviz version 2.38.0 (20140413.2041)
 -->
<!-- Title: load_memmap Pages: 1 -->
<svg width="1078pt" height="365pt"
 viewBox="0.00 0.00 1078.48 365.00" xmlns="http://www.w3.org/2000/svg" xmlns:xlink="http://www.w3.org/1999/xlink">
<g id="graph0" class="graph" transform="scale(1 1) rotate(0) translate(4 361)">
<title>load_memmap</title>
<polygon fill="white" stroke="none" points="-4,4 -4,-361 1074.48,-361 1074.48,4 -4,4"/>
<!-- Node11 -->
<g id="node1" class="node"><title>Node11</title>
<polygon fill="#bfbfbf" stroke="black" points="0,-169.5 0,-187.5 82.1426,-187.5 82.1426,-169.5 0,-169.5"/>
<text text-anchor="middle" x="41.0713" y="-175.5" font-family="Helvetica,sans-Serif" font-size="10.00">load_memmap</text>
</g>
<!-- Node12 -->
<g id="node2" class="node"><title>Node12</title>
<g id="a_node2"><a xlink:href="namespacecaiman_1_1cluster.html#a0791f5c2482e1707e24578a03446a69d" target="_top" xlink:title="caiman.cluster.function\l_place_holder">
<polygon fill="white" stroke="black" points="177.054,-328.5 177.054,-356.5 294.777,-356.5 294.777,-328.5 177.054,-328.5"/>
<text text-anchor="start" x="185.054" y="-344.5" font-family="Helvetica,sans-Serif" font-size="10.00">caiman.cluster.function</text>
<text text-anchor="middle" x="235.916" y="-334.5" font-family="Helvetica,sans-Serif" font-size="10.00">_place_holder</text>
</a>
</g>
</g>
<!-- Node11&#45;&gt;Node12 -->
<g id="edge1" class="edge"><title>Node11&#45;&gt;Node12</title>
<path fill="none" stroke="midnightblue" d="M46.664,-197.406C55.1796,-228.187 76.4685,-288.778 118.143,-319.5 134.941,-331.883 156.66,-338.076 176.803,-341.034"/>
<polygon fill="midnightblue" stroke="midnightblue" points="49.998,-196.32 44.0905,-187.525 43.2239,-198.084 49.998,-196.32"/>
</g>
<!-- Node13 -->
<g id="node3" class="node"><title>Node13</title>
<g id="a_node3"><a xlink:href="namespacecaiman_1_1source__extraction_1_1cnmf_1_1map__reduce.html#af6abfd3565abe5dcb4298e6c55cac9d1" target="_top" xlink:title="caiman.source_extraction.cnmf.map\l_reduce.cnmf_patches">
<polygon fill="white" stroke="black" points="147.603,-281.5 147.603,-309.5 324.228,-309.5 324.228,-281.5 147.603,-281.5"/>
<text text-anchor="start" x="155.603" y="-297.5" font-family="Helvetica,sans-Serif" font-size="10.00">caiman.source_extraction.cnmf.map</text>
<text text-anchor="middle" x="235.916" y="-287.5" font-family="Helvetica,sans-Serif" font-size="10.00">_reduce.cnmf_patches</text>
</a>
</g>
</g>
<!-- Node11&#45;&gt;Node13 -->
<g id="edge2" class="edge"><title>Node11&#45;&gt;Node13</title>
<path fill="none" stroke="midnightblue" d="M51.5282,-196.64C63.8289,-218.321 87.426,-253.985 118.143,-272.5 127.168,-277.94 137.231,-282.125 147.562,-285.34"/>
<polygon fill="midnightblue" stroke="midnightblue" points="54.5514,-194.874 46.6864,-187.775 48.4079,-198.229 54.5514,-194.874"/>
</g>
<!-- Node14 -->
<g id="node4" class="node"><title>Node14</title>
<g id="a_node4"><a xlink:href="namespacecaiman_1_1mmapping.html#a0501b5275136a4c678312e5b2902deb2" target="_top" xlink:title="From small memory mappable files creates a large one. ">
<polygon fill="white" stroke="black" points="183.172,-244.5 183.172,-262.5 288.659,-262.5 288.659,-244.5 183.172,-244.5"/>
<text text-anchor="middle" x="235.916" y="-250.5" font-family="Helvetica,sans-Serif" font-size="10.00">save_memmap_join</text>
</a>
</g>
</g>
<!-- Node11&#45;&gt;Node14 -->
<g id="edge3" class="edge"><title>Node11&#45;&gt;Node14</title>
<path fill="none" stroke="midnightblue" d="M58.5249,-194.666C72.9894,-207.873 95.2517,-225.876 118.143,-235.5 138.47,-244.046 162.317,-248.589 183.143,-250.984"/>
<polygon fill="midnightblue" stroke="midnightblue" points="60.6428,-191.853 50.9637,-187.544 55.8431,-196.949 60.6428,-191.853"/>
</g>
<!-- Node15 -->
<g id="node5" class="node"><title>Node15</title>
<g id="a_node5"><a xlink:href="namespacecaiman_1_1mmapping.html#a68a1fd663ff256d832c0355f4f851124" target="_top" xlink:title="save_portion">
<polygon fill="white" stroke="black" points="199.285,-207.5 199.285,-225.5 272.546,-225.5 272.546,-207.5 199.285,-207.5"/>
<text text-anchor="middle" x="235.916" y="-213.5" font-family="Helvetica,sans-Serif" font-size="10.00">save_portion</text>
</a>
</g>
</g>
<!-- Node11&#45;&gt;Node15 -->
<g id="edge4" class="edge"><title>Node11&#45;&gt;Node15</title>
<path fill="none" stroke="midnightblue" d="M92.5492,-188.447C126.015,-195.041 169.118,-203.535 199.088,-209.44"/>
<polygon fill="midnightblue" stroke="midnightblue" points="92.9858,-184.965 82.4978,-186.466 91.6324,-191.833 92.9858,-184.965"/>
</g>
<!-- Node16 -->
<g id="node6" class="node"><title>Node16</title>
<g id="a_node6"><a xlink:href="namespacecaiman_1_1mmapping.html#a14d47c076020d7d3adf2599ed3354e4b" target="_top" xlink:title="dot_place_holder">
<polygon fill="white" stroke="black" points="189.551,-131.5 189.551,-149.5 282.28,-149.5 282.28,-131.5 189.551,-131.5"/>
<text text-anchor="middle" x="235.916" y="-137.5" font-family="Helvetica,sans-Serif" font-size="10.00">dot_place_holder</text>
</a>
</g>
</g>
<!-- Node11&#45;&gt;Node16 -->
<g id="edge5" class="edge"><title>Node11&#45;&gt;Node16</title>
<path fill="none" stroke="midnightblue" d="M92.3689,-168.589C122.431,-162.665 160.319,-155.199 189.476,-149.454"/>
<polygon fill="midnightblue" stroke="midnightblue" points="91.6324,-165.167 82.4978,-170.534 92.9858,-172.035 91.6324,-165.167"/>
</g>
<!-- Node18 -->
<g id="node8" class="node"><title>Node18</title>
<g id="a_node8"><a xlink:href="namespacecaiman_1_1source__extraction_1_1cnmf_1_1spatial.html#ab7b90a8cbd754f9c03b13cf1709eebd4" target="_top" xlink:title="update spatial footprints and background through Basis Pursuit Denoising ">
<polygon fill="white" stroke="black" points="570.348,-169.5 570.348,-197.5 789.791,-197.5 789.791,-169.5 570.348,-169.5"/>
<text text-anchor="start" x="578.348" y="-185.5" font-family="Helvetica,sans-Serif" font-size="10.00">caiman.source_extraction.cnmf.spatial.update</text>
<text text-anchor="middle" x="680.069" y="-175.5" font-family="Helvetica,sans-Serif" font-size="10.00">_spatial_components</text>
</a>
</g>
</g>
<!-- Node11&#45;&gt;Node18 -->
<g id="edge18" class="edge"><title>Node11&#45;&gt;Node18</title>
<path fill="none" stroke="midnightblue" d="M92.5065,-178.896C195.234,-179.702 430.771,-181.551 570.113,-182.645"/>
<polygon fill="midnightblue" stroke="midnightblue" points="92.4288,-175.395 82.4016,-178.817 92.3738,-182.395 92.4288,-175.395"/>
</g>
<!-- Node24 -->
<g id="node14" class="node"><title>Node24</title>
<g id="a_node14"><a xlink:href="namespacecaiman_1_1base_1_1movies.html#a6d585c260307278135a0b4b09440b313" target="_top" xlink:title="load movie from file. ">
<polygon fill="white" stroke="black" points="171.497,-94.5 171.497,-112.5 300.334,-112.5 300.334,-94.5 171.497,-94.5"/>
<text text-anchor="middle" x="235.916" y="-100.5" font-family="Helvetica,sans-Serif" font-size="10.00">caiman.base.movies.load</text>
</a>
</g>
</g>
<!-- Node11&#45;&gt;Node24 -->
<g id="edge14" class="edge"><title>Node11&#45;&gt;Node24</title>
<path fill="none" stroke="midnightblue" d="M59.0843,-162.239C73.6026,-149.339 95.6474,-131.956 118.143,-122.5 134.71,-115.535 153.595,-111.112 171.276,-108.307"/>
<polygon fill="midnightblue" stroke="midnightblue" points="56.4699,-159.887 51.4594,-169.222 61.1978,-165.049 56.4699,-159.887"/>
</g>
<!-- Node26 -->
<g id="node16" class="node"><title>Node26</title>
<g id="a_node16"><a xlink:href="namespacecaiman_1_1source__extraction_1_1cnmf_1_1pre__processing.html#a2442af4ba144dd56a99ff21e770306ce" target="_top" xlink:title="helper function to parallelize get_noise_fft ">
<polygon fill="white" stroke="black" points="150.103,-47.5 150.103,-75.5 321.728,-75.5 321.728,-47.5 150.103,-47.5"/>
<text text-anchor="start" x="158.103" y="-63.5" font-family="Helvetica,sans-Serif" font-size="10.00">caiman.source_extraction.cnmf.pre</text>
<text text-anchor="middle" x="235.916" y="-53.5" font-family="Helvetica,sans-Serif" font-size="10.00">_processing.fft_psd_multithreading</text>
</a>
</g>
</g>
<!-- Node11&#45;&gt;Node26 -->
<g id="edge17" class="edge"><title>Node11&#45;&gt;Node26</title>
<path fill="none" stroke="midnightblue" d="M51.6027,-160.594C63.9784,-139.186 87.6506,-103.942 118.143,-85.5 127.883,-79.6089 138.828,-75.1414 150.01,-71.7577"/>
<polygon fill="midnightblue" stroke="midnightblue" points="48.536,-158.907 46.7276,-169.346 54.6514,-162.313 48.536,-158.907"/>
</g>
<!-- Node27 -->
<g id="node17" class="node"><title>Node27</title>
<g id="a_node17"><a xlink:href="namespacecaiman_1_1source__extraction_1_1cnmf_1_1spatial.html#af3e32db8a5aeabf7269b756732a5e5a1" target="_top" xlink:title="caiman.source_extraction.cnmf.spatial.regression\l_ipyparallel">
<polygon fill="white" stroke="black" points="118.143,-0.5 118.143,-28.5 353.688,-28.5 353.688,-0.5 118.143,-0.5"/>
<text text-anchor="start" x="126.143" y="-16.5" font-family="Helvetica,sans-Serif" font-size="10.00">caiman.source_extraction.cnmf.spatial.regression</text>
<text text-anchor="middle" x="235.916" y="-6.5" font-family="Helvetica,sans-Serif" font-size="10.00">_ipyparallel</text>
</a>
</g>
</g>
<!-- Node11&#45;&gt;Node27 -->
<g id="edge19" class="edge"><title>Node11&#45;&gt;Node27</title>
<path fill="none" stroke="midnightblue" d="M46.8576,-159.323C55.5538,-128.677 76.9756,-69.0154 118.143,-38.5 123.38,-34.6177 129.097,-31.3274 135.095,-28.5422"/>
<polygon fill="midnightblue" stroke="midnightblue" points="43.4204,-158.629 44.2165,-169.194 50.1825,-160.438 43.4204,-158.629"/>
</g>
<!-- Node17 -->
<g id="node7" class="node"><title>Node17</title>
<g id="a_node7"><a xlink:href="namespacecaiman_1_1mmapping.html#aa75ec735ea507b2ce7eb0e0bd33d2ba3" target="_top" xlink:title="Chunk matrix product between matrix and column vectors A memory mapped ndarray pixels x time b time x...">
<polygon fill="white" stroke="black" points="400.797,-131.5 400.797,-149.5 507.417,-149.5 507.417,-131.5 400.797,-131.5"/>
<text text-anchor="middle" x="454.107" y="-137.5" font-family="Helvetica,sans-Serif" font-size="10.00">parallel_dot_product</text>
</a>
</g>
</g>
<!-- Node16&#45;&gt;Node17 -->
<g id="edge6" class="edge"><title>Node16&#45;&gt;Node17</title>
<path fill="none" stroke="midnightblue" d="M292.543,-140.5C325.879,-140.5 368.005,-140.5 400.742,-140.5"/>
<polygon fill="midnightblue" stroke="midnightblue" points="292.5,-137 282.5,-140.5 292.5,-144 292.5,-137"/>
</g>
<!-- Node17&#45;&gt;Node18 -->
<g id="edge7" class="edge"><title>Node17&#45;&gt;Node18</title>
<path fill="none" stroke="midnightblue" d="M509.092,-151.523C523.818,-154.485 539.777,-157.655 554.525,-160.5 569.854,-163.457 586.26,-166.543 601.967,-169.459"/>
<polygon fill="midnightblue" stroke="midnightblue" points="509.619,-148.059 499.125,-149.512 508.235,-154.92 509.619,-148.059"/>
</g>
<!-- Node21 -->
<g id="node11" class="node"><title>Node21</title>
<g id="a_node11"><a xlink:href="namespacecaiman_1_1source__extraction_1_1cnmf_1_1temporal.html#ae56ee735c5b8f6fdaca8baaee1371d58" target="_top" xlink:title="Update temporal components and background given spatial components using a block coordinate descent a...">
<polygon fill="white" stroke="black" points="565.348,-122.5 565.348,-150.5 794.791,-150.5 794.791,-122.5 565.348,-122.5"/>
<text text-anchor="start" x="573.348" y="-138.5" font-family="Helvetica,sans-Serif" font-size="10.00">caiman.source_extraction.cnmf.temporal.update</text>
<text text-anchor="middle" x="680.069" y="-128.5" font-family="Helvetica,sans-Serif" font-size="10.00">_temporal_components</text>
</a>
</g>
</g>
<!-- Node17&#45;&gt;Node21 -->
<g id="edge10" class="edge"><title>Node17&#45;&gt;Node21</title>
<path fill="none" stroke="midnightblue" d="M517.627,-139.383C532.444,-139.119 548.708,-138.828 565.03,-138.537"/>
<polygon fill="midnightblue" stroke="midnightblue" points="517.552,-135.884 507.616,-139.562 517.677,-142.883 517.552,-135.884"/>
</g>
<!-- Node22 -->
<g id="node12" class="node"><title>Node22</title>
<g id="a_node12"><a xlink:href="namespacecaiman_1_1source__extraction_1_1cnmf_1_1utilities.html#a280d064e1a9888eca4b375647d031491" target="_top" xlink:title="Compute DFF function from cnmf output. ">
<polygon fill="white" stroke="black" points="554.525,-83.5 554.525,-101.5 805.613,-101.5 805.613,-83.5 554.525,-83.5"/>
<text text-anchor="middle" x="680.069" y="-89.5" font-family="Helvetica,sans-Serif" font-size="10.00">caiman.source_extraction.cnmf.utilities.extract_DF_F</text>
</a>
</g>
</g>
<!-- Node17&#45;&gt;Node22 -->
<g id="edge12" class="edge"><title>Node17&#45;&gt;Node22</title>
<path fill="none" stroke="midnightblue" d="M497.151,-128.641C519.029,-122.558 543.467,-115.928 554.525,-113.5 575.193,-108.963 597.976,-104.862 618.343,-101.514"/>
<polygon fill="midnightblue" stroke="midnightblue" points="496.027,-125.32 487.336,-131.38 497.909,-132.063 496.027,-125.32"/>
</g>
<!-- Node19 -->
<g id="node9" class="node"><title>Node19</title>
<g id="a_node9"><a xlink:href="namespacecaiman_1_1source__extraction_1_1cnmf_1_1merging.html#ad08adf2e086a22ef379b10ed3ee36936" target="_top" xlink:title="Merging of spatially overlapping components that have highly correlated temporal activity The correla...">
<polygon fill="white" stroke="black" points="843.837,-124.5 843.837,-152.5 1068.26,-152.5 1068.26,-124.5 843.837,-124.5"/>
<text text-anchor="start" x="851.837" y="-140.5" font-family="Helvetica,sans-Serif" font-size="10.00">caiman.source_extraction.cnmf.merging.merge</text>
<text text-anchor="middle" x="956.049" y="-130.5" font-family="Helvetica,sans-Serif" font-size="10.00">_components</text>
</a>
</g>
</g>
<!-- Node18&#45;&gt;Node19 -->
<g id="edge8" class="edge"><title>Node18&#45;&gt;Node19</title>
<path fill="none" stroke="midnightblue" d="M776.762,-167.783C806.999,-162.816 840.198,-157.364 869.665,-152.524"/>
<polygon fill="midnightblue" stroke="midnightblue" points="775.932,-164.372 766.631,-169.447 777.066,-171.28 775.932,-164.372"/>
</g>
<!-- Node20 -->
<g id="node10" class="node"><title>Node20</title>
<g id="a_node10"><a xlink:href="namespacecaiman_1_1source__extraction_1_1cnmf_1_1spatial.html#adbbc80bf3821229671c7f77648016071" target="_top" xlink:title="caiman.source_extraction.cnmf.spatial.basis\l_denoising">
<polygon fill="white" stroke="black" points="849.948,-171.5 849.948,-199.5 1062.15,-199.5 1062.15,-171.5 849.948,-171.5"/>
<text text-anchor="start" x="857.948" y="-187.5" font-family="Helvetica,sans-Serif" font-size="10.00">caiman.source_extraction.cnmf.spatial.basis</text>
<text text-anchor="middle" x="956.049" y="-177.5" font-family="Helvetica,sans-Serif" font-size="10.00">_denoising</text>
</a>
</g>
</g>
<!-- Node18&#45;&gt;Node20 -->
<g id="edge9" class="edge"><title>Node18&#45;&gt;Node20</title>
<path fill="none" stroke="midnightblue" d="M800.36,-184.371C816.859,-184.491 833.706,-184.614 849.923,-184.733"/>
<polygon fill="midnightblue" stroke="midnightblue" points="800.166,-180.869 790.141,-184.296 800.115,-187.869 800.166,-180.869"/>
</g>
<!-- Node21&#45;&gt;Node19 -->
<g id="edge11" class="edge"><title>Node21&#45;&gt;Node19</title>
<path fill="none" stroke="midnightblue" d="M805.166,-137.406C818.042,-137.5 831.071,-137.595 843.793,-137.688"/>
<polygon fill="midnightblue" stroke="midnightblue" points="804.906,-133.904 794.881,-137.331 804.855,-140.904 804.906,-133.904"/>
</g>
<!-- Node23 -->
<g id="node13" class="node"><title>Node23</title>
<g id="a_node13"><a xlink:href="namespacecaiman_1_1source__extraction_1_1cnmf_1_1utilities.html#aea3aa78c7c153170012079014e1f4895" target="_top" xlink:title="caiman.source_extraction.cnmf.utilities.compute\lDFF_traces">
<polygon fill="white" stroke="black" points="841.613,-77.5 841.613,-105.5 1070.48,-105.5 1070.48,-77.5 841.613,-77.5"/>
<text text-anchor="start" x="849.613" y="-93.5" font-family="Helvetica,sans-Serif" font-size="10.00">caiman.source_extraction.cnmf.utilities.compute</text>
<text text-anchor="middle" x="956.049" y="-83.5" font-family="Helvetica,sans-Serif" font-size="10.00">DFF_traces</text>
</a>
</g>
</g>
<!-- Node22&#45;&gt;Node23 -->
<g id="edge13" class="edge"><title>Node22&#45;&gt;Node23</title>
<path fill="none" stroke="midnightblue" d="M815.673,-92.0087C824.238,-91.9774 832.815,-91.9461 841.271,-91.9153"/>
<polygon fill="midnightblue" stroke="midnightblue" points="815.62,-88.5088 805.633,-92.0454 815.646,-95.5087 815.62,-88.5088"/>
</g>
<!-- Node25 -->
<g id="node15" class="node"><title>Node25</title>
<g id="a_node15"><a xlink:href="namespacecaiman_1_1base_1_1movies.html#a5a35758b31edb4a9b2105a058a0882a6" target="_top" xlink:title="load movies from list of file names ">
<polygon fill="white" stroke="black" points="389.688,-84.5 389.688,-112.5 518.525,-112.5 518.525,-84.5 389.688,-84.5"/>
<text text-anchor="start" x="397.688" y="-100.5" font-family="Helvetica,sans-Serif" font-size="10.00">caiman.base.movies.load</text>
<text text-anchor="middle" x="454.107" y="-90.5" font-family="Helvetica,sans-Serif" font-size="10.00">_movie_chain</text>
</a>
</g>
</g>
<!-- Node24&#45;&gt;Node25 -->
<g id="edge15" class="edge"><title>Node24&#45;&gt;Node25</title>
<path fill="none" stroke="midnightblue" d="M310.646,-95.3576C336.267,-94.2835 364.762,-93.6989 389.494,-93.7572"/>
<polygon fill="midnightblue" stroke="midnightblue" points="310.443,-91.8631 300.611,-95.8108 310.759,-98.856 310.443,-91.8631"/>
</g>
<!-- Node25&#45;&gt;Node24 -->
<g id="edge16" class="edge"><title>Node25&#45;&gt;Node24</title>
<path fill="none" stroke="midnightblue" d="M379.461,-106.639C353.847,-107.714 325.351,-108.3 300.611,-108.243"/>
<polygon fill="midnightblue" stroke="midnightblue" points="379.662,-110.133 389.494,-106.185 379.346,-103.141 379.662,-110.133"/>
</g>
</g>
</svg>
