<?xml version="1.0" encoding="UTF-8" standalone="no"?>
<!DOCTYPE svg PUBLIC "-//W3C//DTD SVG 1.1//EN"
 "http://www.w3.org/Graphics/SVG/1.1/DTD/svg11.dtd">
<!-- Generated by graphviz version 2.38.0 (20140413.2041)
 -->
<!-- Title: nb_plot_contour Pages: 1 -->
<svg width="198pt" height="27pt"
 viewBox="0.00 0.00 198.30 27.00" xmlns="http://www.w3.org/2000/svg" xmlns:xlink="http://www.w3.org/1999/xlink">
<g id="graph0" class="graph" transform="scale(1 1) rotate(0) translate(4 23)">
<title>nb_plot_contour</title>
<polygon fill="white" stroke="none" points="-4,4 -4,-23 194.305,-23 194.305,4 -4,4"/>
<!-- Node25 -->
<g id="node1" class="node"><title>Node25</title>
<polygon fill="#bfbfbf" stroke="black" points="0,-0.5 0,-18.5 87.7236,-18.5 87.7236,-0.5 0,-0.5"/>
<text text-anchor="middle" x="43.8618" y="-6.5" font-family="Helvetica,sans-Serif" font-size="10.00">nb_plot_contour</text>
</g>
<!-- Node26 -->
<g id="node2" class="node"><title>Node26</title>
<g id="a_node2"><a xlink:href="namespacecaiman_1_1utils_1_1visualization.html#ac95a3a5e8c3bee95392831c57548fc04" target="_top" xlink:title="Interactive equivalent of imshow for ipython notebook. ">
<polygon fill="white" stroke="black" points="123.724,-0.5 123.724,-18.5 190.305,-18.5 190.305,-0.5 123.724,-0.5"/>
<text text-anchor="middle" x="157.014" y="-6.5" font-family="Helvetica,sans-Serif" font-size="10.00">nb_imshow</text>
</a>
</g>
</g>
<!-- Node25&#45;&gt;Node26 -->
<g id="edge1" class="edge"><title>Node25&#45;&gt;Node26</title>
<path fill="none" stroke="midnightblue" d="M97.976,-2.75589C106.689,-2.71417 115.483,-2.89405 123.499,-3.29553"/>
<polygon fill="midnightblue" stroke="midnightblue" points="97.783,0.741725 87.8362,-2.90666 97.8872,-6.2575 97.783,0.741725"/>
</g>
<!-- Node26&#45;&gt;Node25 -->
<g id="edge2" class="edge"><title>Node26&#45;&gt;Node25</title>
<path fill="none" stroke="midnightblue" d="M113.506,-16.0813C105.096,-16.3021 96.2619,-16.3061 87.8362,-16.0933"/>
<polygon fill="midnightblue" stroke="midnightblue" points="113.638,-19.5789 123.499,-15.7045 113.374,-12.5839 113.638,-19.5789"/>
</g>
</g>
</svg>
