<?xml version="1.0" encoding="UTF-8" standalone="no"?>
<!DOCTYPE svg PUBLIC "-//W3C//DTD SVG 1.1//EN"
 "http://www.w3.org/Graphics/SVG/1.1/DTD/svg11.dtd">
<!-- Generated by graphviz version 2.38.0 (20140413.2041)
 -->
<!-- Title: _upsampled_dft Pages: 1 -->
<!--zoomable 178 -->
<svg id="main" version="1.1" xmlns="http://www.w3.org/2000/svg" xmlns:xlink="http://www.w3.org/1999/xlink" xml:space="preserve" onload="init(evt)">
<style type="text/css"><![CDATA[
.edge:hover path { stroke: red; }
.edge:hover polygon { stroke: red; fill: red; }
]]></style>
<script type="text/javascript"><![CDATA[
var edges = document.getElementsByTagName('g');
if (edges && edges.length) {
  for (var i=0;i<edges.length;i++) {
    if (edges[i].id.substr(0,4)=='edge') {
      edges[i].setAttribute('class','edge');
    }
  }
}
]]></script>
        <defs>
                <circle id="rim" cx="0" cy="0" r="7"/>
                <circle id="rim2" cx="0" cy="0" r="3.5"/>
                <g id="zoomPlus">
                        <use xlink:href="#rim" fill="#404040">
                                <set attributeName="fill" to="#808080" begin="zoomplus.mouseover" end="zoomplus.mouseout"/>
                        </use>
                        <path d="M-4,0h8M0,-4v8" fill="none" stroke="white" stroke-width="1.5" pointer-events="none"/>
                </g>
                <g id="zoomMin">
                        <use xlink:href="#rim" fill="#404040">
                                <set attributeName="fill" to="#808080" begin="zoomminus.mouseover" end="zoomminus.mouseout"/>
                        </use>
                        <path d="M-4,0h8" fill="none" stroke="white" stroke-width="1.5" pointer-events="none"/>
                </g>
                <g id="dirArrow">
                        <path fill="none" stroke="white" stroke-width="1.5" d="M0,-3.0v7 M-2.5,-0.5L0,-3.0L2.5,-0.5"/>
                </g>
               <g id="resetDef">
                       <use xlink:href="#rim2" fill="#404040">
                               <set attributeName="fill" to="#808080" begin="reset.mouseover" end="reset.mouseout"/>
                       </use>
               </g>
        </defs>

<script type="text/javascript">
var viewWidth = 541;
var viewHeight = 178;
var sectionId = 'dynsection-2';
</script>
<script xlink:href="svgpan.js"/>
<svg id="graph" class="graph">
<g id="viewport">
<title>_upsampled_dft</title>
<polygon fill="white" stroke="none" points="-4,4 -4,-174 537.328,-174 537.328,4 -4,4"/>
<!-- Node15 -->
<g id="node1" class="node"><title>Node15</title>
<polygon fill="#bfbfbf" stroke="black" points="0,-78.5 0,-96.5 87.1621,-96.5 87.1621,-78.5 0,-78.5"/>
<text text-anchor="middle" x="43.5811" y="-84.5" font-family="Helvetica,sans-Serif" font-size="10.00">_upsampled_dft</text>
</g>
<!-- Node16 -->
<g id="node2" class="node"><title>Node16</title>
<g id="a_node2"><a xlink:href="namespacecaiman_1_1motion__correction.html#a7d2c5818773d564a27f831175498ee9a" target="_top" xlink:title="motion correct many movies usingthe ipyparallel cluster Parameters file_names list of strings names o...">
<polygon fill="white" stroke="black" points="123.162,-97.5 123.162,-115.5 243.103,-115.5 243.103,-97.5 123.162,-97.5"/>
<text text-anchor="middle" x="183.132" y="-103.5" font-family="Helvetica,sans-Serif" font-size="10.00">motion_correct_parallel</text>
</a>
</g>
</g>
<!-- Node15&#45;&gt;Node16 -->
<g id="edge1" class="edge"><title>Node15&#45;&gt;Node16</title>
<path fill="none" stroke="midnightblue" d="M97.3672,-94.7914C105.746,-95.9487 114.46,-97.1524 122.973,-98.3284"/>
<polygon fill="midnightblue" stroke="midnightblue" points="97.734,-91.3089 87.3491,-93.4076 96.7761,-98.243 97.734,-91.3089"/>
</g>
<!-- Node17 -->
<g id="node3" class="node"><title>Node17</title>
<g id="a_node3"><a xlink:href="namespacecaiman_1_1motion__correction.html#a0700d66a3a6b2556b1c712daf9c18a9b" target="_top" xlink:title="register_translation">
<polygon fill="white" stroke="black" points="132.61,-60.5 132.61,-78.5 233.654,-78.5 233.654,-60.5 132.61,-60.5"/>
<text text-anchor="middle" x="183.132" y="-66.5" font-family="Helvetica,sans-Serif" font-size="10.00">register_translation</text>
</a>
</g>
</g>
<!-- Node15&#45;&gt;Node17 -->
<g id="edge2" class="edge"><title>Node15&#45;&gt;Node17</title>
<path fill="none" stroke="midnightblue" d="M97.5778,-80.5648C108.943,-79.0775 120.917,-77.5107 132.163,-76.039"/>
<polygon fill="midnightblue" stroke="midnightblue" points="96.8104,-77.1353 87.3491,-81.9034 97.7188,-84.0761 96.8104,-77.1353"/>
</g>
<!-- Node18 -->
<g id="node4" class="node"><title>Node18</title>
<g id="a_node4"><a xlink:href="namespacecaiman_1_1motion__correction.html#a683f5ee23e529946b17f6a87ae45e0a4" target="_top" xlink:title="Compute RMS error metric between src_image and target_image. ">
<polygon fill="white" stroke="black" points="279.383,-79.5 279.383,-97.5 365.974,-97.5 365.974,-79.5 279.383,-79.5"/>
<text text-anchor="middle" x="322.679" y="-85.5" font-family="Helvetica,sans-Serif" font-size="10.00">_compute_error</text>
</a>
</g>
</g>
<!-- Node17&#45;&gt;Node18 -->
<g id="edge3" class="edge"><title>Node17&#45;&gt;Node18</title>
<path fill="none" stroke="midnightblue" d="M243.741,-77.7341C255.733,-79.3906 268.103,-81.0993 279.358,-82.6541"/>
<polygon fill="midnightblue" stroke="midnightblue" points="244.175,-74.2608 233.79,-76.3594 243.217,-81.195 244.175,-74.2608"/>
</g>
<!-- Node19 -->
<g id="node5" class="node"><title>Node19</title>
<g id="a_node5"><a xlink:href="namespacecaiman_1_1motion__correction.html#aea060208c09f0e4fb01e6d31b9acf36f" target="_top" xlink:title="perform piecewise rigid motion correction iteration, by 1) dividing the FOV in patches 2) motion corr...">
<polygon fill="white" stroke="black" points="279.103,-42.5 279.103,-60.5 366.255,-60.5 366.255,-42.5 279.103,-42.5"/>
<text text-anchor="middle" x="322.679" y="-48.5" font-family="Helvetica,sans-Serif" font-size="10.00">tile_and_correct</text>
</a>
</g>
</g>
<!-- Node17&#45;&gt;Node19 -->
<g id="edge4" class="edge"><title>Node17&#45;&gt;Node19</title>
<path fill="none" stroke="midnightblue" d="M243.993,-61.6663C255.748,-60.128 267.856,-58.5435 278.912,-57.0966"/>
<polygon fill="midnightblue" stroke="midnightblue" points="243.251,-58.2335 233.79,-63.0016 244.159,-65.1743 243.251,-58.2335"/>
</g>
<!-- Node20 -->
<g id="node6" class="node"><title>Node20</title>
<g id="a_node6"><a xlink:href="namespaceabadura__demo.html#a98e8097ac25259476cca178403afebb1" target="_top" xlink:title="abadura_demo.tile_and\l_correct_wrapper">
<polygon fill="white" stroke="black" points="407.25,-141.5 407.25,-169.5 528.333,-169.5 528.333,-141.5 407.25,-141.5"/>
<text text-anchor="start" x="415.25" y="-157.5" font-family="Helvetica,sans-Serif" font-size="10.00">abadura_demo.tile_and</text>
<text text-anchor="middle" x="467.792" y="-147.5" font-family="Helvetica,sans-Serif" font-size="10.00">_correct_wrapper</text>
</a>
</g>
</g>
<!-- Node19&#45;&gt;Node20 -->
<g id="edge5" class="edge"><title>Node19&#45;&gt;Node20</title>
<path fill="none" stroke="midnightblue" d="M359.923,-65.6548C362.169,-67.1354 364.306,-68.7481 366.255,-70.5 389.952,-91.8021 377.752,-112.131 402.255,-132.5 406.371,-135.922 411.034,-138.851 415.925,-141.356"/>
<polygon fill="midnightblue" stroke="midnightblue" points="361.318,-62.4243 350.885,-60.5832 357.893,-68.529 361.318,-62.4243"/>
</g>
<!-- Node21 -->
<g id="node7" class="node"><title>Node21</title>
<g id="a_node7"><a xlink:href="namespacedemo__motion__correction__nonrigid.html#a7c12b0a7d034249b2ceb2b7a2a36498b" target="_top" xlink:title="demo_motion_correction\l_nonrigid.tile_and_correct\l_wrapper">
<polygon fill="white" stroke="black" points="402.255,-84.5 402.255,-122.5 533.328,-122.5 533.328,-84.5 402.255,-84.5"/>
<text text-anchor="start" x="410.255" y="-110.5" font-family="Helvetica,sans-Serif" font-size="10.00">demo_motion_correction</text>
<text text-anchor="start" x="410.255" y="-100.5" font-family="Helvetica,sans-Serif" font-size="10.00">_nonrigid.tile_and_correct</text>
<text text-anchor="middle" x="467.792" y="-90.5" font-family="Helvetica,sans-Serif" font-size="10.00">_wrapper</text>
</a>
</g>
</g>
<!-- Node19&#45;&gt;Node21 -->
<g id="edge6" class="edge"><title>Node19&#45;&gt;Node21</title>
<path fill="none" stroke="midnightblue" d="M358.041,-63.9856C374.885,-70.1058 395.537,-77.6096 414.302,-84.4278"/>
<polygon fill="midnightblue" stroke="midnightblue" points="359.201,-60.6832 348.607,-60.5577 356.811,-67.2624 359.201,-60.6832"/>
</g>
<!-- Node22 -->
<g id="node8" class="node"><title>Node22</title>
<g id="a_node8"><a xlink:href="namespacecaiman_1_1motion__correction.html#a88ef513cfa324fc8548e4fb46d7a67e5" target="_top" xlink:title="create a matrix that is used to normalize the intersection of the stiched patches ...">
<polygon fill="white" stroke="black" points="412.27,-37.5 412.27,-65.5 523.313,-65.5 523.313,-37.5 412.27,-37.5"/>
<text text-anchor="start" x="420.27" y="-53.5" font-family="Helvetica,sans-Serif" font-size="10.00">create_weight_matrix</text>
<text text-anchor="middle" x="467.792" y="-43.5" font-family="Helvetica,sans-Serif" font-size="10.00">_for_blending</text>
</a>
</g>
</g>
<!-- Node19&#45;&gt;Node22 -->
<g id="edge7" class="edge"><title>Node19&#45;&gt;Node22</title>
<path fill="none" stroke="midnightblue" d="M376.955,-44.9497C388.459,-44.6932 400.638,-44.6838 412.192,-44.9214"/>
<polygon fill="midnightblue" stroke="midnightblue" points="376.51,-41.4612 366.617,-45.2547 376.716,-48.4582 376.51,-41.4612"/>
</g>
<!-- Node23 -->
<g id="node9" class="node"><title>Node23</title>
<g id="a_node9"><a xlink:href="namespacecaiman_1_1motion__correction.html#a9c4d6e518f42c395cb58a08d2ff21f45" target="_top" xlink:title="tile_and_correct_wrapper">
<polygon fill="white" stroke="black" points="403.371,-0.5 403.371,-18.5 532.212,-18.5 532.212,-0.5 403.371,-0.5"/>
<text text-anchor="middle" x="467.792" y="-6.5" font-family="Helvetica,sans-Serif" font-size="10.00">tile_and_correct_wrapper</text>
</a>
</g>
</g>
<!-- Node19&#45;&gt;Node23 -->
<g id="edge9" class="edge"><title>Node19&#45;&gt;Node23</title>
<path fill="none" stroke="midnightblue" d="M364.074,-39.6449C386.768,-32.9849 414.658,-24.7998 435.647,-18.6401"/>
<polygon fill="midnightblue" stroke="midnightblue" points="362.99,-36.3155 354.38,-42.4899 364.961,-43.0323 362.99,-36.3155"/>
</g>
<!-- Node22&#45;&gt;Node19 -->
<g id="edge8" class="edge"><title>Node22&#45;&gt;Node19</title>
<path fill="none" stroke="midnightblue" d="M402.166,-58.2218C390.12,-58.3202 377.809,-58.1613 366.617,-57.7453"/>
<polygon fill="midnightblue" stroke="midnightblue" points="402.243,-61.7211 412.192,-58.0786 402.143,-54.7218 402.243,-61.7211"/>
</g>
</g>
</svg>
        <g id="navigator" transform="translate(0 0)" fill="#404254">
                <rect fill="#f2f5e9" fill-opacity="0.5" stroke="#606060" stroke-width=".5" x="0" y="0" width="60" height="60"/>
                <use id="zoomplus" xlink:href="#zoomPlus" x="17" y="9" onmousedown="handleZoom(evt,'in')"/>
                <use id="zoomminus" xlink:href="#zoomMin" x="42" y="9" onmousedown="handleZoom(evt,'out')"/>
                <use id="reset" xlink:href="#resetDef" x="30" y="36" onmousedown="handleReset()"/>
                <g id="arrowUp" xlink:href="#dirArrow" transform="translate(30 24)" onmousedown="handlePan(0,-1)">
                  <use xlink:href="#rim" fill="#404040">
                        <set attributeName="fill" to="#808080" begin="arrowUp.mouseover" end="arrowUp.mouseout"/>
                  </use>
                  <path fill="none" stroke="white" stroke-width="1.5" d="M0,-3.0v7 M-2.5,-0.5L0,-3.0L2.5,-0.5"/>
                </g>
                <g id="arrowRight" xlink:href="#dirArrow" transform="rotate(90) translate(36 -43)" onmousedown="handlePan(1,0)">
                  <use xlink:href="#rim" fill="#404040">
                        <set attributeName="fill" to="#808080" begin="arrowRight.mouseover" end="arrowRight.mouseout"/>
                  </use>
                  <path fill="none" stroke="white" stroke-width="1.5" d="M0,-3.0v7 M-2.5,-0.5L0,-3.0L2.5,-0.5"/>
                </g>
                <g id="arrowDown" xlink:href="#dirArrow" transform="rotate(180) translate(-30 -48)" onmousedown="handlePan(0,1)">
                  <use xlink:href="#rim" fill="#404040">
                        <set attributeName="fill" to="#808080" begin="arrowDown.mouseover" end="arrowDown.mouseout"/>
                  </use>
                  <path fill="none" stroke="white" stroke-width="1.5" d="M0,-3.0v7 M-2.5,-0.5L0,-3.0L2.5,-0.5"/>
                </g>
                <g id="arrowLeft" xlink:href="#dirArrow" transform="rotate(270) translate(-36 17)" onmousedown="handlePan(-1,0)">
                  <use xlink:href="#rim" fill="#404040">
                        <set attributeName="fill" to="#808080" begin="arrowLeft.mouseover" end="arrowLeft.mouseout"/>
                  </use>
                  <path fill="none" stroke="white" stroke-width="1.5" d="M0,-3.0v7 M-2.5,-0.5L0,-3.0L2.5,-0.5"/>
                </g>
        </g>
        <svg viewBox="0 0 15 15" width="100%" height="30px" preserveAspectRatio="xMaxYMin meet">
         <g id="arrow_out" transform="scale(0.3 0.3)">
          <a xlink:href="namespacecaiman_1_1motion__correction_aa339d12f180017a763175f450816f158_icgraph_org.svg" target="_base">
           <rect id="button" ry="5" rx="5" y="6" x="6" height="38" width="38"
                fill="#f2f5e9" fill-opacity="0.5" stroke="#606060" stroke-width="1.0"/>
           <path id="arrow"
             d="M 11.500037,31.436501 C 11.940474,20.09759 22.043105,11.32322 32.158766,21.979434 L 37.068811,17.246167 C 37.068811,17.246167 37.088388,32 37.088388,32 L 22.160133,31.978069 C 22.160133,31.978069 26.997745,27.140456 26.997745,27.140456 C 18.528582,18.264221 13.291696,25.230495 11.500037,31.436501 z"
             style="fill:#404040;"/>
          </a>
         </g>
        </svg>
</svg>
