<?xml version="1.0" encoding="UTF-8" standalone="no"?>
<!DOCTYPE svg PUBLIC "-//W3C//DTD SVG 1.1//EN"
 "http://www.w3.org/Graphics/SVG/1.1/DTD/svg11.dtd">
<!-- Generated by graphviz version 2.38.0 (20140413.2041)
 -->
<!-- Title: finetune Pages: 1 -->
<svg width="426pt" height="74pt"
 viewBox="0.00 0.00 426.48 74.00" xmlns="http://www.w3.org/2000/svg" xmlns:xlink="http://www.w3.org/1999/xlink">
<g id="graph0" class="graph" transform="scale(1 1) rotate(0) translate(4 70)">
<title>finetune</title>
<polygon fill="white" stroke="none" points="-4,4 -4,-70 422.477,-70 422.477,4 -4,4"/>
<!-- Node1 -->
<g id="node1" class="node"><title>Node1</title>
<polygon fill="#bfbfbf" stroke="black" points="0,-26.5 0,-44.5 51.5859,-44.5 51.5859,-26.5 0,-26.5"/>
<text text-anchor="middle" x="25.793" y="-32.5" font-family="Helvetica,sans-Serif" font-size="10.00">finetune</text>
</g>
<!-- Node2 -->
<g id="node2" class="node"><title>Node2</title>
<g id="a_node2"><a xlink:href="namespacecaiman_1_1source__extraction_1_1cnmf_1_1initialization.html#a7dd7bbb01fcb5237fc7d7674b870c9ae" target="_top" xlink:title="Greedy initialization of spatial and temporal components using spatial Gaussian filtering. ">
<polygon fill="white" stroke="black" points="87.5859,-26.5 87.5859,-44.5 151.94,-44.5 151.94,-26.5 87.5859,-26.5"/>
<text text-anchor="middle" x="119.763" y="-32.5" font-family="Helvetica,sans-Serif" font-size="10.00">greedyROI</text>
</a>
</g>
</g>
<!-- Node1&#45;&gt;Node2 -->
<g id="edge1" class="edge"><title>Node1&#45;&gt;Node2</title>
<path fill="none" stroke="midnightblue" d="M62.1232,-35.5C70.4534,-35.5 79.2772,-35.5 87.4177,-35.5"/>
<polygon fill="midnightblue" stroke="midnightblue" points="61.9243,-32.0001 51.9242,-35.5 61.9242,-39.0001 61.9243,-32.0001"/>
</g>
<!-- Node3 -->
<g id="node3" class="node"><title>Node3</title>
<g id="a_node3"><a xlink:href="namespacecaiman_1_1source__extraction_1_1cnmf_1_1initialization.html#ad762ff1c4aefedc408fe609de7cb1ebc" target="_top" xlink:title="Initalize components. ">
<polygon fill="white" stroke="black" points="247.403,-47.5 247.403,-65.5 359.014,-65.5 359.014,-47.5 247.403,-47.5"/>
<text text-anchor="middle" x="303.208" y="-53.5" font-family="Helvetica,sans-Serif" font-size="10.00">initialize_components</text>
</a>
</g>
</g>
<!-- Node2&#45;&gt;Node3 -->
<g id="edge2" class="edge"><title>Node2&#45;&gt;Node3</title>
<path fill="none" stroke="midnightblue" d="M161.938,-40.2655C187.188,-43.1879 219.825,-46.9652 247.263,-50.1408"/>
<polygon fill="midnightblue" stroke="midnightblue" points="162.291,-36.783 151.955,-39.11 161.486,-43.7366 162.291,-36.783"/>
</g>
<!-- Node4 -->
<g id="node4" class="node"><title>Node4</title>
<g id="a_node4"><a xlink:href="namespacecaiman_1_1source__extraction_1_1cnmf_1_1utilities.html#ad671b2e9120b3437304b3149d174f625" target="_top" xlink:title="Plots contour of spatial components against a background image and allows to interactively add novel ...">
<polygon fill="white" stroke="black" points="187.94,-0.5 187.94,-28.5 418.477,-28.5 418.477,-0.5 187.94,-0.5"/>
<text text-anchor="start" x="195.94" y="-16.5" font-family="Helvetica,sans-Serif" font-size="10.00">caiman.source_extraction.cnmf.utilities.manually</text>
<text text-anchor="middle" x="303.208" y="-6.5" font-family="Helvetica,sans-Serif" font-size="10.00">_refine_components</text>
</a>
</g>
</g>
<!-- Node2&#45;&gt;Node4 -->
<g id="edge3" class="edge"><title>Node2&#45;&gt;Node4</title>
<path fill="none" stroke="midnightblue" d="M161.985,-30.7291C169.963,-29.8058 178.676,-28.7973 187.73,-27.7495"/>
<polygon fill="midnightblue" stroke="midnightblue" points="161.486,-27.2634 151.955,-31.89 162.291,-34.217 161.486,-27.2634"/>
</g>
</g>
</svg>
